<svg width="128" height="128" viewBox="0 0 128 128" fill="none" xmlns="http://www.w3.org/2000/svg">
<g clip-path="url(#clip0_257_6212)">
<rect width="128" height="128" fill="#D80027"/>
<rect width="128" height="128" fill="white"/>
<rect y="92" width="128" height="36" fill="#74ACDF"/>
<rect width="128" height="36" fill="#74ACDF"/>
<path d="M64.0938 65.3767L72.2554 83.1579C72.2554 83.1579 72.3958 83.4978 72.6226 83.4042C72.8492 83.3105 72.7083 82.9706 72.7083 82.9706L65.9059 64.6261M65.7109 71.5444C65.6115 74.2486 67.2749 75.7359 67.0574 78.1507C66.8403 80.5658 68.1667 81.9311 68.4742 82.8702C68.7821 83.8094 68.1415 84.371 68.4174 84.5046C68.6938 84.6384 69.298 83.8963 69.1011 82.5612C68.9041 81.226 67.8905 80.8297 68.1287 77.8801C68.3668 74.9306 66.9223 74.2437 67.274 71.5532" fill="#F6B40E"/>
<path d="M64.0938 65.3767L72.2554 83.1579C72.2554 83.1579 72.3958 83.4978 72.6226 83.4042C72.8492 83.3105 72.7083 82.9706 72.7083 82.9706L65.9059 64.6261M65.7109 71.5444C65.6115 74.2486 67.2749 75.7359 67.0574 78.1507C66.8403 80.5658 68.1667 81.9311 68.4742 82.8702C68.7821 83.8094 68.1415 84.371 68.4174 84.5046C68.6938 84.6384 69.298 83.8963 69.1011 82.5612C68.9041 81.226 67.8905 80.8297 68.1287 77.8801C68.3668 74.9306 66.9223 74.2437 67.274 71.5532" stroke="#85340A" stroke-width="0.318844"/>
<path d="M64.0189 65.002L64.7546 84.553C64.7546 84.553 64.7542 84.9207 64.9995 84.921C65.2448 84.9211 65.2446 84.5532 65.2446 84.5532L65.9804 65.002M63.1526 71.3191C62.0259 73.7794 62.9935 75.79 61.8684 77.9378C60.7436 80.0859 61.4465 81.8549 61.3713 82.8402C61.2963 83.8257 60.4896 84.0994 60.6934 84.3285C60.8975 84.5578 61.7397 84.1035 62.0687 82.7946C62.3977 81.4856 61.6129 80.7316 62.9618 78.0977C64.3105 75.4639 63.2388 74.2764 64.5933 71.9253" fill="#F6B40E"/>
<path d="M64.0189 65.002L64.7546 84.553C64.7546 84.553 64.7542 84.9207 64.9995 84.921C65.2448 84.9211 65.2446 84.5532 65.2446 84.5532L65.9804 65.002M63.1526 71.3191C62.0259 73.7794 62.9935 75.79 61.8684 77.9378C60.7436 80.0859 61.4465 81.8549 61.3713 82.8402C61.2963 83.8257 60.4896 84.0994 60.6934 84.3285C60.8975 84.5578 61.7397 84.1035 62.0687 82.7946C62.3977 81.4856 61.6129 80.7316 62.9618 78.0977C64.3105 75.4639 63.2388 74.2764 64.5933 71.9253" stroke="#85340A" stroke-width="0.318844"/>
<path d="M64.0935 64.6259L57.2912 82.9701C57.2912 82.9701 57.1501 83.3097 57.3766 83.4038C57.6032 83.4978 57.7438 83.1579 57.7438 83.1579L65.9057 65.3765M60.8756 70.1306C58.8932 71.9724 59.0177 74.2003 57.1563 75.754C55.295 77.3082 55.2674 79.2115 54.8209 80.093C54.3745 80.9748 53.5244 80.919 53.625 81.2086C53.7258 81.4985 54.6778 81.4011 55.4827 80.3177C56.2875 79.2343 55.8511 78.2374 58.1052 76.3202C60.3592 74.403 59.8235 72.8958 61.9747 71.242" fill="#F6B40E"/>
<path d="M64.0935 64.6259L57.2912 82.9701C57.2912 82.9701 57.1501 83.3097 57.3766 83.4038C57.6032 83.4978 57.7438 83.1579 57.7438 83.1579L65.9057 65.3765M60.8756 70.1306C58.8932 71.9724 59.0177 74.2003 57.1563 75.754C55.295 77.3082 55.2674 79.2115 54.8209 80.093C54.3745 80.9748 53.5244 80.919 53.625 81.2086C53.7258 81.4985 54.6778 81.4011 55.4827 80.3177C56.2875 79.2343 55.8511 78.2374 58.1052 76.3202C60.3592 74.403 59.8235 72.8958 61.9747 71.242" stroke="#85340A" stroke-width="0.318844"/>
<path d="M64.306 64.3081L51.0013 78.6528C51.0013 78.6528 50.741 78.9127 50.9142 79.0863C51.0876 79.2598 51.3476 78.9995 51.3476 78.9995L65.693 65.695M59.2265 68.1623C56.6901 69.1054 55.9525 71.2113 53.6382 71.9344C51.3238 72.6581 50.57 74.406 49.8201 75.0495C49.0702 75.6933 48.3062 75.3164 48.2883 75.6225C48.2705 75.9289 49.1873 76.2032 50.3455 75.5103C51.5037 74.8174 51.482 73.7293 54.2982 72.8207C57.1144 71.9119 57.1963 70.3145 59.8166 69.6098" fill="#F6B40E"/>
<path d="M64.306 64.3081L51.0013 78.6528C51.0013 78.6528 50.741 78.9127 50.9142 79.0863C51.0876 79.2598 51.3476 78.9995 51.3476 78.9995L65.693 65.695M59.2265 68.1623C56.6901 69.1054 55.9525 71.2113 53.6382 71.9344C51.3238 72.6581 50.57 74.406 49.8201 75.0495C49.0702 75.6933 48.3062 75.3164 48.2883 75.6225C48.2705 75.9289 49.1873 76.2032 50.3455 75.5103C51.5037 74.8174 51.482 73.7293 54.2982 72.8207C57.1144 71.9119 57.1963 70.3145 59.8166 69.6098" stroke="#85340A" stroke-width="0.318844"/>
<path d="M66.2363 72.0032C66.3664 74.6001 67.8388 75.7501 67.5497 78.1167C68.1845 76.2452 66.6538 74.7944 66.7408 72.0302M64.5469 65.216L70.1365 77.4283L65.4527 64.8402" fill="#85340A"/>
<path d="M63.4628 71.9434C62.5891 74.3924 63.5094 76.0183 62.3366 78.0941C63.6394 76.608 62.7804 74.6818 63.9186 72.1614M64.4994 65.0263L64.9899 78.448L65.4801 65.0258" fill="#85340A"/>
<path d="M60.9233 70.8266C59.1789 72.7549 59.4069 74.6092 57.529 76.0782C59.3013 75.2037 59.2448 73.0955 61.261 71.2024M64.5281 64.8327L59.8449 77.4205L65.4343 65.2075" fill="#85340A"/>
<path d="M59.0044 68.8233C56.6549 69.9372 56.156 71.7376 53.8588 72.3762C55.8308 72.2465 56.5855 70.2771 59.1726 69.2997M64.6287 64.6651L55.4847 74.5026L65.3225 65.3582" fill="#85340A"/>
<path d="M64.6243 64.0931L46.8428 72.2545C46.8428 72.2545 46.5028 72.395 46.5965 72.6217C46.6902 72.8483 47.0301 72.7074 47.0301 72.7074L65.375 65.9052M58.4565 65.7102C55.7523 65.6108 54.2649 67.2741 51.8501 67.0566C49.4349 66.8395 48.0696 68.1659 47.1304 68.4735C46.1912 68.7813 45.6296 68.1407 45.496 68.4167C45.3623 68.693 46.1043 69.2972 47.4395 69.1003C48.7747 68.9033 49.1711 67.8897 52.1207 68.128C55.0702 68.366 55.7572 66.9216 58.4477 67.2732" fill="#F6B40E"/>
<path d="M64.6243 64.0931L46.8428 72.2545C46.8428 72.2545 46.5028 72.395 46.5965 72.6217C46.6902 72.8483 47.0301 72.7074 47.0301 72.7074L65.375 65.9052M58.4565 65.7102C55.7523 65.6108 54.2649 67.2741 51.8501 67.0566C49.4349 66.8395 48.0696 68.1659 47.1304 68.4735C46.1912 68.7813 45.6296 68.1407 45.496 68.4167C45.3623 68.693 46.1043 69.2972 47.4395 69.1003C48.7747 68.9033 49.1711 67.8897 52.1207 68.128C55.0702 68.366 55.7572 66.9216 58.4477 67.2732" stroke="#85340A" stroke-width="0.318844"/>
<path d="M64.9998 64.0183L45.4485 64.7539C45.4485 64.7539 45.0807 64.7536 45.0804 64.9989C45.0803 65.2441 45.4482 65.244 45.4482 65.244L64.9999 65.9797M58.6826 63.152C56.2223 62.0253 54.2116 62.9929 52.0638 61.8679C49.9156 60.7431 48.1466 61.446 47.1613 61.3708C46.1757 61.2958 45.902 60.489 45.673 60.6928C45.4437 60.8969 45.898 61.7392 47.2069 62.0681C48.5158 62.3971 49.2699 61.6124 51.9038 62.9612C54.5377 64.3099 55.7252 63.2382 58.0764 64.5927" fill="#F6B40E"/>
<path d="M64.9998 64.0183L45.4485 64.7539C45.4485 64.7539 45.0807 64.7536 45.0804 64.9989C45.0803 65.2441 45.4482 65.244 45.4482 65.244L64.9999 65.9797M58.6826 63.152C56.2223 62.0253 54.2116 62.9929 52.0638 61.8679C49.9156 60.7431 48.1466 61.446 47.1613 61.3708C46.1757 61.2958 45.902 60.489 45.673 60.6928C45.4437 60.8969 45.898 61.7392 47.2069 62.0681C48.5158 62.3971 49.2699 61.6124 51.9038 62.9612C54.5377 64.3099 55.7252 63.2382 58.0764 64.5927" stroke="#85340A" stroke-width="0.318844"/>
<path d="M65.3753 64.0928L47.0307 57.2906C47.0307 57.2906 46.691 57.1496 46.5969 57.3761C46.5029 57.6026 46.8429 57.7432 46.8429 57.7432L64.6247 65.9049M59.8705 60.875C58.0286 58.8926 55.8007 59.0171 54.247 57.1557C52.6927 55.2945 50.7893 55.2669 49.9078 54.8204C49.026 54.374 49.0819 53.5239 48.7922 53.6245C48.5023 53.7254 48.5997 54.6773 49.6831 55.4821C50.7665 56.287 51.7635 55.8505 53.6807 58.1046C55.598 60.3586 57.1052 59.8229 58.759 61.974" fill="#F6B40E"/>
<path d="M65.3753 64.0928L47.0307 57.2906C47.0307 57.2906 46.691 57.1496 46.5969 57.3761C46.5029 57.6026 46.8429 57.7432 46.8429 57.7432L64.6247 65.9049M59.8705 60.875C58.0286 58.8926 55.8007 59.0171 54.247 57.1557C52.6927 55.2945 50.7893 55.2669 49.9078 54.8204C49.026 54.374 49.0819 53.5239 48.7922 53.6245C48.5023 53.7254 48.5997 54.6773 49.6831 55.4821C50.7665 56.287 51.7635 55.8505 53.6807 58.1046C55.598 60.3586 57.1052 59.8229 58.759 61.974" stroke="#85340A" stroke-width="0.318844"/>
<path d="M65.6937 64.3055L51.3486 51.0011C51.3486 51.0011 51.0888 50.7408 50.9151 50.914C50.7416 51.0873 51.0019 51.3474 51.0019 51.3474L64.3067 65.6924M61.8393 59.2261C60.8963 56.6897 58.7903 55.9522 58.0672 53.6379C57.3435 51.3236 55.5956 50.5698 54.952 49.8199C54.3082 49.07 54.6851 48.306 54.379 48.2882C54.0726 48.2704 53.7982 49.1871 54.4912 50.3453C55.1841 51.5034 56.2722 51.4817 57.1809 54.2979C58.0897 57.114 59.6871 57.1959 60.3919 59.8161" fill="#F6B40E"/>
<path d="M65.6937 64.3055L51.3486 51.0011C51.3486 51.0011 51.0888 50.7408 50.9151 50.914C50.7416 51.0873 51.0019 51.3474 51.0019 51.3474L64.3067 65.6924M61.8393 59.2261C60.8963 56.6897 58.7903 55.9522 58.0672 53.6379C57.3435 51.3236 55.5956 50.5698 54.952 49.8199C54.3082 49.07 54.6851 48.306 54.379 48.2882C54.0726 48.2704 53.7982 49.1871 54.4912 50.3453C55.1841 51.5034 56.2722 51.4817 57.1809 54.2979C58.0897 57.114 59.6871 57.1959 60.3919 59.8161" stroke="#85340A" stroke-width="0.318844"/>
<path d="M57.9984 66.2358C55.4015 66.3658 54.2515 67.8382 51.8848 67.5491C53.7564 68.1839 55.2072 66.6532 57.9715 66.7402M64.7859 64.5463L52.5732 70.1358L65.1616 65.4521" fill="#85340A"/>
<path d="M58.0582 63.4615C55.6091 62.5878 53.9832 63.5081 51.9073 62.3353C53.3935 63.638 55.3197 62.7791 57.8402 63.9172M64.9755 64.4981L51.5534 64.9886L64.976 65.4787" fill="#85340A"/>
<path d="M59.175 60.9228C57.2468 59.1785 55.3924 59.4065 53.9234 57.5286C54.7979 59.3008 56.9062 59.2444 58.7993 61.2604M65.1691 64.5275L52.581 59.8444L64.7943 65.4337" fill="#85340A"/>
<path d="M61.1785 59.0039C60.0645 56.6544 58.2641 56.1555 57.6255 53.8584C57.7552 55.8304 59.7247 56.585 60.7021 59.172M65.3368 64.628L55.4991 55.4842L64.6437 65.3218" fill="#85340A"/>
<path d="M65.9065 64.6249L57.7448 46.8437C57.7448 46.8437 57.6044 46.5038 57.3777 46.5974C57.151 46.6911 57.292 47.031 57.292 47.031L64.0943 65.3755M64.2894 58.4571C64.3887 55.753 62.7254 54.2657 62.9429 51.8509C63.16 49.4358 61.8336 48.0704 61.526 47.1314C61.2181 46.1922 61.8587 45.6306 61.5828 45.497C61.3065 45.3632 60.7022 46.1052 60.8992 47.4404C61.0962 48.7756 62.1097 49.1719 61.8715 52.1215C61.6334 55.0709 63.0779 55.7579 62.7263 58.4484" fill="#F6B40E"/>
<path d="M65.9065 64.6249L57.7448 46.8437C57.7448 46.8437 57.6044 46.5038 57.3777 46.5974C57.151 46.6911 57.292 47.031 57.292 47.031L64.0943 65.3755M64.2894 58.4571C64.3887 55.753 62.7254 54.2657 62.9429 51.8509C63.16 49.4358 61.8336 48.0704 61.526 47.1314C61.2181 46.1922 61.8587 45.6306 61.5828 45.497C61.3065 45.3632 60.7022 46.1052 60.8992 47.4404C61.0962 48.7756 62.1097 49.1719 61.8715 52.1215C61.6334 55.0709 63.0779 55.7579 62.7263 58.4484" stroke="#85340A" stroke-width="0.318844"/>
<path d="M65.9814 64.9994L65.2457 45.4485C65.2457 45.4485 65.246 45.0807 65.0007 45.0804C64.7555 45.0803 64.7556 45.4482 64.7556 45.4482L64.0199 64.9994M66.8477 58.6823C67.9743 56.222 67.0067 54.2114 68.1318 52.0637C69.2567 49.9155 68.5537 48.1465 68.6289 47.1612C68.7039 46.1757 69.5107 45.902 69.3069 45.6729C69.1028 45.4436 68.2605 45.8979 67.9316 47.2068C67.6026 48.5158 68.3873 49.2698 67.0385 51.9037C65.6898 54.5375 66.7614 55.725 65.4069 58.0761" fill="#F6B40E"/>
<path d="M65.9814 64.9994L65.2457 45.4485C65.2457 45.4485 65.246 45.0807 65.0007 45.0804C64.7555 45.0803 64.7556 45.4482 64.7556 45.4482L64.0199 64.9994M66.8477 58.6823C67.9743 56.222 67.0067 54.2114 68.1318 52.0637C69.2567 49.9155 68.5537 48.1465 68.6289 47.1612C68.7039 46.1757 69.5107 45.902 69.3069 45.6729C69.1028 45.4436 68.2605 45.8979 67.9316 47.2068C67.6026 48.5158 68.3873 49.2698 67.0385 51.9037C65.6898 54.5375 66.7614 55.725 65.4069 58.0761" stroke="#85340A" stroke-width="0.318844"/>
<path d="M65.9066 65.376L72.709 47.0317C72.709 47.0317 72.85 46.6921 72.6235 46.598C72.397 46.504 72.2563 46.844 72.2563 46.844L64.0944 64.6254M69.1245 59.8713C71.107 58.0294 70.9824 55.8016 72.8438 54.2478C74.7051 52.6936 74.7327 50.7903 75.1792 49.9088C75.6257 49.027 76.4757 49.0829 76.3751 48.7933C76.2743 48.5033 75.3223 48.6007 74.5175 49.6841C73.7126 50.7675 74.1491 51.7645 71.8949 53.6816C69.6409 55.5989 70.1766 57.106 68.0254 58.7598" fill="#F6B40E"/>
<path d="M65.9066 65.376L72.709 47.0317C72.709 47.0317 72.85 46.6921 72.6235 46.598C72.397 46.504 72.2563 46.844 72.2563 46.844L64.0944 64.6254M69.1245 59.8713C71.107 58.0294 70.9824 55.8016 72.8438 54.2478C74.7051 52.6936 74.7327 50.7903 75.1792 49.9088C75.6257 49.027 76.4757 49.0829 76.3751 48.7933C76.2743 48.5033 75.3223 48.6007 74.5175 49.6841C73.7126 50.7675 74.1491 51.7645 71.8949 53.6816C69.6409 55.5989 70.1766 57.106 68.0254 58.7598" stroke="#85340A" stroke-width="0.318844"/>
<path d="M65.694 65.6943L78.9987 51.3495C78.9987 51.3495 79.259 51.0897 79.0858 50.9161C78.9124 50.7426 78.6524 51.0028 78.6524 51.0028L64.307 64.3074M70.7735 61.84C73.3099 60.897 74.0475 58.7911 76.3618 58.068C78.6762 57.3443 79.43 55.5964 80.1799 54.9529C80.9298 54.3091 81.6938 54.686 81.7117 54.3799C81.7295 54.0734 80.8127 53.7991 79.6545 54.4921C78.4963 55.185 78.518 56.2731 75.7018 57.1817C72.8856 58.0905 72.8037 59.6879 70.1834 60.3926" fill="#F6B40E"/>
<path d="M65.694 65.6943L78.9987 51.3495C78.9987 51.3495 79.259 51.0897 79.0858 50.9161C78.9124 50.7426 78.6524 51.0028 78.6524 51.0028L64.307 64.3074M70.7735 61.84C73.3099 60.897 74.0475 58.7911 76.3618 58.068C78.6762 57.3443 79.43 55.5964 80.1799 54.9529C80.9298 54.3091 81.6938 54.686 81.7117 54.3799C81.7295 54.0734 80.8127 53.7991 79.6545 54.4921C78.4963 55.185 78.518 56.2731 75.7018 57.1817C72.8856 58.0905 72.8037 59.6879 70.1834 60.3926" stroke="#85340A" stroke-width="0.318844"/>
<path d="M63.7638 57.9992C63.6337 55.4023 62.1613 54.2523 62.4504 51.8857C61.8156 53.7572 63.3463 55.208 63.2593 57.9722M65.4532 64.7864L59.8637 52.5741L64.5474 65.1622" fill="#85340A"/>
<path d="M66.5373 58.059C67.411 55.61 66.4907 53.9841 67.6635 51.9083C66.3608 53.3944 67.2198 55.3205 66.0816 57.841M65.5007 64.9761L65.0102 51.5543L64.5201 64.9766" fill="#85340A"/>
<path d="M69.0768 59.1757C70.8212 57.2475 70.5932 55.3932 72.4711 53.9242C70.6988 54.7987 70.7553 56.9069 68.7392 58.8M65.472 65.1697L70.1552 52.5819L64.5658 64.7949" fill="#85340A"/>
<path d="M70.9956 61.1784C73.3451 60.0645 73.844 58.2641 76.1412 57.6255C74.1692 57.7552 73.4145 59.7246 70.8274 60.7021M65.3713 65.3366L74.5153 55.4992L64.6775 64.6436" fill="#85340A"/>
<path d="M65.3757 65.9059L83.1572 57.7445C83.1572 57.7445 83.4972 57.604 83.4035 57.3773C83.3098 57.1507 82.9699 57.2916 82.9699 57.2916L64.625 64.0938M71.5435 64.2888C74.2477 64.3882 75.7351 62.7249 78.1499 62.9424C80.5651 63.1595 81.9304 61.8331 82.8696 61.5256C83.8088 61.2177 84.3704 61.8583 84.504 61.5824C84.6377 61.306 83.8957 60.7018 82.5605 60.8988C81.2253 61.0957 80.8289 62.1093 77.8793 61.871C74.9298 61.633 74.2428 63.0775 71.5523 62.7258" fill="#F6B40E"/>
<path d="M65.3757 65.9059L83.1572 57.7445C83.1572 57.7445 83.4972 57.604 83.4035 57.3773C83.3098 57.1507 82.9699 57.2916 82.9699 57.2916L64.625 64.0938M71.5435 64.2888C74.2477 64.3882 75.7351 62.7249 78.1499 62.9424C80.5651 63.1595 81.9304 61.8331 82.8696 61.5256C83.8088 61.2177 84.3704 61.8583 84.504 61.5824C84.6377 61.306 83.8957 60.7018 82.5605 60.8988C81.2253 61.0957 80.8289 62.1093 77.8793 61.871C74.9298 61.633 74.2428 63.0775 71.5523 62.7258" stroke="#85340A" stroke-width="0.318844"/>
<path d="M65.0002 65.9807L84.5515 65.2451C84.5515 65.2451 84.9193 65.2454 84.9196 65.0001C84.9197 64.7549 84.5518 64.755 84.5518 64.755L65.0001 64.0193M71.3174 66.847C73.7777 67.9737 75.7884 67.0061 77.9362 68.1312C80.0844 69.256 81.8534 68.553 82.8387 68.6283C83.8243 68.7033 84.098 69.51 84.327 69.3062C84.5563 69.1021 84.102 68.2599 82.7931 67.9309C81.4842 67.6019 80.7301 68.3867 78.0962 67.0378C75.4623 65.6892 74.2748 66.7608 71.9236 65.4063" fill="#F6B40E"/>
<path d="M65.0002 65.9807L84.5515 65.2451C84.5515 65.2451 84.9193 65.2454 84.9196 65.0001C84.9197 64.7549 84.5518 64.755 84.5518 64.755L65.0001 64.0193M71.3174 66.847C73.7777 67.9737 75.7884 67.0061 77.9362 68.1312C80.0844 69.256 81.8534 68.553 82.8387 68.6283C83.8243 68.7033 84.098 69.51 84.327 69.3062C84.5563 69.1021 84.102 68.2599 82.7931 67.9309C81.4842 67.6019 80.7301 68.3867 78.0962 67.0378C75.4623 65.6892 74.2748 66.7608 71.9236 65.4063" stroke="#85340A" stroke-width="0.318844"/>
<path d="M64.6248 65.9063L82.9694 72.7084C82.9694 72.7084 83.3091 72.8495 83.4032 72.623C83.4972 72.3964 83.1572 72.2558 83.1572 72.2558L65.3754 64.0941M70.1296 69.124C71.9715 71.1065 74.1994 70.982 75.7532 72.8433C77.3074 74.7045 79.2108 74.7321 80.0923 75.1786C80.9741 75.6251 80.9183 76.4751 81.2079 76.3745C81.4978 76.2737 81.4004 75.3217 80.317 74.5169C79.2336 73.7121 78.2366 74.1485 76.3194 71.8944C74.4021 69.6405 72.8949 70.1761 71.2411 68.025" fill="#F6B40E"/>
<path d="M64.6248 65.9063L82.9694 72.7084C82.9694 72.7084 83.3091 72.8495 83.4032 72.623C83.4972 72.3964 83.1572 72.2558 83.1572 72.2558L65.3754 64.0941M70.1296 69.124C71.9715 71.1065 74.1994 70.982 75.7532 72.8433C77.3074 74.7045 79.2108 74.7321 80.0923 75.1786C80.9741 75.6251 80.9183 76.4751 81.2079 76.3745C81.4978 76.2737 81.4004 75.3217 80.317 74.5169C79.2336 73.7121 78.2366 74.1485 76.3194 71.8944C74.4021 69.6405 72.8949 70.1761 71.2411 68.025" stroke="#85340A" stroke-width="0.318844"/>
<path d="M64.3063 65.6936L78.6514 78.998C78.6514 78.998 78.9112 79.2582 79.0849 79.085C79.2584 78.9117 78.9981 78.6516 78.9981 78.6516L65.6933 64.3066M68.1607 70.7729C69.1037 73.3093 71.2097 74.0468 71.9328 76.3611C72.6565 78.6754 74.4044 79.4292 75.048 80.1791C75.6918 80.929 75.3149 81.693 75.621 81.7109C75.9274 81.7287 76.2018 80.8119 75.5088 79.6538C74.8159 78.4956 73.7278 78.5173 72.8191 75.7011C71.9103 72.885 70.3129 72.8031 69.6081 70.1829" fill="#F6B40E"/>
<path d="M64.3063 65.6936L78.6514 78.998C78.6514 78.998 78.9112 79.2582 79.0849 79.085C79.2584 78.9117 78.9981 78.6516 78.9981 78.6516L65.6933 64.3066M68.1607 70.7729C69.1037 73.3093 71.2097 74.0468 71.9328 76.3611C72.6565 78.6754 74.4044 79.4292 75.048 80.1791C75.6918 80.929 75.3149 81.693 75.621 81.7109C75.9274 81.7287 76.2018 80.8119 75.5088 79.6538C74.8159 78.4956 73.7278 78.5173 72.8191 75.7011C71.9103 72.885 70.3129 72.8031 69.6081 70.1829" stroke="#85340A" stroke-width="0.318844"/>
<path d="M72.0016 63.7633C74.5985 63.6332 75.7485 62.1608 78.1152 62.45C76.2436 61.8151 74.7928 63.3458 72.0285 63.2588M65.2141 65.4527L77.4268 59.8632L64.8384 64.5469" fill="#85340A"/>
<path d="M71.9417 66.5368C74.3907 67.4105 76.0167 66.4903 78.0926 67.663C76.6064 66.3603 74.6802 67.2193 72.1596 66.0811M65.0244 65.5003L78.4465 65.0098L65.0239 64.5197" fill="#85340A"/>
<path d="M70.825 69.0762C72.7532 70.8206 74.6076 70.5926 76.0766 72.4705C75.2021 70.6982 73.0938 70.7547 71.2007 68.7386M64.8309 65.4715L77.419 70.1546L65.2057 64.5653" fill="#85340A"/>
<path d="M68.8215 70.9951C69.9355 73.3446 71.7359 73.8435 72.3745 76.1407C72.2448 74.1686 70.2753 73.414 69.2979 70.827M64.6632 65.371L74.5009 74.5148L65.3563 64.6772" fill="#85340A"/>
<path d="M65 72.9681C69.4005 72.9681 72.9677 69.4009 72.9677 65.0005C72.9677 60.6002 69.4005 57.033 65 57.033C60.5995 57.033 57.0322 60.6002 57.0322 65.0005C57.0322 69.4009 60.5995 72.9681 65 72.9681Z" fill="#F6B40E" stroke="#85340A" stroke-width="0.43025"/>
<path d="M67.7164 63.2962C67.1723 63.2962 66.6513 63.5319 66.345 64.0222C66.9579 64.5737 68.3117 64.6336 69.2311 63.9594C68.8329 63.5305 68.2604 63.2962 67.7164 63.2962ZM67.7074 63.4216C68.237 63.412 68.7319 63.6553 68.801 63.8967C68.1881 64.5709 67.2088 64.5123 66.596 64.0222C66.8641 63.5932 67.2956 63.4291 67.7074 63.4216Z" fill="#843511"/>
<path d="M67.8196 62.9181C67.0231 62.9181 66.839 63.1022 66.4712 63.4086C66.1031 63.715 65.9196 63.6536 65.8583 63.715C65.7974 63.7764 65.8583 63.96 65.9807 63.8986C66.1031 63.8371 66.3488 63.715 66.716 63.4085C67.0841 63.1017 67.4512 63.1021 67.8192 63.1021C68.9225 63.1021 69.5354 64.0212 69.6577 63.9599C69.78 63.8984 69.0448 62.918 67.8192 62.918L67.8196 62.9181Z" fill="#85340A"/>
<path d="M70.0254 63.285C68.6157 62.0594 66.8386 61.8753 65.8577 62.795C65.6176 63.1164 65.4637 63.4601 65.4006 63.8188C65.2772 64.5167 65.4954 65.2707 66.0422 66.0434C65.9805 66.0432 65.8576 66.1044 65.7964 66.1658C65.3097 65.2353 65.1376 64.2796 65.2973 63.3705C65.3391 63.133 65.4044 62.8993 65.4894 62.6719C66.8377 61.569 68.6761 61.4463 70.0246 63.2851L70.0254 63.285Z" fill="#85340A"/>
<path d="M67.697 64.4483C68.0016 64.4483 68.2486 64.2014 68.2486 63.8967C68.2486 63.5921 68.0016 63.3452 67.697 63.3452C67.3923 63.3452 67.1454 63.5921 67.1454 63.8967C67.1454 64.2014 67.3923 64.4483 67.697 64.4483Z" fill="#85340A"/>
<path d="M69.291 64.2658C68.249 65.0627 67.2071 65.0013 66.5943 64.6335C65.9814 64.2658 65.9814 64.1434 66.1038 64.1434C66.2261 64.1434 66.3485 64.2658 66.839 64.5109C67.3295 64.7564 68.0647 64.7564 69.2903 64.2659L69.291 64.2658Z" fill="#85340A"/>
<path d="M63.7809 66.1014C63.5189 66.1492 63.3328 66.3818 63.3328 66.6482C63.3328 66.9526 63.5845 67.195 63.8885 67.195C64.0683 67.195 64.2334 67.1098 64.3367 66.9619C64.5488 67.1214 64.8428 67.1383 65 67.1412C65.0242 67.1417 65.0554 67.1412 65.0717 67.1412C65.2289 67.1383 65.5229 67.1214 65.735 66.9619C65.8383 67.1098 66.0035 67.195 66.1832 67.195C66.4873 67.195 66.739 66.9526 66.739 66.6482C66.739 66.3817 66.5527 66.1492 66.2908 66.1014C66.4379 66.1533 66.5328 66.2955 66.5328 66.451C66.5328 66.6539 66.3689 66.8185 66.1653 66.8185C65.9701 66.8185 65.8092 66.6636 65.7978 66.4689C65.738 66.5884 65.5012 66.9437 65.0359 66.9619C64.5706 66.9437 64.3338 66.5884 64.274 66.4689C64.2625 66.6636 64.1017 66.8185 63.9065 66.8185C63.7029 66.8185 63.539 66.6539 63.539 66.451C63.539 66.2955 63.6338 66.1534 63.7809 66.1014Z" fill="#85340A"/>
<path d="M64.3805 67.7344C63.7673 67.7344 63.5249 68.29 62.9733 68.6577C63.2798 68.5354 63.521 68.2936 63.9503 68.0482C64.3794 67.8031 64.7453 68.102 64.9901 68.102H64.999C65.2437 68.102 65.6097 67.8032 66.0388 68.0482C66.4681 68.2937 66.7183 68.5354 67.0248 68.6577C66.4731 68.29 66.2218 67.7344 65.6085 67.7344C65.4862 67.7344 65.2438 67.8006 64.999 67.9227H64.9901C64.7453 67.8004 64.5029 67.7344 64.3805 67.7344Z" fill="#85340A"/>
<path d="M64.174 68.4595C63.9319 68.4702 63.6119 68.5188 63.1521 68.6567C64.2556 68.4117 64.4991 68.7822 64.9896 68.7822H64.9986C65.4891 68.7822 65.7325 68.4116 66.8361 68.6567C65.6101 68.289 65.3663 68.5312 64.9986 68.5312H64.9896C64.7598 68.5312 64.5774 68.4416 64.174 68.4595Z" fill="#85340A"/>
<path d="M63.2074 68.6486C63.1362 68.6495 63.0586 68.6501 62.9744 68.6576C64.2617 68.7802 63.6429 69.5181 64.9912 69.5181H65.0001C66.3485 69.5181 65.7386 68.7802 67.0259 68.6576C65.6776 68.5352 66.1038 69.3299 65.0001 69.3299H64.9912C63.9564 69.3299 64.2753 68.6353 63.2074 68.6486Z" fill="#85340A"/>
<path d="M66.1042 70.6395C66.1042 70.0304 65.6099 69.5362 65.001 69.5362C64.3919 69.5362 63.8977 70.0304 63.8977 70.6395C64.019 70.1286 64.4761 69.7677 65.001 69.7677C65.5268 69.7677 65.9831 70.1287 66.1042 70.6395Z" fill="#85340A"/>
<path d="M60.0464 63.285C61.4561 62.0594 63.2331 61.8753 64.2141 62.795C64.4542 63.1164 64.608 63.4601 64.6712 63.8188C64.7946 64.5167 64.5764 65.2707 64.0296 66.0434C64.0913 66.0432 64.2142 66.1044 64.2754 66.1658C64.762 65.2353 64.9341 64.2796 64.7745 63.3705C64.7326 63.133 64.6673 62.8993 64.5824 62.6719C63.2341 61.569 61.3956 61.4463 60.0472 63.2851L60.0464 63.285Z" fill="#85340A"/>
<path d="M62.2521 62.9181C63.0486 62.9181 63.2327 63.1022 63.6004 63.4086C63.9685 63.715 64.1521 63.6536 64.2133 63.715C64.2742 63.7764 64.2133 63.96 64.0909 63.8986C63.9686 63.8371 63.7228 63.715 63.3557 63.4085C62.9876 63.1017 62.6204 63.1021 62.2524 63.1021C61.1492 63.1021 60.5363 64.0212 60.414 63.9599C60.2916 63.8984 61.0269 62.918 62.2524 62.918L62.2521 62.9181Z" fill="#85340A"/>
<path d="M62.2146 63.2962C61.6705 63.2962 61.1495 63.5319 60.8431 64.0222C61.456 64.5737 62.8098 64.6336 63.7293 63.9594C63.3311 63.5305 62.7586 63.2962 62.2146 63.2962ZM62.2056 63.4216C62.7352 63.412 63.2301 63.6553 63.2992 63.8967C62.6863 64.5709 61.707 64.5123 61.0941 64.0222C61.3623 63.5932 61.7937 63.4291 62.2056 63.4216Z" fill="#843511"/>
<path d="M62.2866 64.4483C62.5912 64.4483 62.8382 64.2014 62.8382 63.8967C62.8382 63.5921 62.5912 63.3452 62.2866 63.3452C61.9819 63.3452 61.735 63.5921 61.735 63.8967C61.735 64.2014 61.9819 64.4483 62.2866 64.4483Z" fill="#85340A"/>
<path d="M60.7806 64.2658C61.8226 65.0627 62.8645 65.0013 63.4774 64.6335C64.0903 64.2658 64.0903 64.1434 63.9679 64.1434C63.8455 64.1434 63.7232 64.2658 63.2326 64.5109C62.7421 64.7564 62.007 64.7564 60.7813 64.2659L60.7806 64.2658Z" fill="#85340A"/>
</g>
<defs>
<clipPath id="clip0_257_6212">
<rect width="128" height="128" fill="white"/>
</clipPath>
</defs>
</svg>
