<svg width="128" height="128" viewBox="0 0 128 128" fill="none" xmlns="http://www.w3.org/2000/svg">
<g clip-path="url(#clip0_260_10245)">
<rect width="128" height="128" fill="white"/>
<rect width="128" height="128" fill="#006233"/>
<path fill-rule="evenodd" clip-rule="evenodd" d="M103.443 75.9982C103.021 76.4279 102.582 76.8462 102.125 77.2522C91.2277 86.9388 74.541 85.9573 64.8544 75.0598C55.1677 64.1623 56.1493 47.4756 67.0468 37.789C67.5041 37.3825 67.9715 36.9948 68.4483 36.6259C56.8341 40.3375 48.4243 51.2188 48.4243 64.0643C48.4243 79.9701 61.3185 92.8643 77.2243 92.8643C88.8733 92.8643 98.9069 85.9482 103.443 75.9982Z" fill="white"/>
<path d="M87.7261 42.5137L99.8575 56.1616L82.0209 52.2509L98.7497 44.9306L89.5186 60.6858L87.7261 42.5137Z" fill="white"/>
<rect width="32" height="128" fill="white"/>
</g>
<defs>
<clipPath id="clip0_260_10245">
<rect width="128" height="128" fill="white"/>
</clipPath>
</defs>
</svg>
