<svg width="128" height="128" viewBox="0 0 128 128" fill="none" xmlns="http://www.w3.org/2000/svg">
<g clip-path="url(#clip0_260_10071)">
<rect width="128" height="128" fill="white"/>
<rect width="128" height="128" fill="white"/>
<path d="M29.8364 26.6052L16.6567 46.3747L29.8364 26.6052ZM21.5991 49.6697L34.7788 29.9001L21.5991 49.6697ZM39.7212 33.1951L26.5415 52.9646L39.7212 33.1951ZM89.145 94.7002L95.1857 85.6392L89.145 94.7002ZM96.284 83.9917L102.325 74.9307L96.284 83.9917ZM107.267 78.2256L101.226 87.2867L107.267 78.2256ZM100.128 88.9341L94.0874 97.9951L100.128 88.9341ZM99.0297 101.29L105.07 92.229L99.0297 101.29ZM106.169 90.5816L112.209 81.5205L106.169 90.5816Z" fill="black"/>
<path d="M29.8364 26.6052L16.6567 46.3747M21.5991 49.6697L34.7788 29.9001M39.7212 33.1951L26.5415 52.9646M89.145 94.7002L95.1857 85.6392M96.284 83.9917L102.325 74.9307M107.267 78.2256L101.226 87.2867M100.128 88.9341L94.0874 97.9951M99.0297 101.29L105.07 92.229M106.169 90.5816L112.209 81.5205" stroke="black" stroke-width="3.96"/>
<path d="M16.6569 81.5205L29.8365 101.29L16.6569 81.5205ZM34.7789 97.9951L28.7382 88.9341L34.7789 97.9951ZM27.6399 87.2866L21.5992 78.2256L27.6399 87.2866ZM26.5416 74.9307L39.7213 94.7002L26.5416 74.9307ZM102.325 52.9645L96.2841 43.9035L102.325 52.9645ZM95.1858 42.2561L89.1451 33.195L95.1858 42.2561ZM94.0875 29.9001L107.267 49.6696L94.0875 29.9001ZM112.21 46.3747L106.169 37.3137L112.21 46.3747ZM105.071 35.6662L99.0298 26.6052L105.071 35.6662Z" fill="black"/>
<path d="M16.6569 81.5205L29.8365 101.29M34.7789 97.9951L28.7382 88.9341M27.6399 87.2866L21.5992 78.2256M26.5416 74.9307L39.7213 94.7002M102.325 52.9645L96.2841 43.9035M95.1858 42.2561L89.1451 33.195M94.0875 29.9001L107.267 49.6696M112.21 46.3747L106.169 37.3137M105.071 35.6662L99.0298 26.6052" stroke="black" stroke-width="3.96"/>
<path d="M74.3179 70.5374C71.6963 74.4698 67.6199 77.1998 62.9855 78.1266C58.3511 79.0535 53.5384 78.1014 49.606 75.4798C45.6736 72.8582 42.9437 68.7819 42.0168 64.1475C41.0899 59.5131 42.042 54.7003 44.6636 50.7679C48.1591 45.5247 53.5942 41.8848 59.7734 40.649C65.9526 39.4132 72.3696 40.6826 77.6128 44.1781C82.856 47.6736 86.4959 53.1087 87.7317 59.2879C88.9675 65.4671 87.6981 71.8841 84.2026 77.1273" fill="#D80027"/>
<path d="M64.4331 63.9476C66.1808 61.326 68.8984 59.5061 71.988 58.8882C75.0776 58.2702 78.2861 58.905 80.9077 60.6527C83.5293 62.4004 85.3492 65.118 85.9672 68.2076C86.5851 71.2972 85.9503 74.5057 84.2026 77.1273C80.7071 82.3705 75.272 86.0104 69.0928 87.2462C62.9136 88.482 56.4966 87.2126 51.2534 83.7171C46.0102 80.2217 42.3703 74.7865 41.1345 68.6073C39.8987 62.4282 41.1681 56.0111 44.6636 50.7679C42.9158 53.3895 42.2811 56.5981 42.899 59.6876C43.517 62.7772 45.3369 65.4948 47.9585 67.2425C50.5801 68.9903 53.7886 69.625 56.8782 69.0071C59.9678 68.3892 62.6854 66.5692 64.4331 63.9476Z" fill="#003399"/>
</g>
<defs>
<clipPath id="clip0_260_10071">
<rect width="128" height="128" fill="white"/>
</clipPath>
</defs>
</svg>
