<svg width="128" height="128" viewBox="0 0 128 128" fill="none" xmlns="http://www.w3.org/2000/svg">
<g clip-path="url(#clip0_258_8683)">
<rect width="128" height="128" fill="#D80027"/>
<rect width="128" height="128" fill="white"/>
<rect y="96" width="128" height="20" fill="#0038B8"/>
<rect y="12" width="128" height="20" fill="#0038B8"/>
<path fill-rule="evenodd" clip-rule="evenodd" d="M64.1844 38.7635L71.3844 51.2343H85.7844L78.5844 63.7051L85.7844 76.1758H71.3844L64.1844 88.6466L56.9844 76.1758H42.5844L49.7844 63.7051L42.5844 51.2343H56.9844L64.1844 38.7635ZM54.698 55.1943H49.4433L52.0707 59.7451L54.698 55.1943ZM54.357 63.7051L59.2707 55.1943H69.098L74.0117 63.7051L69.098 72.2158H59.2707L54.357 63.7051ZM52.0707 67.6651L49.4433 72.2158H54.698L52.0707 67.6651ZM61.557 76.1758L64.1844 80.7266L66.8117 76.1758H61.557ZM73.6707 72.2158H78.9254L76.298 67.6651L73.6707 72.2158ZM76.298 59.7451L78.9254 55.1943H73.6707L76.298 59.7451ZM66.8117 51.2343H61.557L64.1844 46.6836L66.8117 51.2343Z" fill="#0038B8"/>
</g>
<defs>
<clipPath id="clip0_258_8683">
<rect width="128" height="128" fill="white"/>
</clipPath>
</defs>
</svg>
