<svg width="128" height="128" viewBox="0 0 128 128" fill="none" xmlns="http://www.w3.org/2000/svg">
<g clip-path="url(#clip0_260_10673)">
<rect width="128" height="128" fill="white"/>
<rect width="128" height="128" fill="white"/>
<rect y="64" width="128" height="11" fill="#D80027"/>
<rect width="128" height="11" fill="#D80027"/>
<rect y="85" width="128" height="11" fill="#D80027"/>
<rect y="21" width="128" height="11" fill="#D80027"/>
<rect y="107" width="128" height="10" fill="#D80027"/>
<rect y="43" width="128" height="10" fill="#D80027"/>
<rect width="72" height="64" fill="#000066"/>
<path d="M50.9082 23.7429L52.131 32.1086L56.8624 25.1029L54.3253 33.1714L61.6282 28.9086L55.8453 35.08L64.2796 34.4057L56.3939 37.4572L64.2796 40.5086L55.8453 39.8343L61.6282 46.0057L54.3253 41.7429L56.8624 49.8114L52.131 42.8057L50.9082 51.1714L49.6853 42.8057L44.9539 49.8114L47.491 41.7429L40.1882 46.0057L45.971 39.8343L37.5367 40.5086L45.4224 37.4572L37.5367 34.4057L45.971 35.08L40.1882 28.9086L47.491 33.1714L44.9539 25.1029L49.6853 32.1086L50.9082 23.7429ZM44.051 24.0857C41.8239 23.0975 39.3852 22.6813 36.9564 22.8748C34.5276 23.0683 32.1855 23.8654 30.143 25.1937C28.1004 26.522 26.4219 28.3395 25.26 30.4811C24.0981 32.6227 23.4895 35.0206 23.4895 37.4572C23.4895 39.8937 24.0981 42.2916 25.26 44.4332C26.4219 46.5748 28.1004 48.3923 30.143 49.7206C32.1855 51.049 34.5276 51.846 36.9564 52.0395C39.3852 52.233 41.8239 51.8168 44.051 50.8286C41.5918 52.5931 38.6936 53.6452 35.6751 53.8692C32.6567 54.0932 29.6349 53.4804 26.9422 52.0983C24.2494 50.7161 21.99 48.6182 20.4123 46.0351C18.8347 43.452 18 40.4839 18 37.4572C18 34.4304 18.8347 31.4623 20.4123 28.8792C21.99 26.2961 24.2494 24.1982 26.9422 22.816C29.6349 21.4339 32.6567 20.8211 35.6751 21.0451C38.6936 21.2691 41.5918 22.3212 44.051 24.0857Z" fill="#FFCC00"/>
</g>
<defs>
<clipPath id="clip0_260_10673">
<rect width="128" height="128" fill="white"/>
</clipPath>
</defs>
</svg>
