<svg width="128" height="128" viewBox="0 0 128 128" fill="none" xmlns="http://www.w3.org/2000/svg">
<g clip-path="url(#clip0_260_10104)">
<rect width="128" height="128" fill="white"/>
<rect width="128" height="128" fill="#006233"/>
<path d="M103.604 57.4486C103.592 55.5936 102.873 50.5968 102.69 48.9205C102.508 47.2442 102.324 45.7235 102.368 45.3673C102.412 45.0237 102.941 45.8451 103.22 45.9115C103.365 45.8826 103.3 45.3638 103.038 44.9207C102.86 44.6199 102.253 43.4949 101.885 42.8357C101.712 42.5237 101.674 42.3428 101.59 42.3045C101.507 42.2661 100.838 43.6171 100.911 43.7668C101.094 44.0414 101.219 44.1724 101.248 44.6573C101.277 45.1423 101.527 48.6045 101.847 51.2288C102.087 53.2086 102.615 57.474 102.634 60.126C102.639 60.9911 102.543 61.8156 102.428 62.1602C102.133 62.7012 101.671 63.1893 99.9508 64.1957C98.0172 65.3273 95.4376 66.2691 94.3288 66.8993C93.6395 67.2924 93.868 67.345 94.4682 67.173C95.0669 67.0009 98.1628 66.4496 99.6669 65.814C101.079 65.2159 101.995 64.2153 102.691 62.7556C103.55 60.951 103.616 59.4195 103.604 57.4486Z" fill="white"/>
<path d="M97.6173 43.3577C97.7668 43.2997 99.0043 43.236 99.3374 43.3046C99.1185 43.6175 97.6347 44.3101 97.6284 44.4372C97.6689 44.5227 98.6533 44.2789 98.9638 44.1435C99.1667 44.0213 99.3022 43.8323 99.4526 43.6755C99.8074 43.2672 100.228 42.5099 100.122 42.415C99.9501 42.2617 98.2633 42.3571 98.0411 42.3887C97.8921 42.4101 97.5142 43.0876 97.4448 43.2614C97.3768 43.4352 97.4679 43.4156 97.6173 43.3577Z" fill="white"/>
<path d="M100.145 54.3525C100.403 53.4789 100.467 52.4191 100.116 51.3035C99.755 50.1549 98.8593 49.4547 98.2134 49.0959L98.0981 50.2017C98.0981 50.2017 99.004 50.6518 99.6234 51.7853C100.016 52.5042 100.179 53.5208 99.8693 54.6543C99.8177 54.9355 100.019 54.7804 100.145 54.3525Z" fill="white"/>
<path d="M90.5617 59.8979C90.7941 59.1112 90.851 58.157 90.5357 57.1524C90.2108 56.1179 89.4043 55.4872 88.8224 55.1654L88.7183 56.1607C88.7183 56.1607 89.5339 56.5663 90.0917 57.586C90.4455 58.2328 90.5921 59.1496 90.3139 60.1698C90.2677 60.4221 90.4484 60.283 90.5617 59.8979Z" fill="white"/>
<path d="M57.2912 44.8413C57.6643 45.5237 57.819 46.49 57.5255 47.5663C57.4763 47.8333 57.6662 47.6867 57.7872 47.2802C58.0312 46.4512 58.0919 45.4439 57.7583 44.3836C57.4155 43.292 56.5647 42.6275 55.951 42.2874L55.8425 43.3375C55.8425 43.3375 56.703 43.7649 57.2912 44.8413Z" fill="white"/>
<path d="M34.8315 45.1944C35.1448 45.9289 35.166 46.9206 34.6599 47.9654C34.5615 48.2279 34.8011 48.1035 35.0021 47.7109C35.4129 46.9082 35.6433 45.9035 35.435 44.7937C35.2215 43.6527 34.3643 42.875 33.7227 42.4538L33.4315 43.4963C33.4315 43.4963 34.3373 44.0365 34.8315 45.1944Z" fill="white"/>
<path d="M41.04 61.6125C41.4382 60.8736 41.6041 60.3762 41.781 59.5008C41.9357 58.7306 41.9459 57.841 41.8899 56.9353C43.0816 56.4495 44.5018 55.6432 44.9791 55.5839C44.6527 56.7044 45.4318 57.9136 47.0053 57.7559C47.1258 59.023 47.2289 60.1359 47.2916 60.796C47.4198 62.1492 47.4006 63.8544 47.3967 64.1508C47.3914 64.4486 47.6069 64.3924 47.8282 63.7292C48.1232 62.8413 48.2143 60.5228 48.1073 58.9896C48.0817 58.6063 48.0383 58.0888 47.9858 57.4991C49.0059 57.0271 49.1756 56.1161 49.5569 55.7279C49.9011 56.9335 51.7957 57.0971 52.3804 56.839C53.1055 56.5186 53.3431 55.9423 53.5297 54.6047C53.7167 53.2676 53.172 52.7292 52.9772 52.5835C52.9579 52.7452 52.4836 54.3168 52.4836 54.3168C52.4836 54.3168 52.9334 54.7919 52.956 55.0255C52.5896 55.3571 51.8169 55.3776 51.168 55.1663C50.5186 54.955 50.3195 54.5664 50.3581 54.3057C50.3957 54.044 50.6401 53.806 50.6483 53.4873C50.6555 53.1687 50.5027 53.2609 50.2429 53.5431C49.983 53.8256 49.8153 54.0797 49.4557 54.6863C49.1616 55.1824 48.6843 55.7876 47.8426 55.9606C47.7038 54.504 47.5452 52.9543 47.4391 51.9809C47.3837 51.467 46.8298 47.026 46.7902 46.529C46.756 46.0962 46.6919 45.5859 46.7025 45.3461C46.7131 45.1553 46.8327 45.2311 47.0178 45.4308C47.2034 45.63 47.5278 45.9777 47.5837 45.9505C47.7727 45.8578 47.5794 45.2806 47.3321 44.7636C47.0853 44.2452 46.2426 42.2003 46.0657 42.1161C45.9746 42.0733 45.4057 43.332 45.372 43.5798C45.4602 43.7349 45.6906 43.9787 45.6988 44.6722C45.7017 44.8656 45.8261 46.6895 45.9987 48.4139C46.1496 49.9369 46.3496 51.3818 46.3689 51.5499C46.5063 52.7123 46.6731 54.3507 46.8317 55.9614C45.9182 55.7876 45.6752 55.185 45.6954 54.8414C45.7186 54.4536 45.8936 54.0159 45.8097 53.917C45.6337 53.8114 44.5867 54.3966 43.1265 55.0255C42.7157 55.202 42.2529 55.3914 41.7646 55.571C41.6373 54.4732 41.4696 53.4294 41.4021 52.6311L41.3939 52.5424C42.3542 52.4805 43.1404 51.9956 43.4981 51.5338C43.945 50.9566 44.2574 49.7688 44.2878 48.8587C44.3182 47.9477 43.583 46.2821 43.408 45.7526C43.2316 45.2226 43.1404 44.8554 43.125 44.6722C43.1091 44.489 43.5222 44.8844 43.7821 44.9619C43.958 44.9971 43.8973 44.616 43.6823 44.3544C43.4687 44.0937 42.3137 42.3407 42.2327 42.4637C42.183 42.5359 41.7202 43.8254 41.6899 44.0228C41.8721 44.1431 42.0852 44.4748 42.1001 44.7925C42.1155 45.1103 42.3701 46.5076 42.6521 47.284C42.9351 48.0604 43.5377 49.55 43.5758 49.9596C43.1453 50.2631 42.1652 50.777 41.1957 50.7463C41.0299 49.3878 40.8197 47.81 40.7074 46.6926C40.664 46.2607 40.6611 45.7998 40.6679 45.5591C40.6732 45.3684 40.8106 45.3947 40.9995 45.5908C41.1895 45.7869 41.4806 46.0722 41.5404 46.0517C41.6706 46.0084 41.5578 45.5756 41.2999 45.0617C41.042 44.5478 40.0171 42.3741 39.8372 42.293C39.7461 42.2516 39.2872 43.4724 39.2583 43.7215C39.3499 43.8757 39.5846 44.1142 39.6078 44.8077C39.6261 45.3599 39.8951 48.0662 40.1255 50.4499C39.1662 49.9538 38.8389 49.2447 38.7203 48.0542C38.6374 47.2243 38.6292 45.6955 38.3332 44.4168C38.1664 43.6939 37.8149 42.9594 37.3984 42.5694C37.2991 42.8096 36.8556 44.2844 36.8556 44.2844C37.0002 44.7079 37.45 46.1337 37.4346 47.3692C37.4196 48.6046 37.3222 49.8125 35.9377 50.6446C34.5542 51.4772 32.4788 51.1461 31.9664 49.8473C31.4539 48.5476 32.5931 45.2891 32.5781 44.5198C32.5627 43.7505 32.4253 43.6444 32.1038 43.7714C31.7827 43.8985 31.1256 44.6401 30.5597 45.8466C29.9937 47.054 29.7421 48.5494 29.4205 49.566C29.0999 50.5827 28.5865 51.6127 27.7921 51.5557C26.9976 51.4995 26.57 50.7726 26.3256 49.7211C26.0807 48.6688 26.2306 47.2831 26.2971 46.9279C26.463 46.0383 26.0788 46.2206 25.8435 47.6174C25.6979 48.479 25.5533 49.8548 26.0657 51.2949C26.5772 52.735 27.4493 53.2721 28.2134 53.088C28.978 52.9048 29.65 51.1117 29.8872 50.3063C30.1239 49.5023 31.183 45.9309 31.7827 45.7553C31.8666 46.1577 31.3165 47.4552 31.1406 48.9728C30.9651 50.4904 31.3744 52.5291 33.3008 52.8816C35.2271 53.2346 36.5341 51.9853 37.0079 51.118C37.4823 50.2493 37.7036 49.3387 37.7571 48.8801C37.8188 50.0443 38.6133 51.8623 40.1564 52.3807L40.3155 52.4266C40.4104 53.3795 40.5652 54.6234 40.7074 55.9298C40.4071 56.0225 40.1038 56.1063 39.8021 56.1785C39.7635 56.0533 39.7211 55.9307 39.6695 55.8179C39.1985 54.8048 38.419 53.8711 37.3386 53.9357C36.2352 54.0012 35.0319 55.4738 35.0844 56.5493C35.1192 57.2727 35.5174 57.8664 36.9655 58.0184C37.6269 58.0883 38.3293 58.0148 39.0548 57.8566C39.157 58.1557 39.2216 58.4529 39.2289 58.7239C38.7699 59.2606 34.9726 62.1247 32.1293 62.4001C29.286 62.6751 28.4188 61.1847 28.3903 59.6884C28.3691 58.5501 29.0537 57.414 29.5348 56.6278C30.2232 56.1241 30.7882 55.4943 31.1449 55.0085C31.2418 55.0683 31.3339 55.1235 31.4216 55.1748C31.7615 55.3722 31.897 55.6673 31.897 55.6673C31.9596 55.571 32.2518 55.0451 32.1375 54.7879C32.085 54.7246 31.828 54.5664 31.519 54.3788C31.8434 53.5702 31.8391 52.7631 31.4187 52.5835C30.9487 52.3833 30.335 52.9396 30.0704 53.2788C29.933 53.4553 29.8804 53.6554 29.8795 53.8234C29.8775 54.0396 29.9792 54.2348 30.2309 54.4086C30.4816 54.5798 30.7144 54.7349 30.9333 54.8748C30.3119 55.5273 28.8435 56.4834 27.9449 57.045C27.9116 56.9625 27.78 57.0494 27.6031 57.258L27.3596 57.4082C26.6428 57.8468 24.9237 58.8099 24.5858 59.0457C24.2474 59.2819 24.4595 59.2392 24.5858 59.1866C24.8244 59.0578 25.1377 58.9018 25.4897 58.7297C25.9881 58.4859 26.5681 58.21 27.135 57.9332C26.9672 58.2176 26.7937 58.5501 26.6399 58.9129C25.9635 60.5099 24.8702 63.8197 27.2353 65.8111C29.4981 67.7174 33.3875 66.9922 36.6131 65.011C39.8392 63.0294 40.5358 62.3328 41.04 61.6125ZM30.523 53.7396C30.4112 53.6572 30.3958 53.5471 30.4869 53.4704C30.6031 53.3715 30.7515 53.2779 30.9203 53.2462C31.278 53.1798 31.4207 53.5907 31.277 54.2308C31.0051 54.0645 30.7255 53.8898 30.523 53.7396ZM37.922 56.4392C36.2795 56.4468 36.2038 56.1486 36.2347 55.9579C36.2651 55.768 36.7765 55.247 37.4254 55.5906C37.6997 55.7364 38.0087 56.0412 38.2946 56.4241C38.1683 56.4334 38.0439 56.4384 37.922 56.4392ZM32.8915 65.0766C29.7883 65.9234 26.7614 64.6112 26.5782 62.0132C26.4379 60.0294 27.1615 58.5345 27.6282 57.6921C28.0731 57.4719 28.4935 57.258 28.8411 57.0663C28.0288 58.3745 27.5534 60.1266 27.8711 61.6108C28.2308 63.292 29.6934 64.3113 32.1698 63.9823C34.6217 63.6574 37.9369 61.3255 38.8769 60.4461C39.1633 60.1288 39.3523 59.8426 39.6097 59.2597C39.7158 59.0203 39.8647 58.7043 39.9202 58.3473C39.9563 58.1146 39.9756 57.8659 39.9799 57.6128C40.2677 57.5268 40.557 57.4305 40.8482 57.3271C40.947 58.3914 41.0198 59.4406 41.0241 60.3481C39.4964 62.1398 35.9946 64.2293 32.8915 65.0766Z" fill="white"/>
<path d="M87.1694 58.2638C87.0643 56.5255 86.8107 53.3793 86.669 51.7833C86.5436 50.3628 86.2973 48.416 86.117 46.7022C86.0717 46.2708 86.0669 45.8576 86.0717 45.6174C86.077 45.4275 86.2669 45.5006 86.4569 45.6958C86.6468 45.891 86.9438 46.1362 86.9997 46.1063C87.1853 46.01 86.9631 45.534 86.7023 45.0219C86.4414 44.5089 85.4074 42.3869 85.2276 42.3062C85.136 42.2652 84.6515 43.5364 84.6235 43.7855C84.7161 43.9389 84.9528 44.1764 84.9783 44.8699C85.0044 45.5639 85.3548 48.7542 85.6079 51.3344C85.7834 53.1279 86.01 56.0544 86.1749 58.2611C86.1667 58.2647 86.3306 60.3591 86.3484 60.5944C86.4496 61.9493 86.3971 63.6541 86.387 63.9501C86.3759 64.2474 86.5933 64.1957 86.8266 63.536C87.0643 62.8626 87.1998 61.3588 87.2181 60.0012L87.1694 58.2638Z" fill="white"/>
<path d="M78.3584 52.1785C78.0402 52.2757 77.5408 51.9392 77.5788 51.2336C77.6135 50.5963 77.8864 49.9995 77.9915 49.6229C78.1361 49.1032 78.1371 48.6022 78.0146 48.8861C77.7389 49.5208 77.2255 50.7478 77.1194 51.5804C77.0129 52.413 77.2828 52.9496 77.6497 53.1328C78.1067 53.3623 78.436 52.9982 78.6587 52.4616C78.8727 51.9477 78.8322 51.3477 78.6838 51.489C78.5594 51.6366 78.5131 52.1308 78.3584 52.1785Z" fill="white"/>
<path d="M73.7847 54.7433C73.9535 54.2949 73.993 53.8554 73.8633 54.0966C73.5707 54.6368 73.0226 55.6806 72.8621 56.4058C72.702 57.1309 72.8963 57.6216 73.2048 57.8075C73.5895 58.0402 73.9062 57.742 74.1458 57.2851C74.3748 56.8479 74.3864 56.3171 74.2456 56.4321C74.1241 56.5533 74.0436 56.9843 73.9048 57.0159C73.616 57.0797 73.2043 56.7498 73.2935 56.1312C73.3745 55.5741 73.6623 55.0673 73.7847 54.7433Z" fill="white"/>
<path d="M60.4659 64.2025C60.748 63.7447 60.8882 63.2701 60.6925 63.5099C60.2558 64.0456 59.429 65.0854 59.0954 65.848C58.7628 66.6106 58.8688 67.1834 59.1653 67.4441C59.535 67.7695 59.9472 67.502 60.3073 67.0479C60.653 66.6124 60.7822 66.0348 60.6014 66.1333C60.4428 66.2443 60.2615 66.7002 60.102 66.7087C59.7737 66.7247 59.3948 66.2875 59.6271 65.6287C59.8373 65.0342 60.262 64.5341 60.4659 64.2025Z" fill="white"/>
<path d="M83.8167 50.844C83.4933 50.9252 83.015 50.5628 83.0951 49.8599C83.1679 49.2257 83.4769 48.644 83.6037 48.2741C83.7801 47.762 83.8105 47.2624 83.6711 47.5387C83.3588 48.1591 82.7726 49.3572 82.6159 50.1835C82.4592 51.0094 82.6959 51.5589 83.0517 51.7608C83.4952 52.0122 83.8442 51.6664 84.0997 51.1413C84.3441 50.6395 84.3403 50.0386 84.1826 50.1724C84.0501 50.3141 83.9744 50.8048 83.8167 50.844Z" fill="white"/>
<path d="M83.7177 59.4669C84.1602 59.7183 84.5112 59.3724 84.7657 58.8474C85.0097 58.3455 85.0063 57.7447 84.8496 57.8784C84.7161 58.0193 84.6404 58.5109 84.4828 58.5501C84.1593 58.6308 83.6801 58.2688 83.7611 57.566C83.8339 56.9317 84.1424 56.3496 84.2697 55.9802C84.4456 55.468 84.476 54.9675 84.3372 55.2447C84.0238 55.8652 83.4386 57.0632 83.2819 57.8887C83.1252 58.7154 83.3619 59.265 83.7177 59.4669Z" fill="white"/>
<path d="M89.3739 48.4521C89.587 47.8326 89.6236 47.2278 89.4549 47.5625C89.076 48.3131 88.3673 49.7625 88.1774 50.7631C87.9884 51.7628 88.2752 52.4274 88.7057 52.6721C89.2413 52.976 89.6651 52.5575 89.9741 51.9228C90.2686 51.3153 90.2643 50.5875 90.0743 50.7502C89.9138 50.9209 89.8217 51.5146 89.6308 51.5623C89.2404 51.6603 88.6604 51.2222 88.7583 50.3718C88.8465 49.6043 89.2201 48.9005 89.3739 48.4521Z" fill="white"/>
<path d="M44.1717 59.168C44.5202 58.413 44.6465 57.6571 44.3901 58.0595C43.8159 58.9603 42.7346 60.7043 42.3654 61.9398C41.9956 63.1758 42.2694 64.044 42.778 64.4001C43.4124 64.8423 44.0001 64.3627 44.4711 63.6001C44.9218 62.8687 45.0115 61.9528 44.7516 62.136C44.5275 62.3321 44.3337 63.0693 44.0878 63.108C43.5826 63.1874 42.9115 62.5714 43.1458 61.5129C43.358 60.5577 43.9201 59.7144 44.1717 59.168Z" fill="white"/>
<path d="M92.9775 66.6537C93.2446 66.4348 95.5672 65.1838 95.9948 64.9297C95.9948 64.9297 96.4321 64.2166 96.3009 64.1408C96.1693 64.065 95.3214 64.8361 94.794 64.8575C94.2661 64.8789 93.5435 64.4911 93.5203 64.1733C93.5888 63.9336 94.2237 63.5734 94.4531 63.5587C94.6826 63.5453 94.6455 64.0677 94.7221 64.1314C94.7988 64.1943 95.1039 63.7709 95.1425 63.5944C95.1801 63.4183 95.1488 62.6811 94.7289 62.7868C94.0641 62.9548 93.0614 64.1876 92.9471 64.5754C92.8319 64.964 93.4514 65.3023 93.9036 65.4864C93.865 65.5006 93.5275 65.6629 93.314 65.8741C93.314 65.8741 93.0845 66.1313 92.9775 66.6537Z" fill="white"/>
<path d="M85.0573 68.2034C85.3244 67.9845 87.6471 66.7343 88.0747 66.4794C88.0747 66.4794 88.5129 65.7663 88.3808 65.6905C88.2492 65.6147 87.4012 66.3858 86.8738 66.4072C86.3459 66.4286 85.6233 66.0408 85.6002 65.723C85.6686 65.4832 86.3035 65.1231 86.533 65.1093C86.7624 65.095 86.7253 65.6169 86.802 65.6802C86.8786 65.744 87.1838 65.3206 87.2223 65.1441C87.2599 64.968 87.2276 64.2308 86.8087 64.3364C86.1439 64.5054 85.1412 65.7373 85.027 66.1259C84.9117 66.5137 85.5312 66.852 85.9824 67.0361C85.9448 67.0503 85.6074 67.2121 85.3938 67.4238C85.3938 67.4238 85.1644 67.681 85.0573 68.2034Z" fill="white"/>
<path d="M67.2176 45.7792C67.4259 46.0212 68.7901 47.7546 69.8589 48.8443C70.9272 49.935 72.7586 51.7 74.1041 52.9096C74.3644 53.1441 74.6406 53.3981 74.9217 53.6624C75.2611 56.268 75.6535 59.5836 75.8183 60.9546C75.9808 62.3046 76.0049 64.0094 76.0083 64.3063C76.0112 64.6036 76.2252 64.543 76.4287 63.8757C76.7015 62.9803 76.7328 60.6618 76.5882 59.1303C76.4986 58.1845 76.2869 56.4129 76.082 54.7793C76.8765 55.5642 77.6271 56.3429 78.1328 56.9259C79.0627 57.996 79.8451 58.8032 80.3219 59.9535C80.6594 60.7674 80.6251 61.415 80.7635 61.5429C80.883 61.6534 81.0151 60.6796 80.8676 59.7351C80.6285 58.2015 80.3007 57.5512 78.3319 55.3614C77.5808 54.5244 76.6967 53.6495 75.8323 52.8316C75.7991 52.5793 75.7687 52.3458 75.7412 52.1385C75.6728 51.6264 75.0056 47.1988 74.953 46.7027C74.9082 46.2708 74.8296 45.7623 74.8359 45.5221C74.8407 45.3309 74.9622 45.4053 75.1531 45.6005C75.343 45.7953 75.6757 46.1362 75.7321 46.1064C75.9181 46.0101 75.7108 45.4383 75.45 44.9253C75.1902 44.4131 74.295 42.387 74.1152 42.3067C74.0241 42.2657 73.4875 43.5364 73.46 43.7852C73.5531 43.9385 73.7893 44.1774 73.8148 44.87C73.8221 45.0634 73.9937 46.8846 74.2092 48.6041C74.4001 50.1235 74.6363 51.5645 74.6609 51.7312L74.6618 51.7441C73.7705 50.9311 72.9852 50.2407 72.5089 49.8071C71.3953 48.7949 68.9357 46.393 68.8369 46.0333C68.8147 45.9196 69.0056 45.9896 69.3566 46.0458C69.709 46.1024 70.0223 46.2223 69.9659 46.0493C69.9404 45.9678 69.8054 45.7663 69.4694 45.5586C69.1329 45.3505 68.2709 44.8112 67.6298 44.4296C66.9872 44.0486 66.669 43.729 66.5364 43.8204C66.4709 43.8654 66.5292 45.1708 66.5678 45.3335C66.7283 45.3473 67.0103 45.5363 67.2176 45.7792Z" fill="white"/>
<path d="M68.9732 43.4315C69.2369 43.3736 70.4864 43.4052 70.94 43.5006C70.7501 43.6325 69.4716 44.2784 69.219 44.4321C68.9679 44.5863 68.9042 44.6755 69.0305 44.6603C69.3969 44.5587 70.2227 44.4321 70.6185 44.2258C70.9916 44.051 71.6275 43.1989 71.8748 42.8811C72.1206 42.5633 72.1206 42.4046 72.058 42.3195C71.8054 42.1822 70.1769 42.0445 69.3916 42.2393C69.1742 42.3868 68.749 43.1726 68.6863 43.3361C68.6236 43.5006 68.7095 43.4895 68.9732 43.4315Z" fill="white"/>
<path d="M75.9229 43.3293C76.136 43.2825 77.1431 43.3079 77.508 43.3846C77.3552 43.4911 76.3255 44.0117 76.122 44.1365C75.9181 44.2599 75.8675 44.3321 75.9692 44.3197C76.2647 44.2385 76.9305 44.1365 77.2491 43.9693C77.5495 43.8285 78.0619 43.1417 78.261 42.8863C78.4591 42.6295 78.4591 42.5021 78.4085 42.4339C78.2061 42.322 76.8934 42.2115 76.2604 42.3688C76.0849 42.4874 75.7431 43.1207 75.6925 43.2526C75.6409 43.3846 75.7108 43.3761 75.9229 43.3293Z" fill="white"/>
<path d="M81.5727 43.2567C81.7848 43.2099 82.7919 43.2353 83.1568 43.3119C83.0049 43.4185 81.9747 43.939 81.7708 44.0629C81.5679 44.1873 81.5172 44.2595 81.619 44.247C81.9145 44.1659 82.6318 44.0629 82.9505 43.8967C83.2513 43.7559 83.6075 43.069 83.8066 42.8127C84.0057 42.5569 84.0057 42.4285 83.9541 42.3612C83.7517 42.2494 82.5421 42.1388 81.9101 42.2953C81.7347 42.4147 81.3919 43.0481 81.3413 43.18C81.2907 43.3119 81.3596 43.3035 81.5727 43.2567Z" fill="white"/>
<path d="M78.0483 46.0082C77.7137 46.535 78.1331 46.9602 78.2859 47.3858C78.0796 47.5744 77.7624 47.4023 77.6563 47.237C77.4307 46.8978 77.5064 46.2065 77.2408 46.1C77.1728 46.2867 77.1285 46.494 77.1285 46.494C77.1285 46.494 77.3305 46.9669 77.2798 47.2797C77.2475 47.4687 77.0807 47.6893 76.8604 47.6938C76.2733 47.7081 76.5625 46.8389 76.3359 46.3464C76.2896 46.4668 76.2564 46.596 76.2024 46.7088C76.2439 46.8372 76.2665 47.0172 76.2733 47.1211C76.2868 47.3274 76.2704 47.5498 76.3056 47.7259C76.3542 47.975 76.4926 48.1404 76.7038 48.1564C77.1424 48.1912 77.3425 47.836 77.4085 47.5445C77.4842 47.8418 78.0642 48.1694 78.3496 47.8043C78.7275 47.323 78.4253 46.9107 78.2315 46.4579C78.0917 46.1231 78.1321 45.9034 78.0483 46.0082Z" fill="white"/>
<path d="M61.5681 44.611C61.5984 44.8276 61.7098 44.9756 61.8915 44.9979C62.2666 45.0455 62.4565 44.7474 62.5274 44.4996C62.5771 44.7585 63.062 45.0634 63.3257 44.7612C63.6743 44.3614 63.4327 43.9941 63.2872 43.5961C63.183 43.3011 63.2279 43.1139 63.1507 43.2008C62.8374 43.6402 63.1792 44.0249 63.2905 44.3979C63.1035 44.5513 62.8388 44.3904 62.7549 44.2446C62.5766 43.9429 62.674 43.3505 62.4512 43.2476C62.3837 43.4062 62.336 43.5823 62.336 43.5823C62.336 43.5823 62.4869 43.9981 62.4281 44.2651C62.3919 44.4269 62.2382 44.6101 62.0473 44.6052C61.5416 44.5941 61.8318 43.8569 61.6592 43.4241C61.6143 43.5253 61.5792 43.6362 61.5266 43.7298C61.557 43.843 61.5681 43.9981 61.5681 44.0886C61.5719 44.2669 61.5469 44.4568 61.5681 44.611Z" fill="white"/>
<path d="M73.5339 65.0235C73.5903 64.9339 73.7146 64.6879 73.6833 64.5198C73.652 64.3518 73.4461 63.6507 73.0465 63.4751C72.6492 63.2995 72.3484 63.6677 72.158 64.1798L72.0259 64.1766C71.9946 64.2524 71.9551 64.3656 71.9237 64.5702C71.8794 64.8657 71.7955 65.056 71.2888 65.516C70.8627 65.9011 69.482 66.8259 68.5873 67.2605C67.6916 67.6959 67.047 68.0717 66.8094 68.1858C66.5727 68.2981 66.6416 68.34 66.8783 68.2691C67.1145 68.1987 68.3033 67.8158 68.7772 67.6206C69.2501 67.4241 69.8286 67.1009 70.5257 66.6485C71.3009 66.1458 71.7642 65.643 71.9199 65.1973C72.0307 64.8795 72.0592 64.7525 72.0592 64.7525C72.0592 64.7525 72.3504 64.9245 72.8445 65.0373C73.3367 65.1505 73.4765 65.114 73.5339 65.0235ZM72.8657 64.0273C73.085 64.1107 73.2186 64.3496 73.2581 64.4944C73.0065 64.5002 72.5432 64.3723 72.346 64.2832C72.4646 64.0536 72.6709 63.9542 72.8657 64.0273Z" fill="white"/>
<path d="M68.2868 65.5165C67.5993 65.4211 65.8672 65.1577 65.4435 64.1521C65.7993 63.6333 67.4379 62.9764 69.4905 62.3618C71.5432 61.7485 73.688 60.9524 74.2645 60.5682C74.3909 60.5255 74.6353 60.5384 74.6353 60.5384C74.7384 60.2411 75.2538 59.1973 75.2861 58.9789C74.7124 59.0114 71.1764 59.2712 69.6058 59.3555C68.0342 59.4402 65.0077 59.4197 63.9992 59.4085C64.6177 58.9637 66.0856 58.0955 68.1836 57.3547C68.4555 57.2584 68.7072 57.1715 68.9419 57.0931C69.1164 57.4042 69.2461 57.7117 69.2731 57.9796C69.4067 57.8423 69.5069 57.3872 69.4732 56.9201C70.6962 56.5297 71.3263 56.4005 71.5982 56.3269C71.7698 56.1045 72.074 55.2051 72.1193 54.5512C71.9366 54.2183 71.3644 53.8038 70.8553 53.4477C70.1539 52.9578 69.3975 52.5308 68.6426 52.7176C67.6104 52.9708 67.4036 54.8668 67.6442 55.2688C67.7208 55.3958 67.9026 55.6209 68.1171 55.8986C67.3631 56.195 66.5745 56.5435 65.8793 56.9099C64.3309 57.7255 62.6021 58.6178 62.0979 59.4758L61.9533 59.5462C61.9128 59.6274 61.5936 60.9551 61.5474 61.0982C61.8694 61.087 64.274 61.0915 65.9487 61.0393C67.6225 60.9859 69.0861 60.9328 69.6593 60.9328C68.8103 61.1338 66.5855 61.9606 65.9458 62.4469C65.3061 62.9345 64.9041 63.6757 64.8934 64.9464C64.2971 64.7128 63.1888 64.1793 62.2444 62.9019C61.1916 61.4784 61.4095 60.0142 60.9881 58.0928C60.3759 55.3045 59.0685 52.9503 58.2543 52.23C57.98 53.2141 57.9448 53.9558 57.9448 53.9558C57.9448 53.9558 58.9649 56.211 59.4812 57.6507C59.9975 59.0907 60.4386 60.5094 60.4169 60.8272C59.9917 61.7596 57.4748 63.7127 55.3772 64.8559C53.3882 65.9399 51.6358 66.0566 51.0149 65.2847C50.893 65.134 50.81 64.9558 50.7633 64.7539C51.0333 64.6277 51.3042 64.5007 51.5819 64.3737C53.3704 63.5589 56.5468 61.8438 57.2911 60.944C58.0942 59.8533 58.0831 58.3179 57.6122 57.4389C57.1431 56.5605 56.4074 55.5434 56.3501 55.1837C56.3052 55.0139 56.8278 55.2528 57.1363 55.2688C57.2858 55.2577 57.2111 55.0567 56.8905 54.7389C56.634 54.4857 55.6424 53.6643 55.2635 53.3438C55.1685 53.2622 55.0976 53.2952 55.0784 53.3813C55.0046 53.7093 54.8537 54.4117 54.7954 54.7585L54.8359 54.9332C54.9448 54.9978 55.0702 55.0705 55.1309 55.2519C55.2167 55.509 55.517 56.2266 56.0093 57.1323C56.5024 58.0375 57.2149 59.0368 57.2848 59.5413C56.7054 60.2803 53.7835 61.8541 50.9373 63.1511C51.1133 62.6056 51.391 61.9887 51.7593 61.3037C51.8639 61.1878 51.9593 61.0447 52.048 60.8834C52.332 60.3646 52.3594 59.7303 52.1873 59.8645C52.0398 60.0067 51.9338 60.5214 51.765 60.5562C51.4194 60.6271 50.9344 60.2237 51.0564 59.4861C51.1668 58.8206 51.5226 58.2198 51.6763 57.8352C51.8894 57.303 51.9478 56.7771 51.7863 57.0632C51.4233 57.7024 50.7421 58.9405 50.5329 59.8056C50.3246 60.6694 50.5459 61.26 50.9108 61.4886C51.0472 61.5755 51.1779 61.6027 51.3022 61.5858C51.0525 62.0609 50.744 62.6439 50.5189 63.3392C49.3744 63.8513 48.2608 64.309 47.3391 64.6389C44.0258 65.8249 41.6646 66.5237 40.013 67.0425L39.9484 67.0715C40.0699 66.6788 40.0535 66.3437 39.9233 66.4444C39.7758 66.5875 39.6702 67.1023 39.5015 67.1361C39.1558 67.207 38.6709 66.8041 38.7923 66.066C38.9032 65.4006 39.259 64.8006 39.4128 64.4156C39.6249 63.8838 39.6837 63.357 39.5227 63.6436C39.1592 64.2827 38.4785 65.5209 38.2693 66.3856C38.0606 67.2498 38.2818 67.8404 38.6463 68.0694C39.1004 68.3547 39.4875 68.0048 39.7845 67.4637L39.8886 67.2413C39.9918 67.2413 40.1658 67.2173 40.4256 67.1593C41.1825 66.9891 43.0746 66.7145 45.6764 66.3753C47.6028 66.1248 48.9328 65.5958 50.2185 65.007C50.2128 65.1492 50.2113 65.294 50.2176 65.4434C50.2875 67.2088 51.4445 67.7071 53.0266 67.3768C54.5529 67.0564 56.6813 65.6568 57.9568 64.7128C59.2869 63.7287 60.0544 62.8494 60.2501 62.5427C60.6049 61.7908 60.7023 60.96 60.7264 60.5682C60.8426 61.6477 60.9366 63.1417 61.9576 64.4231C62.8977 65.6025 64.824 67.248 68.4473 67.293C68.4594 66.862 68.2868 65.5165 68.2868 65.5165ZM68.0472 54.5771C68.5659 53.995 69.6728 54.3756 70.5034 55.1137C70.0777 55.2135 69.4997 55.3914 68.8619 55.6191C68.483 55.1623 68.0602 54.7219 68.0472 54.5771Z" fill="white"/>
<path d="M47.677 46.5962C47.9122 46.4888 48.6319 46.1652 49.4076 45.7133C50.1818 45.2645 50.9093 44.7207 51.2651 44.3592C51.4015 44.2206 51.523 44.1123 51.6006 43.9835C51.8329 44.0798 51.993 44.1796 52.0928 44.2188C52.2427 44.2768 52.4428 44.3601 52.5729 43.9331C52.7026 43.5066 52.5305 43.2311 52.2769 42.9022C52.0624 42.6263 51.7221 42.2118 51.4458 42.1089C51.2115 42.0211 51.1002 42.5443 51.1359 42.5314H51.2925L51.3229 42.5461C51.0004 42.7088 50.7507 43.2151 50.7256 43.3929C50.7001 43.5864 50.7367 43.729 51.1995 43.848L51.3856 43.9028C50.9994 44.3601 50.2797 44.833 49.7894 45.1682C49.0938 45.6451 48.1065 46.241 47.8254 46.413C47.5444 46.5842 47.568 46.6381 47.677 46.5962ZM51.8575 43.2365L51.8826 43.0079C52.208 43.3787 52.4495 43.8199 52.4254 43.8823C52.276 43.8944 52.0899 43.7562 51.7645 43.6171C51.8006 43.5066 51.831 43.3845 51.8575 43.2365ZM50.9233 43.2369C50.9213 43.1674 51.0467 42.974 51.3118 42.8683C51.5765 42.7618 51.6936 43.0591 51.7168 43.421L51.6382 43.5659L51.3996 43.4834C51.1469 43.4094 50.9763 43.3675 50.9233 43.2369Z" fill="white"/>
<path d="M65.0265 53.5771C65.4083 53.3248 66.4577 52.5671 67.0531 52.0706C67.4672 51.7256 67.9536 51.2175 68.2838 50.7879C68.4911 50.922 68.6845 51.041 68.8604 51.1444C69.1998 51.3428 69.3362 51.6369 69.3362 51.6369C69.3989 51.5407 69.691 51.0139 69.5768 50.7576C69.5083 50.6738 69.0908 50.43 68.6642 50.1688C68.8807 49.683 69.1786 48.8428 68.7519 48.5487C68.387 48.2991 67.7714 48.7122 67.4865 49.2484C67.2512 49.6923 67.2209 50.069 67.6697 50.3774C67.796 50.4643 67.917 50.5463 68.0356 50.6243C67.5829 51.1195 66.7489 51.8522 66.1555 52.351C65.4184 52.9678 64.7213 53.5726 64.5998 53.7171L64.5646 53.7732C64.4036 53.3248 64.4475 53.048 64.3279 53.1969C63.8116 54.0068 64.4586 54.6628 64.6938 55.318C64.3756 55.6068 63.8883 55.3416 63.7248 55.0889C63.3768 54.5657 63.493 53.5031 63.0856 53.3386C62.9805 53.6257 62.9121 53.9453 62.9121 53.9453C62.9121 53.9453 63.222 54.6731 63.1435 55.1536C63.0948 55.4442 62.8373 55.7842 62.4994 55.79C61.595 55.8132 62.0409 54.4752 61.6919 53.7175C61.6211 53.9034 61.5704 54.1021 61.4856 54.2742C61.5497 54.4734 61.5849 54.7497 61.5941 54.9098C61.6172 55.2275 61.5912 55.5685 61.6447 55.8413C61.7194 56.2246 61.9325 56.4795 62.2579 56.5032C62.9323 56.558 63.2404 56.0098 63.3426 55.5627C63.4587 56.02 64.352 56.5228 64.7912 55.9621C65.3731 55.2209 64.9074 54.5862 64.6099 53.8891L64.5747 53.7986C64.6162 53.8133 64.7719 53.7451 65.0265 53.5771ZM67.6644 49.4035C67.8881 48.9886 68.3591 48.9534 68.5003 49.1709C68.6126 49.3438 68.6218 49.6812 68.4531 50.0373C68.0375 49.7766 67.6668 49.5212 67.6644 49.4035Z" fill="white"/>
<path d="M50.3038 50.9384C49.5093 50.8823 49.0817 50.1545 48.8373 49.103C48.5924 48.0516 48.7424 46.665 48.8089 46.3098C48.8754 45.955 48.5008 46.1382 48.3553 46.9998C48.2106 47.8604 48.065 49.2367 48.5775 50.6777C49.089 52.1169 49.9611 52.654 50.7251 52.4699C51.4892 52.2867 52.1617 50.4936 52.3989 49.6891C52.6356 48.8842 53.6947 45.6016 54.2944 45.4251C54.3783 45.8276 53.8283 46.8371 53.6523 48.3547C53.4773 49.8723 53.782 51.8628 55.7084 52.2158C57.6348 52.5693 58.9417 51.3195 59.4156 50.4508C59.8899 49.5835 60.1112 48.6716 60.1647 48.2134C60.2264 49.378 61.0209 51.1965 62.564 51.7149C64.0551 52.2158 65.1942 51.7572 65.6975 51.1078C66.1444 50.5311 66.5084 49.3433 66.5397 48.4323C66.5701 47.5221 65.7833 45.8565 65.6074 45.3261C65.4309 44.7971 65.3398 44.4298 65.3244 44.2466C65.3094 44.0635 65.7226 44.4588 65.9824 44.5363C66.1584 44.5716 66.0967 44.1905 65.8826 43.9289C65.6691 43.6681 64.513 41.9152 64.432 42.0373C64.3824 42.1104 63.9196 43.3998 63.8892 43.5972C64.0724 43.7176 64.2845 44.0492 64.3004 44.367C64.3149 44.6848 64.621 46.0821 64.904 46.8585C65.187 47.6349 65.737 49.1244 65.7756 49.534C65.2255 49.9218 63.9866 50.4152 62.8099 49.9151C61.6331 49.4132 61.2576 48.6863 61.1279 47.3875C61.045 46.5576 61.0368 45.0289 60.7408 43.7506C60.574 43.0281 60.2225 42.2936 59.8051 41.9036C59.7067 42.1429 59.2632 43.6186 59.2632 43.6186C59.4078 44.0421 59.8576 45.4679 59.8432 46.7034C59.8272 47.938 59.7299 49.1463 58.3453 49.9788C56.9618 50.8114 54.9906 50.4798 54.4781 49.1806C53.9657 47.8818 55.1048 44.9598 55.0899 44.1905C55.0744 43.4212 54.9361 43.3147 54.6155 43.4421C54.2944 43.5692 53.6364 44.3108 53.0714 45.5173C52.5055 46.7248 52.2543 47.9313 51.9323 48.9479C51.6117 49.9646 51.0983 50.9946 50.3038 50.9384Z" fill="white"/>
<path d="M27.2361 46.4353C28.2138 46.3644 29.04 45.6232 29.2536 45.4262C29.4676 45.2279 29.5829 44.9324 29.4296 45.0447C28.2986 46.0542 26.7854 46.0827 26.7005 45.9129C26.7391 45.7435 27.1373 45.4681 27.7182 45.0803C28.0711 44.8445 28.3854 44.6235 28.6206 44.3101L28.6847 44.3213C29.1152 44.4158 29.6123 44.6039 29.7641 44.4532C30.0114 44.2094 30.0442 43.8101 29.7762 43.3795C29.5496 43.014 29.0212 42.674 28.5623 42.4284C28.1043 42.1841 28.0156 42.5741 27.9568 42.7132C27.9004 42.8429 27.9235 42.9534 28.0204 42.9561C27.8729 43.1571 27.7678 43.4161 27.7293 43.63C27.7042 43.7682 27.7244 43.8814 27.7809 43.9745C27.7972 44.0008 27.8821 44.1047 28.0426 44.1662L28.2417 44.2281C27.899 44.5446 27.5041 44.7924 27.2968 44.9176C26.9228 45.1436 26.4792 45.539 26.3419 45.9477C26.204 46.3577 26.2575 46.5061 27.2361 46.4353ZM28.9644 43.5516L29.002 43.343V43.2093C29.3119 43.4348 29.8075 43.8618 29.7771 44.1176C29.5809 44.073 29.2068 43.9941 28.8515 43.9028C28.8969 43.7963 28.934 43.6795 28.9644 43.5516ZM28.0455 43.6166C27.8175 43.4348 28.0397 43.2534 28.2417 43.1366C28.5025 42.986 28.6553 43.1103 28.7889 43.5057C28.7421 43.6189 28.6766 43.729 28.5994 43.8346C28.3965 43.7717 28.1106 43.671 28.0455 43.6166Z" fill="white"/>
<path d="M30.1692 57.4763C29.8882 57.7201 29.7792 58.5135 29.8366 58.5612C29.8935 58.6089 30.7718 58.9053 30.9092 58.9694L30.9719 58.7305C31.3903 59.1063 31.8541 60.9809 31.9572 60.9862C32.0604 60.9911 32.2099 60.7741 32.3077 60.2762C32.3979 59.8145 32.488 59.1236 32.582 58.5612C32.6698 58.0464 32.8062 57.7518 33.1157 57.6929C33.4257 57.635 33.6551 58.0321 33.7351 58.3022C33.7351 58.3022 33.9526 57.783 33.9988 57.4603C33.9473 57.2905 33.4652 56.6504 33.0699 56.8621C32.6741 57.0743 32.4263 57.9724 32.3463 58.534C32.2658 59.0947 32.2041 59.79 32.1067 59.9014C32.0045 59.4227 31.6772 58.5661 31.2819 58.0847C30.8374 57.5454 30.3177 57.3475 30.1692 57.4763Z" fill="white"/>
<path d="M26.4224 56.5181C26.7892 56.4173 27.615 56.2907 28.0104 56.0844C28.383 55.9097 29.0189 55.0575 29.2657 54.7397C29.512 54.4219 29.5125 54.2623 29.4498 54.1781C29.1977 54.0399 27.5688 53.9031 26.783 54.0979C26.566 54.2445 26.1413 55.0303 26.0787 55.1948C26.015 55.3583 26.1018 55.3481 26.365 55.2901C26.6287 55.2313 27.8787 55.263 28.3309 55.3583C28.1424 55.4912 26.864 56.137 26.6114 56.2907C26.3597 56.4441 26.2961 56.5341 26.4224 56.5181Z" fill="white"/>
<path d="M102.158 61.0674C102.12 60.1149 101.654 58.6525 99.8798 56.4089C99.2675 55.6342 98.4061 54.6261 97.4973 53.5934C97.4723 53.2413 97.4472 52.9195 97.4245 52.6431C97.3055 51.2218 96.902 48.322 96.7284 46.6078C96.686 46.1755 96.6826 45.7155 96.6889 45.4753C96.6952 45.2845 96.8326 45.3099 97.0215 45.506C97.2105 45.7017 97.5017 45.9874 97.5624 45.9678C97.6916 45.9232 97.5793 45.4904 97.3214 44.9774C97.064 44.4635 96.0906 42.3852 95.9118 42.3045C95.8197 42.2635 95.3608 43.4839 95.3323 43.7335C95.4234 43.8868 95.6587 44.1253 95.6814 44.8192C95.7055 45.5127 96.1239 49.6088 96.3645 52.1898L96.3775 52.3338C95.019 50.8171 93.7395 49.434 93.2131 48.8733C93.122 48.7762 93.0217 48.6656 92.9137 48.5471C92.8279 47.8567 92.7489 47.1988 92.6944 46.6555C92.6501 46.2241 92.6472 45.7632 92.6549 45.523C92.6592 45.3327 92.7976 45.3585 92.9865 45.5546C93.1765 45.7503 93.4667 46.036 93.5274 46.0155C93.6566 45.9718 93.5443 45.539 93.2859 45.0251C93.029 44.5112 92.0142 42.3852 91.8344 42.3045C91.7433 42.2635 91.2631 43.581 91.2347 43.8289C91.3267 43.9831 91.5615 44.2215 91.5847 44.9155C91.5938 45.2101 91.6705 46.1033 91.7727 47.2305C90.8722 46.1603 89.9904 45.0398 89.9278 44.8121C89.9056 44.6998 90.096 44.7689 90.4484 44.8259C90.7994 44.8821 91.1286 44.9877 91.0722 44.8139C91.0457 44.7332 90.9117 44.5317 90.5757 44.3231C90.2392 44.115 89.3772 43.5757 88.7361 43.1951C88.0935 42.814 87.7753 42.4935 87.6427 42.5849C87.5772 42.6299 87.6355 43.9363 87.6731 44.0981C87.8346 44.1128 88.133 44.2327 88.3229 44.4867C88.5148 44.7408 89.7431 46.463 90.7145 47.6276C90.9941 47.9628 91.4318 48.4825 91.9443 49.0824C92.0446 50.1552 92.1497 51.2637 92.2364 52.1898C92.4336 54.3025 93.1423 59.8742 93.149 61.6851C92.6259 62.1758 91.5562 62.8604 90.4556 62.8747C89.3551 62.8885 88.7515 62.5988 88.308 61.7805C88.1711 61.5269 88.0438 61.272 87.9175 61.0411C87.6176 60.4924 86.9485 60.1844 86.3035 60.3355L86.2052 60.3618L86.0297 60.4461C85.5929 60.6747 85.1412 61.058 84.6996 61.6526C83.936 62.6839 83.4482 63.8027 82.8832 64.7716C82.2946 65.7807 81.8428 66.4577 80.8102 66.2959C80.0833 66.1818 79.5313 65.5583 79.1909 64.7912C80.1469 64.1298 80.8411 63.2669 81.3487 62.0711C82.0096 60.5169 82.2454 58.7649 82.1866 56.7949C82.1302 54.9407 81.2851 50.5786 81.0619 48.9068C80.8392 47.234 80.5191 45.8613 80.5562 45.5043C80.5909 45.1597 81.1395 45.9709 81.4205 46.0315C81.5642 45.9994 81.4871 45.482 81.2142 45.0447C81.0291 44.7475 80.4429 43.3952 80.0592 42.7431C79.8789 42.4347 79.8355 42.256 79.7516 42.2194C79.6687 42.1815 79.0299 43.5458 79.1071 43.6943C79.296 43.9644 79.4252 44.0932 79.4648 44.5772C79.5053 45.0612 79.943 48.6144 80.3258 51.2311C80.614 53.2056 81.2509 56.7922 81.3328 59.4432C81.3598 60.3083 81.2364 60.9292 81.1294 61.276C80.8546 61.8072 80.4067 62.3974 78.8332 63.5174C78.5903 61.9347 78.8544 60.6489 78.624 60.5299C78.3642 60.5579 78.3227 61.2956 78.2933 62.2057C78.2788 62.626 78.2972 63.2081 78.3762 63.8334C76.4436 65.1251 73.8905 66.3013 72.6916 66.9293C71.9882 67.2983 72.2418 67.3843 72.8372 67.2003C73.4325 67.0153 76.7044 66.1573 78.451 65.2387L78.639 65.1344C78.7277 65.4424 78.8352 65.7406 78.9673 66.0156C79.5549 67.2368 80.3947 67.962 81.3044 67.8911C82.0694 67.8323 82.6243 67.0135 83.1083 66.037C83.5976 65.0484 84.4244 63.1711 85.2352 62.4727C85.5466 62.2035 85.8687 61.9904 86.182 61.8625C86.182 61.8625 86.7359 61.6775 87.2455 62.0105C87.4282 62.1308 87.5646 62.302 87.6509 62.4936C87.8519 62.9335 88.0896 63.4933 88.5755 63.9622C89.4317 64.7868 90.8085 64.6165 91.8411 64.1369C92.8723 63.6569 93.3987 62.9081 93.6282 62.0185C94.0196 60.4964 93.957 58.9369 93.8822 57.5517C93.7959 55.9707 93.5433 54.3551 93.3997 52.6431C93.3534 52.0927 93.2633 51.3269 93.1596 50.4966C94.1652 51.6572 95.2094 52.8352 95.8428 53.4793C96.0612 53.7017 96.2917 53.9486 96.5284 54.2093C96.7173 56.8006 96.8991 60.0431 96.995 61.4039C97.09 62.7597 97.0288 64.4641 97.0177 64.7605C97.0061 65.0569 97.171 65.0061 97.4077 64.3482C97.7249 63.4653 97.924 61.1498 97.8546 59.6144C97.8131 58.702 97.722 57.0387 97.6236 55.4653C98.4041 56.3928 99.1451 57.3293 99.6272 57.9613C100.484 59.0835 101.272 60.418 101.547 61.2506C101.822 62.084 101.852 62.331 101.905 62.4794C101.959 62.6278 102.196 62.0198 102.158 61.0674Z" fill="white"/>
<path d="M87.6842 92.7698C87.6068 92.5484 87.3697 92.3859 87.0862 92.3859C86.8027 92.3859 86.5661 92.5484 86.4882 92.7698H83.8035C83.7764 92.472 83.8028 92.1727 83.8872 91.8811L89.4299 91.8778L89.5842 92.1379C89.7236 92.3724 89.8997 92.5842 90.1039 92.7699L87.6842 92.7698ZM91.3536 90.1941H84.6928C85.2047 89.8247 85.4732 89.2856 85.4011 88.7402C85.3552 88.3964 85.0146 88.1397 84.5994 88.1049H84.3909C83.8858 88.1542 83.5195 88.5183 83.5728 88.9181L83.5931 89.0719L83.6178 89.3083C83.6449 89.6052 83.6188 89.9035 83.535 90.1941H34.301C35.0321 91.2578 36.365 91.9101 37.8044 91.9091L82.7313 91.8815C82.2175 92.2514 81.948 92.7915 82.0205 93.3379C82.0738 93.7377 82.5257 94.0226 83.0308 93.9732C83.5354 93.9239 83.9017 93.5598 83.8489 93.1594L83.8286 93.0062H86.4689C86.5153 93.2639 86.7727 93.4616 87.0862 93.4616C87.3998 93.4616 87.6572 93.2639 87.7041 93.0062H90.3898V92.9999C90.9506 93.3978 91.6632 93.6265 92.4171 93.6265C93.1264 93.6265 93.7012 93.1338 93.7012 92.5256V92.2074C93.7012 91.0959 92.6503 90.1941 91.3536 90.1941" fill="white"/>
</g>
<defs>
<clipPath id="clip0_260_10104">
<rect width="128" height="128" fill="white"/>
</clipPath>
</defs>
</svg>
