<svg width="128" height="128" viewBox="0 0 128 128" fill="none" xmlns="http://www.w3.org/2000/svg">
<g clip-path="url(#clip0_260_9971)">
<rect width="128" height="128" fill="#D80027"/>
<rect width="128" height="128" fill="white"/>
<rect width="128" height="64" fill="#D80027"/>
<path fill-rule="evenodd" clip-rule="evenodd" d="M45.9374 53.3146C44.6361 53.6158 43.2804 53.775 41.8875 53.775C32.0085 53.775 24 45.7665 24 35.8875C24 26.0085 32.0085 18 41.8875 18C43.2804 18 44.6362 18.1592 45.9376 18.4604C38.0094 20.2956 32.1 27.4014 32.1 35.8875C32.1 44.3736 38.0093 51.4794 45.9374 53.3146Z" fill="white"/>
<path d="M51.675 20.97L48.9374 29.3955L56.1046 24.1882H47.2455L54.4126 29.3955L51.675 20.97Z" fill="white"/>
<path d="M65.8623 31.2778L57.0032 31.2778L64.1704 36.4851L61.4328 28.0596L58.6952 36.4851L65.8623 31.2778Z" fill="white"/>
<path d="M42.9067 47.9561L50.0738 42.7488L41.2147 42.7488L48.3819 47.9561L45.6443 39.5306L42.9067 47.9561Z" fill="white"/>
<path d="M60.4433 47.956L57.7057 39.5305L54.9681 47.956L62.1352 42.7488L53.2761 42.7488L60.4433 47.956Z" fill="white"/>
<path d="M37.4876 31.2779L44.6547 36.4851L41.9171 28.0596L39.1795 36.4851L46.3467 31.2779L37.4876 31.2779Z" fill="white"/>
</g>
<defs>
<clipPath id="clip0_260_9971">
<rect width="128" height="128" fill="white"/>
</clipPath>
</defs>
</svg>
