<svg width="128" height="128" viewBox="0 0 128 128" fill="none" xmlns="http://www.w3.org/2000/svg">
<g clip-path="url(#clip0_260_10625)">
<rect width="128" height="128" fill="#D80027"/>
<rect width="128" height="128" fill="#003399"/>
<rect y="64" width="128" height="64" fill="#D80027"/>
<path d="M0 0L100 64L0 128V0Z" fill="white"/>
<path d="M45.1356 63.8855L42.0981 48.6129L43.0053 47.7047L45.1356 63.8855ZM45.1356 63.8855L44.0133 46.7677L45.1356 45.6455L46.2578 46.7677L45.1356 63.8855ZM45.1356 63.8855L47.2658 47.7047L48.173 48.6129L45.1356 63.8855Z" fill="#FCD116"/>
<path d="M45.1355 63.8855L48.173 79.1581L47.2658 80.0663L45.1355 63.8855ZM45.1355 63.8855L46.2578 81.0032L45.1355 82.1255L44.0133 81.0032L45.1355 63.8855ZM45.1355 63.8855L43.0053 80.0663L42.0981 79.1581L45.1355 63.8855Z" fill="#FCD116"/>
<path d="M45.1357 63.8855L60.4084 60.848L61.3165 61.7552L45.1357 63.8855ZM45.1357 63.8855L62.2535 62.7632L63.3757 63.8855L62.2535 65.0077L45.1357 63.8855ZM45.1357 63.8855L61.3165 66.0157L60.4084 66.9229L45.1357 63.8855Z" fill="#FCD116"/>
<path d="M45.1358 63.8854L29.8631 66.9229L28.955 66.0157L45.1358 63.8854ZM45.1358 63.8854L28.018 65.0077L26.8958 63.8854L28.018 62.7632L45.1358 63.8854ZM45.1358 63.8854L28.955 61.7552L29.8631 60.848L45.1358 63.8854Z" fill="#FCD116"/>
<path d="M45.1357 63.8855L53.7873 50.9383L55.0709 50.9376L45.1357 63.8855ZM45.1357 63.8855L56.4462 50.9879L58.0333 50.9879L58.0333 52.575L45.1357 63.8855ZM45.1357 63.8855L58.0835 53.9503L58.0828 55.2339L45.1357 63.8855Z" fill="#FCD116"/>
<path d="M45.1357 63.8855L36.4841 76.8327L35.2005 76.8333L45.1357 63.8855ZM45.1357 63.8855L33.8252 76.7831L32.2381 76.7831L32.2381 75.196L45.1357 63.8855ZM45.1357 63.8855L32.1878 73.8207L32.1885 72.5371L45.1357 63.8855Z" fill="#FCD116"/>
<path d="M45.1357 63.8854L58.0829 72.537L58.0836 73.8207L45.1357 63.8854ZM45.1357 63.8854L58.0334 75.196L58.0334 76.783L56.4463 76.783L45.1357 63.8854ZM45.1357 63.8854L55.071 76.8333L53.7873 76.8326L45.1357 63.8854Z" fill="#FCD116"/>
<path d="M45.1358 63.8855L32.1886 55.2339L32.1879 53.9502L45.1358 63.8855ZM45.1358 63.8855L32.2381 52.5749L32.2381 50.9878L33.8252 50.9878L45.1358 63.8855ZM45.1358 63.8855L35.2005 50.9376L36.4842 50.9383L45.1358 63.8855Z" fill="#FCD116"/>
<path d="M45.1357 72.5255C49.9075 72.5255 53.7757 68.6572 53.7757 63.8855C53.7757 59.1137 49.9075 55.2455 45.1357 55.2455C40.364 55.2455 36.4957 59.1137 36.4957 63.8855C36.4957 68.6572 40.364 72.5255 45.1357 72.5255Z" fill="#FCD116"/>
<path d="M86.0216 63.8855L82.1256 65.2402L82.0415 69.3632L79.5497 66.0766L75.6018 67.2712L77.9576 63.8855L75.6018 60.4997L79.5497 61.6944L82.0415 58.4077L82.1256 62.5307L86.0216 63.8855Z" fill="#FCD116"/>
<path d="M21.7846 101.746L22.5594 97.6944L19.0308 95.5601L23.123 95.0455L24.0624 91.0292L25.8166 94.7623L29.9267 94.4149L26.9181 97.2366L28.5186 101.038L24.9059 99.0492L21.7846 101.746Z" fill="#FCD116"/>
<path d="M21.7848 26.0247L24.9061 28.7215L28.5188 26.7328L26.9183 30.5341L29.9269 33.3557L25.8168 33.0084L24.0626 36.7415L23.1232 32.7252L19.031 32.2105L22.5596 30.0762L21.7848 26.0247Z" fill="#FCD116"/>
</g>
<defs>
<clipPath id="clip0_260_10625">
<rect width="128" height="128" fill="white"/>
</clipPath>
</defs>
</svg>
