<svg width="128" height="128" viewBox="0 0 128 128" fill="none" xmlns="http://www.w3.org/2000/svg">
<g clip-path="url(#clip0_258_8355)">
<rect width="128" height="128" fill="#D80027"/>
<rect width="128" height="128" fill="white"/>
<rect y="86" width="128" height="42" fill="#111111"/>
<rect width="128" height="42" fill="#D80027"/>
<path d="M64.4705 64.4234L76.7983 75.8676L75.9206 55.0831C75.7917 51.933 73.0543 52.6558 71.0659 53.7921C69.0515 55.0831 66.7534 55.0831 64.3256 54.2307C61.8983 55.083 59.6 55.083 57.5857 53.792C55.5974 52.6558 52.8603 51.933 52.7311 55.083L51.8529 75.8676L64.4705 64.4234Z" fill="white" stroke="#C09300" stroke-width="0.228664" stroke-linejoin="round"/>
<path d="M54.1493 54.3596L53.2972 74.5771L51.851 75.8674L52.7291 55.0829C53.1421 54.7988 53.8655 54.3598 54.1493 54.3598V54.3596ZM55.8809 55.8068L55.1579 72.7187L53.7122 74.1983L54.59 54.6701C54.8742 54.954 55.7265 55.6511 55.881 55.806L55.8809 55.8068ZM57.456 57.0974L56.8881 71.2025L55.7262 72.3383L56.4494 56.2453C56.7327 56.5294 57.3008 56.9426 57.456 57.0974ZM59.1605 57.821L58.5924 69.8426L57.4561 70.7642L58.0242 57.3821C58.3084 57.5112 58.8765 57.821 59.1605 57.821ZM60.7355 57.821L60.3221 67.8392L59.1602 68.9756L59.5994 57.9503C59.8829 57.9503 60.6061 57.9502 60.7355 57.821Z" fill="#C09300"/>
<path d="M74.5001 54.3596L75.3522 74.5771L76.7985 75.8674L75.9203 55.0829C75.5073 54.7988 74.7839 54.3598 74.5001 54.3598V54.3596ZM72.7685 55.8068L73.4915 72.7187L74.9373 74.1983L74.0594 54.6701C73.7752 54.954 72.9229 55.6511 72.7684 55.806L72.7685 55.8068ZM71.1935 57.0974L71.7613 71.2025L72.9233 72.3383L72.2 56.2453C71.9167 56.5294 71.3486 56.9426 71.1935 57.0974ZM69.4889 57.821L70.057 69.8426L71.1933 70.7642L70.6252 57.3821C70.341 57.5112 69.7729 57.821 69.4889 57.821ZM67.9139 57.821L68.3273 67.8392L69.4892 68.9756L69.05 57.9503C68.7665 57.9503 68.0433 57.9502 67.9139 57.821Z" fill="#C09300"/>
<path d="M64.8935 66.7023L66.6238 74.5782L66.0554 75.1461L65.4615 74.7071L64.4801 67.6839L64.8934 74.7071L64.3251 75.4299L63.757 74.7071L64.1703 67.6839L63.1892 74.7071L62.5948 75.1461L62.027 74.5782L63.757 66.7022L64.8935 66.7023Z" fill="#C09300" stroke="#C09300" stroke-width="0.193295"/>
<path d="M60.4511 63.2427L57.0167 75.4295L61.7426 76.1527L63.7564 66.9864L60.4511 63.2426L60.4511 63.2427Z" fill="white" stroke="#C09300" stroke-width="0.214021" stroke-linejoin="round"/>
<path d="M59.3153 67.4007L59.7285 68.4074L61.9614 66.2747" stroke="#C09300" stroke-width="0.22858" stroke-linejoin="round"/>
<path d="M60.8615 64.8771L61.3288 69.2593L62.749 67.4003M62.1809 68.1224L62.9567 70.7999M63.2609 69.8162L61.6917 72.1996M62.1812 74.5785L61.6789 72.2029L61.2405 69.7867L60.1892 71.2103L59.7282 69.5689L58.2567 71.0782L59.0051 73.8233L60.0378 72.1251L60.6058 73.8553L61.6661 72.2061M58.0229 75.146L58.9769 73.8062L59.5984 75.8684L60.4505 74.4226L61.0189 76.1531" stroke="#C09300" stroke-width="0.22858" stroke-linejoin="round"/>
<path d="M68.1983 63.2427L71.6327 75.4295L66.9068 76.1527L64.893 66.9864L68.1983 63.2426L68.1983 63.2427Z" fill="white" stroke="#C09300" stroke-width="0.214021" stroke-linejoin="round"/>
<path d="M69.3341 67.4007L68.9209 68.4074L66.688 66.2747" stroke="#C09300" stroke-width="0.22858" stroke-linejoin="round"/>
<path d="M67.7879 64.8771L67.3207 69.2593L65.9004 67.4003M66.4685 68.1224L65.6927 70.7999M65.3885 69.8162L66.9577 72.1996M66.4683 74.5785L66.9705 72.2029L67.4089 69.7867L68.4602 71.2103L68.9213 69.5689L70.3927 71.0782L69.6443 73.8233L68.6116 72.1251L68.0436 73.8553L66.9833 72.2061M70.6265 75.146L69.6725 73.8062L69.051 75.8684L68.1989 74.4226L67.6305 76.1531" stroke="#C09300" stroke-width="0.22858" stroke-linejoin="round"/>
<path d="M64.3247 80.8772C67.9144 80.8772 71.349 80.5932 73.363 80.0251C74.2154 79.8705 74.2154 79.4315 74.2154 78.8631C75.0678 78.5791 74.6285 77.5724 75.2224 77.5724C74.6285 77.7277 74.4996 76.5655 73.7765 76.7207C73.7765 75.7134 72.7693 75.5844 71.9171 75.868C70.2125 76.4363 67.1912 76.5655 64.3247 76.5655C61.4583 76.4363 58.4626 76.4363 56.7325 75.868C55.8803 75.5844 54.8736 75.7134 54.8736 76.7207C54.1503 76.5655 54.0213 77.7277 53.4275 77.5725C54.0213 77.5725 53.5822 78.5791 54.4345 78.8631C54.4345 79.4315 54.4345 79.8705 55.3124 80.0251C57.3006 80.5932 60.7355 80.8772 64.3247 80.8772H64.3247Z" fill="white" stroke="#C09300" stroke-width="0.428043" stroke-linejoin="round"/>
<path d="M59.445 75.4286C60.6068 75.5836 61.898 75.7126 62.9055 75.5836C63.4731 75.5836 63.8864 76.5647 62.7502 76.7199C61.7435 76.8487 60.1681 76.7199 59.3158 76.5647C58.5928 76.4356 57.0176 76.1517 56.0103 75.8672C55.0032 75.4286 55.7266 74.577 56.2942 74.7058C57.1724 74.9897 58.3088 75.2739 59.4451 75.4286L59.445 75.4286ZM69.2063 75.4286C68.0441 75.5836 66.7533 75.7126 65.7718 75.5836C65.1777 75.5836 64.7645 76.5647 65.9009 76.7199C66.908 76.8487 68.4833 76.7199 69.3349 76.5647C70.0583 76.4356 71.6333 76.1517 72.6404 75.8672C73.6478 75.4286 72.9249 74.577 72.3565 74.7058C71.4785 74.9897 70.3423 75.2739 69.2063 75.4286Z" fill="white" stroke="#C09300" stroke-width="0.22858" stroke-linejoin="round"/>
<path d="M55.881 74.8616C55.0031 74.7066 54.59 75.7133 54.8743 76.2812C55.0032 75.9973 55.5972 75.9972 55.7265 75.7133C55.881 75.2746 55.5972 75.2747 55.881 74.8616ZM59.3154 77.5022C59.3154 76.9347 59.8832 77.0045 59.8832 76.4363C59.8832 76.1524 59.7286 75.7132 59.4446 75.7132C59.1606 75.7132 58.8762 75.9972 58.8762 76.2812C58.747 76.8494 59.3154 76.9348 59.3154 77.5022ZM63.4032 75.8678C64.2546 75.8678 64.1703 77.0043 63.757 77.5724C63.757 77.1592 63.034 77.0043 63.034 76.7207C63.034 76.2811 63.6867 76.2811 63.4032 75.8678ZM72.7686 74.8616C73.6465 74.7066 74.0599 75.7133 73.7757 76.2812C73.6465 75.9973 73.0526 75.9972 72.9235 75.7133C72.7686 75.2746 73.0528 75.2747 72.7686 74.8616ZM69.3342 77.5022C69.3342 76.9347 68.7666 77.0045 68.7666 76.4363C68.7666 76.1524 68.9213 75.7132 69.2054 75.7132C69.4893 75.7132 69.7735 75.9972 69.7735 76.2812C69.9027 76.8494 69.3342 76.9348 69.3342 77.5022ZM65.2463 75.8678C64.3945 75.8678 64.479 77.0043 64.8922 77.5724C64.8922 77.1592 65.6151 77.0043 65.6151 76.7207C65.6152 76.2811 64.9623 76.2811 65.2463 75.8678Z" fill="white" stroke="#C09300" stroke-width="0.22858" stroke-linejoin="round"/>
<path d="M56.1654 75.1461C56.4498 75.1461 56.8886 75.2752 57.0177 75.4299L56.1646 75.1455L56.1654 75.1461ZM57.5838 75.5853C57.7389 75.5853 58.3071 75.7142 58.591 75.8688L57.583 75.5844L57.5838 75.5853ZM62.7498 76.1523C62.4658 76.1523 61.8976 76.1523 61.7431 76.281L62.7493 76.1514L62.7498 76.1523ZM61.1748 76.1523C61.0202 75.997 60.4518 75.997 60.1679 76.1523H61.1741H61.1748ZM72.486 75.1461C72.202 75.1461 71.7885 75.2752 71.6336 75.4299L72.486 75.1461ZM71.0657 75.5853C70.9109 75.5853 70.3427 75.7142 70.0586 75.8688L71.0666 75.5844L71.0657 75.5853ZM65.8998 76.1523C66.1841 76.1523 66.7521 76.1523 66.9069 76.281L65.8989 76.1514L65.8998 76.1523ZM67.4747 76.1523C67.6296 75.997 68.1981 75.997 68.4819 76.1523H67.4739H67.4747Z" fill="white" stroke="#C09300" stroke-width="0.160359" stroke-linejoin="round"/>
<path d="M55.9259 77.4159C55.8298 77.3975 55.7793 77.3214 55.8035 77.2314C55.833 77.1218 55.9208 77.0591 56.0037 77.0884C56.0565 77.1071 56.1531 77.2044 56.1535 77.2394C56.154 77.2795 56.103 77.3749 56.081 77.3751C56.0715 77.3752 56.0569 77.3835 56.0484 77.3934C56.0304 77.4147 55.974 77.4251 55.9259 77.4159ZM65.8133 78.1215C65.7775 78.1082 65.7205 78.0281 65.7206 77.9912C65.721 77.9215 65.824 77.808 65.8878 77.8073C65.9193 77.8071 66.0057 77.852 66.038 77.8855C66.0964 77.9464 66.0837 78.0462 66.0102 78.1029C65.974 78.1309 65.8661 78.141 65.8133 78.1214L65.8133 78.1215ZM65.8781 78.5678C65.8024 78.5422 65.7748 78.5052 65.7686 78.4214C65.7623 78.334 65.7707 78.3204 65.863 78.2701L65.9289 78.2342L65.9912 78.262C66.0776 78.3005 66.116 78.3421 66.1191 78.4001C66.1224 78.4627 66.0759 78.5268 66.0038 78.5591C65.9406 78.5874 65.9368 78.5876 65.8781 78.5678ZM56.7197 76.6077C56.6574 76.6057 56.5719 76.663 56.5228 76.692C56.406 76.7194 56.27 76.7912 56.1572 76.7145C56.0461 76.6802 55.8984 76.7073 55.8816 76.8439C55.9101 76.9612 56.0745 77.0283 56.1741 76.9508C56.248 76.854 56.4497 76.7973 56.4722 76.962C56.39 77.0866 56.3993 77.2516 56.3316 77.3839C56.3206 77.4663 56.2863 77.5445 56.2416 77.6145C56.1584 77.6229 56.0699 77.6131 55.9997 77.6651C55.887 77.6713 55.7721 77.7273 55.7072 77.8226C55.6346 77.9267 55.5653 78.0324 55.5441 78.1601C55.5634 78.2906 55.7128 78.328 55.8253 78.3345C55.9453 78.3676 56.0655 78.4109 56.1853 78.447C56.3807 78.4908 56.5637 78.5614 56.7591 78.6045C57.0443 78.6905 57.3437 78.73 57.631 78.807C57.6611 78.817 57.6893 78.8257 57.721 78.8295C57.8402 78.8543 57.9024 78.7246 57.9122 78.627C57.9713 78.4183 58.0165 78.206 58.0753 77.997C58.1158 77.9132 58.1647 77.7239 58.0022 77.7664C57.9095 77.822 57.8309 77.9056 57.7153 77.9126C57.558 77.9218 57.6478 78.0828 57.7097 78.1489C57.7234 78.2546 57.6899 78.3809 57.6197 78.4639C57.5261 78.5232 57.4088 78.4538 57.3103 78.4302C57.2069 78.4319 57.0001 78.3791 57.0966 78.2389C57.1308 78.135 57.1339 78.0214 57.1753 77.9183C57.2282 77.8077 57.2357 77.6869 57.2597 77.5696C57.1946 77.4296 57.0835 77.6156 56.9954 77.6314C56.9345 77.6736 56.7064 77.6916 56.8266 77.8001C56.9301 77.8788 56.8507 78.0156 56.8322 78.1152C56.8256 78.2538 56.6814 78.2869 56.5678 78.2558C56.4548 78.2503 56.2976 78.1662 56.3934 78.042C56.4153 77.9385 56.4514 77.8368 56.4722 77.7326L56.596 77.3614C56.6155 77.2498 56.6555 77.144 56.7084 77.0464C56.7116 76.923 56.7944 76.8169 56.7928 76.692C56.7844 76.631 56.7571 76.6088 56.7197 76.6077ZM56.0728 77.9126C56.0875 77.9101 56.098 77.9123 56.1122 77.9183C56.1571 77.9374 56.1585 77.9739 56.1122 78.0139C56.092 78.0313 56.069 78.0482 56.0616 78.0476C55.9774 78.0404 55.9526 78.0279 55.9491 77.997C55.946 77.9698 55.9546 77.962 56.011 77.9351C56.0389 77.9218 56.0581 77.9152 56.0728 77.9126ZM55.8863 78.8163C55.797 78.7323 55.8114 78.6711 55.9434 78.5727C55.9999 78.5306 56.0342 78.5353 56.0988 78.5943C56.1982 78.685 56.2022 78.7424 56.1144 78.8201C56.071 78.8585 56.0521 78.8664 56.0016 78.8669C55.9487 78.8675 55.9338 78.8609 55.8863 78.8163ZM56.4353 78.9819C56.4148 78.9769 56.3954 78.9679 56.3785 78.9552C56.3616 78.9425 56.3475 78.9265 56.337 78.9082C56.3265 78.8898 56.3199 78.8696 56.3175 78.8486C56.3152 78.8276 56.3171 78.8063 56.3233 78.7861C56.3464 78.7078 56.3598 78.7002 56.4745 78.699C56.6032 78.6977 56.6281 78.7193 56.6294 78.8325C56.6301 78.8963 56.6252 78.9111 56.5934 78.9406C56.5561 78.9753 56.4845 78.994 56.4353 78.9819ZM72.4751 78.9962C72.4342 78.9623 72.426 78.9469 72.4255 78.9036C72.425 78.8297 72.4676 78.7755 72.5598 78.7337C72.6826 78.6781 72.7326 78.6857 72.7788 78.7671C72.8403 78.8754 72.8373 78.9196 72.7637 78.9925C72.723 79.0328 72.7155 79.0351 72.6224 79.036C72.531 79.0366 72.5206 79.0341 72.4751 78.9962ZM57.1643 79.2032C57.0988 79.1858 57.0649 79.1366 57.064 79.0581C57.0633 78.9979 57.0676 78.9884 57.1096 78.9555C57.1369 78.9342 57.1799 78.9159 57.2138 78.9113C57.2618 78.9047 57.2794 78.9089 57.318 78.936C57.4171 79.0057 57.4382 79.0746 57.3808 79.1415C57.3197 79.2127 57.2618 79.2292 57.1643 79.2032ZM61.1099 79.3797C61.0954 79.3615 61.0633 79.3508 61.06 79.328C61.0657 79.2281 61.0705 79.127 61.1023 79.0313C61.1196 78.9372 61.1044 78.8388 61.1373 78.7472C61.1709 78.5803 61.1709 78.4083 61.2097 78.2425C61.2115 78.1571 61.2196 78.0717 61.2443 77.9895C61.2727 77.8596 61.2467 77.7238 61.285 77.5954C61.2809 77.5472 61.3364 77.4185 61.3852 77.4947C61.4559 77.5985 61.5492 77.6828 61.6409 77.7675C61.7197 77.8129 61.6474 77.8799 61.5929 77.9024C61.5182 77.9319 61.5 78.0142 61.5053 78.0864C61.4948 78.1611 61.4649 78.2317 61.4619 78.3078C61.446 78.4198 61.4491 78.5337 61.4346 78.6456C61.4018 78.7552 61.4144 78.8724 61.4034 78.9853C61.4048 79.0571 61.3708 79.1222 61.3755 79.1942C61.3667 79.2672 61.3635 79.3552 61.3022 79.4053C61.243 79.4352 61.1574 79.43 61.1099 79.3797H61.1099ZM66.4559 77.6156C66.3691 77.6813 66.2915 77.7588 66.214 77.8351C66.1073 77.9158 66.3016 77.9628 66.3265 78.0319C66.3548 78.1374 66.3531 78.2498 66.3603 78.3582C66.3925 78.4574 66.4068 78.5631 66.3996 78.6676C66.3903 78.7796 66.2442 78.756 66.1803 78.8194C66.0917 78.8567 66.0564 78.9437 65.989 79.005C65.9447 79.0919 65.9328 79.1988 65.9271 79.2975C65.9335 79.3781 65.8727 79.4684 65.9271 79.5394C65.9342 79.5495 65.9425 79.5632 65.9496 79.5732C65.9678 79.5993 66.0113 79.5784 66.0396 79.5844C66.1303 79.5794 66.2247 79.5929 66.3096 79.5563C66.5274 79.5186 66.7472 79.5156 66.9678 79.5056C67.1026 79.51 67.2324 79.463 67.3671 79.4663C67.4727 79.4897 67.5203 79.3752 67.519 79.2919C67.4592 79.1743 67.5109 79.0348 67.4628 78.915C67.4205 78.794 67.4371 78.658 67.4177 78.5325C67.4151 78.4338 67.2898 78.3972 67.2265 78.4707C67.165 78.5328 67.0658 78.5452 67.0184 78.6225C66.965 78.731 67.1313 78.7311 67.159 78.8138C67.1907 78.8974 67.1803 78.9903 67.1871 79.0781C67.2077 79.1848 67.0919 79.1909 67.0184 79.2019C66.9218 79.2381 66.7862 79.2623 66.7315 79.1457C66.6971 79.0594 66.7018 78.967 66.6921 78.8757C66.6897 78.7151 66.6511 78.5573 66.6415 78.3976C66.6323 78.2001 66.5982 78.004 66.5853 77.8069C66.5834 77.725 66.5725 77.5913 66.4559 77.6157V77.6156ZM66.3434 79.1006L66.3996 79.1063L66.4052 79.1738L66.4109 79.2412L66.3377 79.2638C66.3137 79.2709 66.2893 79.2766 66.2646 79.2806C66.2531 79.2736 66.2418 79.2661 66.2309 79.2581C66.1913 79.2296 66.2015 79.1888 66.2534 79.1344C66.2826 79.1037 66.2964 79.0978 66.3434 79.1006H66.3434ZM60.9497 77.4303C60.8813 77.4545 60.7945 77.555 60.7247 77.554C60.5663 77.5652 60.5884 77.7195 60.7022 77.7734C60.7172 77.8202 60.7031 77.8792 60.7078 77.9309C60.7299 78.073 60.6403 78.1874 60.6572 78.3303C60.6492 78.4869 60.602 78.6394 60.5953 78.7971C60.5508 78.9597 60.5503 79.1269 60.5222 79.2921C60.5034 79.4403 60.3963 79.388 60.3028 79.3484C60.3021 79.2842 60.2979 79.2214 60.2972 79.1572C60.3362 79.0101 60.2178 78.9671 60.1003 78.949C59.9768 78.9607 59.9162 78.8549 59.9428 78.7465C59.9959 78.6833 60.1293 78.7009 60.2128 78.6903C60.3894 78.7269 60.3823 78.4902 60.2916 78.409C60.2295 78.2946 60.0759 78.2454 60.0328 78.1278C60.05 77.9718 59.9465 77.816 59.8191 77.7397C59.6231 77.7259 59.4752 77.895 59.4028 78.0603C59.3213 78.0838 59.2401 78.1083 59.1609 78.139C59.0333 78.171 58.8514 78.3923 59.0259 78.4765C59.1239 78.5035 59.422 78.5715 59.2903 78.7071C59.2161 78.8344 59.0741 78.8366 58.9472 78.8028C58.8169 78.8029 58.6719 78.7394 58.6772 78.589C58.6506 78.454 58.655 78.3086 58.5929 78.184C58.5661 78.033 58.3947 78.0683 58.3847 78.2065C58.2527 78.3027 58.2703 78.4581 58.3622 78.5721C58.4196 78.7033 58.3628 78.8561 58.306 78.9771C58.2716 79.1346 58.0979 79.14 57.9741 79.1909C57.9133 79.2145 57.681 79.1769 57.766 79.309C57.9015 79.3568 58.0634 79.3999 58.2047 79.3652C58.3528 79.3469 58.4815 79.2456 58.5535 79.1178C58.6529 79.0169 58.8238 79.0697 58.9528 79.0671C59.0919 79.0668 59.2341 79.1648 59.3691 79.1009C59.4082 78.9993 59.589 78.8317 59.6447 79.0052C59.6352 79.1606 59.7724 79.2439 59.9147 79.2247C60.0702 79.2158 60.0127 79.3346 60.0104 79.4271C60.0206 79.5953 60.1291 79.6836 60.2691 79.7534C60.3168 79.7662 60.3672 79.7619 60.4153 79.7534C60.55 79.7111 60.695 79.651 60.736 79.5003C60.7906 79.3778 60.7919 79.2391 60.8316 79.1122C60.8635 78.9088 60.9046 78.7054 60.9103 78.4991C60.96 78.3121 60.9457 78.1146 60.9834 77.9253C61.0073 77.7846 61.025 77.6439 61.0397 77.5034C61.0232 77.4283 60.9908 77.4157 60.9497 77.4303ZM59.7291 78.1783C59.7564 78.1817 59.7715 78.2151 59.7741 78.274C59.777 78.3395 59.8112 78.3929 59.8529 78.4034C59.8857 78.4116 59.8829 78.4464 59.8472 78.4709C59.8265 78.4851 59.7895 78.4937 59.7235 78.4934C59.6194 78.4928 59.5549 78.4659 59.4985 78.409L59.4647 78.3752L59.5154 78.3415C59.5508 78.3135 59.5846 78.2834 59.6166 78.2515C59.6679 78.1992 59.7019 78.175 59.7291 78.1783ZM71.6147 76.7606C71.5126 76.7653 71.41 76.7819 71.3166 76.8056C71.1293 76.794 71.0353 76.9905 71.2153 77.0869C71.3236 77.3631 71.4926 77.0299 71.6653 77.0531C71.9241 77.1035 71.9459 77.3829 71.9859 77.5931C72.0005 77.8014 72.0605 78.0038 72.1209 78.2007C72.2941 78.3932 71.9912 78.5139 71.8622 78.3638C71.7522 78.2442 71.5165 78.0975 71.3841 78.2625C71.2214 78.3314 71.2147 78.5488 71.0803 78.6113C70.8627 78.6775 70.8353 78.4099 70.7203 78.2963C70.6146 78.1479 70.4124 78.1349 70.2478 78.0825C70.1706 77.9261 70.2108 77.6603 70.0509 77.5538C69.9167 77.6085 69.6706 77.8601 69.8766 77.9757C70.0778 78.1486 69.7888 78.2278 69.6966 78.3469C69.5649 78.4935 69.5439 78.6954 69.5222 78.8813C69.2955 79.0065 69.2514 78.7395 69.2241 78.5719C69.2064 78.3718 69.0376 78.4305 68.9203 78.5044C68.7489 78.5739 68.6633 78.7367 68.5434 78.8644C68.529 78.981 68.5502 79.1086 68.5491 79.23C68.588 79.376 68.7655 79.3075 68.8753 79.2975C69.0515 79.2238 69.1236 79.4104 68.9822 79.5169C68.8864 79.6386 68.5826 79.575 68.6109 79.77C68.7088 79.7815 68.8108 79.7778 68.909 79.77C69.1053 79.7164 69.3161 79.5779 69.3365 79.3594C69.3624 79.1689 69.6367 79.2036 69.7865 79.1625C69.9739 79.1085 70.1996 79.0946 70.2422 79.3313C70.3699 79.4654 70.6469 79.6164 70.7878 79.4325C70.9308 79.3452 70.9995 79.1917 70.9903 79.0275C70.9611 78.8863 71.2186 78.8812 71.2828 78.96C71.3766 79.1144 71.6699 79.0689 71.8115 78.9825C71.962 78.8714 71.9947 78.6756 72.2109 78.6731C72.5317 78.5771 72.865 78.5217 73.1784 78.4031C73.4322 78.3478 73.1406 78.1875 73.0772 78.0938C72.8839 77.9982 72.7157 78.3893 72.4977 78.195C72.3294 78.0661 72.3408 77.8212 72.2784 77.6325C72.2357 77.3882 72.2465 77.1064 72.0703 76.9125C71.9492 76.7838 71.7848 76.7528 71.6146 76.7606H71.6147ZM70.3884 78.465C70.4111 78.4645 70.4366 78.4757 70.4784 78.4988C70.5573 78.5423 70.6135 78.6145 70.6134 78.6731C70.6134 78.7114 70.6036 78.714 70.546 78.7407C70.5105 78.757 70.4701 78.7746 70.4559 78.7744C70.4234 78.774 70.3436 78.7102 70.3435 78.6844C70.3433 78.6737 70.333 78.6328 70.3209 78.6001C70.2997 78.5423 70.303 78.5431 70.3322 78.5044C70.3508 78.4796 70.3658 78.4656 70.3884 78.465ZM71.5641 78.5269C71.6311 78.5225 71.6709 78.5434 71.699 78.5944C71.7318 78.6536 71.7095 78.699 71.6259 78.735C71.5893 78.7508 71.5527 78.7637 71.5472 78.7631C71.5417 78.7626 71.5115 78.7447 71.4797 78.7238C71.4311 78.6918 71.424 78.6763 71.4234 78.6394C71.4229 78.5826 71.4863 78.532 71.564 78.5269H71.5641ZM69.9553 78.5437C69.9749 78.5407 69.9928 78.551 70.0172 78.5719C70.0496 78.5997 70.0598 78.6221 70.0678 78.6788C70.0734 78.7182 70.0726 78.7691 70.0678 78.7912C70.059 78.8319 70.0582 78.8301 69.9666 78.8306C69.8513 78.8317 69.8406 78.8192 69.8428 78.7125C69.8442 78.6447 69.8449 78.6264 69.8822 78.5888C69.9111 78.5596 69.9357 78.5468 69.9553 78.5437ZM68.9653 78.8025C69.0012 78.8109 69.0351 78.8381 69.0441 78.8812C69.0559 78.9384 69.0455 78.9644 68.999 78.9882C68.9591 79.0085 68.8669 79.0153 68.8415 78.9994C68.8333 78.9942 68.8164 78.9809 68.8078 78.9656C68.7956 78.9438 68.7978 78.9333 68.8134 78.9206C68.8243 78.9118 68.836 78.8991 68.8359 78.8925C68.8358 78.886 68.848 78.8632 68.864 78.8419C68.8903 78.807 68.9294 78.7941 68.9653 78.8025ZM70.6303 79.0163C70.6623 79.0161 70.6894 79.0272 70.709 79.0444C70.7424 79.0736 70.7413 79.1165 70.7034 79.1457C70.6791 79.1644 70.5465 79.1627 70.5009 79.1457C70.4806 79.1381 70.4729 79.1279 70.4728 79.1063C70.4724 79.0809 70.4795 79.0653 70.5234 79.0444C70.5602 79.0268 70.5983 79.0165 70.6303 79.0163H70.6303ZM67.5395 79.8836C67.5223 79.8724 67.4967 79.8626 67.5224 79.8438C67.5535 79.7893 67.6157 79.7705 67.6708 79.7502C67.7694 79.7075 67.8546 79.635 67.9181 79.5489C67.9271 79.4889 67.9944 79.4564 67.9941 79.3938C67.9946 79.3083 67.9997 79.2207 67.9788 79.1371C67.9558 79.0605 67.8976 79.0017 67.83 78.9618C67.7839 78.9255 67.7088 78.9155 67.6917 78.8512C67.6822 78.7896 67.7373 78.7426 67.7566 78.6876C67.7968 78.6117 67.8306 78.5321 67.8738 78.4581C67.9204 78.4063 67.9923 78.4553 68.0165 78.5053C68.0505 78.5553 68.0807 78.6089 68.0976 78.6668C68.152 78.7266 68.2003 78.7966 68.2198 78.876C68.2466 78.9319 68.2888 78.9844 68.2863 79.0499C68.2863 79.1248 68.3286 79.1916 68.326 79.267C68.3284 79.3679 68.3283 79.4731 68.2914 79.5683C68.2663 79.6212 68.2158 79.6529 68.1823 79.7002C68.1249 79.7534 68.0616 79.8044 67.9879 79.8327C67.9359 79.8493 67.9057 79.9093 67.8405 79.8948C67.7479 79.8964 67.6539 79.909 67.562 79.894C67.5678 79.9038 67.5338 79.8775 67.5395 79.8837V79.8836ZM66.3065 79.9647C66.2628 79.9197 66.2534 79.9007 66.2529 79.8566C66.2523 79.812 66.2609 79.7944 66.3037 79.7511C66.3825 79.6715 66.4211 79.6695 66.5573 79.7385C66.6874 79.8043 66.7315 79.8103 66.7431 79.7636C66.7544 79.7186 66.8293 79.6774 66.9005 79.6771C66.9455 79.6767 66.9709 79.6857 67.007 79.7138C67.0523 79.749 67.0544 79.7545 67.0556 79.8361C67.0563 79.9194 67.0552 79.9226 67.0033 79.9686C66.9534 80.0125 66.9454 80.0152 66.8835 80.009C66.8048 80.0011 66.7576 79.9651 66.7448 79.9031C66.7355 79.8581 66.7197 79.8473 66.7079 79.8779C66.7041 79.8877 66.6847 79.8999 66.6649 79.9049C66.6282 79.9141 66.5661 79.9532 66.5219 79.9949C66.5052 80.0106 66.476 80.018 66.4286 80.0185C66.3645 80.019 66.3556 80.0152 66.3065 79.9647H66.3065ZM62.7389 78.3627C62.6193 78.3639 62.4904 78.4646 62.4745 78.582C62.5019 78.7174 62.6144 78.8501 62.542 78.9926C62.592 79.175 62.405 79.2442 62.2776 79.1389C62.2008 78.9641 62.1618 78.7725 62.047 78.6158C61.9023 78.5748 61.8392 78.806 61.7376 78.8858C61.788 79.0217 61.9349 79.1436 61.9514 79.3133C61.9865 79.478 61.8863 79.6608 61.7433 79.7464C61.6198 79.8643 61.4507 79.8221 61.2989 79.8476C61.1145 79.9554 61.4342 79.9948 61.5183 79.9995C61.7068 80.0187 61.9026 79.9938 62.0414 79.8533C62.1798 79.7872 62.1691 79.5478 62.3339 79.5214C62.6198 79.5086 62.9032 79.5652 63.1889 79.572C63.3418 79.6086 63.5783 79.5538 63.6839 79.6676C63.6842 79.867 63.8532 79.9899 64.0158 80.067C64.1055 80.092 64.2001 79.9807 64.2914 79.9601C64.4651 79.9047 64.4123 79.6898 64.5164 79.6058C64.8134 79.5897 65.1133 79.5931 65.4107 79.5889C65.4674 79.5903 65.4841 79.5097 65.5233 79.4764C65.5167 79.3614 65.5126 79.2473 65.4952 79.1333C65.4378 78.9881 65.5044 78.8012 65.3995 78.6776C65.2501 78.6369 65.123 78.7737 64.972 78.7845C64.8053 78.8588 64.6649 79.0127 64.657 79.2007C64.5583 79.3622 64.4 79.172 64.4545 79.0377C64.4483 78.9791 64.4672 78.9109 64.4489 78.8577C64.3576 78.7482 64.1979 78.7839 64.072 78.7677C63.8887 78.775 63.7097 78.7354 63.5264 78.7396C63.3657 78.7274 63.1984 78.7535 63.0426 78.7114C62.857 78.7061 62.8825 78.5245 62.8514 78.3964C62.8184 78.372 62.7788 78.3622 62.7389 78.3627ZM63.0989 79.0264C63.1606 79.0277 63.2189 79.0357 63.2789 79.0432C63.3565 79.056 63.4391 79.0166 63.5151 79.0432C63.6909 79.0732 63.8668 79.0661 64.0439 79.0826C64.0907 79.0819 64.1241 79.1159 64.1564 79.1445V79.5158C64.151 79.5621 64.1701 79.6234 64.1282 79.6564C64.1148 79.6656 64.0998 79.6757 64.0833 79.6789C64.0346 79.6663 63.983 79.6342 63.9595 79.5889C63.9521 79.5245 63.9627 79.4622 63.9651 79.3976C63.9639 79.381 63.9724 79.355 63.9651 79.3414C63.9269 79.3142 63.8834 79.2966 63.8358 79.2964C63.6829 79.2911 63.533 79.2799 63.3801 79.2739C63.2529 79.2659 63.1222 79.2848 62.9976 79.2514C62.9493 79.2338 62.8865 79.2399 62.857 79.1895C62.8149 79.1405 62.8757 79.0821 62.9189 79.0602C62.9762 79.0341 63.0372 79.0252 63.0989 79.0264L63.0989 79.0264ZM65.1295 79.0714C65.158 79.071 65.1671 79.0804 65.1801 79.1333L65.2026 79.2233C65.2091 79.2445 65.1987 79.2514 65.1689 79.2626C65.0799 79.2962 64.9914 79.2928 64.9608 79.2514C64.9468 79.2326 64.9631 79.1732 64.9889 79.1501C65.041 79.1036 65.0986 79.0715 65.1295 79.0714Z" fill="#C09300"/>
<path d="M66.5405 55.5476C66.6605 55.5548 66.3781 54.9054 66.3781 54.9054C66.6958 55.2301 67.8955 55.3077 67.8955 55.3077C67.1755 54.9898 66.4559 52.5904 66.5405 50.6779C66.6182 48.7584 66.2654 48.0031 65.983 47.7209C65.623 47.3609 64.4656 47.0433 63.7035 47.0009C63.2729 46.9798 63.3435 47.3256 63.3435 47.3256C62.5461 47.1209 61.7487 47.0433 61.3887 47.2833C61.0498 47.5092 60.9792 48.6383 61.2263 48.4407C61.8261 47.9608 62.3484 48.3984 62.7083 48.9206C63.0258 49.3794 63.0047 50.6779 62.5459 52.1951C62.066 53.7901 60.7533 55.3851 60.7533 55.3851C61.4661 55.3851 62.4683 54.75 62.4683 54.75L62.2284 55.7451C62.9835 55.3851 63.5834 54.8276 63.5834 54.8276L64.3032 55.5827C64.5432 55.2652 65.0232 54.8276 65.0232 54.8276C65.0232 54.8276 65.623 55.4628 66.5405 55.5476Z" fill="white" stroke="#C09300" stroke-width="0.219239"/>
<path d="M63.6263 50.954C63.6263 50.954 63.224 53.911 62.4689 54.7509M64.2617 50.8766C64.2617 50.8766 64.1063 53.8687 63.5841 54.8287M64.8251 50.9972C64.8251 50.9972 64.8251 54.2717 65.0227 54.8292M65.5379 51.1592C65.5379 51.1592 65.7002 53.9116 66.3777 54.9066" stroke="#C09300" stroke-width="0.228599"/>
<path d="M62.8991 49.5212C62.8638 49.2602 62.8003 49.0553 62.7085 48.9212C62.3485 48.3991 61.8265 47.9615 61.2265 48.4414C61.2265 48.4414 61.4312 47.8062 61.8688 47.7851C62.2075 47.7639 62.9767 48.0391 63.6544 49.1965C63.6544 49.1965 63.1532 49.0836 63.0334 49.1894C62.8073 49.3871 62.8991 49.5212 62.8991 49.5212ZM61.1639 47.6582C61.2132 47.4958 61.291 47.3477 61.3898 47.2842C61.7498 47.0442 62.5472 47.1218 63.3446 47.3265C63.3446 47.3265 63.274 46.9807 63.7046 47.0019C64.4667 47.0442 65.6241 47.3619 65.9839 47.7217C66.0685 47.8135 66.1675 47.9476 66.2521 48.1521H66.2381C66.0617 47.9052 65.5605 47.9194 65.4405 47.9334C65.2499 47.9547 65.13 47.9475 64.8758 48.011C64.756 48.0393 64.5723 48.0745 64.4735 48.1521C64.3961 48.2157 64.3324 48.4486 64.2125 48.4486C64.0219 48.4486 64.0361 48.3993 63.9866 48.3427C63.9231 48.2652 63.8878 48.1521 63.8243 48.1591C63.6268 48.1946 63.3091 48.0393 62.907 47.7217C62.5049 47.4042 62.3494 47.3265 61.8272 47.3617C61.312 47.404 61.1497 47.6935 61.1497 47.6935L61.1639 47.6582Z" fill="#C09300" stroke="#C09300" stroke-width="0.0637198"/>
<path d="M64.1129 48.124C64.2298 48.124 64.3246 48.0293 64.3246 47.9124C64.3246 47.7955 64.2298 47.7007 64.1129 47.7007C63.996 47.7007 63.9012 47.7955 63.9012 47.9124C63.9012 48.0293 63.996 48.124 64.1129 48.124Z" fill="white"/>
<path d="M64.3211 68.8928C70.1967 64.3737 69.6929 57.7538 69.6929 57.7538C69.5378 57.7849 69.3906 57.8003 69.2355 57.8003C68.0031 57.8003 65.0635 57.0953 64.3777 56.1996C63.6431 57.0103 60.6391 57.8003 59.4144 57.8003C59.2594 57.8003 59.1043 57.7849 58.9571 57.7538C58.9571 57.7538 58.4455 64.3735 64.3211 68.8928H64.3211Z" fill="white" stroke="#C09300" stroke-width="0.207015"/>
<path d="M69.2244 58.2386L69.0718 58.2434C67.9548 58.2434 65.3604 57.6703 64.3603 56.811C63.3128 57.6047 60.6755 58.2434 59.5766 58.2434C59.5251 58.2434 59.4741 58.2371 59.4237 58.2278C59.4211 58.4781 59.4341 58.7376 59.4497 58.9737C59.5078 59.8558 59.6626 60.7411 59.8974 61.593C60.6369 64.2741 62.1503 66.5526 64.3204 68.2809C66.4923 66.5511 68.0075 64.2705 68.7486 61.5874C68.9839 60.7357 69.1391 59.8505 69.1978 58.9684C69.2115 58.7215 69.2253 58.4191 69.2244 58.2386Z" stroke="#C09300" stroke-width="0.16489"/>
<mask id="mask0_258_8355" style="mask-type:luminance" maskUnits="userSpaceOnUse" x="59" y="56" width="11" height="13">
<path d="M69.1727 58.2749L69.022 58.2796C67.9168 58.2796 65.3503 57.7129 64.3609 56.8628C63.3244 57.6483 60.7156 58.2796 59.6279 58.2796C59.577 58.2792 59.5263 58.274 59.4764 58.2641L59.502 59.0018C59.5592 59.8748 59.7127 60.7505 59.9449 61.5931C60.6765 64.2457 62.1741 66.4999 64.3205 68.2101C66.469 66.4985 67.9686 64.2424 68.7016 61.5878C68.9366 60.7412 69.0855 59.873 69.1458 58.9964C69.1606 58.756 69.1694 58.5151 69.1721 58.2742L69.1727 58.2749Z" fill="white"/>
</mask>
<g mask="url(#mask0_258_8355)">
<path d="M59.395 56.7484H62.6816V68.3239H59.395V56.7484Z" fill="#C09300"/>
<path fill-rule="evenodd" clip-rule="evenodd" d="M62.6816 56.7484H65.9683V68.3239H62.6816V56.7484Z" fill="white"/>
<path fill-rule="evenodd" clip-rule="evenodd" d="M65.9683 56.7484H69.2549V68.3239H65.9683V56.7484Z" fill="#C09300"/>
</g>
</g>
<defs>
<clipPath id="clip0_258_8355">
<rect width="128" height="128" fill="white"/>
</clipPath>
</defs>
</svg>
