<svg width="128" height="128" viewBox="0 0 128 128" fill="none" xmlns="http://www.w3.org/2000/svg">
<g clip-path="url(#clip0_260_10026)">
<rect width="128" height="128" fill="#D80027"/>
<rect width="128" height="128" fill="#D80027"/>
<path d="M70.4439 64L96.4944 55.5366L80.3933 77.6953V50.3046L96.4944 72.4633L70.4439 64ZM72.2199 79.4003C68.8832 84.6731 63.9243 88.7196 58.0895 90.9308C52.2546 93.1421 45.8594 93.3986 39.8662 91.6616C33.873 89.9246 28.6061 86.2882 24.8579 81.2995C21.1098 76.3108 19.0833 70.2398 19.0833 64C19.0833 57.7601 21.1098 51.6891 24.8579 46.7004C28.6061 41.7117 33.873 38.0753 39.8662 36.3383C45.8594 34.6013 52.2546 34.8578 58.0895 37.0691C63.9243 39.2804 68.8832 43.3269 72.2199 48.5996C69.104 45.1324 65.0097 42.6919 60.4777 41.6004C55.9457 40.5089 51.1893 40.8178 46.8365 42.4863C42.4838 44.1548 38.7395 47.1043 36.0983 50.9454C33.457 54.7865 32.043 59.3384 32.043 64C32.043 68.6615 33.457 73.2134 36.0983 77.0545C38.7395 80.8956 42.4838 83.8451 46.8365 85.5136C51.1893 87.1821 55.9457 87.491 60.4777 86.3995C65.0097 85.308 69.104 82.8675 72.2199 79.4003Z" fill="white"/>
</g>
<defs>
<clipPath id="clip0_260_10026">
<rect width="128" height="128" fill="white"/>
</clipPath>
</defs>
</svg>
