<svg width="128" height="128" viewBox="0 0 128 128" fill="none" xmlns="http://www.w3.org/2000/svg">
<g clip-path="url(#clip0_259_9218)">
<rect width="128" height="128" fill="#003399"/>
<rect width="128" height="128" fill="#003399"/>
<mask id="mask0_259_9218" style="mask-type:luminance" maskUnits="userSpaceOnUse" x="-16" y="0" width="84" height="64">
<path d="M-16 0H68V64H-16V0Z" fill="white"/>
</mask>
<g mask="url(#mask0_259_9218)">
<path d="M-16 0L68 64L-16 0ZM68 0L-16 64L68 0Z" fill="black"/>
<path fill-rule="evenodd" clip-rule="evenodd" d="M16.6085 31.9997L-17.8783 5.72406L-14.1217 -5.72461L26 24.8443L66.1217 -5.72461L69.8783 5.72406L35.3915 31.9997L69.8783 58.2754L66.1217 69.7241L26 39.1551L-14.1217 69.7241L-17.8783 58.2754L16.6085 31.9997Z" fill="white"/>
</g>
<mask id="mask1_259_9218" style="mask-type:luminance" maskUnits="userSpaceOnUse" x="-16" y="0" width="84" height="64">
<path d="M-16 0V32H68V64L-16 0ZM68 0H26V64H-16L68 0Z" fill="white"/>
</mask>
<g mask="url(#mask1_259_9218)">
<path d="M-16 0L68 64L-16 0ZM68 0L-16 64L68 0Z" fill="black"/>
<path fill-rule="evenodd" clip-rule="evenodd" d="M19.739 31.9998L-17.2522 3.81604L-14.7478 -3.81641L26 27.2295L66.7478 -3.81641L69.2522 3.81604L32.261 31.9998L69.2522 60.1836L66.7478 67.816L26 36.7701L-14.7478 67.816L-17.2522 60.1836L19.739 31.9998Z" fill="#E4002B"/>
</g>
<path d="M26 0V64V0ZM-16 32H68H-16Z" fill="black"/>
<path fill-rule="evenodd" clip-rule="evenodd" d="M19 21.3333V0H33V21.3333H68V42.6667H33V64H19V42.6667H-16V21.3333H19Z" fill="white"/>
<path d="M26 0V64V0ZM-16 32H68H-16Z" fill="black"/>
<path fill-rule="evenodd" clip-rule="evenodd" d="M21.8 25.6V0H30.2V25.6H68V38.4H30.2V64H21.8V38.4H-16V25.6H21.8Z" fill="#E4002B"/>
<path d="M98.5259 23.9536V27.4494L105.517 23.9536H98.5259Z" fill="white"/>
<path d="M99.8612 28.0633L97.8064 25.2351L105.517 23.9537L99.8612 28.0633Z" fill="white"/>
<path d="M98.5259 23.9536V27.4494L91.5343 23.9536H98.5259Z" fill="white"/>
<path d="M97.1906 28.0633L99.2454 25.2351L91.5343 23.9537L97.1906 28.0633Z" fill="white"/>
<path d="M100.686 25.5233L97.3616 26.6036L102.847 32.1727L100.686 25.5233Z" fill="white"/>
<path d="M97.1906 28.0631L99.2454 25.235L102.847 32.1727L97.1906 28.0631Z" fill="white"/>
<path d="M96.3655 25.5234L99.6902 26.6037L98.526 18.874L96.3655 25.5234Z" fill="white"/>
<path d="M100.687 25.5234L97.3618 26.6036L98.526 18.874L100.687 25.5234Z" fill="white"/>
<path d="M96.3652 25.5233L99.6899 26.6036L94.2047 32.1727L96.3652 25.5233Z" fill="white"/>
<path d="M99.8612 28.0631L97.8064 25.235L94.2049 32.1727L99.8612 28.0631Z" fill="white"/>
<path d="M98.5261 24.7242V27.0342L103.146 24.7242H98.5261Z" fill="#C8102E"/>
<path d="M99.4086 27.4399L98.0508 25.571L103.146 24.7243L99.4086 27.4399Z" fill="#C8102E"/>
<path d="M98.5261 24.7242V27.0342L93.9061 24.7242H98.5261Z" fill="#C8102E"/>
<path d="M97.6437 27.4399L99.0015 25.571L93.906 24.7243L97.6437 27.4399Z" fill="#C8102E"/>
<path d="M99.9536 25.7615L97.7567 26.4753L101.381 30.1554L99.9536 25.7615Z" fill="#C8102E"/>
<path d="M97.6434 27.4398L99.0012 25.5709L101.381 30.1553L97.6434 27.4398Z" fill="#C8102E"/>
<path d="M97.0984 25.7616L99.2953 26.4754L98.526 21.3677L97.0984 25.7616Z" fill="#C8102E"/>
<path d="M99.9538 25.7615L97.7568 26.4753L98.5261 21.3676L99.9538 25.7615Z" fill="#C8102E"/>
<path d="M97.0981 25.7615L99.2951 26.4753L95.6705 30.1554L97.0981 25.7615Z" fill="#C8102E"/>
<path d="M99.4083 27.4398L98.0505 25.5709L95.6707 30.1553L99.4083 27.4398Z" fill="#C8102E"/>
<path d="M112.824 51.5117L112.824 54.6225L119.046 51.5117L112.824 51.5117Z" fill="white"/>
<path d="M114.012 55.1687L112.184 52.652L119.046 51.5117L114.012 55.1687Z" fill="white"/>
<path d="M112.824 51.5116L112.824 54.6224L106.603 51.5116L112.824 51.5116Z" fill="white"/>
<path d="M111.636 55.1687L113.464 52.652L106.603 51.5117L111.636 55.1687Z" fill="white"/>
<path d="M114.747 52.9087L111.788 53.87L116.669 58.8258L114.747 52.9087Z" fill="white"/>
<path d="M111.636 55.1688L113.464 52.6521L116.669 58.8258L111.636 55.1688Z" fill="white"/>
<path d="M110.901 52.9086L113.86 53.8699L112.824 46.9915L110.901 52.9086Z" fill="white"/>
<path d="M114.747 52.9085L111.788 53.8698L112.824 46.9914L114.747 52.9085Z" fill="white"/>
<path d="M110.902 52.9084L113.86 53.8697L108.979 58.8255L110.902 52.9084Z" fill="white"/>
<path d="M114.013 55.1685L112.184 52.6519L108.979 58.8255L114.013 55.1685Z" fill="white"/>
<path d="M112.824 52.2823L112.824 54.2073L116.674 52.2823L112.824 52.2823Z" fill="#C8102E"/>
<path d="M113.559 54.5453L112.428 52.9879L116.674 52.2823L113.559 54.5453Z" fill="#C8102E"/>
<path d="M112.824 52.2822L112.824 54.2072L108.974 52.2822L112.824 52.2822Z" fill="#C8102E"/>
<path d="M112.089 54.5453L113.22 52.9879L108.974 52.2823L112.089 54.5453Z" fill="#C8102E"/>
<path d="M114.014 53.1469L112.183 53.7417L115.203 56.8084L114.014 53.1469Z" fill="#C8102E"/>
<path d="M112.089 54.5455L113.22 52.9882L115.203 56.8085L112.089 54.5455Z" fill="#C8102E"/>
<path d="M111.634 53.1467L113.465 53.7416L112.824 49.4852L111.634 53.1467Z" fill="#C8102E"/>
<path d="M114.014 53.1467L112.183 53.7416L112.824 49.4852L114.014 53.1467Z" fill="#C8102E"/>
<path d="M111.635 53.1467L113.465 53.7416L110.445 56.8083L111.635 53.1467Z" fill="#C8102E"/>
<path d="M113.559 54.5454L112.428 52.988L110.445 56.8084L113.559 54.5454Z" fill="#C8102E"/>
<path d="M82.1733 56.834L82.1733 60.3298L89.1649 56.834L82.1733 56.834Z" fill="white"/>
<path d="M83.5086 60.9436L81.4539 58.1155L89.1649 56.8341L83.5086 60.9436Z" fill="white"/>
<path d="M82.1736 56.8341L82.1736 60.3299L75.182 56.8341L82.1736 56.8341Z" fill="white"/>
<path d="M80.8383 60.9438L82.8931 58.1156L75.182 56.8342L80.8383 60.9438Z" fill="white"/>
<path d="M84.3342 58.4038L81.0095 59.4841L86.4947 65.0532L84.3342 58.4038Z" fill="white"/>
<path d="M80.8383 60.9436L82.8931 58.1155L86.4946 65.0532L80.8383 60.9436Z" fill="white"/>
<path d="M80.0132 58.4039L83.3379 59.4842L82.1737 51.7545L80.0132 58.4039Z" fill="white"/>
<path d="M84.3342 58.4039L81.0095 59.4841L82.1737 51.7545L84.3342 58.4039Z" fill="white"/>
<path d="M80.0127 58.4038L83.3374 59.4841L77.8522 65.0532L80.0127 58.4038Z" fill="white"/>
<path d="M83.5086 60.9436L81.4539 58.1155L77.8523 65.0532L83.5086 60.9436Z" fill="white"/>
<path d="M82.1736 57.6046L82.1736 59.9146L86.7936 57.6046L82.1736 57.6046Z" fill="#C8102E"/>
<path d="M83.056 60.3202L81.6982 58.4514L86.7937 57.6047L83.056 60.3202Z" fill="#C8102E"/>
<path d="M82.1738 57.6046L82.1738 59.9146L77.5539 57.6046L82.1738 57.6046Z" fill="#C8102E"/>
<path d="M81.2914 60.3202L82.6492 58.4514L77.5538 57.6047L81.2914 60.3202Z" fill="#C8102E"/>
<path d="M83.6013 58.6418L81.4044 59.3557L85.029 63.0357L83.6013 58.6418Z" fill="#C8102E"/>
<path d="M81.2911 60.3201L82.6489 58.4513L85.0288 63.0357L81.2911 60.3201Z" fill="#C8102E"/>
<path d="M80.7461 58.642L82.943 59.3558L82.1737 54.2481L80.7461 58.642Z" fill="#C8102E"/>
<path d="M83.6015 58.6419L81.4045 59.3557L82.1738 54.248L83.6015 58.6419Z" fill="#C8102E"/>
<path d="M80.7458 58.6418L82.9428 59.3557L79.3182 63.0357L80.7458 58.6418Z" fill="#C8102E"/>
<path d="M83.056 60.3201L81.6982 58.4513L79.3184 63.0357L83.056 60.3201Z" fill="#C8102E"/>
<path d="M99.2981 97.3434V101.224L107.06 97.3434H99.2981Z" fill="white"/>
<path d="M100.78 101.906L98.4993 98.7659L107.06 97.3433L100.78 101.906Z" fill="white"/>
<path d="M99.2979 97.3434V101.224L91.5363 97.3434H99.2979Z" fill="white"/>
<path d="M97.8156 101.906L100.097 98.7659L91.5364 97.3433L97.8156 101.906Z" fill="white"/>
<path d="M101.697 99.0859L98.0057 100.285L104.095 106.468L101.697 99.0859Z" fill="white"/>
<path d="M97.8161 101.906L100.097 98.7659L104.095 106.468L97.8161 101.906Z" fill="white"/>
<path d="M96.8994 99.0859L100.59 100.285L99.2979 91.7042L96.8994 99.0859Z" fill="white"/>
<path d="M101.696 99.0859L98.0056 100.285L99.298 91.7042L101.696 99.0859Z" fill="white"/>
<path d="M96.8994 99.0859L100.59 100.285L94.501 106.468L96.8994 99.0859Z" fill="white"/>
<path d="M100.78 101.906L98.4993 98.7659L94.5011 106.468L100.78 101.906Z" fill="white"/>
<path d="M99.2981 98.1139V100.809L104.688 98.1139H99.2981Z" fill="#C8102E"/>
<path d="M100.327 101.282L98.7434 99.1018L104.688 98.1139L100.327 101.282Z" fill="#C8102E"/>
<path d="M99.2979 98.1139V100.809L93.9079 98.1139H99.2979Z" fill="#C8102E"/>
<path d="M98.2687 101.282L99.8528 99.1018L93.9081 98.1139L98.2687 101.282Z" fill="#C8102E"/>
<path d="M100.964 99.324L98.4008 100.157L102.629 104.45L100.964 99.324Z" fill="#C8102E"/>
<path d="M98.2687 101.282L99.8528 99.1017L102.629 104.45L98.2687 101.282Z" fill="#C8102E"/>
<path d="M97.6323 99.324L100.195 100.157L99.2979 94.1978L97.6323 99.324Z" fill="#C8102E"/>
<path d="M100.964 99.3239L98.4006 100.157L99.2981 94.1977L100.964 99.3239Z" fill="#C8102E"/>
<path d="M97.6323 99.324L100.195 100.157L95.9667 104.45L97.6323 99.324Z" fill="#C8102E"/>
<path d="M100.327 101.282L98.7434 99.1017L95.9669 104.45L100.327 101.282Z" fill="#C8102E"/>
</g>
<defs>
<clipPath id="clip0_259_9218">
<rect width="128" height="128" fill="white"/>
</clipPath>
</defs>
</svg>
