<svg width="128" height="128" viewBox="0 0 128 128" fill="none" xmlns="http://www.w3.org/2000/svg">
<g clip-path="url(#clip0_258_8438)">
<rect width="128" height="128" fill="#D80027"/>
<rect width="128" height="128" fill="white"/>
<rect y="86" width="128" height="42" fill="#006233"/>
<rect width="128" height="42" fill="#FF8E1E"/>
<path d="M63.8032 82.7786C74.0205 82.7786 82.3032 74.4958 82.3032 64.2786C82.3032 54.0613 74.0205 45.7786 63.8032 45.7786C53.586 45.7786 45.3032 54.0613 45.3032 64.2786C45.3032 74.4958 53.586 82.7786 63.8032 82.7786Z" fill="#2C2C6F"/>
<path d="M63.8032 80.2786C72.6398 80.2786 79.8032 73.1151 79.8032 64.2786C79.8032 55.442 72.6398 48.2786 63.8032 48.2786C54.9667 48.2786 47.8032 55.442 47.8032 64.2786C47.8032 73.1151 54.9667 80.2786 63.8032 80.2786Z" fill="white"/>
<path d="M63.8033 67.4786C65.5706 67.4786 67.0033 66.0459 67.0033 64.2786C67.0033 62.5112 65.5706 61.0786 63.8033 61.0786C62.036 61.0786 60.6033 62.5112 60.6033 64.2786C60.6033 66.0459 62.036 67.4786 63.8033 67.4786Z" fill="#2C2C6F"/>
<path d="M63.8032 48.2786L64.4032 57.9067L63.8032 62.6739L63.2032 57.9067L63.8032 48.2786Z" fill="#2C2C6F"/>
<path d="M65.8003 49.1095C66.1836 49.1599 66.5353 48.8901 66.5857 48.5068C66.6362 48.1235 66.3664 47.7719 65.9831 47.7214C65.5998 47.671 65.2482 47.9408 65.1977 48.3241C65.1472 48.7074 65.417 49.059 65.8003 49.1095Z" fill="#2C2C6F"/>
<path d="M63.8032 80.2786L63.2032 70.6504L63.8032 65.8833L64.4032 70.6504L63.8032 80.2786Z" fill="#2C2C6F"/>
<path d="M61.8061 79.4477C61.4228 79.3972 61.0712 79.667 61.0207 80.0503C60.9703 80.4336 61.2401 80.7852 61.6234 80.8357C62.0067 80.8862 62.3583 80.6163 62.4088 80.2331C62.4592 79.8498 62.1894 79.4981 61.8061 79.4477Z" fill="#2C2C6F"/>
<path d="M67.9443 48.8237L66.0319 58.2791L64.2185 62.7285L64.8728 57.9686L67.9443 48.8237Z" fill="#2C2C6F"/>
<path d="M69.6582 50.1432C70.0154 50.2912 70.4248 50.1216 70.5728 49.7644C70.7207 49.4072 70.5511 48.9977 70.194 48.8498C69.8368 48.7018 69.4273 48.8715 69.2794 49.2286C69.1314 49.5858 69.301 49.9953 69.6582 50.1432Z" fill="#2C2C6F"/>
<path d="M59.6621 79.7334L61.5745 70.278L63.3879 65.8286L62.7337 70.5886L59.6621 79.7334Z" fill="#2C2C6F"/>
<path d="M57.9482 78.4139C57.5911 78.266 57.1816 78.4356 57.0337 78.7927C56.8857 79.1499 57.0553 79.5594 57.4125 79.7073C57.7697 79.8553 58.1791 79.6857 58.3271 79.3285C58.475 78.9713 58.3054 78.5619 57.9482 78.4139Z" fill="#2C2C6F"/>
<path d="M71.8032 50.4222L67.5087 59.0604L64.6055 62.8889L66.4695 58.4604L71.8032 50.4222Z" fill="#2C2C6F"/>
<path d="M73.1171 52.1403C73.4239 52.3756 73.8633 52.3178 74.0986 52.0111C74.334 51.7044 74.2761 51.2649 73.9694 51.0296C73.6627 50.7942 73.2233 50.8521 72.9879 51.1588C72.7526 51.4655 72.8104 51.9049 73.1171 52.1403Z" fill="#2C2C6F"/>
<path d="M55.8031 78.1349L60.0976 69.4967L63.0008 65.6682L61.1368 70.0967L55.8031 78.1349Z" fill="#2C2C6F"/>
<path d="M54.4892 76.4168C54.1825 76.1815 53.743 76.2394 53.5077 76.5461C53.2724 76.8528 53.3302 77.2922 53.6369 77.5275C53.9436 77.7629 54.383 77.705 54.6184 77.3983C54.8537 77.0916 54.7959 76.6522 54.4892 76.4168Z" fill="#2C2C6F"/>
<path d="M75.1169 52.9649L68.733 60.1973L64.9379 63.1439L67.8845 59.3488L75.1169 52.9649Z" fill="#2C2C6F"/>
<path d="M75.9415 54.9646C76.1769 55.2713 76.6163 55.3291 76.923 55.0938C77.2297 54.8584 77.2876 54.419 77.0522 54.1123C76.8169 53.8056 76.3775 53.7477 76.0708 53.9831C75.764 54.2184 75.7062 54.6578 75.9415 54.9646Z" fill="#2C2C6F"/>
<path d="M52.4897 75.5923L58.8736 68.3599L62.6687 65.4133L59.7221 69.2084L52.4897 75.5923Z" fill="#2C2C6F"/>
<path d="M51.665 73.5926C51.4297 73.2859 50.9903 73.2281 50.6836 73.4634C50.3768 73.6988 50.319 74.1382 50.5543 74.4449C50.7897 74.7516 51.2291 74.8095 51.5358 74.5741C51.8425 74.3388 51.9004 73.8993 51.665 73.5926Z" fill="#2C2C6F"/>
<path d="M77.6595 56.2785L69.6212 61.6122L65.1928 63.4762L69.0212 60.573L77.6595 56.2785Z" fill="#2C2C6F"/>
<path d="M77.9384 58.4235C78.0864 58.7807 78.4959 58.9503 78.853 58.8023C79.2102 58.6544 79.3798 58.2449 79.2319 57.8877C79.0839 57.5306 78.6744 57.361 78.3173 57.5089C77.9601 57.6569 77.7905 58.0663 77.9384 58.4235Z" fill="#2C2C6F"/>
<path d="M49.9468 72.2786L57.9851 66.9449L62.4135 65.081L58.5851 67.9841L49.9468 72.2786Z" fill="#2C2C6F"/>
<path d="M49.6679 70.1336C49.5199 69.7765 49.1105 69.6068 48.7533 69.7548C48.3961 69.9027 48.2265 70.3122 48.3745 70.6694C48.5224 71.0266 48.9319 71.1962 49.2891 71.0482C49.6462 70.9003 49.8158 70.4908 49.6679 70.1336Z" fill="#2C2C6F"/>
<path d="M79.2581 60.1375L70.1133 63.209L65.3533 63.8633L69.8027 62.0499L79.2581 60.1375Z" fill="#2C2C6F"/>
<path d="M78.9723 62.2815C79.0227 62.6648 79.3744 62.9346 79.7576 62.8842C80.1409 62.8337 80.4108 62.4821 80.3603 62.0988C80.3098 61.7155 79.9582 61.4457 79.5749 61.4962C79.1916 61.5466 78.9218 61.8982 78.9723 62.2815Z" fill="#2C2C6F"/>
<path d="M48.3484 68.4197L57.4932 65.3481L62.2532 64.6939L57.8038 66.5073L48.3484 68.4197Z" fill="#2C2C6F"/>
<path d="M48.6342 66.2756C48.5837 65.8923 48.2321 65.6225 47.8488 65.673C47.4655 65.7234 47.1957 66.075 47.2462 66.4583C47.2966 66.8416 47.6482 67.1114 48.0315 67.061C48.4148 67.0105 48.6846 66.6589 48.6342 66.2756Z" fill="#2C2C6F"/>
<path d="M79.8031 64.2785L70.1749 64.8785L65.4078 64.2785L70.1749 63.6785L79.8031 64.2785Z" fill="#2C2C6F"/>
<path d="M78.9723 66.2756C78.9218 66.6588 79.1916 67.0105 79.5749 67.0609C79.9582 67.1114 80.3098 66.8416 80.3603 66.4583C80.4108 66.075 80.1409 65.7234 79.7576 65.6729C79.3744 65.6225 79.0227 65.8923 78.9723 66.2756Z" fill="#2C2C6F"/>
<path d="M47.8031 64.2785L57.4313 63.6785L62.1984 64.2785L57.4313 64.8785L47.8031 64.2785Z" fill="#2C2C6F"/>
<path d="M48.6341 62.2815C48.6845 61.8982 48.4147 61.5466 48.0314 61.4961C47.6481 61.4457 47.2965 61.7155 47.246 62.0988C47.1956 62.4821 47.4654 62.8337 47.8487 62.8842C48.232 62.9346 48.5836 62.6648 48.6341 62.2815Z" fill="#2C2C6F"/>
<path d="M79.258 68.4197L69.8026 66.5073L65.3532 64.6939L70.1132 65.3482L79.258 68.4197Z" fill="#2C2C6F"/>
<path d="M77.9386 70.1337C77.7906 70.4908 77.9602 70.9003 78.3174 71.0483C78.6746 71.1962 79.0841 71.0266 79.232 70.6694C79.3799 70.3122 79.2103 69.9028 78.8532 69.7548C78.496 69.6069 78.0865 69.7765 77.9386 70.1337Z" fill="#2C2C6F"/>
<path d="M48.3483 60.1375L57.8037 62.0499L62.2531 63.8633L57.4931 63.209L48.3483 60.1375Z" fill="#2C2C6F"/>
<path d="M49.6678 58.4235C49.8157 58.0664 49.6461 57.6569 49.2889 57.5089C48.9317 57.361 48.5223 57.5306 48.3743 57.8878C48.2264 58.2449 48.396 58.6544 48.7532 58.8024C49.1103 58.9503 49.5198 58.7807 49.6678 58.4235Z" fill="#2C2C6F"/>
<path d="M77.6597 72.2785L69.0215 67.9841L65.193 65.0809L69.6215 66.9448L77.6597 72.2785Z" fill="#2C2C6F"/>
<path d="M75.9417 73.5926C75.7063 73.8993 75.7642 74.3387 76.0709 74.5741C76.3776 74.8094 76.817 74.7516 77.0524 74.4449C77.2877 74.1382 77.2299 73.6987 76.9232 73.4634C76.6165 73.228 76.177 73.2859 75.9417 73.5926Z" fill="#2C2C6F"/>
<path d="M49.9469 56.2785L58.5851 60.573L62.4135 63.4762L57.9851 61.6122L49.9469 56.2785Z" fill="#2C2C6F"/>
<path d="M51.6649 54.9645C51.9002 54.6578 51.8424 54.2184 51.5357 53.983C51.229 53.7477 50.7895 53.8055 50.5542 54.1123C50.3188 54.419 50.3767 54.8584 50.6834 55.0937C50.9901 55.3291 51.4295 55.2712 51.6649 54.9645Z" fill="#2C2C6F"/>
<path d="M75.117 75.5923L67.8846 69.2084L64.938 65.4133L68.7331 68.3599L75.117 75.5923Z" fill="#2C2C6F"/>
<path d="M73.1174 76.4169C72.8107 76.6522 72.7528 77.0916 72.9882 77.3984C73.2235 77.7051 73.663 77.7629 73.9697 77.5276C74.2764 77.2922 74.3342 76.8528 74.0989 76.5461C73.8635 76.2394 73.4241 76.1815 73.1174 76.4169Z" fill="#2C2C6F"/>
<path d="M52.4897 52.9648L59.7221 59.3487L62.6687 63.1438L58.8736 60.1973L52.4897 52.9648Z" fill="#2C2C6F"/>
<path d="M54.4893 52.1403C54.796 51.9049 54.8538 51.4655 54.6185 51.1588C54.3831 50.8521 53.9437 50.7942 53.637 51.0296C53.3303 51.2649 53.2725 51.7043 53.5078 52.011C53.7431 52.3177 54.1826 52.3756 54.4893 52.1403Z" fill="#2C2C6F"/>
<path d="M71.8034 78.1349L66.4697 70.0967L64.6057 65.6682L67.5089 69.4967L71.8034 78.1349Z" fill="#2C2C6F"/>
<path d="M69.6585 78.4139C69.3013 78.5618 69.1317 78.9713 69.2796 79.3285C69.4276 79.6857 69.8371 79.8553 70.1942 79.7073C70.5514 79.5594 70.721 79.1499 70.5731 78.7927C70.4251 78.4356 70.0156 78.266 69.6585 78.4139Z" fill="#2C2C6F"/>
<path d="M55.8033 50.4222L61.137 58.4604L63.001 62.8889L60.0978 59.0604L55.8033 50.4222Z" fill="#2C2C6F"/>
<path d="M57.9482 50.1432C58.3054 49.9952 58.475 49.5857 58.3271 49.2286C58.1791 48.8714 57.7696 48.7018 57.4125 48.8497C57.0553 48.9977 56.8857 49.4072 57.0336 49.7643C57.1816 50.1215 57.591 50.2911 57.9482 50.1432Z" fill="#2C2C6F"/>
<path d="M67.9445 79.7334L64.873 70.5885L64.2187 65.8286L66.0321 70.278L67.9445 79.7334Z" fill="#2C2C6F"/>
<path d="M65.8005 79.4477C65.4172 79.4981 65.1474 79.8498 65.1979 80.233C65.2483 80.6163 65.5999 80.8862 65.9832 80.8357C66.3665 80.7852 66.6363 80.4336 66.5859 80.0503C66.5354 79.667 66.1838 79.3972 65.8005 79.4477Z" fill="#2C2C6F"/>
<path d="M59.6622 48.8237L62.7337 57.9685L63.388 62.7285L61.5746 58.2791L59.6622 48.8237Z" fill="#2C2C6F"/>
<path d="M61.8062 49.1094C62.1895 49.0589 62.4593 48.7073 62.4088 48.324C62.3584 47.9407 62.0067 47.6709 61.6235 47.7214C61.2402 47.7718 60.9704 48.1235 61.0208 48.5068C61.0713 48.89 61.4229 49.1599 61.8062 49.1094Z" fill="#2C2C6F"/>
</g>
<defs>
<clipPath id="clip0_258_8438">
<rect width="128" height="128" fill="white"/>
</clipPath>
</defs>
</svg>
