<svg width="128" height="128" viewBox="0 0 128 128" fill="none" xmlns="http://www.w3.org/2000/svg">
<g clip-path="url(#clip0_260_10551)">
<rect width="128" height="128" fill="#D80027"/>
<rect width="128" height="128" fill="#D80027"/>
<rect width="70" height="68" fill="#003399"/>
<path d="M41.5 16L30.25 57.9856L60.9856 27.25L19 38.5L60.9856 49.75L30.25 19.0144L41.5 61L52.75 19.0144L22.0144 49.75L64 38.5L22.0144 27.25L52.75 57.9856L41.5 16Z" fill="white"/>
<path d="M41.5 50.5C48.1274 50.5 53.5 45.1274 53.5 38.5C53.5 31.8726 48.1274 26.5 41.5 26.5C34.8726 26.5 29.5 31.8726 29.5 38.5C29.5 45.1274 34.8726 50.5 41.5 50.5Z" fill="white"/>
<path fill-rule="evenodd" clip-rule="evenodd" d="M41.5 27.25C35.2868 27.25 30.25 32.2868 30.25 38.5C30.25 44.7132 35.2868 49.75 41.5 49.75C47.7132 49.75 52.75 44.7132 52.75 38.5C52.75 32.2868 47.7132 27.25 41.5 27.25ZM28.75 38.5C28.75 31.4584 34.4584 25.75 41.5 25.75C48.5416 25.75 54.25 31.4584 54.25 38.5C54.25 45.5416 48.5416 51.25 41.5 51.25C34.4584 51.25 28.75 45.5416 28.75 38.5Z" fill="#003399"/>
</g>
<defs>
<clipPath id="clip0_260_10551">
<rect width="128" height="128" fill="white"/>
</clipPath>
</defs>
</svg>
