<svg width="128" height="128" viewBox="0 0 128 128" fill="none" xmlns="http://www.w3.org/2000/svg">
<g clip-path="url(#clip0_257_7391)">
<rect width="128" height="128" fill="#D80027"/>
<rect width="128" height="128" fill="#009538"/>
<path d="M2 64L64 104L126 64L64 24L2 64Z" fill="#FEDF00"/>
<path d="M64.5 90C78.5833 90 90 78.5833 90 64.5C90 50.4168 78.5833 39 64.5 39C50.4167 39 39 50.4168 39 64.5C39 78.5833 50.4167 90 64.5 90Z" fill="#002776"/>
<mask id="mask0_257_7391" style="mask-type:luminance" maskUnits="userSpaceOnUse" x="39" y="39" width="51" height="51">
<path d="M64.5 90C78.5833 90 90 78.5833 90 64.5C90 50.4168 78.5833 39 64.5 39C50.4167 39 39 50.4168 39 64.5C39 78.5833 50.4167 90 64.5 90Z" fill="white"/>
</mask>
<g mask="url(#mask0_257_7391)">
<path d="M-12 115.5C-12 99.0756 -5.4754 83.3238 6.13846 71.71C17.7523 60.0961 33.5041 53.5715 49.9286 53.5715C66.353 53.5715 82.1048 60.0961 93.7187 71.71C105.333 83.3238 111.857 99.0756 111.857 115.5H108.214C108.214 100.042 102.073 85.2165 91.1428 74.2858C80.2121 63.3552 65.3869 57.2144 49.9286 57.2144C34.4702 57.2144 19.645 63.3552 8.71434 74.2858C-2.21635 85.2165 -8.35714 100.042 -8.35714 115.5H-12Z" fill="white"/>
</g>
<path fill-rule="evenodd" clip-rule="evenodd" d="M42.7513 57.0461C43.039 57.0108 43.2993 56.8499 43.4749 56.5989C43.6506 56.3479 43.7273 56.0273 43.688 55.7077C43.6488 55.388 43.4968 55.0955 43.2657 54.8944C43.0345 54.6934 42.743 54.6003 42.4553 54.6356C42.1676 54.6709 41.9073 54.8318 41.7317 55.0828C41.556 55.3338 41.4793 55.6544 41.5186 55.974C41.5578 56.2937 41.7098 56.5862 41.9409 56.7873C42.1721 56.9883 42.4636 57.0814 42.7513 57.0461ZM42.6963 56.5984C42.8653 56.5777 43.0175 56.478 43.1195 56.3212C43.2216 56.1645 43.265 55.9635 43.2404 55.7626C43.2157 55.5617 43.1249 55.3773 42.988 55.2499C42.8511 55.1224 42.6792 55.0625 42.5103 55.0833C42.3413 55.104 42.1891 55.2037 42.0871 55.3605C41.985 55.5172 41.9416 55.7181 41.9662 55.9191C41.9909 56.12 42.0817 56.3044 42.2186 56.4318C42.3555 56.5592 42.5274 56.6192 42.6963 56.5984Z" fill="#009538"/>
<path fill-rule="evenodd" clip-rule="evenodd" d="M44.7303 56.8269L45.1802 56.7954L45.1173 55.8956L46.0864 55.8278C46.2883 55.8137 46.4764 55.7199 46.6092 55.5672C46.742 55.4144 46.8087 55.2151 46.7945 55.0132C46.7804 54.8112 46.6867 54.6232 46.5339 54.4904C46.3811 54.3576 46.1818 54.2909 45.9799 54.305L44.5955 54.4018L44.7303 56.8269ZM45.0859 55.4457L46.0203 55.3803C46.1029 55.3745 46.1799 55.3362 46.2342 55.2737C46.2885 55.2112 46.3158 55.1297 46.31 55.0471C46.3042 54.9644 46.2659 54.8875 46.2034 54.8332C46.1409 54.7789 46.0594 54.7516 45.9767 54.7574L45.0423 54.8227L45.0859 55.4457Z" fill="#009538"/>
<path d="M46.7893 56.6828C46.7651 56.3367 46.7119 55.5753 46.1927 55.6116L45.5352 55.6576C46.2966 55.6044 46.3498 56.3658 46.374 56.7119" fill="#009538"/>
<path fill-rule="evenodd" clip-rule="evenodd" d="M47.8081 56.6352L48.9529 56.6152C49.0895 56.6128 49.2244 56.5835 49.3497 56.529C49.4751 56.4745 49.5884 56.3959 49.6834 56.2975C49.7783 56.1992 49.853 56.0832 49.9031 55.956C49.9532 55.8288 49.9777 55.693 49.9753 55.5564L49.9693 55.2095C49.9669 55.0728 49.9376 54.938 49.8831 54.8126C49.8286 54.6873 49.75 54.5739 49.6516 54.4789C49.5533 54.384 49.4373 54.3093 49.3101 54.2593C49.1829 54.2092 49.0471 54.1846 48.9105 54.187L47.7657 54.207L47.8081 56.6352ZM48.2512 56.1763L48.9103 56.1648C49.0851 56.1618 49.2515 56.0894 49.373 55.9637C49.4944 55.8379 49.5609 55.6691 49.5579 55.4943L49.5542 55.2861C49.5512 55.1113 49.4788 54.9449 49.3531 54.8235C49.2273 54.702 49.0585 54.6355 48.8837 54.6385L48.2246 54.6501L48.2512 56.1763Z" fill="#009538"/>
<path d="M50.8916 56.6049L53.0759 56.6812L53.0917 56.2304L51.3234 56.1687L51.3452 55.5446L52.7321 55.593L52.7466 55.1769L51.3597 55.1285L51.3767 54.6431L53.0409 54.7012L53.0567 54.2505L50.9763 54.1778L50.8916 56.6049Z" fill="#009538"/>
<path d="M53.9724 56.736L54.3872 56.7723L54.5323 55.1133L54.871 56.8146L55.2512 56.8479L55.8802 55.2313L55.7351 56.8902L56.1498 56.9265L56.3615 54.5072L55.7566 54.4543L55.1276 56.0709L54.7889 54.3696L54.1841 54.3167L53.9724 56.736Z" fill="#009538"/>
<path d="M59.0049 57.3036L60.8 57.6121L60.8705 57.2017L59.4857 56.9638L59.5797 56.4167L60.708 56.6106L60.7785 56.2003L59.6502 56.0064L59.7148 55.6303L61.0569 55.8609L61.1274 55.4506L59.375 55.1495L59.0049 57.3036Z" fill="#009538"/>
<path fill-rule="evenodd" clip-rule="evenodd" d="M63.6161 58.2094L64.0527 58.3223L64.2786 57.449L65.219 57.6922C65.415 57.7429 65.6231 57.7137 65.7975 57.6109C65.972 57.5082 66.0984 57.3403 66.1491 57.1444C66.1998 56.9484 66.1705 56.7403 66.0678 56.5659C65.9651 56.3915 65.7972 56.265 65.6013 56.2143L64.2577 55.8668L63.6161 58.2094ZM64.3915 57.0123L65.2984 57.2469C65.3786 57.2676 65.4637 57.2556 65.535 57.2136C65.6064 57.1716 65.6581 57.1029 65.6789 57.0228C65.6996 56.9426 65.6876 56.8575 65.6456 56.7861C65.6036 56.7147 65.5349 56.663 65.4547 56.6423L64.5478 56.4077L64.3915 57.0123Z" fill="#009538"/>
<path fill-rule="evenodd" clip-rule="evenodd" d="M66.5956 59.0042L67.0258 59.1399L67.297 58.2796L68.2235 58.5717C68.4166 58.6326 68.6259 58.6143 68.8055 58.5208C68.985 58.4273 69.1201 58.2663 69.181 58.0733C69.2418 57.8802 69.2235 57.6709 69.13 57.4913C69.0366 57.3118 68.8756 57.1767 68.6825 57.1158L67.359 56.6985L66.5956 59.0042ZM67.4327 57.8494L68.326 58.1311C68.405 58.156 68.4907 58.1485 68.5641 58.1103C68.6376 58.0721 68.6928 58.0062 68.7177 57.9272C68.7426 57.8482 68.7351 57.7626 68.6969 57.6891C68.6587 57.6157 68.5928 57.5604 68.5138 57.5355L67.6204 57.2539L67.4327 57.8494Z" fill="#009538"/>
<path d="M68.5643 59.625C68.6687 59.2941 68.8982 58.5662 68.4019 58.4097L67.7732 58.2114C68.5011 58.441 68.2716 59.1689 68.1673 59.4998" fill="#009538"/>
<path fill-rule="evenodd" clip-rule="evenodd" d="M70.5535 60.3367C70.825 60.4382 71.1302 60.4157 71.4019 60.2742C71.6736 60.1326 71.8896 59.8837 72.0024 59.582C72.1152 59.2804 72.1155 58.9507 72.0033 58.6657C71.8911 58.3806 71.6755 58.1634 71.404 58.0619C71.1325 57.9604 70.8274 57.9829 70.5556 58.1244C70.2839 58.2659 70.0679 58.5149 69.9551 58.8166C69.8423 59.1182 69.842 59.4478 69.9542 59.7329C70.0665 60.018 70.282 60.2352 70.5535 60.3367ZM70.7115 59.9142C70.8709 59.9738 71.052 59.9557 71.2149 59.8638C71.3777 59.7718 71.5091 59.6137 71.58 59.4241C71.6509 59.2344 71.6555 59.0289 71.5929 58.8527C71.5303 58.6765 71.4055 58.544 71.2461 58.4844C71.0866 58.4247 70.9055 58.4429 70.7427 58.5348C70.5798 58.6267 70.4485 58.7849 70.3776 58.9745C70.3067 59.1641 70.302 59.3696 70.3647 59.5459C70.4273 59.7221 70.552 59.8546 70.7115 59.9142Z" fill="#009538"/>
<mask id="mask1_257_7391" style="mask-type:luminance" maskUnits="userSpaceOnUse" x="72" y="58" width="4" height="4">
<path d="M72.41 61.056L73.3784 58.8288L75.3828 59.7004L74.4145 61.9275L72.41 61.056ZM74.0624 59.9964L73.8964 60.3782L74.8987 60.814L75.0647 60.4322L74.0624 59.9964Z" fill="white"/>
</mask>
<g mask="url(#mask1_257_7391)">
<path fill-rule="evenodd" clip-rule="evenodd" d="M73.4122 61.4918C73.678 61.6073 73.984 61.6009 74.2627 61.4737C74.5415 61.3466 74.7702 61.1093 74.8987 60.814C75.0271 60.5186 75.0446 60.1895 74.9475 59.8989C74.8503 59.6084 74.6464 59.3802 74.3806 59.2646C74.1148 59.149 73.8089 59.1555 73.5301 59.2826C73.2514 59.4097 73.0226 59.6471 72.8942 59.9424C72.7658 60.2378 72.7482 60.5669 72.8454 60.8575C72.9425 61.148 73.1464 61.3762 73.4122 61.4918ZM73.5921 61.0782C73.7482 61.146 73.93 61.1374 74.0974 61.0541C74.2649 60.9708 74.4043 60.8198 74.485 60.6341C74.5658 60.4485 74.5812 60.2435 74.5279 60.0642C74.4745 59.885 74.3569 59.7461 74.2008 59.6782C74.0447 59.6104 73.8629 59.619 73.6954 59.7023C73.528 59.7855 73.3886 59.9366 73.3078 60.1223C73.2271 60.3079 73.2117 60.5129 73.265 60.6922C73.3183 60.8714 73.436 61.0103 73.5921 61.0782Z" fill="#009538"/>
</g>
<path d="M74.899 60.814L74.0559 60.4474L73.9176 60.7655L74.7607 61.1321L74.899 60.814Z" fill="#009538"/>
<path d="M74.8982 60.8139L74.5801 60.6756L74.0959 61.7891L74.414 61.9275L74.8982 60.8139Z" fill="#009538"/>
<path fill-rule="evenodd" clip-rule="evenodd" d="M75.2281 62.3071L75.6318 62.5084L76.0343 61.7011L76.9036 62.1346C77.0848 62.2249 77.2944 62.2395 77.4864 62.1753C77.6784 62.1111 77.8369 61.9732 77.9273 61.7921C78.0176 61.6109 78.0323 61.4013 77.968 61.2093C77.9038 61.0173 77.7659 60.8587 77.5848 60.7684L76.3428 60.1492L75.2281 62.3071ZM76.2355 61.2975L77.0738 61.7155C77.1479 61.7524 77.2337 61.7584 77.3122 61.7321C77.3908 61.7058 77.4556 61.6494 77.4926 61.5753C77.5295 61.5012 77.5355 61.4155 77.5093 61.3369C77.483 61.2584 77.4266 61.1935 77.3525 61.1566L76.5142 60.7386L76.2355 61.2975Z" fill="#009538"/>
<path d="M77.0759 63.2283C77.2307 62.9178 77.5713 62.2348 77.1056 62.0025L76.5156 61.7084C77.1987 62.049 76.8581 62.7321 76.7033 63.0425" fill="#009538"/>
<path d="M77.9779 63.7041L79.8803 64.7804L80.1024 64.3879L78.5624 63.5166L78.8699 62.973L80.0777 63.6564L80.2828 63.2941L79.0749 62.6107L79.3141 62.188L80.7635 63.008L80.9856 62.6154L79.1738 61.5904L77.9779 63.7041Z" fill="#009538"/>
<path d="M81.5208 64.893C81.3903 65.0978 81.5226 65.326 81.8152 65.5125C82.1078 65.6989 82.3071 65.6921 82.3912 65.5606C82.6569 65.1437 81.1212 64.5356 81.5945 63.8087C82.0026 63.1843 82.7008 63.6702 82.9642 63.838C83.2275 64.0058 83.6504 64.4397 83.3215 64.9398L82.8753 64.6555C83.0151 64.4361 82.8616 64.2251 82.6275 64.076C82.4007 63.9315 82.2165 63.8656 82.0813 64.0777C81.855 64.4169 83.3601 65.0569 82.8987 65.7811C82.5585 66.3151 81.9666 66.082 81.5715 65.8303C81.235 65.6159 80.7323 65.1105 81.0599 64.5994L81.5208 64.893Z" fill="#009538"/>
<path d="M84.1266 66.6157C83.9856 66.8135 84.1057 67.0483 84.3881 67.2498C84.6706 67.4512 84.87 67.4549 84.9609 67.328C85.248 66.9256 83.7462 66.2379 84.257 65.5368C84.6972 64.9346 85.369 65.4564 85.6232 65.6377C85.8774 65.8191 86.277 66.2745 85.9224 66.7567L85.4917 66.4495C85.6428 66.2377 85.5005 66.019 85.2745 65.8578C85.0556 65.7016 84.8751 65.6261 84.729 65.8309C84.4852 66.1578 85.9548 66.8757 85.4561 67.5747C85.0884 68.0902 84.5095 67.8264 84.1282 67.5544C83.8034 67.3228 83.3278 66.7917 83.6817 66.2984L84.1266 66.6157Z" fill="#009538"/>
<path fill-rule="evenodd" clip-rule="evenodd" d="M86.59 69.41C86.8169 69.5905 87.1141 69.6634 87.4162 69.6128C87.7184 69.5621 88.0007 69.3921 88.2012 69.1401C88.4017 68.888 88.5039 68.5746 88.4852 68.2688C88.4666 67.963 88.3287 67.6899 88.1019 67.5094C87.875 67.329 87.5778 67.2561 87.2757 67.3067C86.9735 67.3573 86.6912 67.5274 86.4907 67.7794C86.2902 68.0314 86.188 68.3448 86.2067 68.6506C86.2253 68.9564 86.3632 69.2296 86.59 69.41ZM86.8708 69.0571C87.004 69.163 87.1818 69.2017 87.3652 69.1646C87.5485 69.1275 87.7222 69.0177 87.8483 68.8593C87.9743 68.7009 88.0422 68.5068 88.0371 68.3199C88.032 68.1329 87.9543 67.9684 87.8211 67.8624C87.6879 67.7564 87.5101 67.7177 87.3267 67.7548C87.1434 67.7919 86.9697 67.9018 86.8436 68.0602C86.7176 68.2186 86.6497 68.4126 86.6548 68.5996C86.6599 68.7865 86.7376 68.9511 86.8708 69.0571Z" fill="#009538"/>
<path d="M43.6837 58.8275L43.346 59.8669L43.8657 60.0358" fill="white"/>
<path d="M43.6837 58.8275L44.0214 59.8669L43.5017 60.0358" fill="white"/>
<path d="M44.7231 59.5826H43.6303V60.1291" fill="white"/>
<path d="M44.7231 59.5826L43.839 60.225L43.5178 59.7829" fill="white"/>
<path d="M42.6444 59.5827L43.5285 60.2251L43.8497 59.783" fill="white"/>
<path d="M42.6444 59.5827H43.7373V60.1291" fill="white"/>
<path d="M44.326 60.8045L43.9883 59.7651L43.4687 59.934" fill="white"/>
<path d="M44.326 60.8045L43.4419 60.1621L43.7631 59.72" fill="white"/>
<path d="M43.0414 60.8045L43.9255 60.1622L43.6043 59.7201" fill="white"/>
<path d="M43.0414 60.8045L43.3791 59.7652L43.8988 59.934" fill="white"/>
<path d="M45.9385 69.548L45.6008 70.5874L46.1204 70.7563" fill="white"/>
<path d="M45.9385 69.548L46.2762 70.5874L45.7565 70.7563" fill="white"/>
<path d="M46.978 70.3031H45.8852V70.8495" fill="white"/>
<path d="M46.978 70.3031L46.0939 70.9454L45.7727 70.5034" fill="white"/>
<path d="M44.8992 70.3031L45.7833 70.9454L46.1045 70.5034" fill="white"/>
<path d="M44.8992 70.3031H45.992V70.8495" fill="white"/>
<path d="M46.5809 71.5249L46.2432 70.4856L45.7235 70.6544" fill="white"/>
<path d="M46.5809 71.5249L45.6968 70.8826L46.018 70.4405" fill="white"/>
<path d="M45.2965 71.5249L46.1806 70.8826L45.8595 70.4405" fill="white"/>
<path d="M45.2965 71.5249L45.6342 70.4856L46.1539 70.6544" fill="white"/>
<path d="M42.8162 72.0199L42.5347 72.886L42.9678 73.0268" fill="white"/>
<path d="M42.8162 72.0199L43.0976 72.886L42.6645 73.0268" fill="white"/>
<path d="M43.6825 72.6492H42.7718V73.1046" fill="white"/>
<path d="M43.6825 72.6492L42.9457 73.1845L42.6781 72.8161" fill="white"/>
<path d="M41.9497 72.6492L42.6865 73.1845L42.9541 72.8161" fill="white"/>
<path d="M41.9497 72.6492H42.8604V73.1046" fill="white"/>
<path d="M43.3514 73.6674L43.07 72.8013L42.6369 72.942" fill="white"/>
<path d="M43.3514 73.6674L42.6147 73.1321L42.8823 72.7638" fill="white"/>
<path d="M42.2809 73.6674L43.0177 73.1321L42.75 72.7638" fill="white"/>
<path d="M42.2809 73.6674L42.5623 72.8013L42.9954 72.942" fill="white"/>
<path d="M48.4365 68.5592L48.2757 69.0541L48.5232 69.1345" fill="white"/>
<path d="M48.4365 68.5592L48.5973 69.0541L48.3499 69.1345" fill="white"/>
<path d="M48.9318 68.9188H48.4114V69.179" fill="white"/>
<path d="M48.9318 68.9188L48.5107 69.2247L48.3578 69.0141" fill="white"/>
<path d="M47.9419 68.9188L48.3629 69.2247L48.5159 69.0142" fill="white"/>
<path d="M47.9419 68.9188H48.4623V69.179" fill="white"/>
<path d="M48.7426 69.5006L48.5817 69.0056L48.3343 69.086" fill="white"/>
<path d="M48.7426 69.5006L48.3215 69.1947L48.4745 68.9842" fill="white"/>
<path d="M48.1306 69.5006L48.5516 69.1947L48.3987 68.9842" fill="white"/>
<path d="M48.1306 69.5006L48.2914 69.0057L48.5389 69.0861" fill="white"/>
<path d="M51.2469 72.2628L50.9655 73.129L51.3986 73.2697" fill="white"/>
<path d="M51.2469 72.2628L51.5284 73.129L51.0953 73.2697" fill="white"/>
<path d="M52.113 72.8921H51.2023V73.3475" fill="white"/>
<path d="M52.113 72.8921L51.3763 73.4274L51.1086 73.059" fill="white"/>
<path d="M50.3807 72.8921L51.1175 73.4274L51.3852 73.059" fill="white"/>
<path d="M50.3807 72.8921H51.2915V73.3474" fill="white"/>
<path d="M51.7821 73.9103L51.5007 73.0442L51.0676 73.1849" fill="white"/>
<path d="M51.7821 73.9103L51.0453 73.375L51.313 73.0066" fill="white"/>
<path d="M50.7117 73.9103L51.4485 73.375L51.1808 73.0066" fill="white"/>
<path d="M50.7117 73.9103L50.9931 73.0442L51.4262 73.1849" fill="white"/>
<path d="M50.4835 74.9776L50.2584 75.6705L50.6048 75.7831" fill="white"/>
<path d="M50.4835 74.9776L50.7087 75.6705L50.3622 75.7831" fill="white"/>
<path d="M51.1765 75.4811H50.4479V75.8454" fill="white"/>
<path d="M51.1765 75.4811L50.5871 75.9093L50.373 75.6146" fill="white"/>
<path d="M49.7909 75.4811L50.3803 75.9093L50.5944 75.6146" fill="white"/>
<path d="M49.7909 75.4811H50.5195V75.8454" fill="white"/>
<path d="M50.9121 76.2956L50.687 75.6027L50.3405 75.7153" fill="white"/>
<path d="M50.9121 76.2956L50.3227 75.8673L50.5368 75.5726" fill="white"/>
<path d="M50.0554 76.2956L50.6448 75.8673L50.4307 75.5726" fill="white"/>
<path d="M50.0554 76.2956L50.2806 75.6027L50.627 75.7153" fill="white"/>
<path d="M72.4106 55.4969L72.0729 56.5363L72.5926 56.7051" fill="white"/>
<path d="M72.4106 55.4969L72.7484 56.5363L72.2287 56.7051" fill="white"/>
<path d="M73.4492 56.252H72.3564V56.7985" fill="white"/>
<path d="M73.4492 56.252L72.5651 56.8944L72.2439 56.4523" fill="white"/>
<path d="M71.3706 56.2521L72.2547 56.8944L72.5759 56.4524" fill="white"/>
<path d="M71.3706 56.2521H72.4635V56.7985" fill="white"/>
<path d="M73.0522 57.4739L72.7145 56.4345L72.1949 56.6034" fill="white"/>
<path d="M73.0522 57.4739L72.1681 56.8315L72.4893 56.3895" fill="white"/>
<path d="M71.7671 57.4739L72.6512 56.8316L72.33 56.3895" fill="white"/>
<path d="M71.7671 57.4739L72.1048 56.4346L72.6245 56.6034" fill="white"/>
<path d="M82.3674 72.3582L82.0297 73.3976L82.5494 73.5664" fill="white"/>
<path d="M82.3674 72.3582L82.7051 73.3976L82.1855 73.5664" fill="white"/>
<path d="M83.407 73.1134H82.3141V73.6598" fill="white"/>
<path d="M83.407 73.1134L82.5228 73.7557L82.2017 73.3137" fill="white"/>
<path d="M81.3279 73.1133L82.212 73.7557L82.5332 73.3136" fill="white"/>
<path d="M81.3279 73.1133H82.4207V73.6598" fill="white"/>
<path d="M83.009 74.3352L82.6713 73.2959L82.1516 73.4647" fill="white"/>
<path d="M83.009 74.3352L82.1249 73.6929L82.4461 73.2508" fill="white"/>
<path d="M81.7251 74.3352L82.6092 73.6929L82.2881 73.2508" fill="white"/>
<path d="M81.7251 74.3352L82.0628 73.2959L82.5825 73.4647" fill="white"/>
<path d="M85.906 72.9653L85.6809 73.6582L86.0273 73.7708" fill="white"/>
<path d="M85.906 72.9653L86.1311 73.6582L85.7847 73.7708" fill="white"/>
<path d="M86.5989 73.4688H85.8703V73.833" fill="white"/>
<path d="M86.5989 73.4688L86.0095 73.897L85.7953 73.6023" fill="white"/>
<path d="M85.2129 73.4688L85.8023 73.897L86.0164 73.6023" fill="white"/>
<path d="M85.2129 73.4688H85.9415V73.833" fill="white"/>
<path d="M86.334 74.2833L86.1088 73.5904L85.7624 73.703" fill="white"/>
<path d="M86.334 74.2833L85.7446 73.8551L85.9587 73.5604" fill="white"/>
<path d="M85.4771 74.2833L86.0665 73.8551L85.8524 73.5604" fill="white"/>
<path d="M85.4771 74.2833L85.7022 73.5904L86.0486 73.703" fill="white"/>
<path d="M83.4077 74.7954L83.1263 75.6616L83.5594 75.8023" fill="white"/>
<path d="M83.4077 74.7954L83.6891 75.6616L83.2561 75.8023" fill="white"/>
<path d="M84.2742 75.4248H83.3635V75.8801" fill="white"/>
<path d="M84.2742 75.4248L83.5374 75.9601L83.2697 75.5917" fill="white"/>
<path d="M82.5417 75.4247L83.2785 75.96L83.5462 75.5917" fill="white"/>
<path d="M82.5417 75.4247H83.4525V75.8801" fill="white"/>
<path d="M83.9431 76.443L83.6617 75.5769L83.2286 75.7176" fill="white"/>
<path d="M83.9431 76.443L83.2063 75.9077L83.474 75.5393" fill="white"/>
<path d="M82.8726 76.443L83.6093 75.9077L83.3417 75.5393" fill="white"/>
<path d="M82.8726 76.443L83.154 75.5769L83.5871 75.7176" fill="white"/>
<path d="M77.2678 80.1383L76.9864 81.0044L77.4195 81.1452" fill="white"/>
<path d="M77.2678 80.1383L77.5492 81.0044L77.1162 81.1452" fill="white"/>
<path d="M78.1335 80.7676H77.2228V81.2229" fill="white"/>
<path d="M78.1335 80.7676L77.3968 81.3029L77.1291 80.9345" fill="white"/>
<path d="M76.4011 80.7676L77.1379 81.3029L77.4056 80.9345" fill="white"/>
<path d="M76.4011 80.7676H77.3118V81.2229" fill="white"/>
<path d="M77.803 81.7858L77.5216 80.9197L77.0885 81.0604" fill="white"/>
<path d="M77.803 81.7858L77.0662 81.2505L77.3338 80.8821" fill="white"/>
<path d="M76.7329 81.7858L77.4697 81.2505L77.202 80.8821" fill="white"/>
<path d="M76.7329 81.7858L77.0143 80.9197L77.4474 81.0604" fill="white"/>
<path d="M77.2322 82.8878L77.007 83.5807L77.3535 83.6933" fill="white"/>
<path d="M77.2322 82.8878L77.4573 83.5807L77.1109 83.6933" fill="white"/>
<path d="M77.9258 83.3912H77.1972V83.7555" fill="white"/>
<path d="M77.9258 83.3912L77.3364 83.8194L77.1222 83.5247" fill="white"/>
<path d="M76.5393 83.3912L77.1287 83.8194L77.3429 83.5247" fill="white"/>
<path d="M76.5393 83.3912H77.2679V83.7555" fill="white"/>
<path d="M77.6606 84.2058L77.4355 83.5129L77.089 83.6254" fill="white"/>
<path d="M77.6606 84.2058L77.0712 83.7775L77.2853 83.4828" fill="white"/>
<path d="M76.8042 84.2058L77.3936 83.7775L77.1795 83.4828" fill="white"/>
<path d="M76.8042 84.2058L77.0293 83.5129L77.3758 83.6254" fill="white"/>
<path d="M79.7996 78.3082L79.5744 79.0011L79.9209 79.1136" fill="white"/>
<path d="M79.7996 78.3082L80.0247 79.0011L79.6782 79.1136" fill="white"/>
<path d="M80.4934 78.8117H79.7648V79.176" fill="white"/>
<path d="M80.4934 78.8117L79.904 79.24L79.6899 78.9453" fill="white"/>
<path d="M79.1072 78.8116L79.6966 79.2399L79.9107 78.9452" fill="white"/>
<path d="M79.1072 78.8116H79.8357V79.1759" fill="white"/>
<path d="M80.2283 79.6261L80.0031 78.9332L79.6567 79.0458" fill="white"/>
<path d="M80.2283 79.6261L79.6388 79.1979L79.853 78.9032" fill="white"/>
<path d="M79.3718 79.6262L79.9613 79.1979L79.7471 78.9032" fill="white"/>
<path d="M79.3718 79.6262L79.597 78.9332L79.9434 79.0458" fill="white"/>
<path d="M81.8469 76.8424L81.5655 77.7085L81.9986 77.8492" fill="white"/>
<path d="M81.8469 76.8424L82.1284 77.7085L81.6953 77.8492" fill="white"/>
<path d="M82.7126 77.4717H81.8019V77.927" fill="white"/>
<path d="M82.7126 77.4717L81.9759 78.007L81.7082 77.6386" fill="white"/>
<path d="M80.9802 77.4717L81.717 78.007L81.9847 77.6386" fill="white"/>
<path d="M80.9802 77.4717H81.8909V77.9271" fill="white"/>
<path d="M82.3821 78.4897L82.1007 77.6236L81.6676 77.7643" fill="white"/>
<path d="M82.3821 78.4897L81.6453 77.9544L81.9129 77.586" fill="white"/>
<path d="M81.3118 78.4898L82.0486 77.9545L81.7809 77.5861" fill="white"/>
<path d="M81.3118 78.4898L81.5932 77.6237L82.0263 77.7644" fill="white"/>
<path d="M77.1631 77.8224L76.9379 78.5154L77.2844 78.6279" fill="white"/>
<path d="M77.1631 77.8224L77.3882 78.5154L77.0418 78.6279" fill="white"/>
<path d="M77.8562 78.3259H77.1276V78.6902" fill="white"/>
<path d="M77.8562 78.3259L77.2668 78.7542L77.0527 78.4595" fill="white"/>
<path d="M76.4707 78.3259L77.0601 78.7541L77.2743 78.4594" fill="white"/>
<path d="M76.4707 78.3259H77.1993V78.6902" fill="white"/>
<path d="M77.5918 79.1404L77.3667 78.4475L77.0202 78.5601" fill="white"/>
<path d="M77.5918 79.1404L77.0024 78.7122L77.2165 78.4175" fill="white"/>
<path d="M76.7344 79.1405L77.3238 78.7122L77.1097 78.4175" fill="white"/>
<path d="M76.7344 79.1405L76.9595 78.4476L77.306 78.5601" fill="white"/>
<path d="M54.7856 64.6301L54.5042 65.4963L54.9373 65.637" fill="white"/>
<path d="M54.7856 64.6301L55.0671 65.4963L54.634 65.637" fill="white"/>
<path d="M55.6523 65.2594H54.7416V65.7148" fill="white"/>
<path d="M55.6523 65.2594L54.9156 65.7947L54.6479 65.4263" fill="white"/>
<path d="M53.9199 65.2594L54.6567 65.7947L54.9244 65.4263" fill="white"/>
<path d="M53.9199 65.2594H54.8306V65.7148" fill="white"/>
<path d="M55.321 66.2777L55.0396 65.4115L54.6065 65.5522" fill="white"/>
<path d="M55.321 66.2777L54.5843 65.7424L54.8519 65.374" fill="white"/>
<path d="M54.2502 66.2777L54.987 65.7424L54.7194 65.374" fill="white"/>
<path d="M54.2502 66.2777L54.5317 65.4115L54.9647 65.5522" fill="white"/>
<path d="M71.439 62.4878L71.2138 63.1807L71.5603 63.2933" fill="white"/>
<path d="M71.439 62.4878L71.6641 63.1807L71.3176 63.2933" fill="white"/>
<path d="M72.1311 62.9911H71.4025V63.3554" fill="white"/>
<path d="M72.1311 62.9911L71.5417 63.4194L71.3276 63.1247" fill="white"/>
<path d="M70.7456 62.9912L71.335 63.4194L71.5492 63.1247" fill="white"/>
<path d="M70.7456 62.9912H71.4742V63.3555" fill="white"/>
<path d="M71.8665 63.8057L71.6413 63.1128L71.2949 63.2254" fill="white"/>
<path d="M71.8665 63.8057L71.277 63.3775L71.4912 63.0828" fill="white"/>
<path d="M71.0098 63.8059L71.5992 63.3776L71.3851 63.0829" fill="white"/>
<path d="M71.0098 63.8059L71.2349 63.1129L71.5814 63.2255" fill="white"/>
<path d="M64.5002 74.8561L64.1625 75.8955L64.6822 76.0644" fill="white"/>
<path d="M64.5002 74.8561L64.838 75.8955L64.3183 76.0644" fill="white"/>
<path d="M65.5396 75.6114H64.4467V76.1578" fill="white"/>
<path d="M65.5396 75.6114L64.6554 76.2537L64.3342 75.8117" fill="white"/>
<path d="M63.4602 75.6113L64.3443 76.2537L64.6655 75.8116" fill="white"/>
<path d="M63.4602 75.6113H64.5531V76.1578" fill="white"/>
<path d="M65.1418 76.8332L64.8041 75.7939L64.2844 75.9627" fill="white"/>
<path d="M65.1418 76.8332L64.2577 76.1909L64.5789 75.7488" fill="white"/>
<path d="M63.8577 76.8331L64.7418 76.1908L64.4206 75.7487" fill="white"/>
<path d="M63.8577 76.8331L64.1954 75.7938L64.7151 75.9626" fill="white"/>
<path d="M67.449 69.973L67.1675 70.8391L67.6006 70.9798" fill="white"/>
<path d="M67.449 69.973L67.7304 70.8391L67.2973 70.9798" fill="white"/>
<path d="M68.3159 70.6022H67.4052V71.0576" fill="white"/>
<path d="M68.3159 70.6022L67.5791 71.1375L67.3115 70.7691" fill="white"/>
<path d="M66.5837 70.6021L67.3205 71.1374L67.5882 70.769" fill="white"/>
<path d="M66.5837 70.6021H67.4945V71.0575" fill="white"/>
<path d="M67.9844 71.6204L67.7029 70.7543L67.2699 70.895" fill="white"/>
<path d="M67.9844 71.6204L67.2476 71.0851L67.5152 70.7167" fill="white"/>
<path d="M66.9136 71.6205L67.6504 71.0851L67.3827 70.7168" fill="white"/>
<path d="M66.9136 71.6205L67.195 70.7543L67.6281 70.895" fill="white"/>
<path d="M64.5 67.6832L64.2186 68.5493L64.6516 68.69" fill="white"/>
<path d="M64.5 67.6832L64.7814 68.5493L64.3484 68.69" fill="white"/>
<path d="M65.3662 68.3124H64.4555V68.7678" fill="white"/>
<path d="M65.3662 68.3124L64.6294 68.8477L64.3618 68.4794" fill="white"/>
<path d="M63.6343 68.3124L64.3711 68.8477L64.6387 68.4793" fill="white"/>
<path d="M63.6343 68.3124H64.545V68.7678" fill="white"/>
<path d="M65.0354 69.3306L64.754 68.4645L64.3209 68.6052" fill="white"/>
<path d="M65.0354 69.3306L64.2986 68.7953L64.5663 68.4269" fill="white"/>
<path d="M63.9646 69.3306L64.7014 68.7953L64.4337 68.4269" fill="white"/>
<path d="M63.9646 69.3306L64.246 68.4645L64.6791 68.6052" fill="white"/>
<path d="M61.9324 70.1552L61.7072 70.8481L62.0537 70.9606" fill="white"/>
<path d="M61.9324 70.1552L62.1575 70.8481L61.8111 70.9606" fill="white"/>
<path d="M62.626 70.6585H61.8974V71.0228" fill="white"/>
<path d="M62.626 70.6585L62.0365 71.0868L61.8224 70.792" fill="white"/>
<path d="M61.24 70.6585L61.8294 71.0868L62.0435 70.7921" fill="white"/>
<path d="M61.24 70.6585H61.9686V71.0228" fill="white"/>
<path d="M62.3611 71.4731L62.1359 70.7802L61.7895 70.8928" fill="white"/>
<path d="M62.3611 71.4731L61.7717 71.0449L61.9858 70.7502" fill="white"/>
<path d="M61.5046 71.4732L62.0941 71.0449L61.8799 70.7502" fill="white"/>
<path d="M61.5046 71.4732L61.7298 70.7803L62.0762 70.8928" fill="white"/>
<path d="M63.2163 72.1327L63.0555 72.6276L63.303 72.708" fill="white"/>
<path d="M63.2163 72.1327L63.3771 72.6276L63.1297 72.708" fill="white"/>
<path d="M63.7109 72.4923H63.1905V72.7525" fill="white"/>
<path d="M63.7109 72.4923L63.2899 72.7982L63.137 72.5877" fill="white"/>
<path d="M62.7217 72.4923L63.1427 72.7982L63.2956 72.5877" fill="white"/>
<path d="M62.7217 72.4923H63.2421V72.7525" fill="white"/>
<path d="M63.5227 73.074L63.3619 72.5791L63.1144 72.6595" fill="white"/>
<path d="M63.5227 73.074L63.1017 72.7681L63.2546 72.5576" fill="white"/>
<path d="M62.9106 73.0741L63.3317 72.7682L63.1787 72.5577" fill="white"/>
<path d="M62.9106 73.0741L63.0715 72.5792L63.3189 72.6596" fill="white"/>
<path d="M72.1328 80.7628L71.8514 81.629L72.2845 81.7697" fill="white"/>
<path d="M72.1328 80.7628L72.4142 81.629L71.9812 81.7697" fill="white"/>
<path d="M72.999 81.3922H72.0883V81.8476" fill="white"/>
<path d="M72.999 81.3922L72.2622 81.9275L71.9946 81.5591" fill="white"/>
<path d="M71.2671 81.3921L72.0039 81.9274L72.2715 81.559" fill="white"/>
<path d="M71.2671 81.3921H72.1778V81.8475" fill="white"/>
<path d="M72.668 82.4102L72.3865 81.5441L71.9535 81.6848" fill="white"/>
<path d="M72.668 82.4102L71.9312 81.8749L72.1988 81.5066" fill="white"/>
<path d="M71.5974 82.4102L72.3342 81.8749L72.0665 81.5066" fill="white"/>
<path d="M71.5974 82.4102L71.8788 81.5441L72.3119 81.6848" fill="white"/>
<path d="M74.3179 78.6898L74.0927 79.3827L74.4392 79.4953" fill="white"/>
<path d="M74.3179 78.6898L74.543 79.3827L74.1966 79.4953" fill="white"/>
<path d="M75.0115 79.1932H74.2829V79.5575" fill="white"/>
<path d="M75.0115 79.1932L74.422 79.6215L74.2079 79.3267" fill="white"/>
<path d="M73.625 79.1932L74.2144 79.6214L74.4285 79.3267" fill="white"/>
<path d="M73.625 79.1932H74.3536V79.5575" fill="white"/>
<path d="M74.7456 80.0078L74.5205 79.3148L74.174 79.4274" fill="white"/>
<path d="M74.7456 80.0078L74.1562 79.5795L74.3703 79.2848" fill="white"/>
<path d="M73.8901 80.0078L74.4796 79.5796L74.2654 79.2849" fill="white"/>
<path d="M73.8901 80.0078L74.1153 79.3149L74.4617 79.4275" fill="white"/>
<path d="M70.1208 78.0653L69.8957 78.7582L70.2422 78.8708" fill="white"/>
<path d="M70.1208 78.0653L70.346 78.7582L69.9995 78.8708" fill="white"/>
<path d="M70.8125 78.5688H70.0839V78.9331" fill="white"/>
<path d="M70.8125 78.5688L70.2231 78.997L70.009 78.7023" fill="white"/>
<path d="M69.4268 78.5688L70.0162 78.997L70.2303 78.7023" fill="white"/>
<path d="M69.4268 78.5688H70.1553V78.9331" fill="white"/>
<path d="M70.5479 79.3833L70.3227 78.6904L69.9763 78.803" fill="white"/>
<path d="M70.5479 79.3833L69.9584 78.9551L70.1725 78.6604" fill="white"/>
<path d="M69.6914 79.3834L70.2808 78.9551L70.0667 78.6604" fill="white"/>
<path d="M69.6914 79.3834L69.9165 78.6904L70.263 78.803" fill="white"/>
<path d="M54.2656 76.9378L53.9279 77.9772L54.4476 78.1461" fill="white"/>
<path d="M54.2656 76.9378L54.6033 77.9772L54.0837 78.1461" fill="white"/>
<path d="M55.3049 77.6929H54.2121V78.2393" fill="white"/>
<path d="M55.3049 77.6929L54.4208 78.3353L54.0996 77.8932" fill="white"/>
<path d="M53.2258 77.6929L54.11 78.3352L54.4312 77.8932" fill="white"/>
<path d="M53.2258 77.6929H54.3187V78.2393" fill="white"/>
<path d="M54.9072 78.9147L54.5695 77.8754L54.0498 78.0442" fill="white"/>
<path d="M54.9072 78.9147L54.0231 78.2724L54.3443 77.8303" fill="white"/>
<path d="M53.6228 78.9147L54.5069 78.2724L54.1858 77.8303" fill="white"/>
<path d="M53.6228 78.9147L53.9605 77.8754L54.4802 78.0442" fill="white"/>
<path d="M64.5002 84.0847L64.3877 84.4312L64.5609 84.4875" fill="white"/>
<path d="M64.5002 84.0847L64.6128 84.4312L64.4396 84.4875" fill="white"/>
<path d="M64.8472 84.3364H64.4829V84.5185" fill="white"/>
<path d="M64.8472 84.3364L64.5525 84.5505L64.4454 84.4032" fill="white"/>
<path d="M64.1541 84.3365L64.4488 84.5506L64.5558 84.4032" fill="white"/>
<path d="M64.1541 84.3365H64.5183V84.5186" fill="white"/>
<path d="M64.7139 84.7436L64.6013 84.3971L64.4281 84.4534" fill="white"/>
<path d="M64.7139 84.7436L64.4192 84.5295L64.5262 84.3821" fill="white"/>
<path d="M64.2861 84.7437L64.5808 84.5296L64.4738 84.3822" fill="white"/>
<path d="M64.2861 84.7437L64.3987 84.3972L64.5719 84.4535" fill="white"/>
</g>
<defs>
<clipPath id="clip0_257_7391">
<rect width="128" height="128" fill="white"/>
</clipPath>
</defs>
</svg>
