<svg width="128" height="128" viewBox="0 0 128 128" fill="none" xmlns="http://www.w3.org/2000/svg">
<g clip-path="url(#clip0_259_8792)">
<rect width="128" height="128" fill="#D80027"/>
<rect width="128" height="128" fill="#D80027"/>
<path fill-rule="evenodd" clip-rule="evenodd" d="M64.5 33L71.5819 54.7962H94.5L75.9587 68.2671L83.0404 90.0625L64.5 76.5923L45.9596 90.0625L53.0413 68.2671L34.5 54.7962H57.4181L64.5 33ZM56.345 58.099H44.665L54.1144 64.9643L56.345 58.099ZM56.9239 67.0055L59.8178 58.099H69.1822L72.0761 67.0055L64.5 72.5098L56.9239 67.0055ZM55.8508 70.3083L52.2418 81.4158L61.6905 74.551L55.8508 70.3083ZM67.3095 74.551L76.7582 81.4158L73.1492 70.3083L67.3095 74.551ZM74.8856 64.9643L84.335 58.099H72.655L74.8856 64.9643ZM68.1091 54.7962H60.8909L64.5 43.6883L68.1091 54.7962Z" fill="#006233"/>
</g>
<defs>
<clipPath id="clip0_259_8792">
<rect width="128" height="128" fill="white"/>
</clipPath>
</defs>
</svg>
