<svg width="128" height="128" viewBox="0 0 128 128" fill="none" xmlns="http://www.w3.org/2000/svg">
<g clip-path="url(#clip0_260_10405)">
<rect width="128" height="128" fill="#D80027"/>
<rect width="128" height="128" fill="white"/>
<path d="M177.4 -0.799988H-49.4V128.8H177.4V-0.799988Z" fill="#DA0000"/>
<path d="M177.4 -0.799988H-49.4V85.6H177.4V-0.799988Z" fill="white"/>
<path d="M177.4 -0.799988H-49.4V42.4H177.4V-0.799988Z" fill="#239F40"/>
<path d="M-6.05603 35.8481H7.04797M-5.55203 40.3841V37.8641H-1.52003V39.8801H2.51197V37.8641H-0.00803089M-4.04003 39.8801H-3.03203M7.04797 39.8801H4.52797V37.8641H8.55997M8.55997 35.3441V39.8801H12.592V35.3441M10.576 35.3441V39.8801" stroke="white" stroke-width="1.008"/>
<path d="M-6.05603 42.4H3.01597M4.02397 42.4H13.096" stroke="white" stroke-width="2.016"/>
<path d="M-6.05603 85.6001H3.01597M4.02397 85.6001H13.096" stroke="white" stroke-width="2.016"/>
<path d="M-6.05603 88.1201H7.04797M-5.55203 92.6561V90.1361H-1.52003V92.1521H2.51197V90.1361H-0.00803089M-4.04003 92.1521H-3.03203M7.04797 92.1521H4.52797V90.1361H8.55997M8.55997 87.6161V92.1521H12.592V87.6161M10.576 87.6161V92.1521" stroke="white" stroke-width="1.008"/>
<path d="M14.1039 35.8481H27.2079M14.6079 40.3841V37.8641H18.6399V39.8801H22.6719V37.8641H20.1519M16.1199 39.8801H17.1279M27.2079 39.8801H24.6879V37.8641H28.7199M28.7199 35.3441V39.8801H32.7519V35.3441M30.7359 35.3441V39.8801" stroke="white" stroke-width="1.008"/>
<path d="M14.1039 42.4H23.1759M24.1839 42.4H33.2559" stroke="white" stroke-width="2.016"/>
<path d="M14.1039 85.6001H23.1759M24.1839 85.6001H33.2559" stroke="white" stroke-width="2.016"/>
<path d="M14.1039 88.1201H27.2079M14.6079 92.6561V90.1361H18.6399V92.1521H22.6719V90.1361H20.1519M16.1199 92.1521H17.1279M27.2079 92.1521H24.6879V90.1361H28.7199M28.7199 87.6161V92.1521H32.7519V87.6161M30.7359 87.6161V92.1521" stroke="white" stroke-width="1.008"/>
<path d="M34.2639 35.8481H47.3679M34.7679 40.3841V37.8641H38.7999V39.8801H42.8319V37.8641H40.3119M36.2799 39.8801H37.2879M47.3679 39.8801H44.8479V37.8641H48.8799M48.8799 35.3441V39.8801H52.9119V35.3441M50.8959 35.3441V39.8801" stroke="white" stroke-width="1.008"/>
<path d="M34.2639 42.4H43.3359M44.3439 42.4H53.4159" stroke="white" stroke-width="2.016"/>
<path d="M34.2639 85.6001H43.3359M44.3439 85.6001H53.4159" stroke="white" stroke-width="2.016"/>
<path d="M34.2639 88.1201H47.3679M34.7679 92.6561V90.1361H38.7999V92.1521H42.8319V90.1361H40.3119M36.2799 92.1521H37.2879M47.3679 92.1521H44.8479V90.1361H48.8799M48.8799 87.6161V92.1521H52.9119V87.6161M50.8959 87.6161V92.1521" stroke="white" stroke-width="1.008"/>
<path d="M54.424 35.8481H67.5279M54.928 40.3841V37.8641H58.9599V39.8801H62.9919V37.8641H60.4719M56.4399 39.8801H57.4479M67.5279 39.8801H65.0079V37.8641H69.0399M69.0399 35.3441V39.8801H73.0719V35.3441M71.0559 35.3441V39.8801" stroke="white" stroke-width="1.008"/>
<path d="M54.424 42.4H63.496M64.504 42.4H73.576" stroke="white" stroke-width="2.016"/>
<path d="M54.424 85.6001H63.496M64.504 85.6001H73.576" stroke="white" stroke-width="2.016"/>
<path d="M54.424 88.1201H67.5279M54.928 92.6561V90.1361H58.9599V92.1521H62.9919V90.1361H60.4719M56.4399 92.1521H57.4479M67.5279 92.1521H65.0079V90.1361H69.0399M69.0399 87.6161V92.1521H73.0719V87.6161M71.0559 87.6161V92.1521" stroke="white" stroke-width="1.008"/>
<path d="M74.5839 35.8481H87.6879M75.0879 40.3841V37.8641H79.1199V39.8801H83.1519V37.8641H80.6319M76.5999 39.8801H77.6079M87.6879 39.8801H85.1679V37.8641H89.1999M89.1999 35.3441V39.8801H93.2319V35.3441M91.2159 35.3441V39.8801" stroke="white" stroke-width="1.008"/>
<path d="M74.5839 42.4H83.6559M84.6639 42.4H93.7359" stroke="white" stroke-width="2.016"/>
<path d="M74.5839 85.6001H83.6559M84.6639 85.6001H93.7359" stroke="white" stroke-width="2.016"/>
<path d="M74.5839 88.1201H87.6879M75.0879 92.6561V90.1361H79.1199V92.1521H83.1519V90.1361H80.6319M76.5999 92.1521H77.6079M87.6879 92.1521H85.1679V90.1361H89.1999M89.1999 87.6161V92.1521H93.2319V87.6161M91.2159 87.6161V92.1521" stroke="white" stroke-width="1.008"/>
<path d="M94.7439 35.8481H107.848M95.2479 40.3841V37.8641H99.2799V39.8801H103.312V37.8641H100.792M96.7599 39.8801H97.7679M107.848 39.8801H105.328V37.8641H109.36M109.36 35.3441V39.8801H113.392V35.3441M111.376 35.3441V39.8801" stroke="white" stroke-width="1.008"/>
<path d="M94.7439 42.4H103.816M104.824 42.4H113.896" stroke="white" stroke-width="2.016"/>
<path d="M94.7439 85.6001H103.816M104.824 85.6001H113.896" stroke="white" stroke-width="2.016"/>
<path d="M94.7439 88.1201H107.848M95.2479 92.6561V90.1361H99.2799V92.1521H103.312V90.1361H100.792M96.7599 92.1521H97.7679M107.848 92.1521H105.328V90.1361H109.36M109.36 87.6161V92.1521H113.392V87.6161M111.376 87.6161V92.1521" stroke="white" stroke-width="1.008"/>
<path d="M114.904 35.8481H128.008M115.408 40.3841V37.8641H119.44V39.8801H123.472V37.8641H120.952M116.92 39.8801H117.928M128.008 39.8801H125.488V37.8641H129.52M129.52 35.3441V39.8801H133.552V35.3441M131.536 35.3441V39.8801" stroke="white" stroke-width="1.008"/>
<path d="M114.904 42.4H123.976M124.984 42.4H134.056" stroke="white" stroke-width="2.016"/>
<path d="M114.904 85.6001H123.976M124.984 85.6001H134.056" stroke="white" stroke-width="2.016"/>
<path d="M114.904 88.1201H128.008M115.408 92.6561V90.1361H119.44V92.1521H123.472V90.1361H120.952M116.92 92.1521H117.928M128.008 92.1521H125.488V90.1361H129.52M129.52 87.6161V92.1521H133.552V87.6161M131.536 87.6161V92.1521" stroke="white" stroke-width="1.008"/>
<path d="M55.1199 77.5494C58.3665 78.6043 61.8782 78.5024 65.0582 77.2612C68.2382 76.0199 70.8903 73.7158 72.5637 70.7404C74.2371 67.765 74.8287 64.302 74.2378 60.9398C73.6469 57.5777 71.91 54.5239 69.3223 52.2974C71.0061 54.7889 71.9631 57.6999 72.0863 60.7045C72.2095 63.7091 71.494 66.6887 70.0199 69.3097C68.5457 71.9307 66.3712 74.0896 63.7397 75.5449C61.1081 77.0001 58.1235 77.6942 55.1199 77.5494Z" fill="#DA0000"/>
<path d="M74.017 74.7149C76.1508 73.4816 77.8677 71.6394 78.9479 69.4242C80.0281 67.209 80.4223 64.7218 80.08 62.2812C79.7377 59.8406 78.6745 57.5577 77.0266 55.7251C75.3788 53.8926 73.2213 52.5937 70.8306 51.9951C72.5341 53.2758 73.9681 54.88 75.0505 56.7159C76.133 58.5518 76.8425 60.5832 77.1385 62.6937C77.4345 64.8043 77.3112 66.9525 76.7755 69.0153C76.2399 71.0781 75.3025 73.015 74.017 74.7149Z" fill="#DA0000"/>
<path d="M63.9999 80.2001L63.1899 64.0001L63.9999 51.2462C64.492 51.9337 65.1497 52.4858 65.9121 52.8514V62.3735L65.2604 78.4651L63.9999 80.2001Z" fill="#DA0000"/>
<path d="M63.6759 50.2301L63.9999 50.5343C64.3295 51.0029 64.8197 51.3342 65.3774 51.4652C65.9351 51.5962 66.5214 51.5179 67.0252 51.2451C67.529 50.9724 67.9151 50.5241 68.1102 49.9855C68.3052 49.4468 68.2958 48.8553 68.0835 48.3232C67.9999 48.7663 67.7827 49.1732 67.461 49.4893C67.1394 49.8054 66.7288 50.0156 66.2843 50.0915C65.8398 50.1675 65.3826 50.1056 64.9743 49.9143C64.566 49.7229 64.2259 49.4112 63.9999 49.021" fill="#DA0000"/>
<path d="M72.88 77.5494C69.6334 78.6043 66.1217 78.5024 62.9417 77.2612C59.7617 76.0199 57.1096 73.7158 55.4362 70.7404C53.7628 67.765 53.1712 64.302 53.7621 60.9398C54.353 57.5777 56.0899 54.5239 58.6776 52.2974C56.9938 54.7889 56.0368 57.6999 55.9136 60.7045C55.7904 63.7091 56.5059 66.6887 57.98 69.3097C59.4541 71.9307 61.6287 74.0896 64.2602 75.5449C66.8918 77.0001 69.8764 77.6942 72.88 77.5494Z" fill="#DA0000"/>
<path d="M53.9829 74.7149C51.8491 73.4816 50.1321 71.6394 49.052 69.4242C47.9718 67.209 47.5776 64.7218 47.9199 62.2812C48.2622 59.8406 49.3254 57.5577 50.9733 55.7251C52.6211 53.8926 54.7786 52.5937 57.1693 51.9951C55.4658 53.2758 54.0318 54.88 52.9494 56.7159C51.8669 58.5518 51.1574 60.5832 50.8614 62.6937C50.5654 64.8043 50.6887 66.9525 51.2244 69.0153C51.76 71.0781 52.6974 73.015 53.9829 74.7149Z" fill="#DA0000"/>
<path d="M63.9999 80.2001L64.8099 64.0001L63.9999 51.2462C63.5078 51.9337 62.8501 52.4858 62.0878 52.8514V62.3735L62.7394 78.4651L63.9999 80.2001Z" fill="#DA0000"/>
<path d="M64.324 50.2301L64 50.5343C63.6704 51.0029 63.1802 51.3342 62.6225 51.4652C62.0648 51.5962 61.4784 51.5179 60.9747 51.2451C60.4709 50.9724 60.0848 50.5241 59.8897 49.9855C59.6946 49.4468 59.7041 48.8553 59.9164 48.3232C60 48.7663 60.2172 49.1732 60.5388 49.4893C60.8605 49.8054 61.2711 50.0156 61.7156 50.0915C62.1601 50.1675 62.6172 50.1056 63.0256 49.9143C63.4339 49.7229 63.7739 49.4112 64 49.021" fill="#DA0000"/>
</g>
<defs>
<clipPath id="clip0_260_10405">
<rect width="128" height="128" fill="white"/>
</clipPath>
</defs>
</svg>
