<svg width="174" height="42" viewBox="0 0 174 42" fill="none" xmlns="http://www.w3.org/2000/svg">
<path fill-rule="evenodd" clip-rule="evenodd" d="M13.425 0H25.38V27.135H19.26V5.295H13.44V0.0150003L13.425 0ZM164.91 32.865C170.415 32.865 174 29.97 174 25.545C174 19.26 169.44 18.645 165.705 18.15C163.125 17.805 160.95 17.505 160.95 15.435C160.95 13.845 162.3 12.915 164.355 12.915C166.17 12.915 168.18 14.04 168.495 16.23H173.715C173.49 11.67 169.71 8.64 164.22 8.64C159.375 8.64 155.79 11.52 155.79 15.63C155.79 21.39 160.11 22.125 163.74 22.755C166.38 23.205 168.645 23.595 168.645 25.785C168.645 27.18 167.16 28.305 164.925 28.305C162.36 28.305 160.635 26.91 160.395 24.675H155.175C155.46 29.715 159.405 32.88 164.91 32.88V32.865ZM116.34 32.865C122.115 32.865 126.495 29.655 127.38 24.675H121.8C121.2 26.91 119.28 28.125 116.355 28.125C112.725 28.125 110.295 25.695 109.875 21.93H127.2C127.245 21.465 127.29 20.76 127.29 19.98C127.29 14.385 123.57 8.655 115.875 8.655C108.18 8.655 104.37 14.52 104.37 20.67C104.37 26.82 108.66 32.88 116.34 32.88V32.865ZM115.875 12.93C119.28 12.93 121.32 15.165 121.56 18.15H110.01C110.61 14.61 112.665 12.93 115.875 12.93ZM91.155 32.865C88.32 32.865 85.8 31.74 84.495 29.925V41.985H78.81V9H84.495V11.94C85.89 9.93 88.455 8.625 91.575 8.625C98.325 8.625 102.48 13.56 102.48 20.73C102.48 27.9 98.055 32.835 91.155 32.835V32.865ZM96.795 20.76C96.795 16.425 94.275 13.59 90.51 13.59C86.745 13.59 84.135 16.44 84.135 20.76C84.135 25.08 86.655 27.93 90.51 27.93C94.365 27.93 96.795 25.08 96.795 20.76ZM27.66 20.775C27.66 13.815 32.76 8.715 39.9 8.715C47.04 8.715 52.095 13.815 52.095 20.775C52.095 27.735 46.995 32.835 39.9 32.835C32.805 32.835 27.66 27.735 27.66 20.775ZM33.405 20.775C33.405 24.99 36 27.915 39.9 27.915C43.8 27.915 46.35 24.99 46.35 20.775C46.35 16.56 43.755 13.635 39.9 13.635C36.045 13.635 33.405 16.56 33.405 20.775ZM59.04 21.93C59.46 25.68 61.86 28.095 65.49 28.095C68.415 28.095 70.32 26.895 70.92 24.66H76.485C75.6 29.625 71.235 32.82 65.49 32.82C57.84 32.82 53.565 26.79 53.565 20.67C53.565 14.55 57.36 8.715 65.025 8.715C72.69 8.715 76.38 14.415 76.38 19.98C76.38 20.775 76.335 21.465 76.29 21.93H59.04ZM70.68 18.165C70.455 15.195 68.415 12.975 65.025 12.975C61.815 12.975 59.775 14.64 59.175 18.165H70.68ZM19.245 27.12H9.85501V32.4H19.245V27.12ZM147.435 29.88C146.28 31.695 143.565 32.865 140.64 32.865C133.56 32.865 129.45 27.93 129.45 20.76C129.45 13.59 133.545 8.655 140.535 8.655C143.475 8.655 146.025 9.87 147.375 11.685V9.03H153.105V33.81C153.105 38.7 149.565 42 144.3 42H132.705V37.44H143.52C145.8 37.44 147.435 35.715 147.435 33.255V29.895V29.88ZM147.81 20.745C147.81 16.41 145.29 13.575 141.435 13.575C137.58 13.575 135.15 16.41 135.15 20.745C135.15 25.08 137.625 27.915 141.435 27.915C145.245 27.915 147.81 25.065 147.81 20.745ZM4.53 21.78H9.87V27.12H4.53V21.78ZM3.735 17.25H0V20.985H3.735V17.25Z" fill="white"/>
</svg>
