<svg width="234" height="55" viewBox="0 0 234 55" fill="none" xmlns="http://www.w3.org/2000/svg">
<path fill-rule="evenodd" clip-rule="evenodd" d="M27.8876 0.970441C12.9836 0.862441 0.833632 13.0124 0.941632 27.9164C1.04963 42.4424 12.9296 54.2684 27.4556 54.4304C42.4136 54.5384 54.5636 42.3884 54.4016 27.4844C54.2936 12.9584 42.4136 1.07844 27.8876 0.970441ZM19.8952 14.6864C21.5692 16.7924 22.5412 19.4384 22.5412 22.3544C22.5412 24.8384 21.7852 27.1604 20.5432 29.1044H11.5792L19.8952 14.6864ZM47.1123 32.5604C47.2203 32.5064 47.2743 32.3984 47.2743 32.2904L47.2203 30.4004C47.2203 30.2384 47.0043 30.0764 46.8423 30.1304C46.8423 30.1304 37.9863 32.1284 37.8783 32.1824C37.7703 32.2364 37.7163 32.2904 37.7163 32.2904C36.7983 33.4784 34.9083 35.4764 33.8823 35.4764H29.0223V32.2904H32.9103C33.4503 32.2904 33.9903 32.0744 34.3683 31.6964C36.3663 29.6444 37.5003 27.1604 37.5003 24.5144C37.5003 19.9784 34.0983 15.9824 28.9683 13.6064V11.4464C28.9683 10.5284 28.2123 9.77241 27.2943 9.77241C26.3763 9.77241 25.6203 10.5284 25.6203 11.4464V12.3644C24.2163 11.9324 22.7043 11.6084 21.0843 11.4464C23.7303 14.3084 25.3503 18.1424 25.3503 22.3544C25.3503 26.1344 24.0543 29.5904 21.8943 32.3444H25.6743V35.5304H20.1663C19.4103 35.5304 18.8163 34.9364 18.8163 34.1804V32.7764C18.8163 32.5604 18.6543 32.3444 18.3843 32.3444H11.1483C10.9863 32.3444 10.8783 32.4524 10.8783 32.6144C10.8243 38.3384 15.3603 42.6584 20.8143 42.6584H36.2043C38.9695 42.6584 40.571 39.9636 42.1158 37.3644C42.6224 36.512 43.1229 35.6699 43.6563 34.9364C44.5203 33.7484 46.5183 32.8304 47.1123 32.5604Z" fill="white"/>
<g clip-path="url(#clip0_262_6579)">
<path d="M78.1908 42.458C75.75 42.458 73.5063 41.9109 71.4602 40.8164C69.4384 39.7229 67.8233 38.2011 66.6153 36.2507C65.4322 34.277 64.8403 32.0657 64.8403 29.6157C64.8403 27.1662 65.4322 24.9663 66.6153 23.0169C67.8233 21.0664 69.4384 19.5447 71.4602 18.4506C73.5068 17.3566 75.75 16.8096 78.1908 16.8096C80.6316 16.8096 82.8628 17.3566 84.8846 18.4506C86.9312 19.5447 88.5334 21.0664 89.6922 23.0163C90.8759 24.9663 91.4672 27.1662 91.4672 29.6157C91.4672 32.0651 90.8759 34.277 89.6922 36.2507C88.5091 38.2006 86.9058 39.7229 84.8846 40.8169C82.8628 41.9109 80.6316 42.458 78.1908 42.458ZM78.1908 36.8927C80.2617 36.8927 81.9135 36.2269 83.1463 34.8953C84.404 33.5636 85.0326 31.8038 85.0326 29.6157C85.0326 27.4044 84.404 25.6445 83.1463 24.3361C81.9135 23.0045 80.2617 22.3386 78.1908 22.3386C76.0956 22.3386 74.4189 22.9926 73.1612 24.3005C71.9284 25.6089 71.3122 27.3806 71.3122 29.6157C71.3122 31.8275 71.9284 33.5993 73.1612 34.9309C74.4189 36.2388 76.095 36.8927 78.1908 36.8927ZM101.31 25.1213C101.926 24.1935 102.776 23.4446 103.861 22.8738C104.946 22.303 106.216 22.0179 107.67 22.0179C109.371 22.0179 110.913 22.4337 112.293 23.2664C113.674 24.0985 114.758 25.2876 115.547 26.8336C116.361 28.3791 116.768 30.1746 116.768 32.2201C116.768 34.2651 116.361 36.0725 115.547 37.6417C114.759 39.1877 113.674 40.3887 112.293 41.2451C110.913 42.0773 109.372 42.4936 107.67 42.4936C106.241 42.4936 104.97 42.2079 103.861 41.6372C102.776 41.0664 101.926 40.3293 101.31 39.4259V48.1296H94.9858V22.303H101.309L101.31 25.1213ZM110.333 32.2201C110.333 30.6978 109.889 29.5093 109.002 28.6529C108.139 27.7727 107.066 27.3331 105.784 27.3331C104.527 27.3331 103.455 27.7727 102.567 28.6529C101.704 29.5331 101.273 30.7335 101.273 32.2557C101.273 33.7775 101.705 34.9784 102.567 35.8586C103.455 36.7388 104.527 37.1784 105.784 37.1784C107.042 37.1784 108.114 36.7383 109.002 35.8586C109.889 34.9547 110.333 33.7418 110.333 32.2201ZM139.538 31.935C139.536 32.531 139.5 33.1264 139.427 33.7181H125.115C125.214 34.9547 125.621 35.9061 126.336 36.572C127.075 37.214 127.975 37.5348 129.036 37.5348C130.613 37.5348 131.71 36.8927 132.327 35.6086H139.057C138.712 36.9165 138.084 38.0937 137.171 39.1402C136.284 40.1867 135.162 41.007 133.806 41.6015C132.45 42.1961 130.934 42.4936 129.257 42.4936C127.236 42.4936 125.436 42.0773 123.858 41.2451C122.28 40.4124 121.047 39.2234 120.16 37.6779C119.272 36.1319 118.828 34.3245 118.828 32.2557C118.828 30.1865 119.26 28.3791 120.123 26.8336C121.01 25.2876 122.243 24.0985 123.821 23.2664C125.399 22.4337 127.211 22.0179 129.257 22.0179C131.254 22.0179 133.029 22.4218 134.582 23.2307C136.136 24.0391 137.344 25.1925 138.207 26.6905C139.095 28.189 139.538 29.9375 139.538 31.935ZM133.067 30.329C133.067 29.283 132.697 28.4504 131.957 27.8321C131.217 27.2138 130.293 26.9049 129.183 26.9049C128.123 26.9049 127.223 27.2019 126.483 27.7964C125.769 28.391 125.325 29.2355 125.152 30.329H133.067ZM155.449 22.0892C157.865 22.0892 159.787 22.85 161.217 24.3723C162.672 25.8702 163.4 27.939 163.4 30.579V42.2079H157.112V31.3993C157.112 30.0677 156.755 29.033 156.04 28.2959C155.325 27.5588 154.364 27.19 153.156 27.19C151.947 27.19 150.986 27.5588 150.271 28.2959C149.556 29.033 149.199 30.0677 149.199 31.3993V42.2079H142.875V22.3035H149.199V24.9431C149.84 24.0629 150.702 23.3733 151.787 22.8738C152.872 22.3505 154.092 22.0892 155.449 22.0892ZM177.187 42.458C175.289 42.458 173.588 42.161 172.084 41.5659C170.58 40.9719 169.372 40.0917 168.46 38.9264C167.572 37.761 167.103 36.3576 167.054 34.7171H173.785C173.884 35.6442 174.216 36.3576 174.784 36.8571C175.351 37.3328 176.09 37.5709 177.003 37.5709C177.94 37.5709 178.679 37.3685 179.222 36.9645C179.764 36.5363 180.035 35.9537 180.035 35.2166C180.035 34.5977 179.813 34.0869 179.369 33.6824C178.95 33.278 178.42 32.9453 177.779 32.6834C177.162 32.4221 176.275 32.1245 175.116 31.7919C173.44 31.2924 172.071 30.7929 171.011 30.2934C169.951 29.7944 169.039 29.0568 168.275 28.0821C167.511 27.1068 167.128 25.8346 167.128 24.2648C167.128 21.9347 168.004 20.1149 169.754 18.807C171.504 17.4754 173.785 16.8096 176.595 16.8096C179.456 16.8096 181.761 17.4754 183.511 18.8076C185.262 20.1149 186.199 21.9466 186.322 24.3005H179.48C179.431 23.4921 179.123 22.8619 178.556 22.4105C177.989 21.9347 177.261 21.6966 176.374 21.6966C175.609 21.6966 174.993 21.8985 174.525 22.303C174.056 22.6837 173.822 23.2426 173.822 23.9797C173.822 24.7881 174.216 25.4183 175.006 25.8702C175.795 26.3222 177.027 26.8098 178.704 27.3331C180.38 27.8796 181.736 28.4028 182.771 28.9023C183.832 29.4018 184.744 30.1271 185.508 31.0785C186.273 32.0295 186.655 33.2547 186.655 34.7527C186.655 36.1794 186.273 37.4754 185.508 38.6407C184.769 39.806 183.684 40.7337 182.254 41.4233C180.824 42.1129 179.135 42.458 177.187 42.458ZM209.999 31.935C209.999 32.5052 209.962 33.0998 209.888 33.7181H195.576C195.675 34.9547 196.081 35.9061 196.796 36.572C197.536 37.214 198.436 37.5348 199.496 37.5348C201.074 37.5348 202.172 36.8927 202.788 35.6086H209.518C209.173 36.9165 208.545 38.0937 207.633 39.1402C206.745 40.1867 205.623 41.007 204.267 41.6015C202.911 42.1961 201.394 42.4936 199.718 42.4936C197.697 42.4936 195.897 42.0773 194.319 41.2451C192.741 40.4124 191.508 39.2234 190.62 37.6779C189.733 36.1319 189.289 34.3245 189.289 32.2557C189.289 30.1865 189.721 28.3791 190.584 26.8336C191.471 25.2876 192.704 24.0985 194.282 23.2664C195.859 22.4337 197.672 22.0179 199.718 22.0179C201.715 22.0179 203.49 22.4218 205.044 23.2307C206.597 24.0391 207.805 25.1925 208.668 26.6905C209.555 28.189 209.999 29.9375 209.999 31.935ZM203.527 30.329C203.527 29.283 203.158 28.4504 202.418 27.8321C201.678 27.2138 200.753 26.9049 199.644 26.9049C198.584 26.9049 197.684 27.2019 196.944 27.7964C196.229 28.391 195.785 29.2355 195.613 30.329H203.527ZM212.078 32.2201C212.078 30.1746 212.473 28.3791 213.262 26.8336C214.075 25.2876 215.172 24.0985 216.553 23.2664C217.934 22.4337 219.474 22.0179 221.176 22.0179C222.63 22.0179 223.9 22.303 224.985 22.8738C226.094 23.4446 226.945 24.1935 227.536 25.1213V22.303H233.86V42.2079H227.536V39.3902C226.92 40.3174 226.057 41.0664 224.948 41.6372C223.863 42.2079 222.593 42.4936 221.138 42.4936C219.462 42.4936 217.934 42.0773 216.553 41.2451C215.172 40.3887 214.075 39.1877 213.262 37.6422C212.473 36.0725 212.078 34.2651 212.078 32.2201ZM227.536 32.2557C227.536 30.7335 227.093 29.5325 226.205 28.6529C225.342 27.7727 224.282 27.3331 223.025 27.3331C221.767 27.3331 220.695 27.7727 219.807 28.6529C218.944 29.5087 218.513 30.6978 218.513 32.2201C218.513 33.7418 218.944 34.9547 219.807 35.8586C220.695 36.7388 221.767 37.1784 223.025 37.1784C224.282 37.1784 225.342 36.7383 226.205 35.8586C227.093 34.9784 227.536 33.7775 227.536 32.2557Z" fill="white"/>
</g>
<defs>
<clipPath id="clip0_262_6579">
<rect width="169.02" height="31.32" fill="white" transform="translate(64.8403 16.8096)"/>
</clipPath>
</defs>
</svg>
