<svg width="104" height="98" viewBox="0 0 104 98" fill="none" xmlns="http://www.w3.org/2000/svg">
<rect x="-20" y="80.0664" width="150" height="24" transform="rotate(-45 -20 80.0664)" fill="white" fill-opacity="0.6"/>
<path d="M66.0042 16.2728L61.3759 11.6444L62.4335 10.5868L63.2049 11.3582L63.2531 11.3099C63.0703 10.9584 63.009 10.6079 63.0693 10.2583C63.1296 9.90477 63.2923 9.59541 63.5574 9.33025C63.6177 9.26998 63.688 9.2057 63.7684 9.1374C63.8487 9.06508 63.919 9.00884 63.9793 8.96866L64.9827 9.97207C64.9204 10.0022 64.8331 10.0615 64.7206 10.1498C64.6081 10.2342 64.5056 10.3226 64.4132 10.415C64.2143 10.6139 64.0787 10.8359 64.0064 11.0809C63.9341 11.322 63.9281 11.5631 63.9883 11.8041C64.0486 12.0452 64.1772 12.2641 64.374 12.461L67.095 15.182L66.0042 16.2728Z" fill="#28282E"/>
<path d="M62.5574 19.907C62.2641 20.2003 61.9477 20.4123 61.6082 20.5428C61.2687 20.6694 60.9272 20.6975 60.5837 20.6272C60.2422 20.5549 59.9198 20.3671 59.6165 20.0637C59.3553 19.8026 59.1876 19.5384 59.1132 19.2712C59.0389 19.0041 59.0339 18.7359 59.0982 18.4667C59.1625 18.1975 59.2729 17.9324 59.4296 17.6712C59.5863 17.406 59.7651 17.1489 59.966 16.8998C60.2091 16.6005 60.4039 16.3554 60.5506 16.1646C60.6952 15.9717 60.7816 15.813 60.8097 15.6885C60.8378 15.5599 60.7997 15.4434 60.6952 15.339L60.6771 15.3209C60.4501 15.0939 60.2071 14.9854 59.9479 14.9955C59.6888 15.0055 59.4327 15.1371 59.1795 15.3902C58.9124 15.6574 58.7587 15.9275 58.7185 16.2007C58.6803 16.4719 58.7135 16.714 58.818 16.9269L57.6548 17.8008C57.454 17.4392 57.3515 17.0716 57.3475 16.6979C57.3415 16.3223 57.4248 15.9537 57.5976 15.5921C57.7683 15.2285 58.0154 14.885 58.3388 14.5615C58.5618 14.3386 58.8099 14.1427 59.0831 13.974C59.3563 13.8052 59.6446 13.6897 59.9479 13.6274C60.2492 13.5632 60.5576 13.5782 60.873 13.6726C61.1904 13.765 61.5027 13.9649 61.8101 14.2723L64.9077 17.3699L63.8591 18.4185L63.2233 17.7827L63.1871 17.8189C63.2494 18.0137 63.2765 18.2277 63.2685 18.4607C63.2605 18.6897 63.2002 18.9287 63.0877 19.1778C62.9752 19.4229 62.7984 19.666 62.5574 19.907ZM62.0391 18.8223C62.2581 18.6033 62.4047 18.3703 62.479 18.1232C62.5514 17.8741 62.5584 17.634 62.5001 17.403C62.4439 17.17 62.3304 16.9681 62.1596 16.7974L61.6142 16.252C61.6082 16.3142 61.5761 16.3986 61.5178 16.5051C61.4616 16.6095 61.3923 16.721 61.3099 16.8396C61.2275 16.9581 61.1442 17.0736 61.0598 17.1861C60.9754 17.2986 60.9021 17.396 60.8398 17.4784C60.6992 17.6632 60.5897 17.845 60.5114 18.0238C60.433 18.2025 60.4019 18.3743 60.418 18.539C60.432 18.7017 60.5094 18.8534 60.65 18.994C60.8509 19.1949 61.0759 19.2733 61.325 19.2291C61.5741 19.1849 61.8121 19.0493 62.0391 18.8223Z" fill="#28282E"/>
<path d="M53.8393 16.0957L60.0104 22.2668L58.9196 23.3576L52.7485 17.1865L53.8393 16.0957Z" fill="#28282E"/>
<path d="M54.7607 23.6234L52.0789 20.9416L53.1697 19.8508L57.798 24.4792L56.7403 25.5368L55.9177 24.7142L55.8695 24.7624C56.0242 25.126 56.0644 25.5097 55.9901 25.9135C55.9177 26.3153 55.7078 26.6899 55.3603 27.0374C55.057 27.3408 54.7215 27.5416 54.3539 27.6401C53.9862 27.7345 53.6076 27.7174 53.2179 27.5888C52.8262 27.4583 52.4455 27.2082 52.0759 26.8385L49.1289 23.8916L50.2197 22.8008L52.9979 25.579C53.2912 25.8723 53.6046 26.025 53.938 26.037C54.2715 26.0491 54.5688 25.9245 54.83 25.6634C54.9907 25.5027 55.1072 25.3078 55.1795 25.0788C55.2518 24.8498 55.2588 24.6098 55.2006 24.3587C55.1423 24.1035 54.9957 23.8585 54.7607 23.6234Z" fill="#28282E"/>
<path d="M50.1894 35.559L43.8254 29.195L44.8981 28.1223L45.6635 28.8877L45.7268 28.8244C45.6705 28.6557 45.6303 28.4568 45.6062 28.2278C45.5801 27.9968 45.6092 27.7487 45.6936 27.4835C45.776 27.2163 45.9527 26.9472 46.2239 26.676C46.5815 26.3184 46.9953 26.0874 47.4654 25.9829C47.9355 25.8744 48.4326 25.9136 48.9569 26.1004C49.4813 26.2832 50.0005 26.6318 50.5148 27.146C51.023 27.6543 51.3716 28.1695 51.5604 28.6918C51.7492 29.2141 51.7934 29.7123 51.693 30.1864C51.5925 30.6605 51.3605 31.0793 50.9969 31.4429C50.7317 31.7081 50.4676 31.8838 50.2044 31.9702C49.9413 32.0566 49.6942 32.0908 49.4632 32.0727C49.2322 32.0506 49.0313 32.0124 48.8605 31.9582L48.8153 32.0034L51.2802 34.4682L50.1894 35.559ZM47.2093 30.4395C47.5086 30.7388 47.8129 30.9588 48.1223 31.0994C48.4336 31.238 48.733 31.2902 49.0202 31.2561C49.3075 31.2179 49.5666 31.0833 49.7976 30.8523C50.0387 30.6113 50.1763 30.3451 50.2105 30.0538C50.2426 29.7605 50.1874 29.4602 50.0447 29.1528C49.9021 28.8415 49.6862 28.5412 49.3969 28.2519C49.1096 27.9646 48.8133 27.7507 48.508 27.6101C48.2026 27.4694 47.9053 27.4172 47.6161 27.4534C47.3268 27.4895 47.0606 27.6292 46.8175 27.8722C46.5845 28.1052 46.4479 28.3644 46.4077 28.6496C46.3676 28.9349 46.4158 29.2302 46.5524 29.5355C46.691 29.8389 46.91 30.1402 47.2093 30.4395Z" fill="#28282E"/>
<path d="M45.4006 37.0573C44.9486 37.5093 44.4574 37.8016 43.9271 37.9342C43.3967 38.0668 42.8614 38.0457 42.321 37.8709C41.7827 37.6941 41.2744 37.3667 40.7963 36.8886C40.3182 36.4105 39.9898 35.9013 39.811 35.3609C39.6342 34.8185 39.6121 34.2822 39.7447 33.7518C39.8773 33.2215 40.1696 32.7303 40.6216 32.2783C41.0735 31.8264 41.5647 31.5341 42.095 31.4015C42.6254 31.2689 43.1607 31.292 43.7011 31.4708C44.2435 31.6476 44.7537 31.975 45.2318 32.4531C45.7099 32.9312 46.0363 33.4405 46.2111 33.9808C46.3879 34.5192 46.41 35.0535 46.2774 35.5839C46.1448 36.1142 45.8525 36.6054 45.4006 37.0573ZM44.5327 36.1775C44.7778 35.9324 44.9154 35.6602 44.9456 35.3609C44.9737 35.0596 44.9134 34.7542 44.7648 34.4449C44.6181 34.1335 44.4042 33.8372 44.1229 33.556C43.8397 33.2727 43.5424 33.0578 43.231 32.9111C42.9197 32.7605 42.6133 32.6992 42.312 32.7273C42.0107 32.7554 41.7375 32.892 41.4924 33.1371C41.2413 33.3882 41.1007 33.6654 41.0705 33.9688C41.0424 34.2701 41.1027 34.5775 41.2513 34.8908C41.4 35.2002 41.6159 35.4965 41.8992 35.7797C42.1804 36.061 42.4757 36.2759 42.7851 36.4246C43.0964 36.5712 43.4028 36.6305 43.7041 36.6023C44.0054 36.5702 44.2816 36.4286 44.5327 36.1775Z" fill="#28282E"/>
<path d="M39.7235 46.0248L33.3596 39.6609L34.4323 38.5881L35.1977 39.3535L35.2609 39.2902C35.2047 39.1215 35.1645 38.9226 35.1404 38.6936C35.1143 38.4626 35.1434 38.2145 35.2278 37.9493C35.3102 37.6822 35.4869 37.413 35.7581 37.1418C36.1157 36.7842 36.5295 36.5532 36.9996 36.4487C37.4696 36.3403 37.9668 36.3794 38.4911 36.5663C39.0154 36.7491 39.5347 37.0976 40.049 37.6118C40.5572 38.1201 40.9057 38.6353 41.0946 39.1576C41.2834 39.6799 41.3276 40.1781 41.2271 40.6522C41.1267 41.1263 40.8947 41.5451 40.5311 41.9087C40.2659 42.1739 40.0018 42.3497 39.7386 42.436C39.4755 42.5224 39.2284 42.5566 38.9974 42.5385C38.7663 42.5164 38.5655 42.4782 38.3947 42.424L38.3495 42.4692L40.8143 44.934L39.7235 46.0248ZM36.7434 40.9053C37.0428 41.2046 37.3471 41.4246 37.6565 41.5652C37.9678 41.7038 38.2671 41.7561 38.5544 41.7219C38.8417 41.6837 39.1008 41.5491 39.3318 41.3181C39.5729 41.0771 39.7105 40.8109 39.7446 40.5196C39.7768 40.2263 39.7215 39.926 39.5789 39.6187C39.4363 39.3073 39.2203 39.007 38.9311 38.7177C38.6438 38.4304 38.3475 38.2165 38.0422 38.0759C37.7368 37.9353 37.4395 37.883 37.1502 37.9192C36.861 37.9554 36.5948 38.095 36.3517 38.338C36.1187 38.5711 35.9821 38.8302 35.9419 39.1155C35.9017 39.4007 35.95 39.696 36.0866 40.0013C36.2252 40.3047 36.4441 40.606 36.7434 40.9053Z" fill="#28282E"/>
<path d="M30.3428 42.6777L31.1865 43.5214L28.5258 46.1821L27.6821 45.3384L30.3428 42.6777ZM27.2301 43.5726L28.3209 42.4818L32.666 46.8269C32.8127 46.9735 32.9472 47.0639 33.0698 47.0981C33.1923 47.1282 33.3048 47.1202 33.4073 47.074C33.5097 47.0278 33.6061 46.9595 33.6965 46.8691C33.7648 46.8008 33.8221 46.7335 33.8683 46.6672C33.9165 46.5989 33.9517 46.5457 33.9738 46.5075L35.0103 47.1764C34.9721 47.2548 34.9109 47.3602 34.8265 47.4928C34.7441 47.6234 34.6276 47.768 34.477 47.9267C34.2118 48.208 33.9245 48.4129 33.6152 48.5414C33.3038 48.668 32.9874 48.6991 32.666 48.6348C32.3466 48.5686 32.0433 48.3898 31.756 48.0985L27.2301 43.5726Z" fill="#28282E"/>
<path d="M28.256 47.2107L27.3701 48.3136C27.2415 48.2412 27.0979 48.196 26.9392 48.178C26.7825 48.1579 26.6188 48.179 26.448 48.2412C26.2773 48.3035 26.1075 48.419 25.9388 48.5878C25.7118 48.8148 25.5702 49.0548 25.5139 49.3079C25.4597 49.559 25.5119 49.7619 25.6706 49.9166C25.8032 50.0532 25.9619 50.1135 26.1467 50.0974C26.3335 50.0793 26.5716 49.9799 26.8609 49.7991L27.8191 49.1784C28.3514 48.8348 28.8265 48.6591 29.2443 48.651C29.6642 48.641 30.0408 48.8007 30.3743 49.1301C30.6636 49.4234 30.8353 49.7659 30.8896 50.1577C30.9438 50.5454 30.8845 50.9501 30.7118 51.372C30.539 51.7938 30.2598 52.1976 29.8741 52.5833C29.3076 53.1498 28.7331 53.4873 28.1505 53.5958C27.566 53.7022 27.0276 53.5757 26.5354 53.2161L27.4967 52.05C27.7538 52.2107 28.0139 52.2659 28.2771 52.2157C28.5402 52.1655 28.7974 52.0148 29.0485 51.7637C29.3076 51.5046 29.4623 51.2434 29.5125 50.9803C29.5647 50.7151 29.5125 50.5042 29.3558 50.3475C29.2232 50.2149 29.0625 50.1566 28.8737 50.1727C28.6869 50.1868 28.4639 50.2772 28.2048 50.4439L27.2496 51.0677C26.7132 51.4192 26.2291 51.592 25.7972 51.5859C25.3633 51.5779 24.9786 51.4041 24.6431 51.0646C24.3559 50.7814 24.1861 50.457 24.1339 50.0914C24.0816 49.7217 24.1389 49.3391 24.3056 48.9433C24.4724 48.5436 24.7405 48.1589 25.1102 47.7892C25.6525 47.2469 26.1949 46.9355 26.7373 46.8551C27.2817 46.7728 27.7879 46.8913 28.256 47.2107Z" fill="#28282E"/>
<path d="M24.9499 57.5085C24.4979 57.9605 24.0067 58.2528 23.4764 58.3854C22.9461 58.518 22.4107 58.4969 21.8703 58.3221C21.332 58.1453 20.8237 57.8179 20.3456 57.3398C19.8675 56.8617 19.5391 56.3524 19.3603 55.8121C19.1835 55.2697 19.1614 54.7333 19.294 54.203C19.4266 53.6727 19.7189 53.1815 20.1709 52.7295C20.6229 52.2775 21.114 51.9853 21.6443 51.8527C22.1747 51.7201 22.71 51.7432 23.2504 51.922C23.7928 52.0988 24.303 52.4262 24.7811 52.9043C25.2592 53.3824 25.5857 53.8916 25.7604 54.432C25.9372 54.9704 25.9593 55.5047 25.8267 56.035C25.6941 56.5654 25.4019 57.0565 24.9499 57.5085ZM24.0821 56.6287C24.3271 56.3836 24.4647 56.1114 24.4949 55.8121C24.523 55.5107 24.4627 55.2054 24.3141 54.896C24.1674 54.5847 23.9535 54.2884 23.6723 54.0071C23.389 53.7239 23.0917 53.5089 22.7803 53.3623C22.469 53.2116 22.1626 53.1504 21.8613 53.1785C21.56 53.2066 21.2868 53.3432 21.0417 53.5883C20.7906 53.8394 20.65 54.1166 20.6198 54.4199C20.5917 54.7213 20.652 55.0286 20.8006 55.342C20.9493 55.6514 21.1652 55.9477 21.4485 56.2309C21.7297 56.5121 22.025 56.7271 22.3344 56.8757C22.6457 57.0224 22.9521 57.0816 23.2534 57.0535C23.5547 57.0214 23.8309 56.8798 24.0821 56.6287Z" fill="#28282E"/>
<path d="M9.02783 60.9072L10.3958 59.5392L16.6995 62.1788L16.7719 62.1065L14.1323 55.8028L15.5003 54.4348L21.6714 60.6059L20.5987 61.6786L16.359 57.439L16.3018 57.4962L18.8178 63.4233L18.0163 64.2248L12.0802 61.6997L12.023 61.757L16.2717 66.0056L15.1989 67.0783L9.02783 60.9072Z" fill="#28282E"/>
</svg>
