<svg width="96" height="96" viewBox="0 0 96 96" fill="none" xmlns="http://www.w3.org/2000/svg">
<g clip-path="url(#clip0_262_6600)">
<path opacity="0.6" d="M37.6786 0H73.5125C78.7991 0 81.4583 0 83.0094 0.753024C84.7188 1.57747 85.7635 2.96621 85.89 4.47341C85.9845 5.85197 84.6762 7.53178 82.0583 10.8929L82.0577 10.8937L81.9965 10.9724L64.1107 33.8129C61.4832 37.1802 60.1538 38.852 58.5076 39.4879C56.7041 40.1708 54.5815 40.1708 52.7781 39.4879C51.1438 38.8689 49.871 37.268 47.3512 34.0984L47.3476 34.0936L47.1433 33.8365L29.1938 10.996C29.1062 10.8835 29.0204 10.7727 28.9346 10.6639H28.9344C26.4466 7.47014 25.1769 5.84045 25.2677 4.49645C25.3639 2.9904 26.4397 1.60051 28.1487 0.776064C29.7325 0 32.3923 0 37.6786 0ZM48.2162 96H12.3822C7.09572 96 4.43671 96 2.88535 95.247C1.17597 94.4225 0.131303 93.0338 0.0047746 91.5266C-0.0896894 90.1482 1.2186 88.4682 3.83652 85.1071L3.83709 85.1063L3.89853 85.0276L21.7841 62.1871C24.4116 58.8198 25.741 57.148 27.3872 56.5121C29.1907 55.8292 31.3133 55.8292 33.1167 56.5121C34.751 57.1311 36.0238 58.732 38.5436 61.9016L38.5474 61.9064L38.7515 62.1635L56.701 85.004C56.7886 85.1165 56.8744 85.2273 56.9602 85.3359L56.9604 85.3363C59.4484 88.5299 60.7179 90.1596 60.627 91.5036C60.5308 93.0096 59.4551 94.3995 57.7461 95.2239C56.1623 96 53.5025 96 48.2162 96Z" fill="#D13248"/>
<path fill-rule="evenodd" clip-rule="evenodd" d="M62.3116 96H84.8824C89.6251 96 91.9677 96 93.3962 95.2636C94.9391 94.4576 95.8818 93.1225 95.9963 91.6487C96.0821 90.291 94.9105 88.6329 92.5677 85.3176L36.838 6.16411C34.4666 2.80277 33.2666 1.12219 31.7525 0.500688C30.124 -0.166896 28.1811 -0.166896 26.5526 0.500688C25.0383 1.12219 23.8383 2.80277 21.4671 6.16411L9.95166 22.3614C7.39038 25.9674 6.0917 27.796 5.52453 29.7152C4.89612 31.8023 4.89612 34.0282 5.52453 36.1153C6.09611 38.0492 7.38174 39.891 9.98162 43.5513L39.2551 85.2487L39.3309 85.3555C41.9089 88.9912 43.2155 90.8338 45.0264 92.2239C46.9977 93.7438 49.3691 94.8481 51.9691 95.4708C54.3405 96 56.9974 96 62.3116 96Z" fill="#F90951"/>
</g>
<defs>
<clipPath id="clip0_262_6600">
<rect width="96" height="96" fill="white"/>
</clipPath>
</defs>
</svg>
