<svg width="128" height="128" viewBox="0 0 128 128" fill="none" xmlns="http://www.w3.org/2000/svg">
<rect width="128" height="128" rx="64" fill="white"/>
<path d="M52.5842 49.499C55.3363 49.499 57.8311 50.0944 60.0684 51.2837C62.3042 52.4729 64.0679 54.1573 65.3595 56.3368C66.6495 58.5147 67.2953 61.0295 67.2953 63.878C67.2953 66.7265 66.6321 69.2413 65.3074 71.4193C63.9826 73.5972 62.1937 75.2815 59.9405 76.4723C57.6874 77.6616 55.1658 78.257 52.3789 78.257C49.5921 78.257 47.1495 77.6616 44.9468 76.4723C42.7442 75.2831 41.0153 73.5987 39.76 71.4193C39.6179 71.1733 39.4837 70.9226 39.3574 70.6672C39.2247 70.9226 39.0842 71.1733 38.9342 71.4193C37.6095 73.5972 35.8205 75.2815 33.5658 76.4723C31.3126 77.6616 28.7911 78.257 26.0042 78.257C23.2174 78.257 20.7747 77.6616 18.5721 76.4723C16.3695 75.2831 14.6405 73.5987 13.3853 71.4193C12.1284 69.2413 11.5 66.7265 11.5 63.878C11.5 61.0295 12.1458 58.5147 13.4358 56.3368C14.7258 54.1588 16.4895 52.4745 18.7268 51.2837C20.9626 50.0944 23.4574 49.499 26.2095 49.499C28.9616 49.499 31.4563 50.0944 33.6937 51.2837C35.9295 52.4729 37.6932 54.1573 38.9847 56.3368C39.1316 56.5843 39.2689 56.835 39.3984 57.0904C39.5263 56.835 39.6637 56.5843 39.8105 56.3368C41.1005 54.1588 42.8642 52.4745 45.1016 51.2837C47.3374 50.0944 49.8321 49.499 52.5858 49.499H52.5842ZM52.5842 56.3368C51.1347 56.3368 49.8226 56.6486 48.6447 57.2722C47.4668 57.8958 46.54 58.7795 45.8611 59.9217C45.1821 61.0639 44.8426 62.3832 44.8426 63.8764C44.8426 65.3696 45.1726 66.6889 45.8342 67.8312C46.4958 68.9734 47.4053 69.8571 48.5642 70.4807C49.7232 71.1043 51.0274 71.4161 52.4768 71.4161C53.9263 71.4161 55.27 71.1043 56.4558 70.4807C57.6416 69.8571 58.5842 68.9734 59.2805 67.8312C59.9784 66.6889 60.3258 65.3696 60.3258 63.8764C60.3258 62.3832 59.9863 61.0639 59.3074 59.9217C58.6284 58.7795 57.7 57.8958 56.5237 57.2722C55.3458 56.6486 54.0337 56.3368 52.5842 56.3368ZM26.3389 56.3368C24.8895 56.3368 23.5774 56.6486 22.3995 57.2722C21.2216 57.8958 20.2947 58.7795 19.6158 59.9217C18.9368 61.0639 18.5974 62.3832 18.5974 63.8764C18.5974 65.3696 18.9274 66.6889 19.5889 67.8312C20.2505 68.9734 21.16 69.8571 22.3189 70.4807C23.4779 71.1043 24.7821 71.4161 26.23 71.4161C27.6779 71.4161 29.0232 71.1043 30.2089 70.4807C31.3947 69.8571 32.3374 68.9734 33.0337 67.8312H38.3279C38.0247 66.5934 37.8732 65.2756 37.8732 63.8764C37.8732 62.6371 37.9947 61.4619 38.2395 60.3495H33.0337C32.5332 58.9142 31.4532 57.8942 30.2768 57.2706C29.0989 56.647 27.7868 56.3352 26.3374 56.3352L26.3389 56.3368ZM102.409 49.499C105.128 49.499 107.562 50.0694 109.712 51.2085C111.863 52.3476 113.532 53.9645 114.719 56.0594C115.906 58.1543 116.5 60.5594 116.5 63.2748C116.5 64.2807 116.431 65.1848 116.293 65.9901H95.3895L95.4195 66.2878C95.6358 68.1571 96.3479 69.633 97.5574 70.7157C98.83 71.8548 100.396 72.4252 102.255 72.4252C104.939 72.4252 106.848 71.3017 107.983 69.0564H115.777L115.669 69.3886C114.817 71.9206 113.271 74.0124 111.029 75.667C108.689 77.3937 105.815 78.2554 102.409 78.2554C99.6574 78.2554 97.1879 77.66 95.0026 76.4708C92.8174 75.2815 91.1153 73.5972 89.8932 71.4177C88.671 69.2398 88.0616 66.725 88.0616 63.8764C88.0616 61.4165 88.5005 59.2119 89.3784 57.2643H87.111L86.7937 57.269C85.3332 57.3082 84.1347 57.6231 83.1968 58.2123C82.1926 58.8437 81.4647 59.7071 81.0132 60.8023C80.5616 61.8975 80.3358 63.1479 80.3358 64.5533V71.6997H88.1642V78.1348H66.7332V71.6997H72.5137V56.8209H66.7332V50.3859H79.7547L79.9932 55.2055L80.1921 54.8608C80.6658 54.0695 81.2216 53.3597 81.8579 52.7283C82.5858 52.0076 83.4874 51.4372 84.5626 51.0173C85.6379 50.5958 86.9421 50.3859 88.4768 50.3859H91.7784V53.6606C92.6816 52.7079 93.73 51.9073 94.9268 51.2602C97.0947 50.0866 99.5895 49.5006 102.411 49.5006L102.409 49.499ZM102.203 55.2807C100.414 55.2807 98.9074 55.8087 97.6868 56.8648C96.4647 57.9208 95.7163 59.3874 95.4416 61.2645H109.016C108.981 59.4548 108.31 58.0055 107.003 56.9149C105.695 55.8244 104.096 55.2807 102.203 55.2807Z" fill="#111111"/>
</svg>
