<svg width="32" height="32" viewBox="0 0 32 32" fill="none" xmlns="http://www.w3.org/2000/svg">
<path d="M29.0743 13.389H28.0003V13.3337H16.0003V18.667H23.5357C22.4363 21.7717 19.4823 24.0003 16.0003 24.0003C11.5823 24.0003 8.00033 20.4183 8.00033 16.0003C8.00033 11.5823 11.5823 8.00033 16.0003 8.00033C18.0397 8.00033 19.895 8.76966 21.3077 10.0263L25.079 6.25499C22.6977 4.03566 19.5123 2.66699 16.0003 2.66699C8.63699 2.66699 2.66699 8.63699 2.66699 16.0003C2.66699 23.3637 8.63699 29.3337 16.0003 29.3337C23.3637 29.3337 29.3337 23.3637 29.3337 16.0003C29.3337 15.1063 29.2417 14.2337 29.0743 13.389Z" fill="#FFC107"/>
<path d="M4.2041 9.79433L8.58477 13.007C9.7701 10.0723 12.6408 8.00033 16.0001 8.00033C18.0394 8.00033 19.8948 8.76966 21.3074 10.0263L25.0788 6.25499C22.6974 4.03566 19.5121 2.66699 16.0001 2.66699C10.8788 2.66699 6.43743 5.55833 4.2041 9.79433Z" fill="#FF3D00"/>
<path d="M15.9999 29.3338C19.4439 29.3338 22.5732 28.0158 24.9392 25.8725L20.8125 22.3805C19.4739 23.3945 17.8099 24.0005 15.9999 24.0005C12.5319 24.0005 9.58722 21.7891 8.47788 18.7031L4.12988 22.0531C6.33655 26.3711 10.8179 29.3338 15.9999 29.3338Z" fill="#4CAF50"/>
<path d="M29.074 13.3883H28V13.333H16V18.6663H23.5353C23.0073 20.1577 22.048 21.4437 20.8107 22.3803L20.8127 22.379L24.9393 25.871C24.6473 26.1363 29.3333 22.6663 29.3333 15.9997C29.3333 15.1057 29.2413 14.233 29.074 13.3883Z" fill="#1976D2"/>
</svg>
