<svg width="24" height="24" viewBox="0 0 24 24" fill="none" xmlns="http://www.w3.org/2000/svg">
<path d="M12 2.6C16.2543 2.6 19.7705 5.76309 20.3241 9.86543C19.3179 9.27989 18.4655 8.96634 17.532 9.02331C16.6553 9.07681 15.7849 9.45521 14.7264 10.0437C13.6947 9.37489 12.7611 8.98695 11.7959 8.98695C10.823 8.98695 9.91913 9.38068 8.94895 10.0576C8.93893 10.0526 8.92864 10.0474 8.9181 10.0421C8.82937 9.99722 8.72282 9.94336 8.61045 9.88947C8.29003 9.7358 7.87251 9.55673 7.37381 9.4327C6.38908 9.18778 5.12303 9.1673 3.6723 9.89245C4.21404 5.77699 7.73639 2.6 12 2.6Z" stroke="currentColor" stroke-width="1.2"/>
<path d="M12 2.29999C13.1333 2.81427 15.4 4.97427 15.4 9.49999" stroke="currentColor" stroke-width="1.3" stroke-linecap="round"/>
<path d="M12 2.29999C10.8667 2.81427 8.6 4.97427 8.6 9.49999" stroke="currentColor" stroke-width="1.3" stroke-linecap="round"/>
<path fill-rule="evenodd" clip-rule="evenodd" d="M10.5419 16.3775L9.13141 12.1916C9.02559 11.8776 9.19438 11.5372 9.5084 11.4314C9.82242 11.3256 10.1628 11.4944 10.2686 11.8084L11.6865 16.0162C11.7895 16.0055 11.8941 16 12 16C12.1048 16 12.2083 16.0054 12.3103 16.0159L13.6275 11.8203C13.7268 11.5041 14.0636 11.3283 14.3797 11.4276C14.6959 11.5268 14.8717 11.8636 14.7724 12.1797L13.455 16.3759C13.6581 16.4887 13.8467 16.6244 14.0173 16.7795L16.8773 11.7054C17.04 11.4167 17.4059 11.3146 17.6946 11.4773C17.9833 11.64 18.0854 12.0059 17.9227 12.2946L14.8227 17.7946C14.809 17.819 14.7938 17.842 14.7773 17.8637C14.9209 18.2142 15 18.5978 15 19C15 20.6569 13.6569 22 12 22C10.3431 22 9 20.6569 9 19C9 18.5855 9.08408 18.1905 9.23613 17.8314C9.222 17.8128 9.20881 17.7933 9.19665 17.7727L5.98351 12.338C5.81487 12.0528 5.90939 11.6848 6.19464 11.5162C6.47988 11.3475 6.84783 11.4421 7.01648 11.7273L9.99625 16.7673C10.1624 16.618 10.3454 16.4871 10.5419 16.3775ZM10.2 19C10.2 19.9941 11.0059 20.8 12 20.8C12.9941 20.8 13.8 19.9941 13.8 19C13.8 18.0059 12.9941 17.2 12 17.2C11.0059 17.2 10.2 18.0059 10.2 19Z" fill="currentColor"/>
</svg>
