<svg width="24" height="24" viewBox="0 0 24 24" fill="none" xmlns="http://www.w3.org/2000/svg">
<path d="M15.0999 7.40039V11.4004H16.0999V13.4004H13.0999V5.40039H15.0999L12.0999 1.40039L9.0999 5.40039H11.0999V13.4004H8.0999V11.3304C8.7999 10.9604 9.2999 10.2504 9.2999 9.40039C9.2999 8.19039 8.3099 7.20039 7.0999 7.20039C5.8899 7.20039 4.8999 8.19039 4.8999 9.40039C4.8999 10.2504 5.3999 10.9604 6.0999 11.3304V13.4004C6.0999 14.5104 6.9899 15.4004 8.0999 15.4004H11.0999V18.4504C10.3899 18.8204 9.8999 19.5504 9.8999 20.4004C9.8999 21.6204 10.8899 22.6004 12.0999 22.6004C13.3099 22.6004 14.2999 21.6204 14.2999 20.4004C14.2999 19.5504 13.8099 18.8204 13.0999 18.4504V15.4004H16.0999C17.2099 15.4004 18.0999 14.5104 18.0999 13.4004V11.4004H19.0999V7.40039H15.0999Z" fill="currentColor"/>
</svg>
