<svg width="24" height="24" viewBox="0 0 24 24" fill="none" xmlns="http://www.w3.org/2000/svg">
  <path d="M5.63097 7.66204C9.40472 3.96829 15.5241 3.96829 19.2978 7.66204L19.7522 8.10641C19.797 8.14982 19.8326 8.20179 19.8569 8.25923C19.8813 8.31667 19.8938 8.37841 19.8938 8.44079C19.8938 8.50316 19.8813 8.5649 19.8569 8.62234C19.8326 8.67978 19.797 8.73175 19.7522 8.77516L18.1985 10.2958C18.1526 10.3402 18.0913 10.365 18.0275 10.365C17.9637 10.365 17.9024 10.3402 17.8566 10.2958L17.2316 9.68391C14.5991 7.10766 10.3303 7.10766 7.69722 9.68391L7.02784 10.3389C6.98202 10.3833 6.92071 10.4081 6.8569 10.4081C6.79309 10.4081 6.73179 10.3833 6.68597 10.3389L5.13222 8.81829C5.08742 8.77488 5.05181 8.72291 5.02748 8.66547C5.00316 8.60803 4.99063 8.54629 4.99063 8.48391C4.99063 8.42153 5.00316 8.35979 5.02748 8.30235C5.05181 8.24491 5.08742 8.19295 5.13222 8.14954L5.63097 7.66204ZM22.5116 10.8064L23.8941 12.1602C23.9389 12.2036 23.9745 12.2555 23.9988 12.313C24.0231 12.3704 24.0357 12.4322 24.0357 12.4945C24.0357 12.5569 24.0231 12.6187 23.9988 12.6761C23.9745 12.7335 23.9389 12.7855 23.8941 12.8289L17.6591 18.9314C17.5675 19.0204 17.4449 19.0701 17.3172 19.0701C17.1895 19.0701 17.0669 19.0204 16.9753 18.9314L12.5503 14.6002C12.5275 14.5778 12.4967 14.5653 12.4647 14.5653C12.4327 14.5653 12.402 14.5778 12.3791 14.6002L7.95409 18.9314C7.86252 19.0204 7.73988 19.0701 7.61222 19.0701C7.48455 19.0701 7.36191 19.0204 7.27034 18.9314L1.03472 12.8289C0.989921 12.7855 0.954305 12.7335 0.929983 12.6761C0.90566 12.6187 0.893127 12.5569 0.893127 12.4945C0.893127 12.4322 0.90566 12.3704 0.929983 12.313C0.954305 12.2555 0.989921 12.2036 1.03472 12.1602L2.41784 10.8064C2.50938 10.7176 2.63189 10.668 2.7594 10.668C2.88692 10.668 3.00943 10.7176 3.10097 10.8064L7.52597 15.1377C7.54885 15.16 7.57959 15.1726 7.61159 15.1726C7.64359 15.1726 7.67433 15.16 7.69722 15.1377L12.1222 10.8064C12.2138 10.7175 12.3364 10.6677 12.4641 10.6677C12.5918 10.6677 12.7144 10.7175 12.806 10.8064L17.2316 15.1377C17.2545 15.16 17.2852 15.1726 17.3172 15.1726C17.3492 15.1726 17.38 15.16 17.4028 15.1377L21.8278 10.8064C21.9194 10.7175 22.042 10.6677 22.1697 10.6677C22.2974 10.6677 22.42 10.7175 22.5116 10.8064ZM32.3522 16.9627L34.0228 10.2814C34.1216 9.91266 34.2066 9.51641 34.3197 8.89391C34.4047 9.51641 34.5041 9.91266 34.5747 10.2814L36.0185 16.9627H39.006L41.5253 7.05329H39.2316L37.8447 13.1408C37.707 13.72 37.5985 14.3057 37.5197 14.8958C37.406 14.2308 37.2928 13.7352 37.1653 13.1545L35.8203 7.05329H32.8191L31.361 13.1545C31.2304 13.7314 31.1172 14.3121 31.0216 14.8958C30.9258 14.3121 30.8124 13.7314 30.6816 13.1545L29.3228 7.05329H26.9303L29.436 16.9627H32.3522ZM43.2353 17.2177C44.3678 17.2177 45.0897 16.7502 45.4578 16.0708C45.4153 16.2833 45.4016 16.4958 45.4016 16.7083V16.9627H47.2985V12.8714C47.2985 10.9183 46.4066 9.78579 44.2266 9.78579C42.3435 9.78579 41.1122 10.8333 40.9991 12.277H43.0803C43.1503 11.6395 43.6035 11.2583 44.2972 11.2583C44.9485 11.2583 45.3022 11.6258 45.3022 12.0508C45.3022 12.362 45.1185 12.5458 44.566 12.6164L43.5753 12.7302C42.1028 12.9139 40.8435 13.452 40.8435 15.0089C40.8435 16.4245 42.0185 17.2177 43.2353 17.2177ZM43.8728 15.7595C43.3203 15.7595 42.9103 15.4483 42.9103 14.9095C42.9103 14.3864 43.3772 14.1314 44.0853 14.0039L44.5666 13.9189C44.9766 13.8339 45.2035 13.7633 45.3447 13.6358V14.287C45.3447 15.1652 44.7072 15.7595 43.8722 15.7595H43.8728ZM48.2847 7.05329V16.9627H50.3372V7.05329H48.2847ZM51.5247 7.05329V16.9627H53.5772V7.05329H51.5247ZM58.0578 17.2177C60.0116 17.2177 61.271 16.1133 61.4128 14.6695H59.346C59.2466 15.3064 58.7085 15.6602 58.0578 15.6602C57.1803 15.6602 56.5428 14.9527 56.5291 13.9758H61.4553V13.5795C61.4553 11.2858 60.1953 9.78579 58.0153 9.78579C55.9203 9.78579 54.4478 11.2577 54.4478 13.4802C54.4478 15.8864 55.9628 17.2177 58.0578 17.2177ZM56.5141 12.6308C56.5997 11.8383 57.1803 11.2577 58.0016 11.2577C58.7941 11.2577 59.3453 11.8095 59.3603 12.6308H56.5141ZM65.7997 17.1039C66.2528 17.1039 66.6916 17.0333 66.8897 16.977V15.4189C66.726 15.4471 66.5602 15.4613 66.3941 15.4614C65.6441 15.4614 65.3753 15.0364 65.3753 14.3427V11.6252H67.0453V10.0252H65.3753V7.56266H63.3366V10.0252H61.836V11.6252H63.3366V14.6264C63.3366 16.2683 64.1578 17.1039 65.7997 17.1039ZM72.7285 17.2177C75.5316 17.2177 77.2303 15.5752 77.4428 13.2114H75.2203C75.0503 14.4989 74.1441 15.377 72.8135 15.377C71.2422 15.377 70.1378 14.1033 70.1378 11.9514C70.1378 9.84204 71.2847 8.63891 72.856 8.63891C74.201 8.63891 74.9653 9.46016 75.121 10.6633H77.4003C77.1735 8.20016 75.3616 6.79829 72.8703 6.79829C70.0247 6.79829 67.8447 8.72329 67.8447 11.9514C67.8447 15.292 69.756 17.2177 72.7285 17.2177ZM81.8928 17.2177C84.0303 17.2177 85.5453 15.8727 85.5453 13.5227C85.5453 11.2152 84.0303 9.78516 81.8928 9.78516C79.7691 9.78516 78.2547 11.2152 78.2547 13.5227C78.2547 15.8727 79.7553 17.2177 81.8928 17.2177ZM81.8928 15.632C80.9441 15.632 80.3353 14.8533 80.3353 13.5227C80.3353 12.1639 80.9728 11.3995 81.8928 11.3995C82.8272 11.3995 83.4641 12.1639 83.4641 13.5227C83.4641 14.8539 82.841 15.632 81.8928 15.632ZM88.4066 16.9627V12.9002C88.4066 12.0364 88.9447 11.3995 89.7091 11.3995C90.431 11.3995 90.856 11.9514 90.856 12.8714V16.9627H92.9085V12.5745C92.9085 10.9039 92.031 9.78516 90.4591 9.78516C89.3691 9.78516 88.7041 10.3089 88.3503 10.932C88.3869 10.7215 88.4057 10.5082 88.4066 10.2945V10.0258H86.3541V16.9627H88.4066ZM96.1891 16.9627V12.9002C96.1891 12.0364 96.7266 11.3995 97.491 11.3995C98.2135 11.3995 98.6378 11.9514 98.6378 12.8714V16.9627H100.69V12.5745C100.69 10.9039 99.8128 9.78516 98.2416 9.78516C97.1516 9.78516 96.486 10.3089 96.1322 10.932C96.1747 10.677 96.1891 10.4789 96.1891 10.2945V10.0258H94.136V16.9627H96.1891ZM105.107 17.2177C107.06 17.2177 108.32 16.1133 108.462 14.6695H106.395C106.296 15.3064 105.758 15.6602 105.107 15.6602C104.229 15.6602 103.592 14.9527 103.578 13.9758H108.505V13.5795C108.505 11.2858 107.245 9.78579 105.065 9.78579C102.97 9.78579 101.497 11.2577 101.497 13.4802C101.497 15.8864 103.012 17.2177 105.107 17.2177ZM103.564 12.6308C103.649 11.8383 104.229 11.2577 105.05 11.2577C105.843 11.2577 106.395 11.8095 106.409 12.6308H103.564ZM112.912 17.2177C115.064 17.2177 116.239 16.0427 116.465 14.2164H114.413C114.342 14.9808 113.903 15.632 112.983 15.632C112.048 15.632 111.412 14.7683 111.412 13.4945C111.412 12.107 112.148 11.3995 113.025 11.3995C113.889 11.3995 114.313 12.022 114.37 12.7439H116.423C116.267 11.0595 115.12 9.78516 113.011 9.78516C110.958 9.78516 109.33 11.1445 109.33 13.4945C109.33 15.8158 110.703 17.2177 112.912 17.2177ZM120.905 17.1039C121.358 17.1039 121.797 17.0333 121.995 16.977V15.4189C121.832 15.4471 121.666 15.4613 121.5 15.4614C120.75 15.4614 120.48 15.0364 120.48 14.3427V11.6252H122.151V10.0252H120.48V7.56266H118.442V10.0252H116.942V11.6252H118.442V14.6264C118.442 16.2683 119.263 17.1039 120.905 17.1039Z"
        fill="currentColor"/>
</svg>
