<svg width="128" height="128" viewBox="0 0 128 128" fill="none" xmlns="http://www.w3.org/2000/svg">
<g clip-path="url(#clip0_3263_21433)">
<rect width="128" height="128" fill="white"/>
<rect width="128" height="128" fill="#0052FE"/>
<path fill-rule="evenodd" clip-rule="evenodd" d="M83.7765 61H102.886C101.354 40.8627 84.5297 25 64 25C42.4609 25 25 42.4609 25 64C25 85.5391 42.4609 103 64 103C84.5297 103 101.354 87.1373 102.886 67H83.7765C82.3291 76.6225 74.0261 84 64 84C52.9543 84 44 75.0457 44 64C44 52.9543 52.9543 44 64 44C74.0261 44 82.329 51.3775 83.7765 61Z" fill="white"/>
</g>
<defs>
<clipPath id="clip0_3263_21433">
<rect width="128" height="128" fill="white"/>
</clipPath>
</defs>
</svg>
