<svg width="120" height="34" viewBox="0 0 120 34" fill="none" xmlns="http://www.w3.org/2000/svg">
<path d="M46.953 0C50.0989 0 52.9499 0.698003 55.506 2.09401C58.062 3.49002 60.0774 5.46605 61.5521 8.02211C63.0267 10.5782 63.7641 13.5275 63.7641 16.8701C63.7641 20.2126 63.0071 23.1619 61.4931 25.718C59.9791 28.274 57.9343 30.2501 55.3586 31.6461C52.7828 33.0421 49.9023 33.7401 46.717 33.7401C43.5711 33.7401 40.7398 33.0421 38.223 31.6461C35.7063 30.2501 33.7303 28.274 32.2949 25.718C30.8596 23.1619 30.1419 20.2126 30.1419 16.8701C30.1419 13.5275 30.8793 10.5782 32.3539 8.02211C33.8286 5.46605 35.8439 3.49002 38.4 2.09401C40.9561 0.698003 43.8071 0 46.953 0ZM46.953 8.02211C45.2972 8.02211 43.7967 8.38821 42.4514 9.12038C41.1061 9.85255 40.0454 10.8889 39.2693 12.2295C38.4932 13.5701 38.1051 15.117 38.1051 16.8701C38.1051 18.6231 38.4828 20.17 39.2382 21.5106C39.9937 22.8512 41.0337 23.8875 42.3583 24.6197C43.6829 25.3519 45.1731 25.718 46.8288 25.718C48.5053 25.718 50.0213 25.3519 51.3769 24.6197C52.7326 23.8875 53.8089 22.8512 54.6057 21.5106C55.4025 20.17 55.8009 18.6231 55.8009 16.8701C55.8009 15.117 55.4129 13.5701 54.6367 12.2295C53.8606 10.8889 52.7999 9.85255 51.4546 9.12038C50.1093 8.38821 48.6087 8.02211 46.953 8.02211ZM16.8111 0C19.957 0 22.808 0.698003 25.3641 2.09401C27.9201 3.49002 29.9355 5.46605 31.4101 8.02211C32.2436 9.46686 32.8416 11.0373 33.204 12.7333L24.6112 12.7334C24.0382 11.048 22.8054 9.85255 21.4601 9.12038C20.1148 8.38821 18.6143 8.02211 16.9586 8.02211C15.3028 8.02211 13.8023 8.38821 12.457 9.12038C11.1117 9.85255 10.0509 10.8889 9.2748 12.2295C8.49867 13.5701 8.11061 15.117 8.11061 16.8701C8.11061 18.6231 8.48831 20.17 9.24375 21.5106C9.99919 22.8512 11.0392 23.8875 12.3638 24.6197C13.6884 25.3519 15.1786 25.718 16.8343 25.718C18.5108 25.718 20.0269 25.3519 21.3825 24.6197C22.7381 23.8875 23.8144 22.8512 24.6112 21.5106L33.0743 21.5106C32.6959 23.0149 32.1215 24.4173 31.3512 25.718C29.8372 28.274 27.7923 30.2501 25.2166 31.6461C22.6409 33.0421 19.7604 33.7401 16.5751 33.7401C13.4292 33.7401 10.5979 33.0421 8.08113 31.6461C5.56439 30.2501 3.5883 28.274 2.15297 25.718C0.717638 23.1619 0 20.2126 0 16.8701C0 13.5275 0.737319 10.5782 2.21197 8.02211C3.68663 5.46605 5.70202 3.49002 8.25809 2.09401C10.8142 0.698003 13.6651 0 16.8111 0ZM103.897 0C107.003 0 109.786 0.668512 112.243 2.00553C114.701 3.34255 116.608 5.23994 117.965 7.6977C119.322 10.1555 120 12.977 120 16.1622C120 17.3419 119.921 18.4037 119.764 19.3475H95.8747L95.9089 19.6976C96.1554 21.8905 96.9698 23.622 98.3521 24.8922C99.8071 26.2292 101.596 26.8977 103.72 26.8977C106.787 26.8977 108.97 25.5803 110.267 22.9456H119.174L119.052 23.3359C118.078 26.306 116.31 28.7615 113.747 30.7023C111.073 32.7275 107.79 33.7401 103.897 33.7401C100.751 33.7401 97.9294 33.0421 95.4323 31.6461C92.9352 30.2501 90.9886 28.274 89.5926 25.718C88.1966 23.1619 87.4986 20.2126 87.4986 16.8701C87.4986 13.9833 88 11.3973 89.0029 9.11227L86.4121 9.11235L86.05 9.11729C84.3814 9.16343 83.0113 9.53253 81.9397 10.2246C80.7917 10.9661 79.9599 11.9791 79.4445 13.2634C78.929 14.5478 78.6712 16.015 78.6712 17.665V26.0493H87.6179V33.6H63.1253V26.0493H69.7315V8.58963H63.1253V1.03989H78.007L78.2792 6.69378L78.5057 6.2902C79.0473 5.36201 79.6818 4.52833 80.4092 3.78913C81.2405 2.94433 82.2707 2.27491 83.5 1.7809C84.7292 1.28689 86.2203 1.03989 87.9733 1.03989H91.7461L91.746 4.8812C92.7777 3.76276 93.9769 2.82387 95.3438 2.06452C97.8212 0.688177 100.672 0 103.897 0ZM103.661 6.78341C101.616 6.78341 99.8956 7.40277 98.4995 8.64148C97.1035 9.88019 96.2482 11.6006 95.9336 13.8028H111.447C111.408 11.6793 110.641 9.97849 109.147 8.70045C107.652 7.42242 105.824 6.78341 103.661 6.78341Z" fill="currentColor"/>
</svg>
