<svg width="256" height="256" viewBox="0 0 256 256" fill="none" xmlns="http://www.w3.org/2000/svg">
<rect width="256" height="256" fill="white"/>
<path d="M105.168 98.9973C110.673 98.9973 115.662 100.188 120.137 102.567C124.608 104.945 128.136 108.314 130.719 112.673C133.299 117.029 134.591 122.058 134.591 127.755C134.591 133.452 133.264 138.482 130.615 142.838C127.965 147.194 124.387 150.562 119.881 152.944C115.375 155.322 110.332 156.513 104.758 156.513C99.1842 156.513 94.2989 155.322 89.8937 152.944C85.4884 150.566 82.0305 147.197 79.52 142.838C79.2358 142.346 78.9674 141.844 78.7147 141.334C78.4495 141.844 78.1684 142.346 77.8684 142.838C75.2189 147.194 71.6411 150.562 67.1316 152.944C62.6253 155.322 57.5821 156.513 52.0084 156.513C46.4347 156.513 41.5495 155.322 37.1442 152.944C32.7389 150.566 29.2811 147.197 26.7705 142.838C24.2568 138.482 23 133.452 23 127.755C23 122.058 24.2916 117.029 26.8716 112.673C29.4516 108.317 32.9789 104.948 37.4537 102.567C41.9253 100.188 46.9147 98.9973 52.4189 98.9973C57.9232 98.9973 62.9126 100.188 67.3874 102.567C71.8589 104.945 75.3863 108.314 77.9695 112.673C78.2632 113.168 78.5379 113.669 78.7968 114.18C79.0526 113.669 79.3274 113.168 79.6211 112.673C82.201 108.317 85.7284 104.948 90.2032 102.567C94.6747 100.188 99.6642 98.9973 105.172 98.9973H105.168ZM105.168 112.673C102.269 112.673 99.6453 113.296 97.2895 114.544C94.9337 115.791 93.08 117.558 91.7221 119.843C90.3642 122.127 89.6853 124.766 89.6853 127.752C89.6853 130.739 90.3453 133.377 91.6684 135.662C92.9916 137.946 94.8105 139.714 97.1284 140.961C99.4463 142.208 102.055 142.832 104.954 142.832C107.853 142.832 110.54 142.208 112.912 140.961C115.283 139.714 117.168 137.946 118.561 135.662C119.957 133.377 120.652 130.739 120.652 127.752C120.652 124.766 119.973 122.127 118.615 119.843C117.257 117.558 115.4 115.791 113.047 114.544C110.692 113.296 108.067 112.673 105.168 112.673ZM52.6779 112.673C49.7789 112.673 47.1547 113.296 44.7989 114.544C42.4432 115.791 40.5895 117.558 39.2316 119.843C37.8737 122.127 37.1947 124.766 37.1947 127.752C37.1947 130.739 37.8547 133.377 39.1779 135.662C40.5011 137.946 42.32 139.714 44.6379 140.961C46.9558 142.208 49.5642 142.832 52.46 142.832C55.3558 142.832 58.0463 142.208 60.4179 140.961C62.7895 139.714 64.6747 137.946 66.0674 135.662H76.6558C76.0495 133.186 75.7463 130.551 75.7463 127.752C75.7463 125.273 75.9895 122.923 76.4789 120.698H66.0674C65.0663 117.828 62.9063 115.788 60.5537 114.54C58.1979 113.293 55.5737 112.67 52.6747 112.67L52.6779 112.673ZM204.819 98.9973C210.257 98.9973 215.123 100.138 219.424 102.416C223.725 104.694 227.063 107.928 229.438 112.118C231.813 116.308 233 121.118 233 126.549C233 128.561 232.861 130.369 232.586 131.98H190.779L190.839 132.575C191.272 136.313 192.696 139.265 195.115 141.431C197.66 143.709 200.793 144.85 204.509 144.85C209.878 144.85 213.696 142.603 215.966 138.112H231.554L231.339 138.777C229.634 143.841 226.542 148.024 222.058 151.333C217.378 154.787 211.631 156.51 204.819 156.51C199.315 156.51 194.376 155.319 190.005 152.941C185.635 150.562 182.231 147.194 179.786 142.835C177.342 138.479 176.123 133.449 176.123 127.752C176.123 122.832 177.001 118.423 178.757 114.528H174.222L173.587 114.537C170.666 114.616 168.269 115.246 166.394 116.424C164.385 117.687 162.929 119.413 162.026 121.604C161.123 123.794 160.672 126.295 160.672 129.106V143.399H176.328V156.269H133.466V143.399H145.027V113.641H133.466V100.771H159.509L159.986 110.41L160.384 109.721C161.332 108.138 162.443 106.719 163.716 105.456C165.172 104.014 166.975 102.874 169.125 102.034C171.276 101.191 173.884 100.771 176.954 100.771H183.557V107.32C185.363 105.415 187.46 103.814 189.854 102.52C194.189 100.172 199.179 99.0005 204.822 99.0005L204.819 98.9973ZM204.405 110.561C200.827 110.561 197.815 111.617 195.374 113.729C192.929 115.841 191.433 118.774 190.883 122.528H218.032C217.962 118.909 216.62 116.01 214.005 113.829C211.391 111.648 208.192 110.561 204.405 110.561Z" fill="#111111"/>
</svg>
