<svg width="128" height="128" viewBox="0 0 128 128" fill="none" xmlns="http://www.w3.org/2000/svg">
<g clip-path="url(#clip0_3263_21446)">
<rect width="128" height="128" fill="white"/>
<rect width="128" height="128" fill="white"/>
<path d="M31.2232 84.0692C32.2057 85.0517 33.5428 85.6046 34.934 85.6046L34.961 85.6346H47.094L44.6212 89.7781L41.6405 94.778C41.3543 95.2542 40.9488 95.6475 40.4639 95.9189C39.9791 96.1904 39.4318 96.3305 38.8762 96.3254H30.0333C28.5836 96.3313 27.1473 96.0484 25.8081 95.4934C24.4688 94.9383 23.2536 94.1221 22.2331 93.0923C21.2047 92.0697 20.3894 90.8531 19.8344 89.5132C19.2795 88.1732 18.9959 86.7364 19 85.2861V41.9552C19.0008 39.0255 20.1646 36.216 22.2357 34.1438C24.3067 32.0716 27.1156 30.9063 30.0453 30.9039H38.8551C39.4103 30.8991 39.9571 31.0393 40.4414 31.3107C40.9257 31.5821 41.3308 31.9753 41.6165 32.4514L44.5971 37.4512L47.07 41.5977H34.931C33.539 41.6017 32.2054 42.1574 31.2226 43.1431C30.2397 44.1288 29.6878 45.4639 29.6878 46.8559V80.3584C29.6878 81.7496 30.2407 83.0837 31.2232 84.0692ZM89.1599 30.9039H97.9547C100.881 30.9031 103.687 32.0637 105.758 34.1307C107.829 36.1977 108.995 39.0022 109 41.9282V85.247C108.998 88.1765 107.834 90.9856 105.764 93.0576C103.693 95.1296 100.884 96.2952 97.9547 96.2983H89.1599C88.6043 96.3037 88.0568 96.1637 87.572 95.8923C87.0871 95.6209 86.6815 95.2274 86.3956 94.7509L83.4149 89.7511L80.9451 85.6046H47.034L49.5068 81.4611L51.9647 77.3176C52.4041 76.5818 53.0268 75.9725 53.7719 75.5491C54.5171 75.1257 55.3593 74.9027 56.2163 74.9018H71.7777C72.6348 74.9024 73.4771 75.1253 74.2223 75.5487C74.9675 75.9721 75.5902 76.5816 76.0294 77.3176L78.4872 81.4641L80.9571 85.6046H93.0811C93.7704 85.605 94.453 85.4695 95.0899 85.2058C95.7267 84.9421 96.3054 84.5554 96.7926 84.0678C97.2799 83.5803 97.6663 83.0014 97.9296 82.3644C98.1929 81.7274 98.3281 81.0447 98.3273 80.3554V46.8589C98.3273 45.4659 97.7751 44.1296 96.7918 43.1429C95.8085 42.1562 94.4741 41.5994 93.0811 41.5947H80.9571L78.4872 45.7412L76.0294 49.8847C75.5899 50.6205 74.9673 51.2298 74.2221 51.6532C73.4769 52.0766 72.6348 52.2996 71.7777 52.3004H56.2163C55.3593 52.2996 54.5171 52.0766 53.7719 51.6532C53.0268 51.2298 52.4041 50.6205 51.9647 49.8847L49.5068 45.7382L47.034 41.5947H80.9451L83.4149 37.4512L86.3986 32.4514C86.6845 31.9755 87.0896 31.5825 87.5739 31.3111C88.0581 31.0397 88.6048 30.8994 89.1599 30.9039Z" fill="#3A2DF8"/>
</g>
<defs>
<clipPath id="clip0_3263_21446">
<rect width="128" height="128" fill="white"/>
</clipPath>
</defs>
</svg>
