<svg width="128" height="128" viewBox="0 0 128 128" fill="none" xmlns="http://www.w3.org/2000/svg">
<g clip-path="url(#clip0_3263_21437)">
<rect width="128" height="128" fill="white"/>
<rect width="128" height="128" fill="#7D00FE"/>
<path d="M90.4644 50.064C93.5239 50.064 96.458 48.849 98.6213 46.6863C100.785 44.5237 102 41.5905 102 38.532C102 35.4735 100.785 32.5403 98.6213 30.3776C96.458 28.215 93.5239 27 90.4644 27C87.405 27 84.4709 28.215 82.3075 30.3776C80.1442 32.5403 78.9288 35.4735 78.9288 38.532C78.9288 41.5905 80.1442 44.5237 82.3075 46.6863C84.4709 48.849 87.405 50.064 90.4644 50.064ZM55.0852 102C47.6303 101.994 40.4833 99.0273 35.2163 93.7532C29.9493 88.4791 26.9938 81.3293 27 73.8768C27.0062 66.4242 29.9736 59.2794 35.2494 54.014C40.5252 48.7487 47.6772 45.7941 55.132 45.8003C62.5869 45.8065 69.734 48.773 75.001 54.0471C80.268 59.3212 83.2234 66.471 83.2172 73.9236C83.211 81.3761 80.2436 88.5209 74.9679 93.7863C69.6921 99.0516 62.5401 102.006 55.0852 102Z" fill="white"/>
</g>
<defs>
<clipPath id="clip0_3263_21437">
<rect width="128" height="128" fill="white"/>
</clipPath>
</defs>
</svg>
