<svg width="100%" height="100%" viewBox="0 0 120.078 62.727" fill="none" xmlns="http://www.w3.org/2000/svg">
<g>
<g>
<path d="M54.7672 2.5C55.724 2.50021 56.5969 3.0467 57.0152 3.90723L61.5904 13.3193C58.7228 18.212 57.0777 23.9111 57.0777 30C57.0777 33.658 57.6719 37.1754 58.7672 40.4619L36.3092 62.0303C35.3418 62.9591 33.8137 62.9591 32.8463 62.0303L0.768178 31.2236C-0.0059668 30.4801 -0.2189 29.3254 0.238881 28.3545L11.7545 3.93359C12.1673 3.05861 13.0478 2.50013 14.0152 2.5H54.7672Z" fill="#2ECBA0"/>
<path d="M47.8142 14V20.5088H38.0456V24.7764H38.0446L38.0456 24.7773V24.7764C45.9697 25.1428 51.9241 26.7132 51.9245 28.5957C51.9245 30.4783 45.9645 32.0494 38.0446 32.4141V46.0977H30.986V32.4189C23.048 32.0527 17.0781 30.4819 17.0778 28.5977C17.0778 26.7134 23.0479 25.141 30.986 24.7764V20.5088H21.2194V14H47.8142ZM30.987 25.2676C23.973 25.5811 18.738 26.8008 18.738 28.2627C18.7382 29.7245 23.9732 30.9453 30.987 31.2539C31.4391 31.2754 32.7279 31.3301 34.5427 31.3301C36.823 31.3301 37.8466 31.2688 38.0456 31.2539L38.0397 31.252C45.0404 30.9417 50.2622 29.7212 50.2624 28.2627C50.2624 26.8041 45.0389 25.5834 38.0397 25.2715V30.04C37.8434 30.0582 36.7526 30.1484 34.5749 30.1484C32.7599 30.1484 31.4457 30.0711 30.987 30.0381V25.2676Z" fill="white"/>
</g>
<path d="M90.0778 0C106.844 3.28578e-05 120.078 13.5023 120.078 30C120.078 46.5871 106.665 60 90.0778 60C73.4907 60 60.0779 46.5871 60.0778 30C60.0778 13.4129 73.4907 0 90.0778 0ZM90.1228 36.8848L90.0778 36.9297L89.988 36.8848L81.0915 7.37695L69.6013 45.1562H71.7468C71.7537 45.1246 73.1837 38.5743 75.5476 34.6494C76.8441 32.5035 78.8112 30.76 81.4489 30.8047C83.3266 30.8495 84.9361 31.8778 86.9479 34.6943C87.395 35.3203 87.932 36.3485 88.4685 37.332C89.3179 38.9863 90.0329 40.6855 90.0329 40.6855C90.0329 40.6855 91.9107 36.3933 93.1179 34.6943C95.1297 31.8778 96.7392 30.8495 98.6169 30.8047C101.255 30.7599 103.267 32.5034 104.519 34.6494C106.882 38.5725 108.311 45.1186 108.319 45.1562H110.466L99.0192 7.37695L90.1228 36.8848Z" fill="white"/>
</g>
</svg>
