<svg preserveAspectRatio="none" width="100%" height="100%" overflow="visible" style="display: block;" viewBox="0 0 60 60" fill="none" xmlns="http://www.w3.org/2000/svg">
<path id="Subtract" d="M30 0C46.766 3.28578e-05 60 13.5023 60 30C60 46.5871 46.5871 60 30 60C13.4129 60 3.29459e-05 46.5871 0 30C0 13.4129 13.4129 0 30 0ZM30.0449 36.8848L30 36.9297L29.9102 36.8848L21.0137 7.37695L9.52344 45.1562H11.6689C11.6758 45.1246 13.1059 38.5743 15.4697 34.6494C16.7663 32.5035 18.7334 30.76 21.3711 30.8047C23.2488 30.8495 24.8583 31.8778 26.8701 34.6943C27.3172 35.3203 27.8541 36.3485 28.3906 37.332C29.2401 38.9863 29.9551 40.6855 29.9551 40.6855C29.9551 40.6855 31.8329 36.3933 33.04 34.6943C35.0518 31.8778 36.6614 30.8495 38.5391 30.8047C41.1769 30.7599 43.1895 32.5034 44.4414 34.6494C46.8042 38.5725 48.233 45.1186 48.2412 45.1562H50.3877L38.9414 7.37695L30.0449 36.8848Z" fill="currentColor"/>
</svg>
