<svg width="180" height="32" viewBox="0 0 180 32" fill="none" xmlns="http://www.w3.org/2000/svg">
<path d="M13.9146 19V11H16.7661C17.3885 11 17.9041 11.1133 18.313 11.3398C18.7218 11.5664 19.0278 11.8763 19.231 12.2695C19.4341 12.6602 19.5356 13.1003 19.5356 13.5898C19.5356 14.082 19.4328 14.5247 19.2271 14.918C19.0239 15.3086 18.7166 15.6185 18.3052 15.8477C17.8963 16.0742 17.382 16.1875 16.7622 16.1875H14.8013V15.1641H16.6528C17.0461 15.1641 17.3651 15.0964 17.6099 14.9609C17.8547 14.8229 18.0343 14.6354 18.1489 14.3984C18.2635 14.1615 18.3208 13.8919 18.3208 13.5898C18.3208 13.2878 18.2635 13.0195 18.1489 12.7852C18.0343 12.5508 17.8534 12.3672 17.606 12.2344C17.3612 12.1016 17.0382 12.0352 16.6372 12.0352H15.1216V19H13.9146ZM23.3091 19.1211C22.7466 19.1211 22.2557 18.9922 21.8364 18.7344C21.4172 18.4766 21.0916 18.1159 20.8599 17.6523C20.6281 17.1888 20.5122 16.6471 20.5122 16.0273C20.5122 15.4049 20.6281 14.8607 20.8599 14.3945C21.0916 13.9284 21.4172 13.5664 21.8364 13.3086C22.2557 13.0508 22.7466 12.9219 23.3091 12.9219C23.8716 12.9219 24.3625 13.0508 24.7817 13.3086C25.201 13.5664 25.5265 13.9284 25.7583 14.3945C25.9901 14.8607 26.106 15.4049 26.106 16.0273C26.106 16.6471 25.9901 17.1888 25.7583 17.6523C25.5265 18.1159 25.201 18.4766 24.7817 18.7344C24.3625 18.9922 23.8716 19.1211 23.3091 19.1211ZM23.313 18.1406C23.6776 18.1406 23.9797 18.0443 24.2192 17.8516C24.4588 17.6589 24.6359 17.4023 24.7505 17.082C24.8677 16.7617 24.9263 16.4089 24.9263 16.0234C24.9263 15.6406 24.8677 15.2891 24.7505 14.9687C24.6359 14.6458 24.4588 14.3867 24.2192 14.1914C23.9797 13.9961 23.6776 13.8984 23.313 13.8984C22.9458 13.8984 22.6411 13.9961 22.3989 14.1914C22.1593 14.3867 21.981 14.6458 21.8638 14.9687C21.7492 15.2891 21.6919 15.6406 21.6919 16.0234C21.6919 16.4089 21.7492 16.7617 21.8638 17.082C21.981 17.4023 22.1593 17.6589 22.3989 17.8516C22.6411 18.0443 22.9458 18.1406 23.313 18.1406ZM28.5278 19L26.7622 13H27.9692L29.145 17.4062H29.2036L30.3833 13H31.5903L32.7622 17.3867H32.8208L33.9888 13H35.1958L33.4341 19H32.2427L31.0239 14.668H30.9341L29.7153 19H28.5278ZM38.7075 19.1211C38.1164 19.1211 37.6073 18.9948 37.1802 18.7422C36.7557 18.487 36.4276 18.1289 36.1958 17.668C35.9666 17.2044 35.8521 16.6615 35.8521 16.0391C35.8521 15.4245 35.9666 14.8828 36.1958 14.4141C36.4276 13.9453 36.7505 13.5794 37.1646 13.3164C37.5812 13.0534 38.0682 12.9219 38.6255 12.9219C38.964 12.9219 39.2922 12.9779 39.6099 13.0898C39.9276 13.2018 40.2127 13.3776 40.4653 13.6172C40.7179 13.8568 40.9172 14.168 41.063 14.5508C41.2088 14.931 41.2817 15.3932 41.2817 15.9375V16.3516H36.5122V15.4766H40.1372C40.1372 15.1693 40.0747 14.8971 39.9497 14.6602C39.8247 14.4206 39.6489 14.2318 39.4224 14.0937C39.1984 13.9557 38.9354 13.8867 38.6333 13.8867C38.3052 13.8867 38.0187 13.9674 37.7739 14.1289C37.5317 14.2878 37.3442 14.4961 37.2114 14.7539C37.0812 15.0091 37.0161 15.2865 37.0161 15.5859V16.2695C37.0161 16.6706 37.0864 17.0117 37.2271 17.293C37.3703 17.5742 37.5695 17.7891 37.8247 17.9375C38.0799 18.0833 38.3781 18.1562 38.7192 18.1562C38.9406 18.1562 39.1424 18.125 39.3247 18.0625C39.507 17.9974 39.6646 17.901 39.7974 17.7734C39.9302 17.6458 40.0317 17.4883 40.1021 17.3008L41.2075 17.5C41.119 17.8255 40.9601 18.1107 40.731 18.3555C40.5044 18.5977 40.2192 18.7865 39.8755 18.9219C39.5343 19.0547 39.145 19.1211 38.7075 19.1211ZM42.5776 19V13H43.7065V13.9531H43.769C43.8784 13.6302 44.0711 13.3763 44.3472 13.1914C44.6258 13.0039 44.9409 12.9102 45.2925 12.9102C45.3654 12.9102 45.4513 12.9128 45.5503 12.918C45.6519 12.9232 45.7313 12.9297 45.7886 12.9375V14.0547C45.7417 14.0417 45.6584 14.0273 45.5386 14.0117C45.4188 13.9935 45.299 13.9844 45.1792 13.9844C44.9032 13.9844 44.6571 14.043 44.4409 14.1602C44.2274 14.2747 44.0581 14.4349 43.9331 14.6406C43.8081 14.8437 43.7456 15.0755 43.7456 15.3359V19H42.5776ZM49.1704 19.1211C48.5793 19.1211 48.0701 18.9948 47.6431 18.7422C47.2186 18.487 46.8905 18.1289 46.6587 17.668C46.4295 17.2044 46.3149 16.6615 46.3149 16.0391C46.3149 15.4245 46.4295 14.8828 46.6587 14.4141C46.8905 13.9453 47.2134 13.5794 47.6274 13.3164C48.0441 13.0534 48.5311 12.9219 49.0884 12.9219C49.4269 12.9219 49.755 12.9779 50.0728 13.0898C50.3905 13.2018 50.6756 13.3776 50.9282 13.6172C51.1808 13.8568 51.38 14.168 51.5259 14.5508C51.6717 14.931 51.7446 15.3932 51.7446 15.9375V16.3516H46.9751V15.4766H50.6001C50.6001 15.1693 50.5376 14.8971 50.4126 14.6602C50.2876 14.4206 50.1118 14.2318 49.8853 14.0937C49.6613 13.9557 49.3983 13.8867 49.0962 13.8867C48.7681 13.8867 48.4816 13.9674 48.2368 14.1289C47.9946 14.2878 47.8071 14.4961 47.6743 14.7539C47.5441 15.0091 47.479 15.2865 47.479 15.5859V16.2695C47.479 16.6706 47.5493 17.0117 47.6899 17.293C47.8332 17.5742 48.0324 17.7891 48.2876 17.9375C48.5428 18.0833 48.841 18.1562 49.1821 18.1562C49.4035 18.1562 49.6053 18.125 49.7876 18.0625C49.9699 17.9974 50.1274 17.901 50.2603 17.7734C50.3931 17.6458 50.4946 17.4883 50.5649 17.3008L51.6704 17.5C51.5819 17.8255 51.423 18.1107 51.1938 18.3555C50.9673 18.5977 50.6821 18.7865 50.3384 18.9219C49.9972 19.0547 49.6079 19.1211 49.1704 19.1211ZM55.2866 19.1172C54.8022 19.1172 54.37 18.9935 53.9897 18.7461C53.6121 18.4961 53.3153 18.1406 53.0991 17.6797C52.8856 17.2161 52.7788 16.6602 52.7788 16.0117C52.7788 15.3633 52.8869 14.8086 53.103 14.3477C53.3218 13.8867 53.6213 13.5339 54.0015 13.2891C54.3817 13.0443 54.8127 12.9219 55.2944 12.9219C55.6668 12.9219 55.9663 12.9844 56.1929 13.1094C56.422 13.2318 56.5991 13.375 56.7241 13.5391C56.8517 13.7031 56.9507 13.8477 57.021 13.9727H57.0913V11H58.2593V19H57.1187V18.0664H57.021C56.9507 18.194 56.8491 18.3398 56.7163 18.5039C56.5861 18.668 56.4064 18.8112 56.1772 18.9336C55.9481 19.056 55.6512 19.1172 55.2866 19.1172ZM55.5444 18.1211C55.8804 18.1211 56.1642 18.0326 56.396 17.8555C56.6304 17.6758 56.8075 17.4271 56.9272 17.1094C57.0496 16.7917 57.1108 16.4219 57.1108 16C57.1108 15.5833 57.0509 15.2187 56.9312 14.9062C56.8114 14.5937 56.6356 14.3503 56.4038 14.1758C56.172 14.0013 55.8856 13.9141 55.5444 13.9141C55.1929 13.9141 54.8999 14.0052 54.6655 14.1875C54.4312 14.3698 54.2541 14.6185 54.1343 14.9336C54.0171 15.2487 53.9585 15.6042 53.9585 16C53.9585 16.401 54.0184 16.7617 54.1382 17.082C54.258 17.4023 54.4351 17.6562 54.6694 17.8437C54.9064 18.0286 55.1981 18.1211 55.5444 18.1211ZM62.9312 19V11H64.0991V13.9727H64.1694C64.2371 13.8477 64.3348 13.7031 64.4624 13.5391C64.59 13.375 64.7671 13.2318 64.9937 13.1094C65.2202 12.9844 65.5197 12.9219 65.8921 12.9219C66.3765 12.9219 66.8088 13.0443 67.189 13.2891C67.5692 13.5339 67.8674 13.8867 68.0835 14.3477C68.3022 14.8086 68.4116 15.3633 68.4116 16.0117C68.4116 16.6602 68.3035 17.2161 68.0874 17.6797C67.8713 18.1406 67.5744 18.4961 67.1968 18.7461C66.8192 18.9935 66.3882 19.1172 65.9038 19.1172C65.5392 19.1172 65.241 19.056 65.0093 18.9336C64.7801 18.8112 64.6004 18.668 64.4702 18.5039C64.34 18.3398 64.2397 18.194 64.1694 18.0664H64.0718V19H62.9312ZM64.0757 16C64.0757 16.4219 64.1369 16.7917 64.2593 17.1094C64.3817 17.4271 64.5588 17.6758 64.7905 17.8555C65.0223 18.0326 65.3062 18.1211 65.6421 18.1211C65.991 18.1211 66.2827 18.0286 66.5171 17.8437C66.7515 17.6562 66.9285 17.4023 67.0483 17.082C67.1707 16.7617 67.2319 16.401 67.2319 16C67.2319 15.6042 67.172 15.2487 67.0522 14.9336C66.9351 14.6185 66.758 14.3698 66.521 14.1875C66.2866 14.0052 65.9937 13.9141 65.6421 13.9141C65.3035 13.9141 65.0171 14.0013 64.7827 14.1758C64.5509 14.3503 64.3752 14.5937 64.2554 14.9062C64.1356 15.2187 64.0757 15.5833 64.0757 16ZM70.2573 21.25C70.0828 21.25 69.924 21.2357 69.7808 21.207C69.6375 21.181 69.5308 21.1523 69.4604 21.1211L69.7417 20.1641C69.9552 20.2214 70.1453 20.2461 70.312 20.2383C70.4787 20.2305 70.6258 20.168 70.7534 20.0508C70.8836 19.9336 70.9982 19.7422 71.0972 19.4766L71.2417 19.0781L69.0464 13H70.2964L71.8159 17.6562H71.8784L73.3979 13H74.6519L72.1792 19.8008C72.0646 20.1133 71.9188 20.3776 71.7417 20.5938C71.5646 20.8125 71.3537 20.9766 71.1089 21.0859C70.8641 21.1953 70.5802 21.25 70.2573 21.25Z" fill="white"/>
<path d="M98.6999 22.6174H99.1077L98.9036 22.2644L93.4315 12.7985L93.2278 12.4461L93.024 12.7985L87.5518 22.2644L87.3477 22.6174H87.7555H98.6999ZM93.2277 8.97012L102.07 24.2647H84.3854L93.2277 8.97012ZM82.8813 8.73529H90.5738L86.7275 15.5227L82.8813 8.73529Z" fill="white" stroke="white" stroke-width="0.470588"/>
<path d="M162.889 11.25C163.517 11.25 164.092 11.3412 164.611 11.5244C165.134 11.7093 165.586 11.9773 165.965 12.3283C166.345 12.681 166.639 13.1085 166.849 13.6093C167.057 14.1103 167.161 14.6719 167.161 15.2924C167.161 15.8718 167.074 16.4078 166.901 16.899C166.727 17.394 166.468 17.8227 166.126 18.1825C165.784 18.5414 165.366 18.821 164.875 19.0212C164.384 19.2212 163.827 19.3205 163.205 19.3205C162.642 19.3205 162.147 19.2487 161.722 19.1036C161.63 19.0719 161.543 19.0405 161.462 19.0093L161.343 18.9627L161.19 18.897L161.19 21.5C161.19 21.5947 161.138 21.6771 161.06 21.7195L160.998 21.7434L160.94 21.75H159.911C159.793 21.75 159.694 21.6678 159.668 21.5573L159.661 21.5V11.8935C159.661 11.7836 159.733 11.6866 159.838 11.6544C160.156 11.5573 160.557 11.466 161.04 11.3806C161.531 11.2932 162.146 11.25 162.889 11.25ZM107.889 11.25C108.517 11.25 109.091 11.3412 109.611 11.5244C110.134 11.709 110.585 11.9768 110.965 12.3282C111.345 12.6808 111.64 13.1083 111.849 13.6092C112.057 14.1096 112.161 14.671 112.161 15.2924C112.161 15.8727 112.075 16.4085 111.901 16.8993C111.726 17.3958 111.468 17.824 111.126 18.1823C110.785 18.5411 110.367 18.8208 109.875 19.0212C109.385 19.2212 108.827 19.3205 108.205 19.3205C107.641 19.3205 107.147 19.2487 106.722 19.1036L106.588 19.0562L106.343 18.9625L106.19 18.897L106.191 21.5C106.191 21.5947 106.138 21.6771 106.06 21.7195L105.998 21.7434L105.941 21.75H104.911C104.793 21.75 104.694 21.6678 104.668 21.5573L104.661 21.5V11.8935C104.661 11.7836 104.733 11.6865 104.838 11.6544C105.156 11.5572 105.557 11.4659 106.039 11.3806C106.531 11.2932 107.147 11.25 107.889 11.25ZM154.982 11.25C155.544 11.25 156.026 11.3215 156.429 11.4663C156.835 11.6128 157.169 11.8177 157.429 12.0829C157.686 12.3473 157.875 12.6612 157.991 13.0198C158.082 13.2991 158.136 13.5966 158.154 13.9124L158.161 14.1527V18.6804C158.161 18.7941 158.084 18.8934 157.975 18.9222C157.888 18.9449 157.777 18.9684 157.64 18.9928L157.17 19.0681C157.054 19.0855 156.929 19.1037 156.796 19.1226C156.524 19.1607 156.227 19.1913 155.905 19.2144C155.579 19.2381 155.245 19.25 154.903 19.25C154.456 19.25 154.04 19.2063 153.658 19.1186C153.267 19.0287 152.924 18.885 152.63 18.6865C152.327 18.4826 152.089 18.2203 151.919 17.9031C151.746 17.5818 151.661 17.1964 151.661 16.75C151.661 16.3179 151.756 15.94 151.949 15.6208C152.138 15.3074 152.405 15.0494 152.744 14.8474C153.074 14.6519 153.463 14.5103 153.91 14.4216C154.347 14.3348 154.82 14.2915 155.328 14.2915C155.432 14.2915 155.538 14.2947 155.649 14.3014L155.848 14.3175C155.958 14.3258 156.046 14.4027 156.073 14.5038L156.081 14.567V15.3358C156.081 15.4803 155.959 15.5947 155.814 15.5853C155.657 15.575 155.485 15.5698 155.297 15.5698C155.055 15.5698 154.802 15.5852 154.539 15.6161C154.291 15.6459 154.064 15.7084 153.858 15.8034C153.662 15.8936 153.504 16.0153 153.382 16.1691C153.273 16.3071 153.216 16.4975 153.216 16.75C153.216 16.9802 153.257 17.1658 153.336 17.3124C153.414 17.4576 153.524 17.5728 153.67 17.6613C153.827 17.7562 154.021 17.8272 154.251 17.8726C154.491 17.9203 154.767 17.9444 155.076 17.9444C155.471 17.9444 155.814 17.9331 156.104 17.9105L156.38 17.8859L156.637 17.854L156.638 14.3237L156.637 14.2959L156.637 14.2099C156.627 13.982 156.609 13.7934 156.578 13.6202C156.543 13.4229 156.467 13.246 156.349 13.0876C156.234 12.9334 156.068 12.8065 155.848 12.7071C155.627 12.6076 155.322 12.5556 154.935 12.5556C154.356 12.5556 153.928 12.5912 153.657 12.6591L153.346 12.7406C153.211 12.7773 153.106 12.8083 153.031 12.8339C152.907 12.876 152.776 12.8149 152.724 12.7018L152.705 12.6412L152.563 11.8494C152.542 11.7339 152.605 11.6196 152.713 11.5745C152.911 11.4922 153.202 11.4189 153.593 11.3509C153.982 11.2835 154.445 11.25 154.982 11.25ZM140.545 11.75C140.659 11.75 140.759 11.8278 140.787 11.9387C140.906 12.4072 141.056 12.9175 141.237 13.4724C141.414 14.0141 141.607 14.5597 141.818 15.1114C142.03 15.663 142.24 16.1746 142.45 16.6511L142.574 16.929L142.695 17.1909L142.807 17.424L143.014 16.954L143.222 16.4562C143.432 15.9432 143.628 15.4274 143.811 14.909C143.993 14.3943 144.167 13.8799 144.332 13.3653C144.495 12.8565 144.641 12.3785 144.771 11.9305C144.795 11.845 144.863 11.7808 144.946 11.7585L145.011 11.75H145.932C146.049 11.75 146.151 11.832 146.176 11.947C146.273 12.3943 146.399 12.8678 146.555 13.3676C146.71 13.8696 146.884 14.3844 147.075 14.9135C147.267 15.4431 147.468 15.9602 147.679 16.4664L147.838 16.843L147.999 17.2077L148.107 17.445L148.222 17.2067L148.341 16.9432L148.463 16.6622C148.664 16.1913 148.869 15.6807 149.087 15.1159C149.296 14.5658 149.49 14.0189 149.667 13.4749C149.846 12.9273 149.996 12.4151 150.115 11.9391C150.138 11.8502 150.206 11.7825 150.291 11.759L150.358 11.75H151.411C151.578 11.75 151.698 11.9093 151.652 12.0692C151.253 13.4543 150.818 14.7184 150.348 15.8619C149.88 17.0003 149.361 18.0869 148.793 19.1205C148.76 19.1804 148.704 19.2233 148.64 19.241L148.574 19.25H147.583C147.49 19.25 147.404 19.1982 147.361 19.1155C147.192 18.7902 147.016 18.4305 146.834 18.0385C146.648 17.6389 146.459 17.2172 146.268 16.7747C146.073 16.3256 145.885 15.8525 145.702 15.355L145.522 14.8537L145.419 14.556L145.316 14.8596L145.138 15.3573C144.959 15.8506 144.771 16.3248 144.575 16.7799C144.451 17.0686 144.326 17.3521 144.2 17.6305L144.012 18.0446C143.831 18.4368 143.656 18.7941 143.489 19.1153C143.455 19.1815 143.393 19.228 143.322 19.2439L143.267 19.25H142.241C142.149 19.25 142.066 19.2005 142.022 19.1207C141.456 18.0944 140.938 17.0075 140.468 15.8598C140 14.7176 139.568 13.4546 139.171 12.0688C139.131 11.929 139.218 11.7898 139.351 11.7571L139.411 11.75H140.545ZM134.584 11.25C134.702 11.25 134.802 11.3328 134.827 11.4438L134.834 11.5013L134.831 13.2727C134.831 13.4282 134.862 13.5531 134.923 13.6546C134.987 13.7623 135.083 13.8601 135.217 13.9487C135.365 14.0467 135.55 14.14 135.771 14.2273L136.143 14.3713C136.277 14.4222 136.421 14.4761 136.577 14.5335C136.894 14.6461 137.2 14.762 137.496 14.8813C137.805 15.0064 138.079 15.1577 138.318 15.3353C138.565 15.5192 138.766 15.7405 138.921 16.001C139.082 16.2738 139.161 16.6067 139.161 16.996C139.161 17.7411 138.84 18.3205 138.212 18.7053C137.615 19.0708 136.815 19.25 135.814 19.25C135.075 19.25 134.506 19.1938 134.102 19.078L133.799 18.9891C133.572 18.9202 133.41 18.864 133.309 18.8186C133.212 18.7751 133.155 18.6766 133.162 18.5749L133.173 18.5138L133.442 17.6815C133.485 17.5504 133.622 17.4822 133.747 17.5173L133.914 17.5915L133.978 17.6178C134.079 17.6578 134.215 17.7031 134.381 17.7507C134.553 17.8 134.756 17.8426 134.99 17.878C135.223 17.9136 135.498 17.9315 135.814 17.9315C136.371 17.9315 136.824 17.8507 137.172 17.6927C137.468 17.5588 137.602 17.3535 137.602 17.0386C137.602 16.8772 137.576 16.7443 137.526 16.6411C137.475 16.538 137.39 16.4426 137.264 16.3529C137.124 16.253 136.933 16.1535 136.693 16.057L136.359 15.9258L135.743 15.6926C135.434 15.5787 135.141 15.462 134.861 15.3419C134.569 15.2165 134.311 15.0708 134.086 14.9047C133.848 14.7304 133.657 14.5195 133.512 14.2719C133.387 14.0581 133.315 13.8093 133.294 13.5278L133.288 13.3551L133.294 11.487C133.3 11.3763 133.377 11.2855 133.48 11.2583L133.544 11.25H134.584ZM128.982 11.25C129.544 11.25 130.026 11.3214 130.429 11.4662C130.836 11.6127 131.17 11.8177 131.429 12.0825C131.687 12.3467 131.875 12.6606 131.992 13.0205C132.082 13.3001 132.136 13.5976 132.154 13.9129L132.161 14.1527V18.6804C132.161 18.7939 132.085 18.8931 131.975 18.9221C131.889 18.9448 131.778 18.9683 131.64 18.9928L131.494 19.0175C131.297 19.0496 131.066 19.0843 130.796 19.1226C130.525 19.1606 130.228 19.1913 129.905 19.2144C129.579 19.2381 129.245 19.25 128.903 19.25C128.455 19.25 128.04 19.2063 127.658 19.1186C127.267 19.0284 126.923 18.8846 126.629 18.6865C126.328 18.4832 126.091 18.2214 125.919 17.9029C125.746 17.5816 125.661 17.1962 125.661 16.75C125.661 16.3171 125.756 15.9394 125.949 15.6208C126.139 15.3069 126.405 15.0489 126.744 14.8474C127.075 14.6518 127.463 14.5103 127.91 14.4216C128.346 14.3348 128.82 14.2915 129.329 14.2915L129.566 14.297L129.85 14.3178L129.912 14.3305C129.991 14.3576 130.052 14.4229 130.073 14.5038L130.081 14.567V15.3358C130.081 15.4802 129.959 15.5946 129.815 15.5853C129.655 15.575 129.485 15.5698 129.296 15.5698C129.055 15.5698 128.802 15.5852 128.539 15.6161C128.291 15.6459 128.065 15.7083 127.858 15.8034C127.662 15.8936 127.505 16.0153 127.383 16.1694C127.273 16.307 127.216 16.4972 127.216 16.75C127.216 16.9797 127.257 17.1656 127.336 17.312C127.414 17.458 127.524 17.573 127.67 17.6613C127.828 17.7564 128.021 17.8273 128.251 17.8726C128.491 17.9203 128.766 17.9444 129.077 17.9444C129.471 17.9444 129.814 17.9331 130.105 17.9105L130.38 17.8859L130.637 17.854L130.638 14.2108C130.632 14.0918 130.625 13.9865 130.615 13.8899L130.599 13.7511L130.579 13.6216C130.543 13.4218 130.466 13.2449 130.349 13.088C130.233 12.9332 130.068 12.8064 129.848 12.7072C129.626 12.6075 129.322 12.5556 128.934 12.5556C128.355 12.5556 127.927 12.5912 127.658 12.6591L127.347 12.7402C127.212 12.777 127.107 12.8081 127.031 12.8339C126.907 12.876 126.775 12.8149 126.723 12.7018L126.704 12.6411L126.563 11.8494C126.542 11.7338 126.605 11.6194 126.713 11.5744C126.912 11.492 127.203 11.4188 127.593 11.3509C127.982 11.2835 128.445 11.25 128.982 11.25ZM116.482 11.25C117.044 11.25 117.526 11.3214 117.929 11.4662C118.336 11.6127 118.67 11.8177 118.929 12.0825C119.187 12.3465 119.375 12.6602 119.492 13.0207C119.582 13.3006 119.636 13.5982 119.654 13.9132L119.661 14.1527V18.6804C119.661 18.7939 119.585 18.8931 119.475 18.9221C119.389 18.9448 119.278 18.9683 119.141 18.9928L118.675 19.0674C118.559 19.0849 118.433 19.1032 118.296 19.1226C118.026 19.1605 117.728 19.1912 117.406 19.2144C117.079 19.2381 116.745 19.25 116.404 19.25C115.956 19.25 115.541 19.2063 115.158 19.1186C114.767 19.0286 114.424 18.8848 114.129 18.6865C113.828 18.4832 113.591 18.2214 113.419 17.903C113.246 17.5817 113.161 17.1963 113.161 16.75C113.161 16.3176 113.256 15.9398 113.449 15.6208C113.639 15.3069 113.905 15.0489 114.244 14.8474C114.575 14.6518 114.963 14.5103 115.41 14.4216C115.847 14.3348 116.32 14.2915 116.828 14.2915C116.932 14.2915 117.039 14.2947 117.149 14.3013L117.35 14.3177L117.412 14.3305C117.491 14.3576 117.552 14.423 117.573 14.5038L117.581 14.567V15.3358C117.581 15.4803 117.459 15.5946 117.315 15.5853C117.156 15.575 116.985 15.5698 116.797 15.5698C116.555 15.5698 116.302 15.5852 116.039 15.6161C115.791 15.6459 115.565 15.7083 115.358 15.8034C115.162 15.8936 115.005 16.0153 114.883 16.1693C114.773 16.3071 114.717 16.4973 114.717 16.75C114.717 16.9798 114.757 17.1655 114.837 17.3124C114.914 17.4578 115.024 17.5729 115.171 17.6613C115.328 17.7564 115.521 17.8273 115.751 17.8726C115.991 17.9203 116.267 17.9444 116.577 17.9444C116.972 17.9444 117.314 17.9331 117.605 17.9105L117.881 17.8859L118.137 17.854L118.138 14.2103C118.132 14.0945 118.125 13.9899 118.115 13.8928L118.099 13.7524L118.079 13.6205C118.043 13.4219 117.967 13.2455 117.849 13.0872C117.734 12.9337 117.568 12.8067 117.348 12.7071C117.127 12.6076 116.822 12.5556 116.435 12.5556C115.856 12.5556 115.427 12.5912 115.158 12.6591L114.847 12.7401C114.712 12.7769 114.607 12.808 114.531 12.8338C114.407 12.876 114.276 12.815 114.224 12.7019L114.205 12.6412L114.063 11.8495C114.042 11.7339 114.105 11.6194 114.213 11.5744C114.412 11.492 114.703 11.4188 115.093 11.3509C115.482 11.2835 115.945 11.25 116.482 11.25ZM123.781 11.25C124.14 11.25 124.482 11.2747 124.805 11.3242C125.134 11.3748 125.362 11.4251 125.503 11.4811C125.601 11.5201 125.662 11.6151 125.661 11.7165L125.653 11.7778L125.441 12.5745C125.402 12.7222 125.24 12.8004 125.1 12.7397C125.038 12.7131 124.877 12.6763 124.63 12.6365C124.377 12.5962 124.039 12.5755 123.618 12.5755C123.178 12.5755 122.826 12.6028 122.568 12.6558L122.22 12.735L122.221 19C122.221 19.0947 122.168 19.1771 122.091 19.2195L122.028 19.2434L121.971 19.25H120.911C120.793 19.25 120.694 19.1678 120.668 19.0573L120.661 19V11.9842C120.661 11.8807 120.725 11.7879 120.822 11.7508C121.107 11.6414 121.493 11.5312 121.98 11.4201C122.479 11.3064 123.079 11.25 123.781 11.25ZM107.891 12.75C107.383 12.75 106.973 12.7708 106.667 12.8117C106.482 12.8366 106.325 12.8621 106.198 12.8879L106.161 12.895V17.708L106.262 17.7667L106.392 17.8368C106.525 17.9063 106.684 17.9725 106.868 18.0353C107.053 18.0984 107.252 18.1501 107.467 18.1902C107.68 18.23 107.902 18.25 108.135 18.25C108.621 18.25 109.023 18.1777 109.34 18.0364C109.656 17.8957 109.908 17.7063 110.099 17.4676C110.294 17.2237 110.435 16.9369 110.523 16.6041C110.615 16.2606 110.661 15.8947 110.661 15.5072C110.661 14.6031 110.41 13.9263 109.912 13.4592C109.409 12.9872 108.74 12.75 107.891 12.75ZM162.892 12.75C162.383 12.75 161.974 12.7708 161.667 12.8117C161.482 12.8366 161.326 12.8621 161.198 12.8879L161.161 12.895V17.708L161.262 17.7667L161.392 17.8368C161.526 17.9066 161.684 17.9727 161.869 18.0353C162.053 18.0983 162.253 18.15 162.468 18.1902C162.68 18.23 162.903 18.25 163.135 18.25C163.622 18.25 164.023 18.1777 164.341 18.0365C164.657 17.8956 164.909 17.706 165.099 17.4675C165.294 17.2238 165.435 16.9371 165.524 16.6042C165.615 16.2611 165.661 15.8952 165.661 15.5072C165.661 14.6023 165.41 13.9259 164.912 13.4592C164.409 12.9871 163.74 12.75 162.892 12.75Z" fill="white"/>
</svg>
