<svg width="180" height="32" viewBox="0 0 180 32" fill="none" xmlns="http://www.w3.org/2000/svg">
<path d="M17.9146 18.8851V10.8851H20.7661C21.3885 10.8851 21.9041 10.9984 22.313 11.225C22.7218 11.4515 23.0278 11.7614 23.231 12.1547C23.4341 12.5453 23.5356 12.9854 23.5356 13.475C23.5356 13.9672 23.4328 14.4099 23.2271 14.8031C23.0239 15.1937 22.7166 15.5036 22.3052 15.7328C21.8963 15.9594 21.382 16.0726 20.7622 16.0726H18.8013V15.0492H20.6528C21.0461 15.0492 21.3651 14.9815 21.6099 14.8461C21.8547 14.708 22.0343 14.5205 22.1489 14.2836C22.2635 14.0466 22.3208 13.7771 22.3208 13.475C22.3208 13.1729 22.2635 12.9047 22.1489 12.6703C22.0343 12.4359 21.8534 12.2523 21.606 12.1195C21.3612 11.9867 21.0382 11.9203 20.6372 11.9203H19.1216V18.8851H17.9146ZM27.3091 19.0062C26.7466 19.0062 26.2557 18.8773 25.8364 18.6195C25.4172 18.3617 25.0916 18.001 24.8599 17.5375C24.6281 17.0739 24.5122 16.5323 24.5122 15.9125C24.5122 15.2901 24.6281 14.7458 24.8599 14.2797C25.0916 13.8135 25.4172 13.4515 25.8364 13.1937C26.2557 12.9359 26.7466 12.807 27.3091 12.807C27.8716 12.807 28.3625 12.9359 28.7817 13.1937C29.201 13.4515 29.5265 13.8135 29.7583 14.2797C29.9901 14.7458 30.106 15.2901 30.106 15.9125C30.106 16.5323 29.9901 17.0739 29.7583 17.5375C29.5265 18.001 29.201 18.3617 28.7817 18.6195C28.3625 18.8773 27.8716 19.0062 27.3091 19.0062ZM27.313 18.0258C27.6776 18.0258 27.9797 17.9294 28.2192 17.7367C28.4588 17.544 28.6359 17.2875 28.7505 16.9672C28.8677 16.6469 28.9263 16.294 28.9263 15.9086C28.9263 15.5258 28.8677 15.1742 28.7505 14.8539C28.6359 14.531 28.4588 14.2719 28.2192 14.0765C27.9797 13.8812 27.6776 13.7836 27.313 13.7836C26.9458 13.7836 26.6411 13.8812 26.3989 14.0765C26.1593 14.2719 25.981 14.531 25.8638 14.8539C25.7492 15.1742 25.6919 15.5258 25.6919 15.9086C25.6919 16.294 25.7492 16.6469 25.8638 16.9672C25.981 17.2875 26.1593 17.544 26.3989 17.7367C26.6411 17.9294 26.9458 18.0258 27.313 18.0258ZM32.5278 18.8851L30.7622 12.8851H31.9692L33.145 17.2914H33.2036L34.3833 12.8851H35.5903L36.7622 17.2719H36.8208L37.9888 12.8851H39.1958L37.4341 18.8851H36.2427L35.0239 14.5531H34.9341L33.7153 18.8851H32.5278ZM42.7075 19.0062C42.1164 19.0062 41.6073 18.8799 41.1802 18.6273C40.7557 18.3721 40.4276 18.014 40.1958 17.5531C39.9666 17.0896 39.8521 16.5466 39.8521 15.9242C39.8521 15.3096 39.9666 14.7679 40.1958 14.2992C40.4276 13.8304 40.7505 13.4646 41.1646 13.2015C41.5812 12.9385 42.0682 12.807 42.6255 12.807C42.964 12.807 43.2922 12.863 43.6099 12.975C43.9276 13.087 44.2127 13.2627 44.4653 13.5023C44.7179 13.7419 44.9172 14.0531 45.063 14.4359C45.2088 14.8161 45.2817 15.2784 45.2817 15.8226V16.2367H40.5122V15.3617H44.1372C44.1372 15.0544 44.0747 14.7823 43.9497 14.5453C43.8247 14.3057 43.6489 14.1169 43.4224 13.9789C43.1984 13.8409 42.9354 13.7719 42.6333 13.7719C42.3052 13.7719 42.0187 13.8526 41.7739 14.014C41.5317 14.1729 41.3442 14.3812 41.2114 14.639C41.0812 14.8942 41.0161 15.1716 41.0161 15.4711V16.1547C41.0161 16.5557 41.0864 16.8969 41.2271 17.1781C41.3703 17.4594 41.5695 17.6742 41.8247 17.8226C42.0799 17.9685 42.3781 18.0414 42.7192 18.0414C42.9406 18.0414 43.1424 18.0101 43.3247 17.9476C43.507 17.8825 43.6646 17.7862 43.7974 17.6586C43.9302 17.531 44.0317 17.3734 44.1021 17.1859L45.2075 17.3851C45.119 17.7107 44.9601 17.9958 44.731 18.2406C44.5044 18.4828 44.2192 18.6716 43.8755 18.807C43.5343 18.9398 43.145 19.0062 42.7075 19.0062ZM46.5776 18.8851V12.8851H47.7065V13.8383H47.769C47.8784 13.5153 48.0711 13.2614 48.3472 13.0765C48.6258 12.889 48.9409 12.7953 49.2925 12.7953C49.3654 12.7953 49.4513 12.7979 49.5503 12.8031C49.6519 12.8083 49.7313 12.8148 49.7886 12.8226V13.9398C49.7417 13.9268 49.6584 13.9125 49.5386 13.8969C49.4188 13.8786 49.299 13.8695 49.1792 13.8695C48.9032 13.8695 48.6571 13.9281 48.4409 14.0453C48.2274 14.1599 48.0581 14.32 47.9331 14.5258C47.8081 14.7289 47.7456 14.9607 47.7456 15.2211V18.8851H46.5776ZM53.1704 19.0062C52.5793 19.0062 52.0701 18.8799 51.6431 18.6273C51.2186 18.3721 50.8905 18.014 50.6587 17.5531C50.4295 17.0896 50.3149 16.5466 50.3149 15.9242C50.3149 15.3096 50.4295 14.7679 50.6587 14.2992C50.8905 13.8304 51.2134 13.4646 51.6274 13.2015C52.0441 12.9385 52.5311 12.807 53.0884 12.807C53.4269 12.807 53.755 12.863 54.0728 12.975C54.3905 13.087 54.6756 13.2627 54.9282 13.5023C55.1808 13.7419 55.38 14.0531 55.5259 14.4359C55.6717 14.8161 55.7446 15.2784 55.7446 15.8226V16.2367H50.9751V15.3617H54.6001C54.6001 15.0544 54.5376 14.7823 54.4126 14.5453C54.2876 14.3057 54.1118 14.1169 53.8853 13.9789C53.6613 13.8409 53.3983 13.7719 53.0962 13.7719C52.7681 13.7719 52.4816 13.8526 52.2368 14.014C51.9946 14.1729 51.8071 14.3812 51.6743 14.639C51.5441 14.8942 51.479 15.1716 51.479 15.4711V16.1547C51.479 16.5557 51.5493 16.8969 51.6899 17.1781C51.8332 17.4594 52.0324 17.6742 52.2876 17.8226C52.5428 17.9685 52.841 18.0414 53.1821 18.0414C53.4035 18.0414 53.6053 18.0101 53.7876 17.9476C53.9699 17.8825 54.1274 17.7862 54.2603 17.6586C54.3931 17.531 54.4946 17.3734 54.5649 17.1859L55.6704 17.3851C55.5819 17.7107 55.423 17.9958 55.1938 18.2406C54.9673 18.4828 54.6821 18.6716 54.3384 18.807C53.9972 18.9398 53.6079 19.0062 53.1704 19.0062ZM59.2866 19.0023C58.8022 19.0023 58.37 18.8786 57.9897 18.6312C57.6121 18.3812 57.3153 18.0258 57.0991 17.5648C56.8856 17.1013 56.7788 16.5453 56.7788 15.8969C56.7788 15.2484 56.8869 14.6937 57.103 14.2328C57.3218 13.7719 57.6213 13.419 58.0015 13.1742C58.3817 12.9294 58.8127 12.807 59.2944 12.807C59.6668 12.807 59.9663 12.8695 60.1929 12.9945C60.422 13.1169 60.5991 13.2601 60.7241 13.4242C60.8517 13.5883 60.9507 13.7328 61.021 13.8578H61.0913V10.8851H62.2593V18.8851H61.1187V17.9515H61.021C60.9507 18.0791 60.8491 18.225 60.7163 18.389C60.5861 18.5531 60.4064 18.6963 60.1772 18.8187C59.9481 18.9411 59.6512 19.0023 59.2866 19.0023ZM59.5444 18.0062C59.8804 18.0062 60.1642 17.9177 60.396 17.7406C60.6304 17.5609 60.8075 17.3122 60.9272 16.9945C61.0496 16.6768 61.1108 16.307 61.1108 15.8851C61.1108 15.4685 61.0509 15.1039 60.9312 14.7914C60.8114 14.4789 60.6356 14.2354 60.4038 14.0609C60.172 13.8864 59.8856 13.7992 59.5444 13.7992C59.1929 13.7992 58.8999 13.8903 58.6655 14.0726C58.4312 14.2549 58.2541 14.5036 58.1343 14.8187C58.0171 15.1338 57.9585 15.4893 57.9585 15.8851C57.9585 16.2862 58.0184 16.6469 58.1382 16.9672C58.258 17.2875 58.4351 17.5414 58.6694 17.7289C58.9064 17.9138 59.1981 18.0062 59.5444 18.0062ZM66.9312 18.8851V10.8851H68.0991V13.8578H68.1694C68.2371 13.7328 68.3348 13.5883 68.4624 13.4242C68.59 13.2601 68.7671 13.1169 68.9937 12.9945C69.2202 12.8695 69.5197 12.807 69.8921 12.807C70.3765 12.807 70.8088 12.9294 71.189 13.1742C71.5692 13.419 71.8674 13.7719 72.0835 14.2328C72.3022 14.6937 72.4116 15.2484 72.4116 15.8969C72.4116 16.5453 72.3035 17.1013 72.0874 17.5648C71.8713 18.0258 71.5744 18.3812 71.1968 18.6312C70.8192 18.8786 70.3882 19.0023 69.9038 19.0023C69.5392 19.0023 69.241 18.9411 69.0093 18.8187C68.7801 18.6963 68.6004 18.5531 68.4702 18.389C68.34 18.225 68.2397 18.0791 68.1694 17.9515H68.0718V18.8851H66.9312ZM68.0757 15.8851C68.0757 16.307 68.1369 16.6768 68.2593 16.9945C68.3817 17.3122 68.5588 17.5609 68.7905 17.7406C69.0223 17.9177 69.3062 18.0062 69.6421 18.0062C69.991 18.0062 70.2827 17.9138 70.5171 17.7289C70.7515 17.5414 70.9285 17.2875 71.0483 16.9672C71.1707 16.6469 71.2319 16.2862 71.2319 15.8851C71.2319 15.4893 71.172 15.1338 71.0522 14.8187C70.9351 14.5036 70.758 14.2549 70.521 14.0726C70.2866 13.8903 69.9937 13.7992 69.6421 13.7992C69.3035 13.7992 69.0171 13.8864 68.7827 14.0609C68.5509 14.2354 68.3752 14.4789 68.2554 14.7914C68.1356 15.1039 68.0757 15.4685 68.0757 15.8851ZM74.2573 21.1351C74.0828 21.1351 73.924 21.1208 73.7808 21.0922C73.6375 21.0661 73.5308 21.0375 73.4604 21.0062L73.7417 20.0492C73.9552 20.1065 74.1453 20.1312 74.312 20.1234C74.4787 20.1156 74.6258 20.0531 74.7534 19.9359C74.8836 19.8187 74.9982 19.6273 75.0972 19.3617L75.2417 18.9633L73.0464 12.8851H74.2964L75.8159 17.5414H75.8784L77.3979 12.8851H78.6519L76.1792 19.6859C76.0646 19.9984 75.9188 20.2627 75.7417 20.4789C75.5646 20.6976 75.3537 20.8617 75.1089 20.9711C74.8641 21.0804 74.5802 21.1351 74.2573 21.1351Z" fill="white"/>
<path fill-rule="evenodd" clip-rule="evenodd" d="M103.946 9.91411L103.976 9.91511C104.104 9.92379 104.228 9.98869 104.306 10.1043L104.323 10.1318L104.746 10.8686L104.803 10.9686C105.586 12.3733 106.009 13.9614 106.028 15.5761L106.029 15.6942L106.028 15.8549C105.942 21.0933 101.685 25.3386 96.4322 25.423L96.2727 25.4242L96.1589 25.4236C94.0746 25.4001 92.0996 24.7326 90.4336 23.488L90.343 23.4196L89.7541 22.9694L89.7318 22.9511C89.5525 22.7944 89.5342 22.5212 89.6909 22.3423L89.7114 22.3204L93.7091 18.3337L93.7316 18.3128C93.8618 18.2 94.0469 18.1751 94.2024 18.2492L94.2312 18.2642L94.6626 18.5107L94.7297 18.548C95.1786 18.7904 95.6809 18.9238 96.1919 18.9365L96.2727 18.9376L96.3286 18.9371C98.0776 18.9075 99.4947 17.4943 99.5243 15.75L99.5248 15.6942L99.5234 15.6016C99.518 15.4162 99.4962 15.2298 99.4585 15.0454L99.4384 14.9534L99.3561 14.6023L99.3503 14.5731C99.3298 14.447 99.3663 14.3182 99.4499 14.2216L99.4718 14.1981L100.452 13.2201L100.474 13.1999C100.68 13.0199 101.002 13.075 101.137 13.3125L101.151 13.3387L101.198 13.4384C101.428 13.9391 101.581 14.4739 101.649 15.0246L101.662 15.135L101.673 15.2468C101.682 15.3587 101.689 15.4706 101.692 15.5825L101.693 15.6942L101.692 15.7835C101.645 18.6937 99.2795 21.0522 96.3613 21.0991L96.2727 21.0998L96.1632 21.0987C95.5797 21.0868 95.0026 20.9806 94.4557 20.7863L94.3535 20.7488L92.7163 22.3815L92.8155 22.4334C93.8441 22.9614 94.9784 23.244 96.1584 23.2612L96.2727 23.262L96.398 23.261C100.483 23.1947 103.794 19.8925 103.86 15.818L103.861 15.6942L103.86 15.5704C103.848 14.8301 103.727 14.0975 103.504 13.3978L103.464 13.2747L103.461 13.2772L103.419 13.156C103.233 12.6326 102.989 12.1303 102.69 11.6582L102.62 11.5499L102.604 11.5236C102.515 11.3642 102.533 11.1661 102.652 11.0279L102.674 11.0042L103.64 10.0408C103.726 9.9552 103.837 9.91411 103.946 9.91411ZM96.4035 6C98.5387 6 100.564 6.6691 102.268 7.93619L102.359 8.00464L102.95 8.45486L102.973 8.47312C103.153 8.62979 103.171 8.90288 103.014 9.08196L102.993 9.10384L98.9782 13.0906L98.9556 13.1115C98.8248 13.2242 98.6388 13.2493 98.4826 13.1751L98.4537 13.1601L98.0202 12.9134L97.9529 12.8762C97.5022 12.6339 96.9977 12.5004 96.4846 12.4876L96.4035 12.4866L96.3473 12.4871C94.5907 12.5166 93.1675 13.93 93.1377 15.6741L93.1372 15.7299L93.1386 15.8227C93.1441 16.0083 93.1659 16.1947 93.2037 16.3789L93.2239 16.4708L93.3065 16.8221L93.3123 16.8512C93.3329 16.9773 93.2962 17.106 93.2124 17.2027L93.1904 17.2262L92.2059 18.2037L92.1842 18.2239C91.9773 18.4039 91.6541 18.349 91.5184 18.1113L91.5046 18.0852L91.4576 17.986C91.2276 17.4878 91.0743 16.9558 91.0044 16.4094L90.9916 16.2999L90.9813 16.1943L90.9731 16.0885L90.9702 16.0447L90.9676 16.0008L90.9636 15.9105L90.9608 15.8202L90.9597 15.7299L90.9605 15.6407C91.0082 12.7305 93.3835 10.372 96.3145 10.3251L96.4035 10.3244L96.5134 10.3255C97.0994 10.3373 97.6791 10.4436 98.2283 10.638L98.331 10.6754L99.9752 9.0427L99.8756 8.99083C98.8424 8.46281 97.7033 8.18014 96.5183 8.16299L96.4035 8.16216L96.2776 8.16317C92.1745 8.22946 88.8493 11.5318 88.7832 15.6062L88.7822 15.7299L88.7832 15.8538C88.7954 16.5942 88.9167 17.3268 89.1406 18.0264L89.1811 18.1495L89.1835 18.1472L89.2257 18.2683C89.413 18.7918 89.6585 19.2944 89.9579 19.7663L90.0279 19.8746L90.044 19.9009C90.1338 20.0603 90.1158 20.2583 89.996 20.3965L89.9738 20.4202L89.0037 21.3834L88.9823 21.4034C88.7848 21.5752 88.4783 21.5346 88.3333 21.3173L88.3178 21.2924L87.8932 20.5557L87.8364 20.4556C87.049 19.0503 86.6247 17.4612 86.6054 15.8454L86.6047 15.7299L86.6061 15.5693C86.6928 10.278 91.0544 6 96.4035 6ZM115.487 10.3944C116.866 10.3944 117.969 10.8172 119.063 11.7649C119.153 11.8442 119.204 11.9481 119.207 12.0581C119.21 12.1579 119.174 12.2542 119.106 12.3325L119.084 12.3555L118.456 12.9971C118.368 13.1057 118.272 13.1336 118.207 13.1376C118.135 13.1423 118.024 13.1222 117.905 13.0031C117.241 12.4253 116.34 12.0768 115.502 12.0768C113.577 12.0768 112.012 13.6975 112.012 15.69C112.012 17.6743 113.584 19.2885 115.516 19.2885C116.572 19.2885 117.294 18.8451 117.917 18.3658C118.073 18.2452 118.261 18.2345 118.403 18.3364L118.427 18.3544L119.098 19.0091C119.166 19.0681 119.208 19.1591 119.211 19.2607C119.215 19.3778 119.167 19.4972 119.084 19.5802C118.115 20.5187 116.872 21.0141 115.487 21.0141C112.545 21.0141 110.151 18.6386 110.151 15.7187C110.151 12.7829 112.545 10.3944 115.487 10.3944ZM141.579 10.3944C142.957 10.3944 144.06 10.8172 145.154 11.7649C145.244 11.8442 145.294 11.948 145.298 12.0581C145.301 12.1578 145.265 12.254 145.197 12.3325L145.176 12.3555L144.547 12.9971C144.459 13.1057 144.363 13.1336 144.298 13.1376C144.226 13.1423 144.116 13.1222 143.996 13.0031C143.332 12.4253 142.431 12.0768 141.593 12.0768C139.668 12.0768 138.103 13.6975 138.103 15.69C138.103 17.6743 139.675 19.2885 141.607 19.2885C142.663 19.2885 143.385 18.8451 144.009 18.3658C144.164 18.2452 144.352 18.2345 144.494 18.3364L144.518 18.3544L145.189 19.0091C145.257 19.0681 145.299 19.1591 145.302 19.2606C145.306 19.3776 145.259 19.4971 145.176 19.58C144.206 20.5187 142.963 21.0141 141.579 21.0141C138.636 21.0141 136.242 18.6386 136.242 15.7187C136.242 12.7829 138.636 10.3944 141.579 10.3944ZM123.002 10.5384C123.208 10.5384 123.39 10.7116 123.405 10.915L123.406 10.9406V20.4679C123.406 20.6736 123.232 20.8552 123.027 20.8694L123.002 20.8703H122.05C121.843 20.8703 121.661 20.6969 121.647 20.4935L121.646 20.4679V10.9406C121.646 10.7349 121.82 10.5534 122.024 10.5393L122.05 10.5384H123.002ZM130.992 10.5384C132.797 10.5384 134.266 11.9778 134.266 13.747C134.266 15.0097 133.497 16.126 132.245 16.7039L132.183 16.7319L134.092 20.2632C134.165 20.3979 134.164 20.5578 134.09 20.6807C134.022 20.7931 133.904 20.8609 133.763 20.8694L133.733 20.8703H132.607C132.449 20.8703 132.326 20.7787 132.271 20.6877L132.26 20.6695L130.378 16.9269H128.41V20.4679C128.41 20.6736 128.236 20.8552 128.032 20.8694L128.006 20.8703H127.069C126.855 20.8703 126.679 20.7039 126.666 20.4943L126.665 20.4679V10.9406C126.665 10.7278 126.832 10.5529 127.042 10.5392L127.069 10.5384H130.992ZM149.093 10.5384C149.299 10.5384 149.482 10.7116 149.496 10.915L149.497 10.9406V19.2742H153.275C153.489 19.2742 153.665 19.4406 153.679 19.6501L153.68 19.6765V20.4679C153.68 20.6809 153.512 20.8558 153.302 20.8695L153.275 20.8703H148.141C147.927 20.8703 147.751 20.7039 147.738 20.4943L147.737 20.4679V10.9406C147.737 10.7277 147.904 10.5529 148.114 10.5392L148.141 10.5384H149.093ZM161.828 10.5384C162.042 10.5384 162.218 10.7047 162.231 10.9142L162.232 10.9406V11.7466C162.232 11.9595 162.065 12.1344 161.855 12.148L161.828 12.1489H157.4V14.8271H161.122C161.328 14.8271 161.51 15.0004 161.525 15.2039L161.526 15.2294V16.0353C161.526 16.2482 161.359 16.4231 161.148 16.4368L161.122 16.4376H157.4V19.2742H161.828C162.042 19.2742 162.218 19.4406 162.231 19.65L162.232 19.6764V20.4679C162.232 20.6809 162.065 20.8558 161.855 20.8695L161.828 20.8703H156.059C155.845 20.8703 155.67 20.7039 155.656 20.4943L155.655 20.4679V10.9406C155.655 10.7278 155.822 10.5529 156.032 10.5392L156.059 10.5384H161.828ZM130.877 12.1921H128.439V15.4315H130.877C131.76 15.4315 132.506 14.6734 132.506 13.7758C132.506 12.9173 131.76 12.1921 130.877 12.1921Z" fill="white"/>
</svg>
