<svg width="128" height="128" viewBox="0 0 128 128" fill="none" xmlns="http://www.w3.org/2000/svg">
<rect width="128" height="128" fill="white"/>
<path d="M88.0687 46.9861C88.003 47.406 87.928 47.8353 87.8435 48.2763C84.9416 63.1753 75.0137 68.3222 62.334 68.3222H55.878C54.3274 68.3222 53.0207 69.4482 52.7791 70.9778L49.4737 91.9409L48.5377 97.8831C48.3805 98.8871 49.1546 99.7927 50.1681 99.7927H61.6185C62.9744 99.7927 64.1263 98.8074 64.3398 97.4702L64.4524 96.8884L66.6083 83.207L66.7467 82.4563C66.9578 81.1145 68.112 80.1292 69.4679 80.1292H71.1805C82.2743 80.1292 90.9589 75.625 93.4972 62.5911C94.5575 57.1462 94.0086 52.5999 91.2029 49.4024C90.3536 48.4382 89.3003 47.6382 88.0687 46.9861Z" fill="#179BD7"/>
<path d="M85.0331 45.7757C84.5897 45.6467 84.1322 45.5294 83.663 45.4238C83.1915 45.3206 82.7083 45.2291 82.2109 45.1494C80.4703 44.8678 78.563 44.7341 76.5197 44.7341H59.2725C58.8479 44.7341 58.4444 44.8303 58.0832 45.0039C57.2879 45.3863 56.6967 46.1393 56.5536 47.0613L52.8846 70.2999L52.7791 70.9779C53.0207 69.4484 54.3274 68.3223 55.878 68.3223H62.334C75.0137 68.3223 84.9416 63.173 87.8435 48.2765C87.9303 47.8354 88.003 47.4061 88.0687 46.9862C87.3344 46.5968 86.5391 46.2637 85.6829 45.9798C85.4717 45.9094 85.2536 45.8414 85.0331 45.7757Z" fill="#222D65"/>
<path d="M56.5536 47.0612C56.6967 46.1393 57.2879 45.3862 58.0832 45.0062C58.4468 44.8326 58.8479 44.7364 59.2725 44.7364H76.5197C78.563 44.7364 80.4702 44.8701 82.2109 45.1516C82.7082 45.2314 83.1915 45.3229 83.663 45.4261C84.1322 45.5317 84.5897 45.649 85.033 45.778C85.2536 45.8437 85.4717 45.9117 85.6852 45.9797C86.5415 46.2636 87.3367 46.5991 88.071 46.9861C88.9343 41.4803 88.064 37.7315 85.087 34.337C81.8051 30.5999 75.8816 29 68.302 29H46.2973C44.749 29 43.4282 30.126 43.1889 31.6579L34.0234 89.7546C33.8428 90.9041 34.7296 91.9409 35.8884 91.9409H49.4736L52.8846 70.2999L56.5536 47.0612Z" fill="#253B80"/>
</svg>
