<svg width="128" height="128" viewBox="0 0 128 128" fill="none" xmlns="http://www.w3.org/2000/svg">
<rect width="128" height="128" fill="#4D01EB"/>
<path d="M94.3165 48.8572C94.168 48.1481 93.9702 47.4502 93.7245 46.7687C93.5568 46.3158 93.3693 45.8752 93.1621 45.447C92.8742 44.8616 92.5504 44.2947 92.1926 43.7493C91.8343 43.2092 91.4412 42.6931 91.0159 42.2041V42.1967C90.858 42.011 90.691 41.8331 90.5156 41.6638C90.4668 41.6105 90.415 41.5632 90.3676 41.5158L83.8522 34.987L83.8359 34.9959C82.4687 33.5767 80.8297 32.4475 79.0165 31.6757C77.2034 30.9039 75.2533 30.5053 73.2827 30.5038L45.3338 30.5038C41.4347 30.5069 37.696 32.0563 34.9377 34.8121C32.1794 37.5679 30.6267 41.3052 30.62 45.2042L30.62 73.9065C30.6254 77.6895 32.0904 81.3245 34.7095 84.0542L41.6335 90.9707C42.2365 91.5729 42.8902 92.122 43.5872 92.6122C44.1243 92.9804 44.6839 93.3146 45.2627 93.6127C46.4399 94.2166 47.6937 94.6578 48.9896 94.9241C49.9639 95.122 50.9557 95.2212 51.9499 95.2201H79.8884C80.8891 95.2232 81.8874 95.1241 82.8679 94.9241C83.346 94.8235 83.8033 94.6977 84.2681 94.5585C86.4434 93.8818 88.4317 92.7088 90.076 91.1321C90.4313 90.7857 90.7761 90.4201 91.1121 90.0324C91.7654 89.2701 92.3387 88.4428 92.8231 87.5635C92.9445 87.3371 93.0555 87.1195 93.1695 86.8871C93.3767 86.4668 93.5632 86.0257 93.7319 85.5757C93.8074 85.3493 93.8903 85.1169 93.9584 84.8964C94.1077 84.4327 94.2298 83.9608 94.3239 83.4829C94.5219 82.5086 94.621 81.5168 94.62 80.5226V51.8174C94.6216 50.8188 94.5224 49.8225 94.3239 48.8438M79.8884 90.0708H51.9469C50.1462 90.0762 48.3815 89.5662 46.8612 88.6011C45.4956 87.7388 44.37 86.5455 43.5888 85.1319C42.8076 83.7183 42.3962 82.1303 42.3928 80.5152V51.8174C42.3975 49.2856 43.4058 46.859 45.1968 45.0694C46.9877 43.2799 49.4151 42.2734 51.9469 42.2707H79.8884C81.5074 42.2671 83.1006 42.6758 84.5178 43.4584C85.9351 44.2409 87.1297 45.3715 87.9891 46.7436C88.9545 48.2636 89.464 50.0285 89.4573 51.8292V80.5167C89.4546 83.0516 88.4457 85.4817 86.6523 87.2731C84.8589 89.0646 82.4277 90.0708 79.8929 90.0708" fill="white"/>
<path d="M73.1049 68.3308H58.0078C57.4429 68.3308 56.9012 68.5552 56.5018 68.9546C56.1023 69.3541 55.8779 69.8958 55.8779 70.4607C55.8779 71.0256 56.1023 71.5673 56.5018 71.9667C56.9012 72.3662 57.4429 72.5906 58.0078 72.5906H65.3773V76.8074L65.4217 76.7719C65.449 77.1889 65.5986 77.5886 65.8516 77.9212C66.1046 78.2538 66.45 78.5046 66.8445 78.6422C67.2391 78.7798 67.6655 78.7982 68.0705 78.6952C68.4755 78.5921 68.8412 78.3721 69.122 78.0625L74.6827 71.892C74.958 71.5861 75.1387 71.2071 75.203 70.8007C75.2673 70.3943 75.2124 69.9779 75.045 69.6021C74.8776 69.2262 74.6048 68.907 74.2597 68.6829C73.9146 68.4589 73.512 68.3396 73.1005 68.3397" fill="white"/>
<path d="M57.8481 64.431H72.9363C73.4972 64.4376 74.0381 64.2229 74.4418 63.8334C74.8454 63.4438 75.0792 62.9109 75.0925 62.3501C75.1057 61.7893 74.8973 61.2459 74.5125 60.8377C74.1277 60.4295 73.5976 60.1895 73.0369 60.1697H65.5668V55.9484L65.5224 55.984C65.4967 55.566 65.3479 55.1651 65.0948 54.8315C64.8418 54.4979 64.4957 54.2467 64.1001 54.1094C63.7046 53.972 63.2772 53.9548 62.8719 54.0597C62.4666 54.1647 62.1013 54.3872 61.8222 54.6992L56.2614 60.8728C55.9861 61.1786 55.8054 61.5576 55.7411 61.964C55.6768 62.3704 55.7317 62.7868 55.8991 63.1626C56.0665 63.5385 56.3393 63.8578 56.6844 64.0818C57.0295 64.3059 57.4322 64.4251 57.8436 64.425" fill="white"/>
</svg>
