<svg width="128" height="128" viewBox="0 0 128 128" fill="none" xmlns="http://www.w3.org/2000/svg">
<rect width="128" height="128" fill="black"/>
<path d="M39.2858 31.8643C47.4355 26.957 59.9506 32.0492 70.6354 43.4815C72.4566 39.6554 73.4294 35.4375 73.4294 31.1192H75.8259C75.826 38.7484 78.857 46.0653 84.2517 51.46C89.6463 56.8545 96.9633 59.8848 104.592 59.8848V62.2823C97.7918 62.2823 91.2398 64.6913 86.0759 69.0352C91.386 84.1877 90.052 98.0538 81.7634 103.045L81.2595 103.335C79.2971 104.396 77.0991 104.903 74.7468 104.909C65.1314 105.825 51.9396 100.281 40.4021 89.7178L38.8591 88.2627C22.7626 72.6865 16.4448 53.0076 24.4841 43.8887L24.8776 43.4619C27.0481 41.2191 29.9538 39.8952 33.3474 39.42C34.5043 36.3199 36.316 33.8299 38.7946 32.1758L39.2858 31.8643ZM43.9353 42.8418C40.7091 41.9503 37.781 41.6021 35.2165 41.7451C34.5198 44.2003 34.2085 47.1078 34.3425 50.416C34.6689 58.4662 37.6546 68.2621 43.3464 77.7998C49.0385 87.3378 56.2336 94.5997 63.1481 98.6826C67.4637 101.231 71.4503 102.429 74.8532 102.388C77.9892 102.023 80.5172 100.87 82.2995 99.0284C85.6816 95.5332 86.5036 89.4365 84.0886 81.6973C83.3611 79.3662 82.3519 76.9437 81.0769 74.4834C77.6838 79.2995 75.8259 85.0775 75.8259 91.0479H73.4294C73.4294 83.4189 70.398 76.1017 65.0036 70.7071C59.609 65.3129 52.2925 62.2824 44.6638 62.2823V59.8848C51.4505 59.8847 57.988 57.4838 63.1472 53.1563C56.7019 48.0171 49.9841 44.5135 43.9353 42.8418ZM32.5437 42.0977C30.1294 42.6227 28.1469 43.6754 26.6735 45.1973C23.2914 48.6925 22.4674 54.7919 24.8825 62.5313C27.2657 70.1677 32.6598 78.7916 40.5944 86.4698C46.7939 92.4688 53.5206 96.8976 59.8435 99.5645C53.6313 95.3994 47.438 88.9757 42.3171 80.9092L41.1999 79.0918C33.2437 65.7596 30.2903 51.7425 32.5437 42.0977ZM84.0651 70.8975C83.6119 71.3592 83.1762 71.8351 82.7575 72.3233C84.2835 75.1253 85.4894 77.9058 86.3562 80.5948C85.9384 77.5169 85.1763 74.2533 84.0651 70.8975ZM57.904 36.2285C50.897 32.0911 44.7564 31.5029 40.5739 34.0205C38.7118 35.142 37.2076 36.8978 36.1403 39.2207C44.5246 39.1513 55.1573 43.507 65.0104 51.4512C66.7098 49.7505 68.1746 47.8591 69.3835 45.8272C65.674 41.7498 61.7465 38.4976 57.904 36.2285Z" fill="white"/>
</svg>
