<svg width="128" height="128" viewBox="0 0 128 128" fill="none" xmlns="http://www.w3.org/2000/svg">
<rect width="128" height="128" fill="black"/>
<path d="M64.129 28C66.6693 27.9991 69.2026 28.2643 71.6875 28.792C77.9827 30.1325 83.6694 33.1135 88.2823 37.2637C88.2818 37.1138 88.2833 37.0344 88.2832 37.0323C91.4566 39.9022 94.0763 43.3306 96.0118 47.1465C96.0547 47.2326 96.0983 47.3129 96.1387 47.3955C96.9271 48.9702 97.6041 50.5979 98.1661 52.2666C98.1894 52.3366 98.213 52.4069 98.2354 52.4766C98.9146 54.5645 99.4013 56.7102 99.6885 58.8868C99.8975 60.4722 100.001 62.07 100 63.669C100 83.6227 83.8251 99.7969 63.8721 99.7969C59.818 97.7663 54.149 91.7738 51.67 87.8077C48.3074 82.4275 45.592 73.1513 46.1338 72.503C49.3819 79.013 56.1045 83.4844 63.8741 83.4844C65.3929 83.4851 66.9066 83.3124 68.3858 82.9678C71.0248 82.3491 73.5092 81.1958 75.6856 79.5801C77.862 77.9644 79.6842 75.9202 81.0401 73.5733C81.5891 72.9452 82.0945 72.2141 82.5635 71.4004C83.475 69.0928 83.9486 66.6266 83.9454 64.128C83.9454 53.1844 75.0734 44.3116 64.129 44.3116C55.7205 44.3116 48.5365 49.549 45.6583 56.9375C41.8656 66.6871 45.046 80.032 50.2286 88.5577C50.2708 88.6273 50.3152 88.6968 50.3565 88.7657C53.0629 93.1587 56.5729 97.0029 60.7032 100.096C51.3695 99.2158 42.7464 94.7327 36.6631 87.5997C36.3511 87.2357 36.0462 86.8654 35.7491 86.4883C30.718 80.1222 27.9869 72.2421 28 64.128C27.9994 62.5903 28.0969 61.0537 28.2911 59.5284C29.8431 47.2779 37.5391 36.9424 48.1895 31.6983C53.1478 29.2572 58.6023 27.9916 64.129 28Z" fill="white"/>
</svg>
