<svg width="128" height="128" viewBox="0 0 128 128" fill="none" xmlns="http://www.w3.org/2000/svg">
<rect width="128" height="128" fill="#635BFF"/>
<path fill-rule="evenodd" clip-rule="evenodd" d="M59.106 50.252C59.106 47.444 61.41 46.364 65.226 46.364C70.698 46.364 77.61 48.02 83.082 50.972V34.052C77.106 31.676 71.202 30.74 65.226 30.74C50.61 30.74 40.89 38.372 40.89 51.116C40.89 70.988 68.25 67.82 68.25 76.388C68.25 79.7 65.37 80.78 61.338 80.78C55.362 80.78 47.73 78.332 41.682 75.02V92.156C48.378 95.036 55.146 96.26 61.338 96.26C76.314 96.26 86.61 88.844 86.61 75.956C86.538 54.5 59.106 58.316 59.106 50.252Z" fill="white"/>
</svg>
