<svg width="128" height="128" viewBox="0 0 128 128" fill="none" xmlns="http://www.w3.org/2000/svg">
<rect width="128" height="128" fill="#0086FB"/>
<path d="M82.8558 38.8155L86.1844 26.5H76.5312L74.5342 34.1613C72.759 33.495 70.8729 33.0524 68.9899 32.7188L70.6511 26.5H60.9979L59.4445 32.4919C51.1239 33.6008 43.4677 37.9284 38.3659 44.6966C27.7126 58.5655 30.3749 78.5373 44.2449 89.1885L40.9163 101.5H50.4626L52.4596 93.8448C54.2348 94.5101 56.1219 94.9536 58.004 95.2873L56.3386 101.5H65.88L67.5443 95.5091C75.8659 94.4032 83.5272 90.0766 88.626 83.3085C99.3881 69.3276 96.7247 49.4677 82.8558 38.8155ZM63.5503 71.4365C62.058 71.4367 60.5991 70.9943 59.3581 70.1654C58.1171 69.3364 57.1499 68.158 56.5786 66.7793C56.0074 65.4006 55.8578 63.8834 56.1488 62.4197C56.4399 60.956 57.1584 59.6114 58.2136 58.5561C59.2688 57.5008 60.6133 56.782 62.0769 56.4908C63.5406 56.1996 65.0578 56.349 66.4366 56.92C67.8154 57.4911 68.9939 58.4582 69.823 59.699C70.6521 60.9399 71.0947 62.3988 71.0947 63.8911C71.0947 68.1079 67.7661 71.4365 63.5503 71.4365Z" fill="white"/>
</svg>
