<svg width="128" height="128" viewBox="0 0 128 128" fill="none" xmlns="http://www.w3.org/2000/svg">
<rect width="128" height="128" fill="url(#paint0_linear_3590_2127)"/>
<path d="M95.4443 48.9564H43.3613V58.3168C43.3613 59.6397 43.448 60.9575 43.6289 62.267C45.0599 72.9859 52.2956 82.8766 63.6787 89.5375C63.6898 89.5473 63.7031 89.5557 63.7168 89.5619L63.7461 89.5424L63.7949 89.5131C65.6642 90.5587 67.6103 91.4514 69.6123 92.1898C67.6143 91.4515 65.6724 90.5597 63.8066 89.516C65.2916 88.6383 66.7337 87.6881 68.124 86.6674C68.2616 86.5782 68.3938 86.478 68.5234 86.3754C72.6123 83.431 76.0937 79.7838 78.8271 75.6381C78.8804 75.4771 78.9925 75.2513 79.1758 74.9545H54.417C51.7387 71.4499 49.8973 67.6213 49.0117 63.6469H84.2178C84.2182 63.6453 84.2183 63.6436 84.2188 63.642L95.0938 63.6439C94.5673 67.7384 93.4443 71.7336 91.7598 75.5023C88.6465 82.5007 83.6404 88.8702 77.0469 94.1703C77.0433 94.1697 77.0397 94.1689 77.0361 94.1683C73.5194 96.9727 69.7176 99.3997 65.6934 101.409L63.7227 102.4L61.7402 101.411C43.113 92.0642 32 75.9614 32 58.3197V37.6H95.4443V48.9564ZM95.4473 58.3158C95.4473 58.7019 95.4337 59.0909 95.4199 59.4769H84.0527C84.0662 59.0909 84.0713 58.7019 84.0713 58.3158V48.9603H95.4473V58.3158Z" fill="white"/>
<defs>
<linearGradient id="paint0_linear_3590_2127" x1="128.002" y1="22.44" x2="2.32858e-06" y2="22.4421" gradientUnits="userSpaceOnUse">
<stop stop-color="#0042B8"/>
<stop offset="1" stop-color="#000756"/>
</linearGradient>
</defs>
</svg>
