<svg width="128" height="128" viewBox="0 0 128 128" fill="none" xmlns="http://www.w3.org/2000/svg">
<rect width="128" height="128" fill="black"/>
<path d="M84 82.7998C87.9763 82.7999 91.2001 86.0237 91.2002 90C91.2001 93.9763 87.9763 97.2001 84 97.2002C81.5918 97.2001 79.4614 96.016 78.1543 94.2002H46.7998L40.7998 86.3994H77.7656C79.0107 84.2482 81.3357 82.7999 84 82.7998ZM70.2002 56.4004C74.1765 56.4005 77.4004 59.6242 77.4004 63.6006C77.4 67.5767 74.1763 70.8007 70.2002 70.8008C67.7921 70.8008 65.6616 69.6165 64.3545 67.8008H33L27 60H63.9658C65.2109 57.8487 67.5358 56.4004 70.2002 56.4004ZM84 30C87.9764 30.0001 91.2002 33.2238 91.2002 37.2002C91.2001 41.1765 87.9763 44.4003 84 44.4004C81.5918 44.4003 79.4614 43.2162 78.1543 41.4004H46.7998L40.7998 33.5996H77.7656C79.0107 31.4483 81.3356 30.0001 84 30Z" fill="white"/>
</svg>
