<svg width="128" height="128" viewBox="0 0 128 128" fill="none" xmlns="http://www.w3.org/2000/svg">
<rect width="128" height="128" fill="white"/>
<path fill-rule="evenodd" clip-rule="evenodd" d="M105.552 64.0794C105.552 86.9835 86.9843 105.551 64.08 105.551C41.1756 105.551 22.608 86.9835 22.608 64.0794C22.608 41.1754 41.1756 22.6079 64.08 22.6079C86.9843 22.6079 105.552 41.1754 105.552 64.0794ZM91.9393 86.5909C85.3731 94.7066 75.3325 99.8958 64.08 99.8958C52.8189 99.8958 42.7716 94.6989 36.2058 86.5726C37.3177 86.6572 38.4409 86.7003 39.5737 86.7003C48.7026 86.7003 57.1794 83.9094 64.1977 79.1344C71.2161 83.9094 79.693 86.7003 88.8217 86.7003C89.8697 86.7003 90.9093 86.6635 91.9393 86.5909ZM59.4934 75.4421C55.9852 72.2808 52.9901 68.561 50.6487 64.4225V79.4139C53.7868 78.4639 56.7542 77.1209 59.4934 75.4421ZM44.9935 80.6634V43.3437C44.9935 43.3118 44.9939 43.2802 44.9949 43.2486C44.9939 43.1234 44.9935 42.9979 44.9935 42.8725H45.0325C45.2569 41.535 46.42 40.516 47.821 40.516C49.2221 40.516 50.3853 41.535 50.6097 42.8725H50.6487C50.6487 60.1031 62.0653 74.6674 77.7469 79.4139V64.4225C76.6078 66.4359 75.314 68.3501 73.8818 70.1491C73.1805 71.03 71.9258 71.2222 70.998 70.5845C70.6236 70.3274 70.2543 70.0637 69.8898 69.7936C68.8454 69.0198 68.7493 67.524 69.5548 66.5037C74.6851 60.0038 77.7469 51.7958 77.7469 42.8725H77.786C78.0104 41.535 79.1733 40.516 80.5745 40.516C81.9756 40.516 83.1386 41.535 83.363 42.8725H83.4022C83.4022 42.9979 83.4017 43.1233 83.4006 43.2485C83.4016 43.2801 83.4022 43.3118 83.4022 43.3437V80.6634C85.1725 80.9149 86.9819 81.045 88.8217 81.045C91.2718 81.045 93.6655 80.8147 95.9834 80.3748C98.4854 75.4866 99.8967 69.9479 99.8967 64.0794C99.8967 44.2986 83.861 28.2631 64.08 28.2631C44.299 28.2631 28.2632 44.2986 28.2632 64.0794C28.2632 69.9276 29.6649 75.4484 32.1506 80.3243C34.5498 80.797 37.0316 81.045 39.5737 81.045C41.4136 81.045 43.2231 80.9149 44.9935 80.6634Z" fill="#2F3237"/>
</svg>
