<svg width="128" height="128" viewBox="0 0 128 128" fill="none" xmlns="http://www.w3.org/2000/svg">
<rect width="128" height="128" fill="#131519"/>
<path d="M86.5508 78.9463L86.5469 78.9512L63.5 101.999L40.459 78.959L40.4473 78.9473L48.9346 70.4834L63.5 85.0479L78.0713 70.4766L86.5508 78.9463ZM72.0996 64.4951H72.0957L72.1035 64.499L72.0996 64.5039L63.5 73.1035L54.9072 64.5117L54.8955 64.499L56.4141 62.9805L57.1436 62.25H57.1445L63.5 55.8955L72.0996 64.4951ZM101 64.502L92.5254 72.9775L84.0498 64.5029L92.5254 56.0273L101 64.502ZM42.9502 64.498L34.4746 72.9727L26 64.498L34.4756 56.0234L42.9502 64.498ZM86.5469 50.0479L78.0723 58.5225L63.499 43.9512L48.9346 58.5146L40.46 50.04L63.499 27L86.5469 50.0479Z" fill="#F0B90B"/>
</svg>
