<svg width="128" height="128" viewBox="0 0 128 128" fill="none" xmlns="http://www.w3.org/2000/svg">
<rect width="128" height="128" fill="#6366F1"/>
<path fill-rule="evenodd" clip-rule="evenodd" d="M100 28V28.0019L92.8019 35.2H92.8H64C48.0942 35.2 35.2 48.0942 35.2 64C35.2 79.9058 48.0942 92.8 64 92.8H75.3962L82.5962 85.6H64C52.0706 85.6 42.4 75.9294 42.4 64C42.4 52.0706 52.0706 42.4 64 42.4H85.6019L78.4019 49.6H64C56.0471 49.6 49.6 56.0471 49.6 64C49.6 71.9529 56.0471 78.4 64 78.4H91.12H92.8H100V78.401L92.801 85.6H92.8L85.6 92.8H85.601L78.401 100H64C44.1177 100 28 83.8823 28 64C28 44.1177 44.1177 28 64 28H100ZM99.8445 53.2L100 53.0445V53.2H99.8445Z" fill="white"/>
</svg>
