<svg width="128" height="128" viewBox="0 0 128 128" fill="none" xmlns="http://www.w3.org/2000/svg">
<rect width="128" height="128" fill="#1461DB"/>
<path d="M107.438 60.2896L88.0397 40.8912L88.0044 40.856L87.9277 40.7888C87.8021 40.6754 87.6707 40.5685 87.534 40.4688C87.4381 40.392 87.3421 40.3184 87.2397 40.2512C87.1949 40.2192 87.1501 40.1936 87.1021 40.1648C85.9961 39.4405 84.6583 39.1585 83.3541 39.3749C82.0499 39.5913 80.8748 40.2902 80.0621 41.3328L49.8925 71.5056V44.6256C49.8925 43.2125 49.3311 41.8573 48.3319 40.8581C47.3327 39.859 45.9775 39.2976 44.5645 39.2976C43.1514 39.2976 41.7962 39.859 40.797 40.8581C39.7978 41.8573 39.2365 43.2125 39.2365 44.6256V71.5056L28.2221 60.4912C27.2153 59.5312 25.8729 59.003 24.4819 59.0196C23.0908 59.0361 21.7614 59.596 20.7778 60.5797C19.7941 61.5634 19.2341 62.8928 19.2176 64.2838C19.2011 65.6749 19.7292 67.0172 20.6893 68.024L40.7981 88.1328C40.9244 88.2608 41.058 88.3816 41.1981 88.4944C41.3325 88.6032 41.4733 88.7088 41.6141 88.8144C42.3406 89.2852 43.171 89.5719 44.0333 89.6496H44.0557C44.2285 89.6656 44.4013 89.6752 44.5741 89.6752H44.6541C44.7991 89.6752 44.9431 89.6688 45.0861 89.656H45.1917C45.3293 89.64 45.4669 89.624 45.6013 89.5952H45.6621C45.8125 89.5632 45.9629 89.528 46.1101 89.4832H46.1357C46.2963 89.4348 46.4544 89.3782 46.6092 89.3136C46.83 89.2224 47.0438 89.1154 47.2493 88.9936L47.3709 88.9232C47.5721 88.8002 47.7646 88.6633 47.9469 88.5136L48.0013 88.4656C48.1133 88.3696 48.2253 88.2736 48.3213 88.1648L78.9133 57.5536V84.3504C78.9133 85.7635 79.4746 87.1187 80.4738 88.1179C81.473 89.1171 82.8282 89.6784 84.2413 89.6784C85.6543 89.6784 87.0095 89.1171 88.0087 88.1179C89.0079 87.1187 89.5693 85.7635 89.5693 84.3504V57.4704L99.9052 67.8256C100.909 68.805 102.258 69.3495 103.66 69.3409C105.062 69.3322 106.404 68.7713 107.395 67.7796C108.386 66.788 108.947 65.4455 108.955 64.0434C108.963 62.6413 108.418 61.2926 107.438 60.2896Z" fill="white"/>
</svg>
