<svg width="128" height="128" viewBox="0 0 128 128" fill="none" xmlns="http://www.w3.org/2000/svg">
<rect width="128" height="128" fill="white"/>
<path d="M63.599 28C67.094 33.9122 70.4658 39.8976 73.9262 45.8291C74.4266 46.5989 74.5728 47.5227 74.5613 48.4273C74.5613 55.5482 74.5613 62.6652 74.5613 69.7822C69.8115 68.1001 64.5189 67.8076 59.6998 69.3857C57.1209 70.1786 54.7922 71.5836 52.5867 73.1078C52.5944 64.736 52.5944 56.3603 52.5867 47.9846C52.5867 47.3726 52.6059 46.7375 52.9831 46.2217C56.5359 40.1594 60.0771 34.0855 63.599 28Z" fill="#1D5AD1"/>
<path d="M25 94.4243C31.4819 83.2426 37.9831 72.0724 44.5073 60.9061C44.6305 72.0917 44.5535 83.2849 44.5497 94.4705C38.037 94.4127 31.5166 94.4705 25 94.4243Z" fill="#1D5AD1"/>
<path d="M82.5366 60.9639C89.1378 72.0917 95.485 83.3734 101.982 94.5667C95.4927 94.5898 89.0069 94.5282 82.5212 94.5667C82.4981 83.3619 82.4634 72.161 82.5366 60.9639Z" fill="#1D5AD1"/>
<path d="M63.8183 75.8484C67.4634 75.2287 71.2586 76.0447 74.4303 77.9154C74.5227 83.4543 74.3649 88.997 74.5804 94.5282C67.5173 94.5551 60.4503 94.5051 53.3872 94.4782C52.652 91.5528 52.3094 88.435 53.1331 85.4866C54.4418 80.5751 58.7913 76.6298 63.8183 75.8484Z" fill="#1D5AD1"/>
</svg>
