<svg width="128" height="128" viewBox="0 0 128 128" fill="none" xmlns="http://www.w3.org/2000/svg">
<rect width="128" height="128" fill="#2D29D7"/>
<path d="M104.273 65.0043L75.646 93.6279C75.052 94.2219 74.0044 94.2219 73.4104 93.6279L54.28 74.4903C53.3872 73.6047 52.9048 72.4203 52.9048 71.1675C52.9048 69.9147 53.3944 68.7303 54.28 67.8447L55.1044 67.0203C55.1656 66.9519 55.2556 66.9159 55.3384 66.9159C55.4284 66.9159 55.5112 66.9519 55.5724 67.0131L73.6516 85.0995C74.1232 85.5639 74.9332 85.5639 75.4012 85.0995L95.7376 64.7559C96.2164 64.2771 96.2164 63.4887 95.7376 63.0135L75.4012 42.6699C74.9296 42.2055 74.1196 42.1983 73.6588 42.6699L29.9656 86.3559C29.6272 86.6943 29.1556 86.7843 28.7128 86.6043C28.27 86.4171 28 86.0103 28 85.5315V42.2343C28 41.7555 28.27 41.3487 28.7128 41.1687C29.1484 40.9815 29.6344 41.0787 29.9728 41.4171L41.8312 53.2755C42.7168 54.1611 43.2064 55.3455 43.2064 56.5983C43.2064 57.8511 42.7168 59.0391 41.8312 59.9247L41.014 60.7419C40.8952 60.8607 40.6684 60.8607 40.5424 60.7419L35.3332 55.5327C35.1064 55.3059 34.8076 55.3059 34.6132 55.3887C34.4116 55.4715 34.1992 55.6803 34.1992 56.0043V71.7579C34.1992 72.0819 34.4152 72.2907 34.6132 72.3735C34.8076 72.4491 35.1028 72.4563 35.3332 72.2295L73.4104 34.1595C73.9792 33.5907 75.0772 33.5907 75.646 34.1595L104.27 62.7831C104.885 63.3915 104.885 64.3959 104.27 65.0115V65.0043H104.273Z" fill="white"/>
</svg>
