<svg width="128" height="128" viewBox="0 0 128 128" fill="none" xmlns="http://www.w3.org/2000/svg">
<rect width="128" height="128" fill="#00C900"/>
<path d="M82.6793 29.0047C79.4217 28.9348 75.5488 29.6378 71.1616 31.0845C70.5035 31.3154 69.9832 31.68 69.5146 32.1413C65.0525 36.3302 60.7117 40.771 56.6086 45.3621L56.2938 45.7106C56.2066 45.8094 56.196 45.9564 56.2601 46.0704C56.3266 46.1858 56.4564 46.2454 56.5862 46.2166L57.0471 46.121C63.6595 44.7074 70.3357 43.6223 76.884 42.9058C77.315 42.8583 77.7597 43.0059 78.0812 43.2992C78.4028 43.5955 78.5902 44.0182 78.5815 44.4572C78.4733 50.9565 78.7053 57.4878 79.2842 63.8725L79.3236 64.2884C79.338 64.4159 79.4258 64.5187 79.5541 64.5526C79.5771 64.5584 79.5984 64.5641 79.6272 64.5641C79.7239 64.5656 79.8212 64.5198 79.8802 64.4349L80.1219 64.092C83.8113 58.8276 87.8278 53.71 92.0499 48.8701C92.5228 48.3316 92.647 47.9929 92.7357 47.5042C94.0649 38.9966 92.0134 32.7047 90.1781 31.1131C88.5842 29.7312 86.2713 29.0819 82.6793 29.0047ZM72.55 46.239L72.1453 46.2952C65.8277 47.1652 59.4322 48.3706 53.1347 49.8758C52.5105 50.0502 52.1097 50.4559 52.0218 50.5503C47.3088 56.1947 42.8448 62.1354 38.7504 68.2231C38.5457 68.5309 38.5256 69.2686 38.5256 69.2686C38.5256 69.2686 39.5528 77.1984 41.0551 83.0403C37.3326 93.7458 34.0118 107.852 34.0118 107.852C33.9859 107.943 34.0032 108.039 34.0568 108.116C34.1129 108.193 34.2018 108.242 34.2985 108.245H36.4177C36.5518 108.247 36.6686 108.166 36.7156 108.043L36.8618 107.644C39.0244 101.745 41.4893 95.9218 44.2142 90.2465C44.8485 88.9245 46.1872 86.2555 46.1872 86.2555C46.4071 85.8223 47.4341 83.8524 47.6655 83.4113L47.705 83.3327C54.5661 70.3897 62.9302 58.1815 72.5558 47.0485L72.82 46.7449C72.9015 46.6482 72.9185 46.5081 72.8595 46.3964C72.7962 46.2839 72.6727 46.2223 72.55 46.239ZM75.4618 48.6786C75.3429 48.634 75.2059 48.6642 75.1245 48.7629L74.8603 49.0721C63.6365 62.0526 54.2039 76.46 46.8223 91.8936L46.6479 92.2534C46.5917 92.3673 46.6133 92.5046 46.6985 92.5962C46.7569 92.6567 46.8341 92.6909 46.9178 92.6918C46.9552 92.6932 47.0033 92.686 47.0416 92.6688L47.4126 92.5113C53.7165 89.8997 60.1562 87.6368 66.5524 85.7885C66.9351 85.6774 67.254 85.4117 67.4349 85.0578C70.239 79.5929 76.7491 69.0152 76.7491 69.0152C76.9163 68.7766 76.8783 68.4193 76.8783 68.4193C76.8783 68.4193 75.7348 55.7672 75.6641 49.3638L75.6584 48.9591C75.6526 48.8321 75.5786 48.7212 75.4618 48.6786ZM58.8177 91.1685L58.2949 91.3483C54.9062 92.4743 49.8927 94.205 45.3945 96.2724C45.1536 96.3855 44.9954 96.6996 44.9954 96.6996C44.9117 96.8922 44.8101 97.1327 44.6918 97.4023L44.6746 97.436C44.1707 98.5828 43.4715 100.309 43.1738 101.011L42.9432 101.567C42.9073 101.656 42.9289 101.754 42.9994 101.82C43.0411 101.86 43.0892 101.88 43.151 101.882C43.1827 101.882 43.219 101.877 43.2523 101.859L43.7976 101.601C45.0281 101.015 46.5879 100.129 48.2214 99.3524L48.2775 99.3236C51.3837 97.8502 54.8893 96.1872 57.0014 95.1809C57.0014 95.1794 57.3414 94.9975 57.513 94.6581L59.0925 91.4878C59.1342 91.4049 59.1222 91.3056 59.0638 91.2348C58.9996 91.1658 58.9054 91.1394 58.8177 91.1685Z" fill="white"/>
</svg>
