<svg width="128" height="128" viewBox="0 0 128 128" fill="none" xmlns="http://www.w3.org/2000/svg">
<rect width="128" height="128" fill="black"/>
<path d="M70.7881 31C81.233 31 89.8613 39.477 89.8613 50.0732C89.8613 60.2152 81.6878 68.6921 71.6973 69.1465L91.5273 97H76.9951L57.0137 69.2979C56.8623 69.1465 56.8623 68.9951 56.8623 68.8438V59.459C56.8623 59.0049 57.165 58.7012 57.6191 58.7012H69.4258C71.6964 58.7012 73.8163 57.7931 75.4814 56.1279C77.1464 54.4628 77.9033 52.1924 77.9033 49.9219C77.9033 45.3806 73.967 41.5967 69.123 41.5967H39V31H70.7881ZM51.2607 47.1973V96.8477H39V47.1973H51.2607Z" fill="#F6F6F6"/>
</svg>
