<svg width="128" height="128" viewBox="0 0 128 128" fill="none" xmlns="http://www.w3.org/2000/svg">
<rect width="128" height="128" fill="#136EF6"/>
<path fill-rule="evenodd" clip-rule="evenodd" d="M71.844 26H77.316C77.964 26 78.486 26.522 78.486 27.17V102.572C78.486 103.229 77.964 103.751 77.316 103.751H70.143C69.495 103.751 68.973 103.229 68.973 102.572V83.141C68.973 82.484 68.451 81.962 67.803 81.962H34.17C33.522 81.962 33 81.44 33 80.792V75.311C33 75.05 33.135 74.915 33.261 74.654L70.8 26.387C70.926 26.126 71.322 26 71.844 26ZM46.554 73.484H67.668C68.325 73.484 68.838 72.962 68.838 72.305V45.305C68.838 44.261 67.407 43.739 66.759 44.657L45.645 71.657C44.988 72.305 45.51 73.484 46.554 73.484Z" fill="white"/>
</svg>
