<svg width="128" height="128" viewBox="0 0 128 128" fill="none" xmlns="http://www.w3.org/2000/svg">
<rect width="128" height="128" fill="white"/>
<path d="M32.8793 53.7585L29.431 57.2068C28.3966 58.0689 27.7069 59.2758 27.1897 60.4827C26.6724 61.6896 26.5 62.8965 26.5 64.2758C26.5 65.6551 26.8448 66.862 27.3621 68.0689C27.8793 69.2758 28.569 70.3103 29.6034 71.3448L57.1897 99.1034C57.8793 99.793 58.569 100.31 59.431 100.655V67.0344L32.8793 53.7585Z" fill="#3D89F5"/>
<path d="M94.9483 53.7585L98.3966 57.2068C99.431 58.0689 100.121 59.2758 100.638 60.4827C101.155 61.6896 101.5 63.0689 101.5 64.2758C101.5 65.6551 101.155 66.862 100.638 68.0689C100.121 69.2758 99.431 70.3103 98.3966 71.3448L70.8104 98.931C70.1207 99.6206 69.431 100.138 68.569 100.483V67.0344L94.9483 53.7585Z" fill="#1656B9"/>
<path d="M88.3966 46.6896L71.1552 29.4482C70.2931 28.4138 69.0862 27.7241 67.8793 27.2069C66.6724 26.6896 65.4655 26.5172 64.0862 26.5172C62.7069 26.5172 61.5 26.862 60.2931 27.3793C59.0862 27.8965 58.0517 28.5862 57.0173 29.6207L39.7759 46.862L63.9138 58.931L88.3966 46.6896Z" fill="#85B5F8"/>
</svg>
