<svg width="128" height="128" viewBox="0 0 128 128" fill="none" xmlns="http://www.w3.org/2000/svg">
<rect width="128" height="128" fill="white"/>
<path d="M42.1688 58.6122C42.1688 49.9899 49.1586 43 57.781 43H61.8401V70.2277C61.8401 78.8502 54.8503 85.84 46.2279 85.84H42.1688V58.6122Z" fill="#FFCF33"/>
<path d="M19 56.3641C19 64.9865 25.9899 71.9763 34.6122 71.9763H38.6714V58.6122C38.6714 49.9899 31.6816 43 23.0592 43H19V56.3641Z" fill="#FFCF33"/>
<path d="M38.6714 71.8626L19.1187 43H23.0591C31.6815 43 38.6714 49.9899 38.6714 58.6122V71.8626Z" fill="#FFD755"/>
<path d="M92.5325 66.1685C101.155 66.1685 108.145 73.1583 108.145 81.7807V85.8399H80.9173C72.2948 85.8399 65.305 78.85 65.305 70.2276V66.1685H92.5325Z" fill="#4FA58C"/>
<path d="M102.439 85.8399L89.1129 66.1685H92.5325C101.155 66.1685 108.145 73.1583 108.145 81.7807V85.8399H102.439Z" fill="#6CB49F"/>
<path d="M92.5325 62.6714C101.155 62.6714 108.145 55.6816 108.145 47.0592V43H80.9173C72.2948 43 65.305 49.9898 65.305 58.6123V62.6714H92.5325Z" fill="#492B7C"/>
<path d="M86.7434 62.6714L74.3848 44.4281C76.3722 43.5114 78.5849 43 80.9171 43H108.145V47.0592C108.145 55.6816 101.155 62.6714 92.5325 62.6714H86.7434Z" fill="#674E92"/>
</svg>
