<svg width="128" height="128" viewBox="0 0 128 128" fill="none" xmlns="http://www.w3.org/2000/svg">
<rect width="128" height="128" fill="#C9F73A"/>
<path d="M24 36H32.9797V57.1515C32.9797 62.9046 36.5887 67.4555 42.5278 67.4555C48.6374 67.4555 52.218 62.876 52.218 57.1515V36H61.1976V57.2088C61.1976 68.7149 53.8378 76.0993 42.5278 76.0993C31.2747 76.0993 24 68.6861 24 57.2088V36ZM94.3317 92.7H103.312V71.4339C103.312 59.9566 96.0367 52.5435 84.7836 52.5435C73.4738 52.5435 66.1137 59.928 66.1137 71.4339V92.7H75.0936V71.5197C75.0936 65.7954 78.674 61.2159 84.7836 61.2159C90.7227 61.2159 94.3317 65.7667 94.3317 71.5197V92.7Z" fill="black"/>
</svg>
