<svg width="128" height="128" viewBox="0 0 128 128" fill="none" xmlns="http://www.w3.org/2000/svg">
<rect width="128" height="128" fill="#07B966"/>
<path fill-rule="evenodd" clip-rule="evenodd" d="M62.3182 20L84.2666 41.8894C86.7923 43.9568 88.9469 46.4367 90.7215 49.3396C93.5219 53.9238 94.9223 59.121 94.9223 64.9323C94.9223 70.3726 93.6161 75.3661 91.0089 79.91C88.3992 84.4557 84.7166 88.1089 79.9601 90.8639C75.2011 93.6187 69.8694 95 63.9613 95C58.282 95 53.1026 93.7504 48.4226 91.2558C43.7416 88.7603 40.0009 85.2011 37.2005 80.5805C34.3988 75.9611 33 70.7448 33 64.9323C33 59.5672 34.3039 54.6134 36.913 50.0679C39.5202 45.5218 43.2038 41.871 47.9628 39.114C51.8209 36.8781 56.0582 35.5485 60.6747 35.1258L45.4955 20H62.3182ZM63.9613 46.49C58.819 46.49 54.5985 48.2055 51.3001 51.6308C48.0002 55.0598 46.3517 59.4933 46.3517 64.9323C46.3517 70.3726 47.9799 74.8251 51.2427 78.2894C54.5036 81.7553 58.7418 83.4876 63.9613 83.4876C69.1782 83.4876 73.4171 81.7553 76.6796 78.2894C79.9401 74.8251 81.5715 70.3726 81.5715 64.9323C81.5715 59.4933 79.9205 55.0598 76.6221 51.6308C73.3216 48.2055 69.1011 46.49 63.9613 46.49Z" fill="white"/>
</svg>
