<svg width="128" height="128" viewBox="0 0 128 128" fill="none" xmlns="http://www.w3.org/2000/svg">
<g clip-path="url(#clip0_3263_21443)">
<rect width="128" height="128" fill="white"/>
<rect width="128" height="128" fill="#635BFF"/>
<path d="M91 78.4146C91 78.4062 91 78.3978 91 78.3893V78.44C91 78.4315 91 78.4231 91 78.4146C90.9869 93.4469 79.2857 102 61.9665 102C54.1904 101.994 46.4985 100.39 39.3681 97.288V77.376C46.3604 81.176 55.0755 84.0133 61.9665 84.0133C66.6281 84.0133 69.7189 82.7973 69.7189 78.9467C69.7189 68.9147 38 72.664 38 49.56C38 34.816 49.5526 26 66.4761 26C73.3671 26 80.2581 27.0133 87.1998 29.8V49.4587C80.7849 46.0827 73.6729 44.2441 66.4254 44.088C62.0679 44.088 59.1291 45.3547 59.1291 48.648C59.1291 58.0182 90.9783 53.5657 91 78.4146Z" fill="white"/>
</g>
<defs>
<clipPath id="clip0_3263_21443">
<rect width="128" height="128" fill="white"/>
</clipPath>
</defs>
</svg>
