<svg width="128" height="128" viewBox="0 0 128 128" fill="none" xmlns="http://www.w3.org/2000/svg">
<rect width="128" height="128" fill="#9391F7"/>
<path d="M51.3253 66.8287C56.6773 66.8287 61.0156 62.4901 61.0156 57.1383C61.0156 51.7864 56.6773 47.448 51.3253 47.448C45.9735 47.448 41.6349 51.7864 41.6349 57.1383C41.6349 62.4901 45.9735 66.8287 51.3253 66.8287Z" fill="white"/>
<path d="M76.6531 66.8287C82.0048 66.8287 86.3434 62.4901 86.3434 57.1383C86.3434 51.7864 82.0048 47.448 76.6531 47.448C71.3013 47.448 66.9627 51.7864 66.9627 57.1383C66.9627 62.4901 71.3013 66.8287 76.6531 66.8287Z" fill="white"/>
<path d="M63.973 17.1357C37.6614 17.1357 16.3294 38.8741 16.3362 65.6816H28.506C28.506 45.5915 44.2593 29.3032 63.973 29.3032C83.6866 29.3032 99.4399 45.5915 99.4399 65.6816H111.61C111.614 38.8741 90.2823 17.1357 63.973 17.1357Z" fill="white"/>
</svg>
