<svg width="128" height="128" viewBox="0 0 128 128" fill="none" xmlns="http://www.w3.org/2000/svg">
<rect width="128" height="128" fill="#0033AD"/>
<path d="M46.5615 63.403C46.4015 66.183 48.5415 68.563 51.3215 68.723C51.4215 68.723 51.5215 68.723 51.6215 68.723C54.4215 68.723 56.6815 66.463 56.6615 63.663C56.6615 60.863 54.4015 58.603 51.6015 58.623C48.9215 58.623 46.7015 60.723 46.5615 63.403Z" fill="white"/>
<path d="M27.7217 62.103C26.8217 62.043 26.0417 62.743 26.0017 63.643C25.9617 64.543 26.6417 65.323 27.5417 65.363C28.4417 65.423 29.2017 64.723 29.2617 63.823C29.3217 62.923 28.6217 62.163 27.7217 62.103Z" fill="white"/>
<path d="M46.2417 34.083C47.0417 33.683 47.3617 32.683 46.9617 31.883C46.5617 31.083 45.5617 30.763 44.7617 31.163C43.9617 31.563 43.6417 32.543 44.0417 33.343C44.4417 34.163 45.4217 34.503 46.2417 34.083Z" fill="white"/>
<path d="M51.3617 43.023C52.6017 42.403 53.1017 40.883 52.4817 39.643C51.8617 38.403 50.3417 37.903 49.1017 38.523C47.8617 39.143 47.3617 40.663 47.9817 41.903C48.6017 43.143 50.1217 43.643 51.3617 43.023Z" fill="white"/>
<path d="M34.1216 49.163C35.0816 49.783 36.3616 49.523 37.0016 48.563C37.6216 47.603 37.3616 46.323 36.4016 45.683C35.4416 45.063 34.1616 45.323 33.5216 46.283C32.8816 47.243 33.1616 48.543 34.1216 49.163Z" fill="white"/>
<path d="M37.1815 61.203C35.7815 61.123 34.6015 62.183 34.5215 63.583C34.4415 64.983 35.5015 66.163 36.9015 66.243C38.3015 66.323 39.4815 65.263 39.5615 63.863C39.6415 62.483 38.5815 61.283 37.1815 61.203Z" fill="white"/>
<path d="M34.4017 78.1429C33.3817 78.6629 32.9617 79.9029 33.4817 80.9429C34.0017 81.9629 35.2417 82.3829 36.2817 81.8629C37.3017 81.3429 37.7217 80.1029 37.2017 79.0629C36.6817 78.0429 35.4217 77.6229 34.4017 78.1429Z" fill="white"/>
<path d="M44.2018 55.983C45.5818 56.883 47.4218 56.503 48.3018 55.123C49.2018 53.743 48.8218 51.903 47.4418 51.023C46.0618 50.123 44.2218 50.503 43.3418 51.883C42.4418 53.243 42.8218 55.083 44.2018 55.983Z" fill="white"/>
<path d="M75.3017 42.823C76.4617 43.583 78.0417 43.263 78.8017 42.103C79.5617 40.943 79.2417 39.363 78.0817 38.603C76.9217 37.843 75.3417 38.163 74.5817 39.323C73.8017 40.503 74.1217 42.063 75.3017 42.823Z" fill="white"/>
<path d="M80.4616 33.923C81.2216 34.423 82.2216 34.203 82.7216 33.443C83.2216 32.683 83.0016 31.683 82.2416 31.183C81.4816 30.683 80.4816 30.903 79.9816 31.643C79.5016 32.403 79.7216 33.423 80.4616 33.923Z" fill="white"/>
<path d="M75.6816 58.583C72.9016 58.423 70.5016 60.563 70.3616 63.343C70.2016 66.123 72.3416 68.523 75.1216 68.663C75.2216 68.663 75.3216 68.663 75.4016 68.663C78.1816 68.663 80.4416 66.403 80.4416 63.603C80.4616 60.943 78.3616 58.723 75.6816 58.583Z" fill="white"/>
<path d="M53.022 55.623C53.882 57.323 55.622 58.403 57.542 58.403C60.322 58.403 62.582 56.143 62.582 53.343C62.582 52.563 62.402 51.783 62.042 51.063C60.782 48.563 57.742 47.563 55.262 48.823C52.762 50.103 51.762 53.143 53.022 55.623Z" fill="white"/>
<path d="M92.602 49.163C93.622 48.643 94.022 47.383 93.502 46.363C92.982 45.343 91.722 44.943 90.702 45.463C89.682 45.983 89.282 47.223 89.782 48.243C90.322 49.263 91.562 49.683 92.602 49.163Z" fill="white"/>
<path d="M79.8015 50.763C78.3415 51.503 77.7415 53.283 78.4815 54.743C79.2215 56.203 81.0015 56.803 82.4615 56.063C83.9215 55.323 84.5215 53.543 83.7815 52.083C83.0415 50.623 81.2615 50.043 79.8015 50.763Z" fill="white"/>
<path d="M63.3019 33.163C64.4419 33.223 65.4219 32.343 65.5019 31.203C65.5819 30.063 64.6819 29.083 63.5419 29.003C62.4019 28.943 61.4219 29.803 61.3419 30.943C61.2819 32.103 62.1619 33.083 63.3019 33.163Z" fill="white"/>
<path d="M63.2818 46.223C64.9218 46.323 66.3218 45.063 66.4018 43.423C66.5018 41.783 65.2418 40.383 63.6018 40.303C61.9618 40.203 60.5618 41.463 60.4818 43.103C60.4018 44.743 61.6418 46.143 63.2818 46.223Z" fill="white"/>
<path d="M47.2017 76.543C48.6617 75.803 49.2617 74.023 48.5217 72.563C47.7817 71.103 46.0017 70.503 44.5417 71.243C43.0817 71.983 42.4817 73.763 43.2217 75.223C43.9617 76.683 45.7417 77.283 47.2017 76.543Z" fill="white"/>
<path d="M65.2016 50.563C63.6816 52.903 64.3216 56.023 66.6616 57.543C69.0016 59.063 72.1216 58.423 73.6416 56.083C75.1616 53.743 74.5216 50.623 72.1816 49.103C71.3616 48.563 70.4016 48.283 69.4216 48.283C67.7216 48.283 66.1416 49.143 65.2016 50.563Z" fill="white"/>
<path d="M73.9818 71.683C72.7218 69.183 69.6818 68.183 67.2018 69.443C64.7018 70.703 63.7018 73.743 64.9618 76.223C66.2218 78.723 69.2618 79.723 71.7418 78.463C74.2218 77.223 75.2418 74.223 74.0018 71.723C74.0018 71.703 74.0018 71.703 73.9818 71.683Z" fill="white"/>
<path d="M82.8016 71.323C81.4216 70.423 79.5816 70.803 78.7016 72.183C77.8016 73.563 78.1816 75.403 79.5616 76.283C80.9416 77.183 82.7816 76.803 83.6616 75.423C84.5616 74.063 84.1816 72.223 82.8016 71.323Z" fill="white"/>
<path d="M92.4817 63.743C92.5617 62.343 91.5017 61.163 90.1017 61.083C88.7017 61.003 87.5217 62.063 87.4417 63.463C87.3617 64.863 88.4217 66.043 89.8217 66.123C91.2017 66.203 92.4017 65.123 92.4817 63.743Z" fill="white"/>
<path d="M99.4615 61.9429C98.5615 61.8829 97.7815 62.5829 97.7415 63.4829C97.7015 64.3829 98.3815 65.163 99.2815 65.203C100.182 65.2629 100.942 64.563 101.002 63.663C101.042 62.763 100.362 62.0029 99.4615 61.9429Z" fill="white"/>
<path d="M92.8816 78.1429C91.9216 77.5229 90.6416 77.7829 90.0016 78.7429C89.3816 79.7029 89.6416 80.9829 90.6016 81.623C91.5616 82.2429 92.8416 81.983 93.4816 81.0229C94.1216 80.0629 93.8416 78.7629 92.8816 78.1429Z" fill="white"/>
<path d="M46.5216 93.383C45.7616 92.883 44.7616 93.103 44.2616 93.843C43.7616 94.603 43.9816 95.603 44.7216 96.103C45.4816 96.603 46.4816 96.383 46.9816 95.643C47.5016 94.903 47.2816 93.883 46.5216 93.383Z" fill="white"/>
<path d="M80.7617 93.223C79.9617 93.623 79.6417 94.623 80.0417 95.423C80.4417 96.223 81.4417 96.543 82.2417 96.143C83.0417 95.743 83.3617 94.763 82.9617 93.963C82.5617 93.143 81.5817 92.803 80.7617 93.223Z" fill="white"/>
<path d="M61.8017 76.743C63.3217 74.403 62.6817 71.283 60.3417 69.743C58.0017 68.223 54.8817 68.863 53.3417 71.203C51.8017 73.543 52.4617 76.663 54.8017 78.203C55.6217 78.743 56.5817 79.023 57.5617 79.023C59.2817 79.043 60.8617 78.183 61.8017 76.743Z" fill="white"/>
<path d="M51.7017 84.483C50.5417 83.723 48.9617 84.043 48.2017 85.203C47.4417 86.363 47.7617 87.943 48.9217 88.703C50.0817 89.463 51.6617 89.143 52.4217 87.983C53.2017 86.823 52.8817 85.243 51.7017 84.483Z" fill="white"/>
<path d="M63.4815 94.143C62.3415 94.083 61.3615 94.963 61.2815 96.103C61.2015 97.243 62.1015 98.223 63.2415 98.303C64.3815 98.363 65.3615 97.503 65.4415 96.363C65.5015 95.203 64.6215 94.223 63.4815 94.143Z" fill="white"/>
<path d="M63.5017 81.083C61.8617 80.983 60.4617 82.243 60.3817 83.883C60.2817 85.523 61.5417 86.923 63.1817 87.003C64.8217 87.083 66.2217 85.843 66.3017 84.203C66.4017 82.583 65.1417 81.163 63.5017 81.083Z" fill="white"/>
<path d="M75.6416 84.283C74.4016 84.923 73.9016 86.443 74.5416 87.683C75.1816 88.923 76.7016 89.423 77.9416 88.783C79.1816 88.163 79.6816 86.643 79.0616 85.403C78.4216 84.163 76.9016 83.643 75.6416 84.283Z" fill="white"/>
</svg>
