<svg width="128" height="128" viewBox="0 0 128 128" fill="none" xmlns="http://www.w3.org/2000/svg">
<g clip-path="url(#clip0_257_7060)">
<rect width="128" height="128" fill="#F6F6F6"/>
<path d="M99.1528 43.005H87.8273C86.5184 43.005 85.263 42.4441 84.3815 41.4558L79.7872 36.2738C79.0927 35.4992 78.1311 35.0451 77.0894 35.0451C76.0477 35.0451 75.0861 35.4992 74.3916 36.2738L70.4383 40.7346C69.1562 42.177 67.2864 43.0317 65.3632 43.0317H3.36652C1.60359 48.0267 0.455006 53.3422 0.000915527 58.8715H58.5251C59.5669 58.8715 60.5285 58.4441 61.2497 57.6962L66.6987 52.0067C67.3665 51.2855 68.3281 50.8848 69.2897 50.8848H69.5034C70.5452 50.8848 71.5068 51.3389 72.2012 52.1135L76.7956 57.2955C77.677 58.2838 78.9325 58.8447 80.2413 58.8447H128.001C127.547 53.3422 126.398 48 124.635 42.9783L99.1528 43.005Z" fill="black"/>
<path d="M35.4201 92.207C36.4619 92.207 37.4235 91.7796 38.1447 91.0317L43.5938 85.3422C44.2882 84.621 45.2231 84.2204 46.2114 84.2204H46.4251C47.4669 84.2204 48.4552 84.6744 49.123 85.4224L53.7173 90.6043C54.5988 91.5927 55.8542 92.1536 57.163 92.1536H121.911C124.342 87.1319 126.105 81.7629 127.173 76.1269H65.0161C63.7073 76.1269 62.4519 75.5659 61.5704 74.5776L56.9761 69.4491C56.2816 68.6744 55.32 68.2471 54.2782 68.2471C53.2365 68.2471 52.2482 68.7012 51.5804 69.4491L47.6271 73.9098C46.345 75.379 44.4752 76.207 42.5253 76.207H0.882568C1.95102 81.8431 3.71395 87.212 6.14467 92.2337L35.4201 92.207Z" fill="black"/>
<path d="M81.3367 25.6695C82.3784 25.6695 83.34 25.2421 84.0612 24.4942L89.5103 18.8047C90.1781 18.0835 91.1397 17.6828 92.128 17.6828H92.3417C93.3834 17.6828 94.345 18.1369 95.0395 18.9115L99.6338 24.1202C100.515 25.1085 101.771 25.6695 103.08 25.6695H115.393C103.667 10.0701 85.0228 0 64.0278 0C43.0328 0 24.3617 10.0701 12.6355 25.6695H81.3367Z" fill="black"/>
<path d="M56.6288 108.1H39.8008C38.4919 108.1 37.2365 107.539 36.355 106.551L31.7607 101.369C31.0662 100.594 30.1046 100.167 29.0629 100.167C28.0211 100.167 27.0328 100.621 26.365 101.369L22.4118 105.83C21.1297 107.299 19.2599 108.127 17.31 108.127H17.0428C28.7691 120.681 45.4635 128.561 64.0278 128.561C82.5921 128.561 99.2599 120.681 111.013 108.127L56.6288 108.1Z" fill="black"/>
</g>
<defs>
<clipPath id="clip0_257_7060">
<rect width="128" height="128" fill="white"/>
</clipPath>
</defs>
</svg>
