<svg width="128" height="128" viewBox="0 0 128 128" fill="none" xmlns="http://www.w3.org/2000/svg">
<rect width="128" height="128" fill="#F6F6F6"/>
<path d="M27.136 46.36V81.64C27.136 83.908 28.324 85.96 30.304 87.112L60.868 104.752C62.812 105.868 65.224 105.868 67.168 104.752L97.732 87.112C99.676 85.996 100.9 83.908 100.9 81.64V46.36C100.9 44.092 99.712 42.04 97.732 40.888L67.168 23.248C65.224 22.132 62.812 22.132 60.868 23.248L30.304 40.888C28.36 42.004 27.172 44.092 27.172 46.36H27.136Z" fill="#213147"/>
<path d="M70.66 70.84L66.304 82.792C66.196 83.116 66.196 83.476 66.304 83.836L73.792 104.392L82.468 99.388L72.064 70.84C71.812 70.192 70.912 70.192 70.66 70.84Z" fill="#12AAFF"/>
<path d="M79.408 50.752C79.156 50.104 78.256 50.104 78.004 50.752L73.648 62.704C73.54 63.028 73.54 63.388 73.648 63.748L85.924 97.408L94.6 92.404L79.408 50.788V50.752Z" fill="#12AAFF"/>
<path d="M64 24.58C64.216 24.58 64.432 24.652 64.612 24.76L97.66 43.84C98.056 44.056 98.272 44.488 98.272 44.92V83.08C98.272 83.512 98.02 83.944 97.66 84.16L64.612 103.24C64.432 103.348 64.216 103.42 64 103.42C63.784 103.42 63.568 103.348 63.388 103.24L30.34 84.16C29.944 83.944 29.728 83.512 29.728 83.08V44.884C29.728 44.452 29.98 44.02 30.34 43.804L63.388 24.724C63.568 24.616 63.784 24.544 64 24.544V24.58ZM64 19C62.812 19 61.66 19.288 60.58 19.9L27.532 38.98C25.408 40.204 24.112 42.436 24.112 44.884V83.044C24.112 85.492 25.408 87.724 27.532 88.948L60.58 108.028C61.624 108.64 62.812 108.928 64 108.928C65.188 108.928 66.34 108.64 67.42 108.028L100.468 88.948C102.592 87.724 103.888 85.492 103.888 83.044V44.884C103.888 42.436 102.592 40.204 100.468 38.98L67.384 19.9C66.34 19.288 65.152 19 63.964 19H64Z" fill="#9DCCED"/>
<path d="M42.112 97.444L45.172 89.092L51.292 94.168L45.568 99.424L42.112 97.444Z" fill="#213147"/>
<path d="M61.192 42.184H52.804C52.192 42.184 51.616 42.58 51.4 43.156L33.436 92.404L42.112 97.408L61.912 43.156C62.092 42.652 61.732 42.148 61.228 42.148L61.192 42.184Z" fill="white"/>
<path d="M75.88 42.184H67.492C66.88 42.184 66.304 42.58 66.088 43.156L45.568 99.388L54.244 104.392L76.564 43.156C76.744 42.652 76.384 42.148 75.88 42.148V42.184Z" fill="white"/>
</svg>
