<svg width="128" height="128" viewBox="0 0 128 128" fill="none" xmlns="http://www.w3.org/2000/svg">
<rect width="128" height="128" fill="#213148"/>
<mask id="mask0_2893_1999" style="mask-type:luminance" maskUnits="userSpaceOnUse" x="23" y="19" width="81" height="90">
<path d="M103.5 19.8621H23.5V108.138H103.5V19.8621Z" fill="white"/>
</mask>
<g mask="url(#mask0_2893_1999)">
<path d="M70.2042 70.7078L65.8274 82.4261C65.6983 82.7511 65.6983 83.1122 65.8274 83.4372L73.3436 103.606L82.0418 98.6945L71.6078 70.7078C71.3676 70.0579 70.4442 70.0579 70.2042 70.7078Z" fill="white"/>
<path d="M78.9568 50.9907C78.7168 50.3408 77.7935 50.3408 77.5535 50.9907L73.1766 62.709C73.0472 63.0343 73.0472 63.3954 73.1766 63.7203L85.4941 96.7449L94.1923 91.8334L78.9568 50.9907Z" fill="white"/>
<path d="M63.5 25.333C63.7215 25.333 63.9248 25.3872 64.1279 25.4956L97.295 44.2196C97.6829 44.4363 97.9229 44.8335 97.9229 45.2669V82.715C97.9229 83.1484 97.6829 83.5456 97.295 83.7622L64.1279 102.505C63.9433 102.613 63.7215 102.667 63.5 102.667C63.2785 102.667 63.0752 102.613 62.8721 102.505L29.7234 83.7804C29.3356 83.5636 29.0956 83.1663 29.0956 82.7332V45.2669C29.0956 44.8335 29.3356 44.4363 29.7234 44.2196L62.8906 25.4956C63.0752 25.3872 63.297 25.333 63.5 25.333ZM63.5 19.8621C62.3182 19.8621 61.1361 20.169 60.0835 20.7649L26.9164 39.489C24.8112 40.6807 23.5 42.8835 23.5 45.2669V82.715C23.5 85.0985 24.8112 87.3194 26.9164 88.5112L60.0835 107.235C61.1361 107.831 62.3182 108.138 63.5 108.138C64.6818 108.138 65.8639 107.831 66.9165 107.235L100.083 88.5112C102.207 87.3194 103.5 85.1164 103.5 82.715V45.2669C103.5 42.8835 102.189 40.6626 100.083 39.4709L66.935 20.7649C65.8639 20.169 64.6818 19.8621 63.5 19.8621Z" fill="white"/>
<path d="M41.5819 96.7806L44.629 88.6195L50.7601 93.603L45.0353 98.7307L41.5819 96.7806Z" fill="white"/>
<path d="M60.7105 42.5944H52.308C51.6801 42.5944 51.1074 42.9736 50.9044 43.5514L32.8804 91.8692L41.5784 96.7804L61.4307 43.5695C61.5968 43.1 61.2459 42.5944 60.7105 42.5944Z" fill="white"/>
<path d="M75.4271 42.5944H67.0247C66.3968 42.5944 65.8241 42.9736 65.6211 43.5514L45.0302 98.7305L53.7281 103.642L76.1289 43.5875C76.3135 43.1 75.9444 42.5944 75.4271 42.5944Z" fill="white"/>
</g>
</svg>
