<svg width="128" height="128" viewBox="0 0 128 128" fill="none" xmlns="http://www.w3.org/2000/svg">
<rect width="128" height="128" fill="#1B1E36"/>
<path d="M64.2425 20C58.8453 20 54.4689 39.576 54.4689 63.7244C54.4689 87.8728 58.8453 107.449 64.2425 107.449C69.6397 107.449 74.0161 87.8728 74.0161 63.7244C74.0161 39.576 69.6397 20 64.2425 20ZM64.9173 104.981C64.3001 105.804 63.6829 105.187 63.6829 105.187C61.1973 102.307 59.9545 96.9564 59.9545 96.9564C55.6069 82.9648 56.6417 52.9236 56.6417 52.9236C58.6849 29.074 62.4017 23.44 63.6665 22.1892C63.7956 22.0615 63.9657 21.9835 64.1467 21.9689C64.3277 21.9543 64.5081 22.0039 64.6561 22.1092C66.4913 23.4096 68.0305 28.848 68.0305 28.848C72.5757 45.7204 72.1641 61.564 72.1641 61.564C72.5757 75.35 69.8865 90.782 69.8865 90.782C67.8165 102.51 64.9173 104.981 64.9173 104.981Z" fill="#B7B9C8"/>
<path d="M102.169 41.9648C99.4813 37.2816 80.3249 43.228 59.3685 55.2448C38.4121 67.2616 23.6297 80.8004 26.3149 85.4816C29.0001 90.1628 48.1585 84.2184 69.1149 72.2016C90.0713 60.1848 104.854 46.646 102.169 41.9648ZM28.7941 84.8392C27.7653 84.7096 27.9977 83.864 27.9977 83.864C29.2597 80.2756 33.2757 76.5348 33.2757 76.5348C43.2529 65.8004 69.8273 51.7488 69.8273 51.7488C91.5289 41.652 98.2697 42.078 99.9797 42.5488C100.155 42.5978 100.308 42.7073 100.41 42.858C100.513 43.0087 100.559 43.1908 100.54 43.372C100.334 45.612 96.3729 49.652 96.3729 49.652C84.0081 61.9956 70.0597 69.5244 70.0597 69.5244C58.3065 76.7444 43.5825 82.088 43.5825 82.088C32.3789 86.1252 28.7945 84.8392 28.7945 84.8392H28.7941Z" fill="#B7B9C8"/>
<path d="M102.074 85.6377C104.782 80.9669 90.0365 67.3661 69.1537 55.2589C48.2709 43.1517 29.1169 37.1317 26.4113 41.8105C23.7057 46.4893 38.4485 60.0821 59.3433 72.1893C80.2381 84.2965 99.3681 90.3169 102.074 85.6377ZM28.2057 43.6153C27.8057 42.6669 28.6501 42.4385 28.6501 42.4385C32.3885 41.7325 37.6397 43.3413 37.6397 43.3413C51.9257 46.5945 77.3997 62.5513 77.3997 62.5513C97.0129 76.2757 100.021 82.3209 100.472 84.0369C100.518 84.2129 100.5 84.3994 100.421 84.5636C100.343 84.7277 100.209 84.8589 100.044 84.9341C97.9985 85.8705 92.5209 84.4753 92.5209 84.4753C75.6381 79.9485 62.1361 71.6545 62.1361 71.6545C50.0045 65.1113 38.0085 55.0433 38.0085 55.0433C28.8933 47.3685 28.2085 43.6257 28.2085 43.6257L28.2057 43.6153Z" fill="#B7B9C8"/>
<path d="M64.1397 68.7652C66.9807 68.7652 69.2837 66.4621 69.2837 63.6212C69.2837 60.7802 66.9807 58.4772 64.1397 58.4772C61.2988 58.4772 58.9957 60.7802 58.9957 63.6212C58.9957 66.4621 61.2988 68.7652 64.1397 68.7652Z" fill="#F6F6F6"/>
<path d="M85.2301 46.9544C86.8779 46.9544 88.2137 45.5726 88.2137 43.868C88.2137 42.1634 86.8779 40.7816 85.2301 40.7816C83.5823 40.7816 82.2465 42.1634 82.2465 43.868C82.2465 45.5726 83.5823 46.9544 85.2301 46.9544Z" fill="#F6F6F6"/>
<path d="M36.2589 57.4484C37.9067 57.4484 39.2425 56.0666 39.2425 54.362C39.2425 52.6575 37.9067 51.2756 36.2589 51.2756C34.6111 51.2756 33.2753 52.6575 33.2753 54.362C33.2753 56.0666 34.6111 57.4484 36.2589 57.4484Z" fill="#F6F6F6"/>
<path d="M58.0697 95.3084C59.7175 95.3084 61.0533 93.9266 61.0533 92.222C61.0533 90.5174 59.7175 89.1356 58.0697 89.1356C56.4219 89.1356 55.0861 90.5174 55.0861 92.222C55.0861 93.9266 56.4219 95.3084 58.0697 95.3084Z" fill="#F6F6F6"/>
</svg>
