<svg width="20" height="20" viewBox="0 0 20 20" fill="none" xmlns="http://www.w3.org/2000/svg">
<rect x="1" y="1" width="18" height="18" rx="9" fill="#28282E" stroke="white" stroke-width="2"/>
<path d="M6.61861 7.18182L7.89986 9.3125H7.94531L9.23224 7.18182H10.4339L8.64134 10.0909L10.4624 13H9.24077L7.94531 10.8835H7.89986L6.6044 13H5.38849L7.22656 10.0909L5.41122 7.18182H6.61861ZM11.2614 13V7.18182H13.4432C13.8902 7.18182 14.2652 7.26515 14.5682 7.43182C14.8731 7.59848 15.1032 7.82765 15.2585 8.11932C15.4157 8.40909 15.4943 8.73864 15.4943 9.10795C15.4943 9.48106 15.4157 9.8125 15.2585 10.1023C15.1013 10.392 14.8693 10.6203 14.5625 10.7869C14.2557 10.9517 13.8778 11.0341 13.429 11.0341H11.983V10.1676H13.2869C13.5483 10.1676 13.7623 10.1222 13.929 10.0312C14.0956 9.94034 14.2188 9.81534 14.2983 9.65625C14.3797 9.49716 14.4205 9.31439 14.4205 9.10795C14.4205 8.90152 14.3797 8.7197 14.2983 8.5625C14.2188 8.4053 14.0947 8.28314 13.9261 8.19602C13.7595 8.10701 13.5445 8.0625 13.2812 8.0625H12.3153V13H11.2614Z" fill="white"/>
</svg>
