<svg width="128" height="128" viewBox="0 0 128 128" fill="none" xmlns="http://www.w3.org/2000/svg">
<rect width="128" height="128" fill="#FF394A"/>
<path fill-rule="evenodd" clip-rule="evenodd" d="M43.6075 92.8802H29.8012C26.9001 92.8802 25.467 92.8802 24.5931 92.3209C23.6494 91.7091 23.0726 90.6955 23.0027 89.5769C22.9503 88.5457 23.6668 87.2873 25.0999 84.7706L59.1896 24.6795C60.6402 22.1277 61.3742 20.852 62.3005 20.38C63.2967 19.8733 64.485 19.8733 65.4812 20.38C66.4075 20.852 67.1416 22.1277 68.5921 24.6795L75.6001 36.9137L75.636 36.9762C77.2026 39.7137 77.9972 41.1019 78.344 42.5589C78.7284 44.1493 78.7284 45.8271 78.344 47.4176C77.9945 48.8858 77.2079 50.284 75.6175 53.063L57.7112 84.7182L57.6648 84.7994C56.0876 87.5594 55.2884 88.9581 54.1808 90.0139C52.975 91.1674 51.5245 92.0062 49.9341 92.4781C48.4836 92.8802 46.8582 92.8802 43.6075 92.8802ZM78.4777 92.8817H98.2612C101.18 92.8817 102.648 92.8817 103.522 92.305C104.465 91.6932 105.059 90.662 105.112 89.5435C105.163 88.5463 104.462 87.3366 103.088 84.9662C103.041 84.8853 102.993 84.8033 102.945 84.7197L93.0357 67.7666L92.9229 67.576C91.5304 65.2208 90.8271 64.0317 89.9248 63.5721C88.9287 63.0652 87.7579 63.0652 86.7617 63.5721C85.8528 64.0438 85.1187 65.2848 83.6682 67.784L73.7941 84.7371L73.7602 84.7956C72.3147 87.2908 71.5923 88.5378 71.6444 89.5611C71.7144 90.6796 72.291 91.7108 73.2348 92.3224C74.0912 92.8817 75.559 92.8817 78.4777 92.8817Z" fill="white"/>
</svg>
