<svg width="128" height="128" viewBox="0 0 128 128" fill="none" xmlns="http://www.w3.org/2000/svg">
<rect width="128" height="128" fill="#0AC18E"/>
<path d="M84.748 41.6939C81.3453 33.9779 73.5262 32.3281 63.9542 33.9263L60.8781 22L53.626 23.8732L56.6506 35.7651C54.743 36.2463 52.784 36.6588 50.8421 37.2087L47.8175 25.3854L40.5655 27.2586L43.6416 39.1849C42.0777 39.6318 29 42.9828 29 42.9828L30.9935 50.7504C30.9935 50.7504 36.3208 49.2553 36.2692 49.3756C39.225 48.6023 40.617 50.0802 41.27 51.4722L49.725 84.1579C49.8282 85.1031 49.6563 86.7185 47.6285 87.2684C47.7488 87.3372 42.3527 88.626 42.3527 88.626L43.1432 97.6825C43.1432 97.6825 56.1007 94.3658 57.802 93.9362L60.9124 106L68.1645 104.127L65.054 91.9771C67.0475 91.5131 68.9894 91.0319 70.8797 90.5335L73.973 102.615L81.225 100.741L78.1146 88.6948C89.2848 85.9795 97.1727 78.9337 95.5573 68.1588C94.5262 61.6628 87.4288 56.3355 81.5344 55.734C85.1604 52.5205 86.9992 47.829 84.748 41.6939ZM81.2594 70.135C82.7029 80.8069 67.8723 82.1129 62.9746 83.4018L58.7128 67.437C63.6277 66.1481 78.8191 60.7349 81.2594 70.135ZM72.3232 48.3961C73.8527 57.8822 61.1702 58.982 57.0802 60.0303L53.1964 45.5434C57.3036 44.5295 69.2128 39.6146 72.3232 48.3961Z" fill="white"/>
</svg>
