<svg width="128" height="128" viewBox="0 0 128 128" fill="none" xmlns="http://www.w3.org/2000/svg">
<rect width="128" height="128" fill="#F0B90B"/>
<path d="M73.2984 105.37L64.2496 110.696L55.2447 105.37V94.7658L64.2496 100.093L73.2984 94.7658V105.37ZM33.2759 63.6545L33.3257 81.8517L48.7877 90.9504V101.604L24.2769 87.2277V58.3342L33.2759 63.6545ZM104.271 87.2228L79.7603 101.598V90.9445L95.2164 81.8517L95.2662 63.6555L104.271 58.3283V87.2228ZM88.7984 49.2297H88.7593L88.8091 59.883L73.3033 68.9816V87.2228L64.2994 92.5002L55.2945 87.2228V68.9816L39.7886 59.883V49.2297L48.8316 43.9035L64.2437 53.0461L79.7496 43.9035L88.7984 49.2297ZM48.7877 72.7531V83.3576L39.7828 78.0803V67.4269L48.7877 72.7531ZM88.7593 78.0803L79.7545 83.3576V72.7531L88.7593 67.4269V78.0803ZM42.3248 40.131L33.2759 45.4582V56.0617L24.2711 50.7355V40.131L33.2759 34.8049L42.3248 40.131ZM104.265 40.131V50.7355L95.2164 56.0617V45.4582L86.2125 40.131L95.2164 34.8049L104.265 40.131ZM73.2974 40.131L64.2486 45.4582L55.2447 40.131L64.2486 34.8049L73.2974 40.131ZM88.7593 31.0383L79.7554 36.3654L64.2496 27.2228L48.7877 36.3654L39.7828 31.0383L64.2496 16.6135L88.7593 31.0383Z" fill="white"/>
</svg>
