<svg width="128" height="128" viewBox="0 0 128 128" fill="none" xmlns="http://www.w3.org/2000/svg">
<rect width="128" height="128" fill="#F0B90B"/>
<path fill-rule="evenodd" clip-rule="evenodd" d="M84.296 60.577L84.2555 51.883H84.287L76.9026 47.536L64.2486 54.997L51.6712 47.536L44.2913 51.883V60.577L56.9452 68.002V82.888L64.2936 87.1945L71.6421 82.888V68.002L84.296 60.577ZM64.2531 25.2655L44.2868 37.0375L51.6352 41.3845L64.2531 33.9235L76.9071 41.3845L84.2555 37.0375L64.2531 25.2655ZM39.0169 78.505L38.9764 63.655L31.6325 59.3125V82.8925L51.6349 94.624V85.93L39.0169 78.505ZM38.9764 57.4585V48.805L46.3609 44.458L38.9764 40.111L31.628 44.458V53.1115L38.9764 57.4585ZM64.2528 40.111L56.9043 44.458L64.2528 48.805L71.6372 44.458L64.2528 40.111ZM51.6352 71.08L44.2868 66.733V75.427L51.6352 79.7335V71.08ZM64.2531 93.391L56.9047 89.044V97.6975L64.2531 102.045L71.6376 97.6975V89.044L64.2531 93.391ZM89.525 40.111L82.1765 44.458L89.525 48.805V57.4585L96.9094 53.1115V44.458L89.525 40.111ZM96.9139 59.308L89.5655 63.655L89.525 78.505L76.9116 85.9255V94.6195L96.9139 82.888V59.308ZM84.2548 75.427L76.9063 79.7335V71.08L84.2548 66.733V75.427Z" fill="white"/>
</svg>
