<svg width="128" height="128" viewBox="0 0 128 128" fill="none" xmlns="http://www.w3.org/2000/svg">
<rect width="128" height="128" fill="#F7931A"/>
<path d="M92.778 55.7688C94.0973 46.9423 87.3814 42.1978 78.198 39.0327L81.1771 27.0765L73.9033 25.263L71.0032 36.9044C69.091 36.4272 67.1272 35.9775 65.1754 35.5318L68.0966 23.8135L60.8273 22L57.8465 33.9523C56.2641 33.5918 54.7099 33.2355 53.202 32.8601L53.2104 32.8225L43.1797 30.3162L41.2448 38.0896C41.2448 38.0896 46.6413 39.3274 46.5276 39.4036C49.4731 40.1392 50.0057 42.0902 49.9173 43.6366L46.5237 57.2575C46.7265 57.309 46.9896 57.3836 47.2799 57.5003C47.0373 57.44 46.779 57.3742 46.5111 57.31L41.7544 76.3909C41.3945 77.2863 40.4808 78.6301 38.4214 78.1198C38.4943 78.2255 33.1347 76.7997 33.1347 76.7997L29.5234 85.1308L38.9891 87.4919C40.75 87.9338 42.4757 88.3961 44.175 88.8308L41.1651 100.924L48.4305 102.738L51.4113 90.7727C53.3961 91.3119 55.3223 91.8092 57.2079 92.2779L54.2372 104.186L61.5113 106L64.5209 93.9294C76.9243 96.2781 86.2506 95.3312 90.1762 84.1057C93.3394 75.0679 90.0188 69.8549 83.4934 66.4554C88.2462 65.3587 91.826 62.2309 92.7805 55.7697L92.7783 55.7681L92.778 55.7688ZM76.159 79.0866C73.9111 88.1244 58.7032 83.2388 53.7726 82.0137L57.7668 65.9922C62.6971 67.2238 78.5084 69.661 76.1594 79.0866H76.159ZM78.4086 55.6378C76.358 63.8587 63.7002 59.6821 59.5942 58.658L63.2155 44.1274C67.3216 45.1515 80.5447 47.0629 78.4092 55.6378H78.4086Z" fill="white"/>
</svg>
