<svg width="128" height="128" viewBox="0 0 128 128" fill="none" xmlns="http://www.w3.org/2000/svg">
<rect width="128" height="128" fill="#F5AC37"/>
<path d="M68.6976 67.4272H88.9632C89.3952 67.4272 89.5992 67.4272 89.6304 66.8608C89.796 64.7992 89.796 62.7256 89.6304 60.6616C89.6304 60.2608 89.4312 60.0952 88.9968 60.0952H48.6648C48.1656 60.0952 48.0312 60.2608 48.0312 60.7288V66.6616C48.0312 67.4272 48.0312 67.4272 48.8304 67.4272H68.6976ZM87.3672 53.1616C87.4248 53.0104 87.4248 52.8448 87.3672 52.696C87.0288 51.9592 86.628 51.256 86.1624 50.596C85.4616 49.468 84.636 48.4288 83.6952 47.4952C83.2512 46.9312 82.7376 46.4248 82.1616 45.9952C79.2768 43.54 75.8472 41.8024 72.1608 40.9288C70.3008 40.5112 68.4 40.312 66.4944 40.3288H48.5952C48.096 40.3288 48.0288 40.528 48.0288 40.9624V52.7944C48.0288 53.2936 48.0288 53.428 48.6624 53.428H87.1272C87.1272 53.428 87.4608 53.3608 87.528 53.1616H87.3648H87.3672ZM87.3672 74.3608C86.8008 74.2984 86.2296 74.2984 85.6632 74.3608H48.6984C48.1992 74.3608 48.0312 74.3608 48.0312 75.028V86.596C48.0312 87.1288 48.0312 87.2632 48.6984 87.2632H65.7648C66.5808 87.3256 67.3968 87.268 68.196 87.0976C70.6728 86.92 73.1088 86.3824 75.432 85.4968C76.2768 85.204 77.0928 84.8224 77.8632 84.364H78.096C82.0968 82.2832 85.3464 79.0144 87.396 75.0016C87.396 75.0016 87.6288 74.4976 87.3672 74.3656V74.3608ZM41.3328 93.2608V93.0616V85.2952V82.6624V74.8288C41.3328 74.3944 41.3328 74.3296 40.8 74.3296H33.5664C33.1656 74.3296 33 74.3296 33 73.7968V67.4632H40.7328C41.1648 67.4632 41.3328 67.4632 41.3328 66.8968V60.6304C41.3328 60.2296 41.3328 60.1312 40.8 60.1312H33.5664C33.1656 60.1312 33 60.1312 33 59.5984V53.7328C33 53.3656 33 53.2672 33.5328 53.2672H40.6992C41.1984 53.2672 41.3328 53.2672 41.3328 52.6336V34.6672C41.3328 34.1344 41.3328 34 42 34H66.9984C68.8128 34.072 70.6152 34.2712 72.3984 34.6C76.0728 35.2792 79.6032 36.592 82.8312 38.4664C84.972 39.7264 86.9424 41.248 88.6968 43C90.0168 44.3704 91.2072 45.8536 92.2632 47.4328C93.312 49.0336 94.1832 50.7448 94.8672 52.5328C94.9512 52.9984 95.3976 53.3128 95.8632 53.2336H101.83C102.595 53.2336 102.595 53.2336 102.629 53.968V59.4352C102.629 59.968 102.43 60.1024 101.894 60.1024H97.2936C96.828 60.1024 96.6936 60.1024 96.7272 60.7024C96.9096 62.7328 96.9096 64.7704 96.7272 66.8008C96.7272 67.3672 96.7272 67.4344 97.3632 67.4344H102.626C102.859 67.7344 102.626 68.0344 102.626 68.3368C102.66 68.7232 102.66 69.1144 102.626 69.5008V73.5352C102.626 74.1016 102.461 74.2696 101.959 74.2696H95.6592C95.22 74.1856 94.7928 74.4664 94.692 74.9032C93.192 78.8032 90.792 82.3 87.6912 85.1032C86.5584 86.1232 85.368 87.0832 84.1248 87.9688C82.7904 88.7368 81.492 89.536 80.124 90.1696C77.6064 91.3024 74.9664 92.1376 72.2568 92.668C69.684 93.1288 67.0752 93.3376 64.4568 93.3016H41.3232V93.268L41.3328 93.2608Z" fill="#FEFEFD"/>
</svg>
