<svg width="128" height="128" viewBox="0 0 128 128" fill="none" xmlns="http://www.w3.org/2000/svg">
<rect width="128" height="128" fill="#E6007A"/>
<path fill-rule="evenodd" clip-rule="evenodd" d="M78.6939 31.519C78.6939 36.224 72.1359 40.0381 64.0463 40.0381C55.9566 40.0381 49.3987 36.224 49.3987 31.519C49.3987 26.8141 55.9566 23 64.0463 23C72.1359 23 78.6939 26.8141 78.6939 31.519ZM78.6939 95.7085C78.6939 100.413 72.1359 104.227 64.0463 104.227C55.9566 104.227 49.3987 100.413 49.3987 95.7085C49.3987 91.0035 55.9566 87.1894 64.0463 87.1894C72.1359 87.1894 78.6939 91.0035 78.6939 95.7085ZM43.6339 51.8304C47.6787 44.8248 47.6525 37.2372 43.5752 34.8831C39.498 32.5291 32.9138 36.3 28.869 43.3056C24.8242 50.3113 24.8504 57.8989 28.9276 60.2529C33.0049 62.607 39.5891 58.8361 43.6339 51.8304ZM99.1644 66.9769C103.239 69.3294 103.263 76.9157 99.218 83.9213C95.1732 90.927 88.5912 94.6992 84.5167 92.3467C80.4423 89.9942 80.4183 82.408 84.4631 75.4023C88.5079 68.3966 95.0899 64.6245 99.1644 66.9769ZM43.5779 92.3447C47.6551 89.9907 47.6814 82.4031 43.6365 75.3974C39.5917 68.3918 33.0075 64.6209 28.9303 66.975C24.8531 69.329 24.8268 76.9166 28.8717 83.9222C32.9165 90.9279 39.5007 94.6988 43.5779 92.3447ZM99.2215 43.3104C103.266 50.3161 103.242 57.9023 99.1679 60.2548C95.0934 62.6073 88.5114 58.8351 84.4666 51.8294C80.4218 44.8238 80.4458 37.2375 84.5203 34.885C88.5947 32.5326 95.1767 36.3047 99.2215 43.3104Z" fill="white"/>
</svg>
