<svg width="128" height="128" viewBox="0 0 128 128" fill="none" xmlns="http://www.w3.org/2000/svg">
<rect width="128" height="128" fill="#0090FF"/>
<path fill-rule="evenodd" clip-rule="evenodd" d="M68.475 57.3254L66.855 65.9653L82.245 68.1254L81.165 72.1754L66.045 70.0154C64.965 73.5253 64.425 77.3054 63.075 80.5454C61.725 84.3254 60.375 88.1054 58.755 91.6153C56.595 96.2054 52.815 99.4454 47.685 100.255C44.715 100.795 41.475 100.525 39.045 98.6354C38.235 98.0954 37.425 97.0154 37.425 96.2054C37.425 95.1254 37.965 93.7754 38.775 93.2354C39.315 92.9653 40.665 93.2354 41.475 93.5053C42.285 94.3154 43.095 95.3953 43.635 96.4753C45.255 98.6353 47.415 98.9054 49.575 97.2854C52.005 95.1254 53.355 92.1553 54.165 89.1853C55.785 82.7053 57.405 76.4953 58.755 70.0154V68.9353L44.445 66.7754L44.985 62.7254L59.835 64.8853L61.725 56.5153L46.335 54.0854L46.875 49.7654L62.805 51.9254C63.345 50.3054 63.615 48.9554 64.155 47.6054C65.505 42.7454 66.855 37.8854 70.095 33.5654C73.335 29.2454 77.115 26.5454 82.785 26.8154C85.215 26.8154 87.645 27.6254 89.265 29.5154C89.535 29.7854 90.075 30.3254 90.075 30.8654C90.075 31.9454 90.075 33.2954 89.265 34.1054C88.185 34.9154 86.835 34.6454 85.755 33.5654C84.945 32.7554 84.405 31.9454 83.595 31.1354C81.975 28.9754 79.545 28.7054 77.655 30.5954C76.305 31.9454 74.955 33.8354 74.145 35.7254C72.255 41.3954 70.905 47.3354 69.015 53.2754L83.865 55.4354L82.785 59.4854L68.475 57.3254Z" fill="white"/>
</svg>
