<svg width="128" height="128" viewBox="0 0 128 128" fill="none" xmlns="http://www.w3.org/2000/svg">
<rect width="128" height="128" fill="#00EF8B"/>
<path d="M90.9395 54.9866H73.6134V72.3127H90.9395V54.9866Z" fill="white"/>
<path d="M56.2873 78.8253C56.2873 82.3888 53.3382 85.3379 49.7747 85.3379C46.2112 85.3379 43.2621 82.3888 43.2621 78.8253C43.2621 75.2618 46.2112 72.3126 49.7747 72.3126H56.2873V54.9866H49.7747C36.6265 54.9866 25.936 65.6771 25.936 78.8253C25.936 91.9734 36.6265 102.664 49.7747 102.664C62.9229 102.664 73.6134 91.9734 73.6134 78.8253V72.3126H56.2873V78.8253Z" fill="white"/>
<path d="M80.1261 46.2621H99.664V28.936H80.1261C66.9779 28.936 56.2874 39.6265 56.2874 52.7747V54.9865H73.6134V52.7747C73.6134 49.2112 76.5626 46.2621 80.1261 46.2621Z" fill="white"/>
</svg>
