<svg width="128" height="128" viewBox="0 0 128 128" fill="none" xmlns="http://www.w3.org/2000/svg">
<rect width="128" height="128" fill="#6747ED"/>
<path fill-rule="evenodd" clip-rule="evenodd" d="M62.6 71.6667C53.1333 71.6667 45.5333 64.0667 45.5333 54.6C45.5333 45.1333 53.1333 37.5333 62.6 37.5333C72.0667 37.5333 79.6667 45.1333 79.6667 54.6C79.6667 64.0667 72.0667 71.6667 62.6 71.6667ZM62.6 29C76.7333 29 88.2 40.4667 88.2 54.6C88.2 68.7333 76.7333 80.2 62.6 80.2C48.4667 80.2 37 68.7333 37 54.6C37 40.4667 48.4667 29 62.6 29ZM87 81.5333C88.7333 83.2667 88.7333 85.9333 87 87.5333L69.9333 104.6C68.2 106.333 65.5333 106.333 63.9333 104.6C62.2 102.867 62.2 100.2 63.9333 98.6L81 81.5333C82.6 79.8 85.4 79.8 87 81.5333ZM96.8667 33.2667C96.8667 35.6667 95 37.5333 92.6 37.5333C90.2 37.5333 88.3333 35.6667 88.3333 33.2667C88.3333 30.8667 90.2 29 92.6 29C94.8667 29 96.8667 30.8667 96.8667 33.2667Z" fill="white"/>
</svg>
