<svg width="128" height="128" viewBox="0 0 128 128" fill="none" xmlns="http://www.w3.org/2000/svg">
<rect width="128" height="128" fill="#F6F6F6"/>
<path d="M86.2217 42.1243C81.3617 42.1243 76.04 44.773 70.4267 49.9975C67.778 52.4518 65.4452 55.1248 63.7442 57.2389C63.7442 57.2389 66.4658 60.3736 69.4547 63.7513C71.0828 61.7101 73.3913 58.9399 76.0886 56.437C81.0701 51.7714 84.3263 50.8237 86.1974 50.8237C93.1958 50.8237 98.882 56.7043 98.882 63.97C98.882 71.1628 93.1958 77.0434 86.1974 77.1163C85.8572 77.1163 85.4684 77.0677 84.9824 76.9705C87.0236 77.9182 89.2349 78.5986 91.3004 78.5986C104.131 78.5986 106.658 69.7291 106.804 69.0973C107.168 67.4692 107.387 65.7682 107.387 64.0186C107.363 51.9415 97.8857 42.1243 86.2217 42.1243Z" fill="url(#paint0_linear_257_6915)"/>
<path d="M41.3882 85.8157C46.2482 85.8157 51.5699 83.167 57.1832 77.9425C59.8319 75.4882 62.1647 72.8152 63.8657 70.7011C63.8657 70.7011 61.1441 67.5664 58.1552 64.1887C56.5271 66.2299 54.2186 69.0001 51.5213 71.503C46.5398 76.12 43.2593 77.1163 41.4125 77.1163C34.4141 77.1163 28.7279 71.2357 28.7279 63.97C28.7279 56.7772 34.4141 50.8966 41.4125 50.8237C41.7527 50.8237 42.1415 50.8723 42.6275 50.9695C40.5863 50.0218 38.375 49.3414 36.3095 49.3414C23.4791 49.3171 20.9519 58.1866 20.8061 58.8427C20.4416 60.4708 20.2229 62.1718 20.2229 63.9214C20.2229 75.9985 29.6999 85.8157 41.3882 85.8157Z" fill="url(#paint1_linear_257_6915)"/>
<path fill-rule="evenodd" clip-rule="evenodd" d="M51.1568 56.6314C49.7474 55.2706 42.8948 49.7059 36.3338 49.5115C24.6212 49.2199 21.1949 57.7249 20.879 58.8184C23.1389 49.2928 31.4981 42.1729 41.4125 42.1243C49.5044 42.1243 57.6935 50.0704 63.7442 57.2389L63.7685 57.2146C63.7685 57.2146 66.4901 60.3493 69.479 63.727C69.479 63.727 72.881 67.7365 76.4774 71.26C77.8868 72.6208 84.7151 78.1126 91.2761 78.307C103.305 78.6472 106.634 69.6562 106.804 68.9758C104.593 78.5743 96.209 85.7185 86.246 85.7671C78.1541 85.7671 69.965 77.821 63.89 70.6525C63.89 70.6768 63.8657 70.6768 63.8657 70.7011C63.8657 70.7011 61.1441 67.5664 58.1552 64.1887C58.1795 64.1887 54.7775 60.1549 51.1568 56.6314Z" fill="#29ABE2"/>
<defs>
<linearGradient id="paint0_linear_257_6915" x1="74.8458" y1="45.5862" x2="104.803" y2="75.79" gradientUnits="userSpaceOnUse">
<stop offset="0.21" stop-color="#F15A24"/>
<stop offset="0.6841" stop-color="#FBB03B"/>
</linearGradient>
<linearGradient id="paint1_linear_257_6915" x1="52.7718" y1="82.3588" x2="22.8146" y2="52.155" gradientUnits="userSpaceOnUse">
<stop offset="0.21" stop-color="#ED1E79"/>
<stop offset="0.8929" stop-color="#522785"/>
</linearGradient>
</defs>
</svg>
