<svg width="128" height="128" viewBox="0 0 128 128" fill="none" xmlns="http://www.w3.org/2000/svg">
<rect width="128" height="128" fill="#1C1B1F"/>
<path d="M93.184 33.402H101.068L69.1 69.906C68.29 70.824 68.236 72.228 69.046 73.2L87.46 94.638H79.252L62.242 74.766L61.378 73.686C60.568 72.768 60.622 71.31 61.432 70.392L93.184 33.402Z" fill="#17B5CB"/>
<path d="M75.418 73.2001C74.878 72.6061 74.716 71.7421 74.878 70.9861C75.04 70.5541 75.31 70.1221 75.634 69.7981L77.74 67.4761L101.23 94.6381H93.778C93.778 94.6381 80.008 78.5461 75.418 73.2001Z" fill="#17B5CB"/>
<path d="M34.378 94.638H26.17L51.334 65.532C52.144 64.614 52.144 63.21 51.334 62.292L26.386 33.402H34.27L59.38 62.508C60.028 63.372 60.136 64.614 59.434 65.424C52.846 73.038 34.378 94.638 34.378 94.638Z" fill="#17B5CB"/>
<path d="M48.094 33.402H40.534L63.808 60.348C63.808 60.348 63.862 60.294 66.454 57.216C67.156 56.406 67.318 55.38 66.508 54.57C61.648 49.602 48.094 33.402 48.094 33.402Z" fill="#17B5CB"/>
<path d="M70.774 52.194L86.92 33.402H79.252L70.828 43.23L68.398 46.092C67.588 47.01 67.534 48.414 68.344 49.386C68.938 50.088 70.774 52.194 70.774 52.194Z" fill="#17B5CB"/>
<path d="M56.734 75.8461L40.588 94.6381H48.202L56.626 84.8101L59.056 81.9481C59.866 81.0301 59.92 79.6261 59.11 78.6541C58.516 77.9521 56.734 75.8461 56.734 75.8461Z" fill="#17B5CB"/>
</svg>
