<svg width="128" height="128" viewBox="0 0 128 128" fill="none" xmlns="http://www.w3.org/2000/svg">
<rect width="128" height="128" fill="#111111"/>
<path d="M45.449 57.8261H45.485L46.097 58.0421L46.673 58.2581L47.285 58.4381L47.861 58.6901L48.473 58.9061L49.049 59.1221L49.661 59.3381L50.237 59.5541L50.813 59.7701L51.389 59.9861L52.001 60.2021L52.577 60.4541L53.189 60.6341L53.765 60.8501L54.377 61.0661L54.953 61.3181L55.565 61.5341L56.141 61.7141L56.717 61.9301L57.329 62.1821L57.941 62.3981V61.4621V61.3181V60.5621V60.0221V59.6261V58.6901V57.7901V56.8541V55.9541V54.9821V54.0821V53.9741H57.221H56.537H56.465H55.709H55.133H54.917H54.161H53.765H53.369H52.577H52.361H51.821H51.065H51.029H50.993H50.273H49.625H49.517H48.725H48.221H46.853H45.485H45.449H44.657L44.081 54.2621L42.713 54.9821L41.309 55.7381L39.905 56.4221L38.573 57.1421L37.169 57.8981L35.765 58.5821L34.397 59.3381L32.993 60.0581L31.625 60.7421L30.257 61.4981L28.997 62.1461L28.853 82.7741L30.257 83.7461L31.625 84.7181L32.993 85.6541L34.397 86.6621L35.765 87.6341L37.169 88.6061L37.781 89.0741L38.573 88.0661L39.905 86.2661L40.049 86.0861L39.905 85.9781L38.573 85.0061L37.169 84.0341L35.765 83.0621L34.397 82.0901L32.993 81.0821L32.633 80.8661L32.741 64.1621L32.993 64.0181L34.397 63.3341L35.765 62.6501L37.169 61.9661L38.573 61.2821L39.905 60.5621L41.309 59.8781L42.713 59.2301L44.081 58.5101L45.449 57.8261Z" fill="url(#paint0_linear_257_6974)"/>
<path d="M69.281 97.174L68.129 97.642L66.833 98.1821L65.537 98.686L64.241 99.226L63.665 99.4421L62.981 99.118L61.685 98.434L60.389 97.8221L59.129 97.138L57.833 96.4901L56.537 95.878L55.241 95.194L53.945 94.546L52.649 93.898L51.353 93.2501L50.057 92.566L48.833 91.9541L47.537 91.306L47.393 91.234V74.386H46.241H44.945H43.649V93.538L44.945 94.1501L46.241 94.798L47.537 95.482L48.833 96.094L50.057 96.778L51.353 97.426L52.649 98.074L53.945 98.722L55.241 99.3701L56.537 100.018L57.833 100.666L59.129 101.35L60.389 101.962L61.685 102.646L62.981 103.258L63.485 103.546L64.241 103.186L65.537 102.718L66.833 102.178L68.129 101.638L69.389 101.134L70.685 100.63L69.389 97.3901L69.281 97.174Z" fill="url(#paint1_linear_257_6974)"/>
<path d="M92.2849 73.7741L92.3569 81.6941L92.0329 81.9821L89.8369 83.4941L87.6409 85.0781L85.4449 86.6621L83.2489 88.2101L81.0529 89.7581L78.8929 91.3421L76.6969 92.8901L75.4009 93.8261L74.5009 93.1421L72.3409 91.4501L70.1449 89.7941L67.9489 88.1021L65.7889 86.4461L65.3929 86.1581V77.6261L65.7889 77.2661L67.9489 74.9621L70.1449 72.6941L72.3409 70.3901L74.5009 68.1221L76.6249 65.8901H74.5009H72.3409H70.1449H67.9489H65.7889H63.5569H61.3609H59.2009H57.0049H54.8089H52.6489H50.4529L52.6489 68.1941L54.8089 70.4621L57.0049 72.7301L59.2009 75.0341L61.3609 77.3021L61.6849 77.6261V87.9581L63.5569 89.4341L65.7889 91.1261L67.9489 92.7821L70.1449 94.4741L72.3409 96.1301L74.5009 97.8221L75.2929 98.4341L76.6969 97.4261L78.8929 95.9141L81.0529 94.3301L83.2489 92.7461L85.4449 91.2341L87.6409 89.6501L89.8369 88.0661L92.0329 86.5541L94.2289 84.9701L96.0289 83.6381L96.3889 73.9181L94.2289 73.8461L92.2849 73.7741Z" fill="url(#paint2_linear_257_6974)"/>
<path d="M32.417 55.3421H32.669L32.705 44.7581L34.109 43.8581L35.873 42.8141L37.601 41.7701L39.329 40.6901L41.057 39.6461L42.821 38.5661L44.513 37.5221L46.277 36.4781L48.005 35.3981L49.769 34.3181H49.805L51.461 35.2901L53.225 36.2621L54.953 37.2701L56.681 38.2421L58.409 39.2141L60.137 40.1861L61.865 41.1941L63.557 42.1661L63.629 42.0221L65.357 38.8901L63.629 37.8821L61.865 36.9101L60.137 35.9381L58.409 34.9661L56.681 33.9581L54.953 32.9861L53.225 32.0141L51.461 31.0061L49.769 30.0341L49.697 29.9981L48.005 31.0061L46.277 32.0861L44.513 33.1661L42.821 34.2461L41.057 35.2901L39.329 36.3341L37.601 37.4141L35.873 38.4581L34.109 39.5381L32.417 40.5821L30.653 41.6261L28.997 42.6701L28.925 55.3061H30.653L32.417 55.3421Z" fill="url(#paint3_linear_257_6974)"/>
<path d="M100.097 45.6581L99.197 44.9381L98.297 44.2181L97.397 43.4621L96.497 42.7421L95.597 42.0221L94.661 41.3021L93.761 40.5821L92.861 39.8621L91.925 39.1061L91.241 38.6021L90.989 38.8901L90.089 40.0061L89.189 41.1581L88.937 41.4461L89.189 41.6981L90.089 42.4541L90.989 43.2101L91.925 43.9661L92.861 44.7221L93.761 45.5141L94.661 46.2701L95.597 47.0261L96.029 47.3861L96.065 64.4141L95.597 64.7381L94.661 65.3141L93.761 65.8901L92.861 66.4661L91.925 67.0421L90.989 67.6181L90.089 68.1941L89.189 68.7701L88.289 69.3461L87.389 69.9221L86.489 70.4981L85.553 71.0741L84.653 71.6501L83.753 72.2261L82.853 72.8021L81.917 73.3781L81.017 73.9541L81.917 75.3941L82.853 76.8341L82.997 77.0861L83.753 76.6181L84.653 76.0781L85.553 75.5021L86.489 74.9621L87.389 74.3501L88.289 73.8101L89.189 73.2341L90.089 72.6941L90.989 72.1181L91.925 71.5781L92.861 70.9661L93.761 70.4261L94.661 69.8501L95.597 69.3101L96.497 68.7341L97.397 68.1941L98.297 67.5821L99.197 67.0421L100.097 66.4661V45.6581Z" fill="url(#paint4_linear_257_6974)"/>
<path d="M70.397 55.8101V56.7461V57.6821V58.6181V59.5901V60.5621V61.4981V62.4341V63.1541L70.685 63.0461L71.909 62.5781L73.133 62.0741L74.321 61.6061L75.545 61.1021L76.769 60.5981L77.957 60.1301L79.181 59.6261L80.405 59.1581L81.593 58.6541L82.817 58.1861L84.005 57.6821V56.7461V56.3861V53.9021V35.3981L82.637 34.5341L81.233 33.7421L79.829 32.9501L78.461 32.0861L77.057 31.2941L75.653 30.5021L74.285 29.6741L72.881 28.8461L71.513 28.0181L70.109 27.2261L68.705 26.3981L67.337 25.5701L65.969 24.7781L64.565 23.9861L63.809 23.5541L63.161 23.9141L61.757 24.6701L60.353 25.3901L59.021 26.1821L57.617 26.9381L56.213 27.6581L54.809 28.4501L56.213 29.2421L57.617 30.0341L58.481 30.5741L59.021 30.2861L60.353 29.5661L61.757 28.8101L63.161 28.0901L63.701 27.8021L64.565 28.3061L65.969 29.0981L67.337 29.8901L68.705 30.7181L70.109 31.5461L71.513 32.3381L72.881 33.1661L74.285 33.9941L75.653 34.7861L77.057 35.5781L78.461 36.4421L79.829 37.2341L80.297 37.4861V53.9021H79.973H79.829H79.181H78.461H78.389H77.561H77.057H76.769H75.977H75.653H75.185H74.393H74.285H73.601H72.881H72.809H71.981H71.513H71.189H70.577H70.469" fill="url(#paint5_linear_257_6974)"/>
<path d="M70.397 63.1541L84.005 57.6821L70.397 53.9021" fill="url(#paint6_linear_257_6974)"/>
<path d="M57.941 63.1541V54.0461L45.485 57.7541L57.941 63.1181" fill="url(#paint7_linear_257_6974)"/>
<defs>
<linearGradient id="paint0_linear_257_6974" x1="43.388" y1="53.9849" x2="43.388" y2="89.0597" gradientUnits="userSpaceOnUse">
<stop stop-color="#F6E93D"/>
<stop offset="0.13" stop-color="#F8E330"/>
<stop offset="0.35" stop-color="#F7C730"/>
<stop offset="0.64" stop-color="#F59C2E"/>
<stop offset="0.98" stop-color="#EB5E2C"/>
<stop offset="1" stop-color="#EB5C2C"/>
</linearGradient>
<linearGradient id="paint1_linear_257_6974" x1="57.1724" y1="74.4004" x2="57.1724" y2="103.542" gradientUnits="userSpaceOnUse">
<stop stop-color="#F6E93D"/>
<stop offset="0.13" stop-color="#F8E330"/>
<stop offset="0.35" stop-color="#F7C730"/>
<stop offset="0.64" stop-color="#F59C2E"/>
<stop offset="0.98" stop-color="#EB5E2C"/>
<stop offset="1" stop-color="#EB5C2C"/>
</linearGradient>
<linearGradient id="paint2_linear_257_6974" x1="73.4191" y1="65.8865" x2="73.4191" y2="98.4449" gradientUnits="userSpaceOnUse">
<stop stop-color="#F6E93D"/>
<stop offset="0.13" stop-color="#F8E330"/>
<stop offset="0.35" stop-color="#F7C730"/>
<stop offset="0.64" stop-color="#F59C2E"/>
<stop offset="0.98" stop-color="#EB5E2C"/>
<stop offset="1" stop-color="#EB5C2C"/>
</linearGradient>
<linearGradient id="paint3_linear_257_6974" x1="47.1392" y1="30.0089" x2="47.1392" y2="55.3457" gradientUnits="userSpaceOnUse">
<stop stop-color="#F6E93D"/>
<stop offset="0.13" stop-color="#F8E330"/>
<stop offset="0.35" stop-color="#F7C730"/>
<stop offset="0.64" stop-color="#F59C2E"/>
<stop offset="0.98" stop-color="#EB5E2C"/>
<stop offset="1" stop-color="#EB5C2C"/>
</linearGradient>
<linearGradient id="paint4_linear_257_6974" x1="90.5714" y1="38.5949" x2="90.5714" y2="77.0897" gradientUnits="userSpaceOnUse">
<stop stop-color="#F6E93D"/>
<stop offset="0.13" stop-color="#F8E330"/>
<stop offset="0.35" stop-color="#F7C730"/>
<stop offset="0.64" stop-color="#F59C2E"/>
<stop offset="0.98" stop-color="#EB5E2C"/>
<stop offset="1" stop-color="#EB5C2C"/>
</linearGradient>
<linearGradient id="paint5_linear_257_6974" x1="69.4034" y1="23.5541" x2="69.4034" y2="63.1649" gradientUnits="userSpaceOnUse">
<stop stop-color="#F6E93D"/>
<stop offset="0.13" stop-color="#F8E330"/>
<stop offset="0.35" stop-color="#F7C730"/>
<stop offset="0.64" stop-color="#F59C2E"/>
<stop offset="0.98" stop-color="#EB5E2C"/>
<stop offset="1" stop-color="#EB5C2C"/>
</linearGradient>
<linearGradient id="paint6_linear_257_6974" x1="77.1866" y1="53.9273" x2="77.1866" y2="63.1757" gradientUnits="userSpaceOnUse">
<stop stop-color="#F6E93D"/>
<stop offset="0.13" stop-color="#F8E330"/>
<stop offset="0.35" stop-color="#F7C730"/>
<stop offset="0.64" stop-color="#F59C2E"/>
<stop offset="0.98" stop-color="#EB5E2C"/>
<stop offset="1" stop-color="#EB5C2C"/>
</linearGradient>
<linearGradient id="paint7_linear_257_6974" x1="51.5628" y1="60.8671" x2="54.5004" y2="52.7959" gradientUnits="userSpaceOnUse">
<stop stop-color="#F6E93D"/>
<stop offset="0.13" stop-color="#F8E330"/>
<stop offset="0.35" stop-color="#F7C730"/>
<stop offset="0.64" stop-color="#F59C2E"/>
<stop offset="0.98" stop-color="#EB5E2C"/>
<stop offset="1" stop-color="#EB5C2C"/>
</linearGradient>
</defs>
</svg>
