<svg width="128" height="128" viewBox="0 0 128 128" fill="none" xmlns="http://www.w3.org/2000/svg">
<rect width="128" height="128" fill="#345D9D"/>
<path d="M62.4 66.0009L57.24 83.4009H84.84C85.0228 83.3944 85.2051 83.4241 85.3765 83.4882C85.5478 83.5523 85.7048 83.6495 85.8386 83.7744C85.9723 83.8992 86.0802 84.0492 86.1559 84.2157C86.2316 84.3822 86.2738 84.562 86.28 84.7449V85.2009L83.88 93.4809C83.7742 93.8724 83.5384 94.2164 83.2113 94.4562C82.8842 94.6961 82.4853 94.8176 82.08 94.8008H39.84L46.92 70.6809L39 73.0809L40.8 67.5609L48.72 65.1609L58.68 31.3209C58.7896 30.9315 59.0264 30.59 59.3526 30.3508C59.6788 30.1116 60.0757 29.9884 60.48 30.0009H71.16C71.3428 29.9944 71.5251 30.0241 71.6965 30.0882C71.8678 30.1523 72.0248 30.2496 72.1586 30.3744C72.2923 30.4992 72.4001 30.6492 72.4759 30.8157C72.5516 30.9822 72.5938 31.162 72.6 31.3449V31.8009L64.2 60.3609L72.12 57.9609L70.44 63.7209L62.4 66.0009Z" fill="white"/>
</svg>
