<svg width="128" height="128" viewBox="0 0 128 128" fill="none" xmlns="http://www.w3.org/2000/svg">
<rect width="128" height="128" fill="#8247E5"/>
<path d="M81.4552 52.485C80.1952 51.765 78.5752 51.765 77.1352 52.485L67.0552 58.425L60.2152 62.205L50.3152 68.145C49.0552 68.865 47.4352 68.865 45.9952 68.145L38.2552 63.465C36.9952 62.745 36.0952 61.305 36.0952 59.685V50.685C36.0952 49.245 36.8152 47.805 38.2552 46.905L45.9952 42.405C47.2552 41.685 48.8752 41.685 50.3152 42.405L58.0552 47.085C59.3152 47.805 60.2152 49.245 60.2152 50.865V56.805L67.0552 52.845V46.725C67.0552 45.285 66.3352 43.845 64.8952 42.945L50.4952 34.485C49.2352 33.765 47.6152 33.765 46.1752 34.485L31.4152 43.125C29.9752 43.845 29.2552 45.285 29.2552 46.725V63.645C29.2552 65.085 29.9752 66.525 31.4152 67.425L45.9952 75.885C47.2552 76.605 48.8752 76.605 50.3152 75.885L60.2152 70.125L67.0552 66.165L76.9552 60.405C78.2152 59.685 79.8352 59.685 81.2752 60.405L89.0152 64.905C90.2752 65.625 91.1752 67.065 91.1752 68.685V77.685C91.1752 79.125 90.4552 80.565 89.0152 81.465L81.4552 85.965C80.1952 86.685 78.5752 86.685 77.1352 85.965L69.3952 81.465C68.1352 80.745 67.2352 79.305 67.2352 77.685V71.925L60.3952 75.885V81.825C60.3952 83.265 61.1152 84.705 62.5552 85.605L77.1352 94.065C78.3952 94.785 80.0152 94.785 81.4552 94.065L96.0352 85.605C97.2952 84.885 98.1952 83.445 98.1952 81.825V64.725C98.1952 63.285 97.4752 61.845 96.0352 60.945L81.4552 52.485Z" fill="white"/>
</svg>
