<svg width="128" height="128" viewBox="0 0 128 128" fill="none" xmlns="http://www.w3.org/2000/svg">
<rect width="128" height="128" fill="#111111"/>
<path d="M64.35 112.412V95.9601C62.694 95.9601 61.002 95.8161 59.346 95.5641L56.754 111.8C59.274 112.232 61.83 112.412 64.35 112.412ZM71.91 111.836C74.43 111.44 76.914 110.864 79.326 110.072L74.25 94.4121C72.666 94.9161 71.01 95.3121 69.354 95.5641L71.91 111.836ZM49.374 110.072L54.45 94.4481C52.866 93.9441 51.318 93.2961 49.806 92.5401L42.318 107.192C44.586 108.308 46.962 109.28 49.374 110.072ZM86.346 107.192C88.614 106.04 90.774 104.708 92.826 103.232L83.106 89.9481C81.774 90.9201 80.334 91.8201 78.822 92.5401L86.346 107.192ZM35.838 103.196L45.558 89.9121C44.226 88.9401 42.93 87.8601 41.742 86.6721L30.078 98.3001C31.878 100.064 33.822 101.72 35.838 103.196ZM98.55 98.3721L98.658 98.2641C100.458 96.5001 102.114 94.5561 103.59 92.5401L90.27 82.8561C89.298 84.1881 88.182 85.4841 87.03 86.6361L86.85 86.8161L92.466 92.1081L98.55 98.3721ZM25.146 92.5041L38.466 82.8201C37.494 81.4881 36.594 80.0481 35.838 78.5721L21.15 86.0241C22.302 88.2921 23.634 90.4521 25.146 92.5041ZM107.55 86.0601C108.702 83.8281 109.674 81.4521 110.466 79.0401L94.77 74.0001C94.266 75.5841 93.618 77.1321 92.862 78.6081L107.55 86.0601ZM18.234 79.0401L33.93 73.9641C33.426 72.3801 33.03 70.7601 32.778 69.1041L16.47 71.6601C16.866 74.1441 17.478 76.6281 18.234 79.0401ZM112.23 71.6961C112.626 69.2121 112.842 66.6561 112.842 64.1361H96.354C96.354 65.7921 96.21 67.4841 95.958 69.1401L112.23 71.6961ZM32.382 64.1001C32.382 62.4441 32.526 60.7521 32.778 59.0961L16.47 56.5401C16.074 59.0241 15.894 61.5801 15.858 64.1001H32.382ZM95.958 59.1321L112.266 56.5761C111.87 54.0921 111.294 51.6081 110.502 49.1961L94.806 54.2361C95.31 55.8561 95.706 57.4761 95.958 59.1321ZM33.93 54.2361C34.434 52.6521 35.082 51.1041 35.838 49.6281L21.15 42.1761C19.998 44.4081 19.026 46.7841 18.234 49.1961L33.93 54.2361ZM92.898 49.6641L107.622 42.2121C106.47 39.9441 105.138 37.7841 103.626 35.7321L90.27 45.4161C91.242 46.7481 92.142 48.1881 92.898 49.6641ZM38.466 45.3801C39.438 44.0481 40.554 42.7521 41.742 41.5641L41.778 41.5281L30.114 29.9001L30.078 29.9361C28.278 31.7361 26.622 33.6441 25.146 35.6961L38.466 45.3801ZM87.03 41.6361L90.558 38.0721L98.658 30.0081L98.622 29.9721C96.822 28.2081 94.914 26.5521 92.898 25.0761L83.178 38.3601C84.51 39.3321 85.806 40.4121 86.958 41.6001L87.03 41.6361ZM45.594 38.2881C46.926 37.3161 48.366 36.4521 49.878 35.6961L42.39 21.0441C40.122 22.1961 37.962 23.5281 35.91 25.0041L45.594 38.2881ZM78.93 35.7321L86.454 21.0801C84.186 19.9281 81.846 18.9561 79.434 18.1641L74.322 33.7881C75.87 34.3281 77.418 34.9761 78.93 35.7321ZM54.522 33.7881C56.106 33.2841 57.762 32.8881 59.418 32.6361L56.862 16.4001C54.378 16.7961 51.858 17.3721 49.446 18.1641L54.522 33.7881ZM69.39 32.6361L71.982 16.4001C69.498 16.0041 66.942 15.7881 64.422 15.7881V32.2401C66.078 32.2401 67.77 32.3841 69.39 32.6361Z" fill="white"/>
<path d="M64.35 96.716V80.192C62.946 80.192 61.578 80.012 60.21 79.652L55.89 95.6C58.662 96.32 61.506 96.716 64.35 96.716ZM72.81 95.6C75.582 94.88 78.21 93.8 80.694 92.36L72.342 78.068C71.154 78.752 69.858 79.292 68.526 79.652L72.81 95.6ZM48.042 92.36L56.394 78.068C55.206 77.384 54.09 76.52 53.082 75.548L52.938 75.404L47.682 80.912L41.202 87.14L41.31 87.248C43.326 89.228 45.594 90.956 48.042 92.36ZM87.426 87.248C89.442 85.232 91.206 83 92.61 80.552L78.174 72.272C77.49 73.46 76.626 74.54 75.618 75.548L87.426 87.248ZM36.09 80.516L50.526 72.272C49.842 71.084 49.302 69.824 48.942 68.492L32.85 72.74C33.57 75.44 34.686 78.068 36.09 80.516ZM95.886 72.776C96.606 70.04 97.002 67.232 97.002 64.424H80.334C80.334 65.792 80.154 67.196 79.794 68.528L95.886 72.776ZM48.438 64.388C48.438 63.02 48.618 61.616 48.978 60.284L32.85 56.036C32.13 58.772 31.734 61.58 31.734 64.388H48.438ZM79.758 60.32L95.886 56.072C95.166 53.336 94.05 50.708 92.646 48.26L78.21 56.504C78.858 57.728 79.398 58.988 79.758 60.32ZM50.562 56.504C51.246 55.352 52.074 54.236 53.082 53.264L53.118 53.228L47.142 47.324L41.418 41.456L41.31 41.564C39.294 43.544 37.566 45.812 36.126 48.224L50.562 56.504ZM75.618 53.264L81.522 47.396L87.57 41.708L87.426 41.564C85.41 39.548 83.142 37.856 80.694 36.416L72.342 50.708C73.53 51.392 74.61 52.22 75.618 53.192V53.264ZM56.394 50.708C57.582 50.024 58.878 49.484 60.21 49.124L55.962 33.176C53.19 33.896 50.562 34.976 48.078 36.416L56.394 50.708ZM68.49 49.16L72.81 33.212C70.074 32.492 67.23 32.096 64.386 32.096V48.62C65.754 48.62 67.158 48.8 68.49 49.16Z" fill="white"/>
</svg>
