<svg width="128" height="128" viewBox="0 0 128 128" fill="none" xmlns="http://www.w3.org/2000/svg">
<rect width="128" height="128" fill="#00EC97"/>
<path d="M83.588 34.912L70.052 55C69.116 56.368 70.916 58.024 72.212 56.872L85.532 45.28C85.892 44.992 86.396 45.208 86.396 45.712V81.928C86.396 82.432 85.748 82.648 85.46 82.288L45.14 34.048C43.844 32.464 41.972 31.6 39.884 31.6H38.444C34.7 31.6 31.604 34.696 31.604 38.512V89.488C31.604 93.304 34.7 96.4 38.516 96.4C40.892 96.4 43.124 95.176 44.42 93.088L57.956 73C58.892 71.632 57.092 69.976 55.796 71.128L42.476 82.648C42.116 82.936 41.612 82.72 41.612 82.216V46.072C41.612 45.568 42.26 45.352 42.548 45.712L82.868 93.952C84.164 95.536 86.108 96.4 88.124 96.4H89.564C93.38 96.4 96.476 93.304 96.476 89.488V38.512C96.476 34.696 93.38 31.6 89.564 31.6C87.116 31.6 84.884 32.824 83.588 34.912Z" fill="black"/>
</svg>
