<svg width="128" height="128" viewBox="0 0 128 128" fill="none" xmlns="http://www.w3.org/2000/svg">
<rect width="128" height="128" fill="#F6F6F6"/>
<path d="M64 60C74.6039 60 83.2 51.4038 83.2 40.8C83.2 30.1961 74.6039 21.6 64 21.6C53.3961 21.6 44.8 30.1961 44.8 40.8C44.8 51.4038 53.3961 60 64 60Z" fill="#88BDF3"/>
<path d="M64 106.4C74.6039 106.4 83.2 97.8039 83.2 87.2C83.2 76.5961 74.6039 68 64 68C53.3961 68 44.8 76.5961 44.8 87.2C44.8 97.8039 53.3961 106.4 64 106.4Z" fill="#3075EE"/>
<path d="M87.2 83.2C97.8039 83.2 106.4 74.6039 106.4 64C106.4 53.3961 97.8039 44.8 87.2 44.8C76.5961 44.8 68 53.3961 68 64C68 74.6039 76.5961 83.2 87.2 83.2Z" fill="#5795F1"/>
<path d="M40.8 83.2C51.4038 83.2 60 74.6039 60 64C60 53.3961 51.4038 44.8 40.8 44.8C30.1961 44.8 21.6 53.3961 21.6 64C21.6 74.6039 30.1961 83.2 40.8 83.2Z" fill="#205FEC"/>
<path d="M59.48 59.48C56.0577 58.6479 52.9303 56.8904 50.4399 54.4C47.9495 51.9096 46.1921 48.7822 45.36 45.36C48.7762 46.2048 51.8968 47.9664 54.3852 50.4548C56.8736 52.9432 58.6352 56.0638 59.48 59.48Z" fill="#134BEF"/>
<path d="M45.3199 82.68C46.1521 79.2578 47.9095 76.1303 50.3999 73.6399C52.8903 71.1495 56.0177 69.3921 59.4399 68.56C58.5952 71.9762 56.8335 75.0968 54.3452 77.5852C51.8568 80.0736 48.7361 81.8352 45.3199 82.68Z" fill="#0932E8"/>
<path d="M68.52 68.52C71.9422 69.3522 75.0696 71.1096 77.56 73.6C80.0504 76.0904 81.8078 79.2178 82.64 82.64C79.2238 81.7952 76.1031 80.0336 73.6148 77.5452C71.1264 75.0568 69.3648 71.9362 68.52 68.52Z" fill="#164BEA"/>
<path d="M82.68 45.32C81.8479 48.7422 80.0904 51.8697 77.6001 54.3601C75.1097 56.8505 71.9822 58.6079 68.56 59.44C69.4048 56.0238 71.1664 52.9032 73.6548 50.4148C76.1432 47.9264 79.2638 46.1648 82.68 45.32Z" fill="#3170F1"/>
</svg>
