<svg width="128" height="128" viewBox="0 0 128 128" fill="none" xmlns="http://www.w3.org/2000/svg">
<rect width="128" height="128" fill="#F6F6F6"/>
<path fill-rule="evenodd" clip-rule="evenodd" d="M64.4 26C43.2 26 26 43.2 26 64.4C26 85.6 43.2 102.8 64.4 102.8H87.4C80.6 106.8 72.8 109.2 64.4 109.2C39.6 109.2 19.6 89 19.6 64.4C19.6 39.6 39.6 19.6 64.4 19.6C89.2 19.6 109.2 39.6 109.2 64.4C109.2 66.6 109 68.8 108.8 70.8H102.4C102.8 68.8 103 66.6 103 64.4C102.8 43.2 85.6 26 64.4 26Z" fill="#06070A"/>
<path fill-rule="evenodd" clip-rule="evenodd" d="M101.2 90C99.6001 92.2 97.6001 94.4 95.6001 96.4H85.6001H64.4001C46.8001 96.4 32.4001 82 32.4001 64.4C32.4001 46.8 46.8001 32.4 64.4001 32.4C82.0001 32.4 96.4001 46.8 96.4001 64.4C96.4001 66.6 96.2001 68.8 95.8001 70.8H89.2001C89.8001 68.8 90.0001 66.6 90.0001 64.4C90.0001 50.2 78.6001 38.8 64.4001 38.8C50.2001 38.8 38.8001 50.2 38.8001 64.4C38.8001 78.6 50.2001 90 64.4001 90H83.6001H93.0001H101.2Z" fill="#06070A"/>
<path fill-rule="evenodd" clip-rule="evenodd" d="M104.8 83.6001C105.8 81.6001 106.6 79.4001 107.2 77.2001H100.4H93.6H86.4H78.6H64.2C57.2 77.2001 51.4 71.4001 51.4 64.4001C51.4 57.4001 57.2 51.6001 64.2 51.6001C71.2 51.6001 77 57.4001 77 64.4001C77 66.8001 76.4 69.0001 75.2 70.8001H82.2C83 68.8001 83.2 66.6001 83.2 64.4001C83.2 53.8001 74.6 45.2001 64 45.2001C53.4 45.2001 44.8 53.8001 44.8 64.4001C44.8 75.0001 53.4 83.6001 64 83.6001H81H89.6H97.6H104.8Z" fill="#06070A"/>
</svg>
