<svg width="128" height="128" viewBox="0 0 128 128" fill="none" xmlns="http://www.w3.org/2000/svg">
<rect width="128" height="128" fill="#F2112A"/>
<path d="M64.0002 17.5302C83.8824 17.5304 100 33.6481 100 53.5302C100 73.4124 83.8825 89.531 64.0002 89.5312V110.47C44.1179 110.47 27.9994 94.352 27.9993 74.4697C27.9993 54.5874 44.1178 38.4697 64.0002 38.4697V17.5302ZM63.8391 46.7343C60.0462 54.3445 54.3449 60.0469 46.7346 63.8398V64.1601C54.3449 67.9531 60.0462 73.6551 63.8391 81.2656H64.1604C67.9531 73.6552 73.6547 67.9531 81.2649 64.1601V63.8398C73.6547 60.0469 67.9531 54.3445 64.1604 46.7343H63.8391Z" fill="white"/>
</svg>
