<svg width="128" height="128" viewBox="0 0 128 128" fill="none" xmlns="http://www.w3.org/2000/svg">
<rect width="128" height="128" fill="#EE4E20"/>
<path d="M45.4213 25.2165L67.7593 51.3885L82.7533 42.5685C82.7533 42.5685 64.6633 18.3765 59.8393 20.0865C55.3033 21.8145 45.4213 25.2165 45.4213 25.2165Z" fill="white"/>
<path d="M83.3113 42.5685C83.3113 42.5685 86.7133 36.5925 88.4053 28.6185C88.4053 28.6185 105.379 35.4405 98.8633 52.5225L83.3113 42.5685Z" fill="white"/>
<path d="M98.8633 52.5405L100.285 70.4685L106.783 69.6225C106.783 69.6225 108.475 69.0465 108.205 65.9325C107.917 62.5125 107.359 55.4025 107.359 55.4025C107.359 55.4025 107.647 53.6925 103.687 53.1345C98.8633 52.2525 98.8633 52.5405 98.8633 52.5405Z" fill="white"/>
<path d="M100.267 70.4685L87.2533 80.9985L93.1933 92.6625C93.1933 92.6625 94.6153 97.2165 98.8453 92.0865C102.805 86.9565 104.497 86.1105 104.209 82.9785C103.957 79.8465 103.093 72.4485 100.267 70.4685Z" fill="white"/>
<path d="M86.9833 80.9805L69.1633 73.0065L53.6113 104.597C53.6113 104.597 52.4773 106.865 56.4373 107.153C60.3973 107.729 66.8953 109.151 70.2973 105.731C73.6993 102.617 86.9833 80.9805 86.9833 80.9805Z" fill="white"/>
<path d="M69.1633 72.7365L67.4713 51.6765L29.0053 54.2505C29.0053 54.2505 26.7373 54.5385 27.0253 58.8045C27.3133 64.4925 27.8713 70.7565 27.8713 70.7565C27.8713 70.7565 27.5833 73.3125 32.6773 73.6005C37.7713 73.8705 68.6053 73.8705 69.1633 72.7365Z" fill="white"/>
</svg>
