<svg width="128" height="128" viewBox="0 0 128 128" fill="none" xmlns="http://www.w3.org/2000/svg">
<rect width="128" height="128" fill="#00B3ED"/>
<path d="M80.3948 92.6912C80.4332 92.6585 80.4715 92.6291 80.5077 92.5975C80.6533 92.4733 80.8001 92.3469 80.9457 92.2193C81.0394 92.1391 81.1286 92.0567 81.2212 91.9732C81.3668 91.8411 81.5113 91.7045 81.6558 91.569C81.745 91.4843 81.8342 91.4019 81.9223 91.315C82.0747 91.166 82.2248 91.0136 82.3738 90.8634C82.4517 90.7844 82.5296 90.7087 82.6064 90.6275C82.7961 90.4288 82.9812 90.2256 83.1652 90.0178C83.2014 89.9783 83.2375 89.9399 83.2781 89.9049C83.4956 89.6566 83.7094 89.4018 83.9194 89.1406C83.977 89.0695 84.0323 88.9927 84.091 88.9148C84.2389 88.7252 84.3856 88.5332 84.5301 88.3368C84.6047 88.2363 84.6747 88.1313 84.748 88.0297C84.8688 87.8547 84.9919 87.6797 85.1093 87.4991C85.1838 87.3862 85.2561 87.2733 85.3295 87.1514C85.4423 86.9775 85.5462 86.8003 85.6512 86.6219C85.7235 86.4989 85.7935 86.3758 85.8612 86.2505C85.9613 86.0699 86.0584 85.8866 86.1525 85.7007C86.2179 85.5742 86.2823 85.4478 86.3421 85.318C86.437 85.1249 86.5228 84.9285 86.6086 84.7309C86.665 84.6045 86.7215 84.4791 86.7734 84.3527C86.8626 84.1337 86.9439 83.909 87.0263 83.6832C87.0669 83.5703 87.1098 83.4574 87.1471 83.3536C87.26 83.0149 87.3729 82.6672 87.4609 82.3138C89.0053 76.4861 87.5083 70.4597 84.1869 64.9278L84.5256 64.3317C84.8575 63.7404 85.2786 63.2038 85.7743 62.741C86.0922 62.4464 86.454 62.203 86.8468 62.0196C87.081 61.9111 87.3273 61.8312 87.5806 61.7814C87.825 61.7328 88.0746 61.715 88.3235 61.7283C88.4906 61.7383 88.6567 61.7613 88.8202 61.7972C89.2134 61.8874 89.588 62.0447 89.9277 62.2623C90.018 62.3188 90.1072 62.3798 90.1953 62.4452C90.3467 62.557 90.4911 62.678 90.6277 62.8076C90.9293 63.0938 91.201 63.41 91.4383 63.7514C91.567 63.9328 91.6911 64.127 91.8108 64.334L104.365 86.3724C104.566 86.7171 104.739 87.0777 104.882 87.4506C104.926 87.5635 104.967 87.6764 105.002 87.7972C105.07 88.0173 105.125 88.2417 105.164 88.4689C105.2 88.6805 105.221 88.8944 105.225 89.109C105.231 89.3743 105.207 89.6393 105.154 89.8993C105.12 90.065 105.073 90.2277 105.013 90.3859C104.955 90.5421 104.883 90.6932 104.799 90.8375C104.63 91.128 104.415 91.3892 104.162 91.6108C103.961 91.785 103.741 91.9365 103.507 92.0624C103.426 92.1064 103.343 92.1493 103.255 92.1888C102.449 92.5382 101.577 92.7085 100.699 92.6878L80.3948 92.6912ZM75.4104 92.6912C74.5408 92.7123 73.6772 92.5424 72.8804 92.1933C72.5531 92.0428 72.249 91.8462 71.9772 91.6097C71.4694 91.1627 71.1214 90.5621 70.986 89.8993C70.9507 89.728 70.9277 89.5545 70.9171 89.38C70.9045 89.148 70.9117 88.9153 70.9386 88.6845C71.002 88.1641 71.1396 87.6554 71.3473 87.174C71.4639 86.899 71.5962 86.631 71.7435 86.3713L75.9207 79.164C75.9433 79.2295 75.9681 79.2972 75.9873 79.3638C76.0821 79.6472 76.1691 79.9283 76.2515 80.2072C76.2662 80.2591 76.2797 80.3099 76.2955 80.3607C76.364 80.6046 76.4291 80.8458 76.4908 81.0844L76.5349 81.2582C76.6015 81.5258 76.6613 81.79 76.7166 82.0485L76.7527 82.2257C76.7979 82.4515 76.8408 82.6773 76.8781 82.9031C76.8871 82.9505 76.8961 82.9968 76.904 83.0442C76.9447 83.296 76.9797 83.5432 77.0113 83.7882C77.0203 83.8503 77.0271 83.9124 77.035 83.9745C77.061 84.2003 77.0813 84.4148 77.1027 84.6316C77.1027 84.662 77.1027 84.6925 77.1106 84.723C77.1298 84.959 77.1434 85.1915 77.1535 85.423C77.1535 85.4839 77.1592 85.5449 77.1614 85.6059C77.1693 85.8316 77.1738 86.0574 77.1738 86.2832V86.3352C77.1738 86.5452 77.1738 86.7506 77.1603 86.955C77.1603 87.0137 77.1603 87.0679 77.1524 87.1299C77.1411 87.3399 77.1287 87.5477 77.1106 87.752C77.1106 87.7881 77.1038 87.822 77.1005 87.8581C77.0847 88.0365 77.0655 88.2126 77.044 88.3854C77.0361 88.4384 77.0316 88.4903 77.0237 88.5423C76.9977 88.7353 76.9695 88.9273 76.9379 89.1147C76.93 89.1609 76.921 89.2027 76.9142 89.2467C76.8848 89.4037 76.8544 89.5606 76.8216 89.7164L76.7934 89.8496C76.7539 90.028 76.7121 90.2041 76.6669 90.3768C76.6568 90.4243 76.6444 90.466 76.6319 90.5112C76.5936 90.6602 76.5518 90.807 76.5089 90.9503C76.4999 90.9842 76.4886 91.0181 76.4795 91.052C76.4299 91.2168 76.3757 91.3793 76.3215 91.5385C76.3068 91.5814 76.2921 91.6243 76.2741 91.6672C76.2233 91.8095 76.1713 91.9551 76.1171 92.0929L76.0957 92.1504C76.0359 92.304 75.9738 92.453 75.9105 92.602L75.871 92.6935L75.4104 92.6912ZM45.6759 92.6912H27.3009C27.1124 92.6912 26.9283 92.6912 26.75 92.6731C26.412 92.6516 26.0761 92.6045 25.7452 92.532C25.1747 92.4141 24.6322 92.1872 24.1477 91.8637C24.0402 91.7893 23.937 91.709 23.8384 91.6232C23.5218 91.3497 23.2651 91.0138 23.0842 90.6365C23.0492 90.562 23.0165 90.4863 22.9871 90.4107C22.9273 90.2524 22.8797 90.0897 22.8449 89.9241C22.8107 89.7528 22.7889 89.5792 22.7794 89.4048C22.7794 89.3145 22.7794 89.2242 22.7794 89.1316C22.7828 88.9426 22.7987 88.754 22.8268 88.5671C22.9585 87.7914 23.2313 87.0463 23.6318 86.369L60.2394 21.9054C60.3659 21.6871 60.4965 21.4824 60.6312 21.2913C60.8799 20.9358 61.166 20.608 61.4847 20.3136C61.7611 20.0554 62.0709 19.8356 62.4059 19.6599C62.8524 19.4187 63.352 19.2924 63.8595 19.2924C64.367 19.2924 64.8665 19.4187 65.313 19.6599C65.4752 19.7442 65.6314 19.8396 65.7804 19.9455C66.1092 20.1805 66.4087 20.4542 66.6723 20.7606C66.9771 21.1157 67.2474 21.499 67.4795 21.9054L70.2736 26.944L76.8702 38.5418C76.9164 38.6366 76.9548 38.7303 76.9977 38.8251C77.1483 39.1503 77.2811 39.4799 77.3962 39.8141C77.5091 40.1528 77.622 40.4915 77.7033 40.8302C77.7609 41.056 77.8162 41.2885 77.8569 41.5188C77.9163 41.8259 77.9634 42.1345 77.998 42.4446C78.0973 43.3394 78.0973 44.2424 77.998 45.1371C77.963 45.4465 77.9167 45.7547 77.8569 46.0618C77.7376 46.677 77.5708 47.2821 77.3579 47.8715C77.2495 48.168 77.1298 48.4612 76.9989 48.751C76.956 48.8447 76.9176 48.9395 76.8713 49.0343L74.1753 53.7082C73.8366 53.4316 73.498 53.1584 73.1446 52.8908C63.1939 45.2286 70.0061 34.237 70.0061 34.237C58.8203 36.7907 55.4809 49.6699 61.2905 59.2198C64.3748 64.2866 64.8467 69.0417 63.4434 72.3033L63.0539 72.9807L62.5403 73.8714C61.0929 75.7974 58.7616 76.8666 55.8139 76.6577C47.9891 76.0955 49.1068 64.1059 49.1068 64.1059C49.1068 64.1059 41.6172 76.7627 46.6479 87.2022C47.4335 88.8422 48.4339 90.3703 49.6227 91.7463C49.4443 91.8242 49.2637 91.8964 49.0808 91.9721L48.8844 92.0432C48.7545 92.0906 48.6224 92.1346 48.4904 92.1764L48.2905 92.2385C48.1167 92.2893 47.9428 92.339 47.7667 92.3796L47.7035 92.3965C47.507 92.444 47.3106 92.4846 47.1108 92.523L46.9256 92.5546C46.7766 92.5806 46.6253 92.602 46.474 92.6235L46.2878 92.6472C46.0834 92.6698 45.8791 92.6901 45.6702 92.7036L45.6759 92.6912Z" fill="white"/>
</svg>
