<svg width="128" height="128" viewBox="0 0 128 128" fill="none" xmlns="http://www.w3.org/2000/svg">
<rect width="128" height="128" fill="#111111"/>
<path d="M86.9408 61.1306C86.9012 61.3418 86.2808 61.9754 85.6604 62.4374C83.8388 63.7706 80.5784 65.0114 77.2652 65.6054C75.3776 65.9486 73.49 66.0014 72.9224 65.7242C72.5528 65.5394 72.5 65.3942 72.632 64.919C72.9092 63.929 73.8068 62.8466 75.206 61.8302C75.9188 61.3154 78.8096 59.5598 80.156 58.8206C82.3736 57.6062 84.1688 56.8802 85.3832 56.7086C85.766 56.6558 86.228 56.6426 86.3732 56.7086C86.6108 56.801 86.8748 57.5006 86.9804 58.3454C87.0332 58.7942 87.0068 60.7742 86.9408 61.1306Z" fill="black"/>
<path d="M55.8416 65.4998C55.7624 65.6582 55.3664 65.8298 54.9176 65.8958C54.4688 65.9618 53.096 65.9222 52.3172 65.8298C49.5188 65.4602 46.5488 64.6022 44.384 63.5462C43.1696 62.9522 42.2984 62.3582 41.6516 61.7114L41.282 61.3286L41.2424 60.827C41.1764 59.9558 41.1896 58.583 41.2952 58.0946C41.3612 57.6854 41.5064 57.2894 41.7044 56.933C41.81 56.801 41.81 56.801 42.2852 56.801C42.866 56.801 43.3544 56.8934 44.1464 57.1442C45.77 57.6458 48.1856 58.8602 51.1292 60.629C53.558 62.081 54.4688 62.7938 55.1684 63.7706C55.6436 64.3778 55.9604 65.2358 55.8416 65.4998Z" fill="black"/>
<path d="M74.5328 83.8742C74.5328 83.9138 74.3744 84.5474 74.1764 85.2998C73.9784 86.0522 73.82 86.6594 73.82 86.6858C73.6748 86.699 73.5428 86.7122 73.3976 86.699H72.9752L72.3944 88.0718C72.0776 88.8242 71.7872 89.5238 71.7476 89.6294L71.6684 89.8142L71.3912 89.3654L71.114 88.9166V85.2602L71.0084 85.2866C70.784 85.3394 69.1868 85.5506 68.4872 85.6166C65.5964 85.907 62.6924 85.841 59.8148 85.4318C59.3528 85.3658 58.9568 85.313 58.9436 85.3262C58.9304 85.3394 58.9436 86.1842 58.97 87.227L59.0096 89.1014L58.7852 89.4446C58.6664 89.6294 58.5476 89.7878 58.5476 89.801C58.508 89.8406 58.376 89.6294 58.0724 89.0222C57.7424 88.3886 57.5048 87.7154 57.3332 87.0158L57.2408 86.633L56.8316 86.6594L56.4224 86.699L56.3168 86.2106C56.264 85.9466 56.198 85.5374 56.1716 85.313L56.132 84.8906L55.7888 84.587C55.5908 84.4154 55.3928 84.2438 55.3532 84.2174C55.2872 84.1646 55.2608 84.0722 55.2608 83.993V83.8346L56.9108 83.8478L58.5608 83.861L58.6136 84.0326L58.6664 84.2042L59.234 84.2306C59.5508 84.2438 60.554 84.2702 61.4516 84.2966L63.1016 84.3362L63.524 83.6762L63.9596 83.0162H64.514L64.5008 81.6434L64.4876 80.2706L63.7616 79.9538C61.4252 78.9242 60.0524 77.7494 59.5376 76.3238C59.432 76.0334 59.432 75.9278 59.4056 74.6078C59.3924 73.301 59.3924 73.1822 59.4848 72.8918C59.6696 72.2318 60.1844 71.717 60.8444 71.5454C61.0688 71.4794 61.6628 71.4794 64.778 71.4794L68.4476 71.4926L68.8568 71.6906C69.3452 71.9282 69.5696 72.0998 69.8468 72.4694C70.1636 72.8918 70.256 73.2218 70.256 74.027C70.256 75.1754 70.1768 76.1654 70.058 76.5614C69.8864 77.1026 69.6224 77.6174 69.2924 78.0794C68.6324 78.9242 67.4312 79.769 66.3356 80.1518L66.0188 80.2706L66.032 81.6566L66.0452 83.0426L66.3356 83.069L66.626 83.0954L67.022 83.6894L67.4048 84.2834H69.1736C70.1504 84.2834 71.0084 84.2966 71.0876 84.3098C71.2196 84.3362 71.246 84.323 71.378 84.0986L71.5364 83.861H73.0544C74.1896 83.8082 74.5328 83.8346 74.5328 83.8742Z" fill="black"/>
<path d="M67.5632 87.6626C67.3124 87.8078 67.1408 87.8738 67.1012 87.8474C67.0616 87.8342 66.8768 87.6758 66.6788 87.5306L66.3224 87.2402L65.9528 87.6362C65.1476 88.5074 65.1212 88.547 64.8836 88.5602C64.514 88.5998 64.4348 88.5338 63.986 87.8606C63.7484 87.5174 63.5636 87.227 63.5636 87.227C63.5636 87.227 63.392 87.2006 63.194 87.1874L62.8244 87.1478L62.6528 87.5042L62.4812 87.8606L62.1776 87.7682C61.94 87.689 61.7024 87.5966 61.478 87.491L61.082 87.293V86.5406L64.5932 86.5538L68.1044 86.567L68.1176 86.9234C68.1308 87.3458 68.144 87.3326 67.5632 87.6626Z" fill="black"/>
<path d="M100.563 71.5586C100.55 71.5058 100.55 71.4134 100.537 71.2682C97.3688 70.925 88.3268 70.7138 79.9316 77.6438C79.9316 77.6438 77.2256 65.2358 64.5536 65.2358C51.8816 65.2358 47.1824 77.6438 47.1824 77.6438C40.0808 70.001 30.5768 70.5554 27.1448 71.057C27.1448 71.1362 27.1316 71.2286 27.1316 71.3078C27.026 73.2218 27.0788 74.1326 27.3956 75.3338C28.3856 79.0958 31.4348 83.2406 36.2132 87.3062C44.0408 93.959 54.6536 98.7638 62.6924 99.3182C71.0744 99.8858 83.4428 94.9886 91.6796 87.8342C92.9732 86.6858 94.1876 85.4714 95.3228 84.1778C96.1412 83.2274 97.3556 81.5906 97.2632 81.5906C97.2368 81.5906 97.2632 81.5642 97.316 81.5378C97.3556 81.5114 97.3952 81.4718 97.3688 81.4454C97.3556 81.4322 97.382 81.3926 97.4216 81.3794C97.4612 81.3662 97.4876 81.3398 97.4744 81.3134C97.4612 81.287 97.4744 81.2606 97.5272 81.2474C97.5668 81.2342 97.58 81.1946 97.5668 81.1682C97.5536 81.1418 97.5668 81.1154 97.5932 81.1154C97.6196 81.1154 97.646 81.0758 97.646 81.0494C97.646 81.023 97.6724 80.9834 97.6988 80.9834C97.7252 80.9834 97.7516 80.957 97.7516 80.9306C97.7912 80.825 97.8572 80.7194 97.9232 80.627C98.1212 80.3234 98.9132 78.911 99.0188 78.6734C99.7712 76.9706 100.246 75.4526 100.471 73.9346C100.55 73.2086 100.616 71.8754 100.563 71.5586ZM67.5632 87.6626C67.3124 87.8078 67.1408 87.8738 67.1012 87.8474C67.0616 87.8342 66.8768 87.6758 66.6788 87.5306L66.3224 87.2402L65.9528 87.6362C65.1476 88.5074 65.1212 88.547 64.8836 88.5602C64.514 88.5998 64.4348 88.5338 63.986 87.8606C63.7484 87.5174 63.5636 87.227 63.5636 87.227C63.5636 87.227 63.392 87.2006 63.194 87.1874L62.8244 87.1478L62.6528 87.5042L62.4812 87.8606L62.1776 87.7682C61.94 87.689 61.7024 87.5966 61.478 87.491L61.082 87.293V86.5406L64.5932 86.5538L68.1044 86.567L68.1176 86.9234C68.1308 87.3458 68.144 87.3326 67.5632 87.6626ZM74.1632 85.2866C73.9652 86.039 73.8068 86.6462 73.8068 86.6726C73.6616 86.6858 73.5296 86.699 73.3844 86.6858H72.962L72.3944 88.0718C72.0776 88.8242 71.7872 89.5238 71.7476 89.6294L71.6684 89.8142L71.3912 89.3654L71.114 88.9166V85.2602L71.0084 85.2866C70.784 85.3394 69.1868 85.5506 68.4872 85.6166C65.5964 85.907 62.6924 85.841 59.8148 85.4318C59.3528 85.3658 58.9568 85.313 58.9436 85.3262C58.9304 85.3394 58.9436 86.1842 58.97 87.227L59.0096 89.1014L58.7852 89.4446C58.6664 89.6294 58.5476 89.7878 58.5476 89.801C58.508 89.8406 58.376 89.6294 58.0724 89.0222C57.7424 88.3886 57.5048 87.7154 57.3332 87.0158L57.2408 86.633L56.8316 86.6594L56.4224 86.699L56.3168 86.2106C56.264 85.9466 56.198 85.5374 56.1716 85.313L56.132 84.8906L55.7888 84.587C55.5908 84.4154 55.3928 84.2438 55.3532 84.2174C55.2872 84.1646 55.2608 84.0722 55.2608 83.993V83.8346L56.9108 83.8478L58.5608 83.861L58.6136 84.0326L58.6664 84.2042L59.234 84.2306C59.5508 84.2438 60.554 84.2702 61.4516 84.2966L63.1016 84.3362L63.524 83.6762L63.9596 83.0162H64.514L64.5008 81.6434L64.4876 80.2706L63.7616 79.9538C61.4252 78.9242 60.0524 77.7494 59.5376 76.3238C59.432 76.0334 59.432 75.9278 59.4056 74.6078C59.3924 73.301 59.3924 73.1822 59.4848 72.8918C59.6696 72.2318 60.1844 71.717 60.8444 71.5454C61.0688 71.4794 61.6628 71.4794 64.778 71.4794L68.4476 71.4926L68.8568 71.6906C69.3452 71.9282 69.5696 72.0998 69.8468 72.4694C70.1636 72.8918 70.256 73.2218 70.256 74.027C70.256 75.1754 70.1768 76.1654 70.058 76.5614C69.8864 77.1026 69.6224 77.6174 69.2924 78.0794C68.6324 78.9242 67.4312 79.769 66.3356 80.1518L66.0188 80.2706L66.032 81.6566L66.0452 83.0426L66.3356 83.069L66.626 83.0954L67.022 83.6894L67.4048 84.2834H69.1736C70.1504 84.2834 71.0084 84.2966 71.0876 84.3098C71.2196 84.3362 71.246 84.323 71.378 84.0986L71.5364 83.861H73.0544C74.2292 83.861 74.5724 83.8742 74.5724 83.9138C74.5328 83.9006 74.3612 84.5474 74.1632 85.2866Z" fill="white"/>
<path d="M100.458 70.2122C100.431 69.6182 100.378 68.7866 100.339 68.3774C99.7712 62.3846 98.24 57.4874 95.336 52.2998C95.2172 52.1018 95.1116 51.9038 95.0456 51.7454C95.0192 51.7058 95.006 51.6662 94.9928 51.6398C95.402 50.4122 97.0784 45.2774 98.4116 39.4034C100.22 31.4306 101.368 22.1114 97.8572 19.313C97.8572 19.313 91.7852 18.8642 83.654 26.837C81.4496 29.0414 79.43 31.4306 77.6348 33.9782L77.0672 33.7934C73.7936 32.7242 70.4012 32.0642 66.9824 31.8398C65.9528 31.7606 62.1116 31.7606 60.8576 31.8398C57.0692 32.0906 54.1652 32.6582 50.8652 33.8066C50.7332 33.8594 50.6144 33.899 50.4956 33.9386C48.6344 31.4042 46.562 29.0282 44.2784 26.8502C35.8172 18.8378 29.5208 19.2998 29.5208 19.2998C25.7984 22.1906 27.0656 31.9322 28.9928 40.169C30.26 45.6206 31.8176 50.4122 32.3984 52.1414C32.3588 52.2338 32.306 52.3394 32.2532 52.4318C29.1776 58.6622 27.5144 64.6682 27.1184 71.057C30.5636 70.5554 40.0544 69.9878 47.1692 77.6438C47.1692 77.6438 51.8684 65.2358 64.5404 65.2358C77.2124 65.2358 79.9184 77.6438 79.9184 77.6438C88.3136 70.7138 97.3556 70.9382 100.524 71.2682C100.51 71.0042 100.484 70.6082 100.458 70.2122ZM34.8932 47.165C34.8932 47.165 29.9564 34.823 31.2236 27.7742C31.4348 26.5862 31.8308 25.5434 32.4512 24.7514C32.4512 24.7514 38.048 25.3058 47.0768 35.3378C47.0768 35.3378 45.3608 36.1694 43.064 37.9382C43.064 37.9382 43.0508 37.9514 43.0376 37.9514C40.5428 39.8654 37.3484 42.9014 34.8932 47.165ZM55.8416 65.4998C55.7624 65.6582 55.3664 65.8298 54.9176 65.8958C54.4688 65.9618 53.096 65.9222 52.3172 65.8298C49.5188 65.4602 46.5488 64.6022 44.384 63.5462C43.1696 62.9522 42.2984 62.3582 41.6516 61.7114L41.282 61.3286L41.2424 60.827C41.1764 59.9558 41.1896 58.583 41.2952 58.0946C41.3612 57.6854 41.5064 57.2894 41.7044 56.933C41.81 56.801 41.81 56.801 42.2852 56.801C42.866 56.801 43.3544 56.8934 44.1464 57.1442C45.77 57.6458 48.1856 58.8602 51.1292 60.629C53.558 62.081 54.4688 62.7938 55.1684 63.7706C55.6436 64.3778 55.9604 65.2358 55.8416 65.4998ZM86.9408 61.1306C86.9012 61.3418 86.2808 61.9754 85.6604 62.4374C83.8388 63.7706 80.5784 65.0114 77.2652 65.6054C75.3776 65.9486 73.49 66.0014 72.9224 65.7242C72.5528 65.5394 72.5 65.3942 72.632 64.919C72.9092 63.929 73.8068 62.8466 75.206 61.8302C75.9188 61.3154 78.8096 59.5598 80.156 58.8206C82.3736 57.6062 84.1688 56.8802 85.3832 56.7086C85.766 56.6558 86.228 56.6426 86.3732 56.7086C86.6108 56.801 86.8748 57.5006 86.9804 58.3454C87.0332 58.7942 87.0068 60.7742 86.9408 61.1306ZM84.7496 37.9382L84.7232 37.925C82.5056 36.1562 80.8424 35.3246 80.8424 35.3246C89.5676 25.2926 94.9664 24.7382 94.9664 24.7382C95.5604 25.5434 95.9432 26.573 96.1544 27.761C97.382 34.8098 92.6168 47.165 92.6168 47.165C90.6236 43.6142 87.944 40.4726 84.7496 37.9382Z" fill="#FFA409"/>
<path d="M96.1676 27.761C95.138 27.629 90.2672 27.6026 84.7496 37.9382L84.7232 37.925C82.5056 36.1562 80.8424 35.3246 80.8424 35.3246C89.5676 25.2926 94.9664 24.7382 94.9664 24.7382C95.5736 25.5434 95.9564 26.573 96.1676 27.761Z" fill="#FF9300"/>
<path d="M92.63 47.165C90.6236 43.601 87.9572 40.4726 84.7496 37.9382C90.2672 27.6026 95.1248 27.629 96.1676 27.761C97.3952 34.823 92.63 47.165 92.63 47.165Z" fill="#FF8300"/>
<path d="M96.3656 27.8006C96.2996 27.7874 96.2336 27.7742 96.1676 27.761L96.3656 27.8006Z" fill="#FF8300"/>
<path d="M47.0768 35.3246C47.0768 35.3246 45.3608 36.1562 43.064 37.925C43.064 37.925 43.0508 37.9382 43.0376 37.9382C37.322 27.5894 32.2928 27.629 31.2104 27.761C31.4216 26.573 31.8176 25.5302 32.438 24.7382C32.4512 24.7382 38.048 25.2926 47.0768 35.3246Z" fill="#FF9300"/>
<path d="M43.0508 37.9382C40.5428 39.8654 37.3484 42.8882 34.8932 47.165C34.8932 47.165 29.9564 34.823 31.2236 27.761C32.2928 27.629 37.3352 27.6026 43.0508 37.9382Z" fill="#FF8300"/>
<path d="M31.2236 27.761C31.1576 27.7742 31.0784 27.7874 31.0124 27.8006L31.2236 27.761Z" fill="#FF8300"/>
<path d="M79.2716 54.0158C79.2716 54.0158 75.0476 54.2798 75.5756 50.9798C76.1036 47.6798 79.4036 47.2838 80.3276 47.4158C81.2516 47.5478 84.9476 48.8678 84.2876 51.6398C83.6276 54.4118 82.7036 53.8838 82.1756 54.0158C81.6476 54.1478 79.2716 54.0158 79.2716 54.0158Z" fill="white"/>
<path d="M48.1196 54.0158C48.1196 54.0158 43.8956 54.2798 44.4236 50.9798C44.9516 47.6798 48.2516 47.2838 49.1756 47.4158C50.0996 47.5478 53.7956 48.8678 53.1356 51.6398C52.4756 54.4118 51.5516 53.8838 51.0236 54.0158C50.4956 54.1478 48.1196 54.0158 48.1196 54.0158Z" fill="white"/>
</svg>
