<svg width="128" height="128" viewBox="0 0 128 128" fill="none" xmlns="http://www.w3.org/2000/svg">
<rect width="128" height="128" fill="#111111"/>
<path fill-rule="evenodd" clip-rule="evenodd" d="M39.6091 36.801C40.0591 36.369 40.6531 36.117 41.2651 36.117H98.3971C99.4411 36.117 99.9631 37.377 99.2251 38.115L87.9391 49.401C87.5071 49.833 86.9131 50.085 86.2831 50.085H29.1511C28.1071 50.085 27.5851 48.825 28.3231 48.087L39.6091 36.801ZM39.609 78.939C40.041 78.507 40.635 78.255 41.265 78.255H98.397C99.441 78.255 99.963 79.515 99.225 80.253L87.939 91.539C87.507 91.971 86.913 92.223 86.283 92.223H29.151C28.107 92.223 27.585 90.963 28.323 90.225L39.609 78.939ZM86.283 57.051C86.913 57.051 87.507 57.303 87.939 57.735L99.225 69.021C99.963 69.759 99.441 71.019 98.397 71.019H41.265C40.635 71.019 40.041 70.767 39.609 70.335L28.323 59.049C27.585 58.311 28.107 57.051 29.151 57.051H86.283Z" fill="url(#paint0_linear_257_6779)"/>
<defs>
<linearGradient id="paint0_linear_257_6779" x1="84.2397" y1="24.8332" x2="44.6998" y2="100.568" gradientUnits="userSpaceOnUse">
<stop stop-color="#00FFA3"/>
<stop offset="1" stop-color="#DC1FFF"/>
</linearGradient>
</defs>
</svg>
