<svg width="128" height="128" viewBox="0 0 128 128" fill="none" xmlns="http://www.w3.org/2000/svg">
<rect width="128" height="128" fill="#6FBCF0"/>
<path fill-rule="evenodd" clip-rule="evenodd" d="M39.1857 88.3539C44.3697 97.3449 53.6847 102.731 64.0527 102.731C74.4207 102.731 83.7357 97.3449 88.9197 88.3539C94.1037 79.3629 94.1037 68.6304 88.9197 59.6394L67.0497 21.7314C65.7132 19.4229 62.3922 19.4229 61.0557 21.7314L39.1857 59.6394C33.9612 68.6304 33.9612 79.3629 39.1857 88.3539ZM57.8967 39.7539L62.5542 31.6539C63.2022 30.5199 64.9032 30.5199 65.5512 31.6539L83.4927 62.7579C86.7732 68.4684 87.4212 75.0699 85.3557 81.1449C85.1532 80.1729 84.8292 79.1604 84.4242 78.1479C81.9537 71.8704 76.3242 67.0509 67.7382 63.8109C61.8252 61.5834 58.0587 58.2624 56.5602 54.0099C54.6162 48.5019 56.6817 42.5079 57.8967 39.7539ZM49.9182 53.5239L44.6127 62.7579C40.5627 69.8049 40.5627 78.1884 44.6127 85.2354C48.6627 92.2824 55.9527 96.4539 64.0527 96.4539C69.4392 96.4539 74.4612 94.5909 78.4302 91.3104C78.9567 90.0144 80.5362 85.2759 78.5517 80.3754C76.7292 75.8394 72.3552 72.2349 65.5107 69.6429C57.8157 66.7269 52.7937 62.1504 50.6067 56.0754C50.3232 55.2249 50.1207 54.3744 49.9182 53.5239Z" fill="white"/>
</svg>
