<svg width="128" height="128" viewBox="0 0 128 128" fill="none" xmlns="http://www.w3.org/2000/svg">
<rect width="128" height="128" fill="#0088CC"/>
<path fill-rule="evenodd" clip-rule="evenodd" d="M43.7734 40H85.2214C86.8054 40 88.1254 40.264 89.7094 41.056C91.5574 41.848 92.6134 43.168 93.1414 44.224C93.1414 44.224 93.1414 44.488 93.4054 44.488C94.1974 45.808 94.7254 47.392 94.7254 49.24C94.7254 50.824 94.4614 52.408 93.4054 53.992L67.2694 98.872C66.7414 99.928 65.6854 100.456 64.3654 100.456C63.3094 100.456 62.2534 99.928 61.4614 98.872L35.8534 53.992C35.3254 52.936 34.2694 51.616 34.2694 49.504C34.0054 47.656 34.5334 46.072 35.3254 44.488C36.1174 42.904 37.4374 41.584 39.2854 41.056C40.8694 40 42.7174 40 43.7734 40ZM61.1974 46.336H43.7734C42.7174 46.336 42.1894 46.336 41.9254 46.6C41.3974 46.864 41.1334 47.128 40.8694 47.656C40.6054 47.92 40.6054 48.448 40.6054 48.976C40.6054 49.24 40.8694 49.504 41.3974 50.56L61.1974 84.88V46.336ZM67.5334 46.336V85.144L87.5974 50.56C87.8614 50.032 87.8614 49.504 87.8614 48.976C87.8614 48.448 87.8614 47.92 87.5974 47.656C87.3334 47.392 87.3334 47.128 87.0694 47.128L86.8054 46.864C86.2774 46.6 85.7494 46.6 84.9574 46.6H67.5334V46.336Z" fill="white"/>
</svg>
