<svg width="128" height="128" viewBox="0 0 128 128" fill="none" xmlns="http://www.w3.org/2000/svg">
<rect width="128" height="128" fill="#F31F23"/>
<path d="M97.959 53.0089C94.659 49.9619 90.094 45.3089 86.376 42.0089L86.156 41.8549C85.7899 41.5609 85.3772 41.3304 84.935 41.1729C75.97 39.5009 34.247 31.7019 33.433 31.8009C33.2049 31.8328 32.9869 31.9155 32.795 32.0429L32.586 32.2079C32.3286 32.4693 32.1332 32.785 32.014 33.1319L31.959 33.2749V34.0559V34.1769C36.656 47.2559 55.202 90.1009 58.854 100.155C59.074 100.837 59.492 102.135 60.273 102.201H60.449C60.867 102.201 62.649 99.8469 62.649 99.8469C62.649 99.8469 94.505 61.2149 97.728 57.1009C98.1452 56.5941 98.5135 56.049 98.828 55.4729C98.9083 55.0221 98.8704 54.5582 98.7181 54.1264C98.5658 53.6946 98.3043 53.3096 97.959 53.0089ZM70.822 57.5079L84.418 46.2329L92.393 53.5809L70.822 57.5079ZM65.542 56.7709L42.134 37.5869L80.007 44.5719L65.542 56.7709ZM67.654 61.7979L91.612 57.9369L64.222 90.9369L67.654 61.7979ZM38.955 39.5009L63.584 60.4009L60.02 90.9589L38.955 39.5009Z" fill="white"/>
</svg>
