<svg width="128" height="128" viewBox="0 0 128 128" fill="none" xmlns="http://www.w3.org/2000/svg">
<rect width="128" height="128" fill="#FA1281"/>
<path d="M49.5763 25.2847C48.4675 25.1263 48.4147 25.0735 48.9427 25.0207C49.9459 24.8623 52.2691 25.0735 53.9059 25.4431C57.7075 26.3407 61.1395 28.6639 64.7827 32.7295L65.7331 33.8383L67.1059 33.6271C72.9667 32.6767 78.9859 33.4159 84.0019 35.7391C85.3747 36.3727 87.5395 37.6399 87.8035 37.9567C87.9091 38.0623 88.0675 38.7487 88.1731 39.4351C88.5427 41.9167 88.3843 43.7647 87.5923 45.1903C87.1699 45.9823 87.1699 46.1935 87.4339 46.8799C87.6451 47.4079 88.2787 47.7775 88.8595 47.7775C90.1267 47.7775 91.4467 45.7711 92.0803 42.9727L92.3443 41.8639L92.8195 42.3919C95.5123 45.4015 97.6243 49.5727 97.9411 52.5295L98.0467 53.3215L97.5715 52.6351C96.7795 51.4207 96.0403 50.6287 95.0371 49.9423C93.2419 48.7279 91.3411 48.3583 86.3251 48.0943C81.7843 47.8303 79.1971 47.4607 76.6627 46.6159C72.3331 45.1903 70.1155 43.3423 64.9939 36.5311C62.7235 33.5215 61.2979 31.8847 59.8723 30.5119C56.7571 27.5023 53.6419 25.9183 49.5763 25.2847Z" fill="white"/>
<path d="M88.9123 31.9903C89.0179 29.9839 89.2819 28.6639 89.8627 27.4495C90.0739 26.9743 90.2851 26.5519 90.3379 26.5519C90.3907 26.5519 90.2851 26.9215 90.1267 27.3439C89.7043 28.5055 89.6515 30.1423 89.9155 31.9903C90.2851 34.3663 90.4435 34.6831 92.9779 37.2703C94.1395 38.4847 95.5123 40.0159 96.0403 40.6495L96.9379 41.8111L96.0403 40.9663C94.9315 39.9103 92.3971 37.9039 91.8163 37.6399C91.4467 37.4287 91.3939 37.4287 91.1299 37.6927C90.9187 37.9039 90.8659 38.2207 90.8659 39.7519C90.8131 42.1279 90.4963 43.6063 89.7043 45.1375C89.2819 45.9295 89.2291 45.7711 89.5987 44.8735C89.8627 44.1871 89.9155 43.8703 89.9155 41.5999C89.9155 37.0063 89.3875 35.8975 86.1667 34.0495C85.3747 33.5743 84.0019 32.8879 83.2099 32.5183C82.3651 32.1487 81.7315 31.8319 81.7843 31.8319C81.8899 31.7263 85.0051 32.6239 86.2195 33.1519C88.0675 33.8911 88.3843 33.9439 88.5955 33.8911C88.7539 33.7327 88.8595 33.3103 88.9123 31.9903Z" fill="white"/>
<path d="M51.7411 39.8575C49.5235 36.7951 48.0979 32.0431 48.4147 28.5055L48.5203 27.3967L49.0483 27.5023C49.9987 27.6607 51.6355 28.2943 52.4275 28.7695C54.5395 30.0367 55.4899 31.7791 56.3875 36.1087C56.6515 37.3759 57.0211 38.8543 57.1795 39.3295C57.4435 40.1215 58.4467 41.9695 59.2915 43.1311C59.8723 43.9759 59.5027 44.3983 58.1827 44.2927C56.1763 44.0815 53.4835 42.2335 51.7411 39.8575Z" fill="white"/>
<path d="M86.2194 62.8255C75.765 58.6015 72.069 54.9583 72.069 48.7807C72.069 47.8831 72.1218 47.1439 72.1218 47.1439C72.1746 47.1439 72.5442 47.4607 73.0194 47.8303C75.1314 49.5199 77.5074 50.2591 84.1074 51.2095C87.9618 51.7903 90.1794 52.2127 92.1858 52.8991C98.5746 55.0111 102.535 59.3407 103.485 65.2015C103.749 66.8911 103.591 70.1119 103.168 71.8015C102.799 73.1215 101.743 75.5503 101.479 75.6031C101.426 75.6031 101.32 75.3391 101.32 74.9167C101.215 72.6991 100.106 70.5871 98.2578 68.9503C96.0402 67.0495 93.189 65.6239 86.2194 62.8255Z" fill="white"/>
<path d="M78.8274 64.5679C78.7218 63.7759 78.4578 62.7727 78.2994 62.3503L78.0354 61.5583L78.5106 62.1391C79.197 62.9311 79.725 63.8815 80.2002 65.2015C80.5698 66.2047 80.5698 66.5215 80.5698 68.1583C80.5698 69.7423 80.517 70.1119 80.2002 71.0095C79.6722 72.4351 79.0386 73.4383 77.9826 74.5471C76.0818 76.5007 73.6002 77.5567 70.0626 78.0319C69.429 78.0847 67.6338 78.2432 66.0498 78.3488C62.0898 78.56 59.4498 78.9823 57.0738 79.8271C56.757 79.9327 56.4402 80.0383 56.3874 79.9855C56.2818 79.8799 57.9186 78.9295 59.2386 78.2959C61.0866 77.3983 62.9874 76.9231 67.1586 76.1839C69.2178 75.8671 71.3298 75.4447 71.8578 75.2335C77.085 73.5967 79.6722 69.5311 78.8274 64.5679Z" fill="white"/>
<path d="M83.6322 73.0687C82.2594 70.0591 81.9426 67.2079 82.6818 64.5151C82.7874 64.2511 82.893 63.9871 82.9986 63.9871C83.1042 63.9871 83.421 64.1455 83.7378 64.3567C84.3714 64.7791 85.6914 65.5183 89.0706 67.3663C93.3474 69.6895 95.7762 71.4847 97.4658 73.5439C98.9442 75.3391 99.8418 77.3983 100.264 79.9327C100.528 81.3583 100.37 84.7903 100 86.2159C98.8386 90.7039 96.1986 94.2943 92.3442 96.3535C91.7634 96.6703 91.2882 96.8815 91.2354 96.8815C91.1826 96.8815 91.3938 96.3535 91.7106 95.7199C92.9778 93.0271 93.1362 90.4399 92.1858 87.5359C91.605 85.7407 90.3906 83.5759 87.9618 79.9327C85.0578 75.7087 84.3714 74.5999 83.6322 73.0687Z" fill="white"/>
<path d="M44.2962 89.2255C48.2034 85.9519 53.0082 83.6287 57.4434 82.8895C59.3442 82.5727 62.5122 82.6783 64.2546 83.1535C67.053 83.8927 69.5874 85.4767 70.9074 87.4303C72.1746 89.3311 72.7554 90.9679 73.3362 94.6111C73.5474 96.0367 73.8114 97.5151 73.8642 97.8319C74.2866 99.7327 75.1314 101.211 76.1874 102.003C77.8242 103.218 80.6754 103.27 83.4738 102.214C83.949 102.056 84.3714 101.898 84.3714 101.95C84.477 102.056 83.0514 103.006 82.101 103.482C80.781 104.168 79.725 104.379 78.2994 104.379C75.765 104.379 73.6002 103.059 71.8578 100.419C71.4882 99.8911 70.749 98.3599 70.1154 96.9343C68.2674 92.6575 67.317 91.3903 65.1522 89.9647C63.2514 88.7503 60.8226 88.4863 58.9746 89.3839C56.5458 90.5455 55.9122 93.6607 57.6018 95.5615C58.2882 96.3535 59.5554 96.9871 60.6114 97.1455C62.565 97.4095 64.2546 95.8783 64.2546 93.9247C64.2546 92.6575 63.7794 91.9183 62.5122 91.3375C60.8226 90.5983 58.9746 91.4431 59.0274 93.0799C59.0274 93.7663 59.3442 94.1887 60.0306 94.5055C60.453 94.7167 60.453 94.7167 60.1362 94.6639C58.605 94.3471 58.2354 92.4463 59.4498 91.2319C60.9282 89.7535 64.0434 90.3871 65.0994 92.4463C65.5218 93.2911 65.5746 94.9807 65.205 96.0367C64.3074 98.3599 61.773 99.5743 59.1858 98.8879C57.4434 98.4127 56.7042 97.9375 54.5922 95.7727C50.8962 91.9711 49.4706 91.2319 44.1906 90.4399L43.1874 90.2815L44.2962 89.2255Z" fill="white"/>
<path fill-rule="evenodd" clip-rule="evenodd" d="M16.5234 4.2704C28.8258 19.2128 47.781 42.4448 48.7314 43.712C49.5234 44.768 49.2066 45.7712 47.8866 46.5104C47.1474 46.9328 45.6162 47.3552 44.877 47.3552C44.0322 47.3552 43.029 46.9328 42.3426 46.2464C41.8674 45.7712 39.8082 42.7616 35.1618 35.528C31.6242 29.984 28.6146 25.3904 28.5618 25.3376C28.3506 25.232 28.3506 25.232 34.7922 36.7424C38.8578 43.976 40.1778 46.5632 40.1778 46.88C40.1778 47.5664 39.9666 47.936 39.1218 48.8864C37.6962 50.4704 37.0626 52.2656 36.5874 56.0144C36.0594 60.1856 34.6338 63.1424 30.5682 68.1584C28.1922 71.1152 27.8226 71.6432 27.2418 72.8576C26.5026 74.336 26.2914 75.1808 26.1858 77.0816C26.0802 79.088 26.2914 80.3552 26.8722 82.256C27.4002 83.9456 27.981 85.0544 29.4066 87.2192C30.621 89.12 31.3602 90.5456 31.3602 91.0736C31.3602 91.496 31.4658 91.496 33.3666 91.0736C37.9074 90.0176 41.6562 88.2224 43.7154 86.0048C44.9826 84.632 45.2994 83.8928 45.2994 81.992C45.2994 80.7776 45.2466 80.5136 44.9298 79.7744C44.4018 78.6128 43.3986 77.6624 41.2338 76.184C38.3826 74.2304 37.1682 72.6464 36.8514 70.5344C36.5874 68.7392 36.9042 67.5248 38.4882 64.1984C40.125 60.7664 40.5474 59.3408 40.8114 55.856C40.9698 53.6384 41.2338 52.7408 41.8674 52.0544C42.5538 51.3152 43.1346 51.0512 44.7714 50.84C47.4642 50.4704 49.2066 49.784 50.5794 48.464C51.7938 47.3552 52.3218 46.2464 52.3746 44.6096L52.4274 43.3952L51.741 42.656C49.2594 39.8048 14.8866 2 14.7282 2C14.6754 2 15.5202 3.0032 16.5234 4.2704ZM32.733 79.352C33.3138 78.3488 32.997 77.0816 32.0466 76.448C31.149 75.8672 29.7762 76.1312 29.7762 76.9232C29.7762 77.1344 29.8818 77.3456 30.1986 77.4512C30.6738 77.7152 30.7266 77.9792 30.357 78.56C29.9874 79.1408 29.9874 79.6688 30.4626 80.0384C31.2018 80.6192 32.205 80.3024 32.733 79.352Z" fill="white"/>
<path fill-rule="evenodd" clip-rule="evenodd" d="M54.117 51.5791C52.8498 51.9487 51.6354 53.3215 51.2658 54.6943C51.0546 55.5391 51.1602 57.0703 51.5298 57.5455C52.1106 58.2847 52.6386 58.4959 54.117 58.4959C57.021 58.4959 59.5026 57.2287 59.7666 55.6975C60.0306 54.4303 58.9218 52.6879 57.3906 51.8959C56.5986 51.4735 54.9618 51.3151 54.117 51.5791ZM57.4962 54.2191C57.9186 53.5855 57.7602 52.8991 56.9682 52.4239C55.5426 51.5263 53.3778 52.2655 53.3778 53.6383C53.3778 54.3247 54.4866 55.0639 55.5426 55.0639C56.229 55.0639 57.1794 54.6415 57.4962 54.2191Z" fill="white"/>
</svg>
