<svg width="128" height="128" viewBox="0 0 128 128" fill="none" xmlns="http://www.w3.org/2000/svg">
<rect width="128" height="128" fill="#1D7EE8"/>
<path fill-rule="evenodd" clip-rule="evenodd" d="M32.6227 52.5496C26.0974 69.875 35.0976 89.45 52.6476 95.7496C53.3226 96.2 53.9976 97.0996 53.9976 97.7746V100.925C53.9976 101.375 53.9976 101.6 53.7724 101.825C53.5477 102.725 52.6476 103.175 51.7474 102.725C39.1476 98.6748 29.4724 88.9996 25.4224 76.3998C18.6724 55.025 30.3726 32.2996 51.7474 25.5496C51.9726 25.325 52.4224 25.325 52.6476 25.325C53.5477 25.5496 53.9976 26.2246 53.9976 27.1248V30.2746C53.9976 31.4 53.5477 32.075 52.6476 32.5248C43.4227 35.8998 35.9977 43.0996 32.6227 52.5496ZM74.4727 26.4498C74.6974 25.5496 75.5976 25.0998 76.4977 25.5496C88.8724 29.5996 98.7727 39.2748 102.823 52.0998C109.573 73.4746 97.8726 96.2 76.4977 102.95C76.2726 103.175 75.8227 103.175 75.5976 103.175C74.6974 102.95 74.2476 102.275 74.2476 101.375V98.225C74.2476 97.0996 74.6974 96.4246 75.5976 95.9748C84.8224 92.5998 92.2474 85.4 95.6224 75.95C102.148 58.6246 93.1476 39.0496 75.5976 32.75C74.9226 32.2996 74.2476 31.4 74.2476 30.4998V27.35C74.2476 26.8996 74.2476 26.675 74.4727 26.4498ZM64.7974 60.425C74.2474 61.5498 78.9724 64.2498 78.9724 72.1246C78.9724 78.1996 74.4726 82.9246 67.7226 84.05V89.45C67.4974 90.5748 66.8224 91.2498 65.9222 91.2498H62.5472C61.4224 91.0246 60.7474 90.3496 60.7474 89.45V84.05C53.3224 82.9246 49.7222 78.8746 48.8226 73.25V73.0248C48.8226 72.1246 49.4976 71.4496 50.3972 71.4496H54.2226C54.8976 71.4496 55.5726 71.9 55.7972 72.7996C56.4722 76.1746 58.4972 78.65 64.3476 78.65C68.6222 78.65 71.7726 76.1752 71.7726 72.575C71.7726 68.9748 69.7476 67.6248 63.4474 66.5C53.9974 65.3746 49.4976 62.45 49.4976 55.025C49.4976 49.3998 53.7722 44.9 60.5222 43.9998V38.825C60.7474 37.6996 61.4224 37.0246 62.3226 37.0246H65.6976C66.8224 37.2498 67.4974 37.9248 67.4974 38.825V44.225C72.6722 44.6748 76.7222 48.4996 77.6224 53.4498V53.675C77.6224 54.5746 76.9474 55.2496 76.0472 55.2496H72.4476C71.7726 55.2496 71.0976 54.7998 70.8724 54.1248C69.7476 50.7498 67.4974 49.3998 63.4474 49.3998C58.9476 49.3998 56.6974 51.4243 56.6974 54.5746C56.6974 57.725 58.0474 59.5248 64.7974 60.425Z" fill="white"/>
</svg>
