<svg width="128" height="128" viewBox="0 0 128 128" fill="none" xmlns="http://www.w3.org/2000/svg">
<rect width="128" height="128" fill="#2ECBA0"/>
<path fill-rule="evenodd" clip-rule="evenodd" d="M69.124 69.371C68.764 69.398 66.904 69.509 62.755 69.509C59.455 69.509 57.112 69.41 56.29 69.371C43.537 68.81 34.018 66.59 34.018 63.932C34.018 61.274 43.537 59.057 56.29 58.487V67.16C57.124 67.22 59.512 67.361 62.812 67.361C66.772 67.361 68.755 67.196 69.112 67.163V58.493C81.838 59.06 91.336 61.28 91.336 63.932C91.336 66.584 81.841 68.804 69.112 69.368L69.124 69.371ZM69.124 57.596V49.835H86.884V38H38.53V49.835H56.287V57.593C41.854 58.256 31 61.115 31 64.541C31 67.967 41.854 70.823 56.287 71.489V96.359H69.121V71.48C83.521 70.817 94.357 67.961 94.357 64.538C94.357 61.115 83.53 58.259 69.121 57.593L69.124 57.596Z" fill="white"/>
</svg>
