<svg width="128" height="128" viewBox="0 0 128 128" fill="none" xmlns="http://www.w3.org/2000/svg">
<rect width="128" height="128" fill="#F6F6F6"/>
<path d="M92.0806 39.6343L82.6888 44.4193L37.3369 67.5193C37.1835 66.3497 37.1064 65.1713 37.1059 63.9916C37.1121 59.2848 38.3478 54.6613 40.6907 50.579C43.0336 46.4967 46.4024 43.0973 50.4633 40.7176C54.5242 38.3379 59.1364 37.0604 63.843 37.0116C68.5495 36.9628 73.1872 38.1445 77.2966 40.4395L82.6723 37.7005L83.4742 37.2913C78.5497 33.7171 72.7328 31.574 66.6665 31.0989C60.6002 30.6238 54.5207 31.8352 49.0998 34.5992C43.6789 37.3633 39.1278 41.5723 35.9495 46.7612C32.7711 51.95 31.0893 57.9166 31.09 64.0015C31.09 64.8419 31.1219 65.679 31.1857 66.5128C31.275 67.6936 31.0132 68.8744 30.433 69.9067C29.8529 70.939 28.9804 71.7766 27.9253 72.3142L25.0906 73.7596V80.5015L33.4363 76.2478L36.139 74.8684L38.8021 73.5121L86.6125 49.1515L91.9849 46.4158L103.089 40.7563V34.0177L92.0806 39.6343Z" fill="black"/>
<path d="M103.089 47.5015L41.518 78.8515L36.1456 81.5938L25.0906 87.2269V93.9622L36.0697 88.3687L45.4615 83.5837L90.8596 60.4507C91.0131 61.628 91.0902 62.8141 91.0906 64.0015C91.0877 68.7137 89.8523 73.3433 87.5071 77.4305C85.1619 81.5178 81.7885 84.9205 77.7217 87.301C73.6549 89.6815 69.0362 90.9569 64.3242 91.0007C59.6121 91.0444 54.9706 89.8549 50.8603 87.5503L50.5303 87.7252L44.7025 90.6952C49.6259 94.2695 55.4415 96.4133 61.5069 96.8895C67.5723 97.3657 73.6512 96.1559 79.0721 93.3938C84.493 90.6316 89.0448 86.4246 92.2245 81.2376C95.4042 76.0506 97.088 70.0855 97.09 64.0015C97.09 63.1534 97.057 62.3053 96.9943 61.4671C96.9051 60.2867 97.1667 59.1063 97.7462 58.0742C98.3256 57.042 99.1972 56.2041 100.251 55.6657L103.089 54.2203V47.5015Z" fill="black"/>
</svg>
