<svg width="128" height="128" viewBox="0 0 128 128" fill="none" xmlns="http://www.w3.org/2000/svg">
<rect width="128" height="128" fill="#23292F"/>
<path fill-rule="evenodd" clip-rule="evenodd" d="M98.8247 35.18H88.8347L73.0275 50.817C70.7262 53.0852 67.6248 54.3567 64.3936 54.3567C61.1624 54.3567 58.061 53.0852 55.7597 50.817L39.9647 35.18H29.9666L50.7647 55.7648C58.299 63.2154 70.5057 63.2154 78.0347 55.7648L98.8247 35.18ZM29.84 92.42H39.8368L55.7722 76.6561C58.0735 74.3879 61.1749 73.1164 64.4061 73.1164C67.6373 73.1164 70.7387 74.3879 73.04 76.6561L88.97 92.42H98.96L78.035 71.7083C70.5007 64.2577 58.294 64.2577 50.765 71.7083L29.84 92.42Z" fill="white"/>
</svg>
