<svg width="24" height="24" viewBox="0 0 24 24" fill="none" xmlns="http://www.w3.org/2000/svg">
<mask id="mask0_2085_1271" style="mask-type:alpha" maskUnits="userSpaceOnUse" x="0" y="0" width="24" height="24">
<rect width="24" height="24" fill="#D9D9D9"/>
</mask>
<g mask="url(#mask0_2085_1271)">
<path d="M8 18C7.71667 18 7.47917 18.0958 7.2875 18.2875C7.09583 18.4792 7 18.7167 7 19C7 19.2833 7.09583 19.5208 7.2875 19.7125C7.47917 19.9042 7.71667 20 8 20H16C16.2833 20 16.5208 19.9042 16.7125 19.7125C16.9042 19.5208 17 19.2833 17 19C17 18.7167 16.9042 18.4792 16.7125 18.2875C16.5208 18.0958 16.2833 18 16 18H8ZM12 4C11.7167 4 11.4792 4.09583 11.2875 4.2875C11.0958 4.47917 11 4.71667 11 5V12.175L9.1 10.3C8.91667 10.1167 8.6875 10.0208 8.4125 10.0125C8.1375 10.0042 7.9 10.1 7.7 10.3C7.51667 10.4833 7.425 10.7167 7.425 11C7.425 11.2833 7.51667 11.5167 7.7 11.7L11.3 15.3C11.4 15.4 11.5083 15.4708 11.625 15.5125C11.7417 15.5542 11.8667 15.575 12 15.575C12.1333 15.575 12.2583 15.5542 12.375 15.5125C12.4917 15.4708 12.6 15.4 12.7 15.3L16.3 11.7C16.4833 11.5167 16.5792 11.2875 16.5875 11.0125C16.5958 10.7375 16.5 10.5 16.3 10.3C16.1167 10.1167 15.8833 10.025 15.6 10.025C15.3167 10.025 15.0833 10.1167 14.9 10.3L13 12.175V5C13 4.71667 12.9042 4.47917 12.7125 4.2875C12.5208 4.09583 12.2833 4 12 4Z" fill="currentColor"/>
</g>
</svg>
