<svg width="24" height="24" viewBox="0 0 24 24" fill="none" xmlns="http://www.w3.org/2000/svg">
<mask id="mask0_2084_1177" style="mask-type:alpha" maskUnits="userSpaceOnUse" x="0" y="0" width="24" height="24">
<rect width="24" height="24" fill="#D9D9D9"/>
</mask>
<g mask="url(#mask0_2084_1177)">
<path d="M9.175 16H3C2.71667 16 2.47917 15.9042 2.2875 15.7125C2.09583 15.5208 2 15.2833 2 15C2 14.7167 2.09583 14.4792 2.2875 14.2875C2.47917 14.0958 2.71667 14 3 14H9.175L7.3 12.125C7.11667 11.9417 7.025 11.7125 7.025 11.4375C7.025 11.1625 7.11667 10.925 7.3 10.725C7.5 10.525 7.7375 10.425 8.0125 10.425C8.2875 10.425 8.525 10.525 8.725 10.725L12.3 14.3C12.4 14.4 12.4708 14.5083 12.5125 14.625C12.5542 14.7417 12.575 14.8667 12.575 15C12.575 15.1333 12.5542 15.2583 12.5125 15.375C12.4708 15.4917 12.4 15.6 12.3 15.7L8.7 19.3C8.5 19.5 8.26667 19.5958 8 19.5875C7.73333 19.5792 7.5 19.475 7.3 19.275C7.11667 19.075 7.02083 18.8417 7.0125 18.575C7.00417 18.3083 7.1 18.075 7.3 17.875L9.175 16ZM14.825 10L16.7 11.875C16.8833 12.0583 16.975 12.2875 16.975 12.5625C16.975 12.8375 16.8833 13.075 16.7 13.275C16.5 13.475 16.2625 13.575 15.9875 13.575C15.7125 13.575 15.475 13.475 15.275 13.275L11.7 9.7C11.6 9.6 11.5292 9.49167 11.4875 9.375C11.4458 9.25833 11.425 9.13333 11.425 9C11.425 8.86667 11.4458 8.74167 11.4875 8.625C11.5292 8.50833 11.6 8.4 11.7 8.3L15.3 4.7C15.5 4.5 15.7333 4.40417 16 4.4125C16.2667 4.42083 16.5 4.525 16.7 4.725C16.8833 4.925 16.9792 5.15833 16.9875 5.425C16.9958 5.69167 16.9 5.925 16.7 6.125L14.825 8H21C21.2833 8 21.5208 8.09583 21.7125 8.2875C21.9042 8.47917 22 8.71667 22 9C22 9.28333 21.9042 9.52083 21.7125 9.7125C21.5208 9.90417 21.2833 10 21 10H14.825Z" fill="currentColor"/>
</g>
</svg>
