<svg width="24" height="24" viewBox="0 0 24 24" fill="none" xmlns="http://www.w3.org/2000/svg">
<mask id="mask0_2084_1176" style="mask-type:alpha" maskUnits="userSpaceOnUse" x="0" y="0" width="24" height="24">
<rect width="24" height="24" fill="#D9D9D9"/>
</mask>
<g mask="url(#mask0_2084_1176)">
<path d="M5 21C4.45 21 3.97917 20.8042 3.5875 20.4125C3.19583 20.0208 3 19.55 3 19V16C3 15.7167 3.09583 15.4792 3.2875 15.2875C3.47917 15.0958 3.71667 15 4 15C4.28333 15 4.52083 15.0958 4.7125 15.2875C4.90417 15.4792 5 15.7167 5 16V19H8C8.28333 19 8.52083 19.0958 8.7125 19.2875C8.90417 19.4792 9 19.7167 9 20C9 20.2833 8.90417 20.5208 8.7125 20.7125C8.52083 20.9042 8.28333 21 8 21H5ZM19 21H16C15.7167 21 15.4792 20.9042 15.2875 20.7125C15.0958 20.5208 15 20.2833 15 20C15 19.7167 15.0958 19.4792 15.2875 19.2875C15.4792 19.0958 15.7167 19 16 19H19V16C19 15.7167 19.0958 15.4792 19.2875 15.2875C19.4792 15.0958 19.7167 15 20 15C20.2833 15 20.5208 15.0958 20.7125 15.2875C20.9042 15.4792 21 15.7167 21 16V19C21 19.55 20.8042 20.0208 20.4125 20.4125C20.0208 20.8042 19.55 21 19 21ZM3 5C3 4.45 3.19583 3.97917 3.5875 3.5875C3.97917 3.19583 4.45 3 5 3H8C8.28333 3 8.52083 3.09583 8.7125 3.2875C8.90417 3.47917 9 3.71667 9 4C9 4.28333 8.90417 4.52083 8.7125 4.7125C8.52083 4.90417 8.28333 5 8 5H5V8C5 8.28333 4.90417 8.52083 4.7125 8.7125C4.52083 8.90417 4.28333 9 4 9C3.71667 9 3.47917 8.90417 3.2875 8.7125C3.09583 8.52083 3 8.28333 3 8V5ZM21 5V8C21 8.28333 20.9042 8.52083 20.7125 8.7125C20.5208 8.90417 20.2833 9 20 9C19.7167 9 19.4792 8.90417 19.2875 8.7125C19.0958 8.52083 19 8.28333 19 8V5H16C15.7167 5 15.4792 4.90417 15.2875 4.7125C15.0958 4.52083 15 4.28333 15 4C15 3.71667 15.0958 3.47917 15.2875 3.2875C15.4792 3.09583 15.7167 3 16 3H19C19.55 3 20.0208 3.19583 20.4125 3.5875C20.8042 3.97917 21 4.45 21 5ZM12 18C12.35 18 12.6458 17.8792 12.8875 17.6375C13.1292 17.3958 13.25 17.1 13.25 16.75C13.25 16.4 13.1292 16.1042 12.8875 15.8625C12.6458 15.6208 12.35 15.5 12 15.5C11.65 15.5 11.3542 15.6208 11.1125 15.8625C10.8708 16.1042 10.75 16.4 10.75 16.75C10.75 17.1 10.8708 17.3958 11.1125 17.6375C11.3542 17.8792 11.65 18 12 18ZM12 7.7C12.4333 7.7 12.8125 7.83333 13.1375 8.1C13.4625 8.36667 13.625 8.70833 13.625 9.125C13.625 9.50833 13.5042 9.85 13.2625 10.15C13.0208 10.45 12.7583 10.725 12.475 10.975C12.0417 11.3583 11.7125 11.7208 11.4875 12.0625C11.2625 12.4042 11.1333 12.8167 11.1 13.3C11.0833 13.5333 11.1667 13.7375 11.35 13.9125C11.5333 14.0875 11.75 14.175 12 14.175C12.2333 14.175 12.4458 14.0917 12.6375 13.925C12.8292 13.7583 12.9417 13.55 12.975 13.3C13.0083 13.0167 13.1083 12.7667 13.275 12.55C13.4417 12.3333 13.6833 12.0667 14 11.75C14.5833 11.1667 14.9708 10.6958 15.1625 10.3375C15.3542 9.97917 15.45 9.55 15.45 9.05C15.45 8.15 15.125 7.41667 14.475 6.85C13.825 6.28333 13 6 12 6C11.3167 6 10.7042 6.15417 10.1625 6.4625C9.62083 6.77083 9.20833 7.20833 8.925 7.775C8.825 7.975 8.82083 8.17917 8.9125 8.3875C9.00417 8.59583 9.15833 8.74167 9.375 8.825C9.59167 8.90833 9.8125 8.90833 10.0375 8.825C10.2625 8.74167 10.4417 8.60833 10.575 8.425C10.7583 8.19167 10.9708 8.0125 11.2125 7.8875C11.4542 7.7625 11.7167 7.7 12 7.7Z" fill="currentColor"/>
</g>
</svg>
