<svg width="24" height="24" viewBox="0 0 24 24" fill="none" xmlns="http://www.w3.org/2000/svg">
<mask id="mask0_2136_1436" style="mask-type:alpha" maskUnits="userSpaceOnUse" x="0" y="0" width="24" height="24">
<rect width="24" height="24" fill="#D9D9D9"/>
</mask>
<g mask="url(#mask0_2136_1436)">
<path d="M6 12.05C6 12.3167 6.01667 12.5792 6.05 12.8375C6.08333 13.0958 6.14167 13.35 6.225 13.6C6.30833 13.8833 6.3 14.1542 6.2 14.4125C6.1 14.6708 5.925 14.8583 5.675 14.975C5.40833 15.1083 5.14583 15.1208 4.8875 15.0125C4.62917 14.9042 4.45833 14.7083 4.375 14.425C4.24167 14.0417 4.14583 13.65 4.0875 13.25C4.02917 12.85 4 12.45 4 12.05C4 9.81667 4.775 7.91667 6.325 6.35C7.875 4.78334 9.76667 4 12 4H12.175L11.275 3.1C11.0917 2.91667 11 2.68334 11 2.4C11 2.11667 11.0917 1.88334 11.275 1.7C11.4583 1.51667 11.6917 1.425 11.975 1.425C12.2583 1.425 12.4917 1.51667 12.675 1.7L15.275 4.3C15.475 4.5 15.575 4.73334 15.575 5C15.575 5.26667 15.475 5.5 15.275 5.7L12.675 8.3C12.4917 8.48334 12.2583 8.575 11.975 8.575C11.6917 8.575 11.4583 8.48334 11.275 8.3C11.0917 8.11667 11 7.88334 11 7.6C11 7.31667 11.0917 7.08334 11.275 6.9L12.175 6H12C10.3333 6 8.91667 6.5875 7.75 7.7625C6.58333 8.9375 6 10.3667 6 12.05ZM18 11.95C18 11.6833 17.9833 11.4208 17.95 11.1625C17.9167 10.9042 17.8583 10.65 17.775 10.4C17.6917 10.1167 17.7 9.84584 17.8 9.5875C17.9 9.32917 18.075 9.14167 18.325 9.025C18.5917 8.89167 18.8542 8.87917 19.1125 8.9875C19.3708 9.09584 19.5417 9.29167 19.625 9.575C19.7583 9.95834 19.8542 10.35 19.9125 10.75C19.9708 11.15 20 11.55 20 11.95C20 14.1833 19.225 16.0833 17.675 17.65C16.125 19.2167 14.2333 20 12 20H11.825L12.725 20.9C12.9083 21.0833 13 21.3167 13 21.6C13 21.8833 12.9083 22.1167 12.725 22.3C12.5417 22.4833 12.3083 22.575 12.025 22.575C11.7417 22.575 11.5083 22.4833 11.325 22.3L8.725 19.7C8.525 19.5 8.425 19.2667 8.425 19C8.425 18.7333 8.525 18.5 8.725 18.3L11.325 15.7C11.5083 15.5167 11.7417 15.425 12.025 15.425C12.3083 15.425 12.5417 15.5167 12.725 15.7C12.9083 15.8833 13 16.1167 13 16.4C13 16.6833 12.9083 16.9167 12.725 17.1L11.825 18H12C13.6667 18 15.0833 17.4125 16.25 16.2375C17.4167 15.0625 18 13.6333 18 11.95Z" fill="currentColor"/>
</g>
</svg>
