<svg width="70" height="70" viewBox="0 0 70 70" fill="none" xmlns="http://www.w3.org/2000/svg">
<path d="M19.6076 48.611H26.0822C27.2313 48.611 27.8058 48.611 28.3234 48.4571C28.8866 48.2896 29.402 47.9907 29.8269 47.5851C30.2173 47.2124 30.5023 46.714 31.0721 45.717L39.5492 30.8872C40.1108 29.9047 40.3917 29.4133 40.5149 28.895C40.649 28.331 40.6488 27.7434 40.5142 27.1795C40.3905 26.6614 40.1093 26.1703 39.5468 25.1883L36.2772 19.4797C35.5037 18.1291 35.1169 17.4538 34.6257 17.203C34.0951 16.9319 33.4662 16.9324 32.9359 17.2042C32.4451 17.4558 32.0593 18.1317 31.2878 19.4834L17.1118 44.3182C16.3514 45.6502 15.971 46.3167 16.0017 46.863C16.035 47.4533 16.3483 47.9924 16.8452 48.3137C17.3049 48.611 18.0724 48.611 19.6076 48.611Z" fill="currentColor"/>
<path d="M41.6761 48.6097H49.1827C50.7341 48.6097 51.5098 48.6097 51.971 48.3094C52.4695 47.9849 52.7818 47.4411 52.8107 46.8475C52.8374 46.2982 52.4461 45.6289 51.6635 44.2906L47.904 37.862C47.1326 36.5427 46.7465 35.8826 46.2588 35.6361C45.7318 35.3696 45.1091 35.37 44.5824 35.6373C44.0951 35.8846 43.7102 36.5449 42.9404 37.8655L39.1933 44.2942C38.4136 45.6317 38.0238 46.3005 38.0511 46.8494C38.0806 47.4426 38.3931 47.9858 38.8914 48.3097C39.3524 48.6096 40.127 48.6097 41.6761 48.6097Z" fill="currentColor"/>
</svg>
