<svg width="70" height="70" viewBox="0 0 70 70" fill="none" xmlns="http://www.w3.org/2000/svg">
<path d="M52.0344 30.5552C52.7468 25.7889 49.1203 23.2269 44.1612 21.5177L45.7699 15.0614L41.8421 14.0821L40.276 20.3684C39.2434 20.1107 38.183 19.8679 37.129 19.6272L38.7065 13.2994L34.7811 12.3201L33.1714 18.7743C32.3169 18.5796 31.4776 18.3872 30.6634 18.1845L30.6679 18.1642L25.2513 16.8108L24.2065 21.0085C24.2065 21.0085 27.1206 21.6769 27.0592 21.718C28.6498 22.1152 28.9374 23.1688 28.8896 24.0038L27.0571 31.3591C27.1666 31.3869 27.3087 31.4272 27.4655 31.4902C27.3344 31.4577 27.195 31.4221 27.0503 31.3875L24.4817 41.6912C24.2873 42.1747 23.7939 42.9003 22.6819 42.6248C22.7212 42.6819 19.8271 41.9119 19.8271 41.9119L17.877 46.4107L22.9884 47.6857C23.9393 47.9243 24.8712 48.1739 25.7888 48.4087L24.1634 54.9391L28.0867 55.9184L29.6964 49.4573C30.7682 49.7485 31.8083 50.017 32.8266 50.2702L31.2224 56.7008L35.1504 57.6801L36.7756 51.1619C43.4734 52.4303 48.5096 51.9189 50.6295 45.8572C52.3376 40.9767 50.5444 38.1617 47.0207 36.326C49.5872 35.7338 51.5204 34.0447 52.0358 30.5557L52.0346 30.5549L52.0344 30.5552ZM43.0602 43.1468C41.8463 48.0272 33.634 45.389 30.9715 44.7275L33.1284 36.0758C35.7908 36.7409 44.3288 38.057 43.0603 43.1468H43.0602ZM44.2749 30.4845C43.1676 34.9237 36.3324 32.6684 34.1152 32.1154L36.0707 24.2689C38.288 24.8219 45.4284 25.8541 44.2753 30.4845H44.2749Z" fill="currentColor"/>
</svg>
