<svg width="77" height="20" viewBox="0 0 77 20" fill="none" xmlns="http://www.w3.org/2000/svg">
<path fill-rule="evenodd" clip-rule="evenodd" d="M17.8298 4.2022L17.8595 4.2032C17.9877 4.21188 18.1116 4.27677 18.1896 4.39235L18.2068 4.41992L18.6295 5.15665L18.6861 5.25672C19.4697 6.66142 19.8921 8.24944 19.9118 9.86414L19.9125 9.98233L19.9112 10.143C19.8257 15.3814 15.5685 19.6267 10.3157 19.711L10.1562 19.7123L10.0424 19.7117C7.95814 19.6882 5.98316 19.0207 4.31711 17.7761L4.22655 17.7077L3.63769 17.2575L3.61537 17.2392C3.43608 17.0825 3.41776 16.8093 3.57442 16.6303L3.59492 16.6085L7.59265 12.6217L7.61511 12.6009C7.74531 12.4881 7.93046 12.4632 8.08597 12.5373L8.11477 12.5523L8.54618 12.7988L8.61326 12.8361C9.06211 13.0785 9.56447 13.2119 10.0755 13.2246L10.1562 13.2256L10.2122 13.2252C11.9611 13.1956 13.3782 11.7823 13.4078 10.0381L13.4083 9.98233L13.407 9.88971C13.4015 9.70428 13.3798 9.51787 13.3421 9.33348L13.3219 9.24147L13.2396 8.89034L13.2338 8.86114C13.2133 8.73507 13.2499 8.60629 13.3334 8.50967L13.3553 8.4862L14.3359 7.50821L14.3575 7.48802C14.5635 7.30799 14.8852 7.36304 15.0204 7.60062L15.0342 7.62677L15.0813 7.72647C15.3115 8.22722 15.4642 8.76194 15.5329 9.31273L15.5456 9.4231L15.5563 9.53491C15.566 9.64677 15.5724 9.75873 15.5751 9.87055L15.5764 9.98233L15.5757 10.0716C15.5282 12.9818 13.1631 15.3403 10.2448 15.3872L10.1562 15.3879L10.0468 15.3868C9.46325 15.3749 8.88615 15.2687 8.33927 15.0743L8.23709 15.0369L6.59985 16.6696L6.69906 16.7215C7.72767 17.2494 8.86191 17.5321 10.0419 17.5493L10.1562 17.5501L10.2815 17.5491C14.3669 17.4828 17.6777 14.1806 17.7435 10.106L17.7445 9.98233L17.7435 9.85849C17.7313 9.11814 17.6106 8.38556 17.3877 7.6859L17.3473 7.56278L17.3447 7.56528L17.3027 7.44413C17.1163 6.92073 16.8722 6.4184 16.5738 5.94633L16.504 5.83794L16.488 5.81167C16.3984 5.65228 16.4164 5.45422 16.5357 5.31601L16.5578 5.29226L17.5239 4.32889C17.6096 4.24329 17.7201 4.2022 17.8298 4.2022ZM10.287 0.288086C12.4223 0.288086 14.4475 0.957182 16.1514 2.22427L16.2423 2.29272L16.8338 2.74295L16.8562 2.7612C17.0363 2.91787 17.0546 3.19097 16.8973 3.37004L16.8767 3.39192L12.8617 7.37873L12.8392 7.3996C12.7083 7.51231 12.5223 7.53734 12.3662 7.46321L12.3373 7.44814L11.9038 7.20152L11.8364 7.16426C11.3857 6.92194 10.8813 6.78845 10.3681 6.7757L10.287 6.7747L10.2308 6.77517C8.47429 6.80473 7.05104 8.21807 7.02127 9.96223L7.02079 10.018L7.02216 10.1108C7.02762 10.2964 7.04942 10.4827 7.08721 10.667L7.10744 10.7589L7.19006 11.1101L7.19586 11.1393C7.21641 11.2653 7.17977 11.3941 7.0959 11.4908L7.07396 11.5143L6.08941 12.4918L6.06771 12.512C5.86087 12.692 5.53764 12.6371 5.40196 12.3994L5.38815 12.3733L5.34113 12.2741C5.11114 11.7759 4.95789 11.2439 4.88798 10.6975L4.87512 10.588L4.86481 10.4823L4.85665 10.3766L4.85373 10.3328L4.85119 10.2889L4.8471 10.1986L4.84432 10.1083L4.84329 10.018L4.84402 9.92875C4.8917 7.01858 7.26704 4.66006 10.198 4.61318L10.287 4.61247L10.397 4.61358C10.9829 4.62541 11.5626 4.73171 12.1119 4.92606L12.2145 4.96353L13.8588 3.33078L13.7591 3.27892C12.726 2.7509 11.5868 2.46822 10.4018 2.45107L10.287 2.45024L10.1612 2.45126C6.05808 2.51755 2.73281 5.8199 2.66672 9.8943L2.66571 10.018L2.66673 10.1419C2.67892 10.8823 2.80027 11.6149 3.0241 12.3145L3.06466 12.4376L3.06703 12.4353L3.10923 12.5564C3.29658 13.0799 3.542 13.5825 3.84142 14.0543L3.91148 14.1627L3.92751 14.189C4.01737 14.3484 3.99932 14.5463 3.87957 14.6845L3.85738 14.7083L2.88728 15.6715L2.86581 15.6915C2.66839 15.8633 2.36187 15.8227 2.21683 15.6054L2.20139 15.5805L1.77679 14.8438L1.71993 14.7437C0.932511 13.3384 0.508277 11.7493 0.488971 10.1335L0.488281 10.018L0.489597 9.85735C0.576295 4.56606 4.93798 0.288086 10.287 0.288086ZM29.371 4.68246C30.7495 4.68246 31.8523 5.10525 32.9468 6.05294C33.0365 6.13226 33.0871 6.2362 33.0904 6.34618C33.0934 6.44594 33.0577 6.54228 32.9894 6.62062L32.9679 6.64357L32.3391 7.28517C32.2518 7.39383 32.156 7.42168 32.0905 7.42566C32.0186 7.43038 31.9079 7.41033 31.7885 7.29114C31.1241 6.71336 30.2235 6.36491 29.3855 6.36491C27.4609 6.36491 25.8951 7.98562 25.8951 9.97806C25.8951 11.9624 27.4672 13.5766 29.3997 13.5766C30.4555 13.5766 31.1778 13.1332 31.801 12.6539C31.9565 12.5333 32.1443 12.5226 32.2869 12.6245L32.3102 12.6425L32.9814 13.2971C33.0493 13.3562 33.0913 13.4472 33.0947 13.5488C33.0984 13.6659 33.051 13.7853 32.9678 13.8683C31.9989 14.8068 30.7555 15.3022 29.371 15.3022C26.4283 15.3022 24.0341 12.9267 24.0341 10.0068C24.0341 7.071 26.4283 4.68246 29.371 4.68246ZM55.4621 4.68246C56.8407 4.68246 57.9433 5.10525 59.0378 6.05294C59.1275 6.13226 59.178 6.23611 59.1814 6.34618C59.1845 6.44587 59.1488 6.54213 59.0805 6.62058L59.0591 6.64357L58.4301 7.28517C58.3427 7.39383 58.247 7.42168 58.1815 7.42566C58.1092 7.43038 57.9991 7.41033 57.8794 7.29114C57.2152 6.71336 56.3144 6.36491 55.4763 6.36491C53.5518 6.36491 51.9861 7.98562 51.9861 9.97806C51.9861 11.9624 53.5584 13.5766 55.4909 13.5766C56.5466 13.5766 57.2689 13.1332 57.8921 12.6539C58.0475 12.5333 58.2353 12.5226 58.3779 12.6245L58.4013 12.6425L59.0724 13.2971C59.1402 13.3562 59.1823 13.4472 59.1857 13.5487C59.1896 13.6657 59.1422 13.7852 59.0591 13.8681C58.0899 14.8068 56.8465 15.3022 55.4621 15.3022C52.5193 15.3022 50.1251 12.9267 50.1251 10.0068C50.1251 7.071 52.5193 4.68246 55.4621 4.68246ZM36.8852 4.82645C37.0918 4.82645 37.274 4.99969 37.2882 5.20311L37.2891 5.22869V14.756C37.2891 14.9617 37.1152 15.1433 36.9109 15.1575L36.8852 15.1584H35.9332C35.7267 15.1584 35.5445 14.985 35.5303 14.7816L35.5294 14.756V5.22869C35.5294 5.023 35.7033 4.84153 35.9075 4.82734L35.9332 4.82645H36.8852ZM44.8755 4.82645C46.681 4.82645 48.1498 6.26589 48.1498 8.03505C48.1498 9.2978 47.3809 10.4141 46.1288 10.992L46.0668 11.02L47.9756 14.5513C48.0484 14.686 48.0474 14.8458 47.9732 14.9688C47.9053 15.0812 47.7874 15.1489 47.6466 15.1575L47.6161 15.1584H46.491C46.3327 15.1584 46.2091 15.0668 46.154 14.9758L46.144 14.9576L44.2615 11.215H42.294V14.756C42.294 14.9617 42.12 15.1433 41.9157 15.1575L41.89 15.1584H40.9523C40.7386 15.1584 40.563 14.992 40.5493 14.7824L40.5485 14.756V5.22869C40.5485 5.01584 40.7155 4.84096 40.9258 4.82731L40.9523 4.82645H44.8755ZM62.9762 4.82644C63.1828 4.82644 63.3651 4.99969 63.3794 5.2031L63.3803 5.22868V13.5623H67.159C67.3728 13.5623 67.5485 13.7287 67.5622 13.9381L67.5631 13.9645V14.756C67.5631 14.969 67.396 15.1439 67.1855 15.1575L67.159 15.1584H62.0242C61.8105 15.1584 61.635 14.992 61.6213 14.7824L61.6204 14.756V5.22868C61.6204 5.01583 61.7874 4.84095 61.9977 4.8273L62.0242 4.82644H62.9762ZM75.7119 4.82646C75.9257 4.82646 76.1013 4.99283 76.115 5.20229L76.1159 5.22869V6.03466C76.1159 6.24758 75.9489 6.42247 75.7384 6.43612L75.7119 6.43697H71.284V9.11519H75.0051C75.2117 9.11519 75.394 9.28851 75.4083 9.49194L75.4092 9.51751V10.3234C75.4092 10.5363 75.2421 10.7112 75.0316 10.7249L75.0051 10.7257H71.284V13.5623H75.7119C75.9257 13.5623 76.1013 13.7287 76.115 13.9381L76.1159 13.9645V14.756C76.1159 14.9689 75.9489 15.1439 75.7384 15.1576L75.7119 15.1584H69.9425C69.7287 15.1584 69.5531 14.992 69.5394 14.7824L69.5385 14.756V5.22869C69.5385 5.01585 69.7056 4.84097 69.916 4.82732L69.9425 4.82646H75.7119ZM44.7602 6.48015H42.3228V9.71957H44.7602C45.6436 9.71957 46.39 8.96144 46.39 8.06389C46.39 7.20538 45.6436 6.48015 44.7602 6.48015Z" fill="currentColor"/>
</svg>
