<svg width="64" height="64" viewBox="0 0 64 64" fill="none" xmlns="http://www.w3.org/2000/svg">
<rect width="64" height="64" rx="18" fill="white"/>
<path d="M26.2921 24.7493C27.6682 24.7493 28.9155 25.047 30.0342 25.6416C31.1521 26.2363 32.0339 27.0785 32.6797 28.1682C33.3247 29.2572 33.6476 30.5146 33.6476 31.9388C33.6476 33.3631 33.3161 34.6205 32.6537 35.7094C31.9913 36.7984 31.0968 37.6406 29.9703 38.236C28.8437 38.8306 27.5829 39.1283 26.1895 39.1283C24.7961 39.1283 23.5747 38.8306 22.4734 38.236C21.3721 37.6414 20.5076 36.7992 19.88 35.7094C19.8089 35.5864 19.7418 35.4611 19.6787 35.3334C19.6124 35.4611 19.5421 35.5864 19.4671 35.7094C18.8047 36.7984 17.9103 37.6406 16.7829 38.236C15.6563 38.8306 14.3955 39.1283 13.0021 39.1283C11.6087 39.1283 10.3874 38.8306 9.28605 38.236C8.18474 37.6414 7.32026 36.7992 6.69263 35.7094C6.06421 34.6205 5.75 33.3631 5.75 31.9388C5.75 30.5146 6.07289 29.2572 6.71789 28.1682C7.36289 27.0792 8.24474 26.2371 9.36342 25.6416C10.4813 25.047 11.7287 24.7493 13.1047 24.7493C14.4808 24.7493 15.7282 25.047 16.8468 25.6416C17.9647 26.2363 18.8466 27.0785 19.4924 28.1682C19.5658 28.292 19.6345 28.4173 19.6992 28.545C19.7632 28.4173 19.8318 28.292 19.9053 28.1682C20.5503 27.0792 21.4321 26.2371 22.5508 25.6416C23.6687 25.047 24.9161 24.7493 26.2929 24.7493H26.2921ZM26.2921 28.1682C25.5674 28.1682 24.9113 28.3241 24.3224 28.6359C23.7334 28.9477 23.27 29.3896 22.9305 29.9607C22.5911 30.5318 22.4213 31.1914 22.4213 31.938C22.4213 32.6846 22.5863 33.3443 22.9171 33.9154C23.2479 34.4865 23.7026 34.9284 24.2821 35.2402C24.8616 35.552 25.5137 35.7079 26.2384 35.7079C26.9632 35.7079 27.635 35.552 28.2279 35.2402C28.8208 34.9284 29.2921 34.4865 29.6403 33.9154C29.9892 33.3443 30.1629 32.6846 30.1629 31.938C30.1629 31.1914 29.9932 30.5318 29.6537 29.9607C29.3142 29.3896 28.85 28.9477 28.2618 28.6359C27.6729 28.3241 27.0168 28.1682 26.2921 28.1682ZM13.1695 28.1682C12.4447 28.1682 11.7887 28.3241 11.1997 28.6359C10.6108 28.9477 10.1474 29.3896 9.80789 29.9607C9.46842 30.5318 9.29868 31.1914 9.29868 31.938C9.29868 32.6846 9.46368 33.3443 9.79447 33.9154C10.1253 34.4865 10.58 34.9284 11.1595 35.2402C11.7389 35.552 12.3911 35.7079 13.115 35.7079C13.8389 35.7079 14.5116 35.552 15.1045 35.2402C15.6974 34.9284 16.1687 34.4865 16.5168 33.9154H19.1639C19.0124 33.2965 18.9366 32.6376 18.9366 31.938C18.9366 31.3183 18.9974 30.7308 19.1197 30.1745H16.5168C16.2666 29.4569 15.7266 28.9469 15.1384 28.6351C14.5495 28.3233 13.8934 28.1674 13.1687 28.1674L13.1695 28.1682ZM51.2047 24.7493C52.5642 24.7493 53.7808 25.0345 54.8561 25.604C55.9313 26.1736 56.7658 26.9821 57.3595 28.0295C57.9532 29.077 58.25 30.2795 58.25 31.6372C58.25 32.1402 58.2153 32.5922 58.1466 32.9949H47.6947L47.7097 33.1437C47.8179 34.0784 48.1739 34.8163 48.7787 35.3577C49.415 35.9272 50.1982 36.2124 51.1274 36.2124C52.4695 36.2124 53.4239 35.6507 53.9916 34.528H57.8884L57.8347 34.6941C57.4084 35.9601 56.6355 37.006 55.5145 37.8333C54.3445 38.6966 52.9076 39.1275 51.2047 39.1275C49.8287 39.1275 48.5939 38.8298 47.5013 38.2352C46.4087 37.6406 45.5576 36.7984 44.9466 35.7087C44.3355 34.6197 44.0308 33.3623 44.0308 31.938C44.0308 30.7081 44.2503 29.6058 44.6892 28.632H43.5555L43.3968 28.6343C42.6666 28.6539 42.0674 28.8114 41.5984 29.106C41.0963 29.4217 40.7324 29.8533 40.5066 30.401C40.2808 30.9486 40.1679 31.5737 40.1679 32.2765V35.8497H44.0821V39.0672H33.3666V35.8497H36.2568V28.4103H33.3666V25.1927H39.8774L39.9966 27.6026L40.0961 27.4302C40.3329 27.0346 40.6108 26.6797 40.9289 26.364C41.2929 26.0036 41.7437 25.7184 42.2813 25.5085C42.8189 25.2977 43.4711 25.1927 44.2384 25.1927H45.8892V26.8301C46.3408 26.3538 46.865 25.9535 47.4634 25.6299C48.5474 25.0431 49.7947 24.7501 51.2055 24.7501L51.2047 24.7493ZM51.1013 27.6402C50.2068 27.6402 49.4537 27.9042 48.8434 28.4322C48.2324 28.9602 47.8582 29.6935 47.7208 30.6321H54.5079C54.4905 29.7272 54.155 29.0025 53.5013 28.4573C52.8476 27.912 52.0479 27.6402 51.1013 27.6402Z" fill="#111111"/>
</svg>
