<svg width="77" height="12" viewBox="0 0 77 12" fill="none" xmlns="http://www.w3.org/2000/svg">
    <path d="M13.5895 4.95289C13.5895 9.42721 10.8424 10.8632 9.38568 9.5937C8.19946 8.55316 7.84568 6.34721 6.05595 6.11829C3.78757 5.84775 3.57946 8.86532 2.08108 8.86532C0.332973 8.86532 0 6.34721 0 5.03613C0 3.70424 0.374595 1.89369 1.85216 1.89369C3.57946 1.89369 3.68351 4.49505 5.84784 4.34938C7.99135 4.2037 8.03298 1.49829 9.44811 0.353694C10.6759 -0.666036 13.5895 0.416126 13.5895 4.95289Z" fill="currentColor" />
    <path d="M21.0837 0.186951V3.95355H25.4226V0.186951H26.696V9.38617H25.4226V5.16156H21.0837V9.38617H19.7908V0.186951H21.0837Z" fill="currentColor" />
    <path d="M32.9158 2.85071L29.5359 11.8253V11.8491H28.6233H28.2209L28.26 11.7358L28.3029 11.603L28.3445 11.4874L29.3113 8.97083L26.8914 2.87122H28.2439L28.3054 3.03137L29.8328 6.98547L29.8357 6.99231L29.8377 7.00012C29.8734 7.11255 29.9222 7.23674 29.9802 7.38C29.9948 7.34425 30.0047 7.31925 30.0086 7.29895C30.0335 7.16857 30.0864 7.05182 30.1179 6.96985L31.6052 2.85071H32.9158Z" fill="currentColor" />
    <path d="M34.2525 6.11816C34.2525 6.53435 34.3101 6.90673 34.4303 7.21484L34.4859 7.34277L34.4889 7.34961L34.4918 7.35742C34.6326 7.70832 34.8424 7.96434 35.107 8.16797C35.3495 8.35444 35.628 8.4277 35.9654 8.42773C36.3137 8.42773 36.5957 8.33784 36.8443 8.14648C37.1013 7.9487 37.2946 7.69547 37.4586 7.33496C37.6035 6.9735 37.6793 6.56938 37.6793 6.09766C37.6793 5.62427 37.6035 5.22137 37.4606 4.88379C37.317 4.54491 37.1058 4.27346 36.8531 4.09668C36.6005 3.92001 36.3142 3.8291 35.9654 3.8291C35.6379 3.82914 35.351 3.91916 35.0973 4.09668C34.8411 4.27595 34.633 4.52808 34.4918 4.87988L34.4908 4.88379C34.3457 5.22642 34.2526 5.65111 34.2525 6.11816ZM38.9527 6.11816C38.9527 6.76906 38.8493 7.34757 38.6129 7.86621C38.3765 8.38496 38.0317 8.79051 37.6256 9.10449L37.6197 9.10938L37.6139 9.11328C37.1765 9.41159 36.6714 9.57318 36.1246 9.57324C35.6429 9.57324 35.2205 9.45696 34.8043 9.2041C34.6279 9.10065 34.472 8.96992 34.3316 8.82129V12.0293H33.0582V2.87109H34.2916V3.4541C34.423 3.32094 34.5721 3.19964 34.7447 3.09473C35.1394 2.84289 35.5812 2.70509 36.0846 2.70508C36.669 2.70508 37.1747 2.86548 37.6139 3.16504C38.0538 3.46518 38.3789 3.87825 38.6129 4.3916C38.8489 4.90965 38.9527 5.48758 38.9527 6.11816Z" fill="currentColor" />
    <path d="M42.1529 2.6842C42.7297 2.6842 43.2374 2.81931 43.6822 3.12268C44.1041 3.40287 44.4288 3.81752 44.6431 4.31213L44.6451 4.31604C44.8581 4.83008 44.9615 5.40508 44.9615 6.05627V6.47229H40.4869C40.5088 6.8542 40.5821 7.17325 40.7125 7.4469C40.8763 7.79064 41.0674 8.01954 41.315 8.17542C41.5715 8.33675 41.8819 8.42832 42.2125 8.42834C42.6285 8.42834 42.9508 8.33381 43.2164 8.14221C43.4508 7.95915 43.6187 7.67057 43.6705 7.27209L43.6988 7.05432H44.9449L44.899 7.34338C44.8355 7.74306 44.7059 8.14005 44.4556 8.47424L44.4547 8.47327C44.2347 8.79323 43.9289 9.06785 43.5377 9.25256C43.1801 9.44007 42.7233 9.55237 42.2125 9.55237C41.6366 9.55235 41.115 9.41755 40.6558 9.14221C40.1904 8.86306 39.8413 8.44661 39.6051 7.92834C39.3696 7.41158 39.2457 6.79222 39.2457 6.09729C39.2457 5.4603 39.3713 4.88032 39.6285 4.36292C39.8833 3.85044 40.2279 3.44146 40.6637 3.14417C41.101 2.84584 41.6061 2.68425 42.1529 2.6842ZM42.1529 3.82971C41.6846 3.82976 41.3203 3.98908 41.0347 4.32385C40.7857 4.61591 40.6198 4.96141 40.5387 5.38928H43.6578C43.621 4.93051 43.481 4.57324 43.2515 4.30237C42.9864 3.98951 42.6421 3.82971 42.1529 3.82971Z" fill="currentColor" />
    <path d="M46.8457 9.38574H45.5918V2.8711H46.8252V3.46094C46.9313 3.34654 47.0502 3.24026 47.1856 3.14551C47.5618 2.86836 48.0088 2.70508 48.5196 2.70508C48.6331 2.70508 48.7588 2.7044 48.8877 2.73145L49.086 2.77246V4.01563L48.7998 3.97266C48.6814 3.9549 48.5786 3.9541 48.4795 3.9541C48.1393 3.9541 47.8543 4.02908 47.628 4.18164C47.3882 4.34336 47.1985 4.55888 47.0586 4.85254C46.9191 5.14546 46.8457 5.50273 46.8457 5.91016V9.38574Z" fill="currentColor" />
    <path d="M51.8586 0.166138L50.2316 8.24915L50.2297 8.25989C50.1765 8.47366 50.2129 8.53822 50.2355 8.5636C50.2744 8.60722 50.3857 8.66981 50.6857 8.70032L50.9699 8.72864L50.9045 9.00696L50.8644 9.17297L50.8185 9.36536H47.9845L48.0578 9.05676L48.0978 8.89075L48.1388 8.71692L48.3166 8.69934C48.6161 8.66982 48.7891 8.60919 48.8957 8.52844C48.9933 8.45434 49.0648 8.34071 49.1066 8.13L50.4162 1.65637C50.4491 1.49827 50.4564 1.39498 50.4504 1.33118C50.4479 1.30497 50.4432 1.29153 50.4406 1.28528C50.4301 1.28147 50.4031 1.2744 50.3468 1.27454C50.2622 1.27478 50.1431 1.29098 49.9797 1.32629L49.592 1.41028L49.6838 1.02454L49.7238 0.857544L49.7551 0.724731L49.884 0.67981L51.3117 0.17981L51.3527 0.166138H51.8586Z" fill="currentColor" />
    <path d="M53.9607 2.68463L53.9002 2.98346L52.8494 8.2276C52.8047 8.45286 52.8411 8.52808 52.8699 8.56061C52.9116 8.60735 53.0247 8.66987 53.324 8.70026L53.6082 8.72858L53.5418 9.0069L53.5017 9.17291L53.4558 9.3653H50.6023L50.6756 9.0567L50.7156 8.89069L50.7566 8.71686L50.9343 8.69928C51.2339 8.66977 51.4069 8.60913 51.5134 8.52838C51.6111 8.45428 51.6825 8.34067 51.7244 8.12994L52.5183 4.17487C52.5515 4.01573 52.5606 3.91095 52.5554 3.84576C52.5535 3.82092 52.548 3.80749 52.5457 3.80084C52.5333 3.79718 52.5064 3.79289 52.4568 3.79303C52.3708 3.79331 52.2497 3.80936 52.0808 3.84479L51.6951 3.92584L51.7859 3.54205L51.8259 3.37604L51.8572 3.24323L51.9861 3.19733L53.4138 2.6983L53.4548 2.68463H53.9607ZM53.6951 0.499084C53.923 0.499084 54.126 0.590706 54.2615 0.757874C54.395 0.922685 54.4462 1.13926 54.4197 1.36139C54.365 1.82052 53.98 2.14357 53.5564 2.14362C53.0881 2.14362 52.7537 1.76103 52.8123 1.29987C52.8488 0.836373 53.2386 0.499117 53.6951 0.499084Z" fill="currentColor" />
    <path d="M59.8519 2.6842L58.1644 10.9137L58.1634 10.9166C58.1405 11.0211 58.1486 11.0816 58.1595 11.1149C58.1696 11.1452 58.1881 11.1714 58.224 11.1979C58.3127 11.2631 58.4625 11.3024 58.682 11.3463L58.9369 11.3971L58.8363 11.816L58.7914 12.0084H55.6L55.6732 11.6998L55.7133 11.5338L55.7543 11.361L55.9301 11.3424C56.3318 11.3002 56.6032 11.2565 56.7855 11.1725C56.8709 11.1331 56.9274 11.0878 56.9672 11.0377C57.0066 10.988 57.0402 10.9201 57.059 10.818L57.0599 10.8131L57.4584 8.86584C56.9993 9.2916 56.4192 9.55237 55.8168 9.55237C55.0034 9.55224 54.3915 9.13989 54.059 8.43909C53.7348 7.75561 53.6827 6.8159 53.9066 5.73596C54.2224 4.106 55.6131 2.68446 57.3041 2.6842C57.9247 2.6842 58.4918 2.91514 58.8451 3.31311L59.2504 2.6842H59.8519ZM57.1263 3.53772C56.2321 3.53772 55.3778 4.40601 55.0902 5.83459C54.9172 6.71278 54.9637 7.42564 55.1713 7.90491C55.2738 8.14172 55.4135 8.31699 55.5814 8.43323C55.7484 8.54874 55.9573 8.61487 56.2142 8.61487C56.5055 8.61473 56.8177 8.48153 57.1078 8.24084C57.3903 8.00639 57.6353 7.68249 57.7992 7.32874L58.2689 4.98694C58.3189 4.60781 58.2557 4.24347 58.0804 3.98108C57.911 3.72736 57.6168 3.5378 57.1263 3.53772Z" fill="currentColor" />
    <path d="M68.1998 2.68463L68.1393 2.98346L67.0885 8.2276C67.0438 8.45286 67.0802 8.52808 67.109 8.56061C67.1507 8.60735 67.2638 8.66987 67.5631 8.70026L67.8473 8.72858L67.7809 9.0069L67.7408 9.17291L67.6949 9.3653H64.8414L64.9147 9.0567L64.9547 8.89069L64.9957 8.71686L65.1735 8.69928C65.473 8.66977 65.646 8.60913 65.7526 8.52838C65.8502 8.45428 65.9216 8.34067 65.9635 8.12994L66.7574 4.17487L66.7906 3.97369C66.7963 3.92015 66.7971 3.87821 66.7946 3.84576C66.7926 3.82092 66.7872 3.80749 66.7848 3.80084C66.7724 3.79718 66.7455 3.79289 66.6959 3.79303C66.6099 3.79331 66.4888 3.80936 66.3199 3.84479L65.9342 3.92584L66.025 3.54205L66.0651 3.37604L66.0963 3.24323L66.2252 3.19733L67.653 2.6983L67.694 2.68463H68.1998ZM67.9342 0.499084C68.1621 0.499084 68.3652 0.590707 68.5006 0.757874C68.6341 0.922685 68.6853 1.13926 68.6588 1.36139C68.6041 1.82053 68.2192 2.14358 67.7955 2.14362C67.3273 2.14362 66.9928 1.76103 67.0514 1.29987C67.1063 0.84834 67.4851 0.499119 67.9342 0.499084Z" fill="currentColor" />
    <path d="M61.9541 2.6842L61.8925 2.98401L61.0205 7.27112C60.9288 7.72316 60.9894 8.03081 61.1162 8.21741C61.237 8.39516 61.4506 8.51127 61.7861 8.51135C62.3095 8.51135 62.7435 8.17581 63.4795 7.46838L64.1396 4.17542C64.1673 4.01908 64.1728 3.91643 64.166 3.8512C64.1631 3.82358 64.1581 3.80919 64.1552 3.80237C64.1451 3.79885 64.1197 3.79246 64.0674 3.7926C63.9844 3.79285 63.867 3.80895 63.7031 3.84436L63.3154 3.92834L63.4072 3.5426L63.4472 3.37561L63.4785 3.2428L63.6074 3.19788L65.0361 2.69788L65.0761 2.6842H65.582L65.0068 5.56409L64.4707 8.20374C64.424 8.44858 64.4667 8.51219 64.4873 8.53284C64.526 8.57158 64.6414 8.62597 64.9677 8.63635L65.2656 8.64612L65.2041 8.93811L65.164 9.12561L65.122 9.32385H63.1289L63.1875 9.026L63.2646 8.62561C62.6187 9.242 62.0844 9.53186 61.4687 9.53186C60.8892 9.53173 60.4156 9.28923 60.1289 8.86194C59.8465 8.44085 59.7667 7.87291 59.8955 7.25354L60.5097 4.17542L60.5107 4.17346C60.5437 4.01539 60.5509 3.91303 60.5449 3.84924C60.5424 3.82312 60.5377 3.80962 60.5351 3.80334C60.5248 3.79955 60.4972 3.79244 60.4404 3.7926C60.3557 3.7929 60.2374 3.8091 60.0742 3.84436L59.6865 3.92834L59.7783 3.5426L59.8183 3.37561L59.8496 3.2428L59.9785 3.19788L61.4062 2.69788L61.4463 2.6842H61.9541Z" fill="currentColor" />
    <path d="M74.5247 0.145325L74.4661 0.444153L74.0101 2.75372L72.9193 8.20685C72.8745 8.4324 72.911 8.50739 72.9398 8.53986C72.9815 8.5866 73.0945 8.64911 73.3939 8.6795L73.6771 8.70782L73.6116 8.98615L73.5716 9.15216L73.5267 9.34161L73.3323 9.34454L71.845 9.36505L71.5325 9.36896L71.6409 8.84845C71.1799 9.28203 70.594 9.55255 69.9769 9.55255C69.1634 9.55252 68.5575 9.14013 68.2249 8.45392C67.9003 7.78409 67.8418 6.87018 68.0462 5.84064V5.83868C68.4004 4.11239 69.7673 2.68464 71.4837 2.68439C71.9772 2.68439 72.4427 2.84388 72.7845 3.12091L73.0833 1.63654C73.111 1.48015 73.1175 1.37756 73.1107 1.31232C73.1078 1.28448 73.1018 1.27026 73.0989 1.26349C73.0886 1.25994 73.0629 1.25357 73.0111 1.25372C72.9282 1.254 72.8113 1.27015 72.6478 1.30548L72.2591 1.38947L72.3519 1.00372L72.3909 0.836731L72.4232 0.703918L72.5521 0.658997L73.9798 0.158997L74.0198 0.145325H74.5247ZM71.2855 3.5379C70.3921 3.53814 69.5188 4.3849 69.2113 5.93829C69.0485 6.76229 69.0987 7.44834 69.3079 7.91486C69.5097 8.36483 69.8571 8.61505 70.3538 8.61505C70.6457 8.61503 70.9632 8.48183 71.2552 8.23907C71.5413 8.00124 71.7859 7.67103 71.9398 7.30841L72.3499 5.31818L72.3509 5.31525L72.4085 5.05255C72.4792 4.67207 72.4262 4.2871 72.2493 4.00665C72.0804 3.7387 71.7813 3.5379 71.2855 3.5379Z" fill="currentColor" />
</svg>
