<svg width="32" height="34" viewBox="0 0 32 34" fill="none" xmlns="http://www.w3.org/2000/svg">
<path d="M12 1.3094C14.4752 -0.119661 17.5248 -0.119661 20 1.3094L27.5885 5.6906C30.0637 7.11966 31.5885 9.76068 31.5885 12.6188V21.3812C31.5885 24.2393 30.0637 26.8803 27.5885 28.3094L20 32.6906C17.5248 34.1197 14.4752 34.1197 12 32.6906L4.41154 28.3094C1.93633 26.8803 0.411543 24.2393 0.411543 21.3812V12.6188C0.411543 9.76068 1.93633 7.11966 4.41154 5.6906L12 1.3094Z" fill="url(#paint0_linear_1030_18723)"/>
<path d="M12.25 1.74241C14.5705 0.402668 17.4295 0.402668 19.75 1.74241L27.3385 6.12361C29.659 7.46336 31.0885 9.93931 31.0885 12.6188V21.3812C31.0885 24.0607 29.659 26.5366 27.3385 27.8764L19.75 32.2576C17.4295 33.5973 14.5705 33.5973 12.25 32.2576L4.66154 27.8764C2.34103 26.5366 0.911543 24.0607 0.911543 21.3812V12.6188C0.911543 9.93931 2.34103 7.46336 4.66154 6.12361L12.25 1.74241Z" stroke="black" stroke-opacity="0.1"/>
<defs>
<linearGradient id="paint0_linear_1030_18723" x1="2.92" y1="-8.08" x2="16" y2="35" gradientUnits="userSpaceOnUse">
<stop stop-color="white"/>
<stop offset="0.621841" stop-color="#A1FF68"/>
<stop offset="1" stop-color="#26F2FF" stop-opacity="0.75"/>
</linearGradient>
</defs>
</svg>
