<svg width="77" height="60" viewBox="0 0 77 60" fill="none" xmlns="http://www.w3.org/2000/svg">
<path d="M18.5004 4.00024C13.5004 6.83358 3.90029 16.8002 5.50036 34.0002C6.89577 49.0002 19.5004 58.1669 25.5004 59.5002" stroke="currentColor" stroke-linecap="round"/>
<path d="M14.0008 44.0002C15.5005 46.0002 18.0005 48.5002 17.501 53.5002C13.101 50.3002 13.1675 45.6669 14.0008 44.0002Z" fill="currentColor"/>
<path d="M11.0246 36.0809C11.8264 38.4486 13.4229 41.6032 11.3903 46.1986C8.20651 41.7868 9.71345 37.4049 11.0246 36.0809Z" fill="currentColor"/>
<path d="M9.67569 27.3078C9.83765 29.8024 10.5637 33.2625 7.41147 37.1757C5.47737 32.0905 8.06662 28.2475 9.67569 27.3078Z" fill="currentColor"/>
<path d="M10.3322 19.3633C10.1588 21.7157 10.3973 25.1679 6.87122 27.5727C5.69252 22.1721 8.6715 19.6193 10.3322 19.3633Z" fill="currentColor"/>
<path d="M15.9818 12.4766C14.6449 14.4199 13.1084 17.5205 8.85061 17.817C10.5588 12.5598 14.4189 11.8595 15.9818 12.4766Z" fill="currentColor"/>
<path d="M20.5087 7.3276C18.9576 8.47369 17.0303 10.3677 13.0737 10.0984C15.5185 6.78866 19.1775 6.74583 20.5087 7.3276Z" fill="currentColor"/>
<path d="M22.3085 1.31532C21.0903 2.81053 19.6934 5.12366 15.7938 5.84476C17.3406 2.03183 20.8745 1.08216 22.3085 1.31532Z" fill="currentColor"/>
<path d="M16.2498 0.591224C14.8164 1.8816 12.575 3.39087 12.0471 7.32128C15.7791 5.58839 16.5533 2.01193 16.2498 0.591224Z" fill="currentColor"/>
<path d="M9.00604 6.19305C9.17131 8.57454 9.8565 11.8232 7.01856 15.9308C5.22326 11.2511 7.54977 7.27248 9.00604 6.19305Z" fill="currentColor"/>
<path d="M3.99455 16.0613C4.6473 18.3575 5.98758 21.3951 4.05754 25.9996C1.33593 21.7906 2.79214 17.4178 3.99455 16.0613Z" fill="currentColor"/>
<path d="M1.8966 27.2707C3.15129 29.3016 5.26974 31.858 4.66969 36.8144C0.902644 33.5081 1.11007 28.9039 1.8966 27.2707Z" fill="currentColor"/>
<path d="M1.27718 35.982C3.30222 37.7038 6.40661 39.6817 7.57611 45.1703C2.5029 42.9731 1.05597 37.9974 1.27718 35.982Z" fill="currentColor"/>
<path d="M5.36014 46.9523C7.727 48.0618 11.143 49.136 13.953 54.0327C8.70299 53.2573 5.80914 48.9178 5.36014 46.9523Z" fill="currentColor"/>
<path d="M58.9996 4.00024C63.9996 6.83358 73.5997 16.8002 71.9996 34.0002C70.6042 49.0002 57.9996 58.1669 51.9996 59.5002" stroke="currentColor" stroke-linecap="round"/>
<path d="M63.4992 44.0002C61.9995 46.0002 59.4995 48.5002 59.999 53.5002C64.399 50.3002 64.3325 45.6669 63.4992 44.0002Z" fill="currentColor"/>
<path d="M66.4754 36.0809C65.6736 38.4486 64.0771 41.6032 66.1097 46.1986C69.2935 41.7868 67.7865 37.4049 66.4754 36.0809Z" fill="currentColor"/>
<path d="M67.8243 27.3078C67.6624 29.8024 66.9363 33.2625 70.0885 37.1757C72.0226 32.0905 69.4334 28.2475 67.8243 27.3078Z" fill="currentColor"/>
<path d="M67.1678 19.3633C67.3412 21.7157 67.1027 25.1679 70.6288 27.5727C71.8075 22.1721 68.8285 19.6193 67.1678 19.3633Z" fill="currentColor"/>
<path d="M61.5182 12.4766C62.8551 14.4199 64.3916 17.5205 68.6494 17.817C66.9412 12.5598 63.0811 11.8595 61.5182 12.4766Z" fill="currentColor"/>
<path d="M56.9913 7.3276C58.5424 8.47369 60.4697 10.3677 64.4263 10.0984C61.9815 6.78866 58.3225 6.74583 56.9913 7.3276Z" fill="currentColor"/>
<path d="M55.1915 1.31532C56.4097 2.81053 57.8066 5.12366 61.7062 5.84476C60.1594 2.03183 56.6255 1.08216 55.1915 1.31532Z" fill="currentColor"/>
<path d="M61.2502 0.591224C62.6836 1.8816 64.925 3.39087 65.4529 7.32128C61.7209 5.58839 60.9467 2.01193 61.2502 0.591224Z" fill="currentColor"/>
<path d="M68.494 6.19305C68.3287 8.57454 67.6435 11.8232 70.4814 15.9308C72.2767 11.2511 69.9502 7.27248 68.494 6.19305Z" fill="currentColor"/>
<path d="M73.5055 16.0613C72.8527 18.3575 71.5124 21.3951 73.4425 25.9996C76.1641 21.7906 74.7079 17.4178 73.5055 16.0613Z" fill="currentColor"/>
<path d="M75.6034 27.2707C74.3487 29.3016 72.2303 31.858 72.8303 36.8144C76.5974 33.5081 76.3899 28.9039 75.6034 27.2707Z" fill="currentColor"/>
<path d="M76.2228 35.982C74.1978 37.7038 71.0934 39.6817 69.9239 45.1703C74.9971 42.9731 76.444 37.9974 76.2228 35.982Z" fill="currentColor"/>
<path d="M72.1399 46.9523C69.773 48.0618 66.357 49.136 63.547 54.0327C68.797 53.2573 71.6909 48.9178 72.1399 46.9523Z" fill="currentColor"/>
</svg>
