<svg width="32" height="32" viewBox="0 0 32 32" fill="none" xmlns="http://www.w3.org/2000/svg">
<path d="M23.7851 16.7738C23.7995 15.6609 24.096 14.5698 24.6469 13.6018C25.1978 12.6339 25.9853 11.8206 26.936 11.2377C26.332 10.3775 25.5352 9.6696 24.6088 9.17019C23.6825 8.67079 22.6521 8.39366 21.5996 8.36083C19.3543 8.12581 17.1776 9.7006 16.0334 9.7006C14.8671 9.7006 13.1055 8.38416 11.2086 8.42308C9.9816 8.46261 8.78579 8.81841 7.73768 9.45583C6.68958 10.0932 5.82492 10.9905 5.22796 12.0602C2.64206 16.5248 4.57091 23.0862 7.04799 26.695C8.28732 28.4621 9.73575 30.4361 11.631 30.3661C13.4856 30.2894 14.1783 29.1868 16.4169 29.1868C18.6348 29.1868 19.2847 30.3661 21.2184 30.3216C23.2084 30.2894 24.4623 28.5466 25.6581 26.7627C26.5486 25.5036 27.2338 24.1119 27.6884 22.6394C26.5322 22.1517 25.5456 21.3355 24.8514 20.2924C24.1573 19.2494 23.7865 18.0256 23.7851 16.7738Z" fill="white"/>
<path d="M20.1329 5.98717C21.218 4.68822 21.7525 3.01865 21.6231 1.33301C19.9653 1.50664 18.434 2.29671 17.3343 3.54582C16.7966 4.15604 16.3848 4.86596 16.1224 5.63498C15.86 6.40401 15.7522 7.21707 15.8051 8.02767C16.6343 8.03619 17.4546 7.85697 18.2042 7.50352C18.9539 7.15007 19.6133 6.6316 20.1329 5.98717Z" fill="white"/>
</svg>
