<svg width="24" height="18" viewBox="0 0 24 18" fill="none" xmlns="http://www.w3.org/2000/svg">
    <path d="M21.8975 0H6.89754C6.20754 0 5.66754 0.35 5.30754 0.88L0.267539 8.45C0.0475391 8.79 0.0475391 9.22 0.267539 9.56L5.30754 17.12C5.66754 17.64 6.20754 18 6.89754 18H21.8975C22.9975 18 23.8975 17.1 23.8975 16V2C23.8975 0.9 22.9975 0 21.8975 0ZM18.1975 13.3C17.8075 13.69 17.1775 13.69 16.7875 13.3L13.8975 10.41L11.0075 13.3C10.6175 13.69 9.98754 13.69 9.59754 13.3C9.20754 12.91 9.20754 12.28 9.59754 11.89L12.4875 9L9.59754 6.11C9.20754 5.72 9.20754 5.09 9.59754 4.7C9.98754 4.31 10.6175 4.31 11.0075 4.7L13.8975 7.59L16.7875 4.7C17.1775 4.31 17.8075 4.31 18.1975 4.7C18.5875 5.09 18.5875 5.72 18.1975 6.11L15.3075 9L18.1975 11.89C18.5775 12.27 18.5775 12.91 18.1975 13.3Z" fill="#F8F8FB"/>
</svg>
