<?xml version="1.0" encoding="UTF-8" standalone="no"?>
<!-- Created with Inkscape (http://www.inkscape.org/) -->

<svg
   version="1.1"
   id="svg2"
   width="1480"
   height="378.89334"
   viewBox="0 0 1480 378.89334"
   sodipodi:docname="circle-logo-ondark.eps"
   xmlns:inkscape="http://www.inkscape.org/namespaces/inkscape"
   xmlns:sodipodi="http://sodipodi.sourceforge.net/DTD/sodipodi-0.dtd"
   xmlns="http://www.w3.org/2000/svg"
   xmlns:svg="http://www.w3.org/2000/svg">
  <defs
     id="defs6">
    <clipPath
       clipPathUnits="userSpaceOnUse"
       id="clipPath18">
      <path
         d="m 2654.87,2125.56 -61.56,107.58 c -20.66,36.13 -70.02,42.73 -99.46,13.3 l -140.68,-140.69 c -21.3,-21.29 -24.33,-54.48 -7.84,-79.68 51.54,-78.75 92.6,-163.52 122.44,-252.25 l 0.38,0.38 c 38.11,-113.24 57.84,-232.71 57.84,-353.34 0,-609.372 -495.76,-1105.122 -1105.13,-1105.122 -183.38,0 -359.53,44.063 -517.93,128.59 l 238.44,238.422 c 88.96,-33.73 183.79,-51.262 279.49,-51.262 435.27,0 789.37,354.121 789.37,789.372 0,27.2 -1.63,54.47 -4.48,81.67 -9.5,91.5 -34.77,180.21 -74.48,262.31 -18.97,39.21 -70.9,48.11 -101.7,17.32 l -142.8,-142.81 c -15.44,-15.44 -21.81,-37.75 -16.84,-59.02 l 11.98,-51.28 c 8.35,-35.75 12.58,-72.15 12.58,-108.19 0,-261.15 -212.46,-473.61 -473.63,-473.61 -82.19,0 -163.27,21.551 -234.46,62.33 l -62.84,36 c -24.73,14.17 -55.89,10.01 -76.05,-10.15 L 465.309,453.25 c -26.985,-26.98 -24.055,-71.539 6.226,-94.762 l 85.758,-65.75 C 807.055,101.219 1105.69,0 1420.86,0 c 783.48,0 1420.87,637.398 1420.87,1420.86 0,247.36 -64.62,491.04 -186.86,704.7 z"
         id="path16" />
    </clipPath>
    <linearGradient
       x1="0"
       y1="0"
       x2="1"
       y2="0"
       gradientUnits="userSpaceOnUse"
       gradientTransform="matrix(2000.2,2000.2,2000.2,-2000.2,919.75,-90.51)"
       spreadMethod="pad"
       id="linearGradient26">
      <stop
         style="stop-opacity:1;stop-color:#a384c9"
         offset="0"
         id="stop20" />
      <stop
         style="stop-opacity:1;stop-color:#7cbfeb"
         offset="1"
         id="stop22" />
      <stop
         style="stop-opacity:1;stop-color:#7cbfeb"
         offset="1"
         id="stop24" />
    </linearGradient>
    <clipPath
       clipPathUnits="userSpaceOnUse"
       id="clipPath36">
      <path
         d="M 2284.42,2548.99 C 2034.65,2740.5 1736.03,2841.73 1420.86,2841.73 637.391,2841.73 0,2204.33 0,1420.86 0,1173.49 64.6016,929.809 186.844,716.148 L 248.402,608.57 c 20.672,-36.121 70.036,-42.718 99.461,-13.289 l 140.664,140.668 c 21.289,21.289 24.328,54.473 7.844,79.672 -51.469,78.688 -92.59,163.52 -122.445,252.249 l -0.344,-0.34 c -38.113,113.23 -57.836,232.69 -57.836,353.33 0,609.37 495.754,1105.12 1105.114,1105.12 183.37,0 359.52,-44.05 517.93,-128.59 l -238.42,-238.42 c -88.97,33.74 -183.79,51.26 -279.51,51.26 -435.255,0 -789.364,-354.1 -789.364,-789.37 0,-13.17 3.52,-72.95 4.609,-83.23 9.657,-90.73 34.922,-179.01 74.403,-260.71 18.945,-39.2 70.898,-48.1 101.687,-17.31 l 142.758,142.76 c 15.438,15.44 21.809,37.76 16.84,59.02 l -11.98,51.29 c -8.34,35.71 -12.567,72.11 -12.567,108.18 0,261.16 212.464,473.63 473.614,473.63 82.2,0 163.27,-21.56 234.45,-62.34 l 62.85,-36.01 c 24.73,-14.17 55.89,-10.02 76.05,10.14 l 582.2,582.19 c 26.98,26.99 24.05,71.55 -6.23,94.77 z"
         id="path34" />
    </clipPath>
    <linearGradient
       x1="0"
       y1="0"
       x2="1"
       y2="0"
       gradientUnits="userSpaceOnUse"
       gradientTransform="matrix(2394.91,0,0,-2394.91,0,1709.26)"
       spreadMethod="pad"
       id="linearGradient46">
      <stop
         style="stop-opacity:1;stop-color:#81d6f4"
         offset="0"
         id="stop38" />
      <stop
         style="stop-opacity:1;stop-color:#81d6f4"
         offset="0.00336092"
         id="stop40" />
      <stop
         style="stop-opacity:1;stop-color:#90d79b"
         offset="1"
         id="stop42" />
      <stop
         style="stop-opacity:1;stop-color:#90d79b"
         offset="1"
         id="stop44" />
    </linearGradient>
  </defs>
  <sodipodi:namedview
     id="namedview4"
     pagecolor="#ffffff"
     bordercolor="#000000"
     borderopacity="0.25"
     inkscape:showpageshadow="2"
     inkscape:pageopacity="0.0"
     inkscape:pagecheckerboard="0"
     inkscape:deskcolor="#d1d1d1" />
  <g
     id="g8"
     inkscape:groupmode="layer"
     inkscape:label="ink_ext_XXXXXX"
     transform="matrix(1.3333333,0,0,-1.3333333,0,378.89333)">
    <g
       id="g10"
       transform="scale(0.1)">
      <g
         id="g12">
        <g
           id="g14"
           clip-path="url(#clipPath18)">
          <path
             d="m 2654.87,2125.56 -61.56,107.58 c -20.66,36.13 -70.02,42.73 -99.46,13.3 l -140.68,-140.69 c -21.3,-21.29 -24.33,-54.48 -7.84,-79.68 51.54,-78.75 92.6,-163.52 122.44,-252.25 l 0.38,0.38 c 38.11,-113.24 57.84,-232.71 57.84,-353.34 0,-609.372 -495.76,-1105.122 -1105.13,-1105.122 -183.38,0 -359.53,44.063 -517.93,128.59 l 238.44,238.422 c 88.96,-33.73 183.79,-51.262 279.49,-51.262 435.27,0 789.37,354.121 789.37,789.372 0,27.2 -1.63,54.47 -4.48,81.67 -9.5,91.5 -34.77,180.21 -74.48,262.31 -18.97,39.21 -70.9,48.11 -101.7,17.32 l -142.8,-142.81 c -15.44,-15.44 -21.81,-37.75 -16.84,-59.02 l 11.98,-51.28 c 8.35,-35.75 12.58,-72.15 12.58,-108.19 0,-261.15 -212.46,-473.61 -473.63,-473.61 -82.19,0 -163.27,21.551 -234.46,62.33 l -62.84,36 c -24.73,14.17 -55.89,10.01 -76.05,-10.15 L 465.309,453.25 c -26.985,-26.98 -24.055,-71.539 6.226,-94.762 l 85.758,-65.75 C 807.055,101.219 1105.69,0 1420.86,0 c 783.48,0 1420.87,637.398 1420.87,1420.86 0,247.36 -64.62,491.04 -186.86,704.7"
             style="fill:url(#linearGradient26);fill-opacity:1;fill-rule:nonzero;stroke:none"
             id="path28" />
        </g>
      </g>
      <g
         id="g30">
        <g
           id="g32"
           clip-path="url(#clipPath36)">
          <path
             d="M 2284.42,2548.99 C 2034.65,2740.5 1736.03,2841.73 1420.86,2841.73 637.391,2841.73 0,2204.33 0,1420.86 0,1173.49 64.6016,929.809 186.844,716.148 L 248.402,608.57 c 20.672,-36.121 70.036,-42.718 99.461,-13.289 l 140.664,140.668 c 21.289,21.289 24.328,54.473 7.844,79.672 -51.469,78.688 -92.59,163.52 -122.445,252.249 l -0.344,-0.34 c -38.113,113.23 -57.836,232.69 -57.836,353.33 0,609.37 495.754,1105.12 1105.114,1105.12 183.37,0 359.52,-44.05 517.93,-128.59 l -238.42,-238.42 c -88.97,33.74 -183.79,51.26 -279.51,51.26 -435.255,0 -789.364,-354.1 -789.364,-789.37 0,-13.17 3.52,-72.95 4.609,-83.23 9.657,-90.73 34.922,-179.01 74.403,-260.71 18.945,-39.2 70.898,-48.1 101.687,-17.31 l 142.758,142.76 c 15.438,15.44 21.809,37.76 16.84,59.02 l -11.98,51.29 c -8.34,35.71 -12.567,72.11 -12.567,108.18 0,261.16 212.464,473.63 473.614,473.63 82.2,0 163.27,-21.56 234.45,-62.34 l 62.85,-36.01 c 24.73,-14.17 55.89,-10.02 76.05,10.14 l 582.2,582.19 c 26.98,26.99 24.05,71.55 -6.23,94.77 l -85.76,65.75"
             style="fill:url(#linearGradient46);fill-opacity:1;fill-rule:nonzero;stroke:none"
             id="path48" />
        </g>
      </g>
      <path
         d="m 4677.7,1028.99 c -21.25,17.85 -50.59,17.14 -74.65,-1.68 -91.37,-70.869 -197.26,-136.439 -352.05,-136.439 -283.32,0 -513.81,238.689 -513.81,532.109 0,294.61 229.56,534.27 511.73,534.27 122.85,0 254.9,-51.53 352.29,-136.96 17.51,-17.62 33.75,-20.6 44.28,-19.89 9.6,0.59 23.64,4.7 36.45,20.77 l 92.19,94.88 c 12.06,12.13 18.43,27.74 17.95,43.97 -0.48,16.26 -7.9,31.63 -21.05,43.37 -160.46,140.13 -322.14,202.64 -524.25,202.64 -431.42,0 -782.43,-353.19 -782.43,-787.3 0,-431.769 351.01,-783.031 782.43,-783.031 202.98,0 385.28,73.27 527.33,212.039 12.2,12.274 19.16,29.934 18.6,47.242 -0.49,15.02 -6.66,28.481 -16.6,37.211 l -98.41,96.799"
         style="fill:#ffffff;fill-opacity:1;fill-rule:nonzero;stroke:none"
         id="path50" />
      <path
         d="m 5348.44,2184.74 h -139.57 c -31.54,0 -59.22,-27.79 -59.22,-59.47 V 716.469 c 0,-31.68 27.68,-59.5 59.22,-59.5 h 139.57 c 31.54,0 59.22,27.82 59.22,59.5 V 2125.27 c 0,31.68 -27.68,59.47 -59.22,59.47"
         style="fill:#ffffff;fill-opacity:1;fill-rule:nonzero;stroke:none"
         id="path52" />
      <path
         d="m 6741.92,1706.03 c 0,-132.72 -109.42,-244.83 -238.94,-244.83 h -357.35 v 479.01 h 357.35 c 129.52,0 238.94,-107.23 238.94,-234.18 z m 258.01,4.26 c 0,261.6 -215.35,474.45 -480.04,474.45 h -575.18 c -32.65,0 -59.22,-26.69 -59.22,-59.47 V 716.469 c 0,-32.809 26.57,-59.5 59.22,-59.5 h 137.47 c 31.54,0 59.24,27.82 59.24,59.5 v 523.611 h 288.45 l 275.98,-553.42 c 7.16,-14.289 26.13,-29.691 50.87,-29.691 h 164.95 c 22.62,0 41.7,10.23 52.38,28.043 10.87,18.168 11,41.816 0.34,61.726 l -279.85,522.172 c 188.93,84.19 305.39,251.6 305.39,441.38"
         style="fill:#ffffff;fill-opacity:1;fill-rule:nonzero;stroke:none"
         id="path54" />
      <path
         d="m 8502.87,1028.99 c -21.25,17.85 -50.59,17.14 -74.65,-1.68 -91.36,-70.869 -197.25,-136.439 -352.03,-136.439 -283.33,0 -513.82,238.689 -513.82,532.109 0,294.61 229.53,534.27 511.68,534.27 122.88,0 254.94,-51.53 352.33,-136.96 17.54,-17.62 33.68,-20.6 44.28,-19.89 9.6,0.59 23.64,4.7 36.45,20.77 l 92.21,94.88 c 12.04,12.15 18.43,27.76 17.93,43.97 -0.48,16.28 -7.9,31.63 -21.05,43.37 -160.45,140.13 -322.12,202.64 -524.23,202.64 -431.44,0 -782.44,-353.19 -782.44,-787.3 0,-431.769 351,-783.031 782.44,-783.031 202.97,0 385.27,73.27 527.35,212.051 12.18,12.281 19.13,29.941 18.56,47.25 -0.49,15 -6.66,28.461 -16.6,37.191 l -98.41,96.799"
         style="fill:#ffffff;fill-opacity:1;fill-rule:nonzero;stroke:none"
         id="path56" />
      <path
         d="m 9786.84,892.98 h -553.99 v 1232.29 c 0,31.68 -27.69,59.47 -59.24,59.47 h -139.56 c -32.65,0 -59.22,-26.69 -59.22,-59.47 V 716.469 c 0,-32.809 26.57,-59.5 59.22,-59.5 h 752.79 c 32.66,0 59.25,26.691 59.25,59.5 v 117.043 c 0,32.777 -26.59,59.468 -59.25,59.468"
         style="fill:#ffffff;fill-opacity:1;fill-rule:nonzero;stroke:none"
         id="path58" />
      <path
         d="m 11040.8,1946.59 c 32.6,0 59.2,26.7 59.2,59.5 v 119.18 c 0,32.78 -26.6,59.47 -59.2,59.47 h -845.9 c -32.6,0 -59.2,-26.69 -59.2,-59.47 V 716.469 c 0,-32.809 26.6,-59.5 59.2,-59.5 h 845.9 c 32.6,0 59.2,26.691 59.2,59.5 v 117.043 c 0,32.777 -26.6,59.468 -59.2,59.468 h -649.2 v 419.45 h 545.5 c 32.7,0 59.3,26.69 59.3,59.49 v 119.16 c 0,31.68 -27.7,59.49 -59.3,59.49 h -545.5 v 396.02 h 649.2"
         style="fill:#ffffff;fill-opacity:1;fill-rule:nonzero;stroke:none"
         id="path60" />
    </g>
  </g>
</svg>
