<svg width="533" height="423" viewBox="0 0 533 423" fill="none"
  xmlns="http://www.w3.org/2000/svg">
  <path d="M274.063 22.1539L338.319 58.245L365.063 32.2091L454.626 22.1539L507.216 80.6897L516.01 165.082L454.626 219.308L338.319 267.07L195.986 209.971L159.91 136.891L186.653 51.7809L274.063 22.1539Z" fill="black"/>
  <path fill-rule="evenodd" clip-rule="evenodd" d="M157.651 422.872C100.532 422.872 46.9158 410.68 0.520996 389.322L189.278 217.034C163.204 195.645 146.569 163.175 146.569 126.819C146.569 89.8029 163.814 56.8144 190.708 35.4494V10.1921H263.196C292.35 10.1922 319.006 20.8897 339.453 38.5736C359.899 20.8896 386.554 10.1921 415.709 10.1921H488.197V35.4496C515.091 56.8146 532.336 89.803 532.336 126.819C532.336 173.365 505.069 213.542 465.637 232.249C451.536 273.879 425.015 311.323 389.516 341.779V395.599H300.286C257.354 413.052 208.912 422.872 157.651 422.872ZM263.199 216.534C284.43 216.534 303.938 209.159 319.302 196.832L339.276 241.808L359.345 196.619C374.749 209.074 394.359 216.534 415.712 216.534C465.259 216.534 505.425 176.368 505.425 126.821C505.425 77.2736 465.259 37.1077 415.712 37.1077C383.517 37.1077 355.283 54.0666 339.456 79.5385C323.628 54.0666 295.394 37.1077 263.199 37.1077C213.652 37.1077 173.486 77.2736 173.486 126.821C173.486 176.368 213.652 216.534 263.199 216.534ZM263.2 189.616C297.883 189.616 325.999 161.5 325.999 126.817C325.999 92.1343 297.883 64.0182 263.2 64.0182C228.517 64.0182 200.401 92.1343 200.401 126.817C200.401 161.5 228.517 189.616 263.2 189.616ZM263.2 162.702C283.018 162.702 299.085 146.636 299.085 126.817C299.085 106.998 283.018 90.932 263.2 90.932C243.381 90.932 227.314 106.998 227.314 126.817C227.314 146.636 243.381 162.702 263.2 162.702ZM478.511 126.817C478.511 161.5 450.395 189.616 415.712 189.616C381.029 189.616 352.912 161.5 352.912 126.817C352.912 92.1343 381.029 64.0182 415.712 64.0182C450.395 64.0182 478.511 92.1343 478.511 126.817ZM451.597 126.817C451.597 146.636 435.53 162.702 415.711 162.702C395.893 162.702 379.826 146.636 379.826 126.817C379.826 106.998 395.893 90.932 415.711 90.932C435.53 90.932 451.597 106.998 451.597 126.817Z" fill="white"/>
  <path fill-rule="evenodd" clip-rule="evenodd" d="M300.286 395.599H389.516V341.779C425.015 311.323 451.536 273.879 465.637 232.249C505.069 213.542 532.336 173.365 532.336 126.819C532.336 89.803 515.091 56.8146 488.197 35.4496V10.1921H415.709C386.554 10.1921 359.899 20.8896 339.453 38.5736C319.006 20.8897 292.35 10.1922 263.196 10.1921H190.708V35.4494C163.814 56.8144 146.569 89.8029 146.569 126.819C146.569 156.634 157.758 183.837 176.165 204.456C180.202 208.98 184.587 213.186 189.278 217.034L0.520996 389.322C6.51463 392.081 12.629 394.687 18.8557 397.134C60.8277 413.627 107.911 422.872 157.651 422.872C208.912 422.872 257.354 413.052 300.286 395.599ZM327.709 64.4747C311.396 47.6001 288.523 37.1077 263.199 37.1077C213.652 37.1077 173.486 77.2736 173.486 126.821C173.486 176.368 213.652 216.534 263.199 216.534C277.848 216.534 291.677 213.023 303.89 206.797C309.377 203.999 314.539 200.654 319.302 196.832L339.276 241.808L359.345 196.619C364.097 200.461 369.25 203.828 374.73 206.647C387.014 212.967 400.946 216.534 415.712 216.534C465.259 216.534 505.425 176.368 505.425 126.821C505.425 77.2736 465.259 37.1077 415.712 37.1077C390.388 37.1077 367.515 47.6001 351.203 64.4747C346.777 69.0534 342.834 74.1021 339.456 79.5385C336.078 74.1021 332.135 69.0534 327.709 64.4747ZM339.276 197.14L349.706 173.656C345.44 167.655 341.972 161.046 339.456 153.986C336.897 161.168 333.352 167.882 328.984 173.965L339.276 197.14ZM263.2 144.572C273.006 144.572 280.955 136.623 280.955 126.817C280.955 117.011 273.006 109.062 263.2 109.062C253.394 109.062 245.445 117.011 245.445 126.817C245.445 136.623 253.394 144.572 263.2 144.572ZM415.712 144.572C425.517 144.572 433.467 136.623 433.467 126.817C433.467 117.011 425.517 109.062 415.712 109.062C405.906 109.062 397.957 117.011 397.957 126.817C397.957 136.623 405.906 144.572 415.712 144.572ZM325.999 126.817C325.999 161.5 297.883 189.616 263.2 189.616C228.517 189.616 200.401 161.5 200.401 126.817C200.401 92.1343 228.517 64.0182 263.2 64.0182C297.883 64.0182 325.999 92.1343 325.999 126.817ZM299.085 126.817C299.085 146.636 283.018 162.702 263.2 162.702C243.381 162.702 227.314 146.636 227.314 126.817C227.314 106.998 243.381 90.932 263.2 90.932C283.018 90.932 299.085 106.998 299.085 126.817ZM415.712 189.616C450.395 189.616 478.511 161.5 478.511 126.817C478.511 92.1343 450.395 64.0182 415.712 64.0182C381.029 64.0182 352.912 92.1343 352.912 126.817C352.912 161.5 381.029 189.616 415.712 189.616ZM415.711 162.702C435.53 162.702 451.597 146.636 451.597 126.817C451.597 106.998 435.53 90.932 415.711 90.932C395.893 90.932 379.826 106.998 379.826 126.817C379.826 146.636 395.893 162.702 415.711 162.702Z" fill="black"/>
  <path fill-rule="evenodd" clip-rule="evenodd" d="M157.651 422.872C100.532 422.872 46.9158 410.68 0.520996 389.322L189.278 217.034C163.204 195.645 146.569 163.175 146.569 126.819C146.569 89.8029 163.814 56.8144 190.708 35.4494V10.1921H263.196C292.35 10.1922 319.006 20.8897 339.453 38.5736C359.899 20.8896 386.554 10.1921 415.709 10.1921H488.197V35.4496C515.091 56.8146 532.336 89.803 532.336 126.819C532.336 173.365 505.069 213.542 465.637 232.249C451.536 273.879 425.015 311.323 389.516 341.779V395.599H300.286C257.354 413.052 208.912 422.872 157.651 422.872ZM263.199 216.534C284.43 216.534 303.938 209.159 319.302 196.832L339.276 241.808L359.345 196.619C374.749 209.074 394.359 216.534 415.712 216.534C465.259 216.534 505.425 176.368 505.425 126.821C505.425 77.2736 465.259 37.1077 415.712 37.1077C383.517 37.1077 355.283 54.0666 339.456 79.5385C323.628 54.0666 295.394 37.1077 263.199 37.1077C213.652 37.1077 173.486 77.2736 173.486 126.821C173.486 176.368 213.652 216.534 263.199 216.534ZM263.2 189.616C297.883 189.616 325.999 161.5 325.999 126.817C325.999 92.1343 297.883 64.0182 263.2 64.0182C228.517 64.0182 200.401 92.1343 200.401 126.817C200.401 161.5 228.517 189.616 263.2 189.616ZM263.2 162.702C283.018 162.702 299.085 146.636 299.085 126.817C299.085 106.998 283.018 90.932 263.2 90.932C243.381 90.932 227.314 106.998 227.314 126.817C227.314 146.636 243.381 162.702 263.2 162.702ZM478.511 126.817C478.511 161.5 450.395 189.616 415.712 189.616C381.029 189.616 352.912 161.5 352.912 126.817C352.912 92.1343 381.029 64.0182 415.712 64.0182C450.395 64.0182 478.511 92.1343 478.511 126.817ZM451.597 126.817C451.597 146.636 435.53 162.702 415.711 162.702C395.893 162.702 379.826 146.636 379.826 126.817C379.826 106.998 395.893 90.932 415.711 90.932C435.53 90.932 451.597 106.998 451.597 126.817Z" fill="white"/>
  <path d="M352.403 126.075C352.403 175.689 312.182 215.909 262.568 215.909C212.954 215.909 172.734 175.689 172.734 126.075C172.734 76.4612 212.954 36.241 262.568 36.241C312.182 36.241 352.403 76.4612 352.403 126.075Z" fill="black"/>
  <path d="M505.122 126.075C505.122 175.689 464.902 215.91 415.288 215.91C365.674 215.91 325.454 175.689 325.454 126.075C325.454 76.4612 365.674 36.241 415.288 36.241C464.902 36.241 505.122 76.4612 505.122 126.075Z" fill="black"/>
  <path d="M325.45 126.075C325.45 160.805 297.296 188.959 262.566 188.959C227.836 188.959 199.682 160.805 199.682 126.075C199.682 91.3455 227.836 63.1914 262.566 63.1914C297.296 63.1914 325.45 91.3455 325.45 126.075Z" fill="white"/>
  <path d="M478.169 126.075C478.169 160.805 450.015 188.959 415.285 188.959C380.555 188.959 352.401 160.805 352.401 126.075C352.401 91.3455 380.555 63.1914 415.285 63.1914C450.015 63.1914 478.169 91.3455 478.169 126.075Z" fill="white"/>
  <path d="M298.502 126.075C298.502 145.921 282.414 162.009 262.569 162.009C242.723 162.009 226.635 145.921 226.635 126.075C226.635 106.229 242.723 90.1413 262.569 90.1413C282.414 90.1413 298.502 106.229 298.502 126.075Z" fill="black"/>
  <path d="M451.222 126.075C451.222 145.921 435.134 162.009 415.288 162.009C395.443 162.009 379.355 145.921 379.355 126.075C379.355 106.229 395.443 90.1413 415.288 90.1413C435.134 90.1413 451.222 106.229 451.222 126.075Z" fill="black"/>
  <path d="M338.751 241.217L307.632 171.147H369.87L338.751 241.217Z" fill="black"/>
</svg>