<svg width="576" height="576" viewBox="0 0 576 576" fill="none" xmlns="http://www.w3.org/2000/svg">
<rect width="576" height="576" fill="black"/>
<g clip-path="url(#clip0_3871_25733)">
<path d="M258.075 249.992C265.315 249.992 271.877 251.558 277.763 254.687C283.644 257.815 288.284 262.246 291.681 267.979C295.075 273.709 296.774 280.324 296.774 287.817C296.774 295.311 295.029 301.926 291.544 307.655C288.059 313.384 283.353 317.815 277.426 320.948C271.499 324.076 264.866 325.643 257.535 325.643C250.204 325.643 243.778 324.076 237.984 320.948C232.19 317.819 227.642 313.389 224.34 307.655C223.966 307.008 223.613 306.349 223.281 305.677C222.932 306.349 222.562 307.008 222.167 307.655C218.683 313.384 213.977 317.815 208.045 320.948C202.118 324.076 195.485 325.643 188.154 325.643C180.823 325.643 174.397 324.076 168.603 320.948C162.809 317.819 158.261 313.389 154.959 307.655C151.652 301.926 149.999 295.311 149.999 287.817C149.999 280.324 151.698 273.709 155.092 267.979C158.485 262.25 163.125 257.819 169.01 254.687C174.892 251.558 181.454 249.992 188.694 249.992C195.933 249.992 202.496 251.558 208.382 254.687C214.263 257.815 218.903 262.246 222.3 267.979C222.687 268.631 223.048 269.29 223.389 269.962C223.725 269.29 224.086 268.631 224.473 267.979C227.866 262.25 232.506 257.819 238.391 254.687C244.273 251.558 250.835 249.992 258.079 249.992H258.075ZM258.075 267.979C254.262 267.979 250.81 268.8 247.712 270.44C244.613 272.081 242.175 274.405 240.389 277.41C238.603 280.415 237.71 283.885 237.71 287.813C237.71 291.741 238.578 295.212 240.318 298.216C242.059 301.221 244.451 303.546 247.5 305.186C250.549 306.827 253.979 307.647 257.792 307.647C261.605 307.647 265.14 306.827 268.259 305.186C271.379 303.546 273.858 301.221 275.69 298.216C277.526 295.212 278.44 291.741 278.44 287.813C278.44 283.885 277.547 280.415 275.761 277.41C273.975 274.405 271.532 272.081 268.438 270.44C265.339 268.8 261.888 267.979 258.075 267.979ZM189.034 267.979C185.221 267.979 181.77 268.8 178.671 270.44C175.573 272.081 173.135 274.405 171.349 277.41C169.563 280.415 168.67 283.885 168.67 287.813C168.67 291.741 169.538 295.212 171.278 298.216C173.018 301.221 175.411 303.546 178.459 305.186C181.508 306.827 184.939 307.647 188.748 307.647C192.557 307.647 196.095 306.827 199.215 305.186C202.334 303.546 204.814 301.221 206.646 298.216H220.572C219.775 294.96 219.376 291.494 219.376 287.813C219.376 284.553 219.696 281.462 220.34 278.535H206.646C205.329 274.76 202.488 272.076 199.393 270.436C196.295 268.796 192.843 267.975 189.03 267.975L189.034 267.979ZM389.145 249.992C396.297 249.992 402.698 251.492 408.355 254.489C414.012 257.486 418.402 261.739 421.526 267.25C424.649 272.761 426.211 279.088 426.211 286.23C426.211 288.877 426.028 291.255 425.667 293.373H370.678L370.757 294.157C371.326 299.074 373.199 302.956 376.381 305.805C379.728 308.801 383.849 310.301 388.738 310.301C395.799 310.301 400.82 307.346 403.807 301.44H424.309L424.026 302.314C421.783 308.974 417.717 314.477 411.819 318.829C405.663 323.371 398.104 325.638 389.145 325.638C381.905 325.638 375.409 324.072 369.66 320.944C363.912 317.815 359.434 313.384 356.219 307.651C353.004 301.922 351.401 295.307 351.401 287.813C351.401 281.342 352.556 275.543 354.865 270.42H348.901L348.066 270.432C344.224 270.535 341.071 271.363 338.604 272.913C335.962 274.574 334.048 276.845 332.86 279.726C331.672 282.607 331.078 285.897 331.078 289.594V308.393H351.671V325.321H295.295V308.393H310.501V269.253H295.295V252.325H329.549L330.176 265.004L330.7 264.097C331.946 262.015 333.408 260.148 335.082 258.487C336.997 256.591 339.368 255.091 342.197 253.986C345.025 252.877 348.456 252.325 352.494 252.325H361.179V260.94C363.554 258.434 366.312 256.327 369.461 254.625C375.164 251.538 381.726 249.996 389.149 249.996L389.145 249.992ZM388.6 265.201C383.894 265.201 379.932 266.59 376.721 269.368C373.506 272.147 371.538 276.004 370.815 280.942H406.523C406.432 276.182 404.666 272.369 401.227 269.5C397.788 266.632 393.581 265.201 388.6 265.201Z" fill="white"/>
</g>
<defs>
<clipPath id="clip0_3871_25733">
<rect width="276.212" height="75.6503" fill="white" transform="translate(150 250)"/>
</clipPath>
</defs>
</svg>
