<svg width="120" height="36" viewBox="0 0 120 36" fill="none" xmlns="http://www.w3.org/2000/svg">
<g clip-path="url(#clip0_2529_4726)">
<path d="M46.953 0.854004C50.0989 0.854004 52.9499 1.55201 55.506 2.94801C58.062 4.34402 60.0774 6.32005 61.5521 8.87612C63.0267 11.4322 63.7641 14.3815 63.7641 17.7241C63.7641 21.0666 63.0071 24.0159 61.4931 26.572C59.9791 29.128 57.9343 31.1041 55.3586 32.5001C52.7828 33.8961 49.9023 34.5941 46.717 34.5941C43.5711 34.5941 40.7398 33.8961 38.223 32.5001C35.7063 31.1041 33.7303 29.128 32.2949 26.572C30.8596 24.0159 30.1419 21.0666 30.1419 17.7241C30.1419 14.3815 30.8793 11.4322 32.3539 8.87612C33.8286 6.32005 35.8439 4.34402 38.4 2.94801C40.9561 1.55201 43.8071 0.854004 46.953 0.854004ZM46.953 8.87612C45.2972 8.87612 43.7967 9.24222 42.4514 9.97439C41.1061 10.7066 40.0454 11.7429 39.2693 13.0835C38.4932 14.4241 38.1051 15.971 38.1051 17.7241C38.1051 19.4771 38.4828 21.024 39.2382 22.3646C39.9937 23.7052 41.0337 24.7416 42.3583 25.4737C43.6829 26.2059 45.1731 26.572 46.8288 26.572C48.5053 26.572 50.0213 26.2059 51.3769 25.4737C52.7326 24.7416 53.8089 23.7052 54.6057 22.3646C55.4025 21.024 55.8009 19.4771 55.8009 17.7241C55.8009 15.971 55.4129 14.4241 54.6367 13.0835C53.8606 11.7429 52.7999 10.7066 51.4546 9.97439C50.1093 9.24222 48.6087 8.87612 46.953 8.87612ZM16.8111 0.854004C19.957 0.854004 22.808 1.55201 25.3641 2.94801C27.9201 4.34402 29.9355 6.32005 31.4101 8.87612C32.2436 10.3209 32.8416 11.8913 33.204 13.5873L24.6112 13.5875C24.0382 11.902 22.8054 10.7066 21.4601 9.97439C20.1148 9.24222 18.6143 8.87612 16.9586 8.87612C15.3028 8.87612 13.8023 9.24222 12.457 9.97439C11.1117 10.7066 10.0509 11.7429 9.2748 13.0835C8.49867 14.4241 8.11061 15.971 8.11061 17.7241C8.11061 19.4771 8.48831 21.024 9.24375 22.3646C9.99919 23.7052 11.0392 24.7416 12.3638 25.4737C13.6884 26.2059 15.1786 26.572 16.8343 26.572C18.5108 26.572 20.0269 26.2059 21.3825 25.4737C22.7381 24.7416 23.8144 23.7052 24.6112 22.3646L33.0743 22.3646C32.6959 23.8689 32.1215 25.2713 31.3512 26.572C29.8372 29.128 27.7923 31.1041 25.2166 32.5001C22.6409 33.8961 19.7604 34.5941 16.5751 34.5941C13.4292 34.5941 10.5979 33.8961 8.08113 32.5001C5.56439 31.1041 3.5883 29.128 2.15297 26.572C0.717638 24.0159 0 21.0666 0 17.7241C0 14.3815 0.737319 11.4322 2.21197 8.87612C3.68663 6.32005 5.70202 4.34402 8.25809 2.94801C10.8142 1.55201 13.6651 0.854004 16.8111 0.854004ZM103.897 0.854004C107.003 0.854004 109.786 1.52252 112.243 2.85954C114.701 4.19656 116.608 6.09394 117.965 8.5517C119.322 11.0095 120 13.831 120 17.0162C120 18.1959 119.921 19.2577 119.764 20.2015H95.8747L95.9089 20.5516C96.1554 22.7445 96.9698 24.476 98.3521 25.7462C99.8071 27.0832 101.596 27.7517 103.72 27.7517C106.787 27.7517 108.97 26.4343 110.267 23.7996H119.174L119.052 24.1899C118.078 27.16 116.31 29.6155 113.747 31.5563C111.073 33.5815 107.79 34.5941 103.897 34.5941C100.751 34.5941 97.9294 33.8961 95.4323 32.5001C92.9352 31.1041 90.9886 29.128 89.5926 26.572C88.1966 24.0159 87.4986 21.0666 87.4986 17.7241C87.4986 14.8373 88 12.2513 89.0029 9.96627L86.4121 9.96636L86.05 9.97129C84.3814 10.0174 83.0113 10.3865 81.9397 11.0786C80.7917 11.8201 79.9599 12.8331 79.4445 14.1174C78.929 15.4018 78.6712 16.869 78.6712 18.519V26.9033H87.6179V34.454H63.1253V26.9033H69.7315V9.44363H63.1253V1.8939H78.007L78.2792 7.54778L78.5057 7.1442C79.0473 6.21602 79.6818 5.38233 80.4092 4.64313C81.2405 3.79833 82.2707 3.12891 83.5 2.6349C84.7292 2.14089 86.2203 1.8939 87.9733 1.8939H91.7461L91.746 5.7352C92.7777 4.61676 93.9769 3.67787 95.3438 2.91853C97.8212 1.54218 100.672 0.854004 103.897 0.854004ZM103.661 7.63742C101.616 7.63742 99.8956 8.25677 98.4995 9.49548C97.1035 10.7342 96.2482 12.4546 95.9336 14.6568H111.447C111.408 12.5333 110.641 10.8325 109.147 9.55446C107.652 8.27643 105.824 7.63742 103.661 7.63742Z" fill="white"/>
</g>
<defs>
<clipPath id="clip0_2529_4726">
<rect width="120" height="34.56" fill="white" transform="translate(0 0.854004)"/>
</clipPath>
</defs>
</svg>
