<svg width="232" height="232" viewBox="0 0 232 232" fill="none" xmlns="http://www.w3.org/2000/svg">
<path d="M43.3326 190.327C40.9775 190.327 38.7989 189.944 36.7971 189.179C34.8246 188.384 33.1024 187.28 31.6304 185.866C30.1879 184.424 29.0545 182.746 28.2302 180.832C27.4059 178.918 26.9937 176.813 26.9937 174.516C26.9937 172.22 27.4059 170.115 28.2302 168.201C29.0545 166.287 30.2026 164.624 31.6746 163.211C33.1466 161.768 34.8688 160.664 36.8412 159.898C38.8431 159.104 41.0216 158.706 43.3768 158.706C45.7614 158.706 47.9546 159.118 49.9565 159.943C51.9878 160.738 53.71 161.93 55.1231 163.52L52.2528 166.302C51.0752 165.066 49.7504 164.153 48.2785 163.564C46.8065 162.946 45.2315 162.637 43.5534 162.637C41.8165 162.637 40.1973 162.931 38.6959 163.52C37.2239 164.109 35.9433 164.933 34.8541 165.993C33.7648 167.053 32.911 168.319 32.2928 169.791C31.704 171.234 31.4096 172.809 31.4096 174.516C31.4096 176.224 31.704 177.814 32.2928 179.286C32.911 180.729 33.7648 181.98 34.8541 183.04C35.9433 184.1 37.2239 184.924 38.6959 185.513C40.1973 186.102 41.8165 186.396 43.5534 186.396C45.2315 186.396 46.8065 186.102 48.2785 185.513C49.7504 184.895 51.0752 183.953 52.2528 182.687L55.1231 185.469C53.71 187.059 51.9878 188.266 49.9565 189.09C47.9546 189.915 45.7467 190.327 43.3326 190.327Z" fill="white"/>
<path d="M92.3939 190.327C90.0387 190.327 87.8455 189.929 85.8141 189.134C83.8122 188.34 82.0753 187.235 80.6033 185.822C79.1314 184.38 77.9832 182.701 77.1589 180.788C76.3346 178.874 75.9225 176.784 75.9225 174.516C75.9225 172.249 76.3346 170.159 77.1589 168.245C77.9832 166.332 79.1314 164.668 80.6033 163.255C82.0753 161.812 83.8122 160.693 85.8141 159.898C87.816 159.104 90.0093 158.706 92.3939 158.706C94.749 158.706 96.9128 159.104 98.8853 159.898C100.887 160.664 102.624 161.768 104.096 163.211C105.597 164.624 106.746 166.287 107.54 168.201C108.365 170.115 108.777 172.22 108.777 174.516C108.777 176.813 108.365 178.918 107.54 180.832C106.746 182.746 105.597 184.424 104.096 185.866C102.624 187.28 100.887 188.384 98.8853 189.179C96.9128 189.944 94.749 190.327 92.3939 190.327ZM92.3939 186.396C94.1013 186.396 95.6764 186.102 97.1189 185.513C98.5909 184.924 99.8568 184.1 100.917 183.04C102.006 181.951 102.845 180.685 103.434 179.242C104.052 177.799 104.361 176.224 104.361 174.516C104.361 172.809 104.052 171.234 103.434 169.791C102.845 168.348 102.006 167.097 100.917 166.037C99.8568 164.948 98.5909 164.109 97.1189 163.52C95.6764 162.931 94.1013 162.637 92.3939 162.637C90.6569 162.637 89.0525 162.931 87.5805 163.52C86.138 164.109 84.8721 164.948 83.7828 166.037C82.6936 167.097 81.8398 168.348 81.2216 169.791C80.6328 171.234 80.3384 172.809 80.3384 174.516C80.3384 176.224 80.6328 177.799 81.2216 179.242C81.8398 180.685 82.6936 181.951 83.7828 183.04C84.8721 184.1 86.138 184.924 87.5805 185.513C89.0525 186.102 90.6569 186.396 92.3939 186.396Z" fill="white"/>
<path d="M133.19 189.974V159.059H145.246C147.954 159.059 150.265 159.486 152.179 160.34C154.092 161.194 155.564 162.43 156.594 164.05C157.625 165.669 158.14 167.598 158.14 169.835C158.14 172.073 157.625 174.001 156.594 175.621C155.564 177.21 154.092 178.432 152.179 179.286C150.265 180.14 147.954 180.567 145.246 180.567H135.619L137.606 178.535V189.974H133.19ZM153.857 189.974L145.996 178.756H150.721L158.67 189.974H153.857ZM137.606 178.977L135.619 176.813H145.113C147.939 176.813 150.074 176.209 151.516 175.002C152.988 173.766 153.724 172.043 153.724 169.835C153.724 167.627 152.988 165.919 151.516 164.712C150.074 163.505 147.939 162.902 145.113 162.902H135.619L137.606 160.693V178.977Z" fill="white"/>
<path d="M186.957 172.397H202.854V176.151H186.957V172.397ZM187.354 186.131H205.371V189.974H182.938V159.059H204.753V162.902H187.354V186.131Z" fill="white"/>
<path d="M118.832 45.6031L130.486 52.1488L135.336 47.4267L151.58 45.6031L161.118 56.2195L162.713 71.5254L151.58 81.3602L130.486 90.0227L104.671 79.6668L98.128 66.4126L102.978 50.9764L118.832 45.6031Z" fill="black"/>
<path fill-rule="evenodd" clip-rule="evenodd" d="M97.7183 118.28C87.359 118.28 77.6347 116.069 69.2202 112.195L103.454 80.9478C98.7256 77.0686 95.7085 71.1795 95.7085 64.5858C95.7085 57.8723 98.8362 51.8893 103.714 48.0144V43.4336H116.861C122.148 43.4336 126.983 45.3738 130.691 48.581C134.399 45.3738 139.234 43.4336 144.521 43.4336H157.668V48.0145C162.546 51.8894 165.674 57.8723 165.674 64.5858C165.674 73.0277 160.728 80.3145 153.577 83.7072C151.019 91.2577 146.209 98.0487 139.771 103.572V113.334H123.588C115.801 116.499 107.015 118.28 97.7183 118.28ZM116.861 80.8571C120.712 80.8571 124.25 79.5196 127.036 77.2838L130.659 85.4409L134.299 77.2452C137.093 79.5042 140.649 80.8571 144.522 80.8571C153.508 80.8571 160.793 73.5723 160.793 64.5861C160.793 55.5999 153.508 48.3152 144.522 48.3152C138.683 48.3152 133.562 51.391 130.692 56.0107C127.821 51.391 122.7 48.3152 116.861 48.3152C107.875 48.3152 100.59 55.5999 100.59 64.5861C100.59 73.5723 107.875 80.8571 116.861 80.8571ZM116.861 75.9752C123.152 75.9752 128.251 70.8758 128.251 64.5855C128.251 58.2952 123.152 53.1958 116.861 53.1958C110.571 53.1958 105.472 58.2952 105.472 64.5855C105.472 70.8758 110.571 75.9752 116.861 75.9752ZM116.861 71.0939C120.456 71.0939 123.37 68.18 123.37 64.5855C123.37 60.991 120.456 58.0771 116.861 58.0771C113.267 58.0771 110.353 60.991 110.353 64.5855C110.353 68.18 113.267 71.0939 116.861 71.0939ZM155.912 64.5855C155.912 70.8758 150.812 75.9752 144.522 75.9752C138.232 75.9752 133.132 70.8758 133.132 64.5855C133.132 58.2952 138.232 53.1958 144.522 53.1958C150.812 53.1958 155.912 58.2952 155.912 64.5855ZM151.03 64.5855C151.03 68.18 148.116 71.0939 144.522 71.0939C140.927 71.0939 138.014 68.18 138.014 64.5855C138.014 60.991 140.927 58.0771 144.522 58.0771C148.116 58.0771 151.03 60.991 151.03 64.5855Z" fill="white"/>
<path fill-rule="evenodd" clip-rule="evenodd" d="M123.588 113.334H139.771V103.572C146.209 98.0487 151.019 91.2577 153.577 83.7072C160.728 80.3145 165.674 73.0277 165.674 64.5858C165.674 57.8723 162.546 51.8894 157.668 48.0145V43.4336H144.521C139.234 43.4336 134.399 45.3738 130.691 48.581C126.983 45.3738 122.148 43.4336 116.861 43.4336H103.714V48.0144C98.8362 51.8893 95.7085 57.8723 95.7085 64.5858C95.7085 69.9933 97.7377 74.9269 101.076 78.6666C101.808 79.487 102.604 80.2499 103.454 80.9478L69.2202 112.195C70.3073 112.696 71.4162 113.168 72.5455 113.612C80.1579 116.603 88.6973 118.28 97.7183 118.28C107.015 118.28 115.801 116.499 123.588 113.334ZM128.561 53.2786C125.603 50.2181 121.454 48.3152 116.861 48.3152C107.875 48.3152 100.59 55.5999 100.59 64.5861C100.59 73.5723 107.875 80.8571 116.861 80.8571C119.518 80.8571 122.026 80.2203 124.241 79.0911C125.236 78.5837 126.173 77.9769 127.036 77.2838L130.659 85.4409L134.299 77.2452C135.161 77.942 136.095 78.5527 137.089 79.064C139.317 80.2101 141.844 80.8571 144.522 80.8571C153.508 80.8571 160.793 73.5723 160.793 64.5861C160.793 55.5999 153.508 48.3152 144.522 48.3152C139.929 48.3152 135.781 50.2181 132.822 53.2786C132.02 54.1091 131.304 55.0247 130.692 56.0107C130.079 55.0247 129.364 54.1091 128.561 53.2786ZM130.659 77.3396L132.551 73.0804C131.777 71.992 131.148 70.7935 130.692 69.513C130.228 70.8156 129.585 72.0333 128.793 73.1366L130.659 77.3396ZM116.861 67.8056C118.64 67.8056 120.082 66.3639 120.082 64.5855C120.082 62.807 118.64 61.3653 116.861 61.3653C115.083 61.3653 113.641 62.807 113.641 64.5855C113.641 66.3639 115.083 67.8056 116.861 67.8056ZM144.522 67.8056C146.3 67.8056 147.742 66.3639 147.742 64.5855C147.742 62.807 146.3 61.3653 144.522 61.3653C142.743 61.3653 141.302 62.807 141.302 64.5855C141.302 66.3639 142.743 67.8056 144.522 67.8056ZM128.251 64.5855C128.251 70.8758 123.152 75.9752 116.861 75.9752C110.571 75.9752 105.472 70.8758 105.472 64.5855C105.472 58.2952 110.571 53.1958 116.861 53.1958C123.152 53.1958 128.251 58.2952 128.251 64.5855ZM123.37 64.5855C123.37 68.18 120.456 71.0939 116.861 71.0939C113.267 71.0939 110.353 68.18 110.353 64.5855C110.353 60.991 113.267 58.0771 116.861 58.0771C120.456 58.0771 123.37 60.991 123.37 64.5855ZM144.522 75.9752C150.812 75.9752 155.912 70.8758 155.912 64.5855C155.912 58.2952 150.812 53.1958 144.522 53.1958C138.232 53.1958 133.132 58.2952 133.132 64.5855C133.132 70.8758 138.232 75.9752 144.522 75.9752ZM144.522 71.0939C148.116 71.0939 151.03 68.18 151.03 64.5855C151.03 60.991 148.116 58.0771 144.522 58.0771C140.927 58.0771 138.014 60.991 138.014 64.5855C138.014 68.18 140.927 71.0939 144.522 71.0939Z" fill="black"/>
<path fill-rule="evenodd" clip-rule="evenodd" d="M97.7183 118.28C87.359 118.28 77.6347 116.069 69.2202 112.195L103.454 80.9478C98.7256 77.0686 95.7085 71.1795 95.7085 64.5858C95.7085 57.8723 98.8362 51.8893 103.714 48.0144V43.4336H116.861C122.148 43.4336 126.983 45.3738 130.691 48.581C134.399 45.3738 139.234 43.4336 144.521 43.4336H157.668V48.0145C162.546 51.8894 165.674 57.8723 165.674 64.5858C165.674 73.0277 160.728 80.3145 153.577 83.7072C151.019 91.2577 146.209 98.0487 139.771 103.572V113.334H123.588C115.801 116.499 107.015 118.28 97.7183 118.28ZM116.861 80.8571C120.712 80.8571 124.25 79.5196 127.036 77.2838L130.659 85.4409L134.299 77.2452C137.093 79.5042 140.649 80.8571 144.522 80.8571C153.508 80.8571 160.793 73.5723 160.793 64.5861C160.793 55.5999 153.508 48.3152 144.522 48.3152C138.683 48.3152 133.562 51.391 130.692 56.0107C127.821 51.391 122.7 48.3152 116.861 48.3152C107.875 48.3152 100.59 55.5999 100.59 64.5861C100.59 73.5723 107.875 80.8571 116.861 80.8571ZM116.861 75.9752C123.152 75.9752 128.251 70.8758 128.251 64.5855C128.251 58.2952 123.152 53.1958 116.861 53.1958C110.571 53.1958 105.472 58.2952 105.472 64.5855C105.472 70.8758 110.571 75.9752 116.861 75.9752ZM116.861 71.0939C120.456 71.0939 123.37 68.18 123.37 64.5855C123.37 60.991 120.456 58.0771 116.861 58.0771C113.267 58.0771 110.353 60.991 110.353 64.5855C110.353 68.18 113.267 71.0939 116.861 71.0939ZM155.912 64.5855C155.912 70.8758 150.812 75.9752 144.522 75.9752C138.232 75.9752 133.132 70.8758 133.132 64.5855C133.132 58.2952 138.232 53.1958 144.522 53.1958C150.812 53.1958 155.912 58.2952 155.912 64.5855ZM151.03 64.5855C151.03 68.18 148.116 71.0939 144.522 71.0939C140.927 71.0939 138.014 68.18 138.014 64.5855C138.014 60.991 140.927 58.0771 144.522 58.0771C148.116 58.0771 151.03 60.991 151.03 64.5855Z" fill="white"/>
<path d="M133.04 64.4509C133.04 73.4493 125.745 80.7438 116.747 80.7438C107.749 80.7438 100.454 73.4493 100.454 64.4509C100.454 55.4526 107.749 48.158 116.747 48.158C125.745 48.158 133.04 55.4526 133.04 64.4509Z" fill="black"/>
<path d="M160.738 64.4509C160.738 73.4493 153.443 80.7439 144.445 80.7439C135.447 80.7439 128.152 73.4493 128.152 64.4509C128.152 55.4526 135.447 48.158 144.445 48.158C153.443 48.158 160.738 55.4526 160.738 64.4509Z" fill="black"/>
<path d="M128.151 64.4509C128.151 70.7498 123.045 75.856 116.746 75.856C110.448 75.856 105.341 70.7498 105.341 64.4509C105.341 58.1521 110.448 53.0459 116.746 53.0459C123.045 53.0459 128.151 58.1521 128.151 64.4509Z" fill="white"/>
<path d="M155.85 64.4509C155.85 70.7498 150.743 75.856 144.445 75.856C138.146 75.856 133.04 70.7498 133.04 64.4509C133.04 58.1521 138.146 53.0459 144.445 53.0459C150.743 53.0459 155.85 58.1521 155.85 64.4509Z" fill="white"/>
<path d="M123.264 64.4509C123.264 68.0502 120.346 70.9681 116.747 70.9681C113.148 70.9681 110.23 68.0502 110.23 64.4509C110.23 60.8515 113.148 57.9337 116.747 57.9337C120.346 57.9337 123.264 60.8515 123.264 64.4509Z" fill="black"/>
<path d="M150.962 64.4509C150.962 68.0502 148.045 70.9681 144.445 70.9681C140.846 70.9681 137.928 68.0502 137.928 64.4509C137.928 60.8515 140.846 57.9337 144.445 57.9337C148.045 57.9337 150.962 60.8515 150.962 64.4509Z" fill="black"/>
<path d="M130.564 85.3338L124.92 72.6254H136.208L130.564 85.3338Z" fill="black"/>
</svg>
