<svg width="40" height="40" viewBox="0 0 40 40" fill="none" xmlns="http://www.w3.org/2000/svg">
<mask id="mask0_19978_233540" style="mask-type:alpha" maskUnits="userSpaceOnUse" x="0" y="0" width="40" height="40">
<rect width="40" height="40" fill="#D9D9D9"/>
</mask>
<g mask="url(#mask0_19978_233540)">
<path d="M11.4583 19.9987L15.5208 24.0612C15.8403 24.3806 15.9965 24.7487 15.9896 25.1654C15.9826 25.582 15.8297 25.9501 15.5308 26.2695C15.2047 26.589 14.8299 26.7522 14.4062 26.7591C13.9826 26.7661 13.6111 26.6098 13.2917 26.2904L8.10417 21.1029C7.78472 20.7885 7.625 20.4217 7.625 20.0025C7.625 19.5833 7.78472 19.214 8.10417 18.8945L13.2917 13.707C13.6111 13.3876 13.9826 13.2313 14.4062 13.2383C14.8299 13.2452 15.2047 13.4084 15.5308 13.7279C15.8297 14.0473 15.9826 14.4154 15.9896 14.832C15.9965 15.2487 15.8403 15.6168 15.5208 15.9362L11.4583 19.9987ZM8.66667 28.207H11.7917V29.9154H28.2083V28.207H31.3333V34.7904C31.3333 35.6498 31.0273 36.3854 30.4154 36.9974C29.8034 37.6094 29.0677 37.9154 28.2083 37.9154H11.7917C10.9323 37.9154 10.1966 37.6094 9.58463 36.9974C8.97265 36.3854 8.66667 35.6498 8.66667 34.7904V28.207ZM11.7917 11.7904H8.66667V5.20703C8.66667 4.34764 8.97265 3.61196 9.58463 2.99999C10.1966 2.38802 10.9323 2.08203 11.7917 2.08203H28.2083C29.0677 2.08203 29.8034 2.38802 30.4154 2.99999C31.0273 3.61196 31.3333 4.34764 31.3333 5.20703V11.7904H28.2083V10.082H11.7917V11.7904ZM11.7917 33.0404V34.7904H28.2083V33.0404H11.7917ZM11.7917 6.95703H28.2083V5.20703H11.7917V6.95703ZM28.5417 19.9987L24.4792 15.9362C24.1597 15.6168 24.0035 15.2487 24.0104 14.832C24.0174 14.4154 24.1703 14.0473 24.4692 13.7279C24.7953 13.4084 25.1701 13.2452 25.5938 13.2383C26.0174 13.2313 26.3889 13.3876 26.7083 13.707L31.8958 18.8945C32.2153 19.2089 32.375 19.5757 32.375 19.9949C32.375 20.4141 32.2153 20.7834 31.8958 21.1029L26.7083 26.2904C26.3889 26.6098 26.0174 26.7661 25.5938 26.7591C25.1701 26.7522 24.7953 26.589 24.4692 26.2695C24.1703 25.9501 24.0174 25.582 24.0104 25.1654C24.0035 24.7487 24.1597 24.3806 24.4792 24.0612L28.5417 19.9987Z" fill="#F8F8FB"/>
</g>
</svg>
