<svg width="101" height="16" viewBox="0 0 101 16" fill="none" xmlns="http://www.w3.org/2000/svg">
<g clip-path="url(#clip0_22791_57093)">
<path d="M21.9189 5.21094H22.7788L25.1848 10.7883H24.0488L23.5282 9.51211H21.1064L20.6015 10.7883H19.4893L21.9189 5.21094ZM23.1811 8.66135L22.3213 6.39259L21.4456 8.66135H23.1811Z" fill="currentColor"/>
<path d="M26.251 5.21094H27.3948L28.9173 9.42546L30.487 5.21094H31.5601L29.3038 10.7883H28.444L26.251 5.21094Z" fill="currentColor"/>
<path d="M35.1117 5.21094H35.9717L38.3775 10.7883H37.2416L36.7211 9.51211H34.2992L33.7943 10.7883H32.6821L35.1117 5.21094ZM36.3739 8.66135L35.5141 6.39259L34.6385 8.66135H36.3739Z" fill="currentColor"/>
<path d="M40.5762 5.21094H41.5702V9.89025H43.9445V10.7883H40.5762V5.21094Z" fill="currentColor"/>
<path d="M48.0511 5.21094H48.9112L51.317 10.7883H50.1811L49.6605 9.51211H47.2387L46.7337 10.7883H45.6216L48.0511 5.21094ZM49.3134 8.66135L48.4536 6.39259L47.5779 8.66135H49.3134Z" fill="currentColor"/>
<path d="M53.5151 5.21094H54.8326L57.5382 9.35456H57.5541V5.21094H58.5479V10.7883H57.2859L54.5248 6.51074H54.5091V10.7883H53.5151V5.21094Z" fill="currentColor"/>
<path d="M65.2053 6.51783C65.0003 6.29727 64.8005 6.15023 64.6058 6.07668C64.4164 6.00316 64.2245 5.96641 64.0301 5.96641C63.7408 5.96641 63.4778 6.01891 63.2411 6.12396C63.0098 6.22375 62.8099 6.36555 62.6416 6.54936C62.4732 6.72791 62.3419 6.93798 62.2471 7.17957C62.1577 7.42115 62.1131 7.68111 62.1131 7.95944C62.1131 8.25879 62.1577 8.53452 62.2471 8.78659C62.3419 9.03868 62.4732 9.25662 62.6416 9.44044C62.8099 9.62425 63.0098 9.76867 63.2411 9.87372C63.4778 9.97875 63.7408 10.0313 64.0301 10.0313C64.2562 10.0313 64.4743 9.97875 64.6848 9.87372C64.9003 9.76343 65.1001 9.59012 65.2843 9.35378L66.1045 9.93673C65.8522 10.2833 65.5446 10.5354 65.1816 10.693C64.8188 10.8505 64.4322 10.9293 64.0221 10.9293C63.5907 10.9293 63.1938 10.861 62.831 10.7245C62.4732 10.5827 62.1629 10.3858 61.9001 10.1337C61.6423 9.87634 61.4398 9.5691 61.2927 9.21199C61.1453 8.85487 61.0718 8.45835 61.0718 8.02247C61.0718 7.57608 61.1453 7.17168 61.2927 6.80932C61.4398 6.44169 61.6423 6.12921 61.9001 5.87187C62.1629 5.61454 62.4732 5.41759 62.831 5.28106C63.1938 5.13926 63.5907 5.06836 64.0221 5.06836C64.4008 5.06836 64.7504 5.13664 65.0711 5.27317C65.3973 5.40446 65.6996 5.63029 65.9785 5.95066L65.2053 6.51783Z" fill="currentColor"/>
<path d="M68.3496 5.21094H69.3434V7.43241H71.9545V5.21094H72.9485V10.7883H71.9545V8.33046H69.3434V10.7883H68.3496V5.21094Z" fill="currentColor"/>
<path d="M75.7744 5.21094H79.4741V6.10899H76.7684V7.4797H79.3322V8.37775H76.7684V9.89025H79.6163V10.7883H75.7744V5.21094Z" fill="currentColor"/>
<path fill-rule="evenodd" clip-rule="evenodd" d="M16.5 8C16.5 12.4183 12.9183 16 8.5 16C4.08172 16 0.5 12.4183 0.5 8C0.5 3.58172 4.08172 0 8.5 0C12.9183 0 16.5 3.58172 16.5 8ZM6.23304 11.1834H4.68048C4.35424 11.1834 4.19308 11.1834 4.09481 11.1205C3.98869 11.0517 3.92383 10.9378 3.91596 10.812C3.91008 10.696 3.99065 10.5545 4.15181 10.2715L6.06856 6.893L7.98531 3.51446C8.14842 3.22752 8.23097 3.08407 8.33513 3.031C8.44715 2.97402 8.58079 2.97402 8.69282 3.031C8.79698 3.08407 8.87952 3.22752 9.04264 3.51446L9.83072 4.89016L9.83475 4.89719C10.0109 5.20502 10.1003 5.36111 10.1393 5.52495C10.1825 5.70379 10.1825 5.89245 10.1393 6.0713C10.1 6.23639 10.0115 6.39362 9.83267 6.7061L7.81905 10.2656L7.81383 10.2748C7.63647 10.5851 7.5466 10.7424 7.42204 10.8611C7.28645 10.9908 7.12333 11.0852 6.94449 11.1382C6.78137 11.1834 6.5986 11.1834 6.23304 11.1834ZM10.1538 11.1836H12.3785C12.7067 11.1836 12.8718 11.1836 12.9701 11.1188C13.0762 11.05 13.143 10.934 13.1489 10.8082C13.1546 10.6961 13.0758 10.5601 12.9213 10.2935C12.916 10.2844 12.9107 10.2752 12.9052 10.2658L11.7909 8.35949L11.7782 8.33805C11.6216 8.07322 11.5425 7.93951 11.4411 7.88783C11.3291 7.83082 11.1974 7.83082 11.0854 7.88783C10.9832 7.94087 10.9006 8.08042 10.7375 8.36145L9.62712 10.2678L9.62331 10.2743C9.46077 10.5549 9.37953 10.6951 9.38539 10.8102C9.39326 10.936 9.4581 11.0519 9.56424 11.1207C9.66053 11.1836 9.8256 11.1836 10.1538 11.1836Z" fill="currentColor"/>
</g>
<path d="M86.1372 5.18182V11H85.2593V5.18182H86.1372ZM92.248 7.07386H91.3616C91.3275 6.88447 91.2641 6.7178 91.1713 6.57386C91.0785 6.42992 90.9648 6.30777 90.8303 6.20739C90.6959 6.10701 90.5453 6.03125 90.3786 5.98011C90.2139 5.92898 90.0387 5.90341 89.8531 5.90341C89.5178 5.90341 89.2177 5.98769 88.9525 6.15625C88.6892 6.32481 88.4809 6.57197 88.3275 6.89773C88.176 7.22348 88.1002 7.62121 88.1002 8.09091C88.1002 8.56439 88.176 8.96402 88.3275 9.28977C88.4809 9.61553 88.6902 9.86174 88.9553 10.0284C89.2205 10.1951 89.5188 10.2784 89.8502 10.2784C90.0339 10.2784 90.2082 10.2538 90.373 10.2045C90.5396 10.1534 90.6902 10.0786 90.8247 9.98011C90.9591 9.88163 91.0728 9.76136 91.1656 9.61932C91.2603 9.47538 91.3256 9.31061 91.3616 9.125L92.248 9.12784C92.2006 9.41383 92.1088 9.67708 91.9724 9.91761C91.8379 10.1562 91.6646 10.3627 91.4525 10.5369C91.2423 10.7093 91.0017 10.8428 90.7309 10.9375C90.4601 11.0322 90.1646 11.0795 89.8445 11.0795C89.3408 11.0795 88.8919 10.9602 88.498 10.7216C88.104 10.4811 87.7934 10.1373 87.5661 9.69034C87.3408 9.24337 87.2281 8.71023 87.2281 8.09091C87.2281 7.4697 87.3417 6.93655 87.569 6.49148C87.7963 6.04451 88.1069 5.7017 88.5008 5.46307C88.8947 5.22254 89.3427 5.10227 89.8445 5.10227C90.1533 5.10227 90.4411 5.14678 90.7082 5.2358C90.9771 5.32292 91.2186 5.4517 91.4326 5.62216C91.6466 5.79072 91.8237 5.99716 91.9639 6.24148C92.104 6.4839 92.1987 6.76136 92.248 7.07386ZM93.2984 5.18182H94.3637L96.216 9.70455H96.2842L98.1365 5.18182H99.2018V11H98.3666V6.78977H98.3126L96.5967 10.9915H95.9035L94.1876 6.78693H94.1336V11H93.2984V5.18182Z" fill="currentColor"/>
<defs>
<clipPath id="clip0_22791_57093">
<rect width="79.12" height="16" fill="currentColor" transform="translate(0.5)"/>
</clipPath>
</defs>
</svg>
