<svg width="20" height="18" viewBox="0 0 20 18" fill="none" xmlns="http://www.w3.org/2000/svg">
<mask id="path-1-inside-1_39_305" fill="white">
<path d="M17.75 17.75H8.06836L14.5234 4.03418H19.3643L17.75 17.75ZM4.84082 13.7158H0L1.61328 0H11.2959L4.84082 13.7158Z"/>
</mask>
<path d="M17.75 17.75V19.25H19.0838L19.2397 17.9253L17.75 17.75ZM8.06836 17.75L6.71115 17.1113L5.7046 19.25H8.06836V17.75ZM14.5234 4.03418V2.53418H13.5716L13.1662 3.39544L14.5234 4.03418ZM19.3643 4.03418L20.854 4.20951L21.0512 2.53418H19.3643V4.03418ZM4.84082 13.7158V15.2158H5.79269L6.19803 14.3546L4.84082 13.7158ZM0 13.7158L-1.48973 13.5406L-1.68677 15.2158H0V13.7158ZM1.61328 0V-1.5H0.279374L0.123551 -0.175225L1.61328 0ZM11.2959 0L12.6531 0.638742L13.6597 -1.5H11.2959V0ZM17.75 17.75V16.25H8.06836V17.75V19.25H17.75V17.75ZM8.06836 17.75L9.42557 18.3887L15.8806 4.67292L14.5234 4.03418L13.1662 3.39544L6.71115 17.1113L8.06836 17.75ZM14.5234 4.03418V5.53418H19.3643V4.03418V2.53418H14.5234V4.03418ZM19.3643 4.03418L17.8745 3.85885L16.2603 17.5747L17.75 17.75L19.2397 17.9253L20.854 4.20951L19.3643 4.03418ZM4.84082 13.7158V12.2158H0V13.7158V15.2158H4.84082V13.7158ZM0 13.7158L1.48973 13.891L3.10301 0.175225L1.61328 0L0.123551 -0.175225L-1.48973 13.5406L0 13.7158ZM1.61328 0V1.5H11.2959V0V-1.5H1.61328V0ZM11.2959 0L9.93869 -0.638742L3.48361 13.0771L4.84082 13.7158L6.19803 14.3546L12.6531 0.638742L11.2959 0Z" fill="black" mask="url(#path-1-inside-1_39_305)"/>
</svg>
