<svg xmlns="http://www.w3.org/2000/svg" width="24" height="24" viewBox="0 0 24 24" fill="none">
<mask id="path-1-inside-1_131_488" fill="white">
<path d="M20.916 21.916H10.5986L17.4766 7.29883H22.6357L20.916 21.916ZM7.15918 17.6172H2L3.71973 3H14.0371L7.15918 17.6172Z"/>
</mask>
<path d="M20.916 21.916V23.416H22.2499L22.4057 22.0913L20.916 21.916ZM10.5986 21.916L9.24138 21.2774L8.23507 23.416H10.5986V21.916ZM17.4766 7.29883V5.79883H16.5246L16.1193 6.66019L17.4766 7.29883ZM22.6357 7.29883L24.1255 7.4741L24.3226 5.79883H22.6357V7.29883ZM7.15918 17.6172V19.1172H8.11113L8.51643 18.2558L7.15918 17.6172ZM2 17.6172L0.510275 17.4419L0.313178 19.1172H2V17.6172ZM3.71973 3V1.5H2.38586L2.23 2.82473L3.71973 3ZM14.0371 3L15.3944 3.63864L16.4007 1.5L14.0371 1.5V3ZM20.916 21.916V20.416H10.5986V21.916V23.416H20.916V21.916ZM10.5986 21.916L11.9559 22.5547L18.8338 7.93747L17.4766 7.29883L16.1193 6.66019L9.24138 21.2774L10.5986 21.916ZM17.4766 7.29883V8.79883H22.6357V7.29883V5.79883H17.4766V7.29883ZM22.6357 7.29883L21.146 7.12356L19.4263 21.7407L20.916 21.916L22.4057 22.0913L24.1255 7.4741L22.6357 7.29883ZM7.15918 17.6172V16.1172H2V17.6172V19.1172H7.15918V17.6172ZM2 17.6172L3.48973 17.7925L5.20945 3.17527L3.71973 3L2.23 2.82473L0.510275 17.4419L2 17.6172ZM3.71973 3V4.5H14.0371V3V1.5H3.71973V3ZM14.0371 3L12.6799 2.36136L5.80192 16.9785L7.15918 17.6172L8.51643 18.2558L15.3944 3.63864L14.0371 3Z" fill="currentColor" mask="url(#path-1-inside-1_131_488)"/>
</svg>