<svg width="82" height="82" viewBox="0 0 82 82" fill="none" xmlns="http://www.w3.org/2000/svg">
<path d="M32.2143 0C33.7677 0 35.2575 0.617089 36.3559 1.71552C37.4543 2.81394 38.0714 4.30373 38.0714 5.85714V32.2143C38.0714 33.7677 37.4543 35.2575 36.3559 36.3559C35.2575 37.4543 33.7677 38.0714 32.2143 38.0714H5.85714C4.30373 38.0714 2.81394 37.4543 1.71552 36.3559C0.617089 35.2575 0 33.7677 0 32.2143V5.85714C0 4.30373 0.617089 2.81394 1.71552 1.71552C2.81394 0.617089 4.30373 0 5.85714 0H32.2143ZM29.2857 8.78571H8.78571V29.2857H29.2857V8.78571ZM23.4286 14.6429V23.4286H14.6429V14.6429H23.4286ZM76.1428 0C77.6963 0 79.186 0.617089 80.2845 1.71552C81.3829 2.81394 82 4.30373 82 5.85714V32.2143C82 33.7677 81.3829 35.2575 80.2845 36.3559C79.186 37.4543 77.6963 38.0714 76.1428 38.0714H49.7857C49.0165 38.0714 48.2549 37.9199 47.5443 37.6256C46.8337 37.3312 46.188 36.8998 45.6441 36.3559C45.1002 35.812 44.6688 35.1663 44.3744 34.4557C44.0801 33.7451 43.9286 32.9835 43.9286 32.2143V5.85714C43.9286 5.08797 44.0801 4.32633 44.3744 3.61571C44.6688 2.90509 45.1002 2.2594 45.6441 1.71552C46.188 1.17163 46.8337 0.740198 47.5443 0.445849C48.2549 0.1515 49.0165 0 49.7857 0H76.1428ZM73.2143 8.78571H52.7143V29.2857H73.2143V8.78571ZM67.3571 14.6429V23.4286H58.5714V14.6429H67.3571ZM62.9643 67.3571C61.7992 67.3571 60.6819 66.8943 59.8581 66.0705C59.0342 65.2467 58.5714 64.1293 58.5714 62.9643V52.7143L52.7143 52.7084V77.6071C52.7143 78.184 52.6007 78.7553 52.3799 79.2882C52.1591 79.8212 51.8356 80.3054 51.4276 80.7134C51.0197 81.1213 50.5355 81.4448 50.0025 81.6656C49.4695 81.8864 48.8983 82 48.3214 82C47.7445 82 47.1733 81.8864 46.6403 81.6656C46.1074 81.4448 45.6231 81.1213 45.2152 80.7134C44.8073 80.3054 44.4837 79.8212 44.263 79.2882C44.0422 78.7553 43.9286 78.184 43.9286 77.6071V48.3214C43.9286 47.1564 44.3914 46.039 45.2152 45.2152C46.039 44.3914 47.1564 43.9286 48.3214 43.9286H62.9643C64.1293 43.9286 65.2467 44.3914 66.0705 45.2152C66.8943 46.039 67.3571 47.1564 67.3571 48.3214V58.5714H73.2143V48.3214C73.2143 47.1564 73.6771 46.039 74.5009 45.2152C75.3247 44.3914 76.4421 43.9286 77.6071 43.9286C78.7722 43.9286 79.8895 44.3914 80.7134 45.2152C81.5372 46.039 82 47.1564 82 48.3214V62.9643C82 64.0258 81.6155 65.0514 80.9178 65.8514C80.2201 66.6515 79.2562 67.1718 78.2046 67.3161L77.6071 67.3571H62.9643ZM77.6071 73.2143C78.7722 73.2143 79.8895 73.6771 80.7134 74.5009C81.5372 75.3247 82 76.4421 82 77.6071C82 78.7722 81.5372 79.8895 80.7134 80.7134C79.8895 81.5372 78.7722 82 77.6071 82H62.9643C61.7992 82 60.6819 81.5372 59.8581 80.7134C59.0342 79.8895 58.5714 78.7722 58.5714 77.6071C58.5714 76.4421 59.0342 75.3247 59.8581 74.5009C60.6819 73.6771 61.7992 73.2143 62.9643 73.2143H77.6071ZM32.2143 43.9286C32.9835 43.9286 33.7451 44.0801 34.4557 44.3744C35.1663 44.6688 35.812 45.1002 36.3559 45.6441C36.8998 46.188 37.3312 46.8337 37.6256 47.5443C37.9199 48.2549 38.0714 49.0165 38.0714 49.7857V76.1428C38.0714 77.6963 37.4543 79.186 36.3559 80.2845C35.2575 81.3829 33.7677 82 32.2143 82H5.85714C4.30373 82 2.81394 81.3829 1.71552 80.2845C0.617089 79.186 0 77.6963 0 76.1428V49.7857C0 49.0165 0.1515 48.2549 0.445849 47.5443C0.740198 46.8337 1.17163 46.188 1.71552 45.6441C2.2594 45.1002 2.90509 44.6688 3.61571 44.3744C4.32633 44.0801 5.08797 43.9286 5.85714 43.9286H32.2143ZM29.2857 52.7143H8.78571V73.2143H29.2857V52.7143ZM23.4286 58.5714V67.3571H14.6429V58.5714H23.4286Z" fill="#D81E06"/>
</svg>
