<svg width="88" height="88" viewBox="0 0 88 88" fill="none" xmlns="http://www.w3.org/2000/svg">
<path d="M58.6667 62.3333V58.6667H47.6667V47.6667H58.6667V55H66V62.3333H62.3333V69.6667H55V77H47.6667V66H55V62.3333H58.6667ZM77 77H62.3333V69.6667H69.6667V62.3333H77V77ZM11 11H40.3333V40.3333H11V11ZM18.3333 18.3333V33H33V18.3333H18.3333ZM47.6667 11H77V40.3333H47.6667V11ZM55 18.3333V33H69.6667V18.3333H55ZM11 47.6667H40.3333V77H11V47.6667ZM18.3333 55V69.6667H33V55H18.3333ZM66 47.6667H77V55H66V47.6667ZM22 22H29.3333V29.3333H22V22ZM22 58.6667H29.3333V66H22V58.6667ZM58.6667 22H66V29.3333H58.6667V22Z" fill="white"/>
</svg>
