<svg width="20" height="20" viewBox="0 0 20 20" fill="none" xmlns="http://www.w3.org/2000/svg">
<path d="M16.1935 10.817C16.2268 10.5503 16.2518 10.2837 16.2518 10.0003C16.2518 9.71699 16.2268 9.45033 16.1935 9.18366L17.9518 7.80866C18.1102 7.68366 18.1518 7.45866 18.0518 7.27533L16.3852 4.39199C16.3102 4.25866 16.1685 4.18366 16.0185 4.18366C15.9685 4.18366 15.9185 4.19199 15.8768 4.20866L13.8018 5.04199C13.3685 4.70866 12.9018 4.43366 12.3935 4.22533L12.0768 2.01699C12.0518 1.81699 11.8768 1.66699 11.6685 1.66699H8.33517C8.12683 1.66699 7.95183 1.81699 7.92683 2.01699L7.61017 4.22533C7.10183 4.43366 6.63517 4.71699 6.20183 5.04199L4.12683 4.20866C4.07683 4.19199 4.02683 4.18366 3.97683 4.18366C3.83517 4.18366 3.6935 4.25866 3.6185 4.39199L1.95183 7.27533C1.8435 7.45866 1.8935 7.68366 2.05183 7.80866L3.81017 9.18366C3.77683 9.45033 3.75183 9.72533 3.75183 10.0003C3.75183 10.2753 3.77683 10.5503 3.81017 10.817L2.05183 12.192C1.8935 12.317 1.85183 12.542 1.95183 12.7253L3.6185 15.6087C3.6935 15.742 3.83517 15.817 3.98517 15.817C4.03517 15.817 4.08517 15.8087 4.12683 15.792L6.20183 14.9587C6.63517 15.292 7.10183 15.567 7.61017 15.7753L7.92683 17.9837C7.95183 18.1837 8.12683 18.3337 8.33517 18.3337H11.6685C11.8768 18.3337 12.0518 18.1837 12.0768 17.9837L12.3935 15.7753C12.9018 15.567 13.3685 15.2837 13.8018 14.9587L15.8768 15.792C15.9268 15.8087 15.9768 15.817 16.0268 15.817C16.1685 15.817 16.3102 15.742 16.3852 15.6087L18.0518 12.7253C18.1518 12.542 18.1102 12.317 17.9518 12.192L16.1935 10.817ZM14.5435 9.39199C14.5768 9.65033 14.5852 9.82533 14.5852 10.0003C14.5852 10.1753 14.5685 10.3587 14.5435 10.6087L14.4268 11.5503L15.1685 12.1337L16.0685 12.8337L15.4852 13.842L14.4268 13.417L13.5602 13.067L12.8102 13.6337C12.4518 13.9003 12.1102 14.1003 11.7685 14.242L10.8852 14.6003L10.7518 15.542L10.5852 16.667H9.4185L9.12683 14.6003L8.2435 14.242C7.88517 14.092 7.55183 13.9003 7.2185 13.6503L6.46017 13.067L5.57683 13.4253L4.5185 13.8503L3.93517 12.842L4.83517 12.142L5.57683 11.5587L5.46017 10.617C5.43517 10.3587 5.4185 10.167 5.4185 10.0003C5.4185 9.83366 5.43517 9.64199 5.46017 9.39199L5.57683 8.45033L4.83517 7.86699L3.93517 7.16699L4.5185 6.15866L5.57683 6.58366L6.4435 6.93366L7.1935 6.36699C7.55183 6.10033 7.8935 5.90033 8.23517 5.75866L9.1185 5.40033L9.25184 4.45866L9.4185 3.33366H10.5768L10.8685 5.40033L11.7518 5.75866C12.1102 5.90866 12.4435 6.10033 12.7768 6.35033L13.5352 6.93366L14.4185 6.57533L15.4768 6.15033L16.0602 7.15866L15.1685 7.86699L14.4268 8.45033L14.5435 9.39199ZM10.0018 6.66699C8.16017 6.66699 6.6685 8.15866 6.6685 10.0003C6.6685 11.842 8.16017 13.3337 10.0018 13.3337C11.8435 13.3337 13.3352 11.842 13.3352 10.0003C13.3352 8.15866 11.8435 6.66699 10.0018 6.66699ZM10.0018 11.667C9.08517 11.667 8.33517 10.917 8.33517 10.0003C8.33517 9.08366 9.08517 8.33366 10.0018 8.33366C10.9185 8.33366 11.6685 9.08366 11.6685 10.0003C11.6685 10.917 10.9185 11.667 10.0018 11.667Z" fill="white"/>
</svg>
