<svg width="16" height="22" viewBox="0 0 16 22" fill="none" xmlns="http://www.w3.org/2000/svg">
<path d="M14 6.89547H12C11.45 6.89547 11 7.34547 11 7.89547C11 8.44547 11.45 8.89547 12 8.89547H14V19.8955H2V8.89547H4C4.55 8.89547 5 8.44547 5 7.89547C5 7.34547 4.55 6.89547 4 6.89547H2C0.9 6.89547 0 7.79547 0 8.89547V19.8955C0 20.9955 0.9 21.8955 2 21.8955H14C15.1 21.8955 16 20.9955 16 19.8955V8.89547C16 7.79547 15.1 6.89547 14 6.89547Z" fill="black"/>
<path d="M8 14.8955C8.55 14.8955 9 14.4455 9 13.8955V3.89547H10.79C11.24 3.89547 11.46 3.35547 11.14 3.04547L8.35 0.255469C8.15 0.0554688 7.84 0.0554688 7.64 0.255469L4.85 3.04547C4.54 3.35547 4.76 3.89547 5.21 3.89547H7V13.8955C7 14.4455 7.45 14.8955 8 14.8955Z" fill="black"/>
</svg>
