<svg width="24" height="24" viewBox="0 0 24 24" fill="none" xmlns="http://www.w3.org/2000/svg">
<path d="M6.13539 11.855L3.35539 14.645C3.16539 14.845 3.16539 15.155 3.35539 15.355L6.13539 18.145C6.44539 18.465 6.98539 18.235 6.98539 17.795V15.995H12.9954C13.5454 15.995 13.9954 15.545 13.9954 14.995C13.9954 14.445 13.5454 13.995 12.9954 13.995H6.98539V12.205C6.98539 11.755 6.44539 11.535 6.13539 11.855ZM20.6454 8.645L17.8654 5.855C17.5554 5.535 17.0154 5.765 17.0154 6.205V7.995H10.9954C10.4454 7.995 9.99539 8.445 9.99539 8.995C9.99539 9.545 10.4454 9.995 10.9954 9.995H17.0054V11.785C17.0054 12.235 17.5454 12.455 17.8554 12.135L20.6354 9.345C20.8354 9.155 20.8354 8.835 20.6454 8.645Z" fill="#F8F8FB"/>
</svg>
