<svg width="20" height="16" viewBox="0 0 20 16" fill="none" xmlns="http://www.w3.org/2000/svg">
<path d="M19.65 3.64954L16.86 0.859542C16.54 0.539542 16 0.759542 16 1.20954V2.99954H2.00001C1.45001 2.99954 1.00001 3.44954 1.00001 3.99954C1.00001 4.54954 1.45001 4.99954 2.00001 4.99954H16V6.78954C16 7.23954 16.54 7.45954 16.85 7.13954L19.64 4.34954C19.84 4.15954 19.84 3.83954 19.65 3.64954Z" fill="currentColor"/>
<path d="M18 10.9995H4.00001V9.20954C4.00001 8.75954 3.46001 8.53954 3.15001 8.85954L0.360014 11.6495C0.160014 11.8395 0.160014 12.1595 0.350014 12.3495L3.14001 15.1395C3.46001 15.4595 4.00001 15.2395 4.00001 14.7895V12.9995H18C18.55 12.9995 19 12.5495 19 11.9995C19 11.4495 18.55 10.9995 18 10.9995Z" fill="currentColor"/>
</svg>
