<svg width="24" height="24" viewBox="0 0 24 24" fill="none" xmlns="http://www.w3.org/2000/svg">
<mask id="mask0_3763_1235" style="mask-type:alpha" maskUnits="userSpaceOnUse" x="0" y="0" width="24" height="24">
<rect width="24" height="24" fill="#D9D9D9"/>
</mask>
<g mask="url(#mask0_3763_1235)">
<path d="M4.9668 18.2256C5.49794 18.2256 5.93349 18.6613 5.93359 19.1924C5.93359 19.7236 5.49801 20.1592 4.9668 20.1592C4.43559 20.1592 4 19.7236 4 19.1924C4.0001 18.6613 4.43565 18.2256 4.9668 18.2256ZM19.0332 18.2256C19.5643 18.2257 19.9999 18.6613 20 19.1924C20 19.7236 19.5644 20.1591 19.0332 20.1592C18.502 20.1592 18.0664 19.7236 18.0664 19.1924C18.0665 18.6613 18.5021 18.2256 19.0332 18.2256ZM8.18555 16.1855C8.83685 16.1855 9.36523 16.7139 9.36523 17.3652C9.36521 18.0165 8.83683 18.5449 8.18555 18.5449C7.53441 18.5447 7.00686 18.0164 7.00684 17.3652C7.00684 16.714 7.5344 16.1857 8.18555 16.1855ZM15.8145 16.1855C16.4656 16.1858 16.9932 16.7141 16.9932 17.3652C16.9931 18.0164 16.4656 18.5447 15.8145 18.5449C15.1632 18.5449 14.6348 18.0165 14.6348 17.3652C14.6348 16.7139 15.1632 16.1855 15.8145 16.1855ZM11.9043 13.5615C12.6905 13.5615 13.339 14.21 13.3496 15.0068C13.3495 15.8036 12.701 16.4512 11.9043 16.4512C11.1076 16.4511 10.4601 15.8035 10.46 15.0068C10.46 14.21 11.1075 13.5616 11.9043 13.5615ZM7.73926 10.3105C8.71663 10.3105 9.51359 11.1075 9.51367 12.0742C9.51367 13.0516 8.71668 13.8594 7.73926 13.8594C6.76203 13.8591 5.96582 13.0622 5.96582 12.085C5.96584 11.1077 6.76204 10.3108 7.73926 10.3105ZM16.25 10.3105C17.2272 10.3108 18.0234 11.1076 18.0234 12.0742C18.0234 13.0515 17.2272 13.8591 16.25 13.8594C15.2726 13.8594 14.4756 13.0624 14.4756 12.085C14.4756 11.1076 15.2726 10.3105 16.25 10.3105ZM11.9043 7.71875C12.6904 7.71875 13.3387 8.37701 13.3389 9.16309C13.3389 9.94927 12.7011 10.6084 11.9043 10.6084C11.1075 10.6084 10.46 9.95988 10.46 9.16309C10.4601 8.36641 11.1076 7.71878 11.9043 7.71875ZM8.18555 5.61523C8.83678 5.61523 9.36512 6.14274 9.36523 6.79395C9.36523 7.44525 8.83685 7.97363 8.18555 7.97363C7.5344 7.97346 7.00684 7.44514 7.00684 6.79395C7.00695 6.14285 7.53447 5.61541 8.18555 5.61523ZM15.8145 5.61523C16.4655 5.61545 16.9931 6.14287 16.9932 6.79395C16.9932 7.44511 16.4656 7.97341 15.8145 7.97363C15.1632 7.97363 14.6348 7.44525 14.6348 6.79395C14.6349 6.14274 15.1632 5.61523 15.8145 5.61523ZM4.9668 4C5.498 4 5.93359 4.43559 5.93359 4.9668C5.93359 5.49801 5.49801 5.93359 4.9668 5.93359C4.43559 5.93359 4 5.498 4 4.9668C4 4.43559 4.43559 4 4.9668 4ZM19.0332 4C19.5644 4.00006 20 4.43563 20 4.9668C20 5.49797 19.5644 5.93353 19.0332 5.93359C18.502 5.93359 18.0664 5.49801 18.0664 4.9668C18.0664 4.43559 18.502 4 19.0332 4Z" fill="currentColor"/>
</g>
</svg>
