<svg width="24" height="24" viewBox="0 0 24 24" fill="none" xmlns="http://www.w3.org/2000/svg">
<mask id="mask0_2136_1475" style="mask-type:alpha" maskUnits="userSpaceOnUse" x="0" y="0" width="24" height="24">
<rect width="24" height="24" fill="currentColor"/>
</mask>
<g mask="url(#mask0_2136_1475)">
<path d="M12 21C10.75 21 9.57917 20.7625 8.4875 20.2875C7.39583 19.8125 6.44583 19.1708 5.6375 18.3625C4.82917 17.5542 4.1875 16.6042 3.7125 15.5125C3.2375 14.4208 3 13.25 3 12C3 10.75 3.2375 9.57917 3.7125 8.4875C4.1875 7.39583 4.82917 6.44583 5.6375 5.6375C6.44583 4.82917 7.39583 4.1875 8.4875 3.7125C9.57917 3.2375 10.75 3 12 3C13.3667 3 14.6625 3.29167 15.8875 3.875C17.1125 4.45833 18.15 5.28333 19 6.35V5C19 4.71667 19.0958 4.47917 19.2875 4.2875C19.4792 4.09583 19.7167 4 20 4C20.2833 4 20.5208 4.09583 20.7125 4.2875C20.9042 4.47917 21 4.71667 21 5V9C21 9.28333 20.9042 9.52083 20.7125 9.7125C20.5208 9.90417 20.2833 10 20 10H16C15.7167 10 15.4792 9.90417 15.2875 9.7125C15.0958 9.52083 15 9.28333 15 9C15 8.71667 15.0958 8.47917 15.2875 8.2875C15.4792 8.09583 15.7167 8 16 8H17.75C17.0667 7.06667 16.225 6.33333 15.225 5.8C14.225 5.26667 13.15 5 12 5C10.05 5 8.39583 5.67917 7.0375 7.0375C5.67917 8.39583 5 10.05 5 12C5 13.95 5.67917 15.6042 7.0375 16.9625C8.39583 18.3208 10.05 19 12 19C13.5833 19 15 18.525 16.25 17.575C17.5 16.625 18.325 15.4 18.725 13.9C18.8083 13.6333 18.9583 13.4333 19.175 13.3C19.3917 13.1667 19.6333 13.1167 19.9 13.15C20.1833 13.1833 20.4083 13.3042 20.575 13.5125C20.7417 13.7208 20.7917 13.95 20.725 14.2C20.2417 16.1833 19.1917 17.8125 17.575 19.0875C15.9583 20.3625 14.1 21 12 21ZM13 11.6L15.5 14.1C15.6833 14.2833 15.775 14.5167 15.775 14.8C15.775 15.0833 15.6833 15.3167 15.5 15.5C15.3167 15.6833 15.0833 15.775 14.8 15.775C14.5167 15.775 14.2833 15.6833 14.1 15.5L11.3 12.7C11.2 12.6 11.125 12.4875 11.075 12.3625C11.025 12.2375 11 12.1083 11 11.975V8C11 7.71667 11.0958 7.47917 11.2875 7.2875C11.4792 7.09583 11.7167 7 12 7C12.2833 7 12.5208 7.09583 12.7125 7.2875C12.9042 7.47917 13 7.71667 13 8V11.6Z" fill="currentColor"/>
</g>
</svg>
