<svg width="24" height="24" viewBox="0 0 24 24" fill="none" xmlns="http://www.w3.org/2000/svg">
<path d="M20.4844 10.5039C20.4979 10.7174 20.2623 10.8468 20.0802 10.7345C17.9984 9.4516 17.1174 9.47721 14.9659 10.6435C14.8177 10.7238 14.6367 10.716 14.4944 10.6256C12.6328 9.4432 11.4355 9.45012 9.6997 10.6463C9.58328 10.7266 9.43731 10.7498 9.30967 10.689C8.58539 10.3441 6.82227 9.31925 4.4355 10.7213C4.24768 10.8316 4.0026 10.7018 4.01685 10.4845C4.29089 6.30644 7.87225 3 12.25 3C16.6345 3 20.2202 6.31669 20.4844 10.5039Z" stroke="#28282E" stroke-width="1.8"/>
<path d="M12.25 3.39534C13.1667 3.83978 15 5.70645 15 9.61756" stroke="#28282E" stroke-width="1.8" stroke-linecap="round"/>
<path d="M12.25 3.39534C11.3333 3.83978 9.5 5.70645 9.5 9.61756" stroke="#28282E" stroke-width="1.8" stroke-linecap="round"/>
<path fill-rule="evenodd" clip-rule="evenodd" d="M10.127 12.5937C9.90667 12.2411 9.4473 12.1372 9.10102 12.3616C8.75474 12.5859 8.65267 13.0537 8.87304 13.4063L10.496 16.003L5.43263 12.3863C5.09594 12.1458 4.62936 12.2256 4.39048 12.5645C4.1516 12.9035 4.23088 13.3732 4.56757 13.6137L11.5528 18.6032C11.5954 18.6352 11.6409 18.6623 11.6884 18.6841C11.7887 18.7306 11.8959 18.753 12.0022 18.7526C12.107 18.7523 12.2125 18.73 12.3113 18.6843C12.3589 18.6624 12.4045 18.6353 12.4472 18.6032L19.4326 13.6137C19.7693 13.3732 19.8486 12.9035 19.6097 12.5646C19.3708 12.2256 18.9043 12.1458 18.5676 12.3863L13.8928 15.7253L15.5909 13.459C15.8399 13.1267 15.7772 12.6519 15.4508 12.3984C15.1245 12.1449 14.6581 12.2087 14.4092 12.541L12.0565 15.6809L10.127 12.5937Z" fill="currentColor"/>
<path fill-rule="evenodd" clip-rule="evenodd" d="M12 18.9C11.3925 18.9 10.9 19.3925 10.9 20C10.9 20.6075 11.3925 21.1 12 21.1C12.6075 21.1 13.1 20.6075 13.1 20C13.1 19.3925 12.6075 18.9 12 18.9ZM9.09998 20C9.09998 18.3984 10.3983 17.1 12 17.1C13.6016 17.1 14.9 18.3984 14.9 20C14.9 21.6016 13.6016 22.9 12 22.9C10.3983 22.9 9.09998 21.6016 9.09998 20Z" fill="#28282E"/>
</svg>
