<svg width="24" height="24" viewBox="0 0 24 24" fill="none" xmlns="http://www.w3.org/2000/svg">
<path d="M17.8389 12.5804C17.8496 11.7457 18.072 10.9273 18.4851 10.2014C18.8983 9.47541 19.4889 8.86547 20.202 8.4283C19.749 7.78314 19.1514 7.2522 18.4566 6.87765C17.7619 6.50309 16.9891 6.29525 16.1997 6.27062C14.5157 6.09436 12.8832 7.27545 12.0251 7.27545C11.1504 7.27545 9.82916 6.28812 8.40645 6.31731C7.4862 6.34696 6.58934 6.61381 5.80326 7.09187C5.01718 7.56993 4.36869 8.24289 3.92097 9.04518C1.98154 12.3936 3.42818 17.3146 5.28599 20.0213C6.21549 21.3466 7.30182 22.8271 8.72324 22.7746C10.1142 22.717 10.6337 21.8901 12.3127 21.8901C13.9761 21.8901 14.4635 22.7746 15.9138 22.7412C17.4063 22.717 18.3467 21.4099 19.2436 20.072C19.9115 19.1277 20.4254 18.084 20.7663 16.9795C19.8992 16.6138 19.1592 16.0016 18.6386 15.2193C18.118 14.437 17.8399 13.5192 17.8389 12.5804Z" fill="currentColor"/>
<path d="M15.0995 4.49062C15.9133 3.51641 16.3143 2.26423 16.2172 1C14.9739 1.13022 13.8254 1.72278 13.0006 2.65961C12.5973 3.11728 12.2885 3.64971 12.0917 4.22648C11.8949 4.80325 11.814 5.41304 11.8537 6.021C12.4756 6.02739 13.0908 5.89297 13.653 5.62788C14.2153 5.3628 14.7099 4.97395 15.0995 4.49062Z" fill="currentColor"/>
</svg>
