<svg width="24" height="24" viewBox="0 0 24 24" fill="none" xmlns="http://www.w3.org/2000/svg">
<mask id="mask0_3627_1368" style="mask-type:alpha" maskUnits="userSpaceOnUse" x="0" y="0" width="24" height="24">
<rect width="24" height="24" fill="#D9D9D9"/>
</mask>
<g mask="url(#mask0_3627_1368)">
<path d="M4.38525 9.27046C4.10397 9.60331 3.65392 9.86584 3.20387 9.82833C3.14761 9.37828 3.36795 8.9001 3.62579 8.60476C3.90707 8.26253 4.39932 8.01875 4.7978 8C4.84468 8.4688 4.66185 8.92823 4.38525 9.27046ZM4.79311 9.91741C4.14147 9.8799 3.5836 10.2878 3.27419 10.2878C2.96009 10.2878 2.4866 9.93616 1.97091 9.94554C1.30052 9.95491 0.677016 10.3346 0.334789 10.9394C-0.368417 12.1489 0.151956 13.9397 0.831721 14.9242C1.16457 15.4118 1.56305 15.9462 2.08811 15.9275C2.58505 15.9087 2.78194 15.604 3.38201 15.604C3.98677 15.604 4.16023 15.9275 4.68529 15.9181C5.2291 15.9087 5.57133 15.4305 5.90418 14.943C6.28391 14.3898 6.43861 13.8507 6.44799 13.8225C6.43861 13.8132 5.39787 13.4147 5.38849 12.2145C5.37912 11.2113 6.2089 10.7331 6.2464 10.705C5.7776 10.0112 5.04627 9.93616 4.79311 9.91741ZM8.55761 8.55788V15.8665H9.69211V13.3678H11.2626C12.6971 13.3678 13.7051 12.3833 13.7051 10.9582C13.7051 9.53299 12.7159 8.55788 11.3001 8.55788H8.55761ZM9.69211 9.51424H11.0001C11.9846 9.51424 12.5471 10.0393 12.5471 10.9628C12.5471 11.8864 11.9846 12.4161 10.9954 12.4161H9.69211V9.51424ZM15.7772 15.9228C16.4898 15.9228 17.1508 15.5618 17.4508 14.9899H17.4743V15.8665H18.5244V12.2286C18.5244 11.1738 17.6805 10.494 16.3819 10.494C15.1771 10.494 14.2864 11.1832 14.2536 12.1302H15.2756C15.3599 11.6801 15.7772 11.3848 16.3491 11.3848C17.043 11.3848 17.4321 11.7082 17.4321 12.3036V12.7068L16.0163 12.7912C14.6989 12.8709 13.9864 13.41 13.9864 14.3476C13.9864 15.2946 14.7224 15.9228 15.7772 15.9228ZM16.0819 15.0555C15.4771 15.0555 15.0927 14.7648 15.0927 14.3195C15.0927 13.86 15.4631 13.5928 16.171 13.5506L17.4321 13.4709V13.8835C17.4321 14.5679 16.8507 15.0555 16.0819 15.0555ZM19.9261 17.8543C21.0325 17.8543 21.5528 17.4323 22.0076 16.1525L24 10.5644H22.8467L21.5107 14.882H21.4872L20.1511 10.5644H18.965L20.8871 15.8853L20.784 16.2088C20.6105 16.7573 20.3293 16.9682 19.8276 16.9682C19.7386 16.9682 19.5651 16.9588 19.4948 16.9495V17.8261C19.5604 17.8449 19.8417 17.8543 19.9261 17.8543Z" fill="currentColor"/>
</g>
</svg>
