<svg width="25" height="25" viewBox="0 0 25 25" fill="none" xmlns="http://www.w3.org/2000/svg">
<mask id="mask0_22550_41354" style="mask-type:alpha" maskUnits="userSpaceOnUse" x="0" y="0" width="25" height="25">
<rect x="0.293945" y="0.681641" width="24" height="24" fill="currentColor"/>
</mask>
<g mask="url(#mask0_22550_41354)">
<path d="M16.2163 9.41644L7.5495 18.0834C7.33417 18.2986 7.06892 18.4052 6.75375 18.4032C6.43859 18.4012 6.17342 18.2926 5.95825 18.0774C5.74292 17.8621 5.63525 17.5959 5.63525 17.2787C5.63525 16.9615 5.74292 16.6953 5.95825 16.4799L14.619 7.81919H7.35375C7.03459 7.81919 6.76525 7.70944 6.54575 7.48994C6.32609 7.27027 6.21625 7.00086 6.21625 6.68169C6.21625 6.36252 6.32609 6.09311 6.54575 5.87344C6.76525 5.65394 7.03459 5.54419 7.35375 5.54419H17.3538C17.6729 5.54419 17.9423 5.65394 18.162 5.87344C18.3815 6.09311 18.4913 6.36252 18.4913 6.68169V16.6817C18.4913 17.0009 18.3815 17.2703 18.162 17.4899C17.9423 17.7094 17.6729 17.8192 17.3538 17.8192C17.0346 17.8192 16.7653 17.7094 16.5458 17.4899C16.3261 17.2703 16.2163 17.0009 16.2163 16.6817V9.41644Z" fill="currentColor"/>
</g>
</svg>
