<svg width="25" height="24" viewBox="0 0 25 24" fill="none" xmlns="http://www.w3.org/2000/svg">
<mask id="mask0_4309_21110" style="mask-type:alpha" maskUnits="userSpaceOnUse" x="0" y="0" width="25" height="24">
<rect x="0.382812" y="24" width="24" height="24" transform="rotate(-90 0.382812 24)" fill="currentColor"/>
</mask>
<g mask="url(#mask0_4309_21110)">
<path d="M12.3828 14.275L19.7328 6.925C19.9828 6.675 20.2745 6.55417 20.6078 6.5625C20.9411 6.57083 21.2328 6.7 21.4828 6.95C21.7328 7.2 21.8578 7.49167 21.8578 7.825C21.8578 8.15833 21.7328 8.45 21.4828 8.7L13.8078 16.4C13.6078 16.6 13.3828 16.75 13.1328 16.85C12.8828 16.95 12.6328 17 12.3828 17C12.1328 17 11.8828 16.95 11.6328 16.85C11.3828 16.75 11.1578 16.6 10.9578 16.4L3.2578 8.7C3.0078 8.45 2.88697 8.15417 2.8953 7.8125C2.90363 7.47083 3.0328 7.175 3.2828 6.925C3.5328 6.675 3.82447 6.55 4.1578 6.55C4.49113 6.55 4.7828 6.675 5.0328 6.925L12.3828 14.275Z" fill="currentColor"/>
</g>
</svg>
