<svg width="16" height="20" viewBox="0 0 16 20" fill="none" xmlns="http://www.w3.org/2000/svg">
<path d="M7.1 13H8.9C9.05 13 9.17917 12.9375 9.2875 12.8125C9.39583 12.6875 9.43333 12.55 9.4 12.4L8.925 9.77502C9.25833 9.60836 9.52083 9.36669 9.7125 9.05002C9.90417 8.73336 10 8.38336 10 8.00002C10 7.45002 9.80417 6.97919 9.4125 6.58752C9.02083 6.19586 8.55 6.00002 8 6.00002C7.45 6.00002 6.97917 6.19586 6.5875 6.58752C6.19583 6.97919 6 7.45002 6 8.00002C6 8.38336 6.09583 8.73336 6.2875 9.05002C6.47917 9.36669 6.74167 9.60836 7.075 9.77502L6.6 12.4C6.56667 12.55 6.60417 12.6875 6.7125 12.8125C6.82083 12.9375 6.95 13 7.1 13ZM8 19.9C7.88333 19.9 7.775 19.8917 7.675 19.875C7.575 19.8584 7.475 19.8334 7.375 19.8C5.125 19.05 3.33333 17.6625 2 15.6375C0.666667 13.6125 0 11.4334 0 9.10002V4.37502C0 3.95836 0.120833 3.58336 0.3625 3.25002C0.604167 2.91669 0.916667 2.67502 1.3 2.52502L7.3 0.275024C7.53333 0.191691 7.76667 0.150024 8 0.150024C8.23333 0.150024 8.46667 0.191691 8.7 0.275024L14.7 2.52502C15.0833 2.67502 15.3958 2.91669 15.6375 3.25002C15.8792 3.58336 16 3.95836 16 4.37502V9.10002C16 11.4334 15.3333 13.6125 14 15.6375C12.6667 17.6625 10.875 19.05 8.625 19.8C8.525 19.8334 8.425 19.8584 8.325 19.875C8.225 19.8917 8.11667 19.9 8 19.9ZM8 17.9C9.73333 17.35 11.1667 16.25 12.3 14.6C13.4333 12.95 14 11.1167 14 9.10002V4.37502L8 2.12502L2 4.37502V9.10002C2 11.1167 2.56667 12.95 3.7 14.6C4.83333 16.25 6.26667 17.35 8 17.9Z" fill="currentColor"/>
</svg>
