<svg width="31" height="18" viewBox="0 0 31 18" fill="none" xmlns="http://www.w3.org/2000/svg">
<path d="M17.7842 18.0004V0.545898H24.3296C25.6705 0.545898 26.7955 0.795898 27.7046 1.2959C28.6194 1.7959 29.3098 2.4834 29.7757 3.3584C30.2473 4.22772 30.483 5.21635 30.483 6.32431C30.483 7.44363 30.2473 8.43794 29.7757 9.30726C29.3041 10.1766 28.608 10.8612 27.6876 11.3612C26.7671 11.8556 25.6336 12.1027 24.287 12.1027H19.949V9.50328H23.8609C24.645 9.50328 25.287 9.36692 25.787 9.09419C26.287 8.82147 26.6563 8.44647 26.895 7.96919C27.1393 7.49192 27.2615 6.94363 27.2615 6.32431C27.2615 5.70499 27.1393 5.15954 26.895 4.68794C26.6563 4.21635 26.2842 3.84988 25.7785 3.58851C25.2785 3.32147 24.6336 3.18794 23.8438 3.18794H20.9461V18.0004H17.7842Z" fill="currentColor"/>
<path d="M3.85538 0.545898L7.69913 6.93794H7.83549L11.6963 0.545898H15.3014L9.92356 9.27317L15.3866 18.0004H11.7219L7.83549 11.651H7.69913L3.81277 18.0004H0.165039L5.67924 9.27317L0.233221 0.545898H3.85538Z" fill="white"/>
</svg>
