<svg width="209" height="12" viewBox="0 0 209 12" fill="none" xmlns="http://www.w3.org/2000/svg">
<path d="M2.29492 4.63636C2.29492 4.17045 2.40856 3.74574 2.63583 3.36222C2.8631 2.97869 3.1685 2.6733 3.55202 2.44602C3.93555 2.21875 4.36026 2.10511 4.82617 2.10511C5.22958 2.10511 5.60174 2.19176 5.94265 2.36506C6.2864 2.53835 6.57049 2.77557 6.79492 3.0767C7.01935 3.375 7.15856 3.71307 7.21254 4.09091H6.18129C6.12447 3.7983 5.9668 3.55966 5.70827 3.375C5.44975 3.1875 5.15572 3.09375 4.82617 3.09375C4.54208 3.09375 4.28356 3.16335 4.0506 3.30256C3.81765 3.44176 3.63157 3.62784 3.49237 3.8608C3.35316 4.09375 3.28356 4.35227 3.28356 4.63636C3.28356 4.92045 3.35316 5.17898 3.49237 5.41193C3.63157 5.64489 3.81765 5.83097 4.0506 5.97017C4.28356 6.10937 4.54208 6.17898 4.82617 6.17898C5.15572 6.17898 5.43413 6.08665 5.6614 5.90199C5.89151 5.71449 6.0364 5.47443 6.09606 5.18182H7.12731C7.07333 5.55966 6.94123 5.89915 6.731 6.20028C6.52077 6.49858 6.25089 6.73437 5.92134 6.90767C5.59464 7.08097 5.22958 7.16761 4.82617 7.16761C4.36026 7.16761 3.93555 7.05398 3.55202 6.8267C3.1685 6.59943 2.8631 6.29403 2.63583 5.91051C2.40856 5.52699 2.29492 5.10227 2.29492 4.63636ZM4.78356 9.13636C4.16424 9.13636 3.58185 9.01989 3.0364 8.78693C2.49379 8.55398 2.01509 8.23153 1.60032 7.8196C1.18839 7.40483 0.864524 6.92614 0.628729 6.38352C0.395774 5.84091 0.280717 5.25852 0.283558 4.63636C0.286399 4.0142 0.404297 3.43182 0.637251 2.8892C0.873047 2.34659 1.19691 1.86932 1.60884 1.45739C2.02077 1.04261 2.49805 0.71875 3.04066 0.485795C3.58327 0.252841 4.16424 0.136364 4.78356 0.136364C5.40572 0.136364 5.9881 0.252841 6.53072 0.485795C7.07617 0.71875 7.55345 1.04261 7.96254 1.45739C8.37447 1.86932 8.69691 2.34659 8.92987 2.8892C9.16282 3.43182 9.28072 4.0142 9.28356 4.63636C9.2864 5.25852 9.17134 5.84091 8.93839 6.38352C8.70543 6.92614 8.38299 7.40483 7.97106 7.8196C7.55913 8.23153 7.08043 8.55398 6.53498 8.78693C5.98952 9.01989 5.40572 9.13636 4.78356 9.13636ZM4.78356 8.14773C5.26935 8.14773 5.72532 8.05682 6.15146 7.875C6.57759 7.69318 6.95117 7.44176 7.27219 7.12074C7.59322 6.79972 7.84464 6.42756 8.02646 6.00426C8.20827 5.57812 8.29776 5.12358 8.29492 4.64062C8.29208 4.15483 8.19975 3.69886 8.01793 3.27273C7.83612 2.84659 7.58469 2.47301 7.26367 2.15199C6.94265 1.83097 6.57049 1.57955 6.14719 1.39773C5.7239 1.21591 5.26935 1.125 4.78356 1.125C4.3006 1.125 3.84748 1.21591 3.42418 1.39773C3.00089 1.57955 2.62873 1.83239 2.30771 2.15625C1.98668 2.47727 1.73384 2.85085 1.54918 3.27699C1.36737 3.70028 1.27504 4.15483 1.27219 4.64062C1.26935 5.12074 1.35884 5.57386 1.54066 6C1.72248 6.4233 1.9739 6.79545 2.29492 7.11648C2.61879 7.4375 2.99237 7.69034 3.41566 7.875C3.8418 8.05682 4.29776 8.14773 4.78356 8.14773ZM11.1788 9V8.23295L14.0595 5.07955C14.3975 4.71023 14.676 4.3892 14.8947 4.11648C15.1135 3.84091 15.2754 3.58239 15.3805 3.34091C15.4885 3.09659 15.5424 2.84091 15.5424 2.57386C15.5424 2.26705 15.4686 2.00142 15.3208 1.77699C15.176 1.55256 14.9771 1.37926 14.7243 1.2571C14.4714 1.13494 14.1873 1.07386 13.872 1.07386C13.5368 1.07386 13.2441 1.14347 12.9941 1.28267C12.747 1.41903 12.5552 1.6108 12.4189 1.85795C12.2853 2.10511 12.2186 2.39489 12.2186 2.72727H11.2129C11.2129 2.21591 11.3308 1.76705 11.5666 1.38068C11.8024 0.994318 12.1234 0.693181 12.5297 0.477272C12.9387 0.261363 13.3975 0.153409 13.9061 0.153409C14.4174 0.153409 14.8706 0.261363 15.2654 0.477272C15.6603 0.693181 15.97 0.984375 16.1944 1.35085C16.4189 1.71733 16.5311 2.125 16.5311 2.57386C16.5311 2.89489 16.4728 3.20881 16.3564 3.51562C16.2427 3.8196 16.0439 4.15909 15.7598 4.53409C15.4785 4.90625 15.0879 5.3608 14.5879 5.89773L12.6277 7.99432V8.0625H16.6845V9H11.1788ZM21.291 9.11932C20.649 9.11932 20.1021 8.9446 19.6504 8.59517C19.1987 8.2429 18.8535 7.73295 18.6149 7.06534C18.3762 6.39489 18.2569 5.58523 18.2569 4.63636C18.2569 3.69318 18.3762 2.88778 18.6149 2.22017C18.8564 1.54972 19.2029 1.03835 19.6547 0.686079C20.1092 0.330966 20.6547 0.153409 21.291 0.153409C21.9274 0.153409 22.4714 0.330966 22.9231 0.686079C23.3777 1.03835 23.7243 1.54972 23.9629 2.22017C24.2044 2.88778 24.3251 3.69318 24.3251 4.63636C24.3251 5.58523 24.2058 6.39489 23.9672 7.06534C23.7285 7.73295 23.3833 8.2429 22.9316 8.59517C22.4799 8.9446 21.9331 9.11932 21.291 9.11932ZM21.291 8.18182C21.9274 8.18182 22.4217 7.875 22.774 7.26136C23.1262 6.64773 23.3024 5.77273 23.3024 4.63636C23.3024 3.88068 23.2214 3.23722 23.0595 2.70597C22.9004 2.17472 22.6703 1.76989 22.3691 1.49148C22.0708 1.21307 21.7115 1.07386 21.291 1.07386C20.6603 1.07386 20.1674 1.38494 19.8123 2.0071C19.4572 2.62642 19.2797 3.50284 19.2797 4.63636C19.2797 5.39205 19.3592 6.03409 19.5183 6.5625C19.6774 7.09091 19.9061 7.4929 20.2044 7.76847C20.5055 8.04403 20.8677 8.18182 21.291 8.18182ZM25.9444 9V8.23295L28.8251 5.07955C29.1632 4.71023 29.4416 4.3892 29.6603 4.11648C29.8791 3.84091 30.041 3.58239 30.1461 3.34091C30.2541 3.09659 30.3081 2.84091 30.3081 2.57386C30.3081 2.26705 30.2342 2.00142 30.0865 1.77699C29.9416 1.55256 29.7427 1.37926 29.4899 1.2571C29.237 1.13494 28.9529 1.07386 28.6376 1.07386C28.3024 1.07386 28.0098 1.14347 27.7598 1.28267C27.5126 1.41903 27.3208 1.6108 27.1845 1.85795C27.051 2.10511 26.9842 2.39489 26.9842 2.72727H25.9785C25.9785 2.21591 26.0964 1.76705 26.3322 1.38068C26.568 0.994318 26.889 0.693181 27.2953 0.477272C27.7044 0.261363 28.1632 0.153409 28.6717 0.153409C29.1831 0.153409 29.6362 0.261363 30.0311 0.477272C30.426 0.693181 30.7356 0.984375 30.96 1.35085C31.1845 1.71733 31.2967 2.125 31.2967 2.57386C31.2967 2.89489 31.2385 3.20881 31.122 3.51562C31.0083 3.8196 30.8095 4.15909 30.5254 4.53409C30.2441 4.90625 29.8535 5.3608 29.3535 5.89773L27.3933 7.99432V8.0625H31.4501V9H25.9444ZM35.9373 9.11932C35.4373 9.11932 34.987 9.01989 34.5865 8.82102C34.1859 8.62216 33.8649 8.34943 33.6234 8.00284C33.3819 7.65625 33.2498 7.26136 33.2271 6.81818H34.2498C34.2896 7.21307 34.4686 7.53977 34.7868 7.7983C35.1078 8.05398 35.4913 8.18182 35.9373 8.18182C36.2953 8.18182 36.6135 8.09801 36.8919 7.9304C37.1731 7.76278 37.3933 7.53267 37.5524 7.24006C37.7143 6.9446 37.7953 6.6108 37.7953 6.23864C37.7953 5.85795 37.7115 5.51847 37.5439 5.22017C37.3791 4.91903 37.1518 4.68182 36.862 4.50852C36.5723 4.33523 36.2413 4.24716 35.8691 4.24432C35.6021 4.24148 35.3279 4.28267 35.0467 4.3679C34.7654 4.45028 34.5339 4.55682 34.3521 4.6875L33.3635 4.56818L33.8919 0.272727H38.426V1.21023H34.7782L34.4714 3.78409H34.5225C34.7015 3.64205 34.926 3.52415 35.1958 3.4304C35.4657 3.33665 35.747 3.28977 36.0396 3.28977C36.5737 3.28977 37.0495 3.41761 37.4672 3.6733C37.8876 3.92614 38.2172 4.27273 38.4558 4.71307C38.6973 5.15341 38.818 5.65625 38.818 6.22159C38.818 6.77841 38.693 7.27557 38.443 7.71307C38.1958 8.14773 37.8549 8.49148 37.4203 8.74432C36.9856 8.99432 36.4913 9.11932 35.9373 9.11932ZM44.3972 9H43.2892L46.4938 0.272727H47.5847L50.7892 9H49.6813L47.0733 1.65341H47.0051L44.3972 9ZM44.8063 5.59091H49.2722V6.52841H44.8063V5.59091ZM56.5442 2.45455L54.1238 9H53.101L50.6806 2.45455H51.7715L53.5783 7.67045H53.6465L55.4533 2.45455H56.5442ZM59.5985 9.15341C59.1838 9.15341 58.8074 9.07528 58.4693 8.91903C58.1312 8.75994 57.8627 8.53125 57.6639 8.23295C57.465 7.93182 57.3656 7.56818 57.3656 7.14205C57.3656 6.76705 57.4395 6.46307 57.5872 6.23011C57.7349 5.99432 57.9324 5.80966 58.1795 5.67614C58.4267 5.54261 58.6994 5.44318 58.9977 5.37784C59.2988 5.30966 59.6014 5.25568 59.9054 5.21591C60.3031 5.16477 60.6255 5.12642 60.8727 5.10085C61.1227 5.07244 61.3045 5.02557 61.4181 4.96023C61.5346 4.89489 61.5929 4.78125 61.5929 4.61932V4.58523C61.5929 4.16477 61.4778 3.83807 61.2477 3.60511C61.0204 3.37216 60.6752 3.25568 60.2122 3.25568C59.7321 3.25568 59.3556 3.3608 59.0829 3.57102C58.8102 3.78125 58.6184 4.00568 58.5076 4.24432L57.5531 3.90341C57.7235 3.50568 57.9508 3.19602 58.2349 2.97443C58.5218 2.75 58.8343 2.59375 59.1724 2.50568C59.5133 2.41477 59.8485 2.36932 60.1781 2.36932C60.3883 2.36932 60.6298 2.39489 60.9025 2.44602C61.1781 2.49432 61.4437 2.59517 61.6994 2.74858C61.9579 2.90199 62.1724 3.13352 62.3429 3.44318C62.5133 3.75284 62.5985 4.16761 62.5985 4.6875V9H61.5929V8.11364H61.5417C61.4735 8.25568 61.3599 8.40767 61.2008 8.5696C61.0417 8.73153 60.8301 8.86932 60.5659 8.98295C60.3017 9.09659 59.9792 9.15341 59.5985 9.15341ZM59.752 8.25C60.1497 8.25 60.4849 8.17188 60.7576 8.01562C61.0332 7.85938 61.2406 7.65767 61.3798 7.41051C61.5218 7.16335 61.5929 6.90341 61.5929 6.63068V5.71023C61.5502 5.76136 61.4565 5.80824 61.3116 5.85085C61.1696 5.89062 61.0048 5.92614 60.8173 5.95739C60.6326 5.9858 60.4522 6.01136 60.2761 6.03409C60.1028 6.05398 59.9622 6.07102 59.8542 6.08523C59.5929 6.11932 59.3485 6.17472 59.1213 6.25142C58.8968 6.32528 58.715 6.4375 58.5758 6.58807C58.4395 6.7358 58.3713 6.9375 58.3713 7.19318C58.3713 7.54261 58.5005 7.80682 58.7591 7.9858C59.0204 8.16193 59.3514 8.25 59.752 8.25ZM67.9455 9V0.272727H69.0023V8.0625H73.0591V9H67.9455ZM76.4853 9.15341C76.0705 9.15341 75.6941 9.07528 75.356 8.91903C75.0179 8.75994 74.7495 8.53125 74.5506 8.23295C74.3517 7.93182 74.2523 7.56818 74.2523 7.14205C74.2523 6.76705 74.3262 6.46307 74.4739 6.23011C74.6216 5.99432 74.8191 5.80966 75.0662 5.67614C75.3134 5.54261 75.5861 5.44318 75.8844 5.37784C76.1855 5.30966 76.4881 5.25568 76.7921 5.21591C77.1898 5.16477 77.5123 5.12642 77.7594 5.10085C78.0094 5.07244 78.1912 5.02557 78.3049 4.96023C78.4213 4.89489 78.4796 4.78125 78.4796 4.61932V4.58523C78.4796 4.16477 78.3645 3.83807 78.1344 3.60511C77.9071 3.37216 77.562 3.25568 77.0989 3.25568C76.6188 3.25568 76.2424 3.3608 75.9696 3.57102C75.6969 3.78125 75.5051 4.00568 75.3944 4.24432L74.4398 3.90341C74.6103 3.50568 74.8375 3.19602 75.1216 2.97443C75.4086 2.75 75.7211 2.59375 76.0591 2.50568C76.4 2.41477 76.7353 2.36932 77.0648 2.36932C77.275 2.36932 77.5165 2.39489 77.7892 2.44602C78.0648 2.49432 78.3304 2.59517 78.5861 2.74858C78.8446 2.90199 79.0591 3.13352 79.2296 3.44318C79.4 3.75284 79.4853 4.16761 79.4853 4.6875V9H78.4796V8.11364H78.4284C78.3603 8.25568 78.2466 8.40767 78.0875 8.5696C77.9284 8.73153 77.7168 8.86932 77.4526 8.98295C77.1884 9.09659 76.8659 9.15341 76.4853 9.15341ZM76.6387 8.25C77.0364 8.25 77.3716 8.17188 77.6444 8.01562C77.9199 7.85938 78.1273 7.65767 78.2665 7.41051C78.4086 7.16335 78.4796 6.90341 78.4796 6.63068V5.71023C78.437 5.76136 78.3432 5.80824 78.1983 5.85085C78.0563 5.89062 77.8915 5.92614 77.704 5.95739C77.5194 5.9858 77.339 6.01136 77.1628 6.03409C76.9895 6.05398 76.8489 6.07102 76.7409 6.08523C76.4796 6.11932 76.2353 6.17472 76.008 6.25142C75.7836 6.32528 75.6017 6.4375 75.4625 6.58807C75.3262 6.7358 75.258 6.9375 75.258 7.19318C75.258 7.54261 75.3873 7.80682 75.6458 7.9858C75.9071 8.16193 76.2381 8.25 76.6387 8.25ZM81.4572 9V0.272727H82.4629V3.49432H82.5481C82.622 3.38068 82.7243 3.2358 82.8549 3.05966C82.9885 2.88068 83.1788 2.72159 83.426 2.58239C83.676 2.44034 84.014 2.36932 84.4402 2.36932C84.9913 2.36932 85.4771 2.5071 85.8975 2.78267C86.318 3.05824 86.6461 3.44886 86.8819 3.95455C87.1177 4.46023 87.2356 5.05682 87.2356 5.74432C87.2356 6.4375 87.1177 7.03835 86.8819 7.54688C86.6461 8.05256 86.3194 8.4446 85.9018 8.72301C85.4842 8.99858 85.0027 9.13636 84.4572 9.13636C84.0368 9.13636 83.7001 9.06676 83.4473 8.92756C83.1944 8.78551 82.9998 8.625 82.8635 8.44602C82.7271 8.2642 82.622 8.11364 82.5481 7.99432H82.4288V9H81.4572ZM82.4458 5.72727C82.4458 6.22159 82.5183 6.65767 82.6632 7.03551C82.8081 7.41051 83.0197 7.70455 83.2981 7.91761C83.5765 8.12784 83.9174 8.23295 84.3208 8.23295C84.7413 8.23295 85.0922 8.12216 85.3734 7.90057C85.6575 7.67614 85.8706 7.375 86.0126 6.99716C86.1575 6.61648 86.2299 6.19318 86.2299 5.72727C86.2299 5.26705 86.1589 4.85227 86.0169 4.48295C85.8777 4.1108 85.666 3.81676 85.3819 3.60085C85.1007 3.3821 84.747 3.27273 84.3208 3.27273C83.9118 3.27273 83.568 3.37642 83.2896 3.58381C83.0112 3.78835 82.801 4.07528 82.6589 4.4446C82.5169 4.81108 82.4458 5.23864 82.4458 5.72727ZM93.4103 3.92045L92.5069 4.17614C92.4501 4.02557 92.3663 3.87926 92.2555 3.73722C92.1475 3.59233 91.9998 3.47301 91.8123 3.37926C91.6248 3.28551 91.3848 3.23864 91.0922 3.23864C90.6916 3.23864 90.3578 3.33097 90.0907 3.51562C89.8265 3.69744 89.6944 3.92898 89.6944 4.21023C89.6944 4.46023 89.7853 4.65767 89.9672 4.80256C90.149 4.94744 90.4331 5.06818 90.8194 5.16477L91.791 5.40341C92.3762 5.54545 92.8123 5.76278 93.0993 6.0554C93.3862 6.34517 93.5297 6.71875 93.5297 7.17614C93.5297 7.55114 93.4217 7.88636 93.2058 8.18182C92.9927 8.47727 92.6944 8.71023 92.3109 8.88068C91.9274 9.05114 91.4814 9.13636 90.9728 9.13636C90.3052 9.13636 89.7527 8.99148 89.3152 8.7017C88.8777 8.41193 88.6007 7.98864 88.4842 7.43182L89.4387 7.19318C89.5297 7.54545 89.7015 7.80966 89.9544 7.9858C90.21 8.16193 90.5439 8.25 90.9558 8.25C91.4245 8.25 91.7967 8.15057 92.0723 7.9517C92.3507 7.75 92.4899 7.50852 92.4899 7.22727C92.4899 7 92.4103 6.80966 92.2512 6.65625C92.0922 6.5 91.8478 6.38352 91.5183 6.30682L90.4274 6.05114C89.8279 5.90909 89.3876 5.68892 89.1064 5.39062C88.8279 5.08949 88.6887 4.71307 88.6887 4.26136C88.6887 3.89205 88.7924 3.56534 88.9998 3.28125C89.21 2.99716 89.4956 2.77415 89.8564 2.61222C90.22 2.45028 90.6319 2.36932 91.0922 2.36932C91.7399 2.36932 92.2484 2.51136 92.6177 2.79545C92.9899 3.07955 93.2541 3.45455 93.4103 3.92045ZM103.498 4.16761V5.10511H97.498V4.16761H103.498ZM108.288 9H107.18L110.384 0.272727H111.475L114.68 9H113.572L110.964 1.65341H110.896L108.288 9ZM108.697 5.59091H113.163V6.52841H108.697V5.59091ZM116.909 0.272727V9H115.903V0.272727H116.909ZM119.756 0.272727V9H118.751V0.272727H119.756ZM124.973 9V2.45455H125.945V3.44318H126.013C126.132 3.11932 126.348 2.85653 126.661 2.65483C126.973 2.45312 127.325 2.35227 127.718 2.35227C127.791 2.35227 127.884 2.35369 127.994 2.35653C128.105 2.35937 128.189 2.36364 128.246 2.36932V3.39205C128.212 3.38352 128.134 3.37074 128.012 3.35369C127.892 3.33381 127.766 3.32386 127.632 3.32386C127.314 3.32386 127.03 3.39062 126.78 3.52415C126.533 3.65483 126.337 3.83665 126.192 4.0696C126.05 4.29972 125.979 4.5625 125.979 4.85795V9H124.973ZM129.438 9V2.45455H130.444V9H129.438ZM129.949 1.36364C129.753 1.36364 129.584 1.29687 129.442 1.16335C129.303 1.02983 129.233 0.869318 129.233 0.681818C129.233 0.494318 129.303 0.333807 129.442 0.200284C129.584 0.0667613 129.753 0 129.949 0C130.145 0 130.313 0.0667613 130.452 0.200284C130.594 0.333807 130.665 0.494318 130.665 0.681818C130.665 0.869318 130.594 1.02983 130.452 1.16335C130.313 1.29687 130.145 1.36364 129.949 1.36364ZM134.928 11.5909C134.442 11.5909 134.024 11.5284 133.675 11.4034C133.325 11.2812 133.034 11.1193 132.801 10.9176C132.571 10.7188 132.388 10.5057 132.252 10.2784L133.053 9.71591C133.144 9.83523 133.259 9.97159 133.398 10.125C133.537 10.2812 133.727 10.4162 133.969 10.5298C134.213 10.6463 134.533 10.7045 134.928 10.7045C135.456 10.7045 135.892 10.5767 136.236 10.321C136.58 10.0653 136.752 9.66477 136.752 9.11932V7.78977H136.666C136.593 7.90909 136.487 8.05682 136.351 8.23295C136.218 8.40625 136.024 8.56108 135.771 8.69744C135.521 8.83097 135.183 8.89773 134.757 8.89773C134.229 8.89773 133.754 8.77273 133.334 8.52273C132.916 8.27273 132.585 7.90909 132.341 7.43182C132.1 6.95455 131.979 6.375 131.979 5.69318C131.979 5.02273 132.097 4.43892 132.333 3.94176C132.568 3.44176 132.896 3.0554 133.317 2.78267C133.737 2.5071 134.223 2.36932 134.774 2.36932C135.2 2.36932 135.539 2.44034 135.789 2.58239C136.041 2.72159 136.235 2.88068 136.368 3.05966C136.504 3.2358 136.61 3.38068 136.683 3.49432H136.786V2.45455H137.757V9.1875C137.757 9.75 137.629 10.2074 137.374 10.5597C137.121 10.9148 136.78 11.1747 136.351 11.3395C135.925 11.5071 135.45 11.5909 134.928 11.5909ZM134.894 7.99432C135.297 7.99432 135.638 7.90199 135.916 7.71733C136.195 7.53267 136.406 7.26705 136.551 6.92045C136.696 6.57386 136.769 6.15909 136.769 5.67614C136.769 5.20455 136.698 4.78835 136.556 4.42756C136.414 4.06676 136.203 3.78409 135.925 3.57955C135.646 3.375 135.303 3.27273 134.894 3.27273C134.468 3.27273 134.112 3.38068 133.828 3.59659C133.547 3.8125 133.335 4.10227 133.193 4.46591C133.054 4.82955 132.985 5.23295 132.985 5.67614C132.985 6.13068 133.056 6.53267 133.198 6.8821C133.343 7.22869 133.556 7.50142 133.837 7.70028C134.121 7.89631 134.473 7.99432 134.894 7.99432ZM140.604 5.0625V9H139.598V0.272727H140.604V3.47727H140.689C140.843 3.1392 141.073 2.87074 141.379 2.67188C141.689 2.47017 142.101 2.36932 142.615 2.36932C143.061 2.36932 143.452 2.45881 143.787 2.63778C144.122 2.81392 144.382 3.08523 144.567 3.4517C144.754 3.81534 144.848 4.27841 144.848 4.84091V9H143.843V4.90909C143.843 4.3892 143.708 3.98722 143.438 3.70312C143.171 3.41619 142.8 3.27273 142.325 3.27273C141.996 3.27273 141.7 3.34233 141.439 3.48153C141.181 3.62074 140.976 3.82386 140.825 4.09091C140.678 4.35795 140.604 4.68182 140.604 5.0625ZM149.535 2.45455V3.30682H146.143V2.45455H149.535ZM147.131 0.886364H148.137V7.125C148.137 7.40909 148.178 7.62216 148.26 7.7642C148.346 7.90341 148.454 7.99716 148.584 8.04545C148.718 8.09091 148.858 8.11364 149.006 8.11364C149.117 8.11364 149.208 8.10795 149.279 8.09659C149.35 8.08239 149.407 8.07102 149.449 8.0625L149.654 8.96591C149.586 8.99148 149.491 9.01705 149.368 9.04261C149.246 9.07102 149.091 9.08523 148.904 9.08523C148.62 9.08523 148.341 9.02415 148.069 8.90199C147.799 8.77983 147.574 8.59375 147.395 8.34375C147.219 8.09375 147.131 7.77841 147.131 7.39773V0.886364ZM155.567 3.92045L154.663 4.17614C154.606 4.02557 154.523 3.87926 154.412 3.73722C154.304 3.59233 154.156 3.47301 153.969 3.37926C153.781 3.28551 153.541 3.23864 153.248 3.23864C152.848 3.23864 152.514 3.33097 152.247 3.51562C151.983 3.69744 151.851 3.92898 151.851 4.21023C151.851 4.46023 151.942 4.65767 152.123 4.80256C152.305 4.94744 152.589 5.06818 152.976 5.16477L153.947 5.40341C154.532 5.54545 154.969 5.76278 155.256 6.0554C155.542 6.34517 155.686 6.71875 155.686 7.17614C155.686 7.55114 155.578 7.88636 155.362 8.18182C155.149 8.47727 154.851 8.71023 154.467 8.88068C154.084 9.05114 153.638 9.13636 153.129 9.13636C152.461 9.13636 151.909 8.99148 151.471 8.7017C151.034 8.41193 150.757 7.98864 150.64 7.43182L151.595 7.19318C151.686 7.54545 151.858 7.80966 152.111 7.9858C152.366 8.16193 152.7 8.25 153.112 8.25C153.581 8.25 153.953 8.15057 154.229 7.9517C154.507 7.75 154.646 7.50852 154.646 7.22727C154.646 7 154.567 6.80966 154.407 6.65625C154.248 6.5 154.004 6.38352 153.675 6.30682L152.584 6.05114C151.984 5.90909 151.544 5.68892 151.263 5.39062C150.984 5.08949 150.845 4.71307 150.845 4.26136C150.845 3.89205 150.949 3.56534 151.156 3.28125C151.366 2.99716 151.652 2.77415 152.013 2.61222C152.376 2.45028 152.788 2.36932 153.248 2.36932C153.896 2.36932 154.405 2.51136 154.774 2.79545C155.146 3.07955 155.41 3.45455 155.567 3.92045ZM160.575 9V2.45455H161.546V3.44318H161.615C161.734 3.11932 161.95 2.85653 162.262 2.65483C162.575 2.45312 162.927 2.35227 163.319 2.35227C163.393 2.35227 163.485 2.35369 163.596 2.35653C163.707 2.35937 163.791 2.36364 163.847 2.36932V3.39205C163.813 3.38352 163.735 3.37074 163.613 3.35369C163.494 3.33381 163.367 3.32386 163.234 3.32386C162.916 3.32386 162.632 3.39062 162.382 3.52415C162.134 3.65483 161.938 3.83665 161.794 4.0696C161.651 4.29972 161.58 4.5625 161.58 4.85795V9H160.575ZM167.585 9.13636C166.954 9.13636 166.41 8.99716 165.953 8.71875C165.498 8.4375 165.147 8.04545 164.9 7.54261C164.656 7.03693 164.534 6.44886 164.534 5.77841C164.534 5.10795 164.656 4.51705 164.9 4.00568C165.147 3.49148 165.491 3.09091 165.931 2.80398C166.374 2.5142 166.892 2.36932 167.482 2.36932C167.823 2.36932 168.16 2.42614 168.492 2.53977C168.825 2.65341 169.127 2.83807 169.4 3.09375C169.673 3.34659 169.89 3.68182 170.052 4.09943C170.214 4.51705 170.295 5.03125 170.295 5.64205V6.06818H165.249V5.19886H169.272C169.272 4.82955 169.198 4.5 169.051 4.21023C168.906 3.92045 168.698 3.69176 168.428 3.52415C168.161 3.35653 167.846 3.27273 167.482 3.27273C167.082 3.27273 166.735 3.37216 166.443 3.57102C166.153 3.76705 165.93 4.02273 165.774 4.33807C165.617 4.65341 165.539 4.99148 165.539 5.35227V5.93182C165.539 6.42614 165.624 6.84517 165.795 7.18892C165.968 7.52983 166.208 7.78977 166.515 7.96875C166.822 8.14489 167.178 8.23295 167.585 8.23295C167.849 8.23295 168.088 8.19602 168.301 8.12216C168.517 8.04545 168.703 7.93182 168.859 7.78125C169.015 7.62784 169.136 7.4375 169.221 7.21023L170.193 7.48295C170.09 7.8125 169.919 8.10227 169.677 8.35227C169.436 8.59943 169.137 8.79261 168.782 8.93182C168.427 9.06818 168.028 9.13636 167.585 9.13636ZM176.461 3.92045L175.558 4.17614C175.501 4.02557 175.417 3.87926 175.306 3.73722C175.198 3.59233 175.051 3.47301 174.863 3.37926C174.676 3.28551 174.436 3.23864 174.143 3.23864C173.742 3.23864 173.409 3.33097 173.142 3.51562C172.877 3.69744 172.745 3.92898 172.745 4.21023C172.745 4.46023 172.836 4.65767 173.018 4.80256C173.2 4.94744 173.484 5.06818 173.87 5.16477L174.842 5.40341C175.427 5.54545 175.863 5.76278 176.15 6.0554C176.437 6.34517 176.58 6.71875 176.58 7.17614C176.58 7.55114 176.472 7.88636 176.257 8.18182C176.044 8.47727 175.745 8.71023 175.362 8.88068C174.978 9.05114 174.532 9.13636 174.024 9.13636C173.356 9.13636 172.803 8.99148 172.366 8.7017C171.928 8.41193 171.651 7.98864 171.535 7.43182L172.49 7.19318C172.58 7.54545 172.752 7.80966 173.005 7.9858C173.261 8.16193 173.595 8.25 174.007 8.25C174.475 8.25 174.847 8.15057 175.123 7.9517C175.401 7.75 175.541 7.50852 175.541 7.22727C175.541 7 175.461 6.80966 175.302 6.65625C175.143 6.5 174.899 6.38352 174.569 6.30682L173.478 6.05114C172.879 5.90909 172.438 5.68892 172.157 5.39062C171.879 5.08949 171.74 4.71307 171.74 4.26136C171.74 3.89205 171.843 3.56534 172.051 3.28125C172.261 2.99716 172.546 2.77415 172.907 2.61222C173.271 2.45028 173.683 2.36932 174.143 2.36932C174.791 2.36932 175.299 2.51136 175.669 2.79545C176.041 3.07955 176.305 3.45455 176.461 3.92045ZM180.839 9.13636C180.208 9.13636 179.664 8.99716 179.206 8.71875C178.752 8.4375 178.401 8.04545 178.154 7.54261C177.91 7.03693 177.787 6.44886 177.787 5.77841C177.787 5.10795 177.91 4.51705 178.154 4.00568C178.401 3.49148 178.745 3.09091 179.185 2.80398C179.628 2.5142 180.145 2.36932 180.736 2.36932C181.077 2.36932 181.414 2.42614 181.746 2.53977C182.079 2.65341 182.381 2.83807 182.654 3.09375C182.927 3.34659 183.144 3.68182 183.306 4.09943C183.468 4.51705 183.549 5.03125 183.549 5.64205V6.06818H178.503V5.19886H182.526C182.526 4.82955 182.452 4.5 182.305 4.21023C182.16 3.92045 181.952 3.69176 181.682 3.52415C181.415 3.35653 181.1 3.27273 180.736 3.27273C180.336 3.27273 179.989 3.37216 179.697 3.57102C179.407 3.76705 179.184 4.02273 179.028 4.33807C178.871 4.65341 178.793 4.99148 178.793 5.35227V5.93182C178.793 6.42614 178.878 6.84517 179.049 7.18892C179.222 7.52983 179.462 7.78977 179.769 7.96875C180.076 8.14489 180.432 8.23295 180.839 8.23295C181.103 8.23295 181.341 8.19602 181.555 8.12216C181.77 8.04545 181.956 7.93182 182.113 7.78125C182.269 7.62784 182.39 7.4375 182.475 7.21023L183.447 7.48295C183.344 7.8125 183.172 8.10227 182.931 8.35227C182.689 8.59943 182.391 8.79261 182.036 8.93182C181.681 9.06818 181.282 9.13636 180.839 9.13636ZM185.079 9V2.45455H186.05V3.44318H186.118C186.238 3.11932 186.454 2.85653 186.766 2.65483C187.079 2.45312 187.431 2.35227 187.823 2.35227C187.897 2.35227 187.989 2.35369 188.1 2.35653C188.211 2.35937 188.295 2.36364 188.351 2.36932V3.39205C188.317 3.38352 188.239 3.37074 188.117 3.35369C187.998 3.33381 187.871 3.32386 187.738 3.32386C187.42 3.32386 187.135 3.39062 186.885 3.52415C186.638 3.65483 186.442 3.83665 186.297 4.0696C186.155 4.29972 186.084 4.5625 186.084 4.85795V9H185.079ZM195.095 2.45455L192.675 9H191.652L189.231 2.45455H190.322L192.129 7.67045H192.197L194.004 2.45455H195.095ZM198.932 9.13636C198.302 9.13636 197.758 8.99716 197.3 8.71875C196.846 8.4375 196.495 8.04545 196.248 7.54261C196.003 7.03693 195.881 6.44886 195.881 5.77841C195.881 5.10795 196.003 4.51705 196.248 4.00568C196.495 3.49148 196.839 3.09091 197.279 2.80398C197.722 2.5142 198.239 2.36932 198.83 2.36932C199.171 2.36932 199.508 2.42614 199.84 2.53977C200.172 2.65341 200.475 2.83807 200.748 3.09375C201.02 3.34659 201.238 3.68182 201.4 4.09943C201.562 4.51705 201.643 5.03125 201.643 5.64205V6.06818H196.597V5.19886H200.62C200.62 4.82955 200.546 4.5 200.398 4.21023C200.253 3.92045 200.046 3.69176 199.776 3.52415C199.509 3.35653 199.194 3.27273 198.83 3.27273C198.43 3.27273 198.083 3.37216 197.79 3.57102C197.501 3.76705 197.278 4.02273 197.121 4.33807C196.965 4.65341 196.887 4.99148 196.887 5.35227V5.93182C196.887 6.42614 196.972 6.84517 197.143 7.18892C197.316 7.52983 197.556 7.78977 197.863 7.96875C198.17 8.14489 198.526 8.23295 198.932 8.23295C199.197 8.23295 199.435 8.19602 199.648 8.12216C199.864 8.04545 200.05 7.93182 200.206 7.78125C200.363 7.62784 200.483 7.4375 200.569 7.21023L201.54 7.48295C201.438 7.8125 201.266 8.10227 201.025 8.35227C200.783 8.59943 200.485 8.79261 200.13 8.93182C199.775 9.06818 199.376 9.13636 198.932 9.13636ZM205.644 9.13636C205.099 9.13636 204.617 8.99858 204.199 8.72301C203.782 8.4446 203.455 8.05256 203.219 7.54688C202.983 7.03835 202.866 6.4375 202.866 5.74432C202.866 5.05682 202.983 4.46023 203.219 3.95455C203.455 3.44886 203.783 3.05824 204.204 2.78267C204.624 2.5071 205.11 2.36932 205.661 2.36932C206.087 2.36932 206.424 2.44034 206.671 2.58239C206.921 2.72159 207.111 2.88068 207.242 3.05966C207.376 3.2358 207.479 3.38068 207.553 3.49432H207.638V0.272727H208.644V9H207.672V7.99432H207.553C207.479 8.11364 207.374 8.2642 207.238 8.44602C207.101 8.625 206.907 8.78551 206.654 8.92756C206.401 9.06676 206.064 9.13636 205.644 9.13636ZM205.78 8.23295C206.184 8.23295 206.525 8.12784 206.803 7.91761C207.081 7.70455 207.293 7.41051 207.438 7.03551C207.583 6.65767 207.655 6.22159 207.655 5.72727C207.655 5.23864 207.584 4.81108 207.442 4.4446C207.3 4.07528 207.09 3.78835 206.812 3.58381C206.533 3.37642 206.189 3.27273 205.78 3.27273C205.354 3.27273 204.999 3.3821 204.715 3.60085C204.434 3.81676 204.222 4.1108 204.08 4.48295C203.941 4.85227 203.871 5.26705 203.871 5.72727C203.871 6.19318 203.942 6.61648 204.084 6.99716C204.229 7.375 204.442 7.67614 204.724 7.90057C205.008 8.12216 205.36 8.23295 205.78 8.23295Z" fill="currentColor" fill-opacity="0.6"/>
</svg>
