<svg width="32" height="29" viewBox="0 0 32 29" fill="none" xmlns="http://www.w3.org/2000/svg">
<path fill-rule="evenodd" clip-rule="evenodd" d="M8.03054 28.4007H2.65035C1.51984 28.4007 0.961357 28.4007 0.620799 28.1827C0.253075 27.9443 0.0282937 27.5493 0.00104218 27.1134C-0.0193536 26.7116 0.259846 26.2212 0.818329 25.2404L14.1027 1.82355C14.668 0.829159 14.954 0.332006 15.315 0.148092C15.7032 -0.0493639 16.1663 -0.0493639 16.5545 0.148092C16.9155 0.332006 17.2015 0.829159 17.7668 1.82355L20.4978 6.5911L20.5117 6.61544C21.1222 7.68225 21.4318 8.2232 21.567 8.79097C21.7168 9.41076 21.7168 10.0646 21.567 10.6844C21.4308 11.2565 21.1243 11.8014 20.5045 12.8843L13.5266 25.22L13.5085 25.2517C12.8939 26.3272 12.5825 26.8723 12.1508 27.2837C11.681 27.7332 11.1157 28.0601 10.4959 28.244C9.93069 28.4007 9.29731 28.4007 8.03054 28.4007ZM21.6192 28.4012H29.3286C30.466 28.4012 31.038 28.4012 31.3785 28.1765C31.7463 27.9381 31.9778 27.5362 31.9983 27.1003C32.018 26.7118 31.7448 26.2403 31.2095 25.3166C31.1912 25.2851 31.1726 25.2531 31.1538 25.2206L27.2923 18.6141L27.2483 18.5398C26.7057 17.622 26.4316 17.1587 26.08 16.9795C25.6918 16.782 25.2356 16.782 24.8474 16.9795C24.4932 17.1634 24.2071 17.647 23.6419 18.6209L19.794 25.2273L19.7808 25.2501C19.2175 26.2225 18.936 26.7084 18.9563 27.1072C18.9836 27.5431 19.2083 27.9449 19.5761 28.1833C19.9098 28.4012 20.4818 28.4012 21.6192 28.4012Z" fill="currentColor"/>
</svg>
