<svg width="25" height="25" viewBox="0 0 25 25" fill="none" xmlns="http://www.w3.org/2000/svg">
<mask id="mask0_7381_33451" style="mask-type:alpha" maskUnits="userSpaceOnUse" x="0" y="0" width="25" height="25">
<rect x="0.800781" y="0.660156" width="24" height="24" fill="#D9D9D9"/>
</mask>
<g mask="url(#mask0_7381_33451)">
<path d="M12.2 20.4C10.19 20.4 8.4875 19.7025 7.0925 18.3075C5.6975 16.9125 5 15.21 5 13.2C5 11.19 5.6975 9.4875 7.0925 8.0925C8.4875 6.6975 10.19 6 12.2 6C13.235 6 14.225 6.21375 15.17 6.64125C16.115 7.06875 16.925 7.68 17.6 8.475V6.9C17.6 6.645 17.6863 6.43125 17.8588 6.25875C18.0312 6.08625 18.245 6 18.5 6C18.755 6 18.9688 6.08625 19.1413 6.25875C19.3138 6.43125 19.4 6.645 19.4 6.9V11.4C19.4 11.655 19.3138 11.8687 19.1413 12.0412C18.9688 12.2137 18.755 12.3 18.5 12.3H14C13.745 12.3 13.5312 12.2137 13.3588 12.0412C13.1863 11.8687 13.1 11.655 13.1 11.4C13.1 11.145 13.1863 10.9313 13.3588 10.7587C13.5312 10.5862 13.745 10.5 14 10.5H16.88C16.4 9.66 15.7437 9 14.9112 8.52C14.0787 8.04 13.175 7.8 12.2 7.8C10.7 7.8 9.425 8.325 8.375 9.375C7.325 10.425 6.8 11.7 6.8 13.2C6.8 14.7 7.325 15.975 8.375 17.025C9.425 18.075 10.7 18.6 12.2 18.6C13.22 18.6 14.1538 18.3412 15.0013 17.8237C15.8488 17.3062 16.505 16.6125 16.97 15.7425C17.09 15.5325 17.2587 15.3863 17.4762 15.3038C17.6937 15.2212 17.915 15.2175 18.14 15.2925C18.38 15.3675 18.5525 15.525 18.6575 15.765C18.7625 16.005 18.755 16.23 18.635 16.44C18.02 17.64 17.1425 18.6 16.0025 19.32C14.8625 20.04 13.595 20.4 12.2 20.4Z" fill="currentColor"/>
</g>
</svg>
