<svg width="24" height="24" viewBox="0 0 24 24" fill="none" xmlns="http://www.w3.org/2000/svg">
<mask id="mask0_3650_1081" style="mask-type:alpha" maskUnits="userSpaceOnUse" x="0" y="0" width="24" height="24">
<rect width="24" height="24" fill="#D9D9D9"/>
</mask>
<g mask="url(#mask0_3650_1081)">
<path d="M17.5322 15.4668L17.5312 15.4688L12 21L6.4707 15.4697L6.46777 15.4678L8.50391 13.4365L12 16.9316L15.4971 13.4346L17.5322 15.4668ZM14.0635 11.999L14.0645 12L12 14.0645L9.9375 12.0029L9.93457 12L9.9375 11.9971L10.2998 11.6357L10.4746 11.46L12 9.93457L14.0635 11.999ZM21 12L18.9658 14.0342L16.9316 12.001L18.9658 9.9668L21 12ZM7.06836 12L5.03418 14.0332L3 12L5.03418 9.96582L7.06836 12ZM17.5312 8.53125L15.4971 10.5654L12 7.06836L8.50391 10.5635L6.4707 8.5293L12 3L17.5312 8.53125Z" fill="currentColor"/>
</g>
</svg>
