<svg width="24" height="24" viewBox="0 0 24 24" fill="none" xmlns="http://www.w3.org/2000/svg">
<path d="M10.6891 18.1378L15.8641 11.9378H11.8641L12.5891 6.26283L7.96407 12.9378H11.4391L10.6891 18.1378ZM9.13907 14.9378H6.03907C5.63907 14.9378 5.34324 14.7587 5.15157 14.4003C4.9599 14.042 4.98074 13.6962 5.21407 13.3628L12.6891 2.61283C12.8557 2.3795 13.0724 2.217 13.3391 2.12533C13.6057 2.03366 13.8807 2.03783 14.1641 2.13783C14.4474 2.23783 14.6557 2.41283 14.7891 2.66283C14.9224 2.91283 14.9724 3.1795 14.9391 3.46283L14.1391 9.93783H18.0141C18.4474 9.93783 18.7516 10.1295 18.9266 10.5128C19.1016 10.8962 19.0474 11.2545 18.7641 11.5878L10.5391 21.4378C10.3557 21.6545 10.1307 21.7962 9.86407 21.8628C9.5974 21.9295 9.33907 21.9045 9.08907 21.7878C8.83907 21.6712 8.64324 21.492 8.50157 21.2503C8.3599 21.0087 8.30574 20.7462 8.33907 20.4628L9.13907 14.9378Z" fill="currentColor"/>
</svg>
