<svg width="24" height="24" viewBox="0 0 24 24" fill="none" xmlns="http://www.w3.org/2000/svg">
    <path d="M3.60001 21.8V18H2.60001C2.31667 18 2.07917 17.9041 1.88751 17.7125C1.69584 17.5208 1.60001 17.2833 1.60001 17V6.99998C1.60001 6.71664 1.69584 6.47914 1.88751 6.28748C2.07917 6.09581 2.31667 5.99998 2.60001 5.99998H3.60001V4.99998C3.60001 4.71664 3.69584 4.47914 3.88751 4.28748C4.07917 4.09581 4.31667 3.99998 4.60001 3.99998C4.88334 3.99998 5.12084 4.09581 5.31251 4.28748C5.50417 4.47914 5.60001 4.71664 5.60001 4.99998V5.99998H6.60001C6.88334 5.99998 7.12084 6.09581 7.31251 6.28748C7.50417 6.47914 7.60001 6.71664 7.60001 6.99998V17C7.60001 17.2833 7.50417 17.5208 7.31251 17.7125C7.12084 17.9041 6.88334 18 6.60001 18H5.60001V21.8C5.60001 22.0833 5.50417 22.3208 5.31251 22.5125C5.12084 22.7041 4.88334 22.8 4.60001 22.8C4.31667 22.8 4.07917 22.7041 3.88751 22.5125C3.69584 22.3208 3.60001 22.0833 3.60001 21.8ZM3.60001 16H5.60001V7.99998H3.60001V16ZM10.8 19V16.6H9.80001C9.51667 16.6 9.27917 16.5041 9.08751 16.3125C8.89584 16.1208 8.80001 15.8833 8.80001 15.6V10.6C8.80001 10.3166 8.89584 10.0791 9.08751 9.88748C9.27917 9.69581 9.51667 9.59998 9.80001 9.59998H10.8V7.79998C10.8 7.51664 10.8958 7.27914 11.0875 7.08748C11.2792 6.89581 11.5167 6.79998 11.8 6.79998C12.0833 6.79998 12.3208 6.89581 12.5125 7.08748C12.7042 7.27914 12.8 7.51664 12.8 7.79998V9.59998H13.8C14.0833 9.59998 14.3208 9.69581 14.5125 9.88748C14.7042 10.0791 14.8 10.3166 14.8 10.6V15.6C14.8 15.8833 14.7042 16.1208 14.5125 16.3125C14.3208 16.5041 14.0833 16.6 13.8 16.6H12.8V19C12.8 19.2833 12.7042 19.5208 12.5125 19.7125C12.3208 19.9041 12.0833 20 11.8 20C11.5167 20 11.2792 19.9041 11.0875 19.7125C10.8958 19.5208 10.8 19.2833 10.8 19ZM10.8 14.6H12.8V11.6H10.8V14.6Z" fill="currentColor"/>
    <path d="M18 15.8V12.4H17C16.7167 12.4 16.4792 12.3041 16.2875 12.1125C16.0958 11.9208 16 11.6833 16 11.4V6.99998C16 6.71664 16.0958 6.47914 16.2875 6.28748C16.4792 6.09581 16.7167 5.99998 17 5.99998H18V2.59998C18 2.31664 18.0958 2.07914 18.2875 1.88748C18.4792 1.69581 18.7167 1.59998 19 1.59998C19.2833 1.59998 19.5208 1.69581 19.7125 1.88748C19.9042 2.07914 20 2.31664 20 2.59998V5.99998H21C21.2833 5.99998 21.5208 6.09581 21.7125 6.28748C21.9042 6.47914 22 6.71664 22 6.99998V11.4C22 11.6833 21.9042 11.9208 21.7125 12.1125C21.5208 12.3041 21.2833 12.4 21 12.4H20V15.8C20 16.0833 19.9042 16.3208 19.7125 16.5125C19.5208 16.7041 19.2833 16.8 19 16.8C18.7167 16.8 18.4792 16.7041 18.2875 16.5125C18.0958 16.3208 18 16.0833 18 15.8ZM18 10.4H20V7.99998H18V10.4Z" fill="currentColor"/>
</svg>
