<svg width="24" height="24" viewBox="0 0 24 24" fill="none" xmlns="http://www.w3.org/2000/svg">
    <path d="M7 19V18H6C5.71667 18 5.47917 17.9042 5.2875 17.7125C5.09583 17.5208 5 17.2833 5 17V7C5 6.71667 5.09583 6.47917 5.2875 6.2875C5.47917 6.09583 5.71667 6 6 6H7V5C7 4.71667 7.09583 4.47917 7.2875 4.2875C7.47917 4.09583 7.71667 4 8 4C8.28333 4 8.52083 4.09583 8.7125 4.2875C8.90417 4.47917 9 4.71667 9 5V6H10C10.2833 6 10.5208 6.09583 10.7125 6.2875C10.9042 6.47917 11 6.71667 11 7V17C11 17.2833 10.9042 17.5208 10.7125 17.7125C10.5208 17.9042 10.2833 18 10 18H9V19C9 19.2833 8.90417 19.5208 8.7125 19.7125C8.52083 19.9042 8.28333 20 8 20C7.71667 20 7.47917 19.9042 7.2875 19.7125C7.09583 19.5208 7 19.2833 7 19ZM7 16H9V8H7V16ZM15 19V15H14C13.7167 15 13.4792 14.9042 13.2875 14.7125C13.0958 14.5208 13 14.2833 13 14V9C13 8.71667 13.0958 8.47917 13.2875 8.2875C13.4792 8.09583 13.7167 8 14 8H15V5C15 4.71667 15.0958 4.47917 15.2875 4.2875C15.4792 4.09583 15.7167 4 16 4C16.2833 4 16.5208 4.09583 16.7125 4.2875C16.9042 4.47917 17 4.71667 17 5V8H18C18.2833 8 18.5208 8.09583 18.7125 8.2875C18.9042 8.47917 19 8.71667 19 9V14C19 14.2833 18.9042 14.5208 18.7125 14.7125C18.5208 14.9042 18.2833 15 18 15H17V19C17 19.2833 16.9042 19.5208 16.7125 19.7125C16.5208 19.9042 16.2833 20 16 20C15.7167 20 15.4792 19.9042 15.2875 19.7125C15.0958 19.5208 15 19.2833 15 19ZM15 13H17V10H15V13Z" fill="currentColor"/>
</svg>
