<svg width="24" height="24" viewBox="0 0 24 24" fill="none" xmlns="http://www.w3.org/2000/svg">
<mask id="mask0_3627_1383" style="mask-type:alpha" maskUnits="userSpaceOnUse" x="0" y="0" width="24" height="24">
<rect width="24" height="24" fill="#D9D9D9"/>
</mask>
<g mask="url(#mask0_3627_1383)">
<path d="M14 13C13.1667 13 12.4583 12.7083 11.875 12.125C11.2917 11.5417 11 10.8333 11 10C11 9.16667 11.2917 8.45833 11.875 7.875C12.4583 7.29167 13.1667 7 14 7C14.8333 7 15.5417 7.29167 16.125 7.875C16.7083 8.45833 17 9.16667 17 10C17 10.8333 16.7083 11.5417 16.125 12.125C15.5417 12.7083 14.8333 13 14 13ZM7 16C6.45 16 5.97917 15.8042 5.5875 15.4125C5.19583 15.0208 5 14.55 5 14V6C5 5.45 5.19583 4.97917 5.5875 4.5875C5.97917 4.19583 6.45 4 7 4H21C21.55 4 22.0208 4.19583 22.4125 4.5875C22.8042 4.97917 23 5.45 23 6V14C23 14.55 22.8042 15.0208 22.4125 15.4125C22.0208 15.8042 21.55 16 21 16H7ZM9 14H19C19 13.45 19.1958 12.9792 19.5875 12.5875C19.9792 12.1958 20.45 12 21 12V8C20.45 8 19.9792 7.80417 19.5875 7.4125C19.1958 7.02083 19 6.55 19 6H9C9 6.55 8.80417 7.02083 8.4125 7.4125C8.02083 7.80417 7.55 8 7 8V12C7.55 12 8.02083 12.1958 8.4125 12.5875C8.80417 12.9792 9 13.45 9 14ZM19 20H3C2.45 20 1.97917 19.8042 1.5875 19.4125C1.19583 19.0208 1 18.55 1 18V8C1 7.71667 1.09583 7.47917 1.2875 7.2875C1.47917 7.09583 1.71667 7 2 7C2.28333 7 2.52083 7.09583 2.7125 7.2875C2.90417 7.47917 3 7.71667 3 8V18H19C19.2833 18 19.5208 18.0958 19.7125 18.2875C19.9042 18.4792 20 18.7167 20 19C20 19.2833 19.9042 19.5208 19.7125 19.7125C19.5208 19.9042 19.2833 20 19 20Z" fill="currentColor"/>
</g>
</svg>
