<svg width="24" height="24" viewBox="0 0 24 24" fill="none" xmlns="http://www.w3.org/2000/svg">
<path d="M7.29175 9.62493L11.3168 3.14993C11.4056 3.01659 11.5083 2.91801 11.625 2.85418C11.7417 2.79018 11.8723 2.75818 12.0168 2.75818C12.1611 2.75818 12.2916 2.79018 12.4082 2.85418C12.5249 2.91801 12.6277 3.01659 12.7167 3.14993L16.7417 9.62493C16.8306 9.76943 16.8722 9.91668 16.8667 10.0667C16.8611 10.2167 16.8222 10.3555 16.75 10.4832C16.6778 10.611 16.5801 10.7124 16.4567 10.7874C16.3334 10.8624 16.1895 10.8999 16.025 10.8999H8.00825C7.84258 10.8999 7.69758 10.8618 7.57325 10.7854C7.44908 10.7089 7.35242 10.6082 7.28325 10.4832C7.21108 10.3555 7.17225 10.2167 7.16675 10.0667C7.16108 9.91668 7.20275 9.76943 7.29175 9.62493ZM17.6 21.9999C16.3612 21.9999 15.3181 21.5763 14.4708 20.7292C13.6236 19.8818 13.2 18.8388 13.2 17.5999C13.2 16.3611 13.6236 15.318 14.4708 14.4707C15.3181 13.6235 16.3612 13.1999 17.6 13.1999C18.8388 13.1999 19.8819 13.6235 20.7292 14.4707C21.5764 15.318 22 16.3611 22 17.5999C22 18.8388 21.5764 19.8818 20.7292 20.7292C19.8819 21.5763 18.8388 21.9999 17.6 21.9999ZM3 20.5832V14.5167C3 14.2805 3.07983 14.0826 3.2395 13.9229C3.39933 13.7631 3.59725 13.6832 3.83325 13.6832H9.9C10.1362 13.6832 10.3341 13.7631 10.4937 13.9229C10.6534 14.0826 10.7332 14.2805 10.7332 14.5167V20.5832C10.7332 20.8193 10.6534 21.0173 10.4937 21.1769C10.3341 21.3368 10.1362 21.4167 9.9 21.4167H3.83325C3.59725 21.4167 3.39933 21.3368 3.2395 21.1769C3.07983 21.0173 3 20.8193 3 20.5832ZM17.6015 20.3332C18.3672 20.3332 19.0139 20.0688 19.5417 19.5402C20.0694 19.0115 20.3333 18.3643 20.3333 17.5984C20.3333 16.8328 20.0689 16.186 19.5402 15.6582C19.0116 15.1305 18.3643 14.8667 17.5985 14.8667C16.8328 14.8667 16.1861 15.131 15.6582 15.6597C15.1306 16.1883 14.8667 16.8356 14.8667 17.6014C14.8667 18.3671 15.1311 19.0138 15.6597 19.5417C16.1884 20.0693 16.8357 20.3332 17.6015 20.3332ZM4.66675 19.7499H9.06675V15.3499H4.66675V19.7499ZM9.5 9.23318H14.5332L12.0168 5.16668L9.5 9.23318Z" fill="currentColor" />
</svg>
