<svg width="16" height="16" viewBox="0 0 16 16" fill="none" xmlns="http://www.w3.org/2000/svg">
<path d="M8 9.0625L10.4167 11.4792C10.5694 11.6319 10.7465 11.7049 10.9479 11.6979C11.1493 11.691 11.3264 11.6111 11.4792 11.4583C11.6319 11.3056 11.7083 11.1285 11.7083 10.9271C11.7083 10.7257 11.6319 10.5489 11.4792 10.3967L9.0625 7.98958L11.4792 5.58244C11.6319 5.43026 11.7083 5.25347 11.7083 5.05208C11.7083 4.85069 11.6319 4.67361 11.4792 4.52083C11.3264 4.36806 11.1493 4.29167 10.9479 4.29167C10.7465 4.29167 10.5694 4.36806 10.4167 4.52083L8 6.9375L5.58333 4.52083C5.43056 4.36806 5.25694 4.29167 5.0625 4.29167C4.86806 4.29167 4.69444 4.36806 4.54167 4.52083C4.38889 4.67361 4.3125 4.85069 4.3125 5.05208C4.3125 5.25347 4.38828 5.43056 4.53985 5.58333L6.9375 8L4.52083 10.4167C4.36806 10.5694 4.29514 10.7431 4.30208 10.9375C4.30903 11.1319 4.38889 11.3056 4.54167 11.4583C4.69444 11.6111 4.87153 11.6875 5.07292 11.6875C5.27431 11.6875 5.45078 11.6117 5.60235 11.4601L8 9.0625ZM8.00575 16C6.9047 16 5.86806 15.7917 4.89583 15.375C3.92361 14.9583 3.07292 14.3854 2.34375 13.6562C1.61458 12.9271 1.04167 12.0767 0.625 11.105C0.208333 10.1334 0 9.09519 0 7.99046C0 6.88571 0.208333 5.85069 0.625 4.88542C1.04167 3.92014 1.61458 3.07292 2.34375 2.34375C3.07292 1.61458 3.92332 1.04167 4.89496 0.625C5.86661 0.208333 6.90481 0 8.00954 0C9.11429 0 10.1493 0.208333 11.1146 0.625C12.0799 1.04167 12.9271 1.61458 13.6562 2.34375C14.3854 3.07292 14.9583 3.92169 15.375 4.89008C15.7917 5.85849 16 6.89321 16 7.99425C16 9.09531 15.7917 10.1319 15.375 11.1042C14.9583 12.0764 14.3854 12.9271 13.6562 13.6562C12.9271 14.3854 12.0783 14.9583 11.1099 15.375C10.1415 15.7917 9.10679 16 8.00575 16Z" fill="currentColor" fill-opacity="0.6"/>
</svg>
