<svg width="12" height="12" viewBox="0 0 12 12" fill="none" xmlns="http://www.w3.org/2000/svg">
<path d="M9.14998 2.85499C8.95498 2.65999 8.63998 2.65999 8.44498 2.85499L5.99999 5.29499L3.55499 2.84999C3.35999 2.65499 3.04499 2.65499 2.84999 2.84999C2.65499 3.04499 2.65499 3.35999 2.84999 3.55499L5.29499 5.99999L2.84999 8.44498C2.65499 8.63998 2.65499 8.95498 2.84999 9.14998C3.04499 9.34498 3.35999 9.34498 3.55499 9.14998L5.99999 6.70498L8.44498 9.14998C8.63998 9.34498 8.95498 9.34498 9.14998 9.14998C9.34498 8.95498 9.34498 8.63998 9.14998 8.44498L6.70498 5.99999L9.14998 3.55499C9.33998 3.36499 9.33998 3.04499 9.14998 2.85499Z" fill="#B4B4B7"/>
</svg>
