<svg width="24" height="24" viewBox="0 0 24 24" fill="none" xmlns="http://www.w3.org/2000/svg">
<mask id="mask0_3650_1546" style="mask-type:alpha" maskUnits="userSpaceOnUse" x="0" y="0" width="24" height="24">
<rect width="24" height="24" fill="#D9D9D9"/>
</mask>
<g mask="url(#mask0_3650_1546)">
<path d="M12.0117 5C15.6977 5.00013 18.7167 7.83974 18.999 11.4473H15.5674C15.301 9.72589 13.8106 8.40832 12.0117 8.4082C10.0246 8.40826 8.41408 10.0162 8.41406 12C8.41416 13.9838 10.0246 15.5917 12.0117 15.5918C13.7783 15.5917 15.2463 14.3205 15.5508 12.6445H18.9922C18.6662 16.2082 15.6663 18.9999 12.0117 19C8.13931 19 5.0001 15.8659 5 12C5.00002 8.13402 8.13926 5.00003 12.0117 5Z" fill="currentColor"/>
</g>
</svg>
