<svg width="63" height="63" viewBox="0 0 63 63" fill="none" xmlns="http://www.w3.org/2000/svg">
<path d="M16.2656 31.5C16.2656 32.125 16.2135 32.75 16.1094 33.375C16.0052 34 15.849 34.599 15.6406 35.1719C15.4323 35.7969 15.4453 36.3958 15.6797 36.9688C15.9141 37.5417 16.3177 37.9323 16.8906 38.1406C17.5677 38.401 18.2057 38.375 18.8047 38.0625C19.4036 37.75 19.8073 37.2812 20.0156 36.6562C20.276 35.8229 20.4974 34.9766 20.6797 34.1172C20.862 33.2578 20.9531 32.3854 20.9531 31.5C20.9531 30.6146 20.888 29.7292 20.7578 28.8438C20.6276 27.9583 20.4062 27.099 20.0938 26.2656C19.8333 25.6406 19.3906 25.1849 18.7656 24.8984C18.1406 24.612 17.5156 24.599 16.8906 24.8594C16.3177 25.0677 15.9271 25.4714 15.7188 26.0703C15.5104 26.6693 15.5104 27.2552 15.7188 27.8281C15.9271 28.401 16.0703 29 16.1484 29.625C16.2266 30.25 16.2656 30.875 16.2656 31.5ZM27.4375 31.5C27.4375 32.8542 27.3464 34.1953 27.1641 35.5234C26.9818 36.8516 26.6823 38.1667 26.2656 39.4688C26.0573 40.0938 26.0573 40.7188 26.2656 41.3438C26.474 41.9688 26.8906 42.3854 27.5156 42.5938C28.1927 42.8542 28.8307 42.8151 29.4297 42.4766C30.0286 42.138 30.4583 41.6302 30.7188 40.9531C31.2396 39.4427 31.6042 37.8932 31.8125 36.3047C32.0208 34.7161 32.125 33.1146 32.125 31.5C32.125 29.8854 32.0208 28.2969 31.8125 26.7344C31.6042 25.1719 31.2396 23.6354 30.7188 22.125C30.4583 21.4479 30.0417 20.9401 29.4688 20.6016C28.8958 20.263 28.2708 20.224 27.5938 20.4844C26.9688 20.6927 26.5391 21.1094 26.3047 21.7344C26.0703 22.3594 26.0573 22.9844 26.2656 23.6094C26.6823 24.8594 26.9818 26.1484 27.1641 27.4766C27.3464 28.8047 27.4375 30.1458 27.4375 31.5ZM38.6094 31.5C38.6094 33.5833 38.4531 35.6406 38.1406 37.6719C37.8281 39.7031 37.3073 41.7083 36.5781 43.6875C36.3177 44.3125 36.3047 44.9375 36.5391 45.5625C36.7734 46.1875 37.2031 46.6302 37.8281 46.8906C38.4531 47.151 39.0651 47.125 39.6641 46.8125C40.263 46.5 40.6927 46.0312 40.9531 45.4062C41.7865 43.1667 42.3854 40.875 42.75 38.5312C43.1146 36.1875 43.2969 33.8438 43.2969 31.5C43.2969 29.1562 43.1146 26.8255 42.75 24.5078C42.3854 22.1901 41.7865 19.9115 40.9531 17.6719C40.6927 17.0469 40.263 16.5781 39.6641 16.2656C39.0651 15.9531 38.4531 15.9271 37.8281 16.1875C37.2031 16.4479 36.7734 16.8906 36.5391 17.5156C36.3047 18.1406 36.3177 18.7656 36.5781 19.3906C37.3073 21.3177 37.8281 23.2969 38.1406 25.3281C38.4531 27.3594 38.6094 29.4167 38.6094 31.5ZM31.5 62.75C27.2292 62.75 23.1927 61.9297 19.3906 60.2891C15.5885 58.6484 12.2682 56.4089 9.42969 53.5703C6.59115 50.7318 4.35156 47.4115 2.71094 43.6094C1.07031 39.8073 0.25 35.7708 0.25 31.5C0.25 27.1771 1.07031 23.1146 2.71094 19.3125C4.35156 15.5104 6.59115 12.2031 9.42969 9.39062C12.2682 6.57812 15.5885 4.35156 19.3906 2.71094C23.1927 1.07031 27.2292 0.25 31.5 0.25C35.8229 0.25 39.8854 1.07031 43.6875 2.71094C47.4896 4.35156 50.7969 6.57812 53.6094 9.39062C56.4219 12.2031 58.6484 15.5104 60.2891 19.3125C61.9297 23.1146 62.75 27.1771 62.75 31.5C62.75 35.7708 61.9297 39.8073 60.2891 43.6094C58.6484 47.4115 56.4219 50.7318 53.6094 53.5703C50.7969 56.4089 47.4896 58.6484 43.6875 60.2891C39.8854 61.9297 35.8229 62.75 31.5 62.75ZM31.5 58.0625C38.8958 58.0625 45.1719 55.4714 50.3281 50.2891C55.4844 45.1068 58.0625 38.8438 58.0625 31.5C58.0625 24.1042 55.4844 17.8281 50.3281 12.6719C45.1719 7.51563 38.8958 4.9375 31.5 4.9375C24.1562 4.9375 17.8932 7.51563 12.7109 12.6719C7.52865 17.8281 4.9375 24.1042 4.9375 31.5C4.9375 38.8438 7.52865 45.1068 12.7109 50.2891C17.8932 55.4714 24.1562 58.0625 31.5 58.0625Z" fill="currentColor"/>
</svg>
