<svg width="24" height="24" viewBox="0 0 24 24" fill="none" xmlns="http://www.w3.org/2000/svg">
<mask id="mask0_2109_1137" style="mask-type:alpha" maskUnits="userSpaceOnUse" x="0" y="0" width="24" height="24">
<rect width="24" height="24" fill="#D9D9D9"/>
</mask>
<g mask="url(#mask0_2109_1137)">
<path d="M4 17C3.71667 17 3.47917 16.9042 3.2875 16.7125C3.09583 16.5208 3 16.2833 3 16C3 15.7167 3.09583 15.4792 3.2875 15.2875C3.47917 15.0958 3.71667 15 4 15H16C16.2833 15 16.5208 15.0958 16.7125 15.2875C16.9042 15.4792 17 15.7167 17 16C17 16.2833 16.9042 16.5208 16.7125 16.7125C16.5208 16.9042 16.2833 17 16 17H4ZM6 13C5.71667 13 5.47917 12.9042 5.2875 12.7125C5.09583 12.5208 5 12.2833 5 12C5 11.7167 5.09583 11.4792 5.2875 11.2875C5.47917 11.0958 5.71667 11 6 11H18C18.2833 11 18.5208 11.0958 18.7125 11.2875C18.9042 11.4792 19 11.7167 19 12C19 12.2833 18.9042 12.5208 18.7125 12.7125C18.5208 12.9042 18.2833 13 18 13H6ZM8 9C7.71667 9 7.47917 8.90417 7.2875 8.7125C7.09583 8.52083 7 8.28333 7 8C7 7.71667 7.09583 7.47917 7.2875 7.2875C7.47917 7.09583 7.71667 7 8 7H20C20.2833 7 20.5208 7.09583 20.7125 7.2875C20.9042 7.47917 21 7.71667 21 8C21 8.28333 20.9042 8.52083 20.7125 8.7125C20.5208 8.90417 20.2833 9 20 9H8Z" fill="currentColor"/>
</g>
</svg>
