<svg width="24" height="25" viewBox="0 0 24 25" fill="none" xmlns="http://www.w3.org/2000/svg">
<mask id="mask0_3627_1293" style="mask-type:alpha" maskUnits="userSpaceOnUse" x="0" y="0" width="24" height="25">
<rect y="0.177246" width="24" height="24" fill="#D9D9D9"/>
</mask>
<g mask="url(#mask0_3627_1293)">
<path d="M22 6.17725V18.1772C22 18.7272 21.8042 19.1981 21.4125 19.5897C21.0208 19.9814 20.55 20.1772 20 20.1772H4C3.45 20.1772 2.97917 19.9814 2.5875 19.5897C2.19583 19.1981 2 18.7272 2 18.1772V6.17725C2 5.62725 2.19583 5.15641 2.5875 4.76475C2.97917 4.37308 3.45 4.17725 4 4.17725H20C20.55 4.17725 21.0208 4.37308 21.4125 4.76475C21.8042 5.15641 22 5.62725 22 6.17725ZM4 8.17725H20V6.17725H4V8.17725ZM4 12.1772V18.1772H20V12.1772H4Z" fill="currentColor"/>
</g>
</svg>
