<svg width="24" height="24" viewBox="0 0 24 24" fill="none" xmlns="http://www.w3.org/2000/svg">
<path d="M12 9C13.4667 9 14.9542 8.7875 16.4625 8.3625C17.9708 7.9375 18.8167 7.49167 19 7.025C18.8167 6.54167 17.9792 6.08333 16.4875 5.65C14.9958 5.21667 13.5 5 12 5C10.4833 5 8.99583 5.2125 7.5375 5.6375C6.07917 6.0625 5.23333 6.525 5 7.025C5.25 7.50833 6.12083 7.95833 7.6125 8.375C9.10417 8.79167 10.5667 9 12 9ZM3 17V7C3 6.45 3.2375 5.93333 3.7125 5.45C4.1875 4.96667 4.83333 4.54167 5.65 4.175C6.46667 3.80833 7.42083 3.52083 8.5125 3.3125C9.60417 3.10417 10.7667 3 12 3C13.2333 3 14.3958 3.10417 15.4875 3.3125C16.5792 3.52083 17.5333 3.80833 18.35 4.175C19.1667 4.54167 19.8125 4.96667 20.2875 5.45C20.7625 5.93333 21 6.45 21 7C21 7.55 20.7625 8.06667 20.2875 8.55C19.8125 9.03333 19.1667 9.45833 18.35 9.825C17.5333 10.1917 16.5792 10.4792 15.4875 10.6875C14.3958 10.8958 13.2333 11 12 11C10.5833 11 9.275 10.875 8.075 10.625C6.875 10.375 5.85 10.0083 5 9.525V12.05C5.56667 12.5667 6.25417 12.9667 7.0625 13.25C7.87083 13.5333 8.70833 13.7333 9.575 13.85C9.85833 13.8833 10.0875 14 10.2625 14.2C10.4375 14.4 10.525 14.6417 10.525 14.925C10.525 15.1917 10.4333 15.4208 10.25 15.6125C10.0667 15.8042 9.84167 15.8833 9.575 15.85C8.79167 15.7667 7.98333 15.6125 7.15 15.3875C6.31667 15.1625 5.6 14.875 5 14.525V17C5.2 17.3833 5.8 17.7458 6.8 18.0875C7.8 18.4292 9.15 18.6833 10.85 18.85C11.1333 18.8833 11.3625 19.0083 11.5375 19.225C11.7125 19.4417 11.8 19.6917 11.8 19.975C11.8 20.2583 11.7083 20.5 11.525 20.7C11.3417 20.9 11.1083 20.9917 10.825 20.975C9.775 20.9417 8.77917 20.8167 7.8375 20.6C6.89583 20.3833 6.06667 20.0958 5.35 19.7375C4.63333 19.3792 4.0625 18.9667 3.6375 18.5C3.2125 18.0333 3 17.5333 3 17ZM16.5 21C15.25 21 14.1875 20.5625 13.3125 19.6875C12.4375 18.8125 12 17.75 12 16.5C12 15.25 12.4375 14.1875 13.3125 13.3125C14.1875 12.4375 15.25 12 16.5 12C17.75 12 18.8125 12.4375 19.6875 13.3125C20.5625 14.1875 21 15.25 21 16.5C21 16.9333 20.9375 17.35 20.8125 17.75C20.6875 18.15 20.5167 18.5333 20.3 18.9L22.3 20.9C22.4833 21.0833 22.575 21.3167 22.575 21.6C22.575 21.8833 22.4833 22.1167 22.3 22.3C22.1167 22.4833 21.8833 22.575 21.6 22.575C21.3167 22.575 21.0833 22.4833 20.9 22.3L18.9 20.3C18.5333 20.5167 18.15 20.6875 17.75 20.8125C17.35 20.9375 16.9333 21 16.5 21ZM18.275 18.275C18.7583 17.7917 19 17.2 19 16.5C19 15.8 18.7583 15.2083 18.275 14.725C17.7917 14.2417 17.2 14 16.5 14C15.8 14 15.2083 14.2417 14.725 14.725C14.2417 15.2083 14 15.8 14 16.5C14 17.2 14.2417 17.7917 14.725 18.275C15.2083 18.7583 15.8 19 16.5 19C17.2 19 17.7917 18.7583 18.275 18.275Z" fill="currentColor"/>
</svg>
