<svg width="24" height="24" viewBox="0 0 24 24" fill="none" xmlns="http://www.w3.org/2000/svg">
<path d="M12 20.2581C9.48333 20.2581 7.35417 19.9081 5.6125 19.2081C3.87083 18.5081 3 17.6538 3 16.6452V7.6129C3 6.61935 3.87917 5.76882 5.6375 5.06129C7.39583 4.35376 9.51667 4 12 4C14.4833 4 16.6042 4.35376 18.3625 5.06129C20.1208 5.76882 21 6.61935 21 7.6129V16.6452C21 17.6538 20.1292 18.5081 18.3875 19.2081C16.6458 19.9081 14.5167 20.2581 12 20.2581ZM12 9.44194C13.4833 9.44194 14.975 9.25 16.475 8.86613C17.975 8.48226 18.8167 8.07204 19 7.63548C18.8167 7.19892 17.9792 6.78495 16.4875 6.39355C14.9958 6.00215 13.5 5.80645 12 5.80645C10.4833 5.80645 8.99583 5.99839 7.5375 6.38226C6.07917 6.76613 5.23333 7.18387 5 7.63548C5.23333 8.0871 6.07917 8.50108 7.5375 8.87742C8.99583 9.25376 10.4833 9.44194 12 9.44194ZM12 13.9355C12.7 13.9355 13.375 13.9054 14.025 13.8452C14.675 13.7849 15.2958 13.6984 15.8875 13.5855C16.4792 13.4726 17.0375 13.3333 17.5625 13.1677C18.0875 13.0022 18.5667 12.814 19 12.6032V9.89355C18.5667 10.1043 18.0875 10.2925 17.5625 10.4581C17.0375 10.6237 16.4792 10.7629 15.8875 10.8758C15.2958 10.9887 14.675 11.0753 14.025 11.1355C13.375 11.1957 12.7 11.2258 12 11.2258C11.3 11.2258 10.6167 11.1957 9.95 11.1355C9.28333 11.0753 8.65417 10.9887 8.0625 10.8758C7.47083 10.7629 6.91667 10.6237 6.4 10.4581C5.88333 10.2925 5.41667 10.1043 5 9.89355V12.6032C5.41667 12.814 5.88333 13.0022 6.4 13.1677C6.91667 13.3333 7.47083 13.4726 8.0625 13.5855C8.65417 13.6984 9.28333 13.7849 9.95 13.8452C10.6167 13.9054 11.3 13.9355 12 13.9355ZM12 18.4516C12.7667 18.4516 13.5458 18.3989 14.3375 18.2935C15.1292 18.1882 15.8583 18.0489 16.525 17.8758C17.1917 17.7027 17.75 17.507 18.2 17.2887C18.65 17.0704 18.9167 16.8484 19 16.6226V14.4097C18.5667 14.6204 18.0875 14.8086 17.5625 14.9742C17.0375 15.1398 16.4792 15.279 15.8875 15.3919C15.2958 15.5048 14.675 15.5914 14.025 15.6516C13.375 15.7118 12.7 15.7419 12 15.7419C11.3 15.7419 10.6167 15.7118 9.95 15.6516C9.28333 15.5914 8.65417 15.5048 8.0625 15.3919C7.47083 15.279 6.91667 15.1398 6.4 14.9742C5.88333 14.8086 5.41667 14.6204 5 14.4097V16.6452C5.08333 16.871 5.34583 17.0892 5.7875 17.3C6.22917 17.5108 6.78333 17.7027 7.45 17.8758C8.11667 18.0489 8.85 18.1882 9.65 18.2935C10.45 18.3989 11.2333 18.4516 12 18.4516Z" fill="currentColor"/>
</svg>
