<svg width="20" height="21" viewBox="0 0 20 21" fill="none" xmlns="http://www.w3.org/2000/svg">
<path d="M6 11.5H14C14.2833 11.5 14.5208 11.4042 14.7125 11.2125C14.9042 11.0208 15 10.7833 15 10.5C15 10.2167 14.9042 9.97917 14.7125 9.7875C14.5208 9.59583 14.2833 9.5 14 9.5H6C5.71667 9.5 5.47917 9.59583 5.2875 9.7875C5.09583 9.97917 5 10.2167 5 10.5C5 10.7833 5.09583 11.0208 5.2875 11.2125C5.47917 11.4042 5.71667 11.5 6 11.5ZM10 20.5C8.61667 20.5 7.31667 20.2375 6.1 19.7125C4.88333 19.1875 3.825 18.475 2.925 17.575C2.025 16.675 1.3125 15.6167 0.7875 14.4C0.2625 13.1833 0 11.8833 0 10.5C0 9.11667 0.2625 7.81667 0.7875 6.6C1.3125 5.38333 2.025 4.325 2.925 3.425C3.825 2.525 4.88333 1.8125 6.1 1.2875C7.31667 0.7625 8.61667 0.5 10 0.5C11.3833 0.5 12.6833 0.7625 13.9 1.2875C15.1167 1.8125 16.175 2.525 17.075 3.425C17.975 4.325 18.6875 5.38333 19.2125 6.6C19.7375 7.81667 20 9.11667 20 10.5C20 11.8833 19.7375 13.1833 19.2125 14.4C18.6875 15.6167 17.975 16.675 17.075 17.575C16.175 18.475 15.1167 19.1875 13.9 19.7125C12.6833 20.2375 11.3833 20.5 10 20.5Z" fill="#E84142"/>
</svg>
