<svg width="17" height="17" viewBox="0 0 17 17" fill="none" xmlns="http://www.w3.org/2000/svg">
<mask id="path-1-inside-1_17898_1256" fill="white">
<path d="M17 8.5C17 6.67366 16.4118 4.89588 15.3224 3.42999C14.233 1.96411 12.7005 0.888073 10.9518 0.361276C9.20305 -0.165521 7.33116 -0.115065 5.61336 0.505171C3.89555 1.12541 2.42321 2.28244 1.41439 3.80488C0.40558 5.32732 -0.0860432 7.1342 0.0123425 8.9579C0.110728 10.7816 0.79389 12.5251 1.96064 13.9302C3.12739 15.3352 4.71567 16.3272 6.49023 16.759C8.26479 17.1908 10.1312 17.0396 11.8131 16.3277L11.0353 14.4899C9.74826 15.0347 8.32001 15.1504 6.96208 14.8199C5.60415 14.4895 4.38876 13.7305 3.49594 12.6553C2.60312 11.5801 2.08035 10.2459 2.00507 8.85039C1.92978 7.45486 2.30598 6.0722 3.07795 4.90719C3.84991 3.74219 4.97658 2.85681 6.29108 2.38219C7.60558 1.90757 9.03799 1.86896 10.3761 2.27208C11.7143 2.67519 12.887 3.4986 13.7206 4.62032C14.5542 5.74205 15.0044 7.10244 15.0044 8.5L17 8.5Z"/>
</mask>
<path d="M17 8.5C17 6.67366 16.4118 4.89588 15.3224 3.42999C14.233 1.96411 12.7005 0.888073 10.9518 0.361276C9.20305 -0.165521 7.33116 -0.115065 5.61336 0.505171C3.89555 1.12541 2.42321 2.28244 1.41439 3.80488C0.40558 5.32732 -0.0860432 7.1342 0.0123425 8.9579C0.110728 10.7816 0.79389 12.5251 1.96064 13.9302C3.12739 15.3352 4.71567 16.3272 6.49023 16.759C8.26479 17.1908 10.1312 17.0396 11.8131 16.3277L11.0353 14.4899C9.74826 15.0347 8.32001 15.1504 6.96208 14.8199C5.60415 14.4895 4.38876 13.7305 3.49594 12.6553C2.60312 11.5801 2.08035 10.2459 2.00507 8.85039C1.92978 7.45486 2.30598 6.0722 3.07795 4.90719C3.84991 3.74219 4.97658 2.85681 6.29108 2.38219C7.60558 1.90757 9.03799 1.86896 10.3761 2.27208C11.7143 2.67519 12.887 3.4986 13.7206 4.62032C14.5542 5.74205 15.0044 7.10244 15.0044 8.5L17 8.5Z" stroke="#28282E" stroke-width="4" stroke-linejoin="round" mask="url(#path-1-inside-1_17898_1256)"/>
</svg>
