<svg width="24" height="24" viewBox="0 0 24 24" fill="none" xmlns="http://www.w3.org/2000/svg">
<mask id="mask0_119_3489" style="mask-type:alpha" maskUnits="userSpaceOnUse" x="0" y="0" width="24" height="24">
<rect width="24" height="24" fill="#D9D9D9"/>
</mask>
<g mask="url(#mask0_119_3489)">
<path d="M12 22.025C11.7333 22.025 11.4791 21.975 11.2375 21.875C10.9958 21.775 10.775 21.6333 10.575 21.45L2.54998 13.425C2.36664 13.225 2.22498 13.0042 2.12498 12.7625C2.02498 12.5208 1.97498 12.2667 1.97498 12C1.97498 11.7333 2.02498 11.475 2.12498 11.225C2.22498 10.975 2.36664 10.7583 2.54998 10.575L10.575 2.55001C10.775 2.35001 10.9958 2.20417 11.2375 2.11251C11.4791 2.02084 11.7333 1.97501 12 1.97501C12.2666 1.97501 12.525 2.02084 12.775 2.11251C13.025 2.20417 13.2416 2.35001 13.425 2.55001L21.45 10.575C21.65 10.7583 21.7958 10.975 21.8875 11.225C21.9791 11.475 22.025 11.7333 22.025 12C22.025 12.2667 21.9791 12.5208 21.8875 12.7625C21.7958 13.0042 21.65 13.225 21.45 13.425L13.425 21.45C13.2416 21.6333 13.025 21.775 12.775 21.875C12.525 21.975 12.2666 22.025 12 22.025ZM12 20.025L20.025 12L12 3.97501L3.97498 12L12 20.025ZM12 13C12.2833 13 12.5208 12.9042 12.7125 12.7125C12.9041 12.5208 13 12.2833 13 12V8.00001C13 7.71667 12.9041 7.47917 12.7125 7.28751C12.5208 7.09584 12.2833 7.00001 12 7.00001C11.7166 7.00001 11.4791 7.09584 11.2875 7.28751C11.0958 7.47917 11 7.71667 11 8.00001V12C11 12.2833 11.0958 12.5208 11.2875 12.7125C11.4791 12.9042 11.7166 13 12 13ZM12 16C12.2833 16 12.5208 15.9042 12.7125 15.7125C12.9041 15.5208 13 15.2833 13 15C13 14.7167 12.9041 14.4792 12.7125 14.2875C12.5208 14.0958 12.2833 14 12 14C11.7166 14 11.4791 14.0958 11.2875 14.2875C11.0958 14.4792 11 14.7167 11 15C11 15.2833 11.0958 15.5208 11.2875 15.7125C11.4791 15.9042 11.7166 16 12 16Z" fill="currentColor"/>
</g>
</svg>
