<svg width="20" height="20" viewBox="0 0 20 20" fill="none" xmlns="http://www.w3.org/2000/svg">
<path d="M10 15.51L12.99 12.5317C13.1899 12.3318 13.4298 12.2319 13.7098 12.2319C13.9897 12.2319 14.2295 12.3318 14.4294 12.5317C14.6292 12.7315 14.7292 12.9694 14.7292 13.2454C14.7292 13.5214 14.6292 13.7593 14.4294 13.9592L11.4394 16.9375C11.0377 17.339 10.5579 17.5398 10 17.5398C9.4421 17.5398 8.9623 17.339 8.56064 16.9375L5.58251 13.9592C5.38251 13.7593 5.28404 13.5214 5.2871 13.2454C5.29015 12.9694 5.39161 12.7315 5.59147 12.5317C5.79133 12.3318 6.02925 12.2319 6.30522 12.2319C6.58119 12.2319 6.81911 12.3318 7.01897 12.5317L10 15.51ZM10 4.49L6.99814 7.48C6.79828 7.68 6.55841 7.78194 6.27855 7.78583C5.99869 7.78972 5.75883 7.68777 5.55897 7.48C5.35897 7.28013 5.26098 7.04222 5.26501 6.76625C5.2689 6.49027 5.37078 6.25236 5.57064 6.0525L8.56064 3.0625C8.9623 2.66097 9.4421 2.46021 10 2.46021C10.5579 2.46021 11.0377 2.66097 11.4394 3.0625L14.4294 6.0525C14.6292 6.25236 14.7311 6.4868 14.735 6.75583C14.739 7.02486 14.6411 7.2593 14.4411 7.45916C14.2412 7.66694 14.0013 7.76888 13.7215 7.765C13.4416 7.76111 13.2017 7.65916 13.0019 7.45916L10 4.49Z" fill="currentColor" />
</svg>
