<svg width="24" height="24" viewBox="0 0 24 24" fill="none" xmlns="http://www.w3.org/2000/svg">
<g clip-path="url(#clip0_5722_3243)">
<path fill-rule="evenodd" clip-rule="evenodd" d="M7.80633 4.0645C5.73971 4.0645 4.06439 5.73982 4.06439 7.80644V8.56109C4.06439 8.98864 3.71778 9.33528 3.2902 9.33528C2.86262 9.33528 2.51601 8.98864 2.51601 8.56109V7.80644C2.51601 4.88467 4.88456 2.51611 7.80633 2.51611H8.45368C8.88129 2.51611 9.22787 2.86273 9.22787 3.29031C9.22787 3.71788 8.88129 4.0645 8.45368 4.0645H7.80633ZM14.8045 3.29031C14.8045 2.86273 15.1511 2.51611 15.5786 2.51611H16.1934C19.1152 2.51611 21.4837 4.88467 21.4837 7.80644V8.48438C21.4837 8.91193 21.1371 9.25857 20.7096 9.25857C20.282 9.25857 19.9354 8.91193 19.9354 8.48438V7.80644C19.9354 5.73982 18.2601 4.0645 16.1934 4.0645H15.5786C15.1511 4.0645 14.8045 3.71788 14.8045 3.29031ZM20.7096 14.7477C21.1371 14.7477 21.4837 15.0943 21.4837 15.5219V16.1935C21.4837 19.1153 19.1152 21.4839 16.1934 21.4839H15.5894C15.1618 21.4839 14.8152 21.1372 14.8152 20.7097C14.8152 20.2821 15.1618 19.9355 15.5894 19.9355H16.1934C18.2601 19.9355 19.9354 18.2601 19.9354 16.1935V15.5219C19.9354 15.0943 20.282 14.7477 20.7096 14.7477ZM3.2902 14.8166C3.71778 14.8166 4.06439 15.1632 4.06439 15.5908V16.1935C4.06439 18.2601 5.73971 19.9355 7.80633 19.9355H8.54316C8.97071 19.9355 9.31736 20.2821 9.31736 20.7097C9.31736 21.1372 8.97071 21.4839 8.54316 21.4839H7.80633C4.88456 21.4839 2.51601 19.1153 2.51601 16.1935V15.5908C2.51601 15.1632 2.86262 14.8166 3.2902 14.8166Z" fill="currentColor"/>
<path fill-rule="evenodd" clip-rule="evenodd" d="M8.27808 14.7278C8.60696 14.4546 9.09509 14.4997 9.36832 14.8286C9.99677 15.585 10.942 16.0645 11.9999 16.0645C13.0503 16.0645 13.9895 15.5918 14.618 14.8448C14.8932 14.5176 15.3816 14.4755 15.7088 14.7507C16.036 15.026 16.0781 15.5144 15.8028 15.8415C14.8928 16.9233 13.5265 17.6129 11.9999 17.6129C10.4623 17.6129 9.08735 16.9133 8.17734 15.818C7.9041 15.4891 7.9492 15.0011 8.27808 14.7278Z" fill="currentColor"/>
<path fill-rule="evenodd" clip-rule="evenodd" d="M12.4362 8.30841C12.8637 8.30841 13.2104 8.65504 13.2104 9.08259V12.4603C13.2104 13.2441 12.5749 13.8796 11.791 13.8796H11.1852C10.7577 13.8796 10.411 13.533 10.411 13.1054C10.411 12.6778 10.7577 12.3312 11.1852 12.3312H11.662V9.08259C11.662 8.65504 12.0086 8.30841 12.4362 8.30841Z" fill="currentColor"/>
<path fill-rule="evenodd" clip-rule="evenodd" d="M8.45336 8.30841C8.88097 8.30841 9.22755 8.65504 9.22755 9.08259V10.4359C9.22755 10.8635 8.88097 11.2101 8.45336 11.2101C8.0258 11.2101 7.67918 10.8635 7.67918 10.4359V9.08259C7.67918 8.65504 8.0258 8.30841 8.45336 8.30841Z" fill="currentColor"/>
<path fill-rule="evenodd" clip-rule="evenodd" d="M15.5501 8.30841C15.9777 8.30841 16.3243 8.65504 16.3243 9.08259V10.4359C16.3243 10.8635 15.9777 11.2101 15.5501 11.2101C15.1226 11.2101 14.7759 10.8635 14.7759 10.4359V9.08259C14.7759 8.65504 15.1226 8.30841 15.5501 8.30841Z" fill="currentColor"/>
</g>
<defs>
<clipPath id="clip0_5722_3243">
<rect width="20" height="20" fill="currentColor" transform="translate(2 2)"/>
</clipPath>
</defs>
</svg>
