<svg width="24" height="24" viewBox="0 0 24 24" fill="none" xmlns="http://www.w3.org/2000/svg">
<mask id="mask0_3627_1296" style="mask-type:alpha" maskUnits="userSpaceOnUse" x="0" y="0" width="24" height="24">
<rect width="24" height="24" fill="#D9D9D9"/>
</mask>
<g mask="url(#mask0_3627_1296)">
<path d="M21.6601 14.1495H21.6904L23.0703 10.7608H23.9863L21.0312 17.5381H20.1308L21.2402 15.169L19.291 10.7608H20.2509L21.6601 14.1495ZM3.99606 8.00103C4.95565 7.97111 5.91601 8.36087 6.63571 9.02056L5.49606 10.1602C5.07626 9.77044 4.53549 9.56065 3.96579 9.5606C2.94646 9.5608 2.04735 10.2507 1.77731 11.21L1.74509 11.1846C1.5669 11.6928 1.5679 12.2308 1.74704 12.709L1.81052 12.8858C2.16013 13.7523 3.00997 14.3583 3.96579 14.3584C4.50545 14.3584 4.95559 14.2086 5.3154 13.9688C5.73503 13.6989 6.0057 13.2492 6.09567 12.7696H3.96579V11.2403H7.71481C7.74478 11.5099 7.77533 11.7802 7.77536 12.0499C7.77531 13.2492 7.35496 14.2693 6.60544 14.959L6.47849 15.0684C5.83211 15.602 4.97775 15.918 3.96579 15.918C2.56004 15.9179 1.28645 15.18 0.564424 13.9756L0.427705 13.7295L0.327119 13.5137C-0.140283 12.4257 -0.106492 11.2005 0.427705 10.1602H0.473603C1.13924 8.82884 2.50812 8.00109 3.99606 8.00103ZM17.0117 10.5801C17.6713 10.5801 18.1814 10.7604 18.5713 11.1202C18.9611 11.48 19.1415 11.9599 19.1416 12.5596V15.4395H18.3017V14.7793H18.2715C17.9116 15.3191 17.4015 15.5889 16.8017 15.5889C16.292 15.5889 15.8422 15.4386 15.4824 15.1387C15.1527 14.8389 14.9424 14.4194 14.9424 13.9698C14.9424 13.49 15.1225 13.0998 15.4824 12.7999C15.8423 12.4999 16.3523 12.3799 16.9521 12.3799C17.4917 12.3799 17.9114 12.47 18.2412 12.6797V12.4698C18.2411 12.17 18.1216 11.8704 17.8818 11.6905C17.6419 11.4805 17.3416 11.3604 17.0117 11.3604C16.502 11.3605 16.1126 11.5705 15.8427 11.9903L15.0625 11.5098C15.5422 10.8802 16.1722 10.5802 17.0117 10.5801ZM12.7832 8.54107C13.3528 8.54107 13.8927 8.75101 14.3125 9.14068C14.7323 9.50054 14.9423 10.0406 14.9424 10.6104C14.9424 11.1802 14.7323 11.6903 14.3125 12.0801C13.8926 12.4699 13.3829 12.6797 12.7832 12.6797L11.3437 12.6495V15.4395H10.4443V8.54107H12.7832ZM17.1318 13.0997C16.7722 13.0997 16.4722 13.1894 16.2324 13.3692C15.9926 13.5191 15.8722 13.7293 15.872 13.9991C15.872 14.2389 15.992 14.4494 16.1718 14.5694C16.3818 14.7193 16.6224 14.8096 16.8623 14.8096C17.222 14.8096 17.5817 14.6594 17.8515 14.3897C18.1514 14.1198 18.3017 13.7896 18.3017 13.4297C18.0318 13.2198 17.6416 13.0997 17.1318 13.0997ZM12.8437 9.38091H11.3437V11.7803H12.8437C13.1735 11.7802 13.503 11.6598 13.7129 11.42C14.1927 10.9701 14.193 10.2204 13.7431 9.77056L13.7129 9.74126C13.473 9.50144 13.1735 9.35108 12.8437 9.38091ZM24 10.7608H23.9863L24 10.7305V10.7608Z" fill="currentColor"/>
</g>
</svg>
