<svg width="63" height="63" viewBox="0 0 63 63" fill="none" xmlns="http://www.w3.org/2000/svg">
<path d="M33.8672 48.8672C34.6224 48.112 35 47.1875 35 46.0938C35 45 34.6224 44.0755 33.8672 43.3203C33.112 42.5651 32.1875 42.1875 31.0938 42.1875C30 42.1875 29.0755 42.5651 28.3203 43.3203C27.5651 44.0755 27.1875 45 27.1875 46.0938C27.1875 47.1875 27.5651 48.112 28.3203 48.8672C29.0755 49.6224 30 50 31.0938 50C32.1875 50 33.112 49.6224 33.8672 48.8672ZM31.25 62.5C26.9271 62.5 22.8646 61.6797 19.0625 60.0391C15.2604 58.3984 11.9531 56.1719 9.14062 53.3594C6.32812 50.5469 4.10156 47.2396 2.46094 43.4375C0.820312 39.6354 0 35.5729 0 31.25C0 26.9271 0.820312 22.8646 2.46094 19.0625C4.10156 15.2604 6.32812 11.9531 9.14062 9.14062C11.9531 6.32812 15.2604 4.10156 19.0625 2.46094C22.8646 0.820312 26.9271 0 31.25 0C35.5729 0 39.6354 0.820312 43.4375 2.46094C47.2396 4.10156 50.5469 6.32812 53.3594 9.14062C56.1719 11.9531 58.3984 15.2604 60.0391 19.0625C61.6797 22.8646 62.5 26.9271 62.5 31.25C62.5 35.5729 61.6797 39.6354 60.0391 43.4375C58.3984 47.2396 56.1719 50.5469 53.3594 53.3594C50.5469 56.1719 47.2396 58.3984 43.4375 60.0391C39.6354 61.6797 35.5729 62.5 31.25 62.5ZM31.25 56.25C38.2292 56.25 44.1406 53.8281 48.9844 48.9844C53.8281 44.1406 56.25 38.2292 56.25 31.25C56.25 24.2708 53.8281 18.3594 48.9844 13.5156C44.1406 8.67188 38.2292 6.25 31.25 6.25C24.2708 6.25 18.3594 8.67188 13.5156 13.5156C8.67188 18.3594 6.25 24.2708 6.25 31.25C6.25 38.2292 8.67188 44.1406 13.5156 48.9844C18.3594 53.8281 24.2708 56.25 31.25 56.25ZM31.5625 17.8125C32.8646 17.8125 33.9974 18.2292 34.9609 19.0625C35.9245 19.8958 36.4062 20.9375 36.4062 22.1875C36.4062 23.3333 36.0547 24.349 35.3516 25.2344C34.6484 26.1198 33.8542 26.9531 32.9688 27.7344C31.7708 28.776 30.7161 29.9219 29.8047 31.1719C28.8932 32.4219 28.4375 33.8281 28.4375 35.3906C28.4375 36.1198 28.7109 36.7318 29.2578 37.2266C29.8047 37.7214 30.4427 37.9688 31.1719 37.9688C31.9531 37.9688 32.6172 37.7083 33.1641 37.1875C33.7109 36.6667 34.0625 36.0156 34.2188 35.2344C34.4271 34.1406 34.8958 33.1641 35.625 32.3047C36.3542 31.4453 37.1354 30.625 37.9688 29.8438C39.1667 28.6979 40.1953 27.4479 41.0547 26.0938C41.9141 24.7396 42.3438 23.2292 42.3438 21.5625C42.3438 18.9062 41.263 16.7318 39.1016 15.0391C36.9401 13.3464 34.4271 12.5 31.5625 12.5C29.5833 12.5 27.6953 12.9167 25.8984 13.75C24.1016 14.5833 22.7344 15.8594 21.7969 17.5781C21.4323 18.2031 21.3151 18.8672 21.4453 19.5703C21.5755 20.2734 21.9271 20.8073 22.5 21.1719C23.2292 21.5885 23.9844 21.7188 24.7656 21.5625C25.5469 21.4062 26.1979 20.9635 26.7188 20.2344C27.2917 19.4531 28.0078 18.8542 28.8672 18.4375C29.7266 18.0208 30.625 17.8125 31.5625 17.8125Z" fill="currentColor"/>
</svg>
