<svg width="24" height="24" viewBox="0 0 24 24" fill="none" xmlns="http://www.w3.org/2000/svg">
<g opacity="0.6">
<mask id="mask0_443_6241" style="mask-type:alpha" maskUnits="userSpaceOnUse" x="0" y="0" width="24" height="24">
<rect width="24" height="24" fill="currentColor"/>
</mask>
<g mask="url(#mask0_443_6241)">
<path d="M21 5V16C21 16.3333 20.8958 16.5833 20.6875 16.75C20.4792 16.9167 20.25 17 20 17C19.75 17 19.5208 16.9125 19.3125 16.7375C19.1042 16.5625 19 16.3083 19 15.975V5H8.00001C7.66668 5 7.41668 4.89583 7.25001 4.6875C7.08335 4.47917 7.00001 4.25 7.00001 4C7.00001 3.75 7.08335 3.52083 7.25001 3.3125C7.41668 3.10417 7.66668 3 8.00001 3H19C19.55 3 20.0208 3.19583 20.4125 3.5875C20.8042 3.97917 21 4.45 21 5ZM5.00001 21C4.45001 21 3.97918 20.8042 3.58751 20.4125C3.19585 20.0208 3.00001 19.55 3.00001 19V5.8L2.10001 4.9C1.91668 4.71667 1.82501 4.48333 1.82501 4.2C1.82501 3.91667 1.91668 3.68333 2.10001 3.5C2.28335 3.31667 2.51668 3.225 2.80001 3.225C3.08335 3.225 3.31668 3.31667 3.50001 3.5L20.5 20.5C20.6833 20.6833 20.775 20.9167 20.775 21.2C20.775 21.4833 20.6833 21.7167 20.5 21.9C20.3167 22.0833 20.0833 22.175 19.8 22.175C19.5167 22.175 19.2833 22.0833 19.1 21.9L18.2 21H5.00001ZM14.175 17H7.00001C6.80001 17 6.65001 16.9083 6.55001 16.725C6.45001 16.5417 6.46668 16.3667 6.60001 16.2L8.60001 13.525C8.70001 13.3917 8.83335 13.325 9.00001 13.325C9.16668 13.325 9.30001 13.3917 9.40001 13.525L11.25 16L12.075 14.9L5.00001 7.825V19H16.175L14.175 17Z" fill="currentColor"/>
</g>
</g>
</svg>
