<svg width="25" height="25" viewBox="0 0 25 25" fill="none" xmlns="http://www.w3.org/2000/svg">
<mask id="mask0_6077_23920" style="mask-type:alpha" maskUnits="userSpaceOnUse" x="0" y="0" width="25" height="25">
<rect x="0.800781" y="0.660156" width="24" height="24" fill="currentColor"/>
</mask>
<g mask="url(#mask0_6077_23920)">
<path d="M12.8008 21.6602C10.7008 21.6602 8.84245 21.0227 7.22578 19.7477C5.60911 18.4727 4.55911 16.8435 4.07578 14.8602C4.00911 14.6102 4.05911 14.381 4.22578 14.1727C4.39245 13.9643 4.61745 13.8435 4.90078 13.8102C5.16745 13.7768 5.40911 13.8268 5.62578 13.9602C5.84245 14.0935 5.99245 14.2935 6.07578 14.5602C6.47578 16.0602 7.30078 17.2852 8.55078 18.2352C9.80078 19.1852 11.2174 19.6602 12.8008 19.6602C14.7508 19.6602 16.4049 18.981 17.7633 17.6227C19.1216 16.2643 19.8008 14.6102 19.8008 12.6602C19.8008 10.7102 19.1216 9.05599 17.7633 7.69766C16.4049 6.33932 14.7508 5.66016 12.8008 5.66016C11.6508 5.66016 10.5758 5.92682 9.57578 6.46016C8.57578 6.99349 7.73411 7.72682 7.05078 8.66016H8.80078C9.08411 8.66016 9.32161 8.75599 9.51328 8.94766C9.70495 9.13932 9.80078 9.37682 9.80078 9.66016C9.80078 9.94349 9.70495 10.181 9.51328 10.3727C9.32161 10.5643 9.08411 10.6602 8.80078 10.6602H4.80078C4.51745 10.6602 4.27995 10.5643 4.08828 10.3727C3.89661 10.181 3.80078 9.94349 3.80078 9.66016V5.66016C3.80078 5.37682 3.89661 5.13932 4.08828 4.94766C4.27995 4.75599 4.51745 4.66016 4.80078 4.66016C5.08411 4.66016 5.32161 4.75599 5.51328 4.94766C5.70495 5.13932 5.80078 5.37682 5.80078 5.66016V7.01016C6.65078 5.94349 7.68828 5.11849 8.91328 4.53516C10.1383 3.95182 11.4341 3.66016 12.8008 3.66016C14.0508 3.66016 15.2216 3.89766 16.3133 4.37266C17.4049 4.84766 18.3549 5.48932 19.1633 6.29766C19.9716 7.10599 20.6133 8.05599 21.0883 9.14766C21.5633 10.2393 21.8008 11.4102 21.8008 12.6602C21.8008 13.9102 21.5633 15.081 21.0883 16.1727C20.6133 17.2643 19.9716 18.2143 19.1633 19.0227C18.3549 19.831 17.4049 20.4727 16.3133 20.9477C15.2216 21.4227 14.0508 21.6602 12.8008 21.6602ZM13.8008 12.2602L16.3008 14.7602C16.4841 14.9435 16.5758 15.1768 16.5758 15.4602C16.5758 15.7435 16.4841 15.9768 16.3008 16.1602C16.1174 16.3435 15.8841 16.4352 15.6008 16.4352C15.3174 16.4352 15.0841 16.3435 14.9008 16.1602L12.1008 13.3602C12.0008 13.2602 11.9258 13.1477 11.8758 13.0227C11.8258 12.8977 11.8008 12.7685 11.8008 12.6352V8.66016C11.8008 8.37682 11.8966 8.13932 12.0883 7.94766C12.2799 7.75599 12.5174 7.66016 12.8008 7.66016C13.0841 7.66016 13.3216 7.75599 13.5133 7.94766C13.7049 8.13932 13.8008 8.37682 13.8008 8.66016V12.2602Z" fill="currentColor"/>
</g>
</svg>
