<svg width="20" height="18" viewBox="0 0 20 18" fill="none" xmlns="http://www.w3.org/2000/svg">
<path d="M5.98956 4.5265L8.55623 1.20358C8.73956 0.959136 8.95727 0.779622 9.20935 0.665039C9.46144 0.550456 9.72498 0.493164 9.99998 0.493164C10.275 0.493164 10.5385 0.550456 10.7906 0.665039C11.0427 0.779622 11.2604 0.959136 11.4437 1.20358L14.0104 4.5265L17.9062 5.83275C18.3035 5.95497 18.6166 6.18032 18.8458 6.50879C19.075 6.83726 19.1896 7.20011 19.1896 7.59733C19.1896 7.78066 19.1628 7.964 19.1094 8.14733C19.0559 8.33066 18.968 8.50636 18.8458 8.67441L16.325 12.2494L16.4166 16.0077C16.4319 16.5425 16.2562 16.9932 15.8896 17.3598C15.5229 17.7265 15.0951 17.9098 14.6062 17.9098C14.5757 17.9098 14.4076 17.8869 14.1021 17.8411L9.99998 16.6952L5.8979 17.8411C5.82151 17.8716 5.73748 17.8907 5.64581 17.8984C5.55415 17.906 5.47012 17.9098 5.39373 17.9098C4.90484 17.9098 4.47706 17.7265 4.1104 17.3598C3.74373 16.9932 3.56804 16.5425 3.58331 16.0077L3.67498 12.2265L1.17706 8.67441C1.05484 8.50636 0.966994 8.33066 0.913521 8.14733C0.860049 7.964 0.833313 7.78066 0.833313 7.59733C0.833313 7.21539 0.944077 6.86018 1.1656 6.53171C1.38713 6.20323 1.69651 5.97025 2.09373 5.83275L5.98956 4.5265ZM7.11248 6.10775L2.66665 7.57441L5.50831 11.6765L5.41665 16.0536L9.99998 14.7932L14.5833 16.0765L14.4916 11.6765L17.3333 7.62025L12.8875 6.10775L9.99998 2.3265L7.11248 6.10775Z" fill="currentColor" stroke="black" stroke-width="0.2"/>
</svg>
