<svg width="24" height="24" viewBox="0 0 24 24" fill="none" xmlns="http://www.w3.org/2000/svg">
<g clip-path="url(#clip0_392_7865)">
<mask id="mask0_392_7865" style="mask-type:alpha" maskUnits="userSpaceOnUse" x="0" y="0" width="24" height="24">
<rect width="24" height="24" fill="black"/>
</mask>
<g mask="url(#mask0_392_7865)">
<path d="M4.02509 14.8499C3.75842 14.6499 3.62925 14.3874 3.63759 14.0624C3.64592 13.7374 3.78342 13.4749 4.05009 13.2749C4.23342 13.1416 4.43342 13.0749 4.65009 13.0749C4.86675 13.0749 5.06675 13.1416 5.25009 13.2749L12.0001 18.4999L18.7501 13.2749C18.9334 13.1416 19.1334 13.0749 19.3501 13.0749C19.5668 13.0749 19.7668 13.1416 19.9501 13.2749C20.2168 13.4749 20.3543 13.7374 20.3626 14.0624C20.3709 14.3874 20.2418 14.6499 19.9751 14.8499L13.2251 20.0999C12.8584 20.3832 12.4501 20.5249 12.0001 20.5249C11.5501 20.5249 11.1418 20.3832 10.7751 20.0999L4.02509 14.8499ZM10.7751 15.0499L5.02509 10.5749C4.50842 10.1749 4.25009 9.6499 4.25009 8.9999C4.25009 8.3499 4.50842 7.8249 5.02509 7.4249L10.7751 2.9499C11.1418 2.66657 11.5501 2.5249 12.0001 2.5249C12.4501 2.5249 12.8584 2.66657 13.2251 2.9499L18.9751 7.4249C19.4918 7.8249 19.7501 8.3499 19.7501 8.9999C19.7501 9.6499 19.4918 10.1749 18.9751 10.5749L13.2251 15.0499C12.8584 15.3332 12.4501 15.4749 12.0001 15.4749C11.5501 15.4749 11.1418 15.3332 10.7751 15.0499ZM12.0001 13.4499L17.7501 8.9999L12.0001 4.5499L6.25009 8.9999L12.0001 13.4499Z" fill="currentColor"/>
</g>
</g>
<defs>
<clipPath id="clip0_392_7865">
<rect width="24" height="24" fill="white"/>
</clipPath>
</defs>
</svg>
