<svg width="24" height="24" viewBox="0 0 24 24" fill="none" xmlns="http://www.w3.org/2000/svg">
<mask id="mask0_3763_1301" style="mask-type:alpha" maskUnits="userSpaceOnUse" x="0" y="0" width="24" height="24">
<rect width="24" height="24" fill="#D9D9D9"/>
</mask>
<g mask="url(#mask0_3763_1301)">
<path d="M16.4238 16.95V13.3357H19V17.5564C19 18.1849 18.7568 18.7739 18.3193 19.2175C17.8788 19.6612 17.2962 19.904 16.6738 19.9041C16.0515 19.9041 15.4689 19.6612 15.0283 19.2175L12 16.1609L8.97168 19.2175C8.53111 19.6612 7.94851 19.904 7.32617 19.9041C6.70382 19.9041 6.12124 19.6612 5.68066 19.2175C5.24009 18.7739 5 18.1849 5 17.5564V13.3357H7.5752V16.95L12 12.4822L16.4238 16.95ZM16.6738 5.0603C17.2962 5.06032 17.8788 5.30416 18.3193 5.7478C18.7596 6.19141 19 6.77965 19 7.40796V11.6287H16.4238V8.01538L12 12.4822L7.5752 8.01538V11.6287H5V7.40796C5.00001 6.77962 5.24031 6.19141 5.68066 5.7478C6.12124 5.30414 6.70382 5.0603 7.32617 5.0603C7.94851 5.06032 8.53111 5.30416 8.97168 5.7478L12 8.80347L15.0283 5.7478C15.4689 5.30414 16.0515 5.0603 16.6738 5.0603Z" fill="currentColor"/>
</g>
</svg>
