<svg width="60" height="60" viewBox="0 0 60 60" fill="none" xmlns="http://www.w3.org/2000/svg">
<mask id="mask0_14730_97505" style="mask-type:alpha" maskUnits="userSpaceOnUse" x="0" y="0" width="60" height="60">
<rect width="60" height="60" fill="#D9D9D9"/>
</mask>
<g mask="url(#mask0_14730_97505)">
<path d="M21 52.5C17.2083 52.5 14.0104 51.1979 11.4062 48.5938C8.80208 45.9896 7.5 42.7917 7.5 39C7.5 37.4167 7.77083 35.875 8.3125 34.375C8.85417 32.875 9.625 31.5208 10.625 30.3125L19.5 19.625L15.25 11.125C14.8333 10.2917 14.8646 9.47917 15.3438 8.6875C15.8229 7.89583 16.5417 7.5 17.5 7.5H42.5C43.4583 7.5 44.1771 7.89583 44.6562 8.6875C45.1354 9.47917 45.1667 10.2917 44.75 11.125L40.5 19.625L49.375 30.3125C50.375 31.5208 51.1458 32.875 51.6875 34.375C52.2292 35.875 52.5 37.4167 52.5 39C52.5 42.7917 51.1875 45.9896 48.5625 48.5938C45.9375 51.1979 42.75 52.5 39 52.5H21ZM30 40C28.625 40 27.4479 39.5104 26.4688 38.5312C25.4896 37.5521 25 36.375 25 35C25 33.625 25.4896 32.4479 26.4688 31.4688C27.4479 30.4896 28.625 30 30 30C31.375 30 32.5521 30.4896 33.5312 31.4688C34.5104 32.4479 35 33.625 35 35C35 36.375 34.5104 37.5521 33.5312 38.5312C32.5521 39.5104 31.375 40 30 40ZM24.0625 17.5H35.9375L38.4375 12.5H21.5625L24.0625 17.5ZM21 47.5H39C41.375 47.5 43.3854 46.6771 45.0312 45.0312C46.6771 43.3854 47.5 41.375 47.5 39C47.5 38 47.3229 37.0312 46.9688 36.0938C46.6146 35.1562 46.125 34.3125 45.5 33.5625L36.3125 22.5H23.75L14.5 33.5C13.875 34.25 13.3854 35.1042 13.0312 36.0625C12.6771 37.0208 12.5 38 12.5 39C12.5 41.375 13.3229 43.3854 14.9688 45.0312C16.6146 46.6771 18.625 47.5 21 47.5Z" fill="currentColor"/>
</g>
</svg>
