<svg preserveAspectRatio="none" width="100%" height="100%" overflow="visible" style="display: block;" viewBox="0 0 75 75" fill="none" xmlns="http://www.w3.org/2000/svg">
<g id="encrypted">
<mask id="mask0_0_6" style="mask-type:alpha" maskUnits="userSpaceOnUse" x="0" y="0" width="75" height="75">
<rect id="Bounding box" width="75" height="75" fill="#D9D9D9"/>
</mask>
<g mask="url(#mask0_0_6)">
<path id="encrypted_2" d="M34.9219 46.875H40.0781C40.4297 46.875 40.7391 46.7284 41.0063 46.4352C41.2729 46.1424 41.3542 45.8203 41.25 45.4688L39.5313 35.5469C40.5974 35.0703 41.4367 34.3789 42.0492 33.4727C42.6622 32.5669 42.9688 31.5656 42.9688 30.4688C42.9688 28.9646 42.4326 27.6771 41.3602 26.6062C40.2878 25.5354 38.9987 25 37.493 25C35.9872 25 34.7005 25.5354 33.6328 26.6062C32.5651 27.6771 32.0312 28.9646 32.0312 30.4688C32.0312 31.5656 32.3378 32.5669 32.9508 33.4727C33.5633 34.3789 34.4026 35.0703 35.4687 35.5469L33.75 45.4688C33.6458 45.8203 33.7273 46.1424 33.9945 46.4352C34.2612 46.7284 34.5703 46.875 34.9219 46.875ZM36.7281 68.3594C36.4906 68.3073 36.2531 68.2292 36.0156 68.125C28.776 65.6771 23.0469 61.2891 18.8281 54.9609C14.6094 48.6328 12.5 41.6898 12.5 34.132V18.8281C12.5 17.825 12.7833 16.9224 13.35 16.1203C13.9161 15.3177 14.6484 14.7359 15.5469 14.375L35.8594 6.79687C36.4323 6.58854 36.9792 6.48437 37.5 6.48437C38.0208 6.48437 38.5677 6.58854 39.1406 6.79687L59.4531 14.375C60.3516 14.7359 61.0841 15.3177 61.6508 16.1203C62.2169 16.9224 62.5 17.825 62.5 18.8281V34.132C62.5 41.6898 60.3906 48.6328 56.1719 54.9609C51.9531 61.2891 46.224 65.6771 38.9844 68.125C38.7469 68.2292 38.5094 68.3073 38.2719 68.3594C38.0344 68.4115 37.7771 68.4375 37.5 68.4375C37.2229 68.4375 36.9656 68.4115 36.7281 68.3594Z" fill="url(#paint0_linear_0_6)"/>
</g>
</g>
<defs>
<linearGradient id="paint0_linear_0_6" x1="37.5" y1="6.48437" x2="37.5" y2="68.4375" gradientUnits="userSpaceOnUse">
<stop stop-color="#008B00"/>
<stop offset="1" stop-color="#4FC040"/>
</linearGradient>
</defs>
</svg>
