<svg width="18" height="18" viewBox="0 0 18 18" fill="none" xmlns="http://www.w3.org/2000/svg">
<path opacity="0.1" d="M9.00603 16.2008C8.01503 16.2008 7.08203 16.0133 6.20703 15.6383C5.33203 15.2633 4.56641 14.7477 3.91016 14.0914C3.25391 13.4352 2.73828 12.6698 2.36328 11.7953C1.98828 10.9208 1.80078 9.98641 1.80078 8.99216C1.80078 7.99791 1.98828 7.06641 2.36328 6.19766C2.73828 5.32891 3.25391 4.56641 3.91016 3.91016C4.56641 3.25391 5.33178 2.73828 6.20628 2.36328C7.08078 1.98828 8.01516 1.80078 9.00941 1.80078C10.0037 1.80078 10.9352 1.98828 11.8039 2.36328C12.6727 2.73828 13.4352 3.25391 14.0914 3.91016C14.7477 4.56641 15.2633 5.33028 15.6383 6.20178C16.0133 7.0734 16.2008 8.00466 16.2008 8.99553C16.2008 9.98653 16.0133 10.9195 15.6383 11.7945C15.2633 12.6695 14.7477 13.4352 14.0914 14.0914C13.4352 14.7477 12.6713 15.2633 11.7998 15.6383C10.9282 16.0133 9.99691 16.2008 9.00603 16.2008Z" fill="currentColor"/>
<path d="M10.35 8.60703V9.45078C10.35 9.64203 10.4143 9.80234 10.5429 9.93172C10.6716 10.0611 10.8309 10.1258 11.0211 10.1258C11.2112 10.1258 11.3719 10.061 11.5031 9.93134C11.6344 9.80184 11.7 9.64128 11.7 9.44966V6.98197C11.7 6.79034 11.6352 6.62891 11.5056 6.49766C11.3761 6.36641 11.2155 6.30078 11.0239 6.30078H8.55619C8.36456 6.30078 8.20312 6.36509 8.07187 6.49372C7.94062 6.62234 7.875 6.78172 7.875 6.97184C7.875 7.16197 7.94044 7.32266 8.07131 7.45391C8.20206 7.58516 8.36412 7.65078 8.5575 7.65078H9.39375L6.3 10.7445C6.1625 10.882 6.09375 11.0383 6.09375 11.2133C6.09375 11.3883 6.1595 11.5445 6.291 11.682C6.4345 11.8195 6.59687 11.8914 6.77812 11.8977C6.95937 11.9039 7.12056 11.8365 7.26169 11.6953L10.35 8.60703Z" fill="currentColor"/>
</svg>
