<svg width="24" height="24" viewBox="0 0 24 24" fill="none" xmlns="http://www.w3.org/2000/svg">
<mask id="mask0_8994_28773" style="mask-type:alpha" maskUnits="userSpaceOnUse" x="0" y="0" width="24" height="24">
<rect width="24" height="24" fill="#D9D9D9"/>
</mask>
<g mask="url(#mask0_8994_28773)">
<path d="M12 22C10.6167 22 9.31667 21.7375 8.1 21.2125C6.88333 20.6875 5.825 19.975 4.925 19.075C4.025 18.175 3.3125 17.1167 2.7875 15.9C2.2625 14.6833 2 13.3833 2 12C2 10.6167 2.2625 9.31667 2.7875 8.1C3.3125 6.88333 4.025 5.825 4.925 4.925C5.825 4.025 6.88333 3.3125 8.1 2.7875C9.31667 2.2625 10.6167 2 12 2C13.4 2 14.7042 2.2625 15.9125 2.7875C17.1208 3.3125 18.175 4.025 19.075 4.925C19.975 5.825 20.6875 6.87917 21.2125 8.0875C21.7375 9.29583 22 10.6 22 12C22 12.1667 21.9958 12.3292 21.9875 12.4875C21.9792 12.6458 21.9667 12.8 21.95 12.95C21.9167 13.2333 21.7958 13.45 21.5875 13.6C21.3792 13.75 21.1333 13.8 20.85 13.75C20.5667 13.7 20.3417 13.5583 20.175 13.325C20.0083 13.0917 19.9417 12.8333 19.975 12.55C19.975 12.4667 19.9792 12.375 19.9875 12.275C19.9958 12.175 20 12.0833 20 12C20 10.8833 19.7958 9.84167 19.3875 8.875C18.9792 7.90833 18.4083 7.05833 17.675 6.325C16.9417 5.59167 16.0917 5.02083 15.125 4.6125C14.1583 4.20417 13.1167 4 12 4C9.76667 4 7.875 4.775 6.325 6.325C4.775 7.875 4 9.76667 4 12C4 14.2333 4.775 16.125 6.325 17.675C7.875 19.225 9.76667 20 12 20C12.75 20 13.4708 19.9042 14.1625 19.7125C14.8542 19.5208 15.5083 19.2333 16.125 18.85C16.3583 18.7167 16.6125 18.6667 16.8875 18.7C17.1625 18.7333 17.375 18.8667 17.525 19.1C17.6917 19.3333 17.7458 19.5875 17.6875 19.8625C17.6292 20.1375 17.4833 20.35 17.25 20.5C16.4667 20.9833 15.6375 21.3542 14.7625 21.6125C13.8875 21.8708 12.9667 22 12 22ZM19.25 18C18.9 18 18.6042 17.8792 18.3625 17.6375C18.1208 17.3958 18 17.1 18 16.75C18 16.4 18.1208 16.1042 18.3625 15.8625C18.6042 15.6208 18.9 15.5 19.25 15.5C19.6 15.5 19.8958 15.6208 20.1375 15.8625C20.3792 16.1042 20.5 16.4 20.5 16.75C20.5 17.1 20.3792 17.3958 20.1375 17.6375C19.8958 17.8792 19.6 18 19.25 18ZM13 11.6L16 14.6C16.1833 14.7833 16.275 15.0167 16.275 15.3C16.275 15.5833 16.1833 15.8167 16 16C15.8167 16.1833 15.5833 16.275 15.3 16.275C15.0167 16.275 14.7833 16.1833 14.6 16L11.3 12.7C11.2 12.6 11.125 12.4875 11.075 12.3625C11.025 12.2375 11 12.1083 11 11.975V8C11 7.71667 11.0958 7.47917 11.2875 7.2875C11.4792 7.09583 11.7167 7 12 7C12.2833 7 12.5208 7.09583 12.7125 7.2875C12.9042 7.47917 13 7.71667 13 8V11.6Z" fill="currentColor"/>
</g>
</svg>
