<svg width="22" height="12" viewBox="0 0 22 12" fill="none" xmlns="http://www.w3.org/2000/svg">
<path d="M3 6C2.16667 6 1.45833 5.70833 0.875 5.125C0.291667 4.54167 0 3.83333 0 3C0 2.16667 0.291667 1.45833 0.875 0.875C1.45833 0.291667 2.16667 0 3 0C3.83333 0 4.54167 0.291667 5.125 0.875C5.70833 1.45833 6 2.16667 6 3C6 3.83333 5.70833 4.54167 5.125 5.125C4.54167 5.70833 3.83333 6 3 6ZM2 12C1.71667 12 1.47917 11.9042 1.2875 11.7125C1.09583 11.5208 1 11.2833 1 11C1 10.7167 1.09583 10.4792 1.2875 10.2875C1.47917 10.0958 1.71667 10 2 10H20C20.2833 10 20.5208 10.0958 20.7125 10.2875C20.9042 10.4792 21 10.7167 21 11C21 11.2833 20.9042 11.5208 20.7125 11.7125C20.5208 11.9042 20.2833 12 20 12H2ZM11 6C10.1667 6 9.45833 5.70833 8.875 5.125C8.29167 4.54167 8 3.83333 8 3C8 2.16667 8.29167 1.45833 8.875 0.875C9.45833 0.291667 10.1667 0 11 0C11.8333 0 12.5417 0.291667 13.125 0.875C13.7083 1.45833 14 2.16667 14 3C14 3.83333 13.7083 4.54167 13.125 5.125C12.5417 5.70833 11.8333 6 11 6ZM19 6C18.1667 6 17.4583 5.70833 16.875 5.125C16.2917 4.54167 16 3.83333 16 3C16 2.16667 16.2917 1.45833 16.875 0.875C17.4583 0.291667 18.1667 0 19 0C19.8333 0 20.5417 0.291667 21.125 0.875C21.7083 1.45833 22 2.16667 22 3C22 3.83333 21.7083 4.54167 21.125 5.125C20.5417 5.70833 19.8333 6 19 6Z" fill="currentColor"/>
</svg>
