<svg width="24" height="24" viewBox="0 0 24 24" fill="none" xmlns="http://www.w3.org/2000/svg">
<mask id="mask0_3650_1104" style="mask-type:alpha" maskUnits="userSpaceOnUse" x="0" y="0" width="24" height="24">
<rect width="24" height="24" fill="#D9D9D9"/>
</mask>
<g mask="url(#mask0_3650_1104)">
<path d="M9.02546 17.9032H6.40357C5.98407 17.9032 5.56457 17.6882 5.30238 17.3656C5.04019 17.043 4.93531 16.6129 5.04019 16.1828L7.29501 6.07527C7.45233 5.43011 7.97671 5 8.6584 5H13.168C14.3741 5 15.4753 5.53763 16.2619 6.50538C16.996 7.47312 17.3106 8.70968 17.0484 9.94624C16.6289 12.0968 14.7412 13.6022 12.5912 13.6022H10.9132C10.651 13.6022 10.3888 13.8172 10.3364 14.086L9.54984 17.4731C9.4974 17.7419 9.28765 17.9032 9.02546 17.9032Z" fill="black"/>
<path d="M18.0972 10C18.0972 10.0538 18.0972 10.1075 18.0972 10.1613C17.5728 12.7957 15.2655 14.6774 12.6436 14.6774H11.3327L10.5986 17.7419C10.3888 18.4946 9.75957 18.9785 9.02544 18.9785H7.97668C8.02912 19.1935 8.08156 19.3548 8.23887 19.5161C8.50106 19.8387 8.86813 20 9.28763 20H11.6473C11.9095 20 12.1193 19.8387 12.1717 19.6237L12.9058 16.6667C12.9583 16.4516 13.168 16.3441 13.3778 16.3441H14.8985C16.8387 16.3441 18.5691 15 18.9362 13.1183C19.1459 11.9892 18.8313 10.8065 18.0972 10Z" fill="currentColor"/>
</g>
</svg>
