<svg width="24" height="24" viewBox="0 0 24 24" fill="none" xmlns="http://www.w3.org/2000/svg">
<path d="M12 3.125C12.5869 3.125 13.1601 3.18891 13.7129 3.30957C14.2524 3.42735 14.5942 3.95954 14.4766 4.49902C14.3588 5.03849 13.8266 5.3803 13.2871 5.2627C12.8735 5.17239 12.4427 5.125 12 5.125C8.68629 5.125 6 7.81129 6 11.125C6 14.4387 8.68629 17.125 12 17.125C15.3137 17.125 18 14.4387 18 11.125C18 10.6823 17.9526 10.2515 17.8623 9.83789C17.7447 9.29842 18.0865 8.76622 18.626 8.64844C19.1655 8.5308 19.6976 8.87262 19.8154 9.41211C19.9361 9.96487 20 10.5381 20 11.125C20 14.162 18.3075 16.8033 15.8145 18.1582C16.4919 18.3027 17 18.9044 17 19.625C17 20.4534 16.3284 21.125 15.5 21.125H8.5C7.67157 21.125 7 20.4534 7 19.625C7.00001 18.9045 7.50811 18.3027 8.18555 18.1582C5.69253 16.8033 4 14.162 4 11.125C4 6.70672 7.58172 3.125 12 3.125ZM12.5 6.72461C12.9971 6.72461 13.4004 7.12794 13.4004 7.625C13.4004 8.12205 12.9971 8.52539 12.5 8.52539C10.7879 8.5254 9.40039 9.91292 9.40039 11.625C9.40039 12.1221 8.99706 12.5254 8.5 12.5254C8.00295 12.5254 7.59961 12.1221 7.59961 11.625C7.59961 8.91881 9.79381 6.72461 12.5 6.72461ZM17 2.875C17.5453 2.875 18.0282 3.22899 18.1924 3.74902C18.3774 4.33441 18.7906 4.74759 19.376 4.93262C19.896 5.09684 20.25 5.57965 20.25 6.125C20.25 6.67035 19.896 7.15316 19.376 7.31738C18.7906 7.50241 18.3774 7.91559 18.1924 8.50098C18.0282 9.02101 17.5453 9.375 17 9.375C16.4547 9.375 15.9718 9.02101 15.8076 8.50098C15.6226 7.91559 15.2094 7.50241 14.624 7.31738C14.104 7.15316 13.75 6.67035 13.75 6.125C13.75 5.57965 14.104 5.09684 14.624 4.93262C15.2094 4.74759 15.6226 4.33441 15.8076 3.74902C15.9718 3.22899 16.4547 2.875 17 2.875Z" fill="#121213"/>
</svg>
