<svg width="24" height="24" viewBox="0 0 24 24" fill="none" xmlns="http://www.w3.org/2000/svg">
<mask id="mask0_2085_1268" style="mask-type:alpha" maskUnits="userSpaceOnUse" x="0" y="0" width="24" height="24">
<rect width="24" height="24" transform="matrix(-1 0 0 1 24 0)" fill="#D9D9D9"/>
</mask>
<g mask="url(#mask0_2085_1268)">
<path d="M12 21C12.2833 21 12.5208 20.9042 12.7125 20.7125C12.9042 20.5208 13 20.2833 13 20V13.025C14.0667 13.025 15.0917 12.8208 16.075 12.4125C17.0583 12.0042 17.925 11.425 18.675 10.675C19.425 9.925 20 9.05833 20.4 8.075C20.8 7.09167 21 6.06667 21 5V4C21 3.71667 20.9042 3.47917 20.7125 3.2875C20.5208 3.09583 20.2833 3 20 3H19C17.95 3 16.9333 3.20417 15.95 3.6125C14.9667 4.02083 14.1 4.6 13.35 5.35C12.8333 5.86667 12.4042 6.43333 12.0625 7.05C11.7208 7.66667 11.4583 8.325 11.275 9.025C11.1917 8.90833 11.1 8.79583 11 8.6875C10.9 8.57917 10.7917 8.46667 10.675 8.35C9.925 7.6 9.05833 7.02083 8.075 6.6125C7.09167 6.20417 6.06667 6 5 6H4C3.71667 6 3.47917 6.09583 3.2875 6.2875C3.09583 6.47917 3 6.71667 3 7V8C3 9.06667 3.20417 10.0917 3.6125 11.075C4.02083 12.0583 4.6 12.925 5.35 13.675C6.1 14.425 6.9625 15 7.9375 15.4C8.9125 15.8 9.93333 16 11 16V20C11 20.2833 11.0958 20.5208 11.2875 20.7125C11.4792 20.9042 11.7167 21 12 21ZM13 11C13 10.2 13.1542 9.4375 13.4625 8.7125C13.7708 7.9875 14.2083 7.34167 14.775 6.775C15.3417 6.20833 15.9875 5.77083 16.7125 5.4625C17.4375 5.15417 18.2 5 19 5C19 5.8 18.85 6.56667 18.55 7.3C18.25 8.03333 17.8167 8.68333 17.25 9.25C16.6833 9.81667 16.0333 10.25 15.3 10.55C14.5667 10.85 13.8 11 13 11ZM11 14C10.2 14 9.4375 13.85 8.7125 13.55C7.9875 13.25 7.34167 12.8167 6.775 12.25C6.20833 11.6833 5.77083 11.0333 5.4625 10.3C5.15417 9.56667 5 8.8 5 8C5.8 8 6.56667 8.15417 7.3 8.4625C8.03333 8.77083 8.68333 9.20833 9.25 9.775C9.81667 10.3417 10.25 10.9875 10.55 11.7125C10.85 12.4375 11 13.2 11 14Z" fill="currentColor"/>
</g>
</svg>
