<svg width="20" height="20" viewBox="0 0 20 20" fill="none" xmlns="http://www.w3.org/2000/svg">
<path d="M1 5C0.716667 5 0.479167 4.90417 0.2875 4.7125C0.0958333 4.52083 0 4.28333 0 4V1C0 0.716667 0.0958333 0.479167 0.2875 0.2875C0.479167 0.0958333 0.716667 0 1 0H4C4.28333 0 4.52083 0.0958333 4.7125 0.2875C4.90417 0.479167 5 0.716667 5 1C5 1.28333 4.90417 1.52083 4.7125 1.7125C4.52083 1.90417 4.28333 2 4 2H2V4C2 4.28333 1.90417 4.52083 1.7125 4.7125C1.52083 4.90417 1.28333 5 1 5ZM1 20C0.716667 20 0.479167 19.9042 0.2875 19.7125C0.0958333 19.5208 0 19.2833 0 19V16C0 15.7167 0.0958333 15.4792 0.2875 15.2875C0.479167 15.0958 0.716667 15 1 15C1.28333 15 1.52083 15.0958 1.7125 15.2875C1.90417 15.4792 2 15.7167 2 16V18H4C4.28333 18 4.52083 18.0958 4.7125 18.2875C4.90417 18.4792 5 18.7167 5 19C5 19.2833 4.90417 19.5208 4.7125 19.7125C4.52083 19.9042 4.28333 20 4 20H1ZM16 20C15.7167 20 15.4792 19.9042 15.2875 19.7125C15.0958 19.5208 15 19.2833 15 19C15 18.7167 15.0958 18.4792 15.2875 18.2875C15.4792 18.0958 15.7167 18 16 18H18V16C18 15.7167 18.0958 15.4792 18.2875 15.2875C18.4792 15.0958 18.7167 15 19 15C19.2833 15 19.5208 15.0958 19.7125 15.2875C19.9042 15.4792 20 15.7167 20 16V19C20 19.2833 19.9042 19.5208 19.7125 19.7125C19.5208 19.9042 19.2833 20 19 20H16ZM19 5C18.7167 5 18.4792 4.90417 18.2875 4.7125C18.0958 4.52083 18 4.28333 18 4V2H16C15.7167 2 15.4792 1.90417 15.2875 1.7125C15.0958 1.52083 15 1.28333 15 1C15 0.716667 15.0958 0.479167 15.2875 0.2875C15.4792 0.0958333 15.7167 0 16 0H19C19.2833 0 19.5208 0.0958333 19.7125 0.2875C19.9042 0.479167 20 0.716667 20 1V4C20 4.28333 19.9042 4.52083 19.7125 4.7125C19.5208 4.90417 19.2833 5 19 5ZM15.5 17V15.5H17V17H15.5ZM15.5 14V12.5H17V14H15.5ZM14 15.5V14H15.5V15.5H14ZM12.5 17V15.5H14V17H12.5ZM11 15.5V14H12.5V15.5H11ZM14 12.5V11H15.5V12.5H14ZM12.5 14V12.5H14V14H12.5ZM11 12.5V11H12.5V12.5H11ZM12 9C11.7167 9 11.4792 8.90417 11.2875 8.7125C11.0958 8.52083 11 8.28333 11 8V4C11 3.71667 11.0958 3.47917 11.2875 3.2875C11.4792 3.09583 11.7167 3 12 3H16C16.2833 3 16.5208 3.09583 16.7125 3.2875C16.9042 3.47917 17 3.71667 17 4V8C17 8.28333 16.9042 8.52083 16.7125 8.7125C16.5208 8.90417 16.2833 9 16 9H12ZM4 17C3.71667 17 3.47917 16.9042 3.2875 16.7125C3.09583 16.5208 3 16.2833 3 16V12C3 11.7167 3.09583 11.4792 3.2875 11.2875C3.47917 11.0958 3.71667 11 4 11H8C8.28333 11 8.52083 11.0958 8.7125 11.2875C8.90417 11.4792 9 11.7167 9 12V16C9 16.2833 8.90417 16.5208 8.7125 16.7125C8.52083 16.9042 8.28333 17 8 17H4ZM4 9C3.71667 9 3.47917 8.90417 3.2875 8.7125C3.09583 8.52083 3 8.28333 3 8V4C3 3.71667 3.09583 3.47917 3.2875 3.2875C3.47917 3.09583 3.71667 3 4 3H8C8.28333 3 8.52083 3.09583 8.7125 3.2875C8.90417 3.47917 9 3.71667 9 4V8C9 8.28333 8.90417 8.52083 8.7125 8.7125C8.52083 8.90417 8.28333 9 8 9H4ZM4.5 15.5H7.5V12.5H4.5V15.5ZM4.5 7.5H7.5V4.5H4.5V7.5ZM12.5 7.5H15.5V4.5H12.5V7.5Z" fill="currentColor"/>
</svg>
