<svg width="2" height="14" viewBox="0 0 2 14" fill="none" xmlns="http://www.w3.org/2000/svg">
<path d="M1 9C0.716667 9 0.479167 8.90417 0.2875 8.7125C0.0958333 8.52083 0 8.28333 0 8V1C0 0.716667 0.0958333 0.479167 0.2875 0.2875C0.479167 0.0958333 0.716667 0 1 0C1.28333 0 1.52083 0.0958333 1.7125 0.2875C1.90417 0.479167 2 0.716667 2 1V8C2 8.28333 1.90417 8.52083 1.7125 8.7125C1.52083 8.90417 1.28333 9 1 9ZM1 14C0.716667 14 0.479167 13.9042 0.2875 13.7125C0.0958333 13.5208 0 13.2833 0 13C0 12.7167 0.0958333 12.4792 0.2875 12.2875C0.479167 12.0958 0.716667 12 1 12C1.28333 12 1.52083 12.0958 1.7125 12.2875C1.90417 12.4792 2 12.7167 2 13C2 13.2833 1.90417 13.5208 1.7125 13.7125C1.52083 13.9042 1.28333 14 1 14Z" fill="#E84142"/>
</svg>
