<svg width="40" height="40" viewBox="0 0 40 40" fill="none" xmlns="http://www.w3.org/2000/svg">
<mask id="mask0_6676_25031" style="mask-type:alpha" maskUnits="userSpaceOnUse" x="0" y="0" width="40" height="40">
<rect width="40" height="40" fill="currentColor"/>
</mask>
<g mask="url(#mask0_6676_25031)">
<path d="M19.9998 33.3337C16.2962 33.3337 13.148 32.0374 10.5553 29.4449C7.96275 26.8521 6.6665 23.7039 6.6665 20.0003C6.6665 16.2967 7.96275 13.1485 10.5553 10.5557C13.148 7.96324 16.2962 6.66699 19.9998 6.66699C22.2129 6.66699 24.2036 7.11838 25.9719 8.02116C27.7405 8.92394 29.2683 10.1763 30.5553 11.7782V8.05574C30.5553 7.65769 30.6872 7.32671 30.9511 7.06283C31.215 6.79894 31.5461 6.66699 31.9444 6.66699C32.3425 6.66699 32.6734 6.79894 32.9373 7.06283C33.2012 7.32671 33.3332 7.65769 33.3332 8.05574V16.2224C33.3332 16.6207 33.2012 16.9519 32.9373 17.2157C32.6734 17.4796 32.3425 17.6116 31.9444 17.6116H23.7778C23.3794 17.6116 23.0483 17.4796 22.7844 17.2157C22.5205 16.9519 22.3886 16.6207 22.3886 16.2224C22.3886 15.8244 22.5205 15.4934 22.7844 15.2295C23.0483 14.9656 23.3794 14.8337 23.7778 14.8337H29.3886C28.3886 13.2039 27.0854 11.8984 25.479 10.917C23.8726 9.9356 22.0462 9.44491 19.9998 9.44491C17.0554 9.44491 14.56 10.468 12.5136 12.5141C10.4675 14.5605 9.44442 17.0559 9.44442 20.0003C9.44442 22.9448 10.4675 25.4402 12.5136 27.4866C14.56 29.5327 17.0554 30.5557 19.9998 30.5557C22.0184 30.5557 23.8911 30.0303 25.6178 28.9795C27.3447 27.9287 28.648 26.5144 29.5278 24.7366C29.6944 24.4032 29.9514 24.1602 30.2986 24.0074C30.6458 23.8546 30.9907 23.8477 31.3332 23.9866C31.7034 24.1255 31.958 24.3755 32.0969 24.7366C32.2358 25.0977 32.2219 25.4541 32.0553 25.8057C30.9536 28.1021 29.324 29.9309 27.1665 31.292C25.009 32.6531 22.6201 33.3337 19.9998 33.3337Z" fill="currentColor"/>
</g>
</svg>
