<svg width="24" height="24" viewBox="0 0 24 24" fill="none" xmlns="http://www.w3.org/2000/svg">
<g clip-path="url(#clip0_437_6226)">
<path d="M20.7004 6.225V10.95C20.7004 11.5333 20.6546 12.1125 20.5629 12.6875C20.4712 13.2625 20.3337 13.8333 20.1504 14.4C20.0337 14.75 19.8504 14.9792 19.6004 15.0875C19.3504 15.1958 19.1087 15.2083 18.8754 15.125C18.6421 15.0417 18.4462 14.8958 18.2879 14.6875C18.1296 14.4792 18.1004 14.225 18.2004 13.925C18.3671 13.4583 18.4921 12.9708 18.5754 12.4625C18.6587 11.9542 18.7004 11.45 18.7004 10.95V6.225L12.7004 3.975L9.65039 5.125C9.46706 5.19167 9.27956 5.20417 9.08789 5.1625C8.89622 5.12083 8.73372 5.03333 8.60039 4.9C8.33372 4.63333 8.24206 4.325 8.32539 3.975C8.40872 3.625 8.61706 3.38333 8.95039 3.25L12.0004 2.125C12.2337 2.04167 12.4671 2 12.7004 2C12.9337 2 13.1671 2.04167 13.4004 2.125L19.4004 4.375C19.7837 4.525 20.0962 4.76667 20.3379 5.1C20.5796 5.43333 20.7004 5.80833 20.7004 6.225ZM12.7004 21.75C12.6337 21.75 12.4254 21.7167 12.0754 21.65C9.82539 20.9 8.03372 19.5125 6.70039 17.4875C5.36706 15.4625 4.70039 13.2833 4.70039 10.95V6.65L2.80039 4.75C2.61706 4.56667 2.52539 4.33333 2.52539 4.05C2.52539 3.76667 2.61706 3.53333 2.80039 3.35C2.98372 3.16667 3.21706 3.075 3.50039 3.075C3.78372 3.075 4.01706 3.16667 4.20039 3.35L21.2004 20.35C21.3837 20.5333 21.4754 20.7667 21.4754 21.05C21.4754 21.3333 21.3837 21.5667 21.2004 21.75C21.0171 21.9333 20.7837 22.025 20.5004 22.025C20.2171 22.025 19.9837 21.9333 19.8004 21.75L17.2504 19.2C16.7004 19.7833 16.0962 20.275 15.4379 20.675C14.7796 21.075 14.0754 21.4 13.3254 21.65C13.2254 21.6833 13.1254 21.7083 13.0254 21.725C12.9254 21.7417 12.8171 21.75 12.7004 21.75ZM12.7004 19.75C13.2837 19.5667 13.8421 19.3083 14.3754 18.975C14.9087 18.6417 15.4004 18.25 15.8504 17.8L6.70039 8.65V10.95C6.70039 12.9667 7.26706 14.8 8.40039 16.45C9.53372 18.1 10.9671 19.2 12.7004 19.75Z" fill="currentColor"/>
</g>
<defs>
<clipPath id="clip0_437_6226">
<rect width="24" height="24" fill="currentColor"/>
</clipPath>
</defs>
</svg>
