<svg width="16" height="18" viewBox="0 0 16 18" fill="none" xmlns="http://www.w3.org/2000/svg">
<path d="M5.825 17.775C4.10833 17.2917 2.70833 16.3458 1.625 14.9375C0.541667 13.5292 0 11.9083 0 10.075C0 9.125 0.158333 8.22083 0.475 7.3625C0.791667 6.50417 1.24167 5.71667 1.825 5C2.00833 4.8 2.23333 4.69583 2.5 4.6875C2.76667 4.67917 3.00833 4.78333 3.225 5C3.40833 5.18333 3.50417 5.40833 3.5125 5.675C3.52083 5.94167 3.43333 6.19167 3.25 6.425C2.85 6.94167 2.54167 7.50833 2.325 8.125C2.10833 8.74167 2 9.39167 2 10.075C2 11.425 2.39583 12.6292 3.1875 13.6875C3.97917 14.7458 5 15.4667 6.25 15.85C6.46667 15.9167 6.64583 16.0417 6.7875 16.225C6.92917 16.4083 7 16.6083 7 16.825C7 17.1583 6.88333 17.4208 6.65 17.6125C6.41667 17.8042 6.14167 17.8583 5.825 17.775ZM10.175 17.775C9.85833 17.8583 9.58333 17.8 9.35 17.6C9.11667 17.4 9 17.1333 9 16.8C9 16.6 9.07083 16.4083 9.2125 16.225C9.35417 16.0417 9.53333 15.9167 9.75 15.85C11 15.45 12.0208 14.725 12.8125 13.675C13.6042 12.625 14 11.425 14 10.075C14 8.40833 13.4167 6.99167 12.25 5.825C11.0833 4.65833 9.66667 4.075 8 4.075H7.925L8.325 4.475C8.50833 4.65833 8.6 4.89167 8.6 5.175C8.6 5.45833 8.50833 5.69167 8.325 5.875C8.14167 6.05833 7.90833 6.15 7.625 6.15C7.34167 6.15 7.10833 6.05833 6.925 5.875L4.825 3.775C4.725 3.675 4.65417 3.56667 4.6125 3.45C4.57083 3.33333 4.55 3.20833 4.55 3.075C4.55 2.94167 4.57083 2.81667 4.6125 2.7C4.65417 2.58333 4.725 2.475 4.825 2.375L6.925 0.275C7.10833 0.0916667 7.34167 0 7.625 0C7.90833 0 8.14167 0.0916667 8.325 0.275C8.50833 0.458333 8.6 0.691667 8.6 0.975C8.6 1.25833 8.50833 1.49167 8.325 1.675L7.925 2.075H8C10.2333 2.075 12.125 2.85 13.675 4.4C15.225 5.95 16 7.84167 16 10.075C16 11.8917 15.4583 13.5083 14.375 14.925C13.2917 16.3417 11.8917 17.2917 10.175 17.775Z" fill="currentColor"/>
</svg>
