<svg width="24" height="24" viewBox="0 0 24 24" fill="none" xmlns="http://www.w3.org/2000/svg">
<mask id="mask0_3650_1090" style="mask-type:alpha" maskUnits="userSpaceOnUse" x="0" y="0" width="24" height="24">
<rect width="24" height="24" fill="#D9D9D9"/>
</mask>
<g mask="url(#mask0_3650_1090)">
<path d="M12.7432 5C14.9588 5 16.7891 6.79818 16.7891 9.0459C16.7891 11.1973 15.0548 12.9955 12.9355 13.0918L17.1426 19H14.0596L9.82129 13.124C9.78918 13.0919 9.78906 13.0595 9.78906 13.0273V11.0371C9.78906 10.9409 9.85309 10.8761 9.94922 10.876H12.4541C12.9357 10.876 13.3851 10.6833 13.7383 10.3301C14.0915 9.97686 14.252 9.49533 14.252 9.01367C14.2519 8.05042 13.4171 7.24805 12.3896 7.24805H6V5H12.7432ZM8.60059 8.43555V18.9678H6V8.43555H8.60059Z" fill="currentColor"/>
</g>
</svg>
