<svg width="18" height="21" viewBox="0 0 18 21" fill="none" xmlns="http://www.w3.org/2000/svg">
<path d="M16.7 10.575C16.5 10.575 16.3042 10.5042 16.1125 10.3625C15.9208 10.2208 15.8 10.0417 15.75 9.825C15.6667 9.50833 15.5625 9.19583 15.4375 8.8875C15.3125 8.57917 15.1667 8.28333 15 8C14.8833 7.81667 14.8417 7.6125 14.875 7.3875C14.9083 7.1625 15 6.975 15.15 6.825C15.4 6.59167 15.6875 6.49167 16.0125 6.525C16.3375 6.55833 16.5833 6.71667 16.75 7C16.9667 7.36667 17.1583 7.74167 17.325 8.125C17.4917 8.50833 17.625 8.90833 17.725 9.325C17.8083 9.65833 17.7458 9.95 17.5375 10.2C17.3292 10.45 17.05 10.575 16.7 10.575ZM10 19.275C10 19.075 10.0708 18.8792 10.2125 18.6875C10.3542 18.4958 10.5333 18.375 10.75 18.325C11.0667 18.2417 11.3792 18.1375 11.6875 18.0125C11.9958 17.8875 12.2917 17.7417 12.575 17.575C12.7583 17.4583 12.9625 17.4167 13.1875 17.45C13.4125 17.4833 13.6 17.575 13.75 17.725C13.9833 17.975 14.0833 18.2625 14.05 18.5875C14.0167 18.9125 13.8583 19.1583 13.575 19.325C13.1917 19.5417 12.8083 19.7292 12.425 19.8875C12.0417 20.0458 11.65 20.1833 11.25 20.3C10.9167 20.3833 10.625 20.325 10.375 20.125C10.125 19.925 10 19.6417 10 19.275ZM15.15 16.325C15 16.1917 14.9083 16.0083 14.875 15.775C14.8417 15.5417 14.8833 15.3333 15 15.15C15.1667 14.8667 15.3125 14.5708 15.4375 14.2625C15.5625 13.9542 15.6667 13.6417 15.75 13.325C15.8 13.1083 15.9167 12.9292 16.1 12.7875C16.2833 12.6458 16.4833 12.575 16.7 12.575C17.0667 12.575 17.35 12.7 17.55 12.95C17.75 13.2 17.8083 13.4917 17.725 13.825C17.6083 14.225 17.4708 14.6167 17.3125 15C17.1542 15.3833 16.9667 15.7667 16.75 16.15C16.5833 16.4333 16.3375 16.5917 16.0125 16.625C15.6875 16.6583 15.4 16.5583 15.15 16.325ZM6.775 20.275C4.79167 19.7417 3.16667 18.675 1.9 17.075C0.633333 15.475 0 13.6417 0 11.575C0 9.075 0.875 6.95 2.625 5.2C4.375 3.45 6.5 2.575 9 2.575H9.15L8.275 1.7C8.09167 1.51667 8 1.28333 8 1C8 0.716667 8.1 0.475 8.3 0.275C8.48333 0.0916667 8.71667 0 9 0C9.28333 0 9.525 0.0916667 9.725 0.275L12.3 2.875C12.4 2.975 12.4708 3.08333 12.5125 3.2C12.5542 3.31667 12.575 3.44167 12.575 3.575C12.575 3.70833 12.5542 3.83333 12.5125 3.95C12.4708 4.06667 12.4 4.175 12.3 4.275L9.7 6.875C9.51667 7.05833 9.28333 7.15 9 7.15C8.71667 7.15 8.48333 7.05833 8.3 6.875C8.11667 6.69167 8.025 6.45833 8.025 6.175C8.025 5.89167 8.11667 5.65833 8.3 5.475L9.2 4.575H9C7.05 4.575 5.39583 5.25417 4.0375 6.6125C2.67917 7.97083 2 9.625 2 11.575C2 13.1917 2.49167 14.6208 3.475 15.8625C4.45833 17.1042 5.71667 17.925 7.25 18.325C7.46667 18.375 7.64583 18.4917 7.7875 18.675C7.92917 18.8583 8 19.0583 8 19.275C8 19.625 7.87917 19.9 7.6375 20.1C7.39583 20.3 7.10833 20.3583 6.775 20.275Z" fill="currentColor"/>
</svg>
