<svg width="16" height="16" viewBox="0 0 16 16" fill="none" xmlns="http://www.w3.org/2000/svg">
<path opacity="0.5" fill-rule="evenodd" clip-rule="evenodd" d="M1.7694 8.16061C0.910637 4.28598 4.28603 0.910587 8.16066 1.76935C10.1135 2.20159 11.6888 3.77693 12.1219 5.72977C12.9807 9.6044 9.60527 12.9806 5.72982 12.1218C3.7778 11.6888 2.20245 10.1134 1.7694 8.16061ZM15.7604 14.2038L12.568 11.0114C13.6172 9.56273 14.1303 7.70059 13.783 5.70853C13.2838 2.84872 10.9641 0.55352 8.09774 0.0926826C3.35618 -0.668843 -0.679415 3.37411 0.096001 8.1173C0.576449 11.0555 2.98359 13.3981 5.93001 13.8181C8.04953 14.1196 10.0122 13.4586 11.4617 12.2158L14.605 15.3591C14.9245 15.6786 15.4417 15.6786 15.7604 15.3591C16.0799 15.0405 16.0799 14.5225 15.7604 14.2038Z" fill="currentColor"/>
</svg>
