<svg width="24" height="24" viewBox="0 0 24 24" fill="none" xmlns="http://www.w3.org/2000/svg">
<path fill-rule="evenodd" clip-rule="evenodd" d="M12 6C8.68629 6 6 8.68629 6 12C6 15.3137 8.68629 18 12 18C15.3137 18 18 15.3137 18 12C18 8.68629 15.3137 6 12 6ZM4 12C4 7.58172 7.58172 4 12 4C16.4183 4 20 7.58172 20 12C20 16.4183 16.4183 20 12 20C7.58172 20 4 16.4183 4 12Z" fill="currentColor"/>
<path fill-rule="evenodd" clip-rule="evenodd" d="M7.6001 12.4996C7.6001 9.79341 9.7939 7.59961 12.5001 7.59961C12.9972 7.59961 13.4001 8.00255 13.4001 8.49961C13.4001 8.99667 12.9972 9.39961 12.5001 9.39961C10.788 9.39961 9.4001 10.7875 9.4001 12.4996C9.4001 12.9967 8.99715 13.3996 8.5001 13.3996C8.00304 13.3996 7.6001 12.9967 7.6001 12.4996Z" fill="currentColor"/>
<path fill-rule="evenodd" clip-rule="evenodd" d="M16.2929 16.2929C16.6834 15.9024 17.3166 15.9024 17.7071 16.2929L21.2426 19.8284C21.6332 20.219 21.6332 20.8521 21.2426 21.2426C20.8521 21.6332 20.219 21.6332 19.8284 21.2426L16.2929 17.7071C15.9024 17.3166 15.9024 16.6834 16.2929 16.2929Z" fill="currentColor"/>
</svg>
