<svg width="24" height="24" viewBox="0 0 24 24" fill="none" xmlns="http://www.w3.org/2000/svg">
<mask id="mask0_5612_2491" style="mask-type:alpha" maskUnits="userSpaceOnUse" x="0" y="0" width="24" height="24">
<rect width="24" height="24" fill="#D9D9D9"/>
</mask>
<g mask="url(#mask0_5612_2491)">
<path d="M12 22C11.1667 22 10.4583 21.7084 9.87499 21.125C9.29165 20.5417 8.99999 19.8334 8.99999 19C8.99999 18.1667 9.29165 17.4584 9.87499 16.875C10.4583 16.2917 11.1667 16 12 16C12.8333 16 13.5417 16.2917 14.125 16.875C14.7083 17.4584 15 18.1667 15 19C15 19.8334 14.7083 20.5417 14.125 21.125C13.5417 21.7084 12.8333 22 12 22ZM11 5.82502L9.09999 7.70002C8.91665 7.88336 8.68749 7.97919 8.41249 7.98752C8.13749 7.99586 7.89999 7.90002 7.69999 7.70002C7.51665 7.51669 7.42499 7.28336 7.42499 7.00002C7.42499 6.71669 7.51665 6.48336 7.69999 6.30002L11.3 2.70002C11.5 2.50002 11.7333 2.40002 12 2.40002C12.2667 2.40002 12.5 2.50002 12.7 2.70002L16.3 6.30002C16.5 6.50002 16.5958 6.73336 16.5875 7.00002C16.5792 7.26669 16.475 7.50002 16.275 7.70002C16.075 7.88336 15.8417 7.97919 15.575 7.98752C15.3083 7.99586 15.075 7.90002 14.875 7.70002L13 5.82502V13C13 13.2834 12.9042 13.5209 12.7125 13.7125C12.5208 13.9042 12.2833 14 12 14C11.7167 14 11.4792 13.9042 11.2875 13.7125C11.0958 13.5209 11 13.2834 11 13V5.82502Z" fill="currentColor"/>
</g>
</svg>
