<svg width="24" height="24" viewBox="0 0 24 24" fill="none" xmlns="http://www.w3.org/2000/svg">
<mask id="mask0_4820_24083" style="mask-type:alpha" maskUnits="userSpaceOnUse" x="0" y="0" width="24" height="24">
<rect width="24" height="24" fill="#D9D9D9"/>
</mask>
<g mask="url(#mask0_4820_24083)">
<path d="M9 23C8.71667 23 8.47917 22.9042 8.2875 22.7125C8.09583 22.5208 8 22.2833 8 22V10C8 9.71667 8.09583 9.47917 8.2875 9.2875C8.47917 9.09583 8.71667 9 9 9H15C15.2833 9 15.5208 9.09583 15.7125 9.2875C15.9042 9.47917 16 9.71667 16 10V22C16 22.2833 15.9042 22.5208 15.7125 22.7125C15.5208 22.9042 15.2833 23 15 23H9ZM12 14.25C12.35 14.25 12.6458 14.1292 12.8875 13.8875C13.1292 13.6458 13.25 13.35 13.25 13C13.25 12.65 13.1292 12.3542 12.8875 12.1125C12.6458 11.8708 12.35 11.75 12 11.75C11.65 11.75 11.3542 11.8708 11.1125 12.1125C10.8708 12.3542 10.75 12.65 10.75 13C10.75 13.35 10.8708 13.6458 11.1125 13.8875C11.3542 14.1292 11.65 14.25 12 14.25ZM12 6C11.5 6 11.0167 6.06667 10.55 6.2C10.0833 6.33333 9.64167 6.54167 9.225 6.825C8.99167 6.975 8.73333 7.04583 8.45 7.0375C8.16667 7.02917 7.93333 6.93333 7.75 6.75C7.55 6.55 7.45417 6.31667 7.4625 6.05C7.47083 5.78333 7.58333 5.56667 7.8 5.4C8.4 4.95 9.05833 4.60417 9.775 4.3625C10.4917 4.12083 11.2333 4 12 4C12.7667 4 13.5083 4.12083 14.225 4.3625C14.9417 4.60417 15.6 4.95 16.2 5.4C16.4167 5.56667 16.5292 5.78333 16.5375 6.05C16.5458 6.31667 16.45 6.55 16.25 6.75C16.0667 6.93333 15.8417 7.03333 15.575 7.05C15.3083 7.06667 15.0583 7 14.825 6.85C14.4083 6.56667 13.9583 6.35417 13.475 6.2125C12.9917 6.07083 12.5 6 12 6ZM12 2C10.9667 2 9.975 2.1625 9.025 2.4875C8.075 2.8125 7.20833 3.29167 6.425 3.925C6.19167 4.10833 5.93333 4.20417 5.65 4.2125C5.36667 4.22083 5.125 4.125 4.925 3.925C4.725 3.725 4.625 3.48333 4.625 3.2C4.625 2.91667 4.74167 2.68333 4.975 2.5C5.975 1.7 7.07083 1.08333 8.2625 0.65C9.45417 0.216667 10.7 0 12 0C13.3 0 14.55 0.2125 15.75 0.6375C16.95 1.0625 18.0333 1.69167 19 2.525C19.2167 2.70833 19.3292 2.94167 19.3375 3.225C19.3458 3.50833 19.25 3.75 19.05 3.95C18.8667 4.13333 18.6375 4.22917 18.3625 4.2375C18.0875 4.24583 17.8417 4.15833 17.625 3.975C16.825 3.325 15.95 2.83333 15 2.5C14.05 2.16667 13.05 2 12 2ZM10 21H14V11H10V21Z" fill="#1C1B1F"/>
</g>
</svg>
