<svg width="24" height="24" viewBox="0 0 24 24" fill="none" xmlns="http://www.w3.org/2000/svg">
<mask id="mask0_3763_1228" style="mask-type:alpha" maskUnits="userSpaceOnUse" x="0" y="0" width="24" height="24">
<rect width="24" height="24" fill="#D9D9D9"/>
</mask>
<g mask="url(#mask0_3763_1228)">
<path d="M18.4784 8.04733H6.32894C5.95945 8.04733 5.65834 7.74766 5.65834 7.37672C5.65834 7.20797 5.79507 7.07269 5.96236 7.07269H16.8506C17.0194 7.07269 17.1547 6.93595 17.1547 6.76866V5.67038C17.1547 5.27762 16.8172 4.96777 16.4259 5.00269L5.39213 5.97732C4.60515 6.04569 4 6.70466 4 7.49454V18.0991C4 18.9399 4.68224 19.6222 5.52305 19.6222H18.477C19.3178 19.6222 20 18.9399 20 18.0991V9.57037C20 8.72957 19.3178 8.04733 18.477 8.04733M14.7253 16.0146C14.6293 16.8001 14.1507 17.4285 13.4074 17.7442C12.9943 17.9202 12.44 18.0133 12.0022 17.9842C11.3199 17.958 10.6784 17.7937 10.0864 17.4911C9.87108 17.382 9.55542 17.1652 9.31831 16.966C9.26448 16.9209 9.23684 16.8801 9.28775 16.8074C9.34303 16.7245 9.56269 16.4059 9.5976 16.3535C9.64415 16.2823 9.72125 16.2793 9.79107 16.3332C9.80126 16.3404 9.87253 16.3957 9.88708 16.4074C10.4559 16.8496 11.1905 17.1827 12.0065 17.2132C13.035 17.1987 13.7813 16.7405 13.9151 16.032C14.062 15.2509 13.438 14.5803 12.2364 14.205C11.8538 14.0857 10.8937 13.7046 10.7162 13.6013C9.87981 13.114 9.48996 12.4739 9.54523 11.6869C9.62961 10.5959 10.6493 9.77839 11.9411 9.77257C12.555 9.77257 13.1296 9.9064 13.6431 10.1217C13.8322 10.2002 14.1827 10.3894 14.3078 10.4825C14.3951 10.5465 14.3893 10.6177 14.3544 10.673C14.3035 10.7574 14.1507 10.9945 14.0896 11.092C14.0445 11.1589 13.9893 11.1676 13.9107 11.1181C13.2503 10.6774 12.5695 10.5275 11.9571 10.5159C11.0741 10.5334 10.4079 11.0541 10.3642 11.7684C10.3526 12.4143 10.8472 12.8827 11.8945 13.2391C14.0591 13.93 14.8781 14.7417 14.7224 16.0131" fill="currentColor"/>
</g>
</svg>
