<svg width="24" height="24" viewBox="0 0 24 24" fill="none" xmlns="http://www.w3.org/2000/svg">
<mask id="mask0_5601_2479" style="mask-type:alpha" maskUnits="userSpaceOnUse" x="0" y="0" width="24" height="24">
<rect width="24" height="24" fill="#D9D9D9"/>
</mask>
<g mask="url(#mask0_5601_2479)">
<path d="M11 21V18H6.82502C6.55836 18 6.30419 17.95 6.06252 17.85C5.82086 17.75 5.60836 17.6083 5.42502 17.425L3.70002 15.7C3.50002 15.5 3.40002 15.2667 3.40002 15C3.40002 14.7333 3.50002 14.5 3.70002 14.3L5.42502 12.575C5.60836 12.3917 5.82086 12.25 6.06252 12.15C6.30419 12.05 6.55836 12 6.82502 12H11V10H5.00002C4.71669 10 4.47919 9.90417 4.28752 9.7125C4.09586 9.52083 4.00002 9.28333 4.00002 9V5C4.00002 4.71667 4.09586 4.47917 4.28752 4.2875C4.47919 4.09583 4.71669 4 5.00002 4H11V3C11 2.71667 11.0959 2.47917 11.2875 2.2875C11.4792 2.09583 11.7167 2 12 2C12.2834 2 12.5209 2.09583 12.7125 2.2875C12.9042 2.47917 13 2.71667 13 3V4H17.175C17.4417 4 17.6959 4.05 17.9375 4.15C18.1792 4.25 18.3917 4.39167 18.575 4.575L20.3 6.3C20.5 6.5 20.6 6.73333 20.6 7C20.6 7.26667 20.5 7.5 20.3 7.7L18.575 9.425C18.3917 9.60833 18.1792 9.75 17.9375 9.85C17.6959 9.95 17.4417 10 17.175 10H13V12H19C19.2834 12 19.5209 12.0958 19.7125 12.2875C19.9042 12.4792 20 12.7167 20 13V17C20 17.2833 19.9042 17.5208 19.7125 17.7125C19.5209 17.9042 19.2834 18 19 18H13V21C13 21.2833 12.9042 21.5208 12.7125 21.7125C12.5209 21.9042 12.2834 22 12 22C11.7167 22 11.4792 21.9042 11.2875 21.7125C11.0959 21.5208 11 21.2833 11 21ZM6.00002 8H17.175L18.175 7L17.175 6H6.00002V8ZM6.82502 16H18V14H6.82502L5.82502 15L6.82502 16Z" fill="currentColor"/>
</g>
</svg>
