<svg width="64" height="60" viewBox="0 0 64 60" fill="none" xmlns="http://www.w3.org/2000/svg">
<path d="M35.6562 32.8281C40.0833 29.8073 43.5599 26.474 46.0859 22.8281C48.612 19.1823 49.875 15.5104 49.875 11.8125C49.875 9.625 49.5104 7.93229 48.7812 6.73438C48.0521 5.53646 47.0625 4.9375 45.8125 4.9375C42.8438 4.9375 40.3177 7.15104 38.2344 11.5781C36.151 16.0052 35.1094 21.2135 35.1094 27.2031C35.1094 28.2448 35.1484 29.2344 35.2266 30.1719C35.3047 31.1094 35.4479 31.9948 35.6562 32.8281ZM4.17188 45.1719C3.70312 45.6406 3.15625 45.875 2.53125 45.875C1.90625 45.875 1.35938 45.6406 0.890625 45.1719C0.421875 44.7031 0.1875 44.1562 0.1875 43.5312C0.1875 42.9062 0.421875 42.3594 0.890625 41.8906L4.25 38.5312L0.890625 35.1719C0.421875 34.7031 0.1875 34.1562 0.1875 33.5312C0.1875 32.9062 0.421875 32.3594 0.890625 31.8906C1.35938 31.4219 1.90625 31.1875 2.53125 31.1875C3.15625 31.1875 3.70312 31.4219 4.17188 31.8906L7.53125 35.25L10.8906 31.8906C11.3594 31.4219 11.9062 31.1875 12.5312 31.1875C13.1562 31.1875 13.7031 31.4219 14.1719 31.8906C14.6406 32.3594 14.875 32.9062 14.875 33.5312C14.875 34.1562 14.6406 34.7031 14.1719 35.1719L10.8125 38.5312L14.1719 41.8906C14.6406 42.3594 14.875 42.9062 14.875 43.5312C14.875 44.1562 14.6406 44.7031 14.1719 45.1719C13.7031 45.6406 13.1562 45.875 12.5312 45.875C11.9062 45.875 11.3594 45.6406 10.8906 45.1719L7.53125 41.8125L4.17188 45.1719ZM41.2812 44C39.6146 44 38.1172 43.6354 36.7891 42.9062C35.4609 42.1771 34.3281 41.1094 33.3906 39.7031C32.401 40.276 31.3984 40.7969 30.3828 41.2656C29.3672 41.7344 28.3385 42.2031 27.2969 42.6719C26.6719 42.9323 26.0729 42.9453 25.5 42.7109C24.9271 42.4766 24.5104 42.0469 24.25 41.4219C23.9896 40.7969 24.0026 40.1849 24.2891 39.5859C24.5755 38.987 25.0313 38.5573 25.6563 38.2969C26.6979 37.8802 27.7005 37.4375 28.6641 36.9688C29.6276 36.5 30.5521 36.0052 31.4375 35.4844C31.0729 34.2865 30.8125 32.9974 30.6562 31.6172C30.5 30.237 30.4219 28.7656 30.4219 27.2031C30.4219 19.599 31.8672 13.2057 34.7578 8.02344C37.6484 2.84115 41.3333 0.25 45.8125 0.25C48.4688 0.25 50.5911 1.31771 52.1797 3.45312C53.7682 5.58854 54.5625 8.45312 54.5625 12.0469C54.5625 16.6302 53.0651 21.1094 50.0703 25.4844C47.0755 29.8594 42.8958 33.7917 37.5312 37.2812C38.0521 37.9583 38.625 38.4661 39.25 38.8047C39.875 39.1432 40.5521 39.3125 41.2812 39.3125C42.8438 39.3125 44.4714 38.7135 46.1641 37.5156C47.8568 36.3177 49.4583 34.5729 50.9688 32.2812C51.3854 31.7083 51.8932 31.3307 52.4922 31.1484C53.0911 30.9661 53.7031 31.0052 54.3281 31.2656C54.9531 31.5781 55.4479 32.0339 55.8125 32.6328C56.1771 33.2318 56.3073 33.8958 56.2031 34.625C56.099 35.4062 56.0599 36.1875 56.0859 36.9688C56.112 37.75 56.1771 38.5833 56.2813 39.4688C56.75 39.2083 57.2318 38.9089 57.7266 38.5703C58.2214 38.2318 58.7292 37.8542 59.25 37.4375C59.7708 37.0208 60.3568 36.7734 61.0078 36.6953C61.6589 36.6172 62.2448 36.7865 62.7656 37.2031C63.2865 37.6198 63.5729 38.1667 63.625 38.8438C63.6771 39.5208 63.4688 40.0677 63 40.4844C61.8542 41.5781 60.6693 42.4375 59.4453 43.0625C58.2214 43.6875 57.0625 44 55.9688 44C54.7188 44 53.7031 43.5573 52.9219 42.6719C52.1406 41.7865 51.6719 40.5104 51.5156 38.8438C50.0052 40.5104 48.3776 41.7865 46.6328 42.6719C44.888 43.5573 43.1042 44 41.2812 44ZM4.71875 59.625C4.04167 59.625 3.48177 59.4036 3.03906 58.9609C2.59635 58.5182 2.375 57.9583 2.375 57.2812C2.375 56.6042 2.59635 56.0443 3.03906 55.6016C3.48177 55.1589 4.04167 54.9375 4.71875 54.9375C5.39583 54.9375 5.95573 55.1589 6.39844 55.6016C6.84115 56.0443 7.0625 56.6042 7.0625 57.2812C7.0625 57.9583 6.84115 58.5182 6.39844 58.9609C5.95573 59.4036 5.39583 59.625 4.71875 59.625ZM17.6094 59.625C16.9323 59.625 16.3724 59.4036 15.9297 58.9609C15.487 58.5182 15.2656 57.9583 15.2656 57.2812C15.2656 56.6042 15.487 56.0443 15.9297 55.6016C16.3724 55.1589 16.9323 54.9375 17.6094 54.9375C18.2865 54.9375 18.8464 55.1589 19.2891 55.6016C19.7318 56.0443 19.9531 56.6042 19.9531 57.2812C19.9531 57.9583 19.7318 58.5182 19.2891 58.9609C18.8464 59.4036 18.2865 59.625 17.6094 59.625ZM30.5 59.625C29.8229 59.625 29.263 59.4036 28.8203 58.9609C28.3776 58.5182 28.1562 57.9583 28.1562 57.2812C28.1562 56.6042 28.3776 56.0443 28.8203 55.6016C29.263 55.1589 29.8229 54.9375 30.5 54.9375C31.1771 54.9375 31.737 55.1589 32.1797 55.6016C32.6224 56.0443 32.8438 56.6042 32.8438 57.2812C32.8438 57.9583 32.6224 58.5182 32.1797 58.9609C31.737 59.4036 31.1771 59.625 30.5 59.625ZM43.3906 59.625C42.7135 59.625 42.1536 59.4036 41.7109 58.9609C41.2682 58.5182 41.0469 57.9583 41.0469 57.2812C41.0469 56.6042 41.2682 56.0443 41.7109 55.6016C42.1536 55.1589 42.7135 54.9375 43.3906 54.9375C44.0677 54.9375 44.6276 55.1589 45.0703 55.6016C45.513 56.0443 45.7344 56.6042 45.7344 57.2812C45.7344 57.9583 45.513 58.5182 45.0703 58.9609C44.6276 59.4036 44.0677 59.625 43.3906 59.625ZM56.2813 59.625C55.6042 59.625 55.0443 59.4036 54.6016 58.9609C54.1589 58.5182 53.9375 57.9583 53.9375 57.2812C53.9375 56.6042 54.1589 56.0443 54.6016 55.6016C55.0443 55.1589 55.6042 54.9375 56.2813 54.9375C56.9583 54.9375 57.5182 55.1589 57.9609 55.6016C58.4036 56.0443 58.625 56.6042 58.625 57.2812C58.625 57.9583 58.4036 58.5182 57.9609 58.9609C57.5182 59.4036 56.9583 59.625 56.2813 59.625Z" fill="currentColor"/>
</svg>
