<svg width="32" height="25" viewBox="0 0 32 25" fill="none" xmlns="http://www.w3.org/2000/svg">
<g clip-path="url(#clip0_12600_34837)">
<path d="M31.4766 18.7764C31.9432 18.7764 32.1764 19.3372 31.8467 19.666L26.8018 24.6953C26.6087 24.8878 26.3431 25 26.0615 25H0.522461C0.0560112 24.9997 -0.177471 24.4381 0.152344 24.1094L5.19727 19.0811C5.39027 18.8887 5.65605 18.7765 5.9375 18.7764H31.4766ZM26.0615 9.32812C26.3431 9.32812 26.6087 9.44035 26.8018 9.63281L31.8467 14.6621C32.1764 14.991 31.9432 15.5518 31.4766 15.5518H5.9375C5.65605 15.5516 5.39027 15.4395 5.19727 15.2471L0.152344 10.2178C-0.176871 9.88896 0.0562033 9.32841 0.522461 9.32812H26.0615ZM31.4766 0C31.9432 0 32.1766 0.561783 31.8467 0.890625L26.8018 5.91895C26.6086 6.11143 26.3431 6.22363 26.0615 6.22363H0.522461C0.056238 6.22329 -0.176903 5.66278 0.152344 5.33398L5.19824 0.304688C5.39936 0.112367 5.66504 0 5.93848 0H31.4766Z" fill="currentColor"/>
</g>
<defs>
<clipPath id="clip0_12600_34837">
<rect width="32" height="25" fill="white"/>
</clipPath>
</defs>
</svg>
