<svg width="24" height="24" viewBox="0 0 24 24" fill="none" xmlns="http://www.w3.org/2000/svg">
<path d="M5.26813 24C4.63104 24 4.09375 23.7856 3.65625 23.3569C3.21875 22.9281 3 22.3969 3 21.7631C3 21.1294 3.21542 20.5938 3.64625 20.1563C4.0775 19.7188 4.61167 19.5 5.24875 19.5L18.7319 19.5C19.369 19.5 19.9063 19.7144 20.3438 20.1431C20.7813 20.5719 21 21.1031 21 21.7369C21 22.3706 20.7846 22.9062 20.3538 23.3438C19.9225 23.7813 19.3883 24 18.7513 24L5.26813 24ZM9.75 9.375L9.75 2.23188C9.75 1.59979 9.96438 1.06979 10.3931 0.641876C10.8219 0.213959 11.3531 1.26503e-06 11.9869 1.18193e-06C12.6206 1.09882e-06 13.1563 0.213959 13.5938 0.641876C14.0313 1.06979 14.25 1.59979 14.25 2.23188L14.25 9.375L16.25 7.375C16.7083 6.91667 17.2396 6.6875 17.8438 6.6875C18.4479 6.6875 18.9792 6.91667 19.4375 7.375C19.8958 7.83333 20.125 8.36458 20.125 8.96875C20.125 9.57292 19.8958 10.1042 19.4375 10.5625L13.5706 16.4125C13.3448 16.6375 13.1004 16.8021 12.8375 16.9063C12.5742 17.0104 12.2921 17.0625 11.9913 17.0625C11.6904 17.0625 11.4083 17.0104 11.145 16.9063C10.8817 16.8021 10.6458 16.6458 10.4375 16.4375L4.5625 10.5625C4.10417 10.1042 3.88542 9.57292 3.90625 8.96875C3.92709 8.36459 4.16667 7.83334 4.625 7.375C5.08333 6.91667 5.61459 6.6875 6.21875 6.6875C6.82292 6.6875 7.35417 6.91667 7.8125 7.375L9.75 9.375Z" fill="currentColor"/>
</svg>
