<svg width="20" height="20" viewBox="0 0 20 20" fill="none" xmlns="http://www.w3.org/2000/svg">
<path d="M15.833 7.49967L16.8747 5.20801L19.1663 4.16634L16.8747 3.12467L15.833 0.833008L14.7913 3.12467L12.4997 4.16634L14.7913 5.20801L15.833 7.49967Z" fill="#28282E"/>
<path d="M15.833 12.4997L14.7913 14.7913L12.4997 15.833L14.7913 16.8747L15.833 19.1663L16.8747 16.8747L19.1663 15.833L16.8747 14.7913L15.833 12.4997Z" fill="#28282E"/>
<path d="M9.58301 7.91634L7.49967 3.33301L5.41634 7.91634L0.833008 9.99967L5.41634 12.083L7.49967 16.6663L9.58301 12.083L14.1663 9.99967L9.58301 7.91634ZM8.32467 10.8247L7.49967 12.6413L6.67467 10.8247L4.85801 9.99967L6.67467 9.17467L7.49967 7.35801L8.32467 9.17467L10.1413 9.99967L8.32467 10.8247Z" fill="#28282E"/>
</svg>
