<svg width="24" height="24" viewBox="0 0 24 24" fill="none" xmlns="http://www.w3.org/2000/svg">
<path d="M7.77558 5.59076L5.79538 7.57096C5.60176 7.76458 5.35974 7.86139 5.06931 7.86139C4.77888 7.86139 4.52805 7.76458 4.31683 7.57096C4.10561 7.35973 4 7.10891 4 6.81848C4 6.52805 4.10561 6.27723 4.31683 6.06601L8.09241 2.29043C8.19802 2.18482 8.31243 2.11001 8.43564 2.06601C8.55886 2.022 8.69087 2 8.83168 2C8.9725 2 9.10451 2.022 9.22772 2.06601C9.35093 2.11001 9.46535 2.18482 9.57096 2.29043L13.3729 6.09241C13.5842 6.30363 13.6854 6.55005 13.6766 6.83168C13.6678 7.11331 13.5578 7.35974 13.3465 7.57096C13.1353 7.76458 12.8889 7.86579 12.6073 7.87459C12.3256 7.88339 12.0792 7.78218 11.868 7.57096L9.88779 5.59076L9.88779 12.1122C9.88779 12.4114 9.78658 12.6623 9.58416 12.8647C9.38174 13.0671 9.13091 13.1683 8.83168 13.1683C8.53245 13.1683 8.28163 13.0671 8.07921 12.8647C7.87679 12.6623 7.77558 12.4114 7.77558 12.1122L7.77558 5.59076ZM14.1122 18.6337L14.1122 12.1122C14.1122 11.813 14.2134 11.5622 14.4158 11.3597C14.6183 11.1573 14.8691 11.0561 15.1683 11.0561C15.4675 11.0561 15.7184 11.1573 15.9208 11.3597C16.1232 11.5622 16.2244 11.813 16.2244 12.1122L16.2244 18.6337L18.2046 16.6535C18.3982 16.4598 18.6403 16.363 18.9307 16.363C19.2211 16.363 19.4719 16.4598 19.6832 16.6535C19.8944 16.8647 20 17.1155 20 17.4059C20 17.6964 19.8944 17.9472 19.6832 18.1584L15.9076 21.934C15.802 22.0396 15.6876 22.1144 15.5644 22.1584C15.4411 22.2024 15.3091 22.2244 15.1683 22.2244C15.0275 22.2244 14.8955 22.2024 14.7723 22.1584C14.6491 22.1144 14.5347 22.0396 14.429 21.934L10.6271 18.132C10.4158 17.9208 10.3146 17.6744 10.3234 17.3927C10.3322 17.1111 10.4422 16.8647 10.6535 16.6535C10.8647 16.4598 11.1111 16.3586 11.3927 16.3498C11.6744 16.341 11.9208 16.4422 12.132 16.6535L14.1122 18.6337Z" fill="currentColor"/>
</svg>
