<svg width="40" height="40" viewBox="0 0 40 40" fill="none" xmlns="http://www.w3.org/2000/svg">
<mask id="mask0_3018_19602" style="mask-type:alpha" maskUnits="userSpaceOnUse" x="0" y="0" width="40" height="40">
<rect width="40" height="40" fill="#D9D9D9"/>
</mask>
<g mask="url(#mask0_3018_19602)">
<path d="M17.3033 35.8327C16.9339 35.8327 16.6243 35.7078 16.3746 35.4581C16.1249 35.2081 16 34.8985 16 34.5293V28.3969C16 28.1002 16.1008 27.8516 16.3025 27.651C16.5042 27.4502 16.7542 27.3498 17.0525 27.3498C17.3508 27.3498 17.5989 27.4502 17.7967 27.651C17.9947 27.8516 18.0938 28.1002 18.0938 28.3969V32.5252C19.5035 30.7738 20.5743 28.8303 21.3062 26.6948C22.0385 24.5595 22.4046 22.3224 22.4046 19.9835C22.4046 17.6443 22.0385 15.4069 21.3062 13.271C20.5743 11.1355 19.5035 9.19726 18.0938 7.45643V11.6019C18.0938 11.8985 17.9929 12.1471 17.7913 12.3477C17.5896 12.5485 17.3396 12.6489 17.0413 12.6489C16.7429 12.6489 16.4947 12.5485 16.2967 12.3477C16.0989 12.1471 16 11.8985 16 11.6019V5.46935C16 5.10018 16.1249 4.7906 16.3746 4.5406C16.6243 4.29088 16.9339 4.16602 17.3033 4.16602H23.4358C23.7325 4.16602 23.9811 4.26685 24.1817 4.46852C24.3822 4.67046 24.4825 4.92046 24.4825 5.21852C24.4825 5.51685 24.3822 5.76504 24.1817 5.9631C23.9811 6.16115 23.7325 6.26018 23.4358 6.26018H19.8137C21.3415 8.18102 22.5043 10.3114 23.3021 12.6514C24.0999 14.9917 24.4987 17.441 24.4987 19.9993C24.4987 22.5577 24.0999 25.007 23.3021 27.3473C22.5043 29.6873 21.3415 31.8177 19.8137 33.7385H23.4358C23.7325 33.7385 23.9811 33.8395 24.1817 34.0414C24.3822 34.2431 24.4825 34.4931 24.4825 34.7914C24.4825 35.0895 24.3822 35.3375 24.1817 35.5356C23.9811 35.7337 23.7325 35.8327 23.4358 35.8327H17.3033Z" fill="currentColor"/>
</g>
</svg>
