<svg width="62" height="62" viewBox="0 0 62 62" fill="none" xmlns="http://www.w3.org/2000/svg">
<mask id="mask0_14730_82277" style="mask-type:alpha" maskUnits="userSpaceOnUse" x="0" y="0" width="62" height="62">
<rect width="62" height="62" transform="matrix(-1 0 0 1 62 0)" fill="#D9D9D9"/>
</mask>
<g mask="url(#mask0_14730_82277)">
<path d="M47.7915 31.1934C47.7915 33.9059 47.2856 36.2632 46.2738 38.2653C45.262 40.2674 43.895 42.0004 42.1728 43.4643L40.2353 44.8205V38.7497C40.2353 38.19 40.0523 37.7271 39.6863 37.3611C39.3203 36.9952 38.8575 36.8122 38.2978 36.8122C37.738 36.8122 37.2752 36.9952 36.9092 37.3611C36.5432 37.7271 36.3603 38.19 36.3603 38.7497V49.7288C36.3603 50.2886 36.5432 50.7514 36.9092 51.1174C37.2752 51.4834 37.738 51.6663 38.2978 51.6663H49.2769C49.8366 51.6663 50.2995 51.4834 50.6655 51.1174C51.0314 50.7514 51.2144 50.2886 51.2144 49.7288C51.2144 49.1691 51.0314 48.7063 50.6655 48.3403C50.2995 47.9743 49.8366 47.7913 49.2769 47.7913H42.8186L43.7873 47.0163C46.5429 44.8205 48.545 42.4309 49.7936 39.8476C51.0422 37.2643 51.6665 34.3795 51.6665 31.1934C51.6665 27.1462 50.6009 23.4542 48.4696 20.1174C46.3384 16.7806 43.4859 14.2511 39.9123 12.5288C39.4387 12.3136 38.9866 12.3136 38.5561 12.5288C38.1255 12.7441 37.8241 13.0886 37.6519 13.5622C37.4366 14.0358 37.4366 14.5202 37.6519 15.0153C37.8672 15.5104 38.2116 15.8872 38.6853 16.1455C41.4408 17.6094 43.6474 19.6868 45.305 22.3778C46.9627 25.0688 47.7915 28.0073 47.7915 31.1934ZM14.2082 30.8059C14.2082 28.7393 14.7141 26.6403 15.7259 24.5091C16.7377 22.3778 18.0616 20.4941 19.6978 18.858L21.5707 17.1788V23.2497C21.5707 23.8094 21.7537 24.2722 22.1196 24.6382C22.4856 25.0042 22.9484 25.1872 23.5082 25.1872C24.0679 25.1872 24.5307 25.0042 24.8967 24.6382C25.2627 24.2722 25.4457 23.8094 25.4457 23.2497V12.2705C25.4457 11.7108 25.2627 11.2479 24.8967 10.882C24.5307 10.516 24.0679 10.333 23.5082 10.333H12.529C11.9693 10.333 11.5064 10.516 11.1405 10.882C10.7745 11.2479 10.5915 11.7108 10.5915 12.2705C10.5915 12.8302 10.7745 13.2931 11.1405 13.659C11.5064 14.025 11.9693 14.208 12.529 14.208H19.0519L18.0832 15.1122C15.4998 17.5233 13.5623 20.1066 12.2707 22.8622C10.979 25.6177 10.3332 28.2656 10.3332 30.8059C10.3332 34.8101 11.3665 38.4591 13.4332 41.7528C15.4998 45.0466 18.2769 47.5976 21.7644 49.4059C22.238 49.6643 22.7224 49.6966 23.2175 49.5028C23.7127 49.3091 24.0679 48.9538 24.2832 48.4372C24.4984 47.9636 24.4984 47.4792 24.2832 46.9841C24.0679 46.4889 23.7234 46.1122 23.2498 45.8538C20.4512 44.433 18.2446 42.3663 16.63 39.6538C15.0155 36.9413 14.2082 33.992 14.2082 30.8059Z" fill="currentColor"/>
</g>
</svg>
