<svg width="24" height="24" viewBox="0 0 24 24" fill="none" xmlns="http://www.w3.org/2000/svg">
<path fill-rule="evenodd" clip-rule="evenodd" d="M6.7449 10.1213C6.91819 8.14067 8.6643 6.6755 10.645 6.84879L17.8176 7.47631C19.7982 7.6496 21.2634 9.39571 21.0901 11.3764L20.4626 18.549C20.2893 20.5296 18.5432 21.9948 16.5625 21.8215L9.38992 21.194C7.40926 21.0207 5.94409 19.2746 6.11738 17.2939L6.7449 10.1213ZM10.4881 8.64194C9.49775 8.5553 8.62469 9.28788 8.53805 10.2782L7.91053 17.4508C7.82389 18.4411 8.55647 19.3142 9.5468 19.4008L16.7194 20.0284C17.7097 20.115 18.5828 19.3824 18.6694 18.3921L19.297 11.2195C19.3836 10.2292 18.651 9.3561 17.6607 9.26946L10.4881 8.64194Z" fill="currentColor"/>
<path fill-rule="evenodd" clip-rule="evenodd" d="M2.90467 6.51998C2.76598 4.5366 4.2614 2.81632 6.24478 2.67762L13.4628 2.17289C15.4265 2.03557 17.1298 3.51619 17.2671 5.47995C17.3018 5.97579 16.9279 6.40586 16.4321 6.44054C15.9362 6.47521 15.5062 6.10135 15.4715 5.60551C15.4035 4.63344 14.5604 3.90053 13.5883 3.96851L6.37034 4.47324C5.37865 4.54259 4.63094 5.40273 4.70029 6.39442L5.13066 12.5491C5.16533 13.0449 4.79148 13.475 4.29563 13.5097C3.79979 13.5443 3.36972 13.1705 3.33505 12.6746L2.90467 6.51998Z" fill="currentColor"/>
</svg>
