<svg width="24" height="24" viewBox="0 0 24 24" fill="none" xmlns="http://www.w3.org/2000/svg">
<path d="M18.7319 -6.87662e-07C19.369 -7.1551e-07 19.9062 0.214373 20.3438 0.643123C20.7813 1.07187 21 1.60312 21 2.23687C21 2.87062 20.7846 3.40625 20.3538 3.84375C19.9225 4.28125 19.3883 4.5 18.7513 4.5L5.26812 4.5C4.63104 4.5 4.09375 4.28562 3.65625 3.85687C3.21875 3.42812 3 2.89687 3 2.26312C3 1.62937 3.21542 1.09375 3.64625 0.65625C4.0775 0.21875 4.61167 -7.04481e-08 5.24875 -9.82959e-08L18.7319 -6.87662e-07ZM14.25 14.625V21.7681C14.25 22.4002 14.0356 22.9302 13.6069 23.3581C13.1781 23.786 12.6469 24 12.0131 24C11.3794 24 10.8438 23.786 10.4062 23.3581C9.96875 22.9302 9.75 22.4002 9.75 21.7681V14.625L7.75 16.625C7.29167 17.0833 6.76042 17.3125 6.15625 17.3125C5.55208 17.3125 5.02083 17.0833 4.5625 16.625C4.10417 16.1667 3.875 15.6354 3.875 15.0312C3.875 14.4271 4.10417 13.8958 4.5625 13.4375L10.4294 7.5875C10.6552 7.3625 10.8996 7.19792 11.1625 7.09375C11.4258 6.98958 11.7079 6.9375 12.0088 6.9375C12.3096 6.9375 12.5917 6.98958 12.855 7.09375C13.1183 7.19792 13.3542 7.35417 13.5625 7.5625L19.4375 13.4375C19.8958 13.8958 20.1146 14.4271 20.0938 15.0312C20.0729 15.6354 19.8333 16.1667 19.375 16.625C18.9167 17.0833 18.3854 17.3125 17.7813 17.3125C17.1771 17.3125 16.6458 17.0833 16.1875 16.625L14.25 14.625Z" fill="currentColor"/>
</svg>
