<svg width="24" height="24" viewBox="0 0 24 24" fill="none" xmlns="http://www.w3.org/2000/svg">
<g clip-path="url(#clip0_5722_3244)">
<path d="M12.0114 3.8503C13.8634 3.8503 15.6096 4.25247 17.2502 5.05681C18.8909 5.86115 20.2464 7.01853 21.3169 8.52896C21.4501 8.7199 21.4964 8.89502 21.456 9.05421C21.4154 9.2134 21.3314 9.34509 21.2042 9.44927C21.0769 9.54752 20.9308 9.5909 20.7659 9.57946C20.6009 9.56784 20.4664 9.47233 20.3623 9.29302C19.4189 7.94459 18.2064 6.91159 16.725 6.19405C15.2436 5.47634 13.6724 5.10881 12.0114 5.09145C10.3391 5.08572 8.76937 5.44457 7.30235 6.16801C5.83534 6.89127 4.64176 7.94165 3.72163 9.31902C3.58273 9.51002 3.42788 9.61709 3.25704 9.64015C3.08638 9.66321 2.93742 9.63434 2.81016 9.5534C2.66538 9.47809 2.57423 9.3594 2.53673 9.19746C2.49905 9.03546 2.52075 8.8879 2.60183 8.75471C3.65496 7.19223 5.01199 5.98415 6.67292 5.13051C8.33387 4.27704 10.1134 3.8503 12.0114 3.8503ZM12.0114 6.38494C14.3726 6.38494 16.3836 7.19075 18.0446 8.8024C19.7053 10.4142 20.5357 12.3775 20.5357 14.6922C20.5357 15.5893 20.2247 16.359 19.6026 17.0013C18.9806 17.6437 18.2181 17.9649 17.3154 17.9649C16.4009 17.9649 15.6241 17.6596 14.9846 17.049C14.3451 16.4384 14.0253 15.6933 14.0253 14.8138C14.0253 14.2409 13.8329 13.7505 13.4482 13.3425C13.0633 12.9345 12.5873 12.7305 12.0201 12.7305C11.4645 12.7305 10.9914 12.9345 10.6008 13.3425C10.2102 13.7505 10.0149 14.2409 10.0149 14.8138C10.0149 16.5383 10.4996 17.9937 11.469 19.18C12.4383 20.3665 13.8431 21.1535 15.6833 21.5412C15.8686 21.5643 15.993 21.6453 16.0565 21.7841C16.1202 21.923 16.1376 22.0678 16.1086 22.2183C16.0681 22.3745 15.9886 22.5004 15.8701 22.5959C15.7513 22.6913 15.5704 22.7189 15.3274 22.6784C13.2556 22.2675 11.6454 21.3473 10.4966 19.918C9.348 18.4885 8.77369 16.7871 8.77369 14.8138C8.77369 13.8995 9.08906 13.1196 9.71981 12.4743C10.3505 11.8291 11.1173 11.5065 12.0201 11.5065C12.9228 11.5065 13.6926 11.8147 14.3292 12.431C14.9658 13.0473 15.2841 13.8011 15.2841 14.6922C15.2841 15.2594 15.4808 15.7412 15.8742 16.1375C16.2678 16.5339 16.7482 16.7321 17.3154 16.7321C17.8709 16.7321 18.3411 16.5339 18.7258 16.1375C19.1107 15.7412 19.3031 15.2594 19.3031 14.6922C19.3031 12.7131 18.5899 11.0479 17.1633 9.69665C15.7369 8.34527 14.0138 7.66959 11.994 7.66959C9.97438 7.66959 8.26144 8.36402 6.85522 9.7529C5.44897 11.1418 4.74584 12.8345 4.74584 14.831C4.74584 15.5024 4.79211 16.139 4.88464 16.7409C4.97735 17.3426 5.12788 17.9243 5.33621 18.4857C5.39975 18.6881 5.40261 18.8574 5.3448 18.9935C5.28699 19.1295 5.18282 19.2293 5.0323 19.293C4.85869 19.3565 4.69228 19.3609 4.53308 19.306C4.37406 19.251 4.25114 19.1135 4.16433 18.8935C3.98482 18.396 3.83291 17.7985 3.7086 17.1011C3.58413 16.4037 3.52188 15.6413 3.52188 14.8138C3.52188 12.5048 4.35235 10.5227 6.01329 8.86746C7.67406 7.21245 9.67344 6.38494 12.0114 6.38494ZM12.0201 1.29822C13.1659 1.29822 14.2857 1.43277 15.3794 1.70187C16.4732 1.97096 17.5236 2.37165 18.5305 2.90395C18.7214 2.99665 18.8343 3.12547 18.869 3.2904C18.9037 3.45534 18.8893 3.6043 18.8258 3.73728C18.7447 3.87044 18.6289 3.97322 18.4784 4.04562C18.3281 4.11784 18.1661 4.10187 17.9924 3.9977C17.0723 3.52322 16.1058 3.16011 15.093 2.90837C14.0803 2.65664 13.056 2.53077 12.0201 2.53077C10.9669 2.53077 9.93544 2.65082 8.9255 2.89093C7.91563 3.1312 6.95062 3.50013 6.03048 3.9977C5.83378 4.10187 5.65877 4.13372 5.50548 4.09327C5.35201 4.05282 5.23187 3.96315 5.14506 3.82426C5.08152 3.72009 5.06711 3.57391 5.10183 3.38572C5.13656 3.1977 5.22909 3.0661 5.37944 2.99093C6.38638 2.39475 7.45704 1.96359 8.59144 1.69744C9.72563 1.43129 10.8685 1.29822 12.0201 1.29822ZM12.0201 8.95446C13.6406 8.95446 15.0294 9.5114 16.1867 10.6253C17.3442 11.7393 17.9229 13.095 17.9229 14.6922C17.9229 14.9006 17.8737 15.0727 17.7753 15.2086C17.677 15.3448 17.5237 15.4128 17.3154 15.4128C17.0954 15.4128 16.9319 15.3448 16.8248 15.2086C16.7178 15.0727 16.6643 14.9006 16.6643 14.6922C16.6643 13.4249 16.2114 12.3543 15.3057 11.4805C14.4 10.6065 13.3048 10.1696 12.0201 10.1696C10.7296 10.1696 9.63587 10.6239 8.73881 11.5326C7.84194 12.4411 7.3935 13.5348 7.3935 14.8138C7.3935 16.1621 7.60183 17.3426 8.0185 18.3555C8.43519 19.3682 9.12669 20.378 10.093 21.385C10.2319 21.5238 10.3028 21.6699 10.3057 21.8232C10.3087 21.9767 10.2668 22.1084 10.1799 22.2183C10.0642 22.3688 9.89925 22.4397 9.68519 22.431C9.47094 22.4223 9.29437 22.3428 9.1555 22.1922C8.14281 21.1622 7.39054 20.0439 6.89871 18.8373C6.40669 17.6307 6.16069 16.2895 6.16069 14.8138C6.16069 13.1933 6.72787 11.8116 7.86225 10.6688C8.99644 9.5259 10.3824 8.95446 12.0201 8.95446ZM12.0201 14.0672C12.2111 14.0672 12.3601 14.1308 12.4672 14.2581C12.5743 14.3855 12.6279 14.5418 12.6279 14.7268C12.6279 16.2258 13.1082 17.3558 14.0687 18.1167C15.0294 18.8776 16.1897 19.2581 17.5498 19.2581C17.7234 19.2581 17.9216 19.2408 18.1442 19.206C18.367 19.1713 18.5739 19.154 18.7649 19.154C18.9327 19.154 19.0759 19.2046 19.1946 19.306C19.3133 19.4073 19.3669 19.5301 19.3552 19.6748C19.3552 19.8484 19.3147 19.983 19.2336 20.0784C19.1527 20.1739 19.0486 20.2448 18.9211 20.2912C18.6781 20.378 18.4306 20.4315 18.1789 20.4518C17.9272 20.472 17.7174 20.4821 17.5498 20.4821C15.8484 20.4821 14.4001 19.9888 13.2049 19.0021C12.01 18.0155 11.4125 16.5904 11.4125 14.7268C11.4125 14.5418 11.4661 14.3855 11.5732 14.2581C11.6801 14.1308 11.8291 14.0672 12.0201 14.0672Z" fill="currentColor"/>
</g>
<defs>
<clipPath id="clip0_5722_3244">
<rect width="20" height="21.875" fill="currentColor" transform="translate(2 1)"/>
</clipPath>
</defs>
</svg>
