<svg width="24" height="24" viewBox="0 0 24 24" fill="none" xmlns="http://www.w3.org/2000/svg">
<path d="M5 13C4.45 13 3.97917 12.8042 3.5875 12.4125C3.19583 12.0208 3 11.55 3 11V5C3 4.45 3.19583 3.97917 3.5875 3.5875C3.97917 3.19583 4.45 3 5 3H9C9.55 3 10.0208 3.19583 10.4125 3.5875C10.8042 3.97917 11 4.45 11 5V11C11 11.55 10.8042 12.0208 10.4125 12.4125C10.0208 12.8042 9.55 13 9 13H5ZM5 21C4.45 21 3.97917 20.8042 3.5875 20.4125C3.19583 20.0208 3 19.55 3 19V17C3 16.45 3.19583 15.9792 3.5875 15.5875C3.97917 15.1958 4.45 15 5 15H9C9.55 15 10.0208 15.1958 10.4125 15.5875C10.8042 15.9792 11 16.45 11 17V19C11 19.55 10.8042 20.0208 10.4125 20.4125C10.0208 20.8042 9.55 21 9 21H5ZM15 9C14.45 9 13.9792 8.80417 13.5875 8.4125C13.1958 8.02083 13 7.55 13 7V5C13 4.45 13.1958 3.97917 13.5875 3.5875C13.9792 3.19583 14.45 3 15 3H19C19.55 3 20.0208 3.19583 20.4125 3.5875C20.8042 3.97917 21 4.45 21 5V7C21 7.55 20.8042 8.02083 20.4125 8.4125C20.0208 8.80417 19.55 9 19 9H15ZM15 21C14.45 21 13.9792 20.8042 13.5875 20.4125C13.1958 20.0208 13 19.55 13 19V13C13 12.45 13.1958 11.9792 13.5875 11.5875C13.9792 11.1958 14.45 11 15 11H19C19.55 11 20.0208 11.1958 20.4125 11.5875C20.8042 11.9792 21 12.45 21 13V19C21 19.55 20.8042 20.0208 20.4125 20.4125C20.0208 20.8042 19.55 21 19 21H15ZM5 11H9V5H5V11ZM15 7H19V5H15V7ZM15 19H19V13H15V19ZM5 19H9V17H5V19Z" fill="currentColor"/>
</svg>
