<svg width="24" height="24" viewBox="0 0 24 24" fill="none" xmlns="http://www.w3.org/2000/svg">
<mask id="mask0_2083_1193" style="mask-type:alpha" maskUnits="userSpaceOnUse" x="0" y="0" width="24" height="24">
<rect width="24" height="24" fill="#D9D9D9"/>
</mask>
<g mask="url(#mask0_2083_1193)">
<path d="M12 20C11.1667 20 10.4584 19.7083 9.87505 19.125C9.29172 18.5417 9.00005 17.8333 9.00005 17C9.00005 16.1667 9.29172 15.4583 9.87505 14.875C10.4584 14.2917 11.1667 14 12 14C12.8334 14 13.5417 14.2917 14.125 14.875C14.7084 15.4583 15 16.1667 15 17C15 17.8333 14.7084 18.5417 14.125 19.125C13.5417 19.7083 12.8334 20 12 20ZM17.2 11C16.6667 10.1 15.9459 9.375 15.0375 8.825C14.1292 8.275 13.1167 8 12 8C10.7167 8 9.56672 8.36667 8.55005 9.1C7.53338 9.83333 6.80838 10.775 6.37505 11.925C6.27505 12.2083 6.12088 12.4583 5.91255 12.675C5.70422 12.8917 5.45838 13 5.17505 13C4.87505 13 4.63338 12.8792 4.45005 12.6375C4.26672 12.3958 4.21672 12.1333 4.30005 11.85C4.76672 10.15 5.70422 8.75 7.11255 7.65C8.52088 6.55 10.1417 6 11.975 6C13.1917 6 14.3167 6.24583 15.35 6.7375C16.3834 7.22917 17.2667 7.9 18 8.75V7C18 6.71667 18.0959 6.47917 18.2875 6.2875C18.4792 6.09583 18.7167 6 19 6C19.2834 6 19.5209 6.09583 19.7125 6.2875C19.9042 6.47917 20 6.71667 20 7V12C20 12.2833 19.9042 12.5208 19.7125 12.7125C19.5209 12.9042 19.2834 13 19 13H14C13.7167 13 13.4792 12.9042 13.2875 12.7125C13.0959 12.5208 13 12.2833 13 12C13 11.7167 13.0959 11.4792 13.2875 11.2875C13.4792 11.0958 13.7167 11 14 11H17.2Z" fill="currentColor"/>
</g>
</svg>
