<svg width="8" height="8" viewBox="0 0 8 8" fill="none" xmlns="http://www.w3.org/2000/svg">
<path fill-rule="evenodd" clip-rule="evenodd" d="M6.36622 0.5L1.63796 0.499999C0.940408 0.499999 0.589581 0.499999 0.380714 0.635953C0.155185 0.780203 0.0131732 1.02333 0.000611372 1.28705C-0.0114769 1.52214 0.156079 1.80738 0.484411 2.36623C0.495606 2.38531 0.507011 2.40465 0.518574 2.42435L2.88686 6.4214L2.91382 6.46636C3.24662 7.02163 3.4147 7.30199 3.63035 7.41036C3.86844 7.52988 4.14826 7.52988 4.38635 7.41036C4.60357 7.29914 4.77901 7.00654 5.12569 6.41731L7.48561 2.42026L7.49371 2.40646C7.83917 1.81816 8.01183 1.52416 7.99937 1.2829C7.98266 1.01919 7.84485 0.776056 7.61927 0.631858C7.41461 0.5 7.06378 0.5 6.36622 0.5Z" fill="currentColor"/>
</svg>