<svg width="8" height="8" viewBox="0 0 8 8" fill="none" xmlns="http://www.w3.org/2000/svg">
<path fill-rule="evenodd" clip-rule="evenodd" d="M1.63378 7.5H6.36204C7.05959 7.5 7.41042 7.5 7.61929 7.36405C7.84482 7.2198 7.98683 6.97667 7.99939 6.71295C8.01148 6.47786 7.84392 6.19262 7.51559 5.63377C7.50439 5.61469 7.49299 5.59535 7.48143 5.57565L5.11314 1.5786L5.08618 1.53364C4.75338 0.978366 4.5853 0.698007 4.36965 0.589638C4.13156 0.470121 3.85174 0.470121 3.61365 0.589638C3.39643 0.700859 3.22099 0.993455 2.87431 1.58269L0.514388 5.57974L0.506294 5.59354C0.160827 6.18184 -0.0118272 6.47584 0.000629122 6.7171C0.0173427 6.98081 0.155151 7.22394 0.380732 7.36814C0.585394 7.5 0.936221 7.5 1.63378 7.5Z" fill="currentColor"/>
</svg>