<svg width="24" height="24" viewBox="0 0 24 24" fill="none" xmlns="http://www.w3.org/2000/svg">
<mask id="mask0_2129_1076" style="mask-type:alpha" maskUnits="userSpaceOnUse" x="0" y="0" width="24" height="24">
<rect width="24" height="24" fill="#D9D9D9"/>
</mask>
<g mask="url(#mask0_2129_1076)">
<path d="M11 13V15C11 15.2833 11.0958 15.5208 11.2875 15.7125C11.4792 15.9042 11.7167 16 12 16C12.2833 16 12.5208 15.9042 12.7125 15.7125C12.9042 15.5208 13 15.2833 13 15V13H15C15.2833 13 15.5208 12.9042 15.7125 12.7125C15.9042 12.5208 16 12.2833 16 12C16 11.7167 15.9042 11.4792 15.7125 11.2875C15.5208 11.0958 15.2833 11 15 11H13V9C13 8.71667 12.9042 8.47917 12.7125 8.2875C12.5208 8.09583 12.2833 8 12 8C11.7167 8 11.4792 8.09583 11.2875 8.2875C11.0958 8.47917 11 8.71667 11 9V11H9C8.71667 11 8.47917 11.0958 8.2875 11.2875C8.09583 11.4792 8 11.7167 8 12C8 12.2833 8.09583 12.5208 8.2875 12.7125C8.47917 12.9042 8.71667 13 9 13H11ZM12 22C11.7333 22 11.4792 21.9542 11.2375 21.8625C10.9958 21.7708 10.7833 21.625 10.6 21.425L2.625 13.425C2.44167 13.225 2.29167 13.0042 2.175 12.7625C2.05833 12.5208 2 12.2667 2 12C2 11.7333 2.05833 11.4792 2.175 11.2375C2.29167 10.9958 2.44167 10.7833 2.625 10.6L10.6 2.6C10.8 2.4 11.0167 2.25 11.25 2.15C11.4833 2.05 11.7333 2 12 2C12.2667 2 12.525 2.05 12.775 2.15C13.025 2.25 13.2417 2.4 13.425 2.6L21.375 10.6C21.5583 10.8 21.7083 11.0167 21.825 11.25C21.9417 11.4833 22 11.7333 22 12C22 12.2667 21.9458 12.5208 21.8375 12.7625C21.7292 13.0042 21.575 13.225 21.375 13.425L13.425 21.425C13.2417 21.6083 13.025 21.75 12.775 21.85C12.525 21.95 12.2667 22 12 22ZM12 20L19.975 12L12 4L4.025 12L12 20Z" fill="currentColor"/>
</g>
</svg>
