<svg width="36" height="36" viewBox="0 0 36 36" fill="none" xmlns="http://www.w3.org/2000/svg">
    <path fill="currentColor" d="M8.30132 18L12.1207 21.8194C12.3437 22.0424 12.4577 22.3111 12.4627 22.6256C12.4674 22.9399 12.3534 23.2134 12.1207 23.4461C11.8879 23.6789 11.6168 23.7952 11.3073 23.7952C10.9976 23.7952 10.7264 23.6789 10.4939 23.4461L5.99657 18.9491C5.85632 18.8086 5.75732 18.6605 5.69957 18.5047C5.64182 18.349 5.61294 18.1807 5.61294 18C5.61294 17.8192 5.64182 17.651 5.69957 17.4952C5.75732 17.3395 5.85632 17.1914 5.99657 17.0509L10.4939 12.5539C10.7169 12.3309 10.9857 12.2169 11.3002 12.2119C11.6144 12.2071 11.8879 12.3211 12.1207 12.5539C12.3534 12.7866 12.4698 13.0577 12.4698 13.3672C12.4698 13.677 12.3534 13.9481 12.1207 14.1806L8.30132 18ZM27.6056 18L23.7862 14.1806C23.5632 13.9576 23.4492 13.6889 23.4442 13.3744C23.4394 13.0601 23.5534 12.7866 23.7862 12.5539C24.0189 12.3211 24.2901 12.2047 24.5996 12.2047C24.9091 12.2047 25.1802 12.3211 25.4129 12.5539L29.9099 17.0509C30.0504 17.1914 30.1496 17.3395 30.2073 17.4952C30.2651 17.651 30.2939 17.8192 30.2939 18C30.2939 18.1807 30.2651 18.349 30.2073 18.5047C30.1496 18.6605 30.0504 18.8086 29.9099 18.9491L25.4129 23.4461C25.1899 23.6691 24.9212 23.7831 24.6067 23.7881C24.2924 23.7929 24.0189 23.6789 23.7862 23.4461C23.5534 23.2134 23.4371 22.9422 23.4371 22.6327C23.4371 22.323 23.5534 22.0519 23.7862 21.8194L27.6056 18Z" />
</svg>
