<svg width="25" height="25" viewBox="0 0 25 25" fill="none" xmlns="http://www.w3.org/2000/svg">
<mask id="mask0_5655_23735" style="mask-type:alpha" maskUnits="userSpaceOnUse" x="0" y="0" width="25" height="25">
<rect x="0.223633" y="0.738037" width="24" height="24" fill="currentColor"/>
</mask>
<g mask="url(#mask0_5655_23735)">
<path d="M12.2235 16.738C13.4735 16.738 14.536 16.3005 15.411 15.4255C16.286 14.5505 16.7235 13.488 16.7235 12.238C16.7235 10.988 16.286 9.92554 15.411 9.05054C14.536 8.17554 13.4735 7.73804 12.2235 7.73804C10.9735 7.73804 9.91104 8.17554 9.03604 9.05054C8.16104 9.92554 7.72354 10.988 7.72354 12.238C7.72354 13.488 8.16104 14.5505 9.03604 15.4255C9.91104 16.3005 10.9735 16.738 12.2235 16.738ZM12.2235 14.938C11.4735 14.938 10.836 14.6755 10.311 14.1505C9.78604 13.6255 9.52354 12.988 9.52354 12.238C9.52354 11.488 9.78604 10.8505 10.311 10.3255C10.836 9.80054 11.4735 9.53804 12.2235 9.53804C12.9735 9.53804 13.611 9.80054 14.136 10.3255C14.661 10.8505 14.9235 11.488 14.9235 12.238C14.9235 12.988 14.661 13.6255 14.136 14.1505C13.611 14.6755 12.9735 14.938 12.2235 14.938ZM12.2235 19.738C9.9902 19.738 7.9527 19.138 6.11104 17.938C4.26937 16.738 2.8152 15.1547 1.74854 13.188C1.6652 13.038 1.6027 12.8839 1.56104 12.7255C1.51937 12.5672 1.49854 12.4047 1.49854 12.238C1.49854 12.0714 1.51937 11.9089 1.56104 11.7505C1.6027 11.5922 1.6652 11.438 1.74854 11.288C2.8152 9.32137 4.26937 7.73804 6.11104 6.53804C7.9527 5.33804 9.9902 4.73804 12.2235 4.73804C14.4569 4.73804 16.4944 5.33804 18.336 6.53804C20.1777 7.73804 21.6319 9.32137 22.6985 11.288C22.7819 11.438 22.8444 11.5922 22.886 11.7505C22.9277 11.9089 22.9485 12.0714 22.9485 12.238C22.9485 12.4047 22.9277 12.5672 22.886 12.7255C22.8444 12.8839 22.7819 13.038 22.6985 13.188C21.6319 15.1547 20.1777 16.738 18.336 17.938C16.4944 19.138 14.4569 19.738 12.2235 19.738ZM12.2235 17.738C14.1069 17.738 15.836 17.2422 17.411 16.2505C18.986 15.2589 20.1902 13.9214 21.0235 12.238C20.1902 10.5547 18.986 9.2172 17.411 8.22554C15.836 7.23387 14.1069 6.73804 12.2235 6.73804C10.3402 6.73804 8.61104 7.23387 7.03604 8.22554C5.46104 9.2172 4.25687 10.5547 3.42354 12.238C4.25687 13.9214 5.46104 15.2589 7.03604 16.2505C8.61104 17.2422 10.3402 17.738 12.2235 17.738Z" fill="currentColor"/>
</g>
</svg>
