<svg width="22" height="20" viewBox="0 0 22 20" fill="none" xmlns="http://www.w3.org/2000/svg">
<path d="M18.1004 18.9L14.6004 15.45C14.0171 15.6333 13.4254 15.7708 12.8254 15.8625C12.2254 15.9541 11.6171 16 11.0004 16C8.76706 16 6.72539 15.4 4.87539 14.2C3.02539 13 1.57539 11.4166 0.525391 9.44998C0.442057 9.29998 0.379557 9.14581 0.337891 8.98748C0.296224 8.82914 0.275391 8.66664 0.275391 8.49998C0.275391 8.33331 0.296224 8.17081 0.337891 8.01248C0.379557 7.85414 0.442057 7.69998 0.525391 7.54998C0.892057 6.89998 1.28372 6.26664 1.70039 5.64998C2.11706 5.03331 2.60039 4.48331 3.15039 3.99998L1.07539 1.89998C0.892057 1.71664 0.800391 1.48748 0.800391 1.21248C0.800391 0.937476 0.900391 0.699976 1.10039 0.499976C1.28372 0.316642 1.51706 0.224976 1.80039 0.224976C2.08372 0.224976 2.31706 0.316642 2.50039 0.499976L19.5004 17.5C19.6837 17.6833 19.7796 17.9125 19.7879 18.1875C19.7962 18.4625 19.7004 18.7 19.5004 18.9C19.3171 19.0833 19.0837 19.175 18.8004 19.175C18.5171 19.175 18.2837 19.0833 18.1004 18.9ZM11.0004 13C11.1837 13 11.3587 12.9916 11.5254 12.975C11.6921 12.9583 11.8587 12.925 12.0254 12.875L6.62539 7.47498C6.57539 7.64164 6.54206 7.80831 6.52539 7.97498C6.50872 8.14164 6.50039 8.31664 6.50039 8.49998C6.50039 9.74998 6.93789 10.8125 7.81289 11.6875C8.68789 12.5625 9.75039 13 11.0004 13ZM11.0004 0.999976C13.2337 0.999976 15.2796 1.60414 17.1379 2.81248C18.9962 4.02081 20.4504 5.60831 21.5004 7.57498C21.5837 7.70831 21.6462 7.85414 21.6879 8.01248C21.7296 8.17081 21.7504 8.33331 21.7504 8.49998C21.7504 8.66664 21.7337 8.82914 21.7004 8.98748C21.6671 9.14581 21.6087 9.29164 21.5254 9.42498C21.2087 10.0416 20.8546 10.625 20.4629 11.175C20.0712 11.725 19.6337 12.2416 19.1504 12.725C18.9171 12.9583 18.6421 13.0666 18.3254 13.05C18.0087 13.0333 17.7337 12.9083 17.5004 12.675L15.5004 10.675C15.3837 10.5583 15.3087 10.4208 15.2754 10.2625C15.2421 10.1041 15.2504 9.94164 15.3004 9.77498C15.3671 9.55831 15.4171 9.34998 15.4504 9.14998C15.4837 8.94998 15.5004 8.73331 15.5004 8.49998C15.5004 7.24998 15.0629 6.18748 14.1879 5.31248C13.3129 4.43748 12.2504 3.99998 11.0004 3.99998C10.7671 3.99998 10.5504 4.01664 10.3504 4.04998C10.1504 4.08331 9.94206 4.13331 9.72539 4.19998C9.55872 4.24998 9.39206 4.25831 9.22539 4.22498C9.05872 4.19164 8.91706 4.11664 8.80039 3.99998L7.97539 3.17498C7.65872 2.85831 7.55456 2.49164 7.66289 2.07498C7.77122 1.65831 8.03372 1.39164 8.45039 1.27498C8.86706 1.19164 9.28789 1.12498 9.71289 1.07498C10.1379 1.02498 10.5671 0.999976 11.0004 0.999976ZM12.9754 6.64998C13.1587 6.86664 13.3129 7.10414 13.4379 7.36248C13.5629 7.62081 13.6421 7.89164 13.6754 8.17498C13.6921 8.30831 13.6421 8.39998 13.5254 8.44998C13.4087 8.49998 13.3004 8.47498 13.2004 8.37498L11.1504 6.32498C11.0504 6.22498 11.0296 6.11664 11.0879 5.99998C11.1462 5.88331 11.2421 5.82498 11.3754 5.82498C11.6921 5.85831 11.9837 5.94581 12.2504 6.08748C12.5171 6.22914 12.7587 6.41664 12.9754 6.64998Z" fill="currentColor" fill-opacity="0.6"/>
</svg>
