<svg width="16" height="14" viewBox="0 0 16 14" fill="none" xmlns="http://www.w3.org/2000/svg">
<path d="M8.00326 3.33341C9.84326 3.33341 11.3366 4.82675 11.3366 6.66675C11.3366 7.10008 11.2499 7.50675 11.0966 7.88675L13.0433 9.83341C14.0499 8.99341 14.8433 7.90675 15.3299 6.66675C14.1766 3.74008 11.3299 1.66675 7.99659 1.66675C7.06326 1.66675 6.16992 1.83341 5.34326 2.13341L6.78326 3.57341C7.16326 3.42008 7.56992 3.33341 8.00326 3.33341ZM1.33659 1.51341L3.16326 3.34008C2.05659 4.20008 1.18992 5.34675 0.669922 6.66675C1.82326 9.59341 4.66992 11.6667 8.00326 11.6667C9.03659 11.6667 10.0233 11.4667 10.9233 11.1067L11.2033 11.3867L13.1566 13.3334L14.0033 12.4867L2.18326 0.666748L1.33659 1.51341ZM5.02326 5.20008L6.05659 6.23341C6.02326 6.37341 6.00326 6.52008 6.00326 6.66675C6.00326 7.77341 6.89659 8.66675 8.00326 8.66675C8.14992 8.66675 8.29659 8.64675 8.43659 8.61341L9.46992 9.64675C9.02326 9.86675 8.52992 10.0001 8.00326 10.0001C6.16326 10.0001 4.66992 8.50675 4.66992 6.66675C4.66992 6.14008 4.80326 5.64675 5.02326 5.20008ZM7.89659 4.68008L9.99659 6.78008L10.0099 6.67341C10.0099 5.56675 9.11659 4.67341 8.00992 4.67341L7.89659 4.68008Z" fill="currentColor"/>
</svg>
