<svg width="22" height="15" viewBox="0 0 22 15" fill="none" xmlns="http://www.w3.org/2000/svg">
<path d="M11.0004 12C12.2504 12 13.3129 11.5625 14.1879 10.6875C15.0629 9.8125 15.5004 8.75 15.5004 7.5C15.5004 6.25 15.0629 5.1875 14.1879 4.3125C13.3129 3.4375 12.2504 3 11.0004 3C9.75039 3 8.68789 3.4375 7.81289 4.3125C6.93789 5.1875 6.50039 6.25 6.50039 7.5C6.50039 8.75 6.93789 9.8125 7.81289 10.6875C8.68789 11.5625 9.75039 12 11.0004 12ZM11.0004 10.2C10.2504 10.2 9.61289 9.9375 9.08789 9.4125C8.56289 8.8875 8.30039 8.25 8.30039 7.5C8.30039 6.75 8.56289 6.1125 9.08789 5.5875C9.61289 5.0625 10.2504 4.8 11.0004 4.8C11.7504 4.8 12.3879 5.0625 12.9129 5.5875C13.4379 6.1125 13.7004 6.75 13.7004 7.5C13.7004 8.25 13.4379 8.8875 12.9129 9.4125C12.3879 9.9375 11.7504 10.2 11.0004 10.2ZM11.0004 15C8.76706 15 6.72956 14.4 4.88789 13.2C3.04622 12 1.59206 10.4167 0.525391 8.45C0.442057 8.3 0.379557 8.14583 0.337891 7.9875C0.296224 7.82917 0.275391 7.66667 0.275391 7.5C0.275391 7.33333 0.296224 7.17083 0.337891 7.0125C0.379557 6.85417 0.442057 6.7 0.525391 6.55C1.59206 4.58333 3.04622 3 4.88789 1.8C6.72956 0.6 8.76706 0 11.0004 0C13.2337 0 15.2712 0.6 17.1129 1.8C18.9546 3 20.4087 4.58333 21.4754 6.55C21.5587 6.7 21.6212 6.85417 21.6629 7.0125C21.7046 7.17083 21.7254 7.33333 21.7254 7.5C21.7254 7.66667 21.7046 7.82917 21.6629 7.9875C21.6212 8.14583 21.5587 8.3 21.4754 8.45C20.4087 10.4167 18.9546 12 17.1129 13.2C15.2712 14.4 13.2337 15 11.0004 15Z" fill="currentColor"/>
</svg>
