<svg width="23" height="20" viewBox="0 0 23 20" fill="none" xmlns="http://www.w3.org/2000/svg">
<path d="M14.3986 6.06289C14.882 6.54622 15.2361 7.09622 15.4611 7.71289C15.6861 8.32956 15.7653 8.96289 15.6986 9.61289C15.6986 9.86289 15.607 10.0754 15.4236 10.2504C15.2403 10.4254 15.0236 10.5129 14.7736 10.5129C14.5236 10.5129 14.3111 10.4254 14.1361 10.2504C13.9611 10.0754 13.8736 9.86289 13.8736 9.61289C13.957 9.17956 13.932 8.76289 13.7986 8.36289C13.6653 7.96289 13.457 7.62122 13.1736 7.33789C12.8903 7.05456 12.5486 6.83789 12.1486 6.68789C11.7486 6.53789 11.3236 6.50456 10.8736 6.58789C10.6236 6.58789 10.4111 6.49622 10.2361 6.31289C10.0611 6.12956 9.97363 5.91289 9.97363 5.66289C9.97363 5.41289 10.0611 5.20039 10.2361 5.02539C10.4111 4.85039 10.6236 4.76289 10.8736 4.76289C11.507 4.69622 12.132 4.77539 12.7486 5.00039C13.3653 5.22539 13.9153 5.57956 14.3986 6.06289ZM11.2236 3.73789C10.907 3.73789 10.5986 3.75039 10.2986 3.77539C9.99863 3.80039 9.69863 3.84622 9.39863 3.91289C9.1153 3.96289 8.86113 3.92122 8.63613 3.78789C8.41113 3.65456 8.25697 3.45456 8.17363 3.18789C8.0903 2.92122 8.11947 2.66289 8.26113 2.41289C8.4028 2.16289 8.60697 2.01289 8.87363 1.96289C9.25697 1.87956 9.64447 1.82122 10.0361 1.78789C10.4278 1.75456 10.8236 1.73789 11.2236 1.73789C13.507 1.73789 15.5945 2.33789 17.4861 3.53789C19.3778 4.73789 20.8236 6.35456 21.8236 8.38789C21.8903 8.52122 21.9403 8.65872 21.9736 8.80039C22.007 8.94206 22.0236 9.08789 22.0236 9.23789C22.0236 9.38789 22.0111 9.53372 21.9861 9.67539C21.9611 9.81706 21.9153 9.95456 21.8486 10.0879C21.5486 10.7546 21.1778 11.3796 20.7361 11.9629C20.2945 12.5462 19.807 13.0796 19.2736 13.5629C19.0736 13.7462 18.8403 13.8212 18.5736 13.7879C18.307 13.7546 18.0903 13.6212 17.9236 13.3879C17.757 13.1546 17.6861 12.9004 17.7111 12.6254C17.7361 12.3504 17.8486 12.1212 18.0486 11.9379C18.4486 11.5546 18.8153 11.1379 19.1486 10.6879C19.482 10.2379 19.7736 9.75456 20.0236 9.23789C19.1903 7.55456 17.9861 6.21706 16.4111 5.22539C14.8361 4.23372 13.107 3.73789 11.2236 3.73789ZM11.2236 16.7379C8.9903 16.7379 6.94863 16.1337 5.09863 14.9254C3.24863 13.7171 1.7903 12.1296 0.723633 10.1629C0.640299 10.0296 0.577799 9.88372 0.536133 9.72539C0.494466 9.56706 0.473633 9.40456 0.473633 9.23789C0.473633 9.07122 0.490299 8.91289 0.523633 8.76289C0.556966 8.61289 0.615299 8.46289 0.698633 8.31289C1.03197 7.64622 1.41947 7.00872 1.86113 6.40039C2.3028 5.79206 2.80697 5.23789 3.37363 4.73789L1.29863 2.63789C1.1153 2.43789 1.0278 2.20039 1.03613 1.92539C1.04447 1.65039 1.1403 1.42122 1.32363 1.23789C1.50697 1.05456 1.7403 0.962891 2.02363 0.962891C2.30697 0.962891 2.5403 1.05456 2.72363 1.23789L19.7236 18.2379C19.907 18.4212 20.0028 18.6504 20.0111 18.9254C20.0195 19.2004 19.9236 19.4379 19.7236 19.6379C19.5403 19.8212 19.307 19.9129 19.0236 19.9129C18.7403 19.9129 18.507 19.8212 18.3236 19.6379L14.8236 16.1879C14.2403 16.3712 13.6486 16.5087 13.0486 16.6004C12.4486 16.6921 11.8403 16.7379 11.2236 16.7379ZM4.77363 6.13789C4.2903 6.57122 3.84863 7.04622 3.44863 7.56289C3.04863 8.07956 2.70697 8.63789 2.42363 9.23789C3.25697 10.9212 4.46113 12.2587 6.03613 13.2504C7.61113 14.2421 9.3403 14.7379 11.2236 14.7379C11.557 14.7379 11.882 14.7171 12.1986 14.6754C12.5153 14.6337 12.8403 14.5879 13.1736 14.5379L12.2736 13.5879C12.0903 13.6379 11.9153 13.6754 11.7486 13.7004C11.582 13.7254 11.407 13.7379 11.2236 13.7379C9.97363 13.7379 8.91113 13.3004 8.03613 12.4254C7.16113 11.5504 6.72363 10.4879 6.72363 9.23789C6.72363 9.05456 6.73613 8.87956 6.76113 8.71289C6.78613 8.54622 6.82363 8.37122 6.87363 8.18789L4.77363 6.13789Z" fill="currentColor"/>
</svg>
