<svg width="22" height="16" viewBox="0 0 22 16" fill="none" xmlns="http://www.w3.org/2000/svg">
<path d="M11 12.5C12.25 12.5 13.3125 12.0625 14.1875 11.1875C15.0625 10.3125 15.5 9.25 15.5 8C15.5 6.75 15.0625 5.6875 14.1875 4.8125C13.3125 3.9375 12.25 3.5 11 3.5C9.75 3.5 8.6875 3.9375 7.8125 4.8125C6.9375 5.6875 6.5 6.75 6.5 8C6.5 9.25 6.9375 10.3125 7.8125 11.1875C8.6875 12.0625 9.75 12.5 11 12.5ZM11 10.7C10.25 10.7 9.6125 10.4375 9.0875 9.9125C8.5625 9.3875 8.3 8.75 8.3 8C8.3 7.25 8.5625 6.6125 9.0875 6.0875C9.6125 5.5625 10.25 5.3 11 5.3C11.75 5.3 12.3875 5.5625 12.9125 6.0875C13.4375 6.6125 13.7 7.25 13.7 8C13.7 8.75 13.4375 9.3875 12.9125 9.9125C12.3875 10.4375 11.75 10.7 11 10.7ZM11 15.5C8.56667 15.5 6.35 14.8208 4.35 13.4625C2.35 12.1042 0.9 10.2833 0 8C0.9 5.71667 2.35 3.89583 4.35 2.5375C6.35 1.17917 8.56667 0.5 11 0.5C13.4333 0.5 15.65 1.17917 17.65 2.5375C19.65 3.89583 21.1 5.71667 22 8C21.1 10.2833 19.65 12.1042 17.65 13.4625C15.65 14.8208 13.4333 15.5 11 15.5ZM11 13.5C12.8833 13.5 14.6125 13.0042 16.1875 12.0125C17.7625 11.0208 18.9667 9.68333 19.8 8C18.9667 6.31667 17.7625 4.97917 16.1875 3.9875C14.6125 2.99583 12.8833 2.5 11 2.5C9.11667 2.5 7.3875 2.99583 5.8125 3.9875C4.2375 4.97917 3.03333 6.31667 2.2 8C3.03333 9.68333 4.2375 11.0208 5.8125 12.0125C7.3875 13.0042 9.11667 13.5 11 13.5Z" fill="currentColor" fill-opacity="0.6"/>
</svg>
