<svg width="16" height="16" viewBox="0 0 16 16" fill="none" xmlns="http://www.w3.org/2000/svg">
<mask id="mask0_5792_31203" style="mask-type:alpha" maskUnits="userSpaceOnUse" x="0" y="0" width="16" height="16">
<rect width="16" height="16" fill="#D9D9D9"/>
</mask>
<g mask="url(#mask0_5792_31203)">
<path d="M11.0165 12.7178C10.8943 12.7956 10.7665 12.8678 10.6332 12.9345C10.4998 13.0011 10.3554 13.0678 10.1998 13.1345C10.0443 13.2011 9.88593 13.2011 9.72482 13.1345C9.56371 13.0678 9.45538 12.9567 9.39982 12.8011C9.34427 12.6456 9.3526 12.4928 9.42482 12.3428C9.49704 12.1928 9.61093 12.0845 9.76649 12.0178C9.86649 11.9734 9.96093 11.9289 10.0498 11.8845C10.1387 11.84 10.2054 11.8011 10.2498 11.7678L7.99982 9.70114V11.3678C7.99982 11.6345 7.8776 11.8206 7.63315 11.9261C7.38871 12.0317 7.17204 11.99 6.98315 11.8011L4.79982 9.61781H2.99982C2.83315 9.61781 2.69149 9.55947 2.57482 9.44281C2.45815 9.32614 2.39982 9.18447 2.39982 9.01781V7.01781C2.39982 6.85114 2.45815 6.70947 2.57482 6.59281C2.69149 6.47614 2.83315 6.41781 2.99982 6.41781H4.69982L1.91649 3.61781C1.79427 3.49558 1.73315 3.35392 1.73315 3.19281C1.73315 3.03169 1.79427 2.89003 1.91649 2.76781C2.03871 2.64558 2.18038 2.58447 2.34149 2.58447C2.5026 2.58447 2.64427 2.64558 2.76649 2.76781L13.2332 13.2345C13.3554 13.3567 13.4165 13.4956 13.4165 13.6511C13.4165 13.8067 13.3554 13.9456 13.2332 14.0678C13.1109 14.19 12.9693 14.2511 12.8082 14.2511C12.647 14.2511 12.5054 14.19 12.3832 14.0678L11.0165 12.7178ZM12.3998 8.01781C12.3998 7.14003 12.1609 6.34281 11.6832 5.62614C11.2054 4.90947 10.5776 4.37336 9.79982 4.01781C9.64427 3.94003 9.5276 3.82614 9.44982 3.67614C9.37204 3.52614 9.36649 3.37336 9.43315 3.21781C9.49982 3.05114 9.61649 2.93447 9.78315 2.86781C9.94982 2.80114 10.1165 2.80669 10.2832 2.88447C11.2832 3.32892 12.0859 4.00947 12.6915 4.92614C13.297 5.84281 13.5998 6.86781 13.5998 8.00114C13.5998 8.35669 13.5665 8.70669 13.4998 9.05114C13.4332 9.39558 13.3332 9.72892 13.1998 10.0511C13.1109 10.2734 12.9887 10.4122 12.8332 10.4678C12.6776 10.5234 12.5276 10.5234 12.3832 10.4678C12.2387 10.4122 12.1248 10.315 12.0415 10.1761C11.9582 10.0373 11.9554 9.89003 12.0332 9.73447C12.1554 9.4678 12.247 9.19003 12.3082 8.90114C12.3693 8.61225 12.3998 8.31781 12.3998 8.01781ZM9.64982 5.76781C10.0054 5.99003 10.2859 6.31781 10.4915 6.75114C10.697 7.18447 10.7998 7.60669 10.7998 8.01781V8.21781C10.7998 8.28447 10.7943 8.34558 10.7832 8.40114C10.7609 8.52336 10.6887 8.60392 10.5665 8.64281C10.4443 8.68169 10.3332 8.65114 10.2332 8.55114L9.38315 7.70114C9.3276 7.64558 9.28315 7.58169 9.24982 7.50947C9.21649 7.43725 9.19982 7.35669 9.19982 7.26781V6.01781C9.19982 5.89558 9.24982 5.80947 9.34982 5.75947C9.44982 5.70947 9.54982 5.71225 9.64982 5.76781ZM6.66649 4.98447C6.61093 4.92892 6.58315 4.85669 6.58315 4.76781C6.58315 4.67892 6.61093 4.60669 6.66649 4.55114L6.98315 4.23447C7.17204 4.04558 7.38871 4.00392 7.63315 4.10947C7.8776 4.21503 7.99982 4.40114 7.99982 4.66781V5.60114C7.99982 5.73447 7.93593 5.82336 7.80815 5.86781C7.68038 5.91225 7.57204 5.89003 7.48315 5.80114L6.66649 4.98447Z" fill="white"/>
</g>
</svg>
