<svg width="16" height="16" viewBox="0 0 16 16" fill="none" xmlns="http://www.w3.org/2000/svg">
<mask id="mask0_5792_31200" style="mask-type:alpha" maskUnits="userSpaceOnUse" x="0" y="0" width="16" height="16">
<rect width="16" height="16" fill="#D9D9D9"/>
</mask>
<g mask="url(#mask0_5792_31200)">
<path d="M12.3999 7.98894C12.3999 7.1185 12.161 6.32494 11.6832 5.60827C11.2055 4.89161 10.5786 4.35361 9.80257 3.99427C9.64524 3.92027 9.52768 3.80827 9.4499 3.65827C9.37212 3.50827 9.36657 3.3555 9.43324 3.19994C9.4999 3.03327 9.61935 2.91661 9.79157 2.84994C9.96379 2.78327 10.1333 2.7865 10.3001 2.85961C11.3111 3.30872 12.1138 3.99716 12.7082 4.92494C13.3027 5.85272 13.5999 6.87844 13.5999 8.00211C13.5999 9.12577 13.3027 10.148 12.7082 11.0688C12.1138 11.9896 11.3111 12.6745 10.3001 13.1236C10.1333 13.1967 9.96379 13.1999 9.79157 13.1333C9.61935 13.0666 9.4999 12.9499 9.43324 12.7833C9.36657 12.6277 9.37212 12.4749 9.4499 12.3249C9.52768 12.1749 9.64524 12.0629 9.80257 11.9889C10.5786 11.6296 11.2055 11.0907 11.6832 10.3723C12.161 9.65394 12.3999 8.8595 12.3999 7.98894ZM4.7999 9.59994H2.9999C2.8299 9.59994 2.6874 9.54244 2.5724 9.42744C2.4574 9.31244 2.3999 9.16994 2.3999 8.99994V6.99994C2.3999 6.82994 2.4574 6.68744 2.5724 6.57244C2.6874 6.45744 2.8299 6.39994 2.9999 6.39994H4.7999L6.98324 4.21661C7.17212 4.02772 7.38879 3.98577 7.63324 4.09077C7.87768 4.19577 7.9999 4.38333 7.9999 4.65344V11.3448C7.9999 11.6149 7.87768 11.8027 7.63324 11.9083C7.38879 12.0138 7.17212 11.9722 6.98324 11.7833L4.7999 9.59994ZM10.7999 7.99994C10.7999 8.41105 10.6999 8.83327 10.4999 9.26661C10.2999 9.69994 10.0166 10.0277 9.6499 10.2499C9.5499 10.3055 9.4499 10.3083 9.3499 10.2583C9.2499 10.2083 9.1999 10.1196 9.1999 9.99211V6.00777C9.1999 5.88033 9.2499 5.79161 9.3499 5.74161C9.4499 5.69161 9.5499 5.69439 9.6499 5.74994C10.0166 5.96105 10.2999 6.28605 10.4999 6.72494C10.6999 7.16383 10.7999 7.58883 10.7999 7.99994Z" fill="white"/>
</g>
</svg>
