<svg width="21" height="22" viewBox="0 0 21 22" fill="none" xmlns="http://www.w3.org/2000/svg">
<path d="M3.50098 7.30078C3.50098 6.81753 3.89273 6.42578 4.37598 6.42578H14.876C16.3257 6.42578 17.501 7.60103 17.501 9.05078V14.3008C17.501 15.7505 16.3257 16.9258 14.876 16.9258H6.12598C4.67623 16.9258 3.50098 15.7505 3.50098 14.3008V7.30078Z" stroke="currentColor" stroke-width="1.4875"/>
<path d="M3.9375 6.51328L12.7632 3.41883C13.5729 3.13494 14.4687 3.48256 14.875 4.23828V4.23828" stroke="currentColor" stroke-width="1.575" stroke-linecap="round"/>
<path d="M17.5 9.05078H14C12.5503 9.05078 11.375 10.226 11.375 11.6758V11.6758C11.375 13.1255 12.5503 14.3008 14 14.3008H17.5" stroke="currentColor" stroke-width="1.4875"/>
<rect x="13.124" y="10.8008" width="1.75" height="1.75" rx="0.875" fill="currentColor"/>
</svg>
