<svg width="24" height="16" viewBox="0 0 24 16" fill="none" xmlns="http://www.w3.org/2000/svg">
<path d="M5.6309 3.66204C9.40465 -0.0317138 15.524 -0.0317138 19.2978 3.66204L19.7522 4.10641C19.7969 4.14982 19.8326 4.20179 19.8569 4.25923C19.8812 4.31667 19.8937 4.37841 19.8937 4.44079C19.8937 4.50316 19.8812 4.5649 19.8569 4.62234C19.8326 4.67978 19.7969 4.73175 19.7522 4.77516L18.1984 6.29579C18.1526 6.34019 18.0913 6.36502 18.0275 6.36502C17.9637 6.36502 17.9024 6.34019 17.8565 6.29579L17.2315 5.68391C14.599 3.10766 10.3303 3.10766 7.69715 5.68391L7.02778 6.33891C6.98196 6.38332 6.92065 6.40815 6.85684 6.40815C6.79303 6.40815 6.73173 6.38332 6.6859 6.33891L5.13215 4.81829C5.08736 4.77488 5.05174 4.72291 5.02742 4.66547C5.0031 4.60803 4.99057 4.54629 4.99057 4.48391C4.99057 4.42153 5.0031 4.35979 5.02742 4.30235C5.05174 4.24491 5.08736 4.19295 5.13215 4.14954L5.6309 3.66204ZM22.5115 6.80641L23.894 8.16016C23.9388 8.20357 23.9744 8.25554 23.9988 8.31298C24.0231 8.37042 24.0356 8.43216 24.0356 8.49454C24.0356 8.55691 24.0231 8.61865 23.9988 8.67609C23.9744 8.73353 23.9388 8.7855 23.894 8.82891L17.659 14.9314C17.5675 15.0204 17.4448 15.0701 17.3172 15.0701C17.1895 15.0701 17.0668 15.0204 16.9753 14.9314L12.5503 10.6002C12.5274 10.5778 12.4967 10.5653 12.4647 10.5653C12.4326 10.5653 12.4019 10.5778 12.379 10.6002L7.95403 14.9314C7.86246 15.0204 7.73982 15.0701 7.61215 15.0701C7.48449 15.0701 7.36185 15.0204 7.27028 14.9314L1.03465 8.82891C0.98986 8.7855 0.954244 8.73353 0.929922 8.67609C0.905599 8.61865 0.893066 8.55691 0.893066 8.49454C0.893066 8.43216 0.905599 8.37042 0.929922 8.31298C0.954244 8.25554 0.98986 8.20357 1.03465 8.16016L2.41778 6.80641C2.50932 6.71764 2.63183 6.66799 2.75934 6.66799C2.88686 6.66799 3.00936 6.71764 3.1009 6.80641L7.5259 11.1377C7.54879 11.16 7.57952 11.1726 7.61153 11.1726C7.64353 11.1726 7.67427 11.16 7.69715 11.1377L12.1222 6.80641C12.2137 6.71745 12.3364 6.66769 12.464 6.66769C12.5917 6.66769 12.7143 6.71745 12.8059 6.80641L17.2315 11.1377C17.2544 11.16 17.2851 11.1726 17.3172 11.1726C17.3492 11.1726 17.3799 11.16 17.4028 11.1377L21.8278 6.80641C21.9193 6.71745 22.042 6.66769 22.1697 6.66769C22.2973 6.66769 22.42 6.71745 22.5115 6.80641ZM32.3522 12.9627L34.0228 6.28141C34.1215 5.91266 34.2065 5.51641 34.3197 4.89391C34.4047 5.51641 34.504 5.91266 34.5747 6.28141L36.0184 12.9627H39.0059L41.5253 3.05329H39.2315L37.8447 9.14079C37.7069 9.71996 37.5985 10.3057 37.5197 10.8958C37.4059 10.2308 37.2928 9.73516 37.1653 9.15454L35.8203 3.05329H32.819L31.3609 9.15454C31.2303 9.73141 31.1171 10.3121 31.0215 10.8958C30.9257 10.3121 30.8124 9.7314 30.6815 9.15454L29.3228 3.05329H26.9303L29.4359 12.9627H32.3522ZM43.2353 13.2177C44.3678 13.2177 45.0897 12.7502 45.4578 12.0708C45.4153 12.2833 45.4015 12.4958 45.4015 12.7083V12.9627H47.2984V8.87141C47.2984 6.91828 46.4065 5.78579 44.2265 5.78579C42.3434 5.78579 41.1122 6.83329 40.999 8.27704H43.0803C43.1503 7.63954 43.6034 7.25829 44.2972 7.25829C44.9484 7.25829 45.3022 7.62578 45.3022 8.05079C45.3022 8.36203 45.1184 8.54579 44.5659 8.61641L43.5753 8.73016C42.1028 8.91391 40.8434 9.45203 40.8434 11.0089C40.8434 12.4245 42.0184 13.2177 43.2353 13.2177ZM43.8728 11.7595C43.3203 11.7595 42.9103 11.4483 42.9103 10.9095C42.9103 10.3864 43.3772 10.1314 44.0853 10.0039L44.5665 9.91891C44.9765 9.83391 45.2034 9.76329 45.3447 9.63579V10.287C45.3447 11.1652 44.7072 11.7595 43.8722 11.7595H43.8728ZM48.2847 3.05329V12.9627H50.3372V3.05329H48.2847ZM51.5247 3.05329V12.9627H53.5772V3.05329H51.5247ZM58.0578 13.2177C60.0115 13.2177 61.2709 12.1133 61.4128 10.6695H59.3459C59.2465 11.3064 58.7084 11.6602 58.0578 11.6602C57.1803 11.6602 56.5428 10.9527 56.529 9.97578H61.4553V9.57954C61.4553 7.28579 60.1953 5.78579 58.0153 5.78579C55.9203 5.78579 54.4478 7.25766 54.4478 9.48016C54.4478 11.8864 55.9628 13.2177 58.0578 13.2177ZM56.514 8.63079C56.5997 7.83829 57.1803 7.25766 58.0015 7.25766C58.794 7.25766 59.3453 7.80954 59.3603 8.63079H56.514ZM65.7997 13.1039C66.2528 13.1039 66.6915 13.0333 66.8897 12.977V11.4189C66.726 11.4471 66.5602 11.4613 66.394 11.4614C65.644 11.4614 65.3753 11.0364 65.3753 10.3427V7.62516H67.0453V6.02516H65.3753V3.56266H63.3365V6.02516H61.8359V7.62516H63.3365V10.6264C63.3365 12.2683 64.1578 13.1039 65.7997 13.1039ZM72.7284 13.2177C75.5315 13.2177 77.2303 11.5752 77.4428 9.21141H75.2203C75.0503 10.4989 74.144 11.377 72.8134 11.377C71.2422 11.377 70.1378 10.1033 70.1378 7.95141C70.1378 5.84204 71.2847 4.63891 72.8559 4.63891C74.2009 4.63891 74.9653 5.46016 75.1209 6.66329H77.4003C77.1734 4.20016 75.3615 2.79829 72.8703 2.79829C70.0247 2.79829 67.8447 4.72329 67.8447 7.95141C67.8447 11.292 69.7559 13.2177 72.7284 13.2177ZM81.8928 13.2177C84.0303 13.2177 85.5453 11.8727 85.5453 9.52266C85.5453 7.21516 84.0303 5.78516 81.8928 5.78516C79.769 5.78516 78.2547 7.21516 78.2547 9.52266C78.2547 11.8727 79.7553 13.2177 81.8928 13.2177ZM81.8928 11.632C80.944 11.632 80.3353 10.8533 80.3353 9.52266C80.3353 8.16391 80.9728 7.39954 81.8928 7.39954C82.8271 7.39954 83.464 8.16391 83.464 9.52266C83.464 10.8539 82.8409 11.632 81.8928 11.632ZM88.4065 12.9627V8.90016C88.4065 8.03641 88.9446 7.39954 89.709 7.39954C90.4309 7.39954 90.8559 7.95141 90.8559 8.87141V12.9627H92.9084V8.57454C92.9084 6.90391 92.0309 5.78516 90.459 5.78516C89.369 5.78516 88.704 6.30891 88.3503 6.93204C88.3868 6.72148 88.4056 6.50823 88.4065 6.29454V6.02579H86.354V12.9627H88.4065ZM96.189 12.9627V8.90016C96.189 8.03641 96.7265 7.39954 97.4909 7.39954C98.2134 7.39954 98.6378 7.95141 98.6378 8.87141V12.9627H100.69V8.57454C100.69 6.90391 99.8128 5.78516 98.2415 5.78516C97.1515 5.78516 96.4859 6.30891 96.1322 6.93204C96.1747 6.67704 96.189 6.47891 96.189 6.29454V6.02579H94.1359V12.9627H96.189ZM105.107 13.2177C107.06 13.2177 108.32 12.1133 108.462 10.6695H106.395C106.296 11.3064 105.758 11.6602 105.107 11.6602C104.229 11.6602 103.592 10.9527 103.578 9.97578H108.505V9.57954C108.505 7.28579 107.245 5.78579 105.065 5.78579C102.97 5.78579 101.497 7.25766 101.497 9.48016C101.497 11.8864 103.012 13.2177 105.107 13.2177ZM103.564 8.63079C103.649 7.83829 104.229 7.25766 105.05 7.25766C105.843 7.25766 106.395 7.80954 106.409 8.63079H103.564ZM112.912 13.2177C115.064 13.2177 116.239 12.0427 116.465 10.2164H114.413C114.342 10.9808 113.903 11.632 112.983 11.632C112.048 11.632 111.412 10.7683 111.412 9.49454C111.412 8.10704 112.148 7.39954 113.025 7.39954C113.889 7.39954 114.313 8.02204 114.37 8.74391H116.423C116.267 7.05954 115.12 5.78516 113.011 5.78516C110.958 5.78516 109.33 7.14454 109.33 9.49454C109.33 11.8158 110.703 13.2177 112.912 13.2177ZM120.905 13.1039C121.358 13.1039 121.797 13.0333 121.995 12.977V11.4189C121.832 11.4471 121.666 11.4613 121.5 11.4614C120.75 11.4614 120.48 11.0364 120.48 10.3427V7.62516H122.151V6.02516H120.48V3.56266H118.442V6.02516H116.942V7.62516H118.442V10.6264C118.442 12.2683 119.263 13.1039 120.905 13.1039Z" fill="currentColor"/>
</svg>
