<svg width="24" height="24" viewBox="0 0 24 24" fill="none" xmlns="http://www.w3.org/2000/svg">
<path d="M17.5 6.09961C19.3778 6.09961 20.9004 7.62223 20.9004 9.5V16.5C20.9004 18.3778 19.3778 19.9004 17.5 19.9004H6.5C4.62223 19.9004 3.09961 18.3778 3.09961 16.5V9.5C3.09961 7.62223 4.62223 6.09961 6.5 6.09961H17.5ZM13.9004 13C13.9004 14.1598 14.8402 15.0996 16 15.0996H19.0996V10.9004H16C14.8402 10.9004 13.9004 11.8402 13.9004 13ZM4.90039 16.5C4.90039 17.3837 5.61634 18.0996 6.5 18.0996H17.5C18.2453 18.0996 18.87 17.5901 19.0479 16.9004H16C13.8461 16.9004 12.0996 15.1539 12.0996 13C12.0996 10.8461 13.8461 9.09961 16 9.09961H19.0479C18.87 8.40992 18.2453 7.90039 17.5 7.90039H6.5C5.61634 7.90039 4.90039 8.61634 4.90039 9.5V16.5Z" fill="currentColor"/>
<path d="M15 13C15 12.4477 15.4477 12 16 12V12C16.5523 12 17 12.4477 17 13V13C17 13.5523 16.5523 14 16 14V14C15.4477 14 15 13.5523 15 13V13Z" fill="currentColor"/>
</svg>
