<svg width="12" height="14" viewBox="0 0 12 14" fill="none" xmlns="http://www.w3.org/2000/svg">
<path d="M5.99935 0.333252C2.44602 3.36659 0.666016 5.98659 0.666016 8.19992C0.666016 11.5199 3.19935 13.6666 5.99935 13.6666C8.79935 13.6666 11.3327 11.5199 11.3327 8.19992C11.3327 5.98659 9.55268 3.36659 5.99935 0.333252ZM3.21935 8.33325C3.46602 8.33325 3.66602 8.50659 3.71268 8.74659C3.98602 10.2266 5.23268 10.7333 6.13935 10.6599C6.42602 10.6466 6.66602 10.8733 6.66602 11.1599C6.66602 11.4266 6.45268 11.6466 6.18602 11.6599C4.76602 11.7466 3.10602 10.9333 2.72602 8.91325C2.67268 8.61325 2.91268 8.33325 3.21935 8.33325Z" fill="#27DAA6"/>
</svg>
