<svg width="20" height="20" viewBox="0 0 20 20" fill="none" xmlns="http://www.w3.org/2000/svg">
<mask id="mask0_5310_23579" style="mask-type:alpha" maskUnits="userSpaceOnUse" x="0" y="0" width="20" height="20">
<rect width="20" height="20" fill="#D9D9D9"/>
</mask>
<g mask="url(#mask0_5310_23579)">
<path d="M10.5833 15.4583C10.6944 15.4444 10.7917 15.3924 10.875 15.3021C10.9583 15.2118 11 15.0972 11 14.9583C11 14.8056 10.9444 14.6806 10.8333 14.5833C10.7222 14.4861 10.5903 14.4514 10.4375 14.4792C9.63194 14.5903 8.89236 14.4028 8.21875 13.9167C7.54514 13.4306 7.14583 12.7708 7.02083 11.9375C7.00694 11.8125 6.95486 11.7083 6.86458 11.625C6.77431 11.5417 6.66667 11.5 6.54167 11.5C6.38889 11.5 6.26042 11.5556 6.15625 11.6667C6.05208 11.7778 6.01389 11.9097 6.04167 12.0625C6.19444 13.1458 6.70833 14.0208 7.58333 14.6875C8.45833 15.3542 9.45833 15.6111 10.5833 15.4583ZM10 18C8.19444 18 6.65972 17.3681 5.39583 16.1042C4.13194 14.8403 3.5 13.3056 3.5 11.5C3.5 10.1528 4.01736 8.72917 5.05208 7.22917C6.08681 5.72917 7.73611 3.98611 10 2C12.3056 4.08333 13.9653 5.86806 14.9792 7.35417C15.9931 8.84028 16.5 10.2222 16.5 11.5C16.5 13.3056 15.8681 14.8403 14.6042 16.1042C13.3403 17.3681 11.8056 18 10 18ZM10 16.5C11.3889 16.5 12.5694 16.0139 13.5417 15.0417C14.5139 14.0694 15 12.8889 15 11.5C15 10.5556 14.625 9.52083 13.875 8.39583C13.125 7.27083 11.8333 5.79861 10 3.97917C8.16667 5.79861 6.875 7.27083 6.125 8.39583C5.375 9.52083 5 10.5556 5 11.5C5 12.8889 5.48611 14.0694 6.45833 15.0417C7.43056 16.0139 8.61111 16.5 10 16.5Z" fill="currentColor"/>
</g>
</svg>
