<svg width="12" height="23" viewBox="0 0 12 23" fill="none" xmlns="http://www.w3.org/2000/svg">
<path d="M4 22.9417C3.45 22.9417 2.97917 22.7458 2.5875 22.3542C2.19583 21.9625 2 21.4916 2 20.9417V17.9417C1.45 17.9417 0.979167 17.7458 0.5875 17.3542C0.195833 16.9625 0 16.4917 0 15.9417V2.94165C0 2.39165 0.195833 1.92082 0.5875 1.52915C0.979167 1.13748 1.45 0.94165 2 0.94165H10C10.55 0.94165 11.0208 1.13748 11.4125 1.52915C11.8042 1.92082 12 2.39165 12 2.94165V15.9417C12 16.4917 11.8042 16.9625 11.4125 17.3542C11.0208 17.7458 10.55 17.9417 10 17.9417V20.9417C10 21.4916 9.80417 21.9625 9.4125 22.3542C9.02083 22.7458 8.55 22.9417 8 22.9417H4ZM6 12.4417C6.83333 12.4417 7.54167 12.15 8.125 11.5667C8.70833 10.9833 9 10.275 9 9.44165C9 8.60832 8.70833 7.89998 8.125 7.31665C7.54167 6.73332 6.83333 6.44165 6 6.44165C5.16667 6.44165 4.45833 6.73332 3.875 7.31665C3.29167 7.89998 3 8.60832 3 9.44165C3 10.275 3.29167 10.9833 3.875 11.5667C4.45833 12.15 5.16667 12.4417 6 12.4417ZM4 20.9417H8V17.9417H4V20.9417ZM2 15.9417H10V2.94165H2V15.9417ZM6 10.4417C5.71667 10.4417 5.47917 10.3458 5.2875 10.1542C5.09583 9.96248 5 9.72498 5 9.44165C5 9.15832 5.09583 8.92082 5.2875 8.72915C5.47917 8.53748 5.71667 8.44165 6 8.44165C6.28333 8.44165 6.52083 8.53748 6.7125 8.72915C6.90417 8.92082 7 9.15832 7 9.44165C7 9.72498 6.90417 9.96248 6.7125 10.1542C6.52083 10.3458 6.28333 10.4417 6 10.4417Z" fill="currentColor"/>
</svg>
