<svg width="256" height="256" viewBox="0 0 256 256" fill="none" xmlns="http://www.w3.org/2000/svg">
<g clip-path="url(#clip0_5531_31397)">
<rect width="256" height="256" fill="#E9E3D1"/>
<g style="mix-blend-mode:multiply">
<path fill-rule="evenodd" clip-rule="evenodd" d="M128.66 258.65H128.337C128.391 258.65 128.444 258.65 128.498 258.65C128.552 258.65 128.606 258.65 128.66 258.65ZM192.847 193.85H64.1497C64.3918 158.518 93.1089 129.95 128.498 129.95C163.888 129.95 192.605 158.518 192.847 193.85ZM64.1483 194.185C64.1482 194.223 64.1482 194.262 64.1482 194.3C64.1482 194.339 64.1482 194.377 64.1483 194.416V194.185Z" fill="#E84142"/>
</g>
<g style="mix-blend-mode:multiply">
<path fill-rule="evenodd" clip-rule="evenodd" d="M192.847 152.45H64.1497C64.3916 117.118 93.1087 88.5498 128.498 88.5498C163.888 88.5498 192.605 117.118 192.847 152.45ZM64.1483 153.015V152.784C64.1482 152.823 64.1482 152.861 64.1482 152.9C64.1482 152.938 64.1482 152.977 64.1483 153.015Z" fill="#24366D"/>
</g>
<g style="mix-blend-mode:exclusion">
<path fill-rule="evenodd" clip-rule="evenodd" d="M64.1497 111.049H192.847C192.605 75.717 163.888 47.1494 128.498 47.1494C93.1087 47.1494 64.3916 75.717 64.1497 111.049Z" fill="#EEA556"/>
</g>
</g>
<defs>
<clipPath id="clip0_5531_31397">
<rect width="256" height="256" fill="white"/>
</clipPath>
</defs>
</svg>
