<svg width="24" height="24" viewBox="0 0 24 24" fill="none" xmlns="http://www.w3.org/2000/svg">
<mask id="mask0_2084_1152" style="mask-type:alpha" maskUnits="userSpaceOnUse" x="0" y="0" width="24" height="24">
<rect width="24" height="24" fill="#D9D9D9"/>
</mask>
<g mask="url(#mask0_2084_1152)">
<path d="M8 20C7.71667 20 7.47917 19.9042 7.2875 19.7125C7.09583 19.5208 7 19.2833 7 19C7 18.7167 7.09583 18.4792 7.2875 18.2875C7.47917 18.0958 7.71667 18 8 18H16C16.2833 18 16.5208 18.0958 16.7125 18.2875C16.9042 18.4792 17 18.7167 17 19C17 19.2833 16.9042 19.5208 16.7125 19.7125C16.5208 19.9042 16.2833 20 16 20H8ZM12 16C11.7167 16 11.4792 15.9042 11.2875 15.7125C11.0958 15.5208 11 15.2833 11 15V7.82499L9.1 9.69999C8.91667 9.88332 8.6875 9.97915 8.4125 9.98749C8.1375 9.99582 7.9 9.89999 7.7 9.69999C7.51667 9.51665 7.425 9.28332 7.425 8.99999C7.425 8.71665 7.51667 8.48332 7.7 8.29999L11.3 4.69999C11.4 4.59999 11.5083 4.52915 11.625 4.48749C11.7417 4.44582 11.8667 4.42499 12 4.42499C12.1333 4.42499 12.2583 4.44582 12.375 4.48749C12.4917 4.52915 12.6 4.59999 12.7 4.69999L16.3 8.29999C16.4833 8.48332 16.5792 8.71249 16.5875 8.98749C16.5958 9.26249 16.5 9.49999 16.3 9.69999C16.1167 9.88332 15.8833 9.97499 15.6 9.97499C15.3167 9.97499 15.0833 9.88332 14.9 9.69999L13 7.82499V15C13 15.2833 12.9042 15.5208 12.7125 15.7125C12.5208 15.9042 12.2833 16 12 16Z" fill="currentColor"/>
</g>
</svg>
