<svg width="24" height="24" viewBox="0 0 24 24" fill="none" xmlns="http://www.w3.org/2000/svg">
<mask id="mask0_2084_1249" style="mask-type:alpha" maskUnits="userSpaceOnUse" x="0" y="0" width="24" height="24">
<rect width="24" height="24" fill="#D9D9D9"/>
</mask>
<g mask="url(#mask0_2084_1249)">
<path d="M11 8.8L8.10005 11.7C7.91672 11.8833 7.68338 11.975 7.40005 11.975C7.11672 11.975 6.88338 11.8833 6.70005 11.7C6.51672 11.5167 6.42505 11.2833 6.42505 11C6.42505 10.7167 6.51672 10.4833 6.70005 10.3L11.3 5.7C11.5 5.5 11.7334 5.4 12 5.4C12.2667 5.4 12.5 5.5 12.7 5.7L17.3 10.3C17.4834 10.4833 17.575 10.7167 17.575 11C17.575 11.2833 17.4834 11.5167 17.3 11.7C17.1167 11.8833 16.8834 11.975 16.6 11.975C16.3167 11.975 16.0834 11.8833 15.9 11.7L13 8.8V17C13 17.2833 12.9042 17.5208 12.7125 17.7125C12.5209 17.9042 12.2834 18 12 18C11.7167 18 11.4792 17.9042 11.2875 17.7125C11.0959 17.5208 11 17.2833 11 17V8.8Z" fill="currentColor"/>
</g>
</svg>
